<svg xmlns="http://www.w3.org/2000/svg" width="294" height="174" fill="none" viewBox="0 0 294 174">
<!-- SVG created with Arrow, by QuiverAI (https://quiver.ai) -->
  <path d="m293.9 0.41h-293.8v173.2h293.8v-173.2z" fill="#FEFFFE"/>
  <path d="m293.8 169.4-293.8 4.18v-6l293.8-0.14v1.96z" fill="url(#paint0_linear_6340_169134)" opacity=".15"/>
  <path d="m0.08 113.9c6.18-1.82 18.05-2.32 29.13-0.77 17.07 2.63 25.93 8.87 38.21 18.86 13.54 11.11 21.61 15.96 42.71 17.12 15.4 0.87 36.82 0.99 59.24 19.34h124.5l-0.03-85.14c-14.67-0.75-23.8 4.98-40.7 15.79-13.96 9.2-21.15 18.5-37.44 20.6-12.3 2.38-19.09 0.9-28.96-0.64-10.74-1.75-14.32 2.69-24.05 2.4-15.54-0.5-31.4 0.55-46.82 6.29-9.75 3.46-17.68 7.66-29.78 15.05-11.58-4.74-21.22-16.73-36.86-22.1-9.96-4.3-17.63-8.92-49.17-6.8z" fill="url(#paint1_linear_6340_169134)"/>
  <path d="m293.8 83.35c-12.53-0.17-22.37 4.49-38.03 14.29-12.09 8.14-20.7 19.29-37.12 23.08-12.52 3.29-18.55 2.39-29.52 2.16-11.9-0.94-15.06-1.6-24.25-1.76-15.49-0.56-27.95 0.36-41.49 4.51-12.23 3.63-21.21 7.51-37.52 17.27 9.78 4.76 17.76 5.65 29.33 6 12.52 0.38 34.58 2.41 54.27 19.17l124.3-0.14v-84.58z" fill="url(#paint2_linear_6340_169134)"/>
  <path d="m293.8 107.8c-16.58-1.03-25.66 4.36-40.77 17.34-11.6 9.76-19.12 13.94-36.93 13.52-12.88-0.86-26.41-4.88-37.88-3.94-14.58 0.7-27.95 5.16-45.22 14.88 13.92 2.41 25.37 7.85 36.43 18.37l124.3-0.17 0.03-60z" fill="url(#paint3_linear_6340_169134)"/>
  <path d="m261.3 84.1 7.81 29.02 1.56-1.02-7.48-28.62-1.89 0.62z" fill="#000" opacity=".15"/>
  <path d="m261.7 83.56 8.11 28.89-1.44 0.53-7.8-28.87 1.13-0.55z" fill="#FEFFFE"/>
  <path d="m238.9 62.62 4.43 11.86c0.9 2.2 3.61 1.7 5.97 1.17 2.46-0.56 6.32-1.83 8.27-2.49l-5.77-12.38 4.43-3.77 11.65-3.29-7.11 13.38 9.15 1.22 6.2 14.29-11.2-7.8-4.18 9.41-12.62 7.04 7.72-14.13-9.05-2.02-7.89-12.49z" fill="url(#paint4_linear_6340_169134)"/>
  <path d="m251.9 59.95 4.62-3.42 4.06 10.35-3.06 6.03-5.62-12.96z" fill="#F5D15A"/>
  <path d="m260.6 67 7.6 0.84 4.58 2.24 2.85 12.26-10.62-7.54-4.41-7.8z" fill="url(#paint5_linear_6340_169134)"/>
  <path d="m248.1 75.07 7.57 1.64 1.98-4.01 0.31 4.72-6.89 11.5-2.97-13.85z" fill="url(#paint6_linear_6340_169134)"/>
  <path d="m257.9 73.32c1.38 0 1.86-0.93 1.86-1.91s-0.97-1.46-1.78-1.46c-0.9 0-1.63 0.69-1.63 1.57 0 1.04 0.74 1.8 1.55 1.8z" fill="#E9E8E2"/>
  <path d="m227.9 123.1c9.2 0 16.66-8.22 16.66-15.47 0-7.95-6.94-14.42-15.99-14.28-8.22 0.13-14.12 7.26-14.12 14.77 0 7.67 6.3 14.98 13.45 14.98z" fill="url(#paint7_linear_6340_169134)"/>
  <path d="m223.7 121.7c7.31 1.29 15.4-8.24 16.28-18.21 0.58-6.6-2.95-9.15-3.94-9.2-7.89-0.38-14.31 9.08-15.63 17.54-0.86 5.82 0.91 9.43 3.29 9.87z" fill="url(#paint8_linear_6340_169134)"/>
  <path d="m223.4 121.3c4.23-1.67 9.7-11.86 12.67-19.13 1.9-4.94 1.74-7.04 0.13-7.74-6.1-0.25-12.46 5.65-14.96 16.05-1.66 7.15-0.51 10.17 2.16 10.82z" fill="url(#paint9_linear_6340_169134)"/>
  <path d="m160 96.27c2.85 0.07 6.19-0.13 7.02-1.35 1.22-1.85 1.68-6.91 8.17-6.91 6.2 0 8.4 5.21 8.4 9.2 0 3.02-1.9 5.6-3.12 6.7 1.85 0.7 2.92 0.33 5.75 0.25 2.85-0.08 6.92 1 8.77 0.93 2.84-0.16 4.22-3.01 5.6-3.01 1.39 0 1.84 0.95 1.84 6.01 0 6.82-3.37 13.64-14.39 13.64h-9.88c-7.52 0-13.1-5.01-13.1-11.58 0-3.68 2.06-6 3.67-7.6-2.54-0.77-8.74-0.39-8.74-5.36v-0.92h0.01z" fill="url(#paint10_linear_6340_169134)"/>
  <path d="m172 95.95c0.74 0 1.26-0.52 1.26-1.19s-0.52-1.11-1.16-1.11c-0.71 0-1.16 0.52-1.16 1.11 0 0.67 0.52 1.19 1.06 1.19z" fill="#FEFFFE"/>
  <path d="m179.8 106.9c4.81 0.23 7.45 1.93 12 0.23 2.2-0.83 2.91-1.14 2.37 0.71-1.44 4.79-5.51 9.5-11.09 8.89-4.81-0.49-7.82-2.47-7.98-6.31-0.1-2.64 1.49-3.68 4.7-3.52z" fill="url(#paint11_linear_6340_169134)"/>
  <path d="m173.6 129.1c4.02 0 5.7-2.48 5.7-5.07 0-3.23-2.1-5.68-5.69-5.68-3.44 0-5.41 2.4-5.41 5.4 0 2.8 1.85 5.35 5.4 5.35z" fill="url(#paint12_linear_6340_169134)"/>
  <path d="m173.7 126.9c2.49 0 3.58-1.7 3.58-3.37 0-2.19-1.3-3.78-3.57-3.78-2.21 0-3.43 1.55-3.43 3.6 0 1.89 1.21 3.55 3.42 3.55z" fill="#F5D15A"/>
  <path d="m193.1 129.1c4.02 0 5.7-2.48 5.7-5.07 0-3.23-2.1-5.68-5.69-5.68-3.44 0-5.41 2.4-5.41 5.4 0 2.8 1.85 5.35 5.4 5.35z" fill="url(#paint13_linear_6340_169134)"/>
  <path d="m193.2 126.9c2.49 0 3.58-1.7 3.58-3.37 0-2.19-1.3-3.78-3.57-3.78-2.21 0-3.43 1.55-3.43 3.6 0 1.89 1.21 3.55 3.42 3.55z" fill="#F5D15A"/>
  <path d="m126.4 93.52c-12.21 0-18.65 9.57-18.26 24.49l0.21 2.15 3.33-0.54c-0.75-11.86 2.6-21.7 13.78-21.7 9.58 0 14.17 7.79 15.27 16.79l2.9-0.44c-1.32-12.54-7.63-20.75-17.23-20.75z" fill="url(#paint14_linear_6340_169134)"/>
  <path d="m125.8 98.78c-9.74 0-12.59 8.33-12.09 19.53l2.9-0.38c-0.7-9.26 2.19-15.22 8.23-15.22s9.54 5.46 10.38 12.2l3.49-0.7c-1.1-8.15-5.69-15.43-12.91-15.43z" fill="url(#paint15_linear_6340_169134)"/>
  <path d="m124.8 104.5c-5.18 0-6.27 5.1-5.97 13.25l2.54-0.34c-0.45-6.56 1.25-10.01 4.71-10.01 3.16 0 4.77 3.11 5.5 7.82l2.85-0.53c-1.1-5.98-4.26-10.19-9.63-10.19z" fill="url(#paint16_linear_6340_169134)"/>
  <path d="m95.01 118.3 2-0.57c0.82-0.32 1.38 0.32 1.16 1.03l-0.84 2.48 1.53 2.71c0.46 0.74-0.15 1.54-1.1 1.27l-2.85-0.94-2.69 2.16c-0.85 0.63-1.87 0.17-1.6-0.91l0.82-2.99-2.46-2.09c-0.63-0.54-0.36-1.69 0.59-1.61l3.28 0.14 2.16-0.68z" fill="url(#paint17_linear_6340_169134)" stroke="#D2B351" stroke-miterlimit="10" stroke-width=".7"/>
  <path d="m26.17 99.92 0.57-15.21c0.07-1.16 0.97-1.97 2.01-1.84l15.69 1.84c1.57 0.19 3.3 0.36 1.47 2.4l-0.8 14.6c-0.19 1.85-0.4 1.9-2.69 1.68l-14.17-1.58c-1.34-0.16-2.18-0.56-2.08-1.89z" fill="url(#paint18_linear_6340_169134)" stroke="#D1B24B" stroke-miterlimit="10" stroke-width=".7"/>
  <path d="m20.02 117.4 0.7-15.03c0.09-1.13 0.93-1.86 1.99-1.73l24.67 3.04c1.33 0.16 1.93 0.87 1.74 2.46l-2.34 15.46c-0.17 1.09-0.87 1.34-2.66 0.99l-22.71-3.39c-1.04-0.21-1.49-0.66-1.39-1.8z" fill="url(#paint19_linear_6340_169134)" stroke="#977259" stroke-miterlimit="10" stroke-width=".7"/>
  <path d="m29.56 79.84 1.33-14.12c0.15-1.21 0.64-1.61 1.83-1.42l16.14 2.31c1.55 0.25 1.65 0.6 1.45 2.51l-2.46 15.1c-0.2 1.21-0.74 1.3-2.13 1.14l-15.74-1.69c-1.05-0.12-0.69-1.76-0.42-3.83z" fill="url(#paint20_linear_6340_169134)" stroke="#2C8581" stroke-miterlimit="10" stroke-width=".7"/>
  <path d="m68.32 95.62 0.19-0.46c0.2-0.4 0.81-0.45 1.12-0.11l3.88 4.65 6.4 17.32-0.2 3.62-4.93 2.12-6.66-19.95 0.2-7.19z" fill="url(#paint21_linear_6340_169134)"/>
  <path d="m68.32 101.1 5.09-2.3 0.7 1.92-5.4 2.36-0.39-1.98z" fill="url(#paint22_linear_6340_169134)"/>
  <path d="m72.16 105.9c-1.55 0.49-1.55 2.44-0.55 5.15 1.1 3.09 2.31 5.54 4.01 4.94 1.57-0.62 1.49-3.1 0.5-6.01-1.05-3.04-2.26-4.59-3.96-4.08z" fill="url(#paint23_linear_6340_169134)"/>
  <path d="m74.82 118.5 4.89-2.09 0.83 2.21-5.02 2.1-0.7-2.22z" fill="url(#paint24_linear_6340_169134)"/>
  <path d="m240.2 14.14c-1.26-3.7-4.38-6.54-12.27-6.4-6.65 0.12-10.17 5.08-10.82 8.63-1.85-1.29-3.47-1.96-6.75-1.71-4.67 0.35-7.26 4.41-7.88 8.4-1.55-0.41-7.45-0.34-7.45 5.32 0 3.46 2.8 5.08 7.45 5.23 8 0.28 18.41 0.55 24.95 0.48 3.81-0.05 6.64-0.43 8.66-2.07 1.85 1.29 3.64 1.44 5.03 1.29 2.05-0.25 3.54-1.29 4.42-3.06 1.55 0.36 2.89 0.2 4.2-0.33 1.71-0.73 3.76-2.38 4.4-5.29 0.66-3.29-2-6.05-5.3-6.62-0.99-0.18-2.1-0.11-3.01 0.17-0.8-2.52-2.65-4.27-5.63-4.04z" fill="#000" opacity=".15"/>
  <path d="m238.9 13.43c-1.26-3.7-4.21-6.38-11.61-6.24-6.39 0.12-9.7 4.67-10.6 8.92-1.44-1.29-3.19-2.05-6.53-1.97-5.05 0.13-7.46 4.59-8.06 8.07-1.55-0.48-7.4-0.68-7.11 5.82 0.13 2.88 2.7 4.58 7.11 4.7 7.15 0.23 15.04 0.38 22 0.38 4.5 0 9.06 0 11.39-1.49 1.55 0.83 3.2 0.99 4.36 0.83 2.69-0.38 4.34-2.15 5.04-4.34 1.21-0.49 2.6-0.79 3.65-1.1 3.29-1 5.65-2.95 5.75-5.81 0.1-2.84-2.39-4.93-5.39-5.01-1.21-0.05-2.2 0.18-3.3 0.62-0.71-2.15-2.56-4.09-6.7-3.38z" fill="#CCDEF0"/>
  <path d="m242.6 33.31c-5.05-0.58-9.04 1.44-9.04 5.43 0 3.29 2.85 4.07 7.5 4.29 6.84 0.28 15.99 0.13 24.14-0.47 4.38-0.33 5.64-1.18 5.71-3.66 0-2.29-2.2-3.28-4.89-2.79-0.08-3-2.67-5.69-7.22-5.69-3.7 0-5.42 1.67-6.3 3.52-1.5-1.42-4.5-2.1-9.9-0.63z" fill="#000" opacity=".15"/>
  <path d="m242.9 31.7c-4.82-0.94-9.09 0.82-9.34 4.74-0.2 3.21 1.96 4.67 7.15 4.97 6.39 0.35 14.34 0.2 23.09-0.18 5.05-0.25 7-0.92 7.1-3.46 0.1-2.2-1.8-3.56-4.99-2.96-0.2-3.6-2.66-6.2-7.41-6.1-3.9 0.07-5.7 2-6.7 4.2-1.3-1.29-4.05-2-8.9-1.21z" fill="#F5F6F3"/>
  <path d="m60.07 34.81c-2.16 0-3.42 0.6-4.06 1.02-0.5-4.8-4.1-10.12-9.53-9.82-4.77 0.25-7.41 3.32-8.36 5.76-1.44-0.51-3.11-0.74-5.31 0.07-3.09 1.17-4.2 3.78-4.4 5.97-2.34 0.5-5.03 1.84-5.03 4.93 0 2.98 2.24 4.09 6.31 4.2 9.03 0.33 16.4 0.25 25.37-0.53 5.37-0.49 11.22-0.34 11.45-6.45 0.1-3.15-2.7-5.15-6.44-5.15z" fill="#F5F6F3"/>
  <path d="m66.08 22.12c-2.69-0.3-4.14 1.7-4.21 3.55-0.15 2.36 1.34 3.11 4.44 3.19 5.85 0.2 9.81 0.33 15.71-0.15 3.82-0.31 5.44-0.85 5.24-3.6-0.2-2.2-2.4-3.04-4.79-2.46-0.45-2.49-2.4-5.57-6.65-5.65-4.11-0.09-5.81 2.52-6.41 4.5-0.9 0.08-1.84-0.05-3.33 0.62z" fill="#000" opacity=".15"/>
  <path d="m66.21 20.91c-2.8-0.15-4.19 1.6-4.34 3.72-0.2 2.29 0.96 2.99 4.24 3.12 4.95 0.2 10 0.33 14.96 0 3.96-0.25 6.16-0.91 6.06-3.52-0.1-2.2-2.4-3.49-4.82-2.79-0.49-2.63-2.69-5.43-6.65-5.58-3.95-0.15-6.15 2.45-6.85 4.75-0.9-0.1-1.4 0-2.6 0.3z" fill="#CCDEF0"/>
  <path d="m14.08 3.12c0.84 0 1.15 0.49 1.15 1.05 0 0.64-0.52 0.94-1.06 0.94-0.71 0-1.1-0.5-1.1-0.99 0-0.61 0.47-1 1.01-1z" fill="#95BC9C"/>
  <path d="m20.71 19.07c0.91-0.55 1.56-0.34 2 0.24 0.53 0.67 0.15 1.43-0.4 1.85-0.84 0.62-1.74 0.35-2.16-0.24-0.56-0.76-0.28-1.56 0.56-1.85z" fill="url(#paint25_linear_6340_169134)"/>
  <path d="m30.69 10.21c1.05-0.5 1.82-0.18 2.17 0.55 0.45 0.91-0.15 1.7-0.85 2-1.15 0.52-2-0.07-2.32-0.84-0.45-1.09 0.12-1.9 1-1.71z" fill="url(#paint26_linear_6340_169134)"/>
  <path d="m41.42 8.7c0.6-0.39 1.14-0.24 1.49 0.18 0.45 0.56 0.1 1.18-0.35 1.43-0.77 0.45-1.4 0.05-1.65-0.45-0.4-0.7-0.04-1.28 0.51-1.16z" fill="#51B1A6"/>
  <path d="m213.9 47.07c0.8-0.36 1.36-0.06 1.61 0.54 0.35 0.8-0.21 1.46-0.86 1.65-1 0.35-1.65-0.35-1.8-1-0.25-0.9 0.35-1.45 1.05-1.19z" fill="url(#paint27_linear_6340_169134)"/>
  <path d="m282.6 1.71c1.05-0.55 1.82-0.2 2.22 0.58 0.55 1.05-0.21 2.02-1.06 2.37-1.36 0.6-2.31-0.35-2.56-1.29-0.4-1.33 0.45-2.13 1.4-1.66z" fill="url(#paint28_linear_6340_169134)"/>
  <path d="m284.2 50.8c1.2-0.49 2-0.07 2.4 0.76 0.55 1.15-0.4 2.1-1.35 2.35-1.55 0.5-2.5-0.6-2.75-1.65-0.4-1.53 0.6-2.38 1.7-1.46z" fill="url(#paint29_linear_6340_169134)"/>
  <path d="m279.2 47.07c0.73-0.36 1.3-0.11 1.6 0.44 0.45 0.8-0.2 1.46-0.85 1.71-1.1 0.45-1.85-0.31-2.1-1.08-0.35-1.13 0.45-1.78 1.35-1.07z" fill="#86BCA5"/>
  <path d="m271.7 5.01c0.85-0.55 1.55-0.3 1.95 0.3 0.55 0.8-0.05 1.6-0.8 1.9-1.2 0.5-2.05-0.35-2.3-1.21-0.35-1.19 0.45-1.89 1.15-0.99z" fill="#E6D061"/>
  <path d="m263.3 9.46c0.7-0.35 1.25-0.1 1.5 0.4 0.4 0.75-0.2 1.4-0.85 1.6-1.05 0.4-1.75-0.4-1.95-1.15-0.3-1.1 0.5-1.7 1.3-0.85z" fill="#95BC9C"/>
  <path d="m269 14.93c0.9-0.47 1.55-0.17 1.9 0.48 0.5 0.96-0.25 1.86-1 2.21-1.3 0.65-2.25-0.35-2.5-1.35-0.45-1.46 0.5-2.36 1.6-1.34z" fill="url(#paint30_linear_6340_169134)"/>
  <path d="m284.6 38.94c0.7-0.5 1.35-0.33 1.75 0.17 0.6 0.7 0.05 1.5-0.65 1.85-1.15 0.6-2.05-0.2-2.4-1.1-0.55-1.35 0.3-2.25 1.3-0.92z" fill="url(#paint31_linear_6340_169134)"/>
  <path d="m11.38 62.08c0.95-0.6 1.75-0.35 2.25 0.35 0.7 1-0.1 2.05-1 2.4-1.5 0.65-2.55-0.5-2.8-1.6-0.35-1.6 0.7-2.5 1.55-1.15z" fill="url(#paint32_linear_6340_169134)"/>
  <path d="m12.13 49.21c0.85-0.5 1.5-0.25 1.9 0.4 0.55 0.9-0.15 1.75-0.9 2.1-1.3 0.6-2.25-0.4-2.5-1.4-0.4-1.45 0.6-2.35 1.5-1.1z" fill="#E6D061"/>
  <path d="m16.23 51.81c0.65-0.4 1.25-0.2 1.6 0.3 0.55 0.75-0.05 1.55-0.75 1.85-1.2 0.5-2.05-0.4-2.3-1.3-0.4-1.4 0.55-2.3 1.45-0.85z" fill="#95BC9C"/>
  <path d="m22.76 55.8c0.8-0.55 1.5-0.35 1.95 0.2 0.65 0.8 0 1.7-0.75 2.05-1.3 0.65-2.25-0.35-2.6-1.3-0.55-1.5 0.45-2.5 1.4-0.95z" fill="url(#paint33_linear_6340_169134)"/>
  <path d="m15.61 71.66c0.8-0.6 1.5-0.4 2 0.15 0.7 0.8 0 1.75-0.75 2.1-1.3 0.65-2.25-0.35-2.5-1.35-0.45-1.5 0.55-2.4 1.25-0.9z" fill="#E6D061"/>
  <path d="m55.86 54.81c0.7-0.35 1.25-0.1 1.55 0.45 0.45 0.8-0.2 1.5-0.85 1.7-1.05 0.4-1.75-0.4-1.95-1.15-0.3-1.1 0.5-1.8 1.25-1z" fill="#51B1A6"/>
  <path d="m66.71 68.83c0.85-0.55 1.55-0.3 1.95 0.3 0.6 0.86-0.15 1.75-0.95 2.1-1.35 0.6-2.3-0.4-2.6-1.4-0.5-1.5 0.5-2.45 1.6-1z" fill="#F5D15A"/>
  <path d="m69.96 58.36c0.7-0.45 1.3-0.25 1.7 0.3 0.55 0.8-0.2 1.6-0.95 1.9-1.3 0.55-2.15-0.45-2.4-1.45-0.4-1.45 0.65-2.35 1.65-0.75z" fill="url(#paint34_linear_6340_169134)"/>
  <path d="m72.71 65.31c0.8-0.6 1.55-0.4 2 0.2 0.7 0.9-0.05 1.9-0.85 2.3-1.4 0.7-2.45-0.45-2.75-1.55-0.5-1.65 0.6-2.65 1.6-0.95z" fill="url(#paint35_linear_6340_169134)"/>
  <path d="m76.91 53.91c0.85-0.5 1.55-0.25 1.95 0.35 0.6 0.85-0.15 1.75-0.95 2.05-1.3 0.55-2.25-0.45-2.5-1.45-0.45-1.45 0.55-2.35 1.5-0.95z" fill="#F5D15A"/>
  <path d="m57.71 97.72c0.8-0.5 1.45-0.25 1.85 0.35 0.55 0.8-0.15 1.6-0.9 1.95-1.2 0.55-2.1-0.4-2.35-1.35-0.45-1.4 0.5-2.3 1.4-0.95z" fill="#F5D15A"/>
  <path d="m60.01 83.61c0.8-0.35 1.35-0.05 1.65 0.55 0.45 0.8-0.2 1.45-0.85 1.7-1.15 0.45-1.9-0.45-2.1-1.25-0.35-1.2 0.5-1.9 1.3-1z" fill="url(#paint36_linear_6340_169134)"/>
  <path d="m88.52 77.92c0.55-0.5 1.1-0.4 1.45-0.05 0.55 0.55 0.15 1.3-0.4 1.65-0.95 0.6-1.8-0.1-2.1-0.95-0.46-1.25 0.4-2.15 1.05-0.65z" fill="#95BC9C"/>
  <path d="m91.27 90.69c0.7-0.75 1.45-0.75 2.05-0.25 0.9 0.75 0.35 1.95-0.45 2.5-1.45 1-2.75-0.1-3.25-1.3-0.75-1.8 0.3-3.1 1.65-0.95z" fill="url(#paint37_linear_6340_169134)"/>
  <path d="m94.17 96.47c0.65-0.65 1.3-0.55 1.75-0.1 0.7 0.7 0.2 1.65-0.5 2.1-1.2 0.75-2.25-0.2-2.65-1.25-0.65-1.7 0.45-2.9 1.4-0.75z" fill="#F5D15A"/>
  <path d="m102.4 86.11c0.9-0.6 1.65-0.35 2.05 0.35 0.6 1-0.25 1.95-1.1 2.35-1.55 0.75-2.65-0.5-2.95-1.7-0.55-1.8 0.65-3 2-1z" fill="url(#paint38_linear_6340_169134)"/>
  <path d="m133.5 77.92c0.75-0.3 1.25 0 1.5 0.5 0.4 0.75-0.25 1.35-0.9 1.55-1.15 0.4-1.85-0.55-2.05-1.45-0.3-1.3 0.6-2.05 1.45-0.6z" fill="url(#paint39_linear_6340_169134)"/>
  <path d="m145.7 86.96c0.75-0.35 1.3-0.1 1.6 0.45 0.45 0.8-0.2 1.45-0.85 1.7-1.1 0.45-1.85-0.4-2.05-1.25-0.35-1.2 0.45-1.85 1.3-0.9z" fill="#95BC9C"/>
  <path d="m150.3 90.69c0.95-0.55 1.65-0.25 2.05 0.45 0.6 1.05-0.25 2-1.1 2.35-1.45 0.65-2.4-0.45-2.65-1.55-0.45-1.6 0.6-2.6 1.7-1.25z" fill="url(#paint40_linear_6340_169134)"/>
  <path d="m159.9 81.21c0.8-0.5 1.45-0.25 1.8 0.35 0.55 0.9-0.2 1.75-0.95 2.05-1.25 0.55-2.2-0.45-2.45-1.45-0.5-1.55 0.6-2.5 1.6-0.95z" fill="url(#paint41_linear_6340_169134)"/>
  <path d="m200.5 73.61c0.6-0.55 1.24-0.45 1.7 0 0.65 0.7 0.1 1.6-0.6 1.95-1.2 0.65-2.15-0.35-2.46-1.35-0.54-1.5 0.46-2.5 1.36-0.6z" fill="#E6D061"/>
  <path d="m208 77.57c0.66-0.7 1.41-0.65 1.96-0.1 0.85 0.85 0.2 2-0.65 2.5-1.55 0.9-2.85-0.4-3.3-1.7-0.75-2.05 0.55-3.45 1.99-0.7z" fill="url(#paint42_linear_6340_169134)"/>
  <path d="m215.8 75.91c0.65-0.45 1.2-0.25 1.55 0.25 0.5 0.7-0.1 1.4-0.75 1.7-1.15 0.55-2-0.45-2.3-1.4-0.5-1.45 0.45-2.35 1.5-0.55z" fill="#95BC9C"/>
  <path d="m224.1 70.21c1.05-0.5 1.75-0.15 2.15 0.55 0.55 1-0.3 1.95-1.15 2.3-1.45 0.65-2.4-0.55-2.7-1.65-0.55-1.7 0.6-2.8 1.7-1.2z" fill="url(#paint43_linear_6340_169134)"/>
  <path d="m225.2 57.06c1.05 0.65 1.1 1.55 0.65 2.4-0.7 1.3-2.2 0.9-3.1 0-1.5-1.55-0.5-3.4 0.9-3.95 1.8-0.75 3 0.4 1.55 1.55z" fill="#F5D15A"/>
  <path d="m224.5 65.01c0.45-0.35 1-0.25 1.3 0.1 0.55 0.6 0.05 1.35-0.6 1.65-1.15 0.55-2-0.4-2.3-1.3-0.5-1.45 0.6-2.35 1.6-0.45z" fill="#95BC9C"/>
  <path d="m224.3 81.06 0.85-0.05 0.5 0.2v0.95l-0.7 0.5-1-0.1-0.5-1 0.85-0.5z" fill="url(#paint44_linear_6340_169134)"/>
  <path d="m280.5 58.31 0.65-0.2 0.85 0.2 0.4 1-0.6 0.7-1.2 0.15-0.9-0.95 0.8-0.9z" fill="#F5D15A"/>
  <defs>
    <linearGradient id="paint0_linear_6340_169134" x1="147" x2="147" y1="167.5" y2="173.6" gradientUnits="userSpaceOnUse">
      <stop stop-color="#999" offset="0"/>
      <stop stop-color="#F7F7F7" offset=".6823"/>
    </linearGradient>
    <linearGradient id="paint1_linear_6340_169134" x1="107.8" x2="107.8" y1="83.25" y2="168.5" gradientUnits="userSpaceOnUse">
      <stop stop-color="#98BE98" offset="0"/>
      <stop stop-color="#98BE98" offset="1"/>
    </linearGradient>
    <linearGradient id="paint2_linear_6340_169134" x1="188.5" x2="188.5" y1="83.25" y2="168" gradientUnits="userSpaceOnUse">
      <stop stop-color="#F2D051" offset="0"/>
      <stop stop-color="#F5CA51" offset="1"/>
    </linearGradient>
    <linearGradient id="paint3_linear_6340_169134" x1="217.2" x2="217.2" y1="107.4" y2="167.9" gradientUnits="userSpaceOnUse">
      <stop stop-color="#ED755A" offset="0"/>
      <stop stop-color="#F07961" offset="1"/>
    </linearGradient>
    <linearGradient id="paint4_linear_6340_169134" x1="257.7" x2="257.7" y1="53.72" y2="91.26" gradientUnits="userSpaceOnUse">
      <stop stop-color="#469185" offset="0"/>
      <stop stop-color="#94B89A" offset=".7019"/>
    </linearGradient>
    <linearGradient id="paint5_linear_6340_169134" x1="267.7" x2="267.7" y1="66.88" y2="82.34" gradientUnits="userSpaceOnUse">
      <stop stop-color="#DB645F" offset="0"/>
      <stop stop-color="#E97359" offset="1"/>
    </linearGradient>
    <linearGradient id="paint6_linear_6340_169134" x1="253" x2="253" y1="72.7" y2="88.92" gradientUnits="userSpaceOnUse">
      <stop stop-color="#DB645F" offset="0"/>
      <stop stop-color="#CED4B6" offset="1"/>
    </linearGradient>
    <linearGradient id="paint7_linear_6340_169134" x1="229.5" x2="229.5" y1="93.34" y2="123.1" gradientUnits="userSpaceOnUse">
      <stop stop-color="#DB635F" offset="0"/>
      <stop stop-color="#F29161" offset="1"/>
    </linearGradient>
    <linearGradient id="paint8_linear_6340_169134" x1="229.8" x2="229.8" y1="94.23" y2="122" gradientUnits="userSpaceOnUse">
      <stop stop-color="#2B8985" offset="0"/>
      <stop stop-color="#449691" offset="1"/>
    </linearGradient>
    <linearGradient id="paint9_linear_6340_169134" x1="228" x2="228" y1="94.11" y2="121.4" gradientUnits="userSpaceOnUse">
      <stop stop-color="#359591" offset="0"/>
      <stop stop-color="#308172" offset="1"/>
    </linearGradient>
    <linearGradient id="paint10_linear_6340_169134" x1="184.1" x2="184.1" y1="88.01" y2="122.4" gradientUnits="userSpaceOnUse">
      <stop stop-color="#94BC9A" offset="0"/>
      <stop stop-color="#85AB90" offset="1"/>
    </linearGradient>
    <linearGradient id="paint11_linear_6340_169134" x1="184" x2="184" y1="106.2" y2="116.7" gradientUnits="userSpaceOnUse">
      <stop stop-color="#F2D052" offset="0"/>
      <stop stop-color="#F2AF41" offset="1"/>
    </linearGradient>
    <linearGradient id="paint12_linear_6340_169134" x1="173.7" x2="173.7" y1="118.3" y2="129" gradientUnits="userSpaceOnUse">
      <stop stop-color="#F0BF4B" offset="0"/>
      <stop stop-color="#F2CF51" offset="1"/>
    </linearGradient>
    <linearGradient id="paint13_linear_6340_169134" x1="193.2" x2="193.2" y1="118.3" y2="129" gradientUnits="userSpaceOnUse">
      <stop stop-color="#F0BF4B" offset="0"/>
      <stop stop-color="#F2CF51" offset="1"/>
    </linearGradient>
    <linearGradient id="paint14_linear_6340_169134" x1="125.9" x2="125.9" y1="93.52" y2="120.2" gradientUnits="userSpaceOnUse">
      <stop stop-color="#359591" offset="0"/>
      <stop stop-color="#2B8985" offset="1"/>
    </linearGradient>
    <linearGradient id="paint15_linear_6340_169134" x1="126.7" x2="126.7" y1="98.78" y2="119.1" gradientUnits="userSpaceOnUse">
      <stop stop-color="#F0D051" offset="0"/>
      <stop stop-color="#F2BF4B" offset="1"/>
    </linearGradient>
    <linearGradient id="paint16_linear_6340_169134" x1="126.5" x2="126.5" y1="104.5" y2="117.7" gradientUnits="userSpaceOnUse">
      <stop stop-color="#EF826F" offset="0"/>
      <stop stop-color="#E9715A" offset="1"/>
    </linearGradient>
    <linearGradient id="paint17_linear_6340_169134" x1="93.94" x2="93.94" y1="117.4" y2="127" gradientUnits="userSpaceOnUse">
      <stop stop-color="#F0BF4B" offset="0"/>
      <stop stop-color="#F2CF51" offset="1"/>
    </linearGradient>
    <linearGradient id="paint18_linear_6340_169134" x1="36.75" x2="36.75" y1="82.6" y2="103.5" gradientUnits="userSpaceOnUse">
      <stop stop-color="#F1CB51" offset="0"/>
      <stop stop-color="#F2D052" offset="1"/>
    </linearGradient>
    <linearGradient id="paint19_linear_6340_169134" x1="34.59" x2="34.59" y1="100.5" y2="123.1" gradientUnits="userSpaceOnUse">
      <stop stop-color="#EE7B66" offset="0"/>
      <stop stop-color="#F07962" offset="1"/>
    </linearGradient>
    <linearGradient id="paint20_linear_6340_169134" x1="39.77" x2="39.77" y1="64.13" y2="85.77" gradientUnits="userSpaceOnUse">
      <stop stop-color="#379990" offset="0"/>
      <stop stop-color="#2C8581" offset="1"/>
    </linearGradient>
    <linearGradient id="paint21_linear_6340_169134" x1="73.77" x2="73.77" y1="94.82" y2="122.8" gradientUnits="userSpaceOnUse">
      <stop stop-color="#DD6B57" offset="0"/>
      <stop stop-color="#EE715A" offset="1"/>
    </linearGradient>
    <linearGradient id="paint22_linear_6340_169134" x1="71.2" x2="71.2" y1="98.13" y2="103.1" gradientUnits="userSpaceOnUse">
      <stop stop-color="#DB504A" offset="0"/>
      <stop stop-color="#D9433F" offset="1"/>
    </linearGradient>
    <linearGradient id="paint23_linear_6340_169134" x1="73.93" x2="73.93" y1="105.7" y2="116.1" gradientUnits="userSpaceOnUse">
      <stop stop-color="#E26045" offset="0"/>
      <stop stop-color="#EF8266" offset="1"/>
    </linearGradient>
    <linearGradient id="paint24_linear_6340_169134" x1="77.66" x2="77.66" y1="116.4" y2="120.8" gradientUnits="userSpaceOnUse">
      <stop stop-color="#DF6147" offset="0"/>
      <stop stop-color="#EF8266" offset="1"/>
    </linearGradient>
    <linearGradient id="paint25_linear_6340_169134" x1="20.54" x2="22.88" y1="18.4" y2="21" gradientUnits="userSpaceOnUse">
      <stop stop-color="#3C9992" offset="0"/>
      <stop stop-color="#35908A" offset="1"/>
    </linearGradient>
    <linearGradient id="paint26_linear_6340_169134" x1="29.09" x2="31.72" y1="10.2" y2="13.22" gradientUnits="userSpaceOnUse">
      <stop stop-color="#E94852" offset="0"/>
      <stop stop-color="#F07963" offset="1"/>
    </linearGradient>
    <linearGradient id="paint27_linear_6340_169134" x1="212.8" x2="214.4" y1="46.19" y2="49.21" gradientUnits="userSpaceOnUse">
      <stop stop-color="#2C8581" offset="0"/>
      <stop stop-color="#2A726B" offset="1"/>
    </linearGradient>
    <linearGradient id="paint28_linear_6340_169134" x1="281" x2="285.4" y1="1.201" y2="4.641" gradientUnits="userSpaceOnUse">
      <stop stop-color="#2C8581" offset="0"/>
      <stop stop-color="#2A726B" offset=".7763"/>
    </linearGradient>
    <linearGradient id="paint29_linear_6340_169134" x1="282.2" x2="286.2" y1="50.22" y2="54.61" gradientUnits="userSpaceOnUse">
      <stop stop-color="#389992" offset="0"/>
      <stop stop-color="#35908A" offset="1"/>
    </linearGradient>
    <linearGradient id="paint30_linear_6340_169134" x1="267" x2="271.7" y1="14.32" y2="17.07" gradientUnits="userSpaceOnUse">
      <stop stop-color="#EF7763" offset="0"/>
      <stop stop-color="#F16B59" offset="1"/>
    </linearGradient>
    <linearGradient id="paint31_linear_6340_169134" x1="282.9" x2="286.7" y1="38.3" y2="41.89" gradientUnits="userSpaceOnUse">
      <stop stop-color="#EF7763" offset="0"/>
      <stop stop-color="#F16B59" offset="1"/>
    </linearGradient>
    <linearGradient id="paint32_linear_6340_169134" x1="9.198" x2="13.76" y1="61.3" y2="65.08" gradientUnits="userSpaceOnUse">
      <stop stop-color="#45958D" offset="0"/>
      <stop stop-color="#36887E" offset="1"/>
    </linearGradient>
    <linearGradient id="paint33_linear_6340_169134" x1="20.71" x2="24.91" y1="55.18" y2="58.51" gradientUnits="userSpaceOnUse">
      <stop stop-color="#EF8974" offset="0"/>
      <stop stop-color="#F07961" offset="1"/>
    </linearGradient>
    <linearGradient id="paint34_linear_6340_169134" x1="67.67" x2="72.28" y1="57.89" y2="61.2" gradientUnits="userSpaceOnUse">
      <stop stop-color="#EF7763" offset="0"/>
      <stop stop-color="#F07961" offset="1"/>
    </linearGradient>
    <linearGradient id="paint35_linear_6340_169134" x1="71.01" x2="75.31" y1="64.69" y2="68.31" gradientUnits="userSpaceOnUse">
      <stop stop-color="#E76950" offset="0"/>
      <stop stop-color="#F17259" offset="1"/>
    </linearGradient>
    <linearGradient id="paint36_linear_6340_169134" x1="58.07" x2="60.64" y1="82.81" y2="85.25" gradientUnits="userSpaceOnUse">
      <stop stop-color="#3C9992" offset="0"/>
      <stop stop-color="#35908A" offset="1"/>
    </linearGradient>
    <linearGradient id="paint37_linear_6340_169134" x1="88.95" x2="93.65" y1="88.41" y2="91.86" gradientUnits="userSpaceOnUse">
      <stop stop-color="#EF7763" offset="0"/>
      <stop stop-color="#F07961" offset="1"/>
    </linearGradient>
    <linearGradient id="paint38_linear_6340_169134" x1="100.3" x2="103.5" y1="85.08" y2="87.77" gradientUnits="userSpaceOnUse">
      <stop stop-color="#2A8983" offset="0"/>
      <stop stop-color="#29756C" offset="1"/>
    </linearGradient>
    <linearGradient id="paint39_linear_6340_169134" x1="132.4" x2="135.9" y1="77.36" y2="79.85" gradientUnits="userSpaceOnUse">
      <stop stop-color="#E76950" offset="0"/>
      <stop stop-color="#F17259" offset="1"/>
    </linearGradient>
    <linearGradient id="paint40_linear_6340_169134" x1="148.2" x2="152.6" y1="89.96" y2="92.71" gradientUnits="userSpaceOnUse">
      <stop stop-color="#F98268" offset="0"/>
      <stop stop-color="#F17158" offset="1"/>
    </linearGradient>
    <linearGradient id="paint41_linear_6340_169134" x1="158.6" x2="161.8" y1="80.6" y2="83.28" gradientUnits="userSpaceOnUse">
      <stop stop-color="#3E9891" offset="0"/>
      <stop stop-color="#348B86" offset="1"/>
    </linearGradient>
    <linearGradient id="paint42_linear_6340_169134" x1="205" x2="207.8" y1="76.76" y2="80.2" gradientUnits="userSpaceOnUse">
      <stop stop-color="#E5554B" offset="0"/>
      <stop stop-color="#EE6556" offset="1"/>
    </linearGradient>
    <linearGradient id="paint43_linear_6340_169134" x1="221.9" x2="226.7" y1="69.04" y2="72.51" gradientUnits="userSpaceOnUse">
      <stop stop-color="#22988D" offset="0"/>
      <stop stop-color="#237972" offset=".9178"/>
    </linearGradient>
    <linearGradient id="paint44_linear_6340_169134" x1="224.2" x2="226.1" y1="80.96" y2="82.71" gradientUnits="userSpaceOnUse">
      <stop stop-color="#ED6557" offset="0"/>
      <stop stop-color="#ED6254" offset="1"/>
    </linearGradient>
  </defs>
</svg>