<svg xmlns="http://www.w3.org/2000/svg" width="196" height="197" fill="none" viewBox="0 0 196 197">
<!-- SVG created with Arrow, by QuiverAI (https://quiver.ai) -->
  <path d="m191.2 167.6-17.72-6.96c-1.61-0.67-3.42 0.58-3.42 2.43v18.97c0 0.98 0.48 1.89 1.28 2.41l15.63 9.47c2.17 1.43 5.33-0.13 5.33-2.8v-20.08c0-1.39-0.54-2.75-1.1-3.44z" fill="#020203" opacity=".2"/>
  <path d="m190.5 166.9-17.72-8.62c-1.6-0.84-3.41 0.69-3.41 2.82v19.5c0 1.15 0.47 2.23 1.27 2.85l15.63 9.79c2.17 1.63 5.33-0.17 5.33-3.27v-20.08c0-1.39-0.53-2.47-1.1-2.99z" fill="#62CEC1" stroke="#72CEC5" stroke-miterlimit="10" stroke-width=".6"/>
  <path d="m189.4 170.6v8.25" stroke="#49B2A5" stroke-dasharray="7.5 7.5" stroke-linecap="round" stroke-linejoin="round" stroke-miterlimit="10" stroke-width="2"/>
  <path d="m189.4 182.2v7.48" stroke="#49B2A5" stroke-dasharray="7.5 7.5" stroke-linecap="round" stroke-linejoin="round" stroke-miterlimit="10" stroke-width="2"/>
  <path d="m171.4 160.1 16.53 7.36" stroke="#49B2A5" stroke-dasharray="7.5 7.5" stroke-linecap="round" stroke-linejoin="round" stroke-miterlimit="10" stroke-width="2"/>
  <path d="m190.5 165.4-17.52-34.74c-0.83-1.72-2.83-1.43-2.63 0.46l-0.3 25.7 20.45 8.58z" fill="#FFD06C" stroke="#EAB963" stroke-linecap="round" stroke-linejoin="round" stroke-miterlimit="10" stroke-width="1.2"/>
  <path d="m171.6 155.4-3.39-1.6-17.84 12.36c-0.93 0.72-1.56 1.94-1.56 3.29v7.9l21.12 3.94 0.15-7.42v-16.13c0-1.03 0.63-1.95 1.52-2.34z" fill="#FF7A46" stroke="#EA6842" stroke-linecap="round" stroke-linejoin="round" stroke-miterlimit="10" stroke-width="1.2"/>
  <path d="m146 126.3v49.99c0 1.72-0.92 2.93-2.31 3.41l-15.8 6.95c-2.7 1.15-4.43 0.29-4.43-2.52v-21.37c0-1.91 0.7-3.51 2.29-3.68l19.93-3.57 0.32-29.21z" fill="#01BCBE" stroke="#009BA3" stroke-miterlimit="10" stroke-width=".6"/>
  <path d="m147.2 124.4 21.69 2.72c1.5 0.24 2.02 2.01 1.2 3.56l-0.2 20.09c-0.3 1.47-1.83 2.37-3.28 2.01l-18.29-3.77c-1.32-0.33-2.31-1.56-2.31-3.06v-19.14c0-1.36 0.82-2.41 1.19-2.41z" fill="#01BCBE" stroke="#009BA3" stroke-miterlimit="10" stroke-width=".6"/>
  <path d="m146.7 121.9 10.03-19.94c0.71-1.39 2.46-1.37 3.21 0.17l10.14 22.83c0.74 1.67-0.09 3.07-1.79 2.78l-19.47-3.11c-1.8-0.3-2.92-1.15-2.12-2.73z" fill="#FFD06C" stroke="#EAB963" stroke-linecap="round" stroke-linejoin="round" stroke-miterlimit="10" stroke-width="1.2"/>
  <path d="m126.7 157.8 23.35 5.56c1.41 0.32 2.77-0.7 2.98-2.31l1.79-20.94c0.3-2.49-1.4-3.21-3.35-1.86l-24.39 18.79c-0.96 0.69-0.89 0.64-0.38 0.76z" fill="#FFD06C" stroke="#EAB963" stroke-linecap="round" stroke-linejoin="round" stroke-miterlimit="10" stroke-width="1.2"/>
  <path d="m125.8 163.3v7.8" stroke="#009BA3" stroke-dasharray="7.5 7.5" stroke-linecap="round" stroke-linejoin="round" stroke-miterlimit="10" stroke-width="2"/>
  <path d="m125.8 174.4v7.79" stroke="#009BA3" stroke-dasharray="7.5 7.5" stroke-linecap="round" stroke-linejoin="round" stroke-miterlimit="10" stroke-width="2"/>
  <path d="m138 180 7.88-2.89" stroke="#009BA3" stroke-dasharray="7.5 7.5" stroke-linecap="round" stroke-linejoin="round" stroke-miterlimit="10" stroke-width="2"/>
  <path d="m147.6 129v6.8" stroke="#009BA3" stroke-dasharray="7.5 7.5" stroke-linecap="round" stroke-linejoin="round" stroke-miterlimit="10" stroke-width="2"/>
  <path d="m160.3 106.6 2.9 5.77" stroke="#D4A04C" stroke-dasharray="7.5 7.5" stroke-linecap="round" stroke-linejoin="round" stroke-miterlimit="10" stroke-width="2"/>
  <path d="m164.8 115.6 2.9 7.36" stroke="#D4A04C" stroke-dasharray="7.5 7.5" stroke-linecap="round" stroke-linejoin="round" stroke-miterlimit="10" stroke-width="2"/>
  <path d="m149.9 115.6 3.42-5.57" stroke="#D4A04C" stroke-dasharray="7.5 7.5" stroke-linecap="round" stroke-linejoin="round" stroke-miterlimit="10" stroke-width="2"/>
  <path d="m136.1 152-6.34 4.22" stroke="#D4A04C" stroke-dasharray="7.5 7.5" stroke-linecap="round" stroke-linejoin="round" stroke-miterlimit="10" stroke-width="2"/>
  <path d="m137.2 161-7.88-2.31" stroke="#D4A04C" stroke-dasharray="7.5 7.5" stroke-linecap="round" stroke-linejoin="round" stroke-miterlimit="10" stroke-width="2"/>
  <path d="m150.1 162 0.67-7.6" stroke="#D4A04C" stroke-dasharray="7.5 7.5" stroke-linecap="round" stroke-linejoin="round" stroke-miterlimit="10" stroke-width="2"/>
  <path d="m150.3 148 0.5-5.05" stroke="#D4A04C" stroke-dasharray="7.5 7.5" stroke-linecap="round" stroke-linejoin="round" stroke-miterlimit="10" stroke-width="2"/>
  <path d="m160.5 151.7 7.43 1.12" stroke="#009BA3" stroke-dasharray="7.5 7.5" stroke-linecap="round" stroke-linejoin="round" stroke-miterlimit="10" stroke-width="2"/>
  <path d="m170.5 146 0.17-6.85" stroke="#009BA3" stroke-dasharray="7.5 7.5" stroke-linecap="round" stroke-linejoin="round" stroke-miterlimit="10" stroke-width="2"/>
  <path d="m184.5 159.6-4.81-9.3" stroke="#D4A04C" stroke-dasharray="7.5 7.5" stroke-linecap="round" stroke-linejoin="round" stroke-miterlimit="10" stroke-width="2"/>
  <path d="m178.3 140.1-3.08-3.21" stroke="#D4A04C" stroke-dasharray="7.5 7.5" stroke-linecap="round" stroke-linejoin="round" stroke-miterlimit="10" stroke-width="2"/>
  <path d="m152.7 168.8 14.28-11.1" stroke="#D04E3F" stroke-dasharray="7.5 7.5" stroke-linecap="round" stroke-linejoin="round" stroke-miterlimit="10" stroke-width="2"/>
  <path d="m152.7 173.8v5.72" stroke="#D04E3F" stroke-dasharray="7.5 7.5" stroke-linecap="round" stroke-linejoin="round" stroke-miterlimit="10" stroke-width="2"/>
  <path d="m152.7 183v9.18" stroke="#D04E3F" stroke-dasharray="7.5 7.5" stroke-linecap="round" stroke-linejoin="round" stroke-miterlimit="10" stroke-width="2"/>
  <path d="m150.1 194.2 19.36-12.83c1.25-0.85 0.69-3.35-0.91-3.16l-18.45-1.4v16.08" fill="#020203" opacity=".2"/>
  <path d="m152 193.5 17.52-12.98c1.21-0.92 0.7-3.05-0.86-2.93l-17.52-1.12v15.37c0 1.2 0.48 1.87 0.86 1.66z" fill="#f87" stroke="#EA6842" stroke-miterlimit="10" stroke-width=".6"/>
  <path d="m192.8 74.41c-1.08-10.14-4.88-17.3-10.23-21.37l-0.95-0.9h-1.71c0.48-0.49 0.8-1.17 0.8-1.92v-21.12c0-1.56-1.24-2.81-2.72-2.81h-20.39c-1.48 0-2.72 1.25-2.72 2.81v21.12c0 0.75 0.32 1.43 0.8 1.92h-1.39l-1.16 0.98c-5.23 4.08-8.64 11.65-9.33 21.7-0.31 3.77 2.35 4.74 4.48 3.01l11.87-9.13h15.59l12.32 9.47c2.57 2.01 5.06 0.09 4.74-3.76zm-24.41-29.32c-4.03 0-6.79-3.58-6.28-7.23 0.51-3.21 3.15-5.08 5.96-5.01 3.71 0.1 5.82 3.16 5.45 6.49-0.35 3.09-2.68 5.67-5.13 5.75z" fill="#020203" opacity=".2"/>
  <path d="m181.5 52.72h-26.76l-1.16 0.98 8.72 14.66h13.04l6.83-14.86-0.67-0.78z" fill="#F7A959" stroke="#F29752" stroke-miterlimit="10" stroke-width=".6"/>
  <path d="m154.5 53.21c-5.52 3.5-9.22 10.97-10.24 21.41-0.41 3.86 1.81 4.48 3.94 2.87l12.6-9.98-4.58-14.79-1.72 0.49z" fill="#FA8470" stroke="#EA6842" stroke-miterlimit="10" stroke-width=".6"/>
  <path d="m181.9 52.86-3.78-0.14-4.35 15.47 14.5 9.64c2.44 1.56 3.83-0.44 3.35-4.08-1.24-8.86-4.28-16.46-9.72-20.89z" fill="#FA8470" stroke="#EA6842" stroke-miterlimit="10" stroke-width=".6"/>
  <path d="m178.9 25.72h-21.69c-1.56 0-2.65-1.51-2.01-3.11l10.95-18.89c0.83-1.61 2.93-1.61 3.75 0l10.94 18.89c0.84 1.6-0.38 3.11-1.94 3.11z" fill="#FA8470" stroke="#EA6842" stroke-miterlimit="10" stroke-width=".6"/>
  <path d="m178.6 51.4h-21.51c-1.49 0-2.67-1.25-2.67-2.81v-19.81c0-1.56 1.25-2.81 2.73-2.81h21.51c1.48 0 2.73 1.25 2.73 2.81v19.81c-0.06 1.56-1.31 2.81-2.79 2.81z" fill="#01BCBE" stroke="#009BA3" stroke-miterlimit="10" stroke-width=".6"/>
  <path d="m160.5 16.07-3.37 7.57" stroke="#D04E3F" stroke-dasharray="7.5 7.5" stroke-linecap="round" stroke-linejoin="round" stroke-miterlimit="10" stroke-width="2"/>
  <path d="m176.2 15.4-3.91-2.88" stroke="#D04E3F" stroke-dasharray="7.5 7.5" stroke-linecap="round" stroke-linejoin="round" stroke-miterlimit="10" stroke-width="2"/>
  <path d="m167.3 6.13-1.08 1.16" stroke="#D04E3F" stroke-dasharray="7.5 7.5" stroke-linecap="round" stroke-linejoin="round" stroke-miterlimit="10" stroke-width="2"/>
  <path d="m170.3 51.12h7.23" stroke="#009BA3" stroke-dasharray="7.5 7.5" stroke-linecap="round" stroke-linejoin="round" stroke-miterlimit="10" stroke-width="2"/>
  <path d="m158 51.12h7.22" stroke="#009BA3" stroke-dasharray="7.5 7.5" stroke-linecap="round" stroke-linejoin="round" stroke-miterlimit="10" stroke-width="2"/>
  <path d="m180.3 28.91v7.26" stroke="#009BA3" stroke-dasharray="7.5 7.5" stroke-linecap="round" stroke-linejoin="round" stroke-miterlimit="10" stroke-width="2"/>
  <path d="m180.3 40.46v7.81" stroke="#009BA3" stroke-dasharray="7.5 7.5" stroke-linecap="round" stroke-linejoin="round" stroke-miterlimit="10" stroke-width="2"/>
  <path d="m155.4 28.91v7.73" stroke="#009BA3" stroke-dasharray="7.5 7.5" stroke-linecap="round" stroke-linejoin="round" stroke-miterlimit="10" stroke-width="2"/>
  <path d="m155.4 40.96v6.95" stroke="#009BA3" stroke-dasharray="7.5 7.5" stroke-linecap="round" stroke-linejoin="round" stroke-miterlimit="10" stroke-width="2"/>
  <path d="m164.5 72.94c-3.12 0.72-3.05 4.82-1.32 8.35 1.72 3.54 3.29 6.7 4.92 6.78s3.86-4.21 5.49-7.75c1.46-3.36 0.22-7.46-2.68-7.8-2-0.26-3.94-0.13-6.41 0.42z" fill="#F7A959" stroke="#EA6842" stroke-miterlimit="10" stroke-width=".6"/>
  <path d="m166.3 74.19c-2.37 0.59-1.85 3.75-0.68 5.9 1.08 2.15 2.07 2.56 2.77 2.35 1.08-0.34 1.91-2.44 2.68-4.33 0.69-1.8-0.34-3.92-1.85-4.06-1.03-0.14-1.85-0.19-2.92 0.14z" fill="#020203" opacity=".2"/>
  <path d="m188.9 90.08-18.77 10.97c-1.25 0.76-1.2 2.32 0.16 3.13l19.47 11.14c1.29 0.8 2.58 0 2.51-1.71v-22.1c-0.05-1.77-1.87-2.44-3.37-1.43z" fill="#020203" opacity=".2"/>
  <path d="m189.3 90.08-18.77 10.97c-1.25 0.76-1.19 2.32 0.16 3.12l19.48 11.15c1.29 0.8 2.15 0 2.15-1.71v-22.54c0-1.56-1.51-2-3.02-0.99z" fill="#01BCBE" stroke="#009BA3" stroke-miterlimit="10" stroke-width=".6"/>
  <path d="m188.4 93.11-6.57 4" stroke="#009BA3" stroke-dasharray="7.5 7.5" stroke-linecap="round" stroke-linejoin="round" stroke-miterlimit="10" stroke-width="2"/>
  <path d="m178.8 105.2-5.65-2.99" stroke="#009BA3" stroke-dasharray="7.5 7.5" stroke-linecap="round" stroke-linejoin="round" stroke-miterlimit="10" stroke-width="2"/>
  <path d="m6.98 107.8 27.33-15.73c1.56-0.99 1.56-2.72-0.16-3.7l-26.59-14.9c-1.42-0.85-2.81 0-2.81 1.89v30.25c0 1.95 1.03 2.86 2.23 2.19z" fill="#020203" opacity=".2"/>
  <path d="m7.15 107 27.06-15.66c1.56-0.98 1.56-2.71-0.16-3.7l-26.33-13.5c-1.42-0.85-2.59 0.07-2.59 1.79v29.13c0 1.87 0.88 2.63 2.02 1.94z" fill="#62CEC1" stroke="#49B2A5" stroke-miterlimit="10" stroke-width=".6"/>
  <path d="m6.91 78.11v7.58" stroke="#49B2A5" stroke-dasharray="7.5 7.5" stroke-linecap="round" stroke-linejoin="round" stroke-miterlimit="10" stroke-width="2"/>
  <path d="m29.84 90.17-6.09 3.63" stroke="#49B2A5" stroke-dasharray="7.5 7.5" stroke-linecap="round" stroke-linejoin="round" stroke-miterlimit="10" stroke-width="2"/>
  <path d="m15.11 99.51-7.7 4.66" stroke="#49B2A5" stroke-dasharray="7.5 7.5" stroke-linecap="round" stroke-linejoin="round" stroke-miterlimit="10" stroke-width="2"/>
  <path d="m6.99 57.17h20.23c1.7 0 2.69-0.91 3.34-2.07 0.61 1.23 1.6 2.07 2.92 2.07h20.94c1.73 0 2.36-1.35 2.36-2.98v-19.27c0-1.45-0.83-2.65-1.84-3.31 0.77-0.7 1.31-1.77 1.31-2.97v-1.12l22.76-9.79c1.32-0.67 1.54-2.47-0.27-3.38l-20.46-8.16-2.23-0.19c-0.54-0.62-1.29-1-2.2-1h-20.39c-1.06 0-2.01 0.62-2.62 1.4-0.59-0.87-1.5-1.4-2.56-1.4h-20.94c-1.63 0-2.87 1.49-2.87 3.21v20.43c0 1.32 0.74 2.44 1.75 3.07-1.08 0.6-1.75 1.82-1.75 3.21v18.69c0 2.01 1.07 3.37 2.52 3.56z" fill="#020203" opacity=".2"/>
  <path d="m27.69 31.27h-20.78c-1.39 0-2.51-1.25-2.51-2.68v-20.88c0-1.46 1.17-2.71 2.51-2.71h20.78c1.39 0 2.52 1.25 2.52 2.71v20.88c0 1.43-1.13 2.68-2.52 2.68z" fill="#01BCBE" stroke="#009BA3" stroke-miterlimit="10" stroke-width=".6"/>
  <path d="m7.22 6.13h7.83" stroke="#009BA3" stroke-dasharray="7.5 7.5" stroke-linecap="round" stroke-linejoin="round" stroke-miterlimit="10" stroke-width="2"/>
  <path d="m18.46 6.13h7.36" stroke="#009BA3" stroke-dasharray="7.5 7.5" stroke-linecap="round" stroke-linejoin="round" stroke-miterlimit="10" stroke-width="2"/>
  <path d="m5.52 11.16v6.85" stroke="#009BA3" stroke-dasharray="7.5 7.5" stroke-linecap="round" stroke-linejoin="round" stroke-miterlimit="10" stroke-width="2"/>
  <path d="m5.52 21.26v7.37" stroke="#009BA3" stroke-dasharray="7.5 7.5" stroke-linecap="round" stroke-linejoin="round" stroke-miterlimit="10" stroke-width="2"/>
  <path d="m33.11 31.27h21.12c1.48 0 2.73-1.25 2.73-2.81v-20.64c0-1.56-1.25-2.82-2.73-2.82h-21.12c-1.48 0-2.72 1.25-2.72 2.81v20.64c0 1.57 1.24 2.82 2.72 2.82z" fill="#FA8470" stroke="#EA6842" stroke-miterlimit="10" stroke-width=".6"/>
  <path d="m34.53 5.91h7.57" stroke="#D04E3F" stroke-dasharray="7.5 7.5" stroke-linecap="round" stroke-linejoin="round" stroke-miterlimit="10" stroke-width="2"/>
  <path d="m55.78 29.93h-7.73" stroke="#D04E3F" stroke-dasharray="7.5 7.5" stroke-linecap="round" stroke-linejoin="round" stroke-miterlimit="10" stroke-width="2"/>
  <path d="m40.97 29.93h-6.27" stroke="#D04E3F" stroke-dasharray="7.5 7.5" stroke-linecap="round" stroke-linejoin="round" stroke-miterlimit="10" stroke-width="2"/>
  <path d="m57.62 7.81 21.12 8.26c1.32 0.6 1.45 2.16 0 3.04l-19.75 10.68c-1.3 0.76-2.54 0-2.54-1.89v-19.09c0-1.34 0.58-1.29 1.17-1z" fill="#62CEC1" stroke="#49B2A5" stroke-miterlimit="10" stroke-width=".6"/>
  <path d="m75.54 18.51-6.57-3.4" stroke="#49B2A5" stroke-dasharray="7.5 7.5" stroke-linecap="round" stroke-linejoin="round" stroke-miterlimit="10" stroke-width="2"/>
  <path d="m61.26 27 6.08-3.63" stroke="#49B2A5" stroke-dasharray="7.5 7.5" stroke-linecap="round" stroke-linejoin="round" stroke-miterlimit="10" stroke-width="2"/>
  <path d="m7.39 56.61h20.17c1.56 0 2.8-1.25 2.8-2.81v-19.9c0-1.56-1.24-2.81-2.73-2.81h-20.39c-1.48 0-2.72 1.25-2.72 2.81v19.81c0 1.56 1.31 2.9 2.87 2.9z" fill="#FA8470" stroke="#EA6842" stroke-miterlimit="10" stroke-width=".6"/>
  <path d="m6.91 34.92v7.26" stroke="#D04E3F" stroke-dasharray="7.5 7.5" stroke-linecap="round" stroke-linejoin="round" stroke-miterlimit="10" stroke-width="2"/>
  <path d="m15.01 55.48h-7.17" stroke="#D04E3F" stroke-dasharray="7.5 7.5" stroke-linecap="round" stroke-linejoin="round" stroke-miterlimit="10" stroke-width="2"/>
  <path d="m19.23 55.48h8.28" stroke="#D04E3F" stroke-dasharray="7.5 7.5" stroke-linecap="round" stroke-linejoin="round" stroke-miterlimit="10" stroke-width="2"/>
  <path d="m33.51 55.76h8.46" stroke="#D04E3F" stroke-dasharray="7.5 7.5" stroke-linecap="round" stroke-linejoin="round" stroke-miterlimit="10" stroke-width="2"/>
  <path d="m46.61 55.76h7.37" stroke="#D04E3F" stroke-dasharray="7.5 7.5" stroke-linecap="round" stroke-linejoin="round" stroke-miterlimit="10" stroke-width="2"/>
  <path d="m55.33 52.81v-7.73" stroke="#D04E3F" stroke-dasharray="7.5 7.5" stroke-linecap="round" stroke-linejoin="round" stroke-miterlimit="10" stroke-width="2"/>
  <path d="m55.33 41.31v-6.95" stroke="#D04E3F" stroke-dasharray="7.5 7.5" stroke-linecap="round" stroke-linejoin="round" stroke-miterlimit="10" stroke-width="2"/>
  <path d="m29.91 35.28v7.58" stroke="#D04E3F" stroke-dasharray="7.5 7.5" stroke-linecap="round" stroke-linejoin="round" stroke-miterlimit="10" stroke-width="2"/>
  <path d="m30.21 47.08v6.68" stroke="#D04E3F" stroke-dasharray="7.5 7.5" stroke-linecap="round" stroke-linejoin="round" stroke-miterlimit="10" stroke-width="2"/>
  <path d="m7.15 52.52 18.16-18.16" stroke="#D04E3F" stroke-dasharray="7.5 7.5" stroke-linecap="round" stroke-linejoin="round" stroke-miterlimit="10" stroke-width="2"/>
  <path d="m119.4 34.79 14.98 13.79c1.39 1.25 2.22 0.14 2.22-1.71v-25.39l-12.46 13.14-2.46-0.53-2.28 0.7z" fill="#020203" opacity=".2"/>
  <path d="m123 36.22 12.59-13.03v22.95c0 1.77-0.98 2.06-2.27 0.69l-10.4-10.02 0.08-0.59z" fill="#FFD06C" stroke="#EAB963" stroke-linecap="round" stroke-linejoin="round" stroke-miterlimit="10" stroke-width="1.2"/>
  <path d="m135 36.64v7.27" stroke="#D4A04C" stroke-dasharray="7.5 7.5" stroke-linecap="round" stroke-linejoin="round" stroke-miterlimit="10" stroke-width="2"/>
  <path d="m137.7 17.82-12.59-12.01c-1.32-1.25-3.11-0.68-3.04 1.21v25.39c0 1.95 1.61 2.93 2.93 1.5l12.91-12.73c1.14-1.23 0.79-2.55-0.21-3.36z" fill="#FA8470" stroke="#EA6842" stroke-miterlimit="10" stroke-width=".6"/>
  <path d="m107.7 19.21 12.59 12.51c1.32 1.32 3.25 0.69 3.17-1.36v-23.44c0-1.76-1.73-2.17-3.12-0.87l-12.59 12.01c-1.06 0.98-0.76 0.57-0.05 1.15z" fill="#FFD06C" stroke="#EAB963" stroke-linecap="round" stroke-linejoin="round" stroke-miterlimit="10" stroke-width="1.2"/>
  <path d="m116.1 6.4h-22.01c-1.8 0-2.15 1.95-0.76 3.31l13.82 9.5 10.11-12.01c0.92-1.07 0.25-0.8-1.16-0.8z" fill="#FA8470" stroke="#EA6842" stroke-miterlimit="10" stroke-width=".6"/>
  <path d="m108.1 6.61h6.83" stroke="#D04E3F" stroke-dasharray="7.5 7.5" stroke-linecap="round" stroke-linejoin="round" stroke-miterlimit="10" stroke-width="2"/>
  <path d="m101.9 14.35-6.09-5.21" stroke="#D04E3F" stroke-dasharray="7.5 7.5" stroke-linecap="round" stroke-linejoin="round" stroke-miterlimit="10" stroke-width="2"/>
  <path d="m123.2 20h13.15c1.72 0 2.38-1.56 0.93-2.79l-12.27-10.21c-1.45-1.25-2.55-0.52-2.55 1.37l0.11 10.29c-0.06 0.62-0.06 1.1 0.63 1.34z" fill="#FA8470" stroke="#EA6842" stroke-miterlimit="10" stroke-width=".6"/>
  <path d="m108.9 20.15h27.82c1.73 0 1.9 1.36 0.34 2.85l-11.46 11.43c-1.39 1.43-2.96 1.09-2.96-1.11v-10.47l-14.04-1.94c-0.77-0.1-0.84-0.76 0.3-0.76z" fill="#01BCBE" stroke="#009BA3" stroke-miterlimit="10" stroke-width=".6"/>
  <path d="m122.3 22.04v7.26" stroke="#49B2A5" stroke-dasharray="7.5 7.5" stroke-linecap="round" stroke-linejoin="round" stroke-miterlimit="10" stroke-width="2"/>
  <path d="m118.3 28.63-7.23-6.22" stroke="#49B2A5" stroke-dasharray="7.5 7.5" stroke-linecap="round" stroke-linejoin="round" stroke-miterlimit="10" stroke-width="2"/>
  <path d="m59.09 76.01h22.32c1.8 0 2.98-1.36 1.99-3.38l-11.39-21.04c-0.82-1.56-2.38-1.42-3.27 0.29l-11.25 20.43c-0.99 2.02-0.2 3.7 1.6 3.7z" fill="#01BCBE" stroke="#009BA3" stroke-miterlimit="10" stroke-width=".6"/>
  <path d="m113.4 75.91h22.43c1.8 0 2.91-1.66 1.91-3.6l-11.1-20.3c-0.94-1.89-2.57-1.75-3.56 0.2l-11.39 20.43c-1.06 2.15-0.15 3.27 1.71 3.27z" fill="#62CEC1" stroke="#49B2A5" stroke-miterlimit="10" stroke-width=".6"/>
  <path d="m86.21 62.24h22.61c1.8 0 2.55 1.36 2.55 3.25v7.23c0 1.89-0.96 3.01-2.76 3.01h-21.95c-1.63 0-2.45-1.12-2.45-3.01v-7.64c0-1.72 0.59-2.84 2-2.84z" fill="#FA8470" stroke="#EA6842" stroke-miterlimit="10" stroke-width=".6"/>
  <path d="m85.51 61.3 10.79-30.19c0.76-1.95 2.32-1.87 3.01 0.08l10.72 29.28c0.58 1.64-0.87 1.64-2.26 1.64h-20.32c-1.73 0-2.48 0.85-1.94-0.81z" fill="#62CEC1" stroke="#49B2A5" stroke-miterlimit="10" stroke-width=".6"/>
  <path d="m85.7 97.43h24.11c1.73 0 2.42-1.36 2.42-3.01v-16.25c0-1.79-0.92-2.91-2.72-2.91h-22.51c-1.66 0-2.65 1.25-2.65 2.91v16.7c0 1.43 0.48 2.56 1.35 2.56z" fill="#01BCBE" stroke="#009BA3" stroke-miterlimit="10" stroke-width=".6"/>
  <path d="m58.88 99.92h22.27c1.9 0 2.81-1.25 2.81-3.21v-18.19c0-1.73-1.24-2.98-2.8-2.98h-21.95c-1.64 0-2.6 1.25-2.6 2.98v18.51c0 1.73 0.91 2.89 2.27 2.89z" fill="#FFD06C" stroke="#EAB963" stroke-linecap="round" stroke-linejoin="round" stroke-miterlimit="10" stroke-width="1.2"/>
  <path d="m64.99 94.07v-7.01c0-4.05 2.88-6 5.46-6 3.33 0 5.69 2.35 5.69 6v7.01h-11.15z" fill="#FEFEFE"/>
  <path d="m113.4 99.82h22.62c1.64 0 2.55-1.36 2.55-3.08v-18.05c0-1.73-1.24-2.98-2.72-2.98h-21.89c-1.56 0-2.69 1.25-2.69 2.98v18.05c-0.08 1.77 0.84 3.08 2.13 3.08z" fill="#FFD06C" stroke="#EAB963" stroke-linecap="round" stroke-linejoin="round" stroke-miterlimit="10" stroke-width="1.2"/>
  <path d="m119.1 93.87v-6.57c0-3.89 3.05-6.14 5.52-6.14 3.12 0 5.69 2.42 5.69 5.48v7.23h-11.21z" fill="#FEFEFE"/>
  <path d="m59.09 126.8h22.22c1.9 0 2.9-1.36 2.9-3.08v-20.64c0-1.72-1.07-3.07-2.55-3.07h-22.01c-1.48 0-2.73 1.35-2.73 3.07v20.88c-0.07 1.59 1.1 2.84 2.17 2.84z" fill="#01BCBE" stroke="#009BA3" stroke-miterlimit="10" stroke-width=".6"/>
  <path d="m114.2 127.2h21.88c1.8 0 2.56-1.43 2.56-3.09v-20.16c0-1.65-1.07-2.81-2.7-2.81h-21.51c-1.73 0-2.98 1.25-2.98 2.81v20.43c-0.07 1.63 1.17 2.82 2.75 2.82z" fill="#62CEC1" stroke="#49B2A5" stroke-miterlimit="10" stroke-width=".6"/>
  <path d="m86.16 100h22.62c1.66 0 2.48 1.07 2.48 2.86v21.37c0 1.43-0.99 2.58-2.55 2.58h-4.5v-14.12c0-4.18-3.4-5.97-6.28-5.97-3.36 0-6.31 1.95-6.31 6.69v13.4h-4.72c-1.56 0-2.55-1.15-2.55-2.58v-21.62c-0.07-1.66 0.6-2.61 1.81-2.61z" fill="#FA8470" stroke="#EA6842" stroke-miterlimit="10" stroke-width=".6"/>
  <path d="m112.2 79.21v6.42" stroke="#49B2A5" stroke-dasharray="7.5 7.5" stroke-linecap="round" stroke-linejoin="round" stroke-miterlimit="10" stroke-width="2"/>
  <path d="m114.2 100.6h7.57" stroke="#49B2A5" stroke-dasharray="7.5 7.5" stroke-linecap="round" stroke-linejoin="round" stroke-miterlimit="10" stroke-width="2"/>
  <path d="m126.9 100.6h7" stroke="#49B2A5" stroke-dasharray="7.5 7.5" stroke-linecap="round" stroke-linejoin="round" stroke-miterlimit="10" stroke-width="2"/>
  <path d="m137.7 104.7v7.38" stroke="#49B2A5" stroke-dasharray="7.5 7.5" stroke-linecap="round" stroke-linejoin="round" stroke-miterlimit="10" stroke-width="2"/>
  <path d="m137.7 116v7.36" stroke="#49B2A5" stroke-dasharray="7.5 7.5" stroke-linecap="round" stroke-linejoin="round" stroke-miterlimit="10" stroke-width="2"/>
  <path d="m115.1 125.7h7.65" stroke="#49B2A5" stroke-dasharray="7.5 7.5" stroke-linecap="round" stroke-linejoin="round" stroke-miterlimit="10" stroke-width="2"/>
  <path d="m60.66 125.5h6.64" stroke="#009BA3" stroke-dasharray="7.5 7.5" stroke-linecap="round" stroke-linejoin="round" stroke-miterlimit="10" stroke-width="2"/>
  <path d="m71.92 125.5h7.65" stroke="#009BA3" stroke-dasharray="7.5 7.5" stroke-linecap="round" stroke-linejoin="round" stroke-miterlimit="10" stroke-width="2"/>
  <path d="m57.74 116v7.13" stroke="#009BA3" stroke-dasharray="7.5 7.5" stroke-linecap="round" stroke-linejoin="round" stroke-miterlimit="10" stroke-width="2"/>
  <path d="m83.01 116v6.49" stroke="#009BA3" stroke-dasharray="7.5 7.5" stroke-linecap="round" stroke-linejoin="round" stroke-miterlimit="10" stroke-width="2"/>
  <path d="m111.8 116v6.01" stroke="#49B2A5" stroke-dasharray="7.5 7.5" stroke-linecap="round" stroke-linejoin="round" stroke-miterlimit="10" stroke-width="2"/>
  <path d="m100.2 100.6h6.76" stroke="#D04E3F" stroke-dasharray="7.5 7.5" stroke-linecap="round" stroke-linejoin="round" stroke-miterlimit="10" stroke-width="2"/>
  <path d="m87.21 100.6h7.23" stroke="#D04E3F" stroke-dasharray="7.5 7.5" stroke-linecap="round" stroke-linejoin="round" stroke-miterlimit="10" stroke-width="2"/>
  <path d="m85.11 78.72v7.8" stroke="#49B2A5" stroke-dasharray="7.5 7.5" stroke-linecap="round" stroke-linejoin="round" stroke-miterlimit="10" stroke-width="2"/>
  <path d="m57.78 78.93v6.57" stroke="#D4A04C" stroke-dasharray="7.5 7.5" stroke-linecap="round" stroke-linejoin="round" stroke-miterlimit="10" stroke-width="2"/>
  <path d="m57.78 91.05v6.57" stroke="#D4A04C" stroke-dasharray="7.5 7.5" stroke-linecap="round" stroke-linejoin="round" stroke-miterlimit="10" stroke-width="2"/>
  <path d="m60.66 100.6h7.32" stroke="#D04E3F" stroke-dasharray="7.5 7.5" stroke-linecap="round" stroke-linejoin="round" stroke-miterlimit="10" stroke-width="2"/>
  <path d="m72.72 100.6h7.23" stroke="#D04E3F" stroke-dasharray="7.5 7.5" stroke-linecap="round" stroke-linejoin="round" stroke-miterlimit="10" stroke-width="2"/>
  <path d="m60.27 73.74h19.47" stroke="#009BA3" stroke-dasharray="7.5 7.5" stroke-linecap="round" stroke-linejoin="round" stroke-miterlimit="10" stroke-width="2"/>
  <path d="m115.5 73.74h19.47" stroke="#49B2A5" stroke-dasharray="7.5 7.5" stroke-linecap="round" stroke-linejoin="round" stroke-miterlimit="10" stroke-width="2"/>
  <path d="m93.01 41.85 2.23-5.77" stroke="#49B2A5" stroke-dasharray="7.5 7.5" stroke-linecap="round" stroke-linejoin="round" stroke-miterlimit="10" stroke-width="2"/>
  <path d="m90.23 48.88-2.62 6.57" stroke="#49B2A5" stroke-dasharray="7.5 7.5" stroke-linecap="round" stroke-linejoin="round" stroke-miterlimit="10" stroke-width="2"/>
  <path d="m99.81 61.44h7.15" stroke="#49B2A5" stroke-dasharray="7.5 7.5" stroke-linecap="round" stroke-linejoin="round" stroke-miterlimit="10" stroke-width="2"/>
  <path d="m88.46 61.44h7.23" stroke="#49B2A5" stroke-dasharray="7.5 7.5" stroke-linecap="round" stroke-linejoin="round" stroke-miterlimit="10" stroke-width="2"/>
  <path d="m99.01 74.54h7.23" stroke="#D04E3F" stroke-dasharray="7.5 7.5" stroke-linecap="round" stroke-linejoin="round" stroke-miterlimit="10" stroke-width="2"/>
  <path d="m86.52 74.01h7.23" stroke="#D04E3F" stroke-dasharray="7.5 7.5" stroke-linecap="round" stroke-linejoin="round" stroke-miterlimit="10" stroke-width="2"/>
  <path d="m6.91 193.9 13.82-15.1 9.11-3.06h9.75l5.92 3.62 11.32 13.66c1.98 2.62 3.98 0.77 4.08-1.9 0.74-8.17 2.3-21.08-8.23-29.33l-3.13-1.8-0.59-3.77h-34.05l-1.24 3.77c-7.59 3.85-10.44 11.87-9.85 20.9 0.29 4.05 0.88 7.34 1.29 9.94 0.31 1.73 0.9 3.16 1.8 3.07z" fill="#020203" opacity=".2"/>
  <path d="m19.03 127.8 12.08-21.73c0.91-1.73 2.71-1.6 3.67 0.29l10.4 19.96c1.03 2.15 0.44 2.97-1.86 2.83l-22.76-0.07c-1.9 0-2.39 0-1.53-1.28z" fill="#FA8470" stroke="#EA6842" stroke-miterlimit="10" stroke-width=".6"/>
  <path d="m25.45 116.2 3.66-5.49" stroke="#D04E3F" stroke-dasharray="7.5 7.5" stroke-linecap="round" stroke-linejoin="round" stroke-miterlimit="10" stroke-width="2"/>
  <path d="m38.79 118.7 3.49 5.89" stroke="#D04E3F" stroke-dasharray="7.5 7.5" stroke-linecap="round" stroke-linejoin="round" stroke-miterlimit="10" stroke-width="2"/>
  <path d="m48.27 155.2h-31.76c-1.25 0-2.59 1.66-2.18 4.1l2.88 18.05c0.41 2.2 0.82 2.19 1.88 1.28h24.87c1.48 0 2.25-0.91 2.79-3.4l2.66-15.2c0.54-2.74 0.13-4.83-1.14-4.83z" fill="#62CEC1" stroke="#49B2A5" stroke-miterlimit="10" stroke-width=".6"/>
  <path d="m48.96 159.9c8.72 3.85 12.75 11.72 11.79 23.22l-0.83 8.79c-0.3 1.73-1.36 2.07-2.6 0.41l-12.59-14.12 4.23-18.3z" fill="#FA8470" stroke="#EA6842" stroke-miterlimit="10" stroke-width=".6"/>
  <path d="m14.63 159.9c-7.59 3.4-11.32 11.23-10.43 20.96l0.58 8.91c0.48 3.03 1.72 4.03 3.35 1.73l11.29-12.98-4.79-18.62z" fill="#FA8477" stroke="#EA6842" stroke-miterlimit="10" stroke-width=".6"/>
  <path d="m18.9 129.9c-2.95 7.16-4.33 17.46-4.33 21.86 0 1.89 0.59 2.64 2.49 2.64h29.86c1.8 0 2.79-0.63 2.79-2.98 0-5.42-1.63-15.72-3.63-21.18" fill="#FFD06C" stroke="#EAB963" stroke-linecap="round" stroke-linejoin="round" stroke-miterlimit="10" stroke-width="1.2"/>
  <path d="m38.52 128.3h-3.82" stroke="#D04E3F" stroke-dasharray="7.5 7.5" stroke-linecap="round" stroke-linejoin="round" stroke-miterlimit="10" stroke-width="2"/>
  <path d="m29.02 128.3h-5.74" stroke="#D04E3F" stroke-dasharray="7.5 7.5" stroke-linecap="round" stroke-linejoin="round" stroke-miterlimit="10" stroke-width="2"/>
  <path d="m47.78 134.2 0.66 5.21" stroke="#D4A04C" stroke-dasharray="7.5 7.5" stroke-linecap="round" stroke-linejoin="round" stroke-miterlimit="10" stroke-width="2"/>
  <path d="m48.34 145.2-0.33 5.03" stroke="#D4A04C" stroke-dasharray="7.5 7.5" stroke-linecap="round" stroke-linejoin="round" stroke-miterlimit="10" stroke-width="2"/>
  <path d="m23.74 154.4h6.48" stroke="#D4A04C" stroke-dasharray="7.5 7.5" stroke-linecap="round" stroke-linejoin="round" stroke-miterlimit="10" stroke-width="2"/>
  <path d="m36.13 154.4h6.76" stroke="#D4A04C" stroke-dasharray="7.5 7.5" stroke-linecap="round" stroke-linejoin="round" stroke-miterlimit="10" stroke-width="2"/>
  <path d="m32.55 159.1c-2.01 0-2.24 5.7-2.24 12.92l1.07 20.97h1.73l1.66-20.97c-0.07-7.3-0.76-12.92-2.22-12.92z" fill="#01BCBE"/>
  <path d="m22.71 180.4-0.99 3.23c0.15 1.32 0.99 2.37 1.98 2.23h17.2c1.24 0 2-0.91 1.9-2.47l-0.76-4.18-19.33-0.06v1.25z" fill="#FFCA55" stroke="#F4B542" stroke-linecap="round" stroke-linejoin="round" stroke-miterlimit="10" stroke-width=".6"/>
  <path d="m81.32 173.8c7.4-0.51 14.29 3.06 14.74 13.3v0.2c-10.97 1.25-15.64-4.07-15.44-12.11-0.07-0.75-0.07-1.25 0.7-1.39z" fill="#62CEC1" stroke="#49B2A5" stroke-linecap="round" stroke-linejoin="round" stroke-miterlimit="10" stroke-width=".6"/>
  <path d="m110.5 172.2c-7.4-0.45-14.1 3.87-14.4 8.81v5.44c7.1 0.85 14.98-3.58 15.67-12.15 0-1.15-0.16-1.98-1.27-2.1z" fill="#01BCBE" stroke="#009BA3" stroke-linecap="round" stroke-linejoin="round" stroke-miterlimit="10" stroke-width=".6"/>
  <path d="m95.51 162.1v30.71" stroke="#62CEC1" stroke-linecap="round" stroke-linejoin="round" stroke-miterlimit="10" stroke-width="4.2"/>
  <path d="m113.8 148.6c-0.31-5.3-4.13-7.61-7.54-7.1-2.88 0.45-4.2 1.21-4.2 1.21 1.06-3.79-0.11-8.73-5.41-9.32" fill="#FA8470" stroke="#EA6842" stroke-linecap="round" stroke-linejoin="round" stroke-miterlimit="10" stroke-width=".6"/>
  <path d="m96.19 160.6c5.9-0.93 8.97-6.4 7.82-9.46" fill="#FFD06C" stroke="#F8A859" stroke-linecap="round" stroke-linejoin="round" stroke-miterlimit="10" stroke-width="2.1"/>
</svg>