<svg xmlns="http://www.w3.org/2000/svg" width="190" height="190" fill="none" viewBox="0 0 190 190">
<!-- SVG created with Arrow, by QuiverAI (https://quiver.ai) -->
  <path d="m171.9 79.4h-27.17c-2.36 0-3.22 2.67-3.22 5.54v52.18c0 2.45 1.32 3.87 3.57 4.32l27.78-13.07v-43.43c0-2.87-1.17-5.54-0.96-5.54zm-9.04 34.3c0 1.2-0.63 2.18-1.74 1.94l-7.82-1.8c-1.11-0.27-1.74-1.23-1.74-2.44v-22.47c0-0.95 0.76-1.72 1.71-1.72h7.89c0.95 0 1.7 0.77 1.7 1.72v24.77z" fill="#000" opacity=".15"/>
  <path d="m169.8 78.5h-25.24c-2.22-30.51-3.14-22.13-3.14-28.55 0-1.45 0.9-2.64 2.2-2.64h26.68c1.58 0 2.31 1.9 2.31 4.21v22.56c0 2.6-1.01 4.42-2.81 4.42zm-7.19-23.45c0-0.94-0.75-1.71-1.7-1.71h-7.35c-0.95 0-1.7 0.77-1.7 1.71v15.69c0 0.95 0.75 1.72 1.7 1.72h7.35c0.95 0 1.7-0.77 1.7-1.72v-15.69z" fill="#F77D6D"/>
  <path d="m143 47.31h27.58c2 0 2.27-2.48 1.5-4.37l-12.92-39.15c-0.81-2.38-3.7-2.23-4.13-0.37l-13.52 41.26c-0.64 2.13-0.05 2.63 1.49 2.63z" fill="#43CAC6"/>
  <path d="m15.98 147.4h-8.08c-2.61 0-4.05-2.17-4.05-4.67v-33.28c0-1.74 1.08-3.74 2.92-3.74l27.85-0.1c1.36 0 1.71 1.18 1.71 2.79v33.88l-20.35 5.12zm11-36.99h-11.92c-1.69 0-3.04 1.36-3.04 3.07v25.08c0 1.7 1.35 3.07 3.04 3.07h9.35c2.31 0 3.09-2.01 3.09-3.71v-25.08c0-1.13 0.2-2.43-0.52-2.43z" fill="#000" opacity=".15"/>
  <path d="m7.21 105.5h26.69c1.91 0 2.31-1.26 2.31-3.02v-2.39c0-2.77-0.32-5.34 1.49-7.56l9.26-11.52c0.82-1 0.65-1.65-1.06-1.65l-26.89 0.11c-2.3 0-4.09 1.71-5.14 4.13l-9.25 17.67c-1.16 2.39-0.92 4.23 1.04 4.23h1.55z" fill="#F77D6D"/>
  <path d="m7.68 105.5h26.13c1.44 0 2.4 0.47 2.4 2.31v30.91c0 1.47-0.95 3-2.79 3l-25.41 4.78c-2.24 0-3.79-1.76-3.79-4.21v-33.03c0-2.07 1.19-3.76 3.46-3.76zm19.76 8.11c0-1.9-1.24-3.45-2.82-3.45h-9.33c-1.91 0-3.26 1.37-3.26 3.08v11.43h15.41v-11.06zm-15.42 14.13v10.48c0 1.7 1.35 3.07 3.05 3.07h9.35c1.69 0 3.05-1.37 3.05-3.07v-10.48h-15.45z" fill="#00BFC0"/>
  <path d="m20.19 69.05c0.61-1.08 1.37-1.42 2.67-0.86l13.87 7.23c1.05 0.5 1.07 1.39 1.02 2.7l-0.18 1.56-18.94-0.27-0.07-7.8c0.06-0.93 0.81-1.72 1.63-2.56z" fill="#000" opacity=".15"/>
  <path d="m20.21 67.11c-1.05-1.2-1.72-1.86-1.63-4.58v-19.43c0-1.61 1.18-2.49 2.63-1.83l13.8 5.56c1.95 0.82 2.3 2.5 2.26 3.92l-0.13 24.53c-0.03 1.24-0.93 1.87-2.41 1.14l-13.05-7.5c-0.9-0.44-1.47-1.81-1.47-1.81z" fill="#F26455"/>
  <path d="m37.14 76.61h28.48v3.02h-28.55l0.07-3.02z" fill="#000" opacity=".15"/>
  <path d="m39.72 47.72h23.93c1.86 0 2.06 2.03 2.06 3.56v20.89c0 1.92-0.43 3.81-2.29 3.81h-23.64c-1.53 0-2.47-1.75-2.47-3.69v-20.88c0-2.12 0.72-3.69 2.41-3.69zm20.46 7.74c0-1.2-0.99-2.19-2.19-2.19h-12.96c-1.2 0-2.18 0.99-2.18 2.19v13.36c0 1.21 0.98 2.19 2.18 2.19h12.96c1.2 0 2.19-0.98 2.19-2.19v-13.36z" fill="#FDCA5C"/>
  <path d="m38.96 47.62h24.78c1.58 0 2.03-1.99 1.45-3.7l-12.07-35.16c-0.81-2.39-3.86-1.74-4.21 0.34l-11.48 35.99c-0.42 1.57 0 2.53 1.53 2.53z" fill="#00BFC0"/>
  <path d="m82.74 31.03h24.47c2.31 0 2.81 1.89 2.81 4.08v18.4c0 2.1-1.12 3.13-2.56 3.13h-24.3c-1.89 0-3.13-1.49-3.13-2.92v-19.75c0-1.71 0.98-2.94 2.71-2.94zm19.91 13.4c0-4.92-3.75-8.05-7.5-8.05-4.74 0-7.4 4.35-7.4 7.84v6.89h14.9v-6.68z" fill="#00BFC0"/>
  <path d="m84.22 33.29h22.05c3.46 0 4.14-4.32 2.97-6.77l-10.37-17.33c-1.04-1.86-2.71-1.96-3.97-1.96h-0.28c-1.86 0-3.49 0.95-4.51 2.91l-9.03 15.67c-1.45 2.72-0.79 7.48 3.14 7.48z" fill="#F4685A"/>
  <path d="m82.85 57.12h24.4c2.66 0 2.97 2.9 2.97 5.42v22.56l-5.76 9.12-13.37-11.5-11.03 1v-22c0-2.39 0.95-4.6 2.79-4.6zm21.37 11.02c0-2.25-1.11-3.21-2.8-3.21h-5.05v8.89h7.85v-5.68zm-11.13-3.21h-3.88c-1.89 0-3.12 1.68-3.12 3.67v5.18h7v-8.85zm-7 12.58v3.3c0 1.42 0.94 2.45 2.32 2.45h4.66v-5.79l-6.98 0.04zm10.28-0.04v5.93c0 1.56 1.44 2.73 3.02 2.73h0.89c2.13 0 3.49-1.55 3.49-3.61v-5.02l-7.4-0.03z" fill="#000" opacity=".15"/>
  <path d="m83.35 57.05h23.44c2.85 0 3.3 2.63 3.3 5.36v22.7l-5.42 9.02-13.45-11.86c-1.31-1.01-2.06-0.21-2.69 0.55l-8.47 0.9v-22c0-2.66 0.95-4.67 3.29-4.67zm20.77 11.45c0-2.12-1.27-3.49-2.97-3.49h-4.91v8.89h7.88v-5.4zm-11.16-3.49h-3.75c-1.89 0-3.12 1.43-3.12 3.4v5.31h6.87v-8.71zm-6.87 12.18v3.51c0 1.43 1.08 2.46 2.53 2.46h4.34v-6.04l-6.87 0.07zm10.15 0.14v6c0 1.56 1.24 2.73 2.82 2.73h0.55c2.13 0 3.3-1.68 3.3-3.54v-5.26l-6.67 0.07z" fill="#F6B241"/>
  <path d="m105.6 93.67 14.35 4.51c1.09 0.36 1.37 1.55 1.37 2.54v25.89c0 1.18-1.3 2.01-2.65 1.31l-11.55-4.13c-1.25-0.54-2.14-1.6-2.14-3.75v-24.83c0-1.01 0-1.8 0.62-1.54zm11.11 10.44c0-1.27-0.84-2.37-1.89-2.81l-4.74-1.72c-0.95-0.39-1.57 0.3-1.57 1.31v14.28c0 1.17 1.17 1.94 2.18 1.56l4.88-1.92c0.76-0.3 1.14-1.07 1.14-2.08v-8.62z" fill="#000" opacity=".15"/>
  <path d="m106.6 93.94 12.95 5.1c1.17 0.51 1.69 0.37 1.69 2.08v23.48c0 1.68-1.11 2.47-2.81 1.81l-11.1-4.47c-1.58-0.66-2.2-2.03-2.2-3.99v-22.84c0-1.49 0.55-1.59 1.47-1.17zm10.46 10.15c0-1.37-0.83-2.41-2.18-3.1l-4.37-1.68c-1.04-0.42-1.74 0.1-1.74 1.4v14.4c0 1.1 0.89 1.9 1.97 1.7l4.92-1.22c0.88-0.23 1.4-1.12 1.4-2.22v-9.28z" fill="#F4685A"/>
  <path d="m105.2 89.26 13.7-23.83c1.01-1.79 3.43-1.51 4.45 0.28l14.35 23.55c1.24 2.25 0.36 4.95-1.68 6.05l-11.1 4.69c-1.83 0.79-4.38 0.07-4.59-0.59l-13.1-4.79c-1.79-0.73-3.23-2.98-2.03-5.36z" fill="#00BFC0"/>
  <path d="m120.5 64.52c1.31-0.11 1.79 0.62 2.7 2.2l14.48 23.55c1.04 1.89 0.28 4.59-1.97 5.7l-11.73 5.02c-1.96 0.79-3.6-0.28-3.76-1.82l0.28-34.65z" fill="#000" opacity=".15"/>
  <path d="m137.6 94.72 23.2 4.44c2.25 0.6 2.53 2.62 2.53 4.75v21.59c0 1.86-1.01 2.59-2.92 2.1l-21.25-4.89c-1.86-0.49-2.97-2.25-2.97-4.46v-21.16c0-1.51 0.53-2.68 1.41-2.37zm20.79 8.43c0-1.14-1.05-1.87-2.16-2.07l-13.23-2.76c-1.58-0.34-2.1 0.79-2.1 2.09v15.8c0 1.57 1.04 2.22 2.3 2.5l13.09 2.89c1.31 0.31 2.07-0.99 2.07-2.26l0.03-16.19z" fill="#000" opacity=".15"/>
  <path d="m138 93.62 21.99 4.29c2.75 0.59 3.13 2.71 3.13 4.84v21.92c0 1.96-1.3 2.84-3.26 2.32l-20.71-4.42c-1.89-0.49-3.06-2.11-3.06-4.36v-21.86c0-1.74 0.34-3.04 1.91-2.73zm20.32 9.66c0-1.27-1.17-2.09-2.43-2.36l-12.71-2.66c-1.7-0.39-2.32 0.65-2.32 2.23v15.41c0 1.55 1.11 2.51 2.46 2.85l12.71 2.89c1.44 0.38 2.26-0.92 2.26-2.37l0.03-15.99z" fill="#F6B241"/>
  <path d="m136.1 122.2-12.3 4.89c-1.58 0.69-2.59 1.96-2.59 4.11v24.69l16.52-3.87 0.69-27.23c0.05-1.58-0.77-3.12-2.32-2.59zm-2.12 21.79c0 1.3-1.44 2.25-2.88 1.59l-4.5-2.28c-0.95-0.48-0.5-1.14-0.5-2.31v-7.2c0-1.36 1.01-2.5 2.21-2.92l4.02-1.54c1.08-0.45 1.65 0.28 1.65 1.39v13.27z" fill="#00B3B9"/>
  <path d="m134.8 100.1-7.19 2.96c-1.31 0.59-1.76 1.7-1.76 3.31v11.86c0 1.3 0.89 1.82 2.24 1.23l5.05-2.32c1.17-0.52 1.69-1.48 1.69-3.19l-0.03-13.85z" fill="url(#paint0_linear_9323_39124)" stroke="#F4685A" stroke-miterlimit="10" stroke-width=".75"/>
  <path d="m165.1 121.2 18.26 12.55c2.12 1.47 2.41 3.27 2.41 5.86v6.52l-19.61 6.03-1.11-29.93c-0.1-1.16-0.41-1.55 0.05-1.03z" fill="#F26455"/>
  <path d="m183.6 145.5-17.57 5.86v-18.26c0-2.25-1.51-2.91-3.4-1.55l-17.39 12.35v12.65l40.24 16.36 0.15-23.76c0.1-2.39-0.42-4.1-2.03-3.65z" fill="#FDCA5C"/>
  <path d="m147.8 149 26.02 10.41c2.76 1.17 2.96 3.66 2.96 6.76v18.19c0 2.12-1.27 2.68-3.16 1.51l-14.6-9.19-12.92-5.66-1.5-21.95c0-2.09 1.11-1.2 3.2-0.07z" fill="#00BFC0"/>
  <path d="m107.3 161.6 33.96-14.31c1.69-0.8 2.89-0.14 2.89 1.51v22.18c0 1.74-1.27 3.63-4.25 4.04l-32.08 1.17c-2.02-0.27-3.07-1.1-3.07-2.74v-8.76c0-1.51 0.89-2.47 2.55-3.09z" fill="#00BFC0"/>
  <path d="m133.1 153.4 21.99-2.25c2.52-0.28 3.47 1.84 3.47 3.96v19.82c0 2.56-1.38 4.94-3.34 4.94l-22.18 2.66c-2.31 0.2-3.54-1.51-3.54-3.82v-20.89c0-2.12 1.3-4.21 3.6-4.42zm18.83 6.53c0-2.12-1.83-3.49-3.34-3.28l-10.89 1.07c-1.45 0.2-2.27 1.71-2.27 3.19v5.3l16.52-1.5-0.02-4.78zm-16.53 10.28v3.3c0 1.9 1.79 3.27 3.41 2.92l10.56-1.51c1.44-0.27 2.49-1.64 2.49-3.32l-0.1-3.2-16.36 1.81z" fill="#F4685A"/>
  <path d="m37.75 92.71 9.26-12.22 16.73 6.72-0.28 24.6-26.15 7.22v-22.22c0-1.63-0.62-2.68 0.44-4.1z" fill="#00B3B9"/>
  <path d="m39.41 99.01 18.65-4.74 0.28 18.83-16.45 2.02-0.56-16.21-1.92 0.1z" fill="url(#paint1_linear_9323_39124)" stroke="#00B3B9" stroke-miterlimit="10" stroke-width=".75"/>
  <path d="m39.41 120.5 16.2-3.61-15.49 23.01-4.01 0.07v-14.44c0-2.52 0.96-4.61 3.3-5.03z" fill="#F26455"/>
  <path d="m50.01 95.21 1.76-0.53v19.17l-1.76 0.38v-19.02z" fill="#000" opacity=".15"/>
  <path d="m104.8 124.6v24.68c0 1.71-1.17 2.94-3.23 4.05l-21.5 11.72c-1.9 1.01-2.97-0.13-2.97-1.91v-24.68l27.7-13.86zm-4.74 10.15c0-1.58-1.17-1.72-2.68-0.84l-12.86 7.03c-1.3 0.79-1.93 1.87-1.93 3.66v9.81c0 1.55 1.14 1.89 2.49 1l12.96-7.6c1.26-0.81 1.98-1.85 1.98-3.68l0.04-9.38z" fill="#F77D6D"/>
  <path d="m107.7 122.8 10.99 4.33c1.51 0.62 2.5 1.6 2.5 3.92v25.38l-3.16 0.85-10.05-4.75c-1.9-0.95-2.45-2.38-2.45-4.5v-22.99c0-1.79 0.76-2.8 2.17-2.24zm8.86 10.96c0-1.43-0.89-2.6-2.16-3.12l-3.81-1.51c-1.31-0.55-2.2 0.52-2.2 1.95v13.85c0 1.71 1.44 3.15 2.79 2.7l4.18-1.54c0.89-0.35 1.23-1.26 1.23-2.53l-0.03-9.8z" fill="#FDCA5C"/>
  <path d="m88.79 75.18-8.98-12.15c-1.72-2.42-5.29-2.28-7-0.52l-12.79-7.4-11.93 19.29c-1.44 2.56-0.88 4.81 1.08 5.92l14.94 7.81 21.43-7.12c3.13-1.17 4.3-3.96 3.25-5.83z" fill="#F26455"/>
  <path d="m72.68 64.52-9.25 19.39c-1.02 2.35 0.28 4.38 2.66 3.62l20.28-6.86c2.75-1.05 3.54-3.84 1.96-6.16l-8.52-11.48c-1.79-2.28-5.78-1.52-7.13 1.49z" fill="#F77D6D"/>
  <path d="m73.91 136.1-25.24-1.43c-2.95-0.27-3.64-3.2-2.16-5.79l11.2-14.72c2.31-2.99 6.98-3.62 9.01-0.07l10.67 18.67c1.34 2.6 0.07 3.7-3.48 3.34z" fill="#F26455"/>
  <path d="m73.56 137-22.75-2.38v24.82c0 1.86 1.9 3.88 3.86 4.3l18.83 2.66c2.72 0.31 3.77-2.18 3.77-4.7v-20.7c0-2.25-1.23-3.79-3.71-4zm-3.39 22.24-14.14-0.69c-1.69-0.14-3.39-1.85-3.39-3.84v-10.35c0-1.96 0.98-2.84 2.67-2.74l12.72 1.24c1.69 0.14 2.35 1.85 2.35 3.39v11.46c0 0.79-0.21 1.53-0.21 1.53z" fill="#00BFC0"/>
  <path d="m63.71 89.71 25.1-8.29v19.36l-25.14 9.94 0.04-21.01z" fill="#FDCA5C"/>
  <path d="m68.66 95.07 15.32-5.9v6.52l-15.29 4.99-0.03-5.61z" fill="url(#paint2_linear_9323_39124)" stroke="#F6B241" stroke-miterlimit="10" stroke-width=".75"/>
  <path d="m68.66 102 15.46-5.63v5.6l-15.43 6.21-0.03-6.18z" fill="url(#paint3_linear_9323_39124)" stroke="#F6B241" stroke-miterlimit="10" stroke-width=".75"/>
  <path d="m64.31 111.9 24.85-11.49c2.95-1.27 5.54 0.25 7.05 3.48l8.84 14.15c1.24 2.25 0.68 5.31-2.04 6.64l-20.57 11.36c-2.52 1.37-4.48 0.2-5.27-2.08l-10.96-20.16c-0.79-1.48-1.9-1.9-1.9-1.9z" fill="#43CAC6"/>
  <path d="m21.11 147.2 24.2-10.93c2.25-1.04 3.13 0.75 3.13 2.9v20.63l-3.68 19.09-22.75-4.38c-2.45-0.45-3.49-1.65-3.49-4.82v-18.12c0-2.25 0.66-3.69 2.59-4.37z" fill="#F6B241"/>
  <path d="m45.93 159 11.65 6.79c3.78 2.12 4.12 7.18 0.04 9.1l-9.81 4.63c-2.32 0.95-3.59-1.04-3.59-3.16v-14.69c0-1.64 0.39-3.35 1.71-2.67z" fill="#F77D6D"/>
  <path d="m20.01 109.4h5.1c1.76 0 2.38 1.1 2.38 2.9v12.95h-9.26v-15.31l1.78-0.54z" fill="#9E752B" opacity=".3"/>
  <path d="m18.63 127.7h8.69v9.97l-1.3 0.55-4.88-2.95c-1.69-0.95-2.51-2.02-2.51-4.4v-3.17z" fill="#9E752B" opacity=".3"/>
  <path d="m52.71 142.5 6.14-0.45-0.07 10.93-5.52 2.76-0.62-1.79 0.07-11.45z" fill="#9E752B" opacity=".3"/>
  <path d="m60.11 142.1 5.45 0.35v7.34c0 2.25-1.54 4.47-3.69 5.67l-4.63 1.5-1.89-0.89-0.59-2.42 3.68-1.61c1.1-0.66 1.66-1.92 1.66-3.16l0.01-6.78z" fill="#9E752B" opacity=".3"/>
  <path d="m81.82 143.1 2.39 0.69c1.69 0.38 3.17-1.58 3.65-3.76v-1.86l-5.25 2.49-0.79 2.44z" fill="#076673" opacity=".3"/>
  <path d="m89.23 138.3 8.19-4.69c1.51-0.95 2.61-0.4 2.61 1.33v10.99c0 1.37-0.82 2.29-2.02 1.77l-7.19-3.4c-1.17-0.66-1.86-1.61-1.86-3.44l0.27-2.56z" fill="#9E752B" opacity=".3"/>
  <path d="m109.1 130.4 1.34-0.69 4.81 2.32c0.86 0.52 1.25 1.4 1.25 2.67v12.18l-1.34 1.17-6.13-2.45-0.28-13.7 0.35-1.5z" fill="#9E752B" opacity=".3"/>
  <path d="m126.4 140.6 7.29 3.91-0.72 1.79-2.96 0.88-3.81-1.58 0.2-5z" fill="#9E752B" opacity=".3"/>
  <path d="m141.7 100.1 9.25 1.79c0.89 0.21 1.27 1 1.27 1.79 0 1.27 1.34 2.16 2.38 1.89l3.71-0.14v8.99l-9.68-3.4c-1.51-0.59-3.63 0.3-3.63 2.45v3.78l-4.3-1.18v-14.38c0-1.27 0-1.86 1-1.59z" fill="#076673" opacity=".3"/>
  <path d="m150 167.2 1.89-0.16v4.63l-1.69 0.79-1.54-2.41 1.34-2.85z" fill="#007473" opacity=".3"/>
  <defs>
    <linearGradient id="paint0_linear_9323_39124" x1="128" x2="131" y1="100.1" y2="119.9" gradientUnits="userSpaceOnUse">
      <stop stop-color="#F7B94A" offset="0"/>
      <stop stop-color="#D36854" offset="1"/>
    </linearGradient>
    <linearGradient id="paint1_linear_9323_39124" x1="41.37" x2="58.34" y1="104.7" y2="104.7" gradientUnits="userSpaceOnUse">
      <stop stop-color="#88D0CA" offset="0"/>
      <stop stop-color="#DD796D" offset="1"/>
    </linearGradient>
    <linearGradient id="paint2_linear_9323_39124" x1="68.68" x2="83.98" y1="94.93" y2="94.93" gradientUnits="userSpaceOnUse">
      <stop stop-color="#F0BE68" offset="0"/>
      <stop stop-color="#E78473" offset="1"/>
    </linearGradient>
    <linearGradient id="paint3_linear_9323_39124" x1="68.68" x2="84.12" y1="102.3" y2="102.3" gradientUnits="userSpaceOnUse">
      <stop stop-color="#F0BE68" offset="0"/>
      <stop stop-color="#E78473" offset="1"/>
    </linearGradient>
  </defs>
</svg>