<svg xmlns="http://www.w3.org/2000/svg" width="200" height="200" viewBox="0 0 200 200">
<!-- SVG created with Arrow, by QuiverAI (https://quiver.ai) -->
  <path d="m197.2 141c-0.18-1.31-3.54-3.73-3.54-3.73 0.78-4.26 0.12-5.98-5.68-7.17-3.94-0.82-6.73-0.36-7.55 0.29-1.25 1-1.07 4.59-1.07 4.59l-4.25 0.74c0.84-3.57 0.96-6.64-4.11-7.32-4.05-0.54-7.3-0.27-8.25 1.28-1.03 1.71-0.62 5.74-0.62 5.74l-4.11 1.7-1.24 19.52 8.37 0.12 11.07 0.58 4.11-0.36 14.63-0.51c2.2-0.49 2.65-13.03 2.24-15.47z" fill="#000" opacity=".2"/>
  <path d="m178.7 135.1 10.89 2.41 7.51 2.5c0.65 0.82-0.97 14.28-3.06 15.8-1.2 0.87-14.16 0.31-15.26 0.14-2.45-0.39-4.34-13.13-3.36-17.67 0.31-1.47 1.71-3.41 3.28-3.18z" fill="#00B2B2"/>
  <path d="m180.2 130.7c0.74-1.58 3.55-2.07 8.81-1.38 5.01 0.86 5.02 2.69 4.51 5.93-0.38 2.42-0.67 2.52-7.01 2.15-6.69-0.39-7.24-3-6.31-6.7z" fill="#00B2B2"/>
  <path d="m162.8 129.4c0.53-1.45 2.86-1.85 6.87-1.51 5.08 0.63 5.07 2.87 4.41 6.35-0.44 2.36-3.25 1.98-6.92 2.02-4.68 0.05-5.36-1.96-4.36-6.86z" fill="#00B2B2"/>
  <path d="m169.2 129.8c-0.23-5.07-1.6-19.52-1.91-21.54 1.79-4.08 2.45-24.06 1.44-26.77-1-2.3-2.98-2.91-2.98-2.91l0.34-5.41 5.37-1.68 4.48-4.4c1.1-1.89 1.24-11.93 0.19-13.93-0.66-1.09-4.12-1.17-4.12-1.17 0.68-3.66 0.07-5.03-6.18-5.61-4.66-0.37-6.83 0.35-7.5 1.15-0.65 0.8-0.66 2.45-0.79 2.87l-2.54-0.28c0.1-2.76 0.11-3.98-6.66-4.54-4.48-0.23-6.73 0.05-7.59 1.23-0.87 1.17-0.56 3.35-0.74 3.62l-4.03 3.26c-2.49 1.61-2.18 12.98-1.52 15.34 0.66 1.63 2.06 2.27 2.06 2.27-1.17-0.26-3.09-0.97-4.31 0.28-1.31 1.38-1 4.47-1.37 5.31l-3.79-0.71c0.36-3.14 1.36-6.14-5.79-7.22-5.25-0.6-6.93-0.16-7.79 0.91-1.22 1.31-0.76 5.24-1.23 5.58l-2.75 2.05c-3.2 1.34-3.49 23.43-2.25 27.28l1.89 0.2-0.31 3.59-6.89 0.41 0.56 19.1 1.8 0.87v2.18l3.02 2.14-0.26 10.53 5.26 3.23 7.82 0.13 17.97 0.05 10.03-2.02 2.93-2.18 0.68-1.97 2.23 0.54 14.02 1.07 1.21-12.85z" fill="#000" opacity=".2"/>
  <path d="m147 106.2c-1.82 0.68-0.87 22.74 0.07 27.43l2.8 9.54 17.66 0.31c1.12-3.44 1.03-21.52-0.3-34.47l-2.16-1.91-18.07-0.9z" fill="#F26B5B"/>
  <path d="m110.5 75.81c-3.07 0.34-3.72 3.78-3.8 15.23-0.06 7.82 0.33 12.94 1.17 13.67 0.65 0.65 7.24 1.32 14.19 1.27 1.23 0 2.67-1.17 2.67-1.17 0.83-7.7 4.66-11.59 11.37-11.54 7.83 0.06 10.05 5.81 9.79 12.91l4 3.18c1.6 0.43 15.18 0.72 17.1-0.53 1.79-1.12 2.62-24.66 1.25-27.6-1.15-2.63-5.32-2.57-10.57-3.32-5.85-0.83-35.3-2.9-47.17-2.1z" fill="#00A9B7"/>
  <path d="m113.4 69.12c-1.24 1.31-1.09 5.34-1.17 5.68 0.34 2.28 5.85 2.36 10.1 2.02s5.09-1.56 4.97-4.4c-0.09-2.41 0.42-3.52-6.34-4.1-3.89-0.34-6.49-0.12-7.56 0.8z" fill="#00A9B7"/>
  <path d="m132.7 71.31c-1.15 1.15-1.43 4.74-1.3 5.51 0.58 2.02 5.72 2.15 9.85 1.89 4.72-0.29 5.37-0.79 5.37-3.7 0-2.09-0.34-3.93-1.49-4.4-1.23-0.5-10.81-1.03-12.43 0.7z" fill="#00A9B7"/>
  <path d="m137.1 52.09c-2.88 1.22-3 7.67-2.69 14.8 0.06 2.28 0.58 3.2 6.37 3.97 6.61 0.86 27.88 1.95 29.25 1.55l5.05-3.87c1.24-1.77 1.8-12.93 0.18-15.63-0.88-1.15-4.08-0.84-5.17-1.18 0 0-12.16-1.29-15.5-1.87s-14.41 0.86-17.49 2.23z" fill="#F7BF50"/>
  <path d="m140.4 46.41c-0.86 1.07-0.69 3.8-0.6 4.29 0.4 2.19 5.68 2.19 8.7 1.98 4.93-0.31 5.47-0.52 5.51-3.87 0.03-2.54-1.9-3.17-7.54-3.72-3.03-0.2-4.96 0.12-6.07 1.32z" fill="#F7BF50"/>
  <path d="m158.3 47.24c-0.87 0.73-0.8 3.57-0.8 4.06 0.17 1.91 4.56 2.74 8.52 2.62 4.73-0.2 5.47-0.51 5.71-3.11 0.26-2.74-0.3-4.02-6.32-4.6-3.72-0.34-6.14 0.06-7.11 1.03z" fill="#F7BF50"/>
  <path d="m151.2 72.91c-0.55 1.41-0.59 4.15-0.2 4.95 1.1 1.73 6.9 1.79 9.78 1.56 4.78-0.43 5.17-0.74 5.32-3.21 0.13-1.95-0.04-4.1-0.6-4.51-0.66-0.49-13.49-0.89-14.3 1.21z" fill="#00A9B7"/>
  <path d="m166.5 137.8c-1.37-1.57-10.33-2.06-11.43-0.47-1.4 2.19-1.46 3.26-2.01 3.6-1.79 0.86-5.25 3-5.56 5.34-0.39 2.7 5.62 8.83 6.44 16.46 3.93 1.06 28.91 3.14 31.17 2.4 2.87-0.93 3.29-13.78 2.79-15.65-0.58-2.02-3.95-4.72-3.95-4.72 0.76-3.99 0.28-5.87-6.54-6.68-5.45-0.61-7.24 0.72-7.36 1.81l-1.25 2.7-1.69-0.25c0.1-1.15 0.56-3.28-0.61-4.54z" fill="#F67B6A"/>
  <path d="m101.1 103.1 6.86 0.29c1.79 0.2 2.48 1.55 2.25 5.35-0.13 2.01-0.65 2.14-3.36 2.38l-5.8-0.19 0.05-7.83z" fill="#D85249"/>
  <path d="m114.2 104.4c-1.25 1.07-0.81 4.41-0.81 5.03 0.52 1.99 5.64 1.99 8.97 1.74 5.42-0.42 5.59-1.26 5.54-4.23-0.05-2.74-0.42-3.78-6.32-3.91-3.94-0.08-5.95 0.21-7.38 1.37z" fill="#F26B5B"/>
  <path d="m101.1 110.1 7.82-0.44c1.15 0.17 1.28 0.11 1.2 0.5l3.34 0.17 13.4-0.58c3.62 0.34 6.04 2.08 6.16 5.42 0.26 6.19 0.18 11.39-0.74 12.26-1.31 1.31-25.07 1.71-30.03 0.71l-1.15-18.04z" fill="#DD5449"/>
  <path d="m130.4 121.1c-2.77 1.08-2.65 4.25-2.41 6.04l8.16 0.36 6.77-1.14c-1.19-1.08-0.7-3.71-2.32-5.73-1.31-1.31-6.85-0.59-10.2 0.47z" fill="#D89835"/>
  <path d="m114.1 123.4c-3.27 1.01-2.96 3.59-2.88 6.32l13.68-0.91c0.79-1.58 1.1-4.55-0.08-5.83-1.25-1.35-7.31-0.63-10.72 0.42z" fill="#D89835"/>
  <path d="m100.5 128c-2.39 0.8-2.73 2.98-2.86 5.16l11.38-1.05c1.62-1.01 2.12-3.13 0.93-4.3-1.42-1.41-6.58-0.76-9.45 0.19z" fill="#D89835"/>
  <path d="m140.1 126.3c-1.92-0.06-8.32 1.59-14.97 2.73-10.22 1.8-24.72 4.25-32.08 6.7l0.83 17 4.73 1.95 15.47-2.52 13-1.37 21.9-6.86c0.65-4.08-1.89-16.27-8.88-17.63z" fill="#F7BF50"/>
  <path d="m78.62 110.6c-0.65-1.87-4.01-1.38-4.01-1.38 0.85-2.63 0.37-4.42-3.55-5.31-3.96-0.81-6.87-0.23-7.4 0.38-0.97 1.08-0.72 3.68-0.95 3.94l-2.29 0.93c-0.06-2.28-2.73-2.03-6.11-1.62-3.05 0.37-6.39 1.19-6.82 1.99-1.07 2.03-0.98 9.08-0.33 11.87l2.74 3.26-1.8 9.02 2.7 1.7 8.29-1.36 18.06-6.07 2.26-2.02c0.4-3 0.23-12.39-0.79-15.33z" fill="#000" opacity=".2"/>
  <path d="m38.81 112.6c-3.2 1-2.07 12.45-1.69 16.56 0.09 1.02 4.29 3.04 5.69 3.24 2.49 0.34 31.67-0.3 33.26-2.3 1.44-1.89 0.88-14.4-0.96-16.76-1.3-1.73-32.4-1.93-36.3-0.74z" fill="#01BBB9"/>
  <path d="m66.08 103.1c-1.62 0.73-1.16 6.14-1.75 6.9-1.37 1.5-2.11 1.63-1.56 2.11 0.95 0.73 8.24 0.81 10.61-0.28 1.73-0.83 1.91-2.72 1.74-5.77-0.11-2.63-2.59-3.41-9.04-2.96z" fill="#00B2B2"/>
  <path d="m53.61 135.2c-1.19 2.19-1.5 10.87-0.52 13.57 0.72 2.19 36.37 2.5 39.33 0.92 1.49-0.8 1.31-11.88 0.2-14.51-0.65-1.57-4.4-2.58-5.4-2.92l-16.47 0.5-15.69 0.2-1.45 2.24z" fill="#E55546"/>
  <path d="m56.86 127.7c-0.06 0.87-0.38 4.18 1.02 5.33 1.13 0.95 8.89 0.51 10.88-0.54 1.68-0.93 1.3-4.65 0.93-5.51-0.99-1.79-11.7-1.31-12.83 0.72z" fill="#F26152"/>
  <path d="m74.36 127.5c-0.55 1.38-0.64 4.21 0.36 5.22 1.56 1.37 10.36 0.93 12.39-0.23 1.51-0.89 1.31-4.58 0.47-5.81-1.4-1.89-12.14-1.59-13.22 0.82z" fill="#F26152"/>
  <path d="m98.34 33.47c-0.93-1.81-3.32-2.74-3.32-2.74 0.58-4.55 0.64-6.35-5.02-6.82-5.11-0.34-7.68 0.87-8.23 1.5-1.05 1.23-0.92 4.9-0.92 4.9l-4.56 0.34c0.34-3.59 0.19-4.74-5.23-4.85-4.41-0.09-7.6 0.71-8.35 2.09-0.65 1.25-0.57 4.12-0.69 4.52l-4.97 0.4c0.37-3.74 0.71-6.15-6.28-6.1-5.66 0.05-6.86 1-7.69 2-0.87 1.1-0.3 4.76-0.61 5.1l-3.07 3.51c-1.69 2.02-1.09 19.35 0.53 26.76 0.34 1.42 2.27 1.29 2.27 1.29l0.83 1.77-2.16 2.5c-1.25 1.67-1.28 18.17-0.03 19.42l1.09 4.77 15.34 0.49 6.65-3.11c-0.34-4.72 1.82-11.92 9.3-11.98 7.09-0.07 8.84 7.95 8.58 12.49l4.02 1.89 14.04-1.07c1.99-4.72 1.55-22.53-0.54-25.4l-2.67-1.83v-1.7l3.2-2.45c1.18-2.94-0.07-25.07-1.51-27.69z" fill="#000" opacity=".2"/>
  <path d="m41.97 34.58-1.88 2.33c-2.17 1.16-1.48 18-0.08 26.4 0.31 1.87 1.61 1.74 2.84 1.76l14.17-0.05 1.09-0.95c0.26-7.71 3.13-15.8 12.64-15.8 8.43 0 11.31 9.02 11.36 14.98l1.28 0.46c3.76-0.06 12.66-0.78 15.53-2.3 1.52-1.31 0.57-21.1-0.53-27.49-0.34-1.71-2.38-2.71-3.2-2.94l-6.97-0.34-34 2.33-12.25 1.61z" fill="#00B9B8"/>
  <path d="m43.21 27.28c-1 1.18-0.7 4.59-0.7 5.28 0.34 2.41 3.97 2.65 8.81 2.07 4.83-0.58 5.66-1.51 5.75-3.92 0.14-2.84-0.13-4.7-6-4.7-4.41 0-6.63 0.17-7.86 1.27z" fill="#00B9B8"/>
  <path d="m62.9 27.67c-0.73 1.31-0.84 5.08-0.28 6.16 0.74 1.31 8.25 0.77 10.96 0.08 3.2-0.86 3.55-1.95 3.25-5.3-0.24-2.28-1.69-3.29-6.55-3.15-3.97 0.17-6.46 0.72-7.38 2.21z" fill="#00B9B8"/>
  <path d="m82.26 25.06c-1.25 1.25-0.88 4.66-0.94 5.31 0.21 2.19 3.22 2.58 7.77 2.29 5.42-0.39 6.04-1.22 5.99-4.05-0.06-2.9 0.28-4.78-5.74-4.78-3.46 0-5.71 0.28-7.08 1.23z" fill="#00B9B8"/>
  <path d="m42.4 68.01c-2.92 0.73-2.49 12.8-1.59 24.18 0.12 1.42 0.5 1.54 1.65 1.67 2.42 0.27 10.59-0.07 15.18-0.13 1.13-9.71 5.59-14.83 14.25-15 8.17-0.17 11.37 6.08 12.4 14.1 4.03 0.05 13.48-0.15 15.64-1.52 1.69-1.07 1.7-20.82-0.19-24.12-0.95-1.44-3.91-1.1-4.73-1.49l-0.59-2.39-10.3 0.34-1.94-0.07-4-4.32-4.17-0.83-6.5 0.49-2.8 1.69-0.5 3.33-3.96 1.13-14.44 0.34-3.41 2.6z" fill="#F67566"/>
  <path d="m44.77 65.27 0.96 1.74 10.39-0.34 1.63-1.76-1.44 0.39-11.54-0.03z" fill="#CE5651"/>
  <path d="m64.63 64.01 0.58 2.2 11.51-0.17 1.04-0.73 0.15-6.05-1.1-0.14 0.51 5.04-1.17 0.55-11.52-0.7z" fill="#CE5651"/>
  <path d="m83.31 62.61 1.3 2.57 11.13-0.47 1.07-1.7-0.49-0.4h-13.01z" fill="#CE5651"/>
  <path d="m27.93 88.31c-0.22 1.1-0.16 2.86-0.16 3.3-3.62 1.83-4.93 5.02-4.66 10.69 0.27 4.86 0.79 8.98 2.04 10.05 1.8 1.48 27.02-0.69 33.78-2l5.48-2.94c1-3.27 1.11-11.7-0.75-16.37l-5.65-1.73-16.9-2.87c-3.48-0.86-12.5-0.57-13.18 1.87z" fill="#F7BF50"/>
  <path d="m57.81 93.61c2.1 1.58 2.21 13.17 1.7 16.8 2.12-0.73 5.62-3.05 5.82-7.49 0.09-2.45-0.62-10.44-1.87-11.88l-5.65 2.57z" fill="#D89835"/>
  <path d="m38.31 127.7c-1.69-0.48-4.56 0.38-4.56 0.38l-2.74-3.73c-3.2-0.58-9.9 2.4-11 4.58-0.76 1.58 0.06 4.03 0.06 4.03l-2.16 0.83c-4.72 0.17-10.3 4.47-10.85 6.36-0.65 2.36 2.16 6.02 3.08 6.5 1.49 0.83 10.24-2.58 11.49-6.88l-1.37-4.11 1.8 0.38c3.2 0.17 10.55-3.64 11.48-5.93l3.07-1.64c1.79-0.47 2.95 0.98 4.64 4.91 2.26 4.85 5.28 8.85 5.15 10.1-0.26 2.51-14.19 15.27-17.79 18.37-2.16 1.94-17.38 3.25-19.47 2.51-2.09-0.76-6.82-11.29-6.73-14.31 0.05-1.2 6.9-8.2 6.9-8.2l1.09 3.9 10.39-2.19 15.22-13.71 2.3-2.15z" fill="#00B9B8"/>
  <path d="m20.26 148.2c-0.77-1.25-17.1 0.91-17.85 1.44-0.61 1 5.64 13.61 7.26 14.67 1.37 0.93 13.57-0.38 16.44-1.47 1.98-0.76-3.6-10.71-5.85-14.64z" fill="#00999A"/>
  <path d="m20.22 129.8c-0.66 2.35 2.89 5.25 3.39 5.35 2.25 0.34 9-3.17 9.71-5.1 0.49-1.38 0.12-4.18-1.15-5.5-1.65-1.44-10.93 1.91-11.95 5.25z" fill="#00B9B8"/>
  <path d="m80.85 90.61c-1.29 2.02-0.84 25.96-0.11 34.88l5.54 2.55 13.38-1.03c1.79-3 0.93-32.62 0.27-34.95l-13.74 0.67-5.34-2.12z" fill="#F7BF50"/>
  <path d="m85.88 92.68-0.27 34.73 0.9 0.4-0.34-34.93-0.29-0.2z" fill="#000" opacity=".2"/>
  <path d="m37.92 151.1c-0.76 2.12-0.57 12.98 0.68 15.71 0.72 1.68 20.71 7.15 26.07 8.3 2.49 0.55 2.23-8.53 1.35-14.5-0.34-2.28-17.2-7.8-26.79-10.42-0.62-0.24-1.02 0.18-1.31 0.91z" fill="#F7BF50"/>
  <path d="m66.29 158.1c4.42-1.68 17.8-6.98 19.72-6.87 2.1 0.14 1.84 13.34 1.01 15.53-0.95 2.51-14.74 7.97-19.6 8.46l-1.24-0.59c1.9-1.62 1.93-14.55 0.11-16.53z" fill="#D89835"/>
  <path d="m43.11 145.4c-0.76 1.32-0.6 3.67 0.05 4.56 1.1 1.31 7.95 0.91 9.52 0.12 1.56-0.86 1.17-3.31 0.83-4.56-0.8-1.84-9.07-2.27-10.4-0.12z" fill="#F7BF50"/>
  <path d="m55.99 141.8c-0.6 1.25-0.65 3.43 0.18 4.26 1.45 1.48 7.74 0.83 9.74 0.25 2-0.64 1.6-3.37 1.3-5.01-0.55-1.95-9.92-2.02-11.22 0.5z" fill="#D89835"/>
  <path d="m57.83 149.9c-0.57 1.17-0.3 3.22 0.35 3.92 1.33 1.31 8.13 1 10.12 0.27 1.79-0.74 1.45-3.26 0.95-4.77-0.83-2.02-10.12-1.82-11.42 0.58z" fill="#F7BF50"/>
  <path d="m70.71 146c-0.65 1.31-0.39 3.09 0.26 3.74 1.69 1.52 6.64 1.29 8.84 0.36 1.91-0.86 2.17-3.11 1.7-4.88-0.73-1.67-9.28-1.87-10.8 0.78z" fill="#D89835"/>
  <path d="m113.4 140c-2.16 0.73-4.65 13.97-4.27 16.91 0.34 2.53 15.27 11.14 23.24 15.31 3 1.46 19.42-1.8 20.55-2.63 1.4-1.15 2.8-13.22 2.4-15.51-0.25-1.38-17.17 1.35-18.04 1.93-1.79-1.58-20.12-16.07-23.88-16.01z" fill="#00B9B8"/>
  <path d="m137.5 156.1c1.76-0.9 16.18-3.38 17.74-3.12 1.49 0.86-1.5 15.78-2.81 17.03-1.99 1.51-16.31 3.63-19.05 2.41-1.52-0.67 3.05-6.4 4.12-16.32z" fill="#00999A"/>
  <path d="m119.6 135.6c-1.44 0.72-1.81 4.55-0.98 6 1.3 2.28 8.47 2.86 11.49 1.55 2.49-1.07 2.49-4.34 1.87-5.7-1.3-2.22-9.77-3.08-12.38-1.85z" fill="#00B2B2"/>
  <path d="m134.1 143.8c-1.15 1.08-2.07 4.2-0.82 6.06 2.06 3.02 10.67 3.42 13.41 1.84 2-1.12 2.09-5.24 1.09-6.82-1.49-2.29-10.8-3.84-13.68-1.08z" fill="#00B2B2"/>
</svg>