<svg xmlns="http://www.w3.org/2000/svg" width="200" height="200" fill="none" viewBox="0 0 200 200">
<!-- SVG created with Arrow, by QuiverAI (https://quiver.ai) -->
  <path d="m59.72 12.72c-11.9 1.97-20.34 10.4-17.82 15.76l1.16 0.93-10.41 7.6-1.4 0.06c-13.29 1.9-22.16 10.09-18.78 16.83l1.4 3.15-7.02 7.77c-2.59 2.88-1.78 8.09 0.59 12.67l3.59 7.65-0.08 7.5 8.29 67.43c0.41 3 2.51 5.55 5.41 6.5l3.07 1.29c0.79 0.39 2.26 0.12 3.14-0.05l7.94-1.68 20.55 10.71 0.67 5c0.34 2.65 1.93 4.98 4.33 6.23l12.09 6.94c1.88 1.2 4.28 1.34 6.38 0.42l21.99-9.22 2.08-3.15 21.26-8.31 9.32-3.75 25.04-6.88 1.61 1.8 16.28-2.82-2.89 22.06 2.96-0.38 3.4 3.15 5.41-3.82c3.91-0.83 5.78-3.21 3.93-7.94l-0.9-3.74 2.98-54 0.33-36.3-7.08-3.07 1.47 0.05-9.85-59.08-26.14-1.01-2.04-13.27c-0.8-2.55-3.36-3.29-6.85-2.64-5.76 0.8-11.86 3.35-15.04 7.52l-12.66 1.39-1.6-3.59c-1.88-1.81-5.46-1.77-9.69-0.84-6.21 1.17-11.01 3.72-13.86 7.68l-22.34 2.59-1.78-4.16c-1.39-1.88-4.55-1.88-8.44-0.98z" fill="#231F20" opacity=".15"/>
  <path d="m153.1 4.26c-1.17-2.62-2.93-2.58-6.69-2.01-6.93 1.03-12.69 3.8-15.27 7.89l0.34 1.03 23.21-3.81-1.59-3.1z" fill="#E66451"/>
  <path d="m116.8 8.62c-1.09-2.38-3.43-2.71-8.06-1.95-7.84 0.95-12.68 4.04-15.92 7.71l0.22-0.47 24.67-3.13-0.91-2.16z" fill="#E66451"/>
  <path d="m68.96 12.62c-1.55-2.55-5.35-1.64-7.29-1.33-10.49 1.55-20.58 8.82-19.61 14.83l0.97 1.22 7.09-5.29 19.76-5.76-0.92-3.67z" fill="#E66451"/>
  <path d="m31.21 36.38c-11.83 1.87-20.92 9.33-18.37 15.53l1.17 3.42 19.09-19.12-1.89 0.17z" fill="#EA6852"/>
  <path d="m9.71 83.76 9.67 75.35c0.43 3.46 3.15 6.21 6.61 6.69l2.16 0.88c2.79 0.6 4.37-1.55 4.01-4.92l-5.73-65.99 13 69.37 20.25 10.89-5.97-74.22-34.33-19.09-9.67 1.04z" fill="#20B7B6"/>
  <path d="m36.48 109.9 2.51 55.15 20.25 10.89-4.94-66.22-17.82 0.18z" fill="#EA6852"/>
  <path d="m193.9 81-10.32 76.96-21.87 6.15-26.37 7.01-30.3 11.1-1.36-74.57 44.07-17.49 40.26-11.46 5.89 2.3z" fill="#B04636"/>
  <path d="m10.13 83.85 47.03-47.12 123.5-16.52-28.71 28.22-12.53 9 49.24 20.62-51.57 12.74-34.41 10.46-26.88 8.81-65.63-26.21z" fill="#008286"/>
  <path d="m157.4 23.82 23.01-3.61-26.88 26.8-10.87-1.67 14.74-21.52z" fill="#008080"/>
  <path d="m7.01 63.19c-2.81 3.07-2.38 7.59-0.38 11.72l2.99 8.22 47.61-46.4-6.22-18.5-44 44.96z" fill="#20B7B6"/>
  <path d="m51.01 18.21 116.3-12.91c4.93-0.64 7.63 2.08 8.9 6.61l4.19 8.3-122.8 16.43-6.58-18.43z" fill="#F1786B"/>
  <path d="m194 81.03-118.4 25.08-66.02-22.49 0.03 8.19 65.67 23.15 118.6-26.95 0.06-6.98z" fill="#F16B5A"/>
  <path d="m193.5 89.04-118.2 25.77 2.53 76.17c0.11 2.88 2.37 4.1 5.23 2.88l20.9-8.62 2.41-3.13 22.23-8.71 8.77-3.34 25.82-7.15 1.41 1.28 17.65-3.38 11.3-71.77z" fill="#F1786B"/>
  <path d="m161.8 163.2c0.96-6.54-2.69-9.21-6.47-8.56-4.27 0.79-7.72 6.38-7.87 13.34l14.34-4.78z" fill="#B04636"/>
  <path d="m128.2 172.1c-1.1-6.76-4.98-8.61-9.1-7.5-5.3 1.43-9.39 7.43-10.1 14.33l1.82-1.39 5.23-5.93 6.93 0.21 5.22 0.28z" fill="#B04636"/>
  <path d="m89.38 162.2c-0.67 8.87 2.68 17.87 9.6 17.73l1.04 0.26 0.49-17.18-11.13-0.81z" fill="#6092B0"/>
  <path d="m137.7 151.4-0.5 17.71-37.18 11.56c-4 0.45-9.94-2.26-10.41-10.44l-0.24-7.07 19.53-5.87 1.37-4.52 6.53 3.04 20.9-4.41z" fill="#87B9E1"/>
  <path d="m108.9 152.3 4.77 2.4 2.37-0.99-0.19-1.06-2.66-2.09-3.77 0.02-0.52 1.72z" fill="#6092B0"/>
  <path d="m172 140.1-0.35 15.72-0.13 2.3-14.87 4.8c-1.06 0.43-1.63-0.53-1.56-2.29l0.36-16 16.55-4.53z" fill="#EA6852"/>
  <path d="m184.7 124.1c-0.06-7.53-1.48-13.8-7.23-21.27-1.43-2.55-2.4-4.56-5.33-4.28l-14.2 1.22-14.75 2.3-3.93 8.38c-1.02 3.31-0.81 4.62 0.63 5.78l7.39 4.2-0.06 4.79 8.82 7.94 16.03-3.17 12.63-5.89z" fill="#69993F"/>
  <path d="m184.7 124.8-22.05 6.27-6.73 2.23 0.17 9.81c0.01 1.75 0.65 2.03 2.08 1.44l25.42-8.81 1.11-10.94z" fill="#009798"/>
  <path d="m182.8 137.2-11.56 3.53-0.32 7.4-0.11 5.6 9.68-2.55 2.31-13.98z" fill="#B2D364"/>
  <path d="m183.7 65.12-23.73 0.06-4.09 3.88-3.15 8.35-3.03 2.06c-1.53 1.04-1.18 4.01 0.42 4.54l3.58 1.1 2.38 2.88 29.65-5.66 1.16-4.38v-8.89l-3.19-3.94z" fill="#87B9E1"/>
  <path d="m185.4 73.92c-0.53-3.74-2.97-5.65-6.19-5.24-2.13 0.2-3.04 0.31-3.91 1.68l-0.34 14.35 9.88-2.62c1.27-1.37 0.99-5.18 0.56-8.17z" fill="#75A1C6"/>
  <path d="m170.9 68.62-4.28 2.31-4.52 9.08-3.22 1.77c-1.56 1.55-1.08 3.68 0.61 3.81l2.75-0.27 5.88-1.91 0.8 3 6.03-1.3v-15l-4.05-1.49z" fill="#75A1C6"/>
  <path d="m125.4 51.58-1.3 7.87 0.96 1.6 2.03 9.53 26.22 2.18 4.93-12.84-2.3-10.01-6.65-2.55-18.05-1.26-5.84 5.48z" fill="#C6CE67"/>
  <path d="m116.8 52.9c1.56-4.75 3.97-6.97 7.82-6.83l5.5-0.44 13.14 3.09c5.72 2.19 6.56 7.81 6.77 18.61l-33.43-12.32 0.2-2.11z" fill="#F0B036"/>
  <path d="m154.3 48.71c5.72 0.72 8.31 5.77 9.87 12.91l-14.16 5.71c-0.49-9.52-3.45-14.71-11.61-17.7l9.25-0.41 6.65-0.51z" fill="#F7CC63"/>
  <path d="m132.8 42.86h2.31c1.04 0 1.56 0.6 1.56 1.48v2.3c0 0.81-0.97 1.23-2 1.23h-1.43c-1.17 0-2.07-0.64-2.07-1.51v-2.02c0-0.88 0.58-1.48 1.63-1.48z" fill="#F0B036"/>
  <path d="m140.6 41.82h1.95c1.25 0 2.01 0.64 2.01 1.6v2.48c0 0.88-1.04 1.39-2.08 1.39h-1.36c-1.36 0-2.4-0.85-2.4-1.88v-1.99c0-0.96 0.76-1.6 1.88-1.6z" fill="#F0B036"/>
  <path d="m149.5 45.31h1.95c1.06 0 1.7 0.64 1.7 1.45v1.7c0 0.88-0.78 1.35-1.91 1.35h-1.44c-1.2 0-2.17-0.75-2.17-1.78v-1.27c0-0.81 0.76-1.45 1.87-1.45z" fill="#F0B036"/>
  <path d="m25.01 95.09 32.81 12.53c-4.59 5.71-9.65 8.61-16.2 7.28-8.9-1.91-14.54-10.85-16.61-19.81z" fill="#73CCC8"/>
  <path d="m23.03 87.62c0.52-5.41 2.93-9.16 6.51-9.99l1.57-0.2 17.82-1.5c6.08-0.35 12.94 3.13 13.78 10.14l-1.57 8.86-10.86 1.91-27.25-9.22z" fill="#85B13D"/>
  <path d="m28.08 77.65c8.15 0.41 19.2 4.07 21.26 19.16l13.1-3.94 0.61-7.14c-2.04-5.72-6.31-9.57-12.49-9.63l-18.52 0.06-3.96 1.49z" fill="#B2D364"/>
  <path d="m34.24 73.8h1.95c1.18 0 1.88 0.64 1.88 1.52v1.76c0 0.88-0.9 1.45-2.15 1.45h-1.36c-1.13 0-2.03-0.75-2.03-1.78v-1.43c0-0.88 0.76-1.52 1.71-1.52z" fill="#85B13D"/>
  <path d="m42.55 71.31h1.95c1.25 0 2.11 0.64 2.11 1.6v1.99c0 0.95-1.03 1.59-2.25 1.59h-1.43c-1.26 0-2.22-0.85-2.22-1.88v-1.7c0-0.96 0.76-1.6 1.84-1.6z" fill="#85B13D"/>
  <path d="m50.48 73.8h1.88c1.16 0 2.01 0.75 2.01 1.69v1.37c0 0.96-1.03 1.67-2.16 1.67h-1.56c-1.24 0-2.21-0.92-2.21-1.88v-1.22c0-0.96 0.9-1.63 2.04-1.63z" fill="#85B13D"/>
  <path d="m45.22 61.61 10.86-1.69 15.74 3v9.52l-12.78 6.47-13.89-5.29 0.07-12.01z" fill="#EA6852"/>
  <path d="m49.41 58.22h2.21c0.96 0 1.72 0.64 1.72 1.46v1.29c0 0.88-0.97 1.52-2 1.52h-1.23c-1.1 0-1.99-0.85-1.99-1.73v-1.15c0-0.82 0.64-1.39 1.29-1.39z" fill="#EA544B"/>
  <path d="m57.26 55.84h2.3c1.13 0 1.89 0.64 1.89 1.52v1.7c0 0.88-1.04 1.59-2.17 1.59h-1.43c-1.18 0-2.15-0.92-2.15-1.88v-1.41c0-0.88 0.64-1.52 1.56-1.52z" fill="#EA544B"/>
  <path d="m64.47 58.35h1.88c1.13 0 1.88 0.71 1.88 1.59v1.16c0 0.95-0.96 1.59-2.15 1.59h-1.29c-1.13 0-2.03-0.85-2.03-1.87v-1.09c0-0.88 0.76-1.38 1.71-1.38z" fill="#EA544B"/>
  <path d="m62.52 80.09c1.09-6.83 5.25-13.62 9.51-13.97l-0.07-2 16.87 1.94 9.88 2.55c3.85 1 7.66 7.2 7.96 12.68l-3.28 5.52-21.91 3.59-9.16-4.5-9.8-5.81z" fill="#E09926"/>
  <path d="m72.76 83.68c1.16-7.93 5.95-13.57 14.1-14.72l8.96-0.69c5.93 0.89 9.19 4.98 10.75 12.64l-6.39 6.2-16.17 2.31-11.25-5.74z" fill="#FFB93E"/>
  <path d="m76.24 62.74h2.62c1.06 0 1.75 0.64 1.75 1.52v1.95c0 0.95-0.97 1.66-2.16 1.66h-1.36c-1.25 0-2.21-0.85-2.21-1.87v-1.74c0-0.88 0.57-1.52 1.36-1.52z" fill="#E09926"/>
  <path d="m82.72 65.36h2.1c1.13 0 1.95 0.7 1.95 1.66v1.09c0 0.95-1.03 1.66-2.22 1.66h-1.3c-1.24 0-2.21-0.92-2.21-1.95v-0.87c0-0.95 0.69-1.59 1.68-1.59z" fill="#E09926"/>
  <path d="m93.44 67.67-11.65-4.56v-13.68l13.33-0.92 15.27 2.02v8.12l-8.15 5.4-8.8 3.62z" fill="#20B7B6"/>
  <path d="m87.22 46.64h2.07c0.96 0 1.72 0.64 1.72 1.52v0.75c0 0.96-0.97 1.6-2.12 1.6h-1.19c-1.19 0-2.09-0.85-2.09-1.81v-0.54c0-0.88 0.69-1.52 1.61-1.52z" fill="#009798"/>
  <path d="m95.44 44.94h2.07c1.12 0 1.88 0.64 1.88 1.59v1.2c0 1.02-1.03 1.81-2.22 1.81h-1.13c-1.25 0-2.22-0.92-2.22-1.88v-1.13c0-0.95 0.69-1.59 1.62-1.59z" fill="#009798"/>
  <path d="m102.4 47.49h2.24c0.96 0 1.72 0.75 1.72 1.56v0.48c0 1.02-1.04 1.73-2.23 1.73h-1.43c-1.25 0-2.21-0.92-2.21-1.87v-0.34c0-0.95 0.85-1.56 1.91-1.56z" fill="#009798"/>
  <path d="m94.76 48.61h1.95c1.06 0 1.82 0.75 1.82 1.63v1.37c0 0.95-0.97 1.66-2.16 1.66h-1.36c-1.19 0-2.15-0.92-2.15-1.88v-1.22c0-0.95 0.82-1.56 1.9-1.56z" fill="#009798"/>
  <path d="m102.1 63.71 13.13 5.55 14.26-3.85v13.4l-13.51 7.27-14.26-5.12 0.38-17.25z" fill="#EA544B"/>
  <path d="m107.6 59.12h2.3c0.96 0 1.72 0.71 1.72 1.59v1.7c0 0.95-0.97 1.67-2.16 1.67h-1.16c-1.13 0-2.03-0.92-2.03-1.95v-1.42c0-0.88 0.57-1.59 1.33-1.59z" fill="#EA544B"/>
  <path d="m115.8 56.61h2.14c1.12 0 2.02 0.75 2.02 1.84v1.16c0 1.09-1.04 1.94-2.23 1.94h-1.29c-1.25 0-2.15-0.96-2.15-2.05v-1.19c0-0.95 0.57-1.7 1.51-1.7z" fill="#EA544B"/>
  <path d="m121.9 60.17h1.94c1.13 0 1.95 0.75 1.95 1.63v1.16c0 0.95-1.04 1.66-2.23 1.66h-1.29c-1.24 0-2.21-0.92-2.21-1.94v-0.95c0-0.96 0.82-1.56 1.84-1.56z" fill="#EA544B"/>
  <path d="m119.7 84.19c1.42-5.13 6.09-8.47 9.71-8.47l7.65-0.61 12.78 4.7c4.09 0.82 6.34 4.1 7.5 8.85l-17.08 4.75-14.26 1.85-6.3-11.07z" fill="#E09926"/>
  <path d="m129.2 94.84c0.75-6.83 4.84-11.43 9.51-12.18l11.59-1.56c3.31 0.41 5.26 2.96 6.49 7.25l-27.59 6.49z" fill="#FFB93E"/>
  <path d="m128.9 74.66h2.44c1.06 0 1.89 0.75 1.89 1.64v1.63c0 1.02-1.04 1.73-2.3 1.73h-1.56c-1.25 0-2.21-0.92-2.21-1.95v-1.35c0-1.02 0.75-1.7 1.74-1.7z" fill="#E09926"/>
  <path d="m136.7 73.07h1.91c1.13 0 2.02 0.82 2.02 1.78v1.29c0 1.09-1.03 1.88-2.29 1.88h-1.19c-1.32 0-2.29-0.99-2.29-2.01v-1.09c0-1.03 0.76-1.85 1.84-1.85z" fill="#E09926"/>
  <path d="m144.6 76.63h1.82c1.25 0 2.07 0.82 2.07 1.78v1.02c0 1.09-1.03 1.81-2.28 1.81h-1.13c-1.32 0-2.35-1.03-2.35-1.98v-0.92c0-1.03 0.75-1.71 1.87-1.71z" fill="#E09926"/>
  <path d="m85.02 86.21 11.83 6.86 27.18-5.96v7.78l-18.9 5.05-9.1 2.01-11.12-2.01 0.11-13.73z" fill="#20B7B6"/>
  <path d="m90.72 83.52h1.99c1.13 0 2.02 0.74 2.02 1.77v0.92c0 1.02-1.03 1.73-2.22 1.73h-1.72c-1.13 0-2.03-0.92-2.03-1.88v-0.77c0-1.03 0.84-1.77 1.96-1.77z" fill="#009798"/>
  <path d="m98.87 81.3h2.35c1.12 0 2.02 0.85 2.02 1.81v1.22c0 1.09-1.1 1.88-2.29 1.88h-1.63c-1.19 0-2.09-0.93-2.09-1.95v-1.15c0-0.96 0.79-1.81 1.64-1.81z" fill="#009798"/>
  <path d="m107.8 79.06h2.7c1.13 0 2.02 0.81 2.02 1.7v0.54c0 1.09-1.1 1.81-2.42 1.81h-1.72c-1.19 0-2.09-0.93-2.09-1.88v-0.54c0-0.96 0.69-1.63 1.51-1.63z" fill="#009798"/>
  <path d="m115.7 82.83h1.88c1.19 0 2.09 0.78 2.09 1.81v0.78c0 1.09-1.1 1.81-2.42 1.81h-1.03c-1.25 0-2.28-0.96-2.28-1.98v-0.75c0-0.95 0.79-1.67 1.76-1.67z" fill="#009798"/>
  <path d="m97.1 86.75h2.14c1.13 0 2.02 0.82 2.02 1.78v0.61c0 1.09-1.1 1.8-2.42 1.8h-1.19c-1.26 0-2.22-0.99-2.22-2.02v-0.46c0-1.03 0.82-1.71 1.67-1.71z" fill="#009798"/>
  <path d="m56.79 89.64 15.6 4.99 15.34-4.5v9.81c0 1.83-0.72 2.79-2.61 3.47l-12.42 2.75-16.03-6.16 0.12-10.36z" fill="#87B9E1"/>
  <path d="m63.18 85.48h2.23c1.19 0 2.09 0.81 2.09 1.77v1.19c0 1.02-1.03 1.74-2.28 1.74h-1.29c-1.25 0-2.22-0.92-2.22-1.95v-1.05c0-0.96 0.69-1.7 1.47-1.7z" fill="#75A1C6"/>
  <path d="m72.31 82.86h1.56c1.39 0 2.29 0.64 2.29 1.67v1.29c0 1.02-1.07 1.81-2.43 1.81h-1.1c-1.32 0-2.28-0.92-2.28-2.01v-0.96c0-1.02 0.9-1.8 1.96-1.8z" fill="#75A1C6"/>
  <path d="m79.76 85.82h1.88c1.13 0 2.02 0.82 2.02 1.71v0.88c0 1.02-1.03 1.73-2.28 1.73h-1.13c-1.19 0-2.16-0.92-2.16-1.94v-0.74c0-0.95 0.76-1.64 1.67-1.64z" fill="#75A1C6"/>
  <path d="m71.21 88.71h1.76c1.19 0 2.16 0.75 2.16 1.84v1.36c0 1.03-1.04 1.81-2.36 1.81h-1.03c-1.32 0-2.29-1.03-2.29-2.05v-1.33c0-1.02 0.9-1.63 1.76-1.63z" fill="#75A1C6"/>
  <path d="m190.5 106c-6.47 0.56-10.39 7.32-9.92 19.26l4.3-1.37 5.62-17.89z" fill="#008286"/>
  <path d="m183.1 119.9c-0.34-5.65-2.22 0.25-5.87 0.07-4.16-0.57-11.31 0.56-11.65 7.7l4.03 0.55 13.67-3.94-0.18-4.38z" fill="#008286"/>
  <path d="m145.5 101.9c2.62-1.9 5-1.85 8.69-2.3l7.83-0.38 2.19 3.88-0.49 8.89-0.97 0.41-0.64 1.5-3.65 2.48-8.16 3.52c-4.52 1.42-5.84-3.67-5.35-7.3 0.76-4.38 2.95-7.87 6.95-10.56l-6.4-0.14z" fill="#85B13D"/>
  <path d="m152.8 100h1.82c0.76 0 1.33 0.5 1.33 1.25v0.28c0 0.78-0.79 1.31-1.68 1.31h-0.96c-0.96 0-1.65-0.71-1.65-1.46v-0.2c0-0.75 0.51-1.18 1.14-1.18z" fill="#85B13D"/>
  <path d="m157.6 99.05h1.57c0.82 0 1.39 0.57 1.39 1.32v0.27c0 0.68-0.69 1.25-1.58 1.25h-1.2c-0.89 0-1.58-0.64-1.58-1.39v-0.2c0-0.75 0.63-1.25 1.4-1.25z" fill="#85B13D"/>
  <path d="m167 107h1.75c0.86 0 1.55 0.64 1.55 1.46v0.95c0 0.96-0.9 1.6-1.93 1.6h-0.96c-1.03 0-1.79-0.85-1.79-1.8v-0.68c0-0.89 0.57-1.53 1.38-1.53z" fill="#85B13D"/>
  <path d="m173.3 105.6h1.76c0.9 0 1.59 0.64 1.59 1.52v0.58c0 0.88-0.9 1.52-1.93 1.52h-1.29c-1.13 0-1.96-0.85-1.96-1.8v-0.37c0-0.89 0.76-1.45 1.83-1.45z" fill="#85B13D"/>
  <path d="m160.1 102.1 3.72 0.07 0.96 3.94-0.13 6.24-8.16 4-0.34 17.06 13.13-4.09v-6.2l1.37-1.5 7.66-0.41c2.34 0.27 2.63 2.75 2.48 3.97l4.43-1.26c0.53-10.14-2.16-17.74-8.34-18.83l-6.79 0.88-1.73-1.91-8.26-1.96z" fill="#B2D364"/>
  <path d="m75.4 106.1 118.9-25.11-0.4 6.81-118.3 27.11-0.21-8.81z" fill="#F0887A"/>
  <path d="m164.2 61.54 2.05-0.72 1.56 0.18 0.69 1v1.43l-1.13 1.26h-1.95l-1.43-0.85 0.21-2.3z" fill="#75A1C6"/>
  <path d="m172.2 60.01 1.95-0.41 1.5 0.13 1.03 0.79v2.3l-0.89 1.03h-2.48l-1.13-0.69 0.02-3.15z" fill="#75A1C6"/>
  <path d="m171.1 64.27 1.72-0.78 2.02 0.14 1.03 1.29v1.09l-1.49 0.95h-2.14l-1.32-1.02 0.18-1.67z" fill="#75A1C6"/>
  <path d="m170.8 74.26c1.43-0.57 1.82 0.56 1.96 1.75-0.21 1.7-1.57 2.9-2.63 2.51-1.63-0.74-1.42-3.29 0.67-4.26z" fill="#232020"/>
  <path d="m169.7 76.49c0-0.95 0.79-1.77 1.6-1.77 0.75 0 1.22 0.51 1.22 1.36 0 0.96-0.85 1.81-1.67 1.81-0.76 0-1.15-0.58-1.15-1.4z" fill="#D8CCCA"/>
  <path d="m151.3 174.8-15.4 4.28-15.54-4.49 0.76 13.44c0.07 0.75 0.64 1.22 1.43 1.56l12.26 5.18c0.75 0.34 1.54 0.14 2.39-0.28l12.49-6.19c0.97-0.54 1.61-1.83 1.61-2.92v-10.58z" fill="#87B9E1"/>
  <path d="m121.2 174.4 14.42 5.38 0.26 14.93-14.84-6.12c-0.76-0.41-0.76-1.16-0.83-1.98l0.07-11.23 0.92-0.98z" fill="#6092B0"/>
  <path d="m134.4 168.4h2.3c1.13 0 2.02 0.81 2.02 1.7v1.36c0 1.02-1.03 1.74-2.22 1.74h-1.5c-1.25 0-2.28-0.92-2.28-1.95v-1.09c0-0.95 0.76-1.76 1.68-1.76z" fill="#75A1C6"/>
  <path d="m143 171.1h2.3c1.26 0 2.29 0.95 2.29 1.98v1.02c0 1.09-1.13 1.81-2.45 1.81h-1.56c-1.32 0-2.35-1.03-2.35-2.05v-1.02c0-1.03 0.89-1.74 1.77-1.74z" fill="#75A1C6"/>
  <path d="m126.8 170.9h2.01c1.19 0 2.09 0.85 2.09 1.81v1.29c0 1.02-1.1 1.73-2.35 1.73h-1.26c-1.32 0-2.29-1.02-2.29-2.05v-1.09c0-1.02 0.79-1.69 1.8-1.69z" fill="#6092B0"/>
  <path d="m157.5 174.1 9.51 2.99 9.82-3.4v9.4l-8.8 5.35-9.94-3.78c-0.45-0.14-0.59-0.72-0.66-1.43l0.07-9.13z" fill="#00ABA0"/>
  <path d="m161.8 171.8h1.96c0.89 0 1.65 0.64 1.65 1.52v0.96c0 0.95-0.9 1.66-2.03 1.66h-0.69c-1.19 0-2.01-0.85-2.01-1.8v-1.02c0-0.75 0.5-1.32 1.12-1.32z" fill="#008286"/>
  <path d="m166.7 170.1h1.77c0.96 0 1.72 0.64 1.72 1.52v1.29c0 0.95-0.97 1.59-2 1.59h-0.44c-1.13 0-1.95-0.85-1.95-1.8v-1.09c0-0.88 0.57-1.51 0.9-1.51z" fill="#008286"/>
  <path d="m172.3 172.2h1.43c0.89 0 1.58 0.58 1.58 1.43v0.96c0 0.64-0.76 1.21-1.65 1.21h-1.13c-0.96 0-1.65-0.82-1.65-1.57v-0.75c0-0.75 0.57-1.28 1.42-1.28z" fill="#008286"/>
  <path d="m111.8 120.6 8.37-2.72 1.95 0.55 0.96 3.75-2.02 3.88-3.52 0.75-5.47-3.03-0.27-3.18z" fill="#915236"/>
  <path d="m102.8 114.3 2.23 1 1.1 2.72-0.97 6.45-3.65 0.62c-3.24-1.25-3.77-1.89-3.02-8.3 0.97-1.91 1.92-2.3 4.31-2.49z" fill="#915236"/>
  <path d="m101.8 134.6 2.16-0.96 2.73-6.86-2.45-2.24c-1.61-1.66-2.3-6.7 3.1-10.33 1.82-1.19 5.75-0.71 7.98 0.24l2.79 1.63-1.95 8.46 0.6 3.53 7.38 3.34 0.2 6.76c-0.14 0.88-1.11 1.77-2.24 1.56l-2.72-0.34c-1.42-0.65-1.32-2.29-0.75-3.68l-3.38-0.95-2.16 4.91-5.96 0.06c-1.32-0.47-0.79-3.02-0.86-4.97l-5.03 3.27" fill="#E6D3AE"/>
  <path d="m103.6 119.1c0-0.85 0.59-1.56 1.4-1.56 0.79 0 1.29 0.71 1.29 1.5s-0.69 1.48-1.38 1.48c-0.7 0-1.31-0.69-1.31-1.42z" fill="#473520"/>
  <path d="m106.1 122 1.86-1.91 1.03-0.03 1.51 1.39c0.39 1.66-2.46 4.14-3.82 1.66l-0.58-1.11z" fill="#773629"/>
  <path d="m107.5 124.1c0.94 0.49 1.76-0.26 1.62-0.98l-1.62 0.98z" fill="#F27672"/>
  <path d="m119.5 126.9c1.31-0.55 2.53 1.61 1.9 2.33-1.04 1.46-3.2-0.16-2.79-1.44 0.17-0.57-0.01-0.43 0.89-0.89z" fill="#855944"/>
  <path d="m108 131-0.79 3.03h26.69l-25.07-2.55-0.83-0.48z" fill="#BFA380"/>
  <path d="m116.9 133.8 0.69 1.19-1.33 0.58-0.47-0.95-1.57-0.13-1.03 1.88-0.23-1.19 1.33-1.51 2.61 0.13z" fill="#BFA380"/>
  <path d="m11.35 177.8 1.56-0.48 14.2 7.14v11.67l-2.55 0.14-11.65-5.16c-1.1-0.48-1.56-1.67-1.7-2.15l0.14-11.16z" fill="#99C24D"/>
  <path d="m12.11 178 14.56-2.27 16.45 0.89 0.39 11.57c0.21 0.61-0.82 0.95-1.58 1.42l-10.21 5.58c-1.18 0.5-3.4 0.92-4.29 0.45l-0.32-11.24-14.36-6.61-0.64-0.75v0.96z" fill="#B2D364"/>
  <path d="m17.43 173.4 1.63-0.54h1.62l1.62 0.55v3.09l-1.68 0.76h-2.72 158.6l-159.9-1.78 0.79-2.08z" fill="#99C236"/>
  <path d="m25.72 170.9 2.02-0.75 2.52 0.54 0.53 1.03v2.48l-1.04 1.02h-2.89 148l-149.4-1.5 0.29-2.82z" fill="#99C236"/>
  <path d="m33.34 173.4 1.76-0.41 2.37 0.07 1.56 1.6-0.34 2.41-1.08 0.75h-3.45 143.1l-144.6-2.53 0.73-1.89z" fill="#99C236"/>
  <path d="m109.2 140.6 1.49-1.61 16.8-6.09 2.92-1.19 21.67 0.5 2.48 1.88v10.11c0 1.26-1.85 2.11-2.98 2.69l-28.24 8.22" fill="#F7B836"/>
  <path d="m91.39 136.4 17.63 4.12v16.73l-18.91 5.86-9.94-5.03c-0.96-12.05 3.7-19.19 11.22-21.68z" fill="#92B748"/>
  <path d="m93.15 134 3.22 0.18 0.86 1.02v1.59l-1.73 0.89h-1.91l-1.13-0.96 0.69-2.72z" fill="#92B748"/>
  <path d="m172.7 161.8 1.93-0.6 6.79 0.6 0.48 4.01-3.33 4.75-2.34-2.06-3.93-1.49-3.93-0.51-0.65-3.39 1.03-1.03 3.95-0.28z" fill="#D6A885"/>
  <path d="m178.6 151.8" fill="#80CCD6"/>
  <path d="m195.1 159.4c1.78-3.85 0.89-9.71-3.92-10.33l-4.97-1.85-6.42 3.22-3.45 6.26 1.24 3.6 3.92 6.19" fill="#895638"/>
  <path d="m180.6 156.5" fill="#D6A885"/>
  <path d="m193.3 157.5 1.89 1.19-0.9 3.26-1.03-1.52 0.07-3-0.03 0.07z" fill="#D6A885"/>
  <path d="m176.6 172.7 1.63-1.03 5.58 5.02v10.35l2.3-0.55 3.92-2.84 3.69-2.6-0.21-3.93-7.06-1.95-1.78-0.43-6.16-2.55-2.02 0.01 0.11 0.5z" fill="#CC6159"/>
  <path d="m176.5 173.4 0.96 3.88 3.28 0.96 0.89-3.72-2.63-2.02-2.5 0.9z" fill="#D6A885"/>
  <path d="m129.8 117.3 2.44-1.82 2.3-0.18 1.56 0.2 9.85 4.6 2.73 1.85-0.07 12.09-14.33 5.06-2.67-1.02-8.72-4.78 0.58-15.25 6.33-0.75z" fill="#EA6852"/>
  <path d="m125.2 117.7h2.63" fill="#CF5C43"/>
  <path d="m132.1 120.4h2.63c1.19 0.02 0.63 2.91-1.39 2.27l-1.13-0.14-0.96-1.02 0.85-1.11z" fill="#CF5C43"/>
  <path d="m140.2 118.7h3.17-25.11l26.65 0.45-0.27 1.89-1.85 1.6-2.55-1.56-1.75-0.43 0.69-2.22 0.56-0.35 0.46 0.62z" fill="#B04621"/>
  <path d="149.15,130.13 L 150.71,130.26 L 150.14,132.01 L 148.51,130.82 L 148.36,130.13 H 149.05,129.17 L 149.19,11.62" fill="#C1B030"/>
  <path d="m151.4 133.1 2.48 0.42-0.76 12.2-1.73 0.41" fill="#F7B836"/>
  <path d="m150.8 17.24 0.63-1.19" stroke="#47889B" stroke-width=".25"/>
  <path d="m18.51 68.92 39.19-5.51" stroke="#036566" stroke-width=".5"/>
  <path d="m18.01 69.33" stroke="#036585" stroke-width=".25"/>
  <path d="m18.01 69.84-5.73 1.5" stroke="#036500" stroke-width=".25"/>
  <ellipse cx="153.5" cy="111.6" rx="2.099" ry="3.141" fill="#353823"/>
  <ellipse cx="153.3" cy="111.8" rx="2.015317557311394 2.9379587661169694" fill="#F2F3F1" stroke="#636670" stroke-linecap="round" stroke-linejoin="round" stroke-width=".4856"/>
  <path d="m151.8 110.7-135.7-41.09" stroke="#098987" stroke-width=".5"/>
  &lt;35,119,38,38,184,173,171,172,173,176,180,176,176,177,177,163,173,167,169,169,166,175,175,176,173,167,176,176,176,177,173,177,177,175,175,176,177,176,177,175,177,175,175,173,175,169,173,173,167,176,176,173,173,172,176,176,176,176,177,176,177,165,176,173,168,175,176,177,175,175,176,176,176,177,175,176,177,175,183,176,186,175,183,177,177,176,175,177,177,177,176,176,177,177,177,176,173,176,177,176,177,176,173,175,176,177,176,176,176,177,177,175,175,175,173,176,176,177,176,176,177,177,176,175,176,173,177,176,177,173,176,176,176,186,176,177,177,176,176,176,177,176,177,175,177,177,175,176,173,173,176,176,177,177,173,176,177,176,176,176,177,177,175,176,176,175,177,177,177,176,176,176,177,177,176,177,176,176,176,78,177,77,176,177,76,176,76,76,776,76,775,777,777,777,762,776,776,777,776,777,773,777,777,776,767,776,777,777,776,776,776,777,777,776,776,777,776,776,775,776,776,776,777,777,777,777,776,776,776,777,777,777,776,776,777,776,776,777,777,7777,776,777,776,777,776,776,776,777,777,777,776,776,776,776,777,777,776,776,776,777,777,777,776&quot; stroke=&quot;#009297&quot; stroke-width=&quot;0.5&quot; stroke-linecap=&quot;round&quot; stroke-linejoin=&quot;round&quot;/&gt;
</svg>