<svg xmlns="http://www.w3.org/2000/svg" width="200" height="200" fill="none" viewBox="0 0 200 200">
<!-- SVG created with Arrow, by QuiverAI (https://quiver.ai) -->
  <path d="m71.09 130.1-0.2 25.62-22.73 2.45-9.98-10.03 0.3-19.24 10.63-0.69 21.98 1.89z" fill="#000" opacity=".2"/>
  <path d="m70.87 128.3 6.04 7.34-5.62 20.28-24.02 1.68-8.85-19.99 2.57-2.67-0.08-5.94 29.96-0.7z" fill="#F8C14C"/>
  <path d="m46.35 152.6c-1.17-1.87-2.53-1.76-4.73-2.21l-34.74 2.5c-2.83 0.86-3.8 1.98-3.88 4.67l0.25 12.37c0.04 1.27 0.5 2.08 1.58 3.05l5.48 3.94c1.32 0.86 2.42 0.53 3.58 0.25l30.27-6.81c3.15-0.93 3.19-2.73 3.23-5.15l-0.03-8.45c0-1.37-0.13-2.92-1.01-4.16z" fill="url(#paint0_linear_227_46592)"/>
  <path d="m10.46 160.6 0.14 16.03c0.73 0.58 1.86 0.66 2.82 0.39l31.49-7.4c1.91-0.65 2.31-2.52 2.35-4.27l-0.08-9.26c-0.05-2.22-0.66-3.65-2.41-4.12l-33.76 7.12c-1.25 0.38-0.63 0.95-0.55 1.51z" fill="url(#paint1_linear_227_46592)"/>
  <path d="m3.37 154.6 7.01 5.11 0.21-0.41-7.44-5.72 0.22 1.02z" fill="#37C8C3"/>
  <path d="m7.43 148.9 17.38-25.27 9.33-1.52 3.75 2.53 0.2 26.36-19.98 5.27-2.98-0.86-6.53-3.57c-1.44-1.02-1.58-1.81-1.17-2.94z" fill="url(#paint2_linear_227_46592)"/>
  <path d="m17.65 155 20.17-29.01 0.19-1.29-0.4-0.33-0.29 2.79-19.21 28.44-0.46-0.6z" fill="#D65445"/>
  <path d="m135.3 127.7-16.08-0.29-14.54 6.68c-1.62 0.77-1.19 5.03-1.19 7.06v16.66c5.01 2.21 11 2.38 16.33 2.21l12.15-1.82 3.33-1.75v-28.75z" fill="url(#paint3_linear_227_46592)"/>
  <path d="m117.7 162.3c-2.64 0.79-1.19 17.62-0.96 20.79 0.16 2.55 1.24 3.56 3.14 4.64l9.12 5.11c1.76 0.79 3.56 0.13 5.64-0.36l13.54-2.53c2.8-1.08 3.29-4.9 3.29-6.93v-13.54c-0.11-3.4-1.32-4.84-2.89-5.63l-11.17-5.18-4.38 0.35-15.33 3.28z" fill="url(#paint4_linear_227_46592)"/>
  <path d="m118.3 161.8 10.6 6.11 19.75-4.07-11.85-5.59-4.69 0.1-13.81 3.45z" fill="#80DBDC"/>
  <path d="m127.9 168.2c-1.61 1.19-0.49 16.73 0 21.51 0.36 2.81 2.59 3.06 5.42 2.54l13.79-2.84c2.88-0.75 4.28-3.79 4.18-7.52v-11.75c0-3.74-1.59-4.91-4.13-5.12l-14.22 1.59c-2.11 0.19-3.86 0.66-5.04 1.59z" fill="url(#paint5_linear_227_46592)"/>
  <path d="m153.2 151.2c-1.46 0.42-1.17 4.73-1.17 5.79v9.29c0 2.13 1.17 3.21 2.93 3.7l32.29 6.46c1.7 0.48 2.11 0.01 2.6-0.41l6.35-5.84c1.24-1.14 1.25-2.51 1.31-4.18l0.2-9.96c-0.08-2.19-0.66-3.56-2.57-4.24l-6.93-1.62-26.07-3.68-8.94 4.69z" fill="url(#paint6_linear_227_46592)"/>
  <path d="m152 151.2 37.34 7.52 0.36-0.44 6.85-5.78-0.63-0.44-7.23-1.82-26.54-3.88-10.15 4.84z" fill="#F99588"/>
  <path d="m189.3 159.4-0.36 16.52c0.44 0.35 1.04 0.2 1.58-0.35l5.81-5.62c1.01-1.09 1.01-2.39 1.09-3.9l0.16-9.43c-0.05-1.7-0.22-3.06-1.07-3.89l-7.21 6.67z" fill="#D65445"/>
  <path d="m165.4 113.7-0.1 37.97c0.66 3.08 10.54 2.69 12.33 2.07 2.14-0.61 7.18-1.14 7.44-3.97l0.1-34.68c-0.28-2.97-6.93-3.1-9.3-3.2l-7.63-0.41-2.84 2.22z" fill="url(#paint7_linear_227_46592)"/>
  <path d="m166.9 113.5 9.35 3.7 7.45-1.55c1.62-0.72 2-1.54 1.79-2.57-0.54-1.76-7.01-2.1-8.34-2.26l-6.53-0.21-3.72 2.89z" fill="#37C8C3"/>
  <path d="m138.1 95.48 40.66-1.76c3.4 0.21 3.37 2.34 3.38 4.34l-0.1 11.75c-0.13 3.05-2.95 6.07-6.93 7.27l-35.99-2.26c-2.44-0.34-3.16-1.78-3.26-4.61v-10.83c0.15-2.37 0.87-3.32 2.24-3.9z" fill="url(#paint8_linear_227_46592)"/>
  <path d="m138.1 95.61 34.53 3c2.45 0.14 2.94 1.64 3 3.94l-0.11 12.37c-0.13 1.83-1.15 2.46-2.69 2.14l-33.82-2.43c-2.29-0.21-2.88-1.57-3.03-4l-0.08-11.11c0.03-2.18 0.82-3.51 2.2-3.91z" fill="#F76D5E"/>
  <path d="m175.7 99.91 4-6.28 0.92 0.51c0.95 0.69 1.16 1.72 1.24 3.05l-0.1 12.65c-0.19 2.37-2.96 5.27-5.71 6.47l-0.35-0.49v-15.91z" fill="#D64A45"/>
  <path d="m137.6 114.8 12.16 0.1c0.92 0.07 1.27 0.92 1.27 2.14l-0.52 34.7c-0.1 2.83-2.2 6.18-5.34 9.66l-8.67-5.21c-1.23-0.95-2.12-2.13-2.17-3.79l0.08-33.72c0.2-2.59 1.43-3.61 3.19-3.88z" fill="url(#paint9_linear_227_46592)"/>
  <path d="m144.8 114.9 1.18 2.4-0.64 43.43-0.69 0.49 0.24-42.09-1.76-4.09 1.67-0.14z" fill="#D19834"/>
  <path d="m128.4 83.98 5.41-5.17 1.93-0.31 32.7 2.23c2.43 0.21 2.32 2.7 2.33 3.89v5.58c-0.08 2.43-2.41 5.49-5.52 6.51l-35.9-2.09c-1.83-0.21-2.13-1.58-2.23-3.33v-4.68c0.1-1.23 0.33-2.19 1.28-2.63z" fill="url(#paint10_linear_227_46592)"/>
  <path d="m128.2 83.83 34.99 2.77c1.49 0.28 1.91 1.45 1.97 3.01v5.71c-0.09 1.02-0.59 1.5-1.6 1.29l-34.26-2.36c-1.52-0.35-2.13-1.34-2.21-3.1v-4.41c0-1.56 0.18-2.63 1.11-2.91z" fill="url(#paint11_linear_227_46592)"/>
  <path d="m165.1 85.31 4.42-4.58 0.58 0.41c0.85 0.63 1.1 1.66 1.16 2.99l-0.15 6.6c-0.27 2.43-2.36 4.73-4.86 5.82l-1.14-0.36-0.01-10.88z" fill="#D19834"/>
  <path d="m149.1 60.41 19.98 0.41v18.95c0 3.14-7.78 3.75-9.85 3.62-2.3-0.14-9.7-0.38-10.04-3.49l-0.09-19.49z" fill="url(#paint12_linear_227_46592)"/>
  <path d="m149.1 60.75c-0.34 1.83 6.63 2.39 7.89 2.46 2.91 0.17 9.81-0.19 12.08-1.76v-0.88l-19.97-0.41v0.59z" fill="#028E8A"/>
  <path d="m142.7 58.67 12.37-18.17 3.65-2.69 1.23 0.34 13.83 20.11c0.63 1.09 0.06 1.78-0.82 1.98l-3.95 0.99-25.69-1.19c-1.01-0.14-1.15-0.69-0.62-1.37z" fill="url(#paint13_linear_227_46592)"/>
  <path d="m156.4 39.81 2.07-2 1.16 0.55 13.97 19.97c0.75 1.16 0 1.78-0.82 2.12l-3.5 0.86-13.01-20.47 0.13-1.03z" fill="#D99529"/>
  <path d="m110.2 87.82c-1.44 0.69-1.37 1.64-1.37 2.94v40.73c0 3.14 4.62 3.69 8.79 3.76 4.25 0 11.25-0.48 11.77-3.01v-38.93c0-2.22-1.44-3.11-3.41-3.59l-13.01-2.36c-0.95-0.21-2.04 0-2.77 0.46z" fill="url(#paint14_linear_227_46592)"/>
  <path d="m74.82 88.06-1.41 0.15c-2.76 0.96-2.96 8.39-2.76 14.3 0.06 2.57 0.06 4.43 2.15 6.25l3.84 3.66 8.67-2.27 1.01-21.43-2.76-1.05-8.74 0.39z" fill="url(#paint15_linear_227_46592)"/>
  <path d="m77.19 92.7c-2.57 0.76-2.78 5.03-2.78 6.71v7.65c0.14 3.16 1.3 5.12 3.2 5.26l13.08-0.89c2.47-0.49 3.23-1.82 3.29-4.37v-11.35c-0.14-2.67-1.44-4-3.87-4.21l-10.6 0.35c-0.79 0-1.58 0.27-2.32 0.85z" fill="url(#paint16_linear_227_46592)"/>
  <path d="m76.82 112.8 20.57-4.2c4.6 0.41 4.87 5.33 4.83 10.39v6.75c-0.1 5.31-2 7.41-4.7 9.16l-5.42 2.7-17.03-2.13c-2-0.72-2.86-2.16-2.96-4.77v-13.1c0.15-2.84 1.51-4.53 4.71-4.8z" fill="url(#paint17_linear_227_46592)"/>
  <path d="m92.06 116.1 6.96-6.99 1.27 0.95c1.24 1.5 1.67 4.07 1.68 6.97l-0.18 10.1c-0.36 4.1-2.58 7.21-7.27 9.1l-3.01 1.12 0.55-21.25z" fill="#D65445"/>
  <path d="m73.88 141.3 17.43 1.99c3.73 0.62 3.9 5.03 3.8 12.79l-0.49 11.35c-0.54 3.34-2.45 4.3-5.21 3.88l-15.53-2.77c-3.5-0.82-4.22-3.9-4.22-7.34l0.1-13.57c0.25-3.66 0.82-5.85 4.12-6.33z" fill="url(#paint18_linear_227_46592)"/>
  <path d="m93.81 144.7 10.9-8.09 1.18 2.23c0.82 2.06 0.23 17.46-0.27 21.31-0.39 3-1.84 4.4-4.28 5.84l-7.98 4.9 0.85-14.28c0-3.51 0.21-8.59-0.4-11.91z" fill="url(#paint19_linear_227_46592)"/>
  <path d="m76.82 137.7 9.95-1.55 16.9 0.49-9.76 8.22-21.5-3.62 4.41-3.54z" fill="#55D0DA"/>
  <path d="m115.8 89.96 6.9-0.17c2.6-0.38 3.42-1.97 3.42-5.04v-11.76c-0.07-2.43-0.96-3.86-3.02-4.28l-45.19 0.14c-2.07 0.2-3.31 1.76-3.44 4.59v13.84c0.06 1.76 0.75 2.55 2.19 2.55h7.17c2-0.14 2.89-2.7 3.24-4.32 1.43-5.4 7.24-7.36 12.55-7.36 6.47 0 12.14 2.13 13.9 8.59 0.66 1.99 1.25 2.88 2.28 3.22z" fill="url(#paint20_linear_227_46592)"/>
  <path d="m77.71 44.29 43.88-0.34c3.53 0.2 4.35 4.52 4.42 6.58v14.58c0 2.56-0.95 3.45-2.78 3.52l-6.06 0.08c-2-0.2-3.03-1.6-3.78-4.1-1.83-5.98-7.07-8.58-13.13-8.51-6.6 0.07-11.54 2.6-13.77 9.35-0.79 2.36-1.74 3.11-3.18 3.26l-6.12-0.08c-1.69-0.2-2.85-1.23-2.85-3.39v-14.1c0.07-3.01 1.3-5.5 3.37-6.85z" fill="url(#paint21_linear_227_46592)"/>
  <path d="m76.99 45.15 4.42-0.58 38.18-0.27 5.25 1.13 0.27 1.82-49.42 0.2 1.3-2.3z" fill="#F99588"/>
  <path d="m88.27 24.31 24.01-0.41c2.83-0.21 2.9 3.88 2.94 8.33 0 4.18-0.4 9.73-1.45 11.29l-10.53 4.2-15.11-1.62c-2.51-0.55-3.1-2.37-3.1-8.9v-7.66c0.07-3.2 0.92-4.82 3.24-5.23z" fill="url(#paint22_linear_227_46592)"/>
  <path d="m103.2 26.31 9.5-2.76 1.17 0.82c1.02 0.96 1.23 3.16 1.23 5.79l-0.14 6.9c-0.27 3.92-0.63 6.18-3.46 7.86l-7.84 3.14 0.62-17.04c0-2.1-0.48-3.66-1.08-4.71z" fill="#D99529"/>
  <path d="m101.3 6c9.94 0.41 16.13 9.19 16.48 16.2 0.13 1.63-0.45 1.77-1.61 1.7h-31.82c-1.69 0-1.69-0.82-1.65-2.45 0.82-8.54 7.85-15.73 18.6-15.45z" fill="url(#paint23_linear_227_46592)"/>
  <path d="m50.39 113-0.07 18.65c0 2.7 5.41 3.15 9.07 3.01 4.02-0.14 10.62-1 10.82-3.53l0.07-17.92c-0.2-2.43-1.77-2.84-3.47-2.77l-13.4 0.21c-1.9 0.21-2.95 0.9-3.02 2.35z" fill="url(#paint24_linear_227_46592)"/>
  <path d="m47.48 75.14 0.07 35.21c-0.14 3.07 6.26 3.69 9.49 3.62 3.66-0.14 10.13-0.66 10.19-3.36l0.07-35.47h-19.82z" fill="url(#paint25_linear_227_46592)"/>
  <path d="m47.55 75.9 9.22 0.62 8.18-0.7 2.36-0.68-0.69 0.96c-1.56 1.23-6.41 1.44-8.48 1.36-2.7-0.13-7.99-0.4-10.59-1.56z" fill="#D65445"/>
  <path d="m17.88 75.1c0-2.19 5.35-3.01 9.98-3.08 5.75-0.14 10.1 1.03 10.31 2.79l-0.35 18.81c-0.34 2.3-6.33 2.99-9.56 2.92-4.41-0.07-10.09-0.69-10.54-2.92l0.16-18.52z" fill="url(#paint26_linear_227_46592)"/>
  <path d="m12.97 94.63c1.12-1.72 1.84-1.86 3.53-2l22.49 3.29c3.36 0.55 4.08 3.25 3.94 8.23v10.44c-0.07 3.14-1.37 5.1-4.9 6.06l-11.6 2.36c-3.4 0.72-5.16-0.97-7.29-2.5l-5.58-2.9c-2.04-1.23-2.93-2.46-3.13-7.4-0.27-6.89-0.41-12.35 2.54-15.58z" fill="url(#paint27_linear_227_46592)"/>
  <path d="m22.48 99.62c-1.66 1.56-1.97 5.58-1.87 9.99 0.07 4.64 0.07 8.99 1.44 12.85l1.02 0.48 15.1-2.83c2.98-0.69 4.61-2.05 4.68-5.65v-12.23c-0.14-3.4-1.44-5.7-4.2-5.7l-12.67 1.23c-1.44 0.21-2.67 0.8-3.5 1.86z" fill="url(#paint28_linear_227_46592)"/>
  <path d="m44.57 47.11 0.79-0.07 25.75 25.95c1.24 1.37 0.9 2.53-0.73 2.53l-24.33 0.14c-1.62 0-2.17-0.73-2.17-2.45l-0.35-24.48c0-0.89 0.29-1.54 1.04-1.62z" fill="url(#paint29_linear_227_46592)"/>
  <path d="m47.07 177.3 10.66-19.65 0.72-0.79 0.96 0.28 8.53 15.03c0.59 1.13 0.38 2.22-0.4 3.58l-2.2 3.55c-0.54 0.68-1.33 0.55-2.22 0.48l-14.73-0.75c-1.44-0.21-1.86-0.62-1.32-1.73z" fill="url(#paint30_linear_227_46592)"/>
  <path d="m56.62 160.1 1.9-3.57 9.24 16.08c0.49 0.89 0.35 1.78-0.37 3.01l-2.13 3.2-8.64-18.72z" fill="#D64A45"/>
  <defs>
    <linearGradient id="paint0_linear_227_46592" x1="3.017" x2="47.39" y1="164.9" y2="164.9" gradientUnits="userSpaceOnUse">
      <stop stop-color="#169690" offset="0"/>
      <stop stop-color="#16B7BF" offset="1"/>
    </linearGradient>
    <linearGradient id="paint1_linear_227_46592" x1="10.14" x2="47.27" y1="164.6" y2="164.6" gradientUnits="userSpaceOnUse">
      <stop stop-color="#0DB5C3" offset="0"/>
      <stop stop-color="#10B8C3" offset="1"/>
    </linearGradient>
    <linearGradient id="paint2_linear_227_46592" x1="7.108" x2="38.09" y1="139.3" y2="139.3" gradientUnits="userSpaceOnUse">
      <stop stop-color="#D65445" offset="0"/>
      <stop stop-color="#D14135" offset="1"/>
    </linearGradient>
    <linearGradient id="paint3_linear_227_46592" x1="103.3" x2="135.3" y1="143.7" y2="143.7" gradientUnits="userSpaceOnUse">
      <stop stop-color="#169690" offset="0"/>
      <stop stop-color="#16B7BF" offset="1"/>
    </linearGradient>
    <linearGradient id="paint4_linear_227_46592" x1="116.5" x2="151.5" y1="177" y2="177" gradientUnits="userSpaceOnUse">
      <stop stop-color="#169690" offset="0"/>
      <stop stop-color="#16B7BF" offset="1"/>
    </linearGradient>
    <linearGradient id="paint5_linear_227_46592" x1="127.1" x2="151.4" y1="179.2" y2="179.2" gradientUnits="userSpaceOnUse">
      <stop stop-color="#16B7B3" offset="0"/>
      <stop stop-color="#16B9B5" offset="1"/>
    </linearGradient>
    <linearGradient id="paint6_linear_227_46592" x1="152" x2="197.8" y1="161.6" y2="161.6" gradientUnits="userSpaceOnUse">
      <stop stop-color="#F76D5E" offset="0"/>
      <stop stop-color="#F96F5C" offset="1"/>
    </linearGradient>
    <linearGradient id="paint7_linear_227_46592" x1="165.3" x2="185.3" y1="133.4" y2="133.4" gradientUnits="userSpaceOnUse">
      <stop stop-color="#00AFBD" offset="0"/>
      <stop stop-color="#16B7C0" offset="1"/>
    </linearGradient>
    <linearGradient id="paint8_linear_227_46592" x1="135.9" x2="182.1" y1="105.4" y2="105.4" gradientUnits="userSpaceOnUse">
      <stop stop-color="#F86D5E" offset="0"/>
      <stop stop-color="#F99588" offset="1"/>
    </linearGradient>
    <linearGradient id="paint9_linear_227_46592" x1="134.3" x2="151.1" y1="138" y2="138" gradientUnits="userSpaceOnUse">
      <stop stop-color="#F8B741" offset="0"/>
      <stop stop-color="#F0B443" offset="1"/>
    </linearGradient>
    <linearGradient id="paint10_linear_227_46592" x1="127.1" x2="171.2" y1="87.56" y2="87.56" gradientUnits="userSpaceOnUse">
      <stop stop-color="#FBD766" offset="0"/>
      <stop stop-color="#F8B741" offset="1"/>
    </linearGradient>
    <linearGradient id="paint11_linear_227_46592" x1="127.1" x2="165.2" y1="90.29" y2="90.29" gradientUnits="userSpaceOnUse">
      <stop stop-color="#F8B741" offset="0"/>
      <stop stop-color="#F8C14C" offset="1"/>
    </linearGradient>
    <linearGradient id="paint12_linear_227_46592" x1="149.1" x2="169.1" y1="71.9" y2="71.9" gradientUnits="userSpaceOnUse">
      <stop stop-color="#00AFBD" offset="0"/>
      <stop stop-color="#24B9B0" offset="1"/>
    </linearGradient>
    <linearGradient id="paint13_linear_227_46592" x1="142.3" x2="174" y1="49.56" y2="49.56" gradientUnits="userSpaceOnUse">
      <stop stop-color="#F8C14C" offset="0"/>
      <stop stop-color="#F8B741" offset="1"/>
    </linearGradient>
    <linearGradient id="paint14_linear_227_46592" x1="108.9" x2="129.4" y1="111.2" y2="111.2" gradientUnits="userSpaceOnUse">
      <stop stop-color="#F05851" offset="0"/>
      <stop stop-color="#F76D5E" offset="1"/>
    </linearGradient>
    <linearGradient id="paint15_linear_227_46592" x1="70.54" x2="86.32" y1="100" y2="100" gradientUnits="userSpaceOnUse">
      <stop stop-color="#169690" offset="0"/>
      <stop stop-color="#16B7BF" offset="1"/>
    </linearGradient>
    <linearGradient id="paint16_linear_227_46592" x1="74.38" x2="93.98" y1="102" y2="102" gradientUnits="userSpaceOnUse">
      <stop stop-color="#0DB5C3" offset="0"/>
      <stop stop-color="#10B8C3" offset="1"/>
    </linearGradient>
    <linearGradient id="paint17_linear_227_46592" x1="72.11" x2="102.2" y1="123.1" y2="123.1" gradientUnits="userSpaceOnUse">
      <stop stop-color="#F76D5E" offset="0"/>
      <stop stop-color="#D64A45" offset="1"/>
    </linearGradient>
    <linearGradient id="paint18_linear_227_46592" x1="69.66" x2="95.2" y1="156.4" y2="156.4" gradientUnits="userSpaceOnUse">
      <stop stop-color="#0DB5C3" offset="0"/>
      <stop stop-color="#0DB5C3" offset="1"/>
    </linearGradient>
    <linearGradient id="paint19_linear_227_46592" x1="93.7" x2="106.1" y1="153.6" y2="153.6" gradientUnits="userSpaceOnUse">
      <stop stop-color="#169690" offset="0"/>
      <stop stop-color="#16B7BF" offset="1"/>
    </linearGradient>
    <linearGradient id="paint20_linear_227_46592" x1="74.48" x2="126.1" y1="78.96" y2="78.96" gradientUnits="userSpaceOnUse">
      <stop stop-color="#16B7B3" offset="0"/>
      <stop stop-color="#24B9B0" offset="1"/>
    </linearGradient>
    <linearGradient id="paint21_linear_227_46592" x1="74.34" x2="126" y1="56.35" y2="56.35" gradientUnits="userSpaceOnUse">
      <stop stop-color="#F05851" offset="0"/>
      <stop stop-color="#F76D5E" offset="1"/>
    </linearGradient>
    <linearGradient id="paint22_linear_227_46592" x1="85.03" x2="115.2" y1="35.86" y2="35.86" gradientUnits="userSpaceOnUse">
      <stop stop-color="#F8C14C" offset="0"/>
      <stop stop-color="#F8B741" offset="1"/>
    </linearGradient>
    <linearGradient id="paint23_linear_227_46592" x1="82.62" x2="117.8" y1="14.93" y2="14.93" gradientUnits="userSpaceOnUse">
      <stop stop-color="#16B7B3" offset="0"/>
      <stop stop-color="#24B9B0" offset="1"/>
    </linearGradient>
    <linearGradient id="paint24_linear_227_46592" x1="50.32" x2="70.28" y1="122.5" y2="122.5" gradientUnits="userSpaceOnUse">
      <stop stop-color="#00AFBD" offset="0"/>
      <stop stop-color="#24B9B0" offset="1"/>
    </linearGradient>
    <linearGradient id="paint25_linear_227_46592" x1="47.48" x2="67.3" y1="94.55" y2="94.55" gradientUnits="userSpaceOnUse">
      <stop stop-color="#F05851" offset="0"/>
      <stop stop-color="#F76D5E" offset="1"/>
    </linearGradient>
    <linearGradient id="paint26_linear_227_46592" x1="17.72" x2="38.17" y1="84.3" y2="84.3" gradientUnits="userSpaceOnUse">
      <stop stop-color="#F8B741" offset="0"/>
      <stop stop-color="#F8C14C" offset="1"/>
    </linearGradient>
    <linearGradient id="paint27_linear_227_46592" x1="10.3" x2="42.96" y1="107.8" y2="107.8" gradientUnits="userSpaceOnUse">
      <stop stop-color="#169690" offset="0"/>
      <stop stop-color="#16B7BF" offset="1"/>
    </linearGradient>
    <linearGradient id="paint28_linear_227_46592" x1="20.52" x2="42.9" y1="109.8" y2="109.8" gradientUnits="userSpaceOnUse">
      <stop stop-color="#16B7B3" offset="0"/>
      <stop stop-color="#16B9B5" offset="1"/>
    </linearGradient>
    <linearGradient id="paint29_linear_227_46592" x1="43.53" x2="71.53" y1="61.35" y2="61.35" gradientUnits="userSpaceOnUse">
      <stop stop-color="#00AFBD" offset="0"/>
      <stop stop-color="#10B8C3" offset="1"/>
    </linearGradient>
    <linearGradient id="paint30_linear_227_46592" x1="46.81" x2="68.32" y1="168.3" y2="168.3" gradientUnits="userSpaceOnUse">
      <stop stop-color="#F76D5E" offset="0"/>
      <stop stop-color="#F96F5C" offset="1"/>
    </linearGradient>
  </defs>
</svg>