<svg xmlns="http://www.w3.org/2000/svg" width="200" height="200" fill="none" viewBox="0 0 200 200">
<!-- SVG created with Arrow, by QuiverAI (https://quiver.ai) -->
  <path d="m185.9 36.14c-7.64-3.8-21.93-10.25-26.22-11.08-1.72-0.34-3.69 0.36-7.61 1.12-3.92 0.75-5.59 1.02-6.34 4.14l-2.07-0.32-23.26 3.61-5.76-3.24c-3.3-2.89-5.91-3.79-11.72-3.61-8.12 0.26-14.88 6.43-16.9 15.2l-0.29 4.87-8.65-2.4c-3.49-6.25-8.51-9.44-16.68-9.39-7.8 0.06-15.14 6.52-17.37 14.12l-0.7 4.75-19.96-0.8c-4.05-2.94-5.64-3.8-7.97-3.36-2.09 0.42-7.08 1.16-7.76 1.24-2.54 0.29-3.63 5.12-3.63 9.88l1.61 78.13c0 4.83 3.11 10.73 5.55 10.73 1.1 0 2.54-0.25 3.92-0.58 3.35-0.04 6.12-1.17 6.56-5.02l0.43-15.62h3.88c1.89 4.18 2.87 9.67 2.87 15.7v14.59c0 9.48 3.37 15.69 7.22 15.98l1.78-0.15c1.82-0.16 2.45-0.56 4.71-0.95 4.84-0.82 6.04-3.43 6.04-8.92v-6.78l127.4-38.24c0.14 8.28 3.08 16.02 8.2 16.55h1.07c1.13-0.2 2.49-0.53 4.13-1.07 4.82-0.17 7.27-2.51 7.87-7.98l0.72-63.04c0-12.47-2.94-24.55-11.11-28.06zm-28.83 59.9c0.25-5.78 1.66-12.43 6.31-11.72 6.63 1.04 10.47 10.12 10.47 19.31v3.61l-16.92-2.04 0.14-9.16z" fill="#000" opacity=".2"/>
  <path d="m150.6 25.33 7.01-1.55c2.4-0.62 6 1.17 13.23 3.99 5.25 2.13 11.96 5.24 15.05 6.93 7.82 4.16 10.55 13.89 10.55 28.41l-1.35 64.16c-0.45 5.05-2.41 6.4-7.6 6.67l-4.28 0.25 2.85-72.03c0.17-8.08-1.38-17.47-9.31-21.5l-30.54-12.7c0.9-1.8 2.06-2.35 4.39-2.63z" fill="url(#paint0_linear_834_20024)"/>
  <path d="m144 66.15 0.18 25.27 12.15 2.56 1.41-6.84c1.36-4.3 4.97-5.06 8.4-2.54 5.86 4.19 8.09 12.21 8.04 18.38l9.07 2.94 0.06 6.47c-0.16 3.1-1.86 4.72-5.97 6.05l-2.31 0.53c-0.28 6.71 2.56 14.94 8.2 15.22 4.04 0.2 4.7-3.47 4.7-10.01l0.2-61.74c0-11.53-2.22-19.25-10.49-23.66l-20.87-11.34c-3.77-1.86-9.38-3.38-10.54 0.52l-2.23 2.95v35.24z" fill="url(#paint1_linear_834_20024)"/>
  <path d="m47.57 157.1 131.6-38.97c2.95-0.95 4.38-2.8 4.24-7.04-0.17-4.6-1.21-7.01-7.36-8.31l-2.22 0.43-13.06 2.13-113.3 32.1 0.11 19.66z" fill="url(#paint2_linear_834_20024)"/>
  <path d="m47.46 145.6 129.4-35.98c3.81-1.21 7.09-1.7 6.24-3.67-1.28-3.11-5.94-3.91-8.28-3.29l-14.09 2.7-113.4 33.44 0.11 6.8z" fill="#F1D2A6"/>
  <path d="m7.43 50.11 7.76-1.34c2.65-0.63 4.57 0.61 10.86 5.1l10.87 7.78c7.24 5.18 11.39 14.49 11.39 31.19l-0.49 72.44c-0.11 5.38-2.84 7.15-8.41 7.44l-3.05-0.19 2.54-78.79c0-10.87-3.69-23.83-10.98-28.63l-20.49-15z" fill="url(#paint3_linear_834_20024)"/>
  <path d="m46.32 76.73 131.7-25.91c4.7-1.04 4.96-2.91 4.67-4.59l-1.2-0.09-33.04-15.06-3.57 0.14-123.6 21.45 15.61 10.03c5.1 3.51 7.91 7.41 9.45 14.03z" fill="url(#paint4_linear_834_20024)"/>
  <path d="m46.72 77.78 131.1-18.65c4.36-0.94 5.58-2.81 5.3-7.32l-0.39-3.59c0.11 1.54-1.7 1.89-4.79 2.51l-130.8 24.88c0.7 1.07 0.14 0.68-0.4 2.17z" fill="url(#paint5_linear_834_20024)"/>
  <path d="m40.27 59.31c-0.24 3.83 7.12 6.7 16.45 6.7h2.09c9.61 0 18.98-2.81 18.98-7.05 0-3.51-7.12-6.2-16.93-6.2h-2.09c-9.57 0-18.26 2.76-18.5 6.55z" fill="url(#paint6_linear_834_20024)"/>
  <path d="m41.48 51.19c0-10.1 7.93-18.06 17.18-18.06h1.07c10.41 0 17.2 8.47 17.2 17.98 0 9.14-6.51 14.9-16.15 14.9h-4.66c-8.4 0-14.64-5.4-14.64-14.82z" fill="url(#paint7_linear_834_20024)"/>
  <path d="m85.22 49.94c0 4.13 6.83 6.97 15.79 6.97h1.89c9.96 0 17.66-3.46 17.52-7.34-0.15-4.12-8.23-6.46-17.52-6.46h-1.89c-9.35 0-15.79 2.95-15.79 6.83z" fill="url(#paint8_linear_834_20024)"/>
  <path d="m85.84 43.11c0-9.87 7.74-17.61 16.73-17.41 9.84 0.22 16.58 7.3 16.58 17.17 0 9.29-7.58 14.29-16.54 14.01h-3.78c-8.03-0.27-12.99-5.1-12.99-13.77z" fill="url(#paint9_linear_834_20024)"/>
  <path d="m128 43.93c0 3.28 6.23 5.49 13.48 5.49h1.54c7.93 0 14.15-2.81 14.02-5.91-0.15-3.28-6.67-5.04-14.02-5.04h-1.54c-7.58 0-13.48 2.21-13.48 5.46z" fill="url(#paint10_linear_834_20024)"/>
  <path d="m131 37.12c1.77-6.32 6.96-9.29 11.22-9.29h0.82c6.82 0 10.92 5.98 10.92 11.43 0 6.15-4.46 10.01-11.22 9.72h-2.54c-6.24-0.27-11.16-4.7-9.2-11.86z" fill="url(#paint11_linear_834_20024)"/>
  <path d="m4.3 59.36v78.06c0 4.83 3.11 10.73 5.55 10.73 2.37 0 3.67-2.04 3.79-9.04l0.11-11.81c0.17-6.08 1.56-9.11 4.98-8.83 5.19 0.44 9.46 10.52 9.46 21.09v17.66c0 9.49 3.37 15.7 7.22 15.98 2.94 0.23 3.5-4.57 3.41-10.6l0.43-68.74c0-11.53-3.76-25.25-11.58-29.74l-19.48-14.01c-3.43-0.77-3.89 4.08-3.89 9.25z" fill="#FBC649"/>
  <path d="m145.9 84.66h2.01c2.54 0 4.03 1.97 3.7 3.64l-0.28 1.62-5.43-3.51v-1.75z" fill="#E7C58E"/>
  <path d="m103.3 88.58 0.14 2.61c-0.03 1.25 0.6 1.92 2.14 3.39l18.36 14.77 5.33-0.97 1.51-2.31-4.41-15.94-7.43-5.05c-3.3-1.87-11.06-0.2-13.36 1.26-1.54 0.97-2.23 0.97-2.28 2.24z" fill="url(#paint12_linear_834_20024)"/>
  <path d="m103.4 89.75v1.15c0 1.54 0.56 2 1.66 3.04l27.67 24.92c3.69 3.56 12.16 1.34 16.53-0.4 2.18-0.87 3.15-2.27 2.88-4.94l-32.15-27.51c-3.18-3.2-11.55-1.72-14.73 0.48-1.54 0.98-1.86 1.67-1.86 3.26z" fill="url(#paint13_linear_834_20024)"/>
  <path d="m82.76 93.78v1.74c0 1.25 0.39 1.89 1.52 3.04l25.83 26.75c3.4 3.8 11.11 2.78 15.11 1.16l3.09-1.65-2.48-5.11-26.29-28.24c-3.56-3.76-11.14-2.19-14.41-0.54-1.86 0.9-2.37 1.68-2.37 2.85z" fill="url(#paint14_linear_834_20024)"/>
  <path d="m82.77 94.91v1.15c0 1.55 0.39 2.06 1.52 3.21l26.93 25.89c3.69 3.56 8.88 3.02 13.56 1.56l2.84-1.24-27.25-28.85c-3.4-4.02-6.7-5.82-11.16-4.78-3.6 0.87-6.44 1.49-6.44 3.06z" fill="url(#paint15_linear_834_20024)"/>
  <path d="m58.97 99 0.06 1.99c0 1.27 0.59 2.02 1.85 3.37l26.19 27.34c3.96 4.31 11.54 3.93 17.44 1.21 2.94-1.44 3.5-3.19 3.07-5.5l-30.39-32.31c-2.84-2.83-12.26-1.19-15.7 0.7-1.77 0.97-2.52 1.63-2.52 3.2z" fill="url(#paint16_linear_834_20024)"/>
  <path d="m59.03 99.61v0.62c0 1.25 0.63 2.03 1.76 3.37l5.93 6.34 17.15 20.97c3.14 3.88 0.34 7.8-7.75 11.19-4.14 1.28-8.91 0.51-10.96-2.05l-16.92-19.64v-21.65l1.54-0.14c3.05-0.29 5.53 0.28 9.25 0.99z" fill="url(#paint17_linear_834_20024)"/>
  <path d="m48.31 102.8h0.78c1.7 0 2.14 1.07 2.07 2.22-0.17 1.14-1.24 1.8-2.85 1.8v-4.02z" fill="#E7C58E"/>
  <path d="m67.16 99.04c0-1.58 1.45-2.21 3.24-2.21h0.82c2.09 0 3.28 0.9 3.28 2.21 0 1.48-1.44 2.1-3.28 2.1h-0.82c-1.89 0-3.24-0.91-3.24-2.1z" fill="url(#paint18_linear_834_20024)"/>
  <path d="m69.6 132.8c0-1.85 1.55-2.38 3.39-2.38h0.83c2.09 0 3.28 0.97 3.28 2.38 0 1.62-1.44 2.18-3.28 2.24h-0.83c-1.98 0.06-3.39-0.89-3.39-2.24z" fill="url(#paint19_linear_834_20024)"/>
  <path d="m92.36 125.2c0-1.7 1.45-2.44 3.28-2.44h0.83c2.09 0 3.06 0.9 3.06 2.24 0 1.55-1.3 2.37-3.06 2.37h-0.83c-1.93 0-3.28-0.97-3.28-2.17z" fill="url(#paint20_linear_834_20024)"/>
  <path d="m111.4 89.01c0-1.4 1.2-1.96 2.81-1.96h0.62c1.77 0 2.67 0.87 2.67 1.91 0 1.3-1.16 1.86-2.67 1.86h-0.62c-1.64 0-2.81-0.87-2.81-1.81z" fill="url(#paint21_linear_834_20024)"/>
  <path d="m89.63 93.93c0-1.4 1.19-1.95 2.8-1.95h0.56c1.77 0 2.67 0.86 2.67 1.9 0 1.3-1.13 1.93-2.67 1.93h-0.56c-1.64 0-2.8-0.94-2.8-1.88z" fill="url(#paint22_linear_834_20024)"/>
  <path d="m115.5 117.9 3.57-0.63 0.81 1.49-1.03 1.14h-1.48c-1.55-0.17-2.17-1.21-1.87-2z" fill="#F8D27B"/>
  <path d="m124.9 107.1c0 6.92-4.46 10.2-9.89 10.2s-9.59-4.65-9.59-9.74c0-6.47 5.19-10.54 10.11-10.4 5.57 0.17 9.37 4.49 9.37 9.94z" fill="url(#paint23_linear_834_20024)"/>
  <path d="m137.3 111.1c0-1.46 1.34-2.05 3.04-2.05h0.82c1.98 0 3.09 0.94 3.09 2.05 0 1.47-1.34 2.09-3.09 2.09h-0.82c-1.77 0-3.04-0.94-3.04-2.09z" fill="url(#paint24_linear_834_20024)"/>
  <path d="m125 84.8 0.14-1.39c0.06-1.25 1.3-1.92 3.56-2.68 3.7-1.15 8.33-1.54 10.59 0l31.86 23.13c1.84 1.39 1.92 2.66 1.49 4.94-0.4 1.65-4.45 3.62-10.02 3.91-3.69 0.19-4.98-0.44-7.63-2.78l-27.91-22.71c-1.54-1.15-2.16-1.15-2.08-2.42z" fill="url(#paint25_linear_834_20024)"/>
  <path d="m125.1 83.83 0.14-0.97c0.23-1.25 1.52-1.91 3.69-2.62 3.02-1.04 6.96-0.63 9.18 0.52l32.63 23.71c1.89 1.24 2.16 2.71 1.73 3.95-0.76 1.97-6.33 3.01-11.28 2.26-2.33-0.39-3.56-1.27-5.65-3.07l-28.34-21.15c-1.45-1.15-2.35-1.38-2.1-2.63z" fill="url(#paint26_linear_834_20024)"/>
  <path d="m131.7 84.25c0-1.34 1.07-1.72 2.61-1.72h0.83c1.71 0 2.5 0.75 2.5 1.72 0 1.25-1.07 1.81-2.5 1.81h-0.83c-1.61 0-2.61-0.77-2.61-1.81z" fill="url(#paint27_linear_834_20024)"/>
  <path d="m158.8 104.9c0-1.35 1.17-1.86 2.81-1.86h0.83c1.76 0 2.66 0.87 2.66 1.84 0 1.3-1.2 1.92-2.66 1.92h-0.83c-1.71 0-2.81-0.94-2.81-1.9z" fill="url(#paint28_linear_834_20024)"/>
  <path d="m119.6 110.7c-2.09 1.85-1.47 4.6 0.49 6.53l45.6 45.28c2.84 2.63 6.3 1.69 7.97-0.44 2.13-2.81 0.83-6.44-1.26-8.24l-15.25-13.65c-2.65-2.13-5.23-1.77-6.93-0.37l-25.06-28.38c-1.37-1.4-3.96-2.22-5.56-0.73z" fill="url(#paint29_linear_834_20024)"/>
  <defs>
    <linearGradient id="paint0_linear_834_20024" x1="171.6" x2="171.6" y1="23.51" y2="134.2" gradientUnits="userSpaceOnUse">
      <stop stop-color="#E7B451" offset="0"/>
      <stop stop-color="#d90" offset="1"/>
    </linearGradient>
    <linearGradient id="paint1_linear_834_20024" x1="166" x2="166" y1="26.99" y2="134.2" gradientUnits="userSpaceOnUse">
      <stop stop-color="#d90" offset="0"/>
      <stop stop-color="#E49B00" offset="1"/>
    </linearGradient>
    <linearGradient id="paint2_linear_834_20024" x1="115.4" x2="115.4" y1="102.5" y2="157.1" gradientUnits="userSpaceOnUse">
      <stop stop-color="#F5D3A7" offset="0"/>
      <stop stop-color="#D19D60" offset="1"/>
    </linearGradient>
    <linearGradient id="paint3_linear_834_20024" x1="27.87" x2="27.87" y1="48.48" y2="172.7" gradientUnits="userSpaceOnUse">
      <stop stop-color="#E3B560" offset="0"/>
      <stop stop-color="#FBC649" offset="1"/>
    </linearGradient>
    <linearGradient id="paint4_linear_834_20024" x1="102" x2="102" y1="31.08" y2="76.73" gradientUnits="userSpaceOnUse">
      <stop stop-color="#F0D0A2" offset="0"/>
      <stop stop-color="#D5B07F" offset="1"/>
    </linearGradient>
    <linearGradient id="paint5_linear_834_20024" x1="114.9" x2="114.9" y1="48.22" y2="85.33" gradientUnits="userSpaceOnUse">
      <stop stop-color="#B48551" offset="0"/>
      <stop stop-color="#D4AB79" offset="1"/>
    </linearGradient>
    <linearGradient id="paint6_linear_834_20024" x1="58.92" x2="58.92" y1="52.76" y2="66.01" gradientUnits="userSpaceOnUse">
      <stop stop-color="#9B5923" offset="0"/>
      <stop stop-color="#8A5323" offset="1"/>
    </linearGradient>
    <linearGradient id="paint7_linear_834_20024" x1="59.19" x2="59.19" y1="33.13" y2="66.01" gradientUnits="userSpaceOnUse">
      <stop stop-color="#00CAC8" offset="0"/>
      <stop stop-color="#00AC9E" offset="1"/>
    </linearGradient>
    <linearGradient id="paint8_linear_834_20024" x1="102.8" x2="102.8" y1="43.11" y2="56.91" gradientUnits="userSpaceOnUse">
      <stop stop-color="#9B5923" offset="0"/>
      <stop stop-color="#8A5323" offset="1"/>
    </linearGradient>
    <linearGradient id="paint9_linear_834_20024" x1="102.5" x2="102.5" y1="25.69" y2="56.9" gradientUnits="userSpaceOnUse">
      <stop stop-color="#FE795F" offset="0"/>
      <stop stop-color="#F05A49" offset="1"/>
    </linearGradient>
    <linearGradient id="paint10_linear_834_20024" x1="142.6" x2="142.6" y1="38.47" y2="49.42" gradientUnits="userSpaceOnUse">
      <stop stop-color="#9B5923" offset="0"/>
      <stop stop-color="#8A5323" offset="1"/>
    </linearGradient>
    <linearGradient id="paint11_linear_834_20024" x1="142.5" x2="142.5" y1="27.83" y2="49.01" gradientUnits="userSpaceOnUse">
      <stop stop-color="#F8BC48" offset="0"/>
      <stop stop-color="#E29F26" offset="1"/>
    </linearGradient>
    <linearGradient id="paint12_linear_834_20024" x1="117.1" x2="117.1" y1="84.3" y2="109.3" gradientUnits="userSpaceOnUse">
      <stop stop-color="#71935D" offset="0"/>
      <stop stop-color="#7BA562" offset="1"/>
    </linearGradient>
    <linearGradient id="paint13_linear_834_20024" x1="127.8" x2="127.8" y1="84.51" y2="120.6" gradientUnits="userSpaceOnUse">
      <stop stop-color="#D2D780" offset="0"/>
      <stop stop-color="#81B26B" offset="1"/>
    </linearGradient>
    <linearGradient id="paint14_linear_834_20024" x1="105.5" x2="105.5" y1="89.36" y2="128.2" gradientUnits="userSpaceOnUse">
      <stop stop-color="#919353" offset="0"/>
      <stop stop-color="#B0913F" offset="1"/>
    </linearGradient>
    <linearGradient id="paint15_linear_834_20024" x1="105.2" x2="105.2" y1="90.8" y2="127.9" gradientUnits="userSpaceOnUse">
      <stop stop-color="#FCC944" offset="0"/>
      <stop stop-color="#E3B040" offset="1"/>
    </linearGradient>
    <linearGradient id="paint16_linear_834_20024" x1="83.34" x2="83.34" y1="93.62" y2="134.8" gradientUnits="userSpaceOnUse">
      <stop stop-color="#CC5347" offset="0"/>
      <stop stop-color="#CF5147" offset="1"/>
    </linearGradient>
    <linearGradient id="paint17_linear_834_20024" x1="67.93" x2="67.93" y1="98.55" y2="142.7" gradientUnits="userSpaceOnUse">
      <stop stop-color="#00D2CA" offset="0"/>
      <stop stop-color="#009688" offset="1"/>
    </linearGradient>
    <linearGradient id="paint18_linear_834_20024" x1="70.83" x2="70.83" y1="96.83" y2="101.1" gradientUnits="userSpaceOnUse">
      <stop stop-color="#F1D6A9" offset="0"/>
      <stop stop-color="#D6B585" offset="1"/>
    </linearGradient>
    <linearGradient id="paint19_linear_834_20024" x1="73.35" x2="73.35" y1="130.4" y2="135" gradientUnits="userSpaceOnUse">
      <stop stop-color="#F1D6A9" offset="0"/>
      <stop stop-color="#D6B585" offset="1"/>
    </linearGradient>
    <linearGradient id="paint20_linear_834_20024" x1="95.95" x2="95.95" y1="122.8" y2="127.4" gradientUnits="userSpaceOnUse">
      <stop stop-color="#F1D6A9" offset="0"/>
      <stop stop-color="#D6B585" offset="1"/>
    </linearGradient>
    <linearGradient id="paint21_linear_834_20024" x1="114.5" x2="114.5" y1="87.05" y2="90.82" gradientUnits="userSpaceOnUse">
      <stop stop-color="#F1D6A9" offset="0"/>
      <stop stop-color="#D6B585" offset="1"/>
    </linearGradient>
    <linearGradient id="paint22_linear_834_20024" x1="92.64" x2="92.64" y1="91.98" y2="95.81" gradientUnits="userSpaceOnUse">
      <stop stop-color="#F1D6A9" offset="0"/>
      <stop stop-color="#D6B585" offset="1"/>
    </linearGradient>
    <linearGradient id="paint23_linear_834_20024" x1="115.2" x2="115.2" y1="97.11" y2="117.3" gradientUnits="userSpaceOnUse">
      <stop stop-color="#E7B35E" offset="0"/>
      <stop stop-color="#D39945" offset="1"/>
    </linearGradient>
    <linearGradient id="paint24_linear_834_20024" x1="140.7" x2="140.7" y1="109.1" y2="113.2" gradientUnits="userSpaceOnUse">
      <stop stop-color="#F1D6A9" offset="0"/>
      <stop stop-color="#D6B585" offset="1"/>
    </linearGradient>
    <linearGradient id="paint25_linear_834_20024" x1="148.8" x2="148.8" y1="79.84" y2="112.8" gradientUnits="userSpaceOnUse">
      <stop stop-color="#FFA740" offset="0"/>
      <stop stop-color="#DD882F" offset="1"/>
    </linearGradient>
    <linearGradient id="paint26_linear_834_20024" x1="148.8" x2="148.8" y1="79.74" y2="111" gradientUnits="userSpaceOnUse">
      <stop stop-color="#FE9D3A" offset="0"/>
      <stop stop-color="#E5882F" offset="1"/>
    </linearGradient>
    <linearGradient id="paint27_linear_834_20024" x1="134.7" x2="134.7" y1="82.53" y2="86.06" gradientUnits="userSpaceOnUse">
      <stop stop-color="#F1D6A9" offset="0"/>
      <stop stop-color="#D6B585" offset="1"/>
    </linearGradient>
    <linearGradient id="paint28_linear_834_20024" x1="162" x2="162" y1="103" y2="106.8" gradientUnits="userSpaceOnUse">
      <stop stop-color="#F1D6A9" offset="0"/>
      <stop stop-color="#D6B585" offset="1"/>
    </linearGradient>
    <linearGradient id="paint29_linear_834_20024" x1="146.7" x2="146.7" y1="110" y2="163.9" gradientUnits="userSpaceOnUse">
      <stop stop-color="#F5D7A8" offset="0"/>
      <stop stop-color="#EDBB81" offset="1"/>
    </linearGradient>
  </defs>
</svg>