<svg xmlns="http://www.w3.org/2000/svg" width="200" height="200" viewBox="0 0 200 200">
<!-- SVG created with Arrow, by QuiverAI (https://quiver.ai) -->
  <path d="m20.29 31.39 0.73 5.61c0.24 1.92 1.83 2.29 1.83 2.29l6.87 29.08c1.08 4.66 6.29 4.79 10.95 4.12 3.21-0.48 3.35-3.58 3.35-3.58l10.59 1c3.04 0.31 2.31-4.86 2.31-4.86l-0.88-31.53c1.71-2.2 0.77-4.23 0.77-4.23l-1.49-3.67c-1.44-2.53-7.04-2.27-7.04-2.27-7.11 0.12-15.27 1.32-15.27 1.32-8.76 1.82-11.77 5.34-12.72 6.72z" fill="#F38296" opacity=".5"/>
  <path d="m68.31 28.51-0.28 4.04c0 2.16 1.95 2.66 1.95 2.66l0.72 29.41c0.17 3.61 4.78 4.35 4.78 4.35l11.36 1.59c6.81 0.92 8.99-1.89 9.45-3.63l5.84-30.77c1.68-0.34 1.68-2.02 1.68-2.02l-0.2-5.34c-0.29-2.89-6.36-4.11-6.36-4.11-6.89-1.42-14.27-1.83-17.83-1.52-6.27 0.55-9.31 2.1-9.31 2.1-1.57 0.64-1.8 3.24-1.8 3.24z" fill="#52B6CC" opacity=".5"/>
  <path d="m112.4 41.05-0.44 5.93c-0.15 2.23 2.91 2.75 2.91 2.75l-0.54 2.63 2.54 28.75c1.45 2.84 7.6 2.98 7.6 2.98l12.31-0.22c9.23-0.71 10.86-5.59 10.94-6.66l0.73-34.23c-0.64-4.26-5.21-5.49-5.21-5.49-6.26-1.61-16.24-0.78-17.28-0.83-6.99-0.31-11.78 2.6-13.56 4.39z" fill="#E8D349" opacity=".5"/>
  <path d="m146.2 49.16-0.61 6.65c-0.2 1.55 1.9 2.28 1.9 2.28l0.29 27.85c0.43 2.87 4.38 3.24 4.38 3.24l16.7 1.76c4.7 0.3 5.71-3.48 5.71-3.48l4.89-25.73 2.57-4.61-0.38-5.96c-3.65-4-11.96-4.9-16.69-5.01-9.74-0.24-15.28 1.38-18.76 3.01z" fill="#3EA888" opacity=".5"/>
  <path d="m6.46 74.86 0.16 2.8c-0.26 2.9 1.8 5.17 1.8 5.17l6.05 28.29c0.8 4.35 8.84 4.56 8.84 4.56 10.38 1.12 12.88-2.52 15.61-3.87s3.04-3.11 3.04-3.11l0.24-28.51 0.89-3.79c0.46-2.72-2.35-5.6-4.38-6.4-2.02-0.8-8.75-2.49-17.57-1.32-10.06 1.3-13.43 4.14-14.68 6.18z" fill="#517DB8" opacity=".5"/>
  <path d="m47.15 70.56 0.12 3.57 1.22 2.27 2.29 29.02c-0.17 3.07 4.38 4.45 9.12 5.17 4.04 0.62 10.93-0.16 13.63-1.31 2.29-0.95 3.66-1.27 3.86-3.66l3.44-30.71c1.55-2.2-0.21-4.8-0.21-4.8-2.84-4.73-8.34-6.48-19.14-6.32-9.57 0.15-13.32 3.34-14.33 6.77z" fill="#F5B244" opacity=".5"/>
  <path d="m85.05 70.7 0.24 4.63 1.43 1.76 2.38 30.42c0.32 3.01 7.39 5.23 11.97 5.79 5.63 0.67 12.29-2.02 13.45-4.19l5.71-32.89 0.4-5.25c-1.56-3-10.49-5.2-14.65-5.31-10.49-0.26-15.07 0.05-19.66 2.9l-1.27 2.14z" fill="#82BC6C" opacity=".5"/>
  <path d="m119.3 88.89-0.24 5.87 1.66 1.84 1.24 30.5c0.33 3.67 7.12 5.09 12.14 5.49 7.62 0.62 13.45-1.55 14.56-3.84l6.29-31.99 0.07-6.95c-0.93-3.6-8.95-4.79-17.88-5.05-10.18-0.31-16.04 1.63-17.84 4.13z" fill="#B85CAA" opacity=".5"/>
  <path d="m156 89.97v6.55l1.28 1.87 1.4 32.22c0.57 3.55 8.64 4.83 10.46 4.85 8.21 0.08 14.26-0.76 16.16-2.74l5.7-31.52 1.8-2.3-0.4-5.91c-2.48-5.12-14.05-5.83-18.98-5.8-8.25 0.05-14.64 0.49-17.42 2.78z" fill="#9D479A" opacity=".5"/>
  <path d="m102.6 145.5 40.16-10.43c4.06-1.29 5.37 1.79 6.06 3.67 0.82 2.39 1.27 6.99-0.8 9.2l-39.78 10.25c-3.77 0.72-6.3-4.17-6.19-7.53 0.05-2.63-0.61-3.73 0.55-5.16z" fill="#56C5D5" opacity=".5"/>
  <path d="m125.8 158 48.08-15.31c3.53-1.54 5.14 0.38 6.56 3.54 1.82 4.23 2.3 10.45-0.79 12.11l-47.51 17.1c-3.32 1.35-7.59-3.7-7.5-6.96 0.08-2.95-1.46-8.39 1.16-10.48z" fill="#F2AD3D" opacity=".5"/>
  <path d="m118.8 166.5c-5.52 1.03-10.29 1.73-9.77 6.26 0.5 3.16 2.89 3.42 4.68 2.95 4.02-1.15 6.41-3.32 9.76-4.74 2.61-1.11 6.32 0.13 6.55-2.72 0.24-2.85-1.45-5.45-3.03-5.45-2.37 0-2.52 2.66-8.19 3.7z" fill="#B85F5F" opacity=".5"/>
  <path d="m186 144.5c4.73-3.07 8.72-4.36 10.76-1.64 2.73 3.7-0.7 5.83-3.02 6.75-5.24 1.94-6.64 0.65-10.66 2.94-1.18-1.46-2.52-4.6-2.8-6.49 1.22 0.13 3.56-0.13 5.72-1.56z" fill="#AB4454" opacity=".5"/>
  <path d="m96.75 150.5c-4.44 0.55-6.64 1.28-6.44 4.52 0.3 2.73 2.62 2.46 4.35 2.17 3.02-0.5 7.5-2.44 9.75-3.69 1.58-0.87 1.41-2.47 0.91-3.42-1.15-2.39-4.21-0.17-8.57 0.42z" fill="#AD4A52" opacity=".5"/>
  <path d="m180.1 145.8-5.02-3.27-1.22 0.2 0.54 1.94 5.7 1.13z" fill="#FAD682" opacity=".5"/>
  <path d="m131.2 161.2 30.47-8.35-20.36 7.75c-2.32 1.08-7.61 3.21-10.11 0.6z" fill="#F7CF76" opacity=".5"/>
  <path d="m130.5 160.1-4.19-2.09 0.1 0.68c2.02 0.65 3.49 2.1 4.09 1.41z" fill="#FDECC4" opacity=".5"/>
  <path d="m117.5 143 20.2-5.13 0.41 1.1-1.61 5.47c-1.42 1.78-8.49 4.24-12.49 4.86-5.06 0.77-9.84-0.39-6.51-6.3z" fill="#99D3DE" opacity=".5"/>
  <path d="m104.1 144.5 2.09 1.41c1.89 2.8 2.3 7.03 0.46 11.14l-1.57-0.45c2.28-3.49 0.78-9.42-1.95-10.99 0.12-0.68 0.52-0.98 0.97-1.11z" fill="#62C6D3" opacity=".5"/>
  <path d="m147.7 138.1 8.1-2.6c2.86-0.92 4.85 0 5.33 1.62 0.72 2.68-1.69 4.03-4.01 4.26l-8.41 1.35-1.01-4.63z" fill="#B45756" opacity=".5"/>
  <path d="m6.15 106.6c-2.17-0.73-3.79 1.18-3.65 3.38 0.26 3.82 7.35 19.99 7.51 21.31 0.23 1.91-2.49 6.72-3.02 7.54-1.84 1.45-3.71 2.94-3.67 7.17 0.05 3.86 3.83 7.26 6.79 7.08 4.7-0.26 6.25-3.22 6.29-7.23 0.04-2.9-4.52-11.89-4.73-12.82 0.44-0.68 4.13-1.66 5.22-2.93 0.77-0.92-7.27-22.34-10.74-23.5z" fill="#AD4A52" opacity=".5"/>
  <path d="m30.37 126.1c-0.19-5.19 2.96-9.06 7.46-8.97 3.53 0.14 5.75 2.58 5.77 6.98 0 3.67-3.85 11.78-3.89 13.03l5.21 2.44c1.33-0.5 1.91-8.44 2.98-13.02 1.05-3.46 3.27-5.62 6.78-5.38 4.37 0.29 5.47 4.55 5.33 7.82-0.34 4.53-5.3 8.2-7.8 7.54l-3.1-1.32-4.82 5.71-6.66-4.1c-0.67-1.1 0.36-3.09-2.47-4.09-3.06-1.1-4.69-3.41-4.79-6.64z" fill="#3396B0" opacity=".5"/>
  <path d="m32.84 124.8c0-3.31 2.09-4.83 3.65-5.03 2.5-0.3 3.43 1.97 3.43 4 0 2.37-1.51 5.9-2.76 5.9-1.91 0-4.32-2.01-4.32-4.87z" fill="#FEFFFE" opacity=".5"/>
  <path d="m47.9 129.1c0-3.13 2.06-4.06 3.85-4.23 2.44-0.24 4.37 1.21 4.29 4.09-0.08 2.2-2.08 4.61-4.13 4.61-2.25 0-4.01-1.55-4.01-4.47z" fill="#FEFFFE" opacity=".5"/>
  <path d="m37.41 137.6-4.57 23.62c-0.07 1.35 2.61 2.4 4.24 1.48l7.53-19.9-2.96-5.71-4.24 0.51z" fill="#539AAD" opacity=".5"/>
  <path d="m11.15 126c1.07 0 1.47 0.72 1.47 1.45 0 1.03-0.71 1.35-1.35 1.29-0.93-0.08-1.39-0.77-1.36-1.39 0.04-0.83 0.54-1.35 1.24-1.35z" fill="#B96271" opacity=".5"/>
  <path d="m36.96 139.3c-1.88 4.63-4.08 16.88-3.95 21.83 0.93-0.21 4.88-16.86 5.55-21.4 0.27-1.49-1.18-1.4-1.6-0.43z" fill="#90B7B6" opacity=".5"/>
  <path d="m40.47 140.8c0.91 0 1.38 0.76 1.38 1.47 0 0.84-0.7 1.61-1.46 1.53s-1.32-0.55-1.3-1.5c0.02-0.82 0.67-1.5 1.38-1.5z" fill="#007689" opacity=".5"/>
  <path d="m6.35 146c-0.14-3.35 2.27-4.55 3.73-4.65 2.13-0.15 3.74 1.81 3.71 3.8-0.07 2.77-1.68 4.71-3.76 4.58-2.14-0.14-3.59-1.63-3.68-3.73z" fill="#FEFFFE" opacity=".5"/>
  <path d="m20.16 139.7c-0.39-4.26 1.95-5.68 4.01-5.92 2.44-0.29 4.38 1.69 4.55 4.13 0.21 2.61-1.61 4.64-3.48 4.77-2.31 0.16-4.83-0.91-5.08-2.98z" fill="#FEFFFE" opacity=".5"/>
  <path d="m7.86 132.1 4.02 0.79 0.63 2.4-3.4-0.45-1.25-2.74z" fill="#CB6574" opacity=".5"/>
  <path d="m20.12 133.4c-1.23-1.1-1.64-4.58-2.89-4.5l-3.33 2.84 3.59 11.04c1.43 3.33 3.67 4.25 6.94 4.3 4.15 0.05 6.68-2.74 6.89-6.97 0.15-3.94-2.4-7.2-5.73-7.43-2.48-0.18-3.83 2.11-5.47 0.72z" fill="#DC6174" opacity=".5"/>
  <path d="m45.57 149 0.14 4.63 1.3 2.53c-0.46 4.63 2.9 6.63 6.75 6.54l2.39-3.04c1.32 1.13 3.21 1.07 3.94 0l1.45-3.7c4.17 0.16 5.67-1.77 6.02-3.74l0.2-4.18-2.17-2.84c-0.38-0.82-1.54-0.82-2.34-1.08-0.59-1.79-3.06-2.65-4.04 0l-1.45 2.1c-5.3-2.45-9.74-1.33-12.19 2.78z" fill="#AA589A" opacity=".5"/>
  <path d="m62.58 162v5.05l2.32 2.39 3.36-0.8 0.65 7.99c0.4 0.83 3.94 0.52 4.5-0.13l1.22-4.8 4.35-0.37 2.19 4.13h2.74c1.18-0.46 1.69-2.41 1.47-4.56l-0.35-7.6c-0.74-4.82-4.02-5.05-5.86-4.89l-7.89 0.4-2.29-1.74-3.33 0.23-1.22 2.16-1.86 2.54z" fill="#64A859" opacity=".5"/>
  <path d="m64.74 135.1 6.7-1.66 1.82-6.23 1.31-0.15 3.65 4.63 8.26-0.23 0.24 2.18-3.47 6.26 2.47 4.01v2.49l-2.09 0.45-4.54-1.03-6.17 3.77-1.11-5.65-6.73-3.54-0.34-5.3z" fill="#DC5260" opacity=".5"/>
  <path d="m97.22 119.8c0.99-2.95 4.76-4.47 8.07-3.06 2.05 0.88 2.82 2.22 3.5 3.77 1.66-1.69 4.29-2.48 6.82-1.26 2.46 1.2 3.07 3.61 2.66 7.09-0.55 4.53-3.16 7.42-7.26 9.02l-8.99 3c-3.67-5.66-6.37-12.58-4.8-18.56z" fill="#914492" opacity=".5"/>
  <path d="m98.44 125.1 3.19-3.92c2.29-2.1 5.12-0.75 5.71 1.23l0.41 1.89c2.7-1.41 5.86-3.12 8.11-0.82 1.42 1.45 0.37 3.72-2.13 5.37l-10.64 5.29-4.65-9.04z" fill="#FEFFFE" opacity=".5"/>
  <path d="m119.7 91.01 0.41 3.96c2.37 2.39 7.92 3.39 10.01 3.55l11.09 0.74 13.12-3.35 0.77-2.29c-0.9-5.5-8.42-6.53-13.17-6.71-9.81-0.41-18.93 0.18-22.23 4.1z" fill="#CB80B6" opacity=".5"/>
  <path d="m157 91.01 0.41 3.96c2.37 2.39 7.92 3.39 10.01 3.55l9.66 1.36 14.62-3.27-0.1-3.3c-2.84-4.4-10.68-5.19-15.43-5.37-9.81-0.41-15.87-0.07-19.17 3.07z" fill="#CB80B6" opacity=".5"/>
  <path d="m121 97.11 15.07 1.79-1.12 4.34-4.45-3.08-6.94-0.64-2.56-2.41z" fill="#DD9CC6" opacity=".5"/>
  <path d="m158 98.41 12.96 2.9-0.91 2.19-5.98-0.15-5.03-2.76-1.04-2.18z" fill="#CB80B6" opacity=".5"/>
  <path d="m123.1 103.6 6.14-1.45 5.36 4.45-0.44 3.39-6.91 0.41-3.75 2.65-1.11-4.48 0.71-4.97z" fill="#E395B8" opacity=".5"/>
  <path d="m122.4 115.1c0.7-3.25 2.92-3.75 5.36-3.62 1.62-3.27 4.64-4.14 7.34-3.83 4.2 0.48 6.3 2.29 8.08 5.13 3.42 0 5.36 1.87 5.22 5.04-0.3 3.93-2.18 6.13-5.14 5.94l-14.76-0.91c-4.19 0-6.99-2.74-6.1-7.75z" fill="#DC526D" opacity=".5"/>
  <path d="m123.5 124.2 4.66 3h4.53l4.62-3v-1.37l-6.22-0.3-7.59 0.3v1.37z" fill="#CF76A6" opacity=".5"/>
  <path d="m159.8 118.7c0.65-3.27 2.84-4.59 5.34-4.23 1.34-2.1 3.84-4.3 7.9-4.3 3.75 0 6.35 2.76 6.94 5.05 4.96 0.31 6.39 2.78 6.25 5.95-0.41 3.57-2.45 5.43-5.54 5.45l-14.61 0.21c-4.31 0.46-7.31-2.28-6.28-8.13z" fill="#CB5A7B" opacity=".5"/>
  <path d="m163.9 128 6.42 0.23 2.32-2.51 0.06 3.43-3.1 3.96-4.09-0.84-2.12-2.07 0.51-2.2z" fill="#CF76A6" opacity=".5"/>
  <path d="m8.35 74.01 0.66 2.3c2.47 1.81 6.31 2.43 9.09 2.2l14.03-1.22 10.2-2.27 0.3-1.59c-4.02-3.02-8.56-3.42-12.12-3.42-7.6 0-16.7 0.61-22.16 4z" fill="#3B63A8" opacity=".5"/>
  <path d="m11.08 81.11 5.87 1.66 3.17 0.97 4.49 1.66-0.89 0.6-7.67 0.41-1.58 3.19-1.85-6.5-1.54-1.99z" fill="#678DBB" opacity=".5"/>
  <path d="m14.31 101c0.5-3.3 2.29-4.34 5.2-4.95 1.42-3.27 3.71-4.3 6.55-4.3 3.95 0 6.04 1.42 7.86 3.45 3.75-0.66 5.94 0.76 6.44 2.96l-0.07 4.23c-0.68 2.72-2.57 3.49-5.48 3.97l-14.77 1.6c-3.53 0-6.32-2.3-5.73-6.96z" fill="#984262" opacity=".5"/>
  <path d="m47.21 73.43 3.95 2.54 6.96 1.69 0.69 1.62-5.25 1.63-2.29 0.92-3.06-5.22-1-3.18z" fill="#F0B036" opacity=".5"/>
  <path d="m52.11 92.84c1.21-1.72 2.96-2.31 5.33-2.13 1.62-3.1 4.01-4.4 7.68-4.2 3.19 0.15 4.99 1.35 6.61 4.36 4.16 0.45 5.72 1.74 5.46 5.04-0.38 4.03-1.93 5.48-4.47 5.81l-16.65 0.19c-3.67-0.26-5.06-2.8-5.06-5.69-0.1-1.49 0.08-2.31 1.1-3.38z" fill="#D0533F" opacity=".5"/>
  <path d="m55.29 106 3.5 1.89 4.96 0.58 0.31-3.07-3.4-0.72-5.37 1.32z" fill="#F1CC71" opacity=".5"/>
  <path d="m48.78 71.13 4.63-2.06 5.6-0.76h10.69l5.32 0.76 2.76 1.04-3.27 1.12-8.92 1.59-8.45-0.51-8.36-1.18z" fill="#F0C042" opacity=".5"/>
  <path d="m85.72 71.13 4.31-3.07 6.59-1.35h10.18l6.32 1.2 3.95 2.2-4.25 0.76-11.19 0.16-6.69-0.92-9.22 1.02z" fill="#58995A" opacity=".5"/>
  <path d="m85.72 74.86 3.38 2.04 7.94 2.17 10.61 0.15 4.37-1.42 5.9-1.49 1-1.98-7.44 1.29-10.57 0.12-10.1-0.62-5.09-0.26z" fill="#569E5D" opacity=".5"/>
  <path d="m89.58 95.75c0.73-2.34 2.49-3.02 5.08-3.02 1.55-3.07 4.02-3.95 6.41-3.95 3.75 0 5.51 1.29 6.76 4.06 4.44 0.62 7.04 1.88 6.99 5.68-0.21 3.57-1.84 5.74-5.21 5.74l-15.38-1.02c-4.2 0.42-5.72-2.63-4.65-7.49z" fill="#B75737" opacity=".5"/>
  <path d="m114.6 79.14-4.29 1.97-6.08 30.01 0.79 1.32c3.1-0.21 7.18-2.16 7.53-3.82l4.97-27.1-0.95-2.6-1.97 0.22z" fill="#82BC6C" opacity=".5"/>
  <path d="m113.3 40.79 2.73-2.07 6.03-1.76 9.92-0.25 6.98 0.92 5.95 1.79 1.88 2.19-3.27 1.52-7.42 1.29-11.92-0.33-10.88-3.3z" fill="#FEF186" opacity=".5"/>
  <path d="m113.3 46.42 2.17 1.29 5.19 0.31 6.73 1.27 1.82 2.27 2.5-0.4 8.01-1.13 6.89-2.07 0.66-2.94-2.56-0.86-7.35 1.66-11.22 0.4-8.25-0.79-4.7-1.01 0.11 2z" fill="#E4D542" opacity=".5"/>
  <path d="m117.1 66.2c1.56-2.1 3.35-1.91 4.54-1.91 1.82-3.07 4.04-4.23 7.71-4.16 3.54 0.08 5.89 1.89 7.51 4.99 4.89-0.51 6.36 1.96 6.36 4.89 0 3.93-2.32 5.73-5.07 5.73l-14.8-0.12c-4.19 0.31-7.15-1.55-7.21-5-0.05-1.71 0-3.11 0.96-4.42z" fill="#D0653A" opacity=".5"/>
  <path d="m146.9 49.36 3.96-2.04 7.07-1.16 9.29 0.16 6.76 1.13 6.32 2.58 0.66 2.79-3.27 1.29-10.98-0.5-10.59-0.79-8.86-2.3-0.36-1.16z" fill="#219570" opacity=".5"/>
  <path d="m146.4 52.82 0.23 3.11 4.29 2.22 8.41 1.52 9.71 0.13 8.26-2.07 3.69-1.42 0.15-1.86-4.1 0.62-7.7 0.54-9.19-0.69-7.07-1.06-4.69-2.14-1.99 1.1z" fill="#219570" opacity=".5"/>
  <path d="m150.1 74.61c1.01-0.87 2.29-0.98 3.98-0.67 1.82-3.07 3.85-3.93 7.6-3.93s5.3 2.09 6.92 4.6c3.46 0 5.76 1.01 6.09 4.46-0.21 4.23-1.63 6.21-5.8 6.14l-14.49-0.69c-4.3-0.33-5.34-2.5-5.34-5.6 0-1.45 0.03-3.18 1.04-4.31z" fill="#925A51" opacity=".5"/>
  <path d="m21.18 32.75 0.93-1.56 4.5-3.47 5.66-2.1 9.71-1.52h7.76l4.02 1.04 1.35 2.72-1.04 3.2-8.02 3.76-11.65 0.31-9.71 0.31-3.51-2.69z" fill="#DC526D" opacity=".5"/>
  <path d="m23.31 36.71 3.85 1.6 7.6 0.95 5.91 0.37 7.54-2.27 6.78-3.4 1.58-3.03-0.45 1.55-2.99 2.96-7.8 3.28-3 2.33 3.38 1.03 1.3 2.64-0.4 4.49-4.35-1.89c-4.54-0.62-7.18 1.42-8.6 5.09-2.94 0.26-4.36 1.58-4.36 4.91 0 3.67 2.12 6.6 4.77 6.39l14.24-2.49 4.09-0.61c3.12-0.73 3.32-3.49 2.89-6.24-0.68-3.27-2.88-4.06-6.63-3.85l-2.8-2.36-2.64-0.91 3.99 1.91 1-3.07-4.1-3-7.34-1.01-5.35-2.17-6.89-1.6-1.22-1.6z" fill="#F1B8BA" opacity=".5"/>
  <path d="m70.01 26.02 1.55-0.88 5.76-1.79 6.79-0.35 9.02 0.82 5.95 1.59 3.53 1.97 0.41 2.66-2.19 1.28-9.19-1.28-10.81-1.13-7.7-1.05-3.12-1.84z" fill="#39A5B9" opacity=".5"/>
  <path d="m70.11 28.8 3.3 2.13 7.32 2 9.02 1.03 9.33-0.83 4.24-1.94v2.77l-2.16 2.04-6.15 1.91h-9.19l-7.79-1.56-7.92-3.22v-4.33z" fill="#39A5B9" opacity=".5"/>
  <path d="m72.31 54.11c0.82-2.1 2.38-2.95 5.11-2.95 1.97-3.4 4.7-4.46 7.7-4.26 3.82 0.26 5.24 1.61 6.59 4.26 4.02 0.51 5.3 1.76 5.04 4.92-0.58 3.9-1.84 5.6-4.83 5.6l-15.43-1.07c-3.57-0.3-5.39-2.06-4.18-6.5z" fill="#AF5261" opacity=".5"/>
  <path d="m67.14 113.9 0.51 5.24-0.93 3.64c0 1.94 1.06 3.27 3.39 3.1l3.1-1.79 2.73 2.83c1.78 0.82 4.07 0.23 4.48-1.84l0.69 0.37h5.73c3.92-0.37 6.88-2.77 7.04-6.21l-0.23-3.85c-1.43-2.68-6.35-4.03-11.93-3.61-0.51-4-4.98-5.05-7.02-1.65l-1.37 1.65c-3.02-0.26-5.52-0.64-6.19 2.12z" fill="#2595A0" opacity=".5"/>
  <path d="m69.01 114.9 2.07-0.49 1.56 0.72c1.55 0.31 2.98-1.05 3.64-2.88 1.46-2.07 3.01-1.31 3.14 1.06l0.15 1.22 7.01 0.3c3.33 0.3 5.94 1.6 5.73 3.38l-1.15 1.71c-2.09 1.02-5.26 0.71-8.68 0.36l-2.57 0.45-1.22-2.6-2.54 0.3-1.13 2.3c-1.89 1.25-4.01 1.4-5.01-0.1l0.2-1.7 1.52-1.05-2.72-0.61v-2.37z" fill="#FEFFFE" opacity=".5"/>
  <path d="m66.95 136.5 5.97-1.45 1.35-4.3 3.12 3.96 5.86-0.27-2.83 4.4 2.5 3.2-4.75-0.88-4.54 2.23-0.91-4.92-5.77-1.97z" fill="#FEFFFE" opacity=".5"/>
  <path d="m47.82 151.9c0.86-3.67 5.82-4.77 9.28-3.08l2.73-2.76c0.96-1.13 2.28-0.45 2.78 0.9l1.08-0.47 1.05 1.25-1.05 1.69-0.66 1.12-3.47 1.22-0.4 3.53c-1.15 1.79-3.17 1.94-3.94-0.16-0.93 1.79-1.38 2.78-3.11 2.19-2.5-0.9-3.65-1.85-4.29-5.43z" fill="#FEFFFE" opacity=".5"/>
  <path d="m63.25 163.1 1.88-3.07 2.19 0.2 1.32-1.18 4.28 2.42 7.14-0.45c3.19-0.43 4.65 2.71 4.75 7l-2.09 1.94-1.99-2.68-5.52 0.19-1.68 3.4c-0.91 1.2-2.25 0.43-2.05-0.8l0.58-3.05-2.84-2.04-1.42 1.45c-1.35 0.87-3.19 0.05-4.55-1.45v-1.88z" fill="#FEFFFE" opacity=".5"/>
</svg>