<svg xmlns="http://www.w3.org/2000/svg" width="200" height="200" fill="none" viewBox="0 0 200 200">
<!-- SVG created with Arrow, by QuiverAI (https://quiver.ai) -->
  <path d="m195.9 94.46-3.18-2.83-4.6-1.13-8.55-0.2-1.24 1.62-2.29 1.12-1.28 3.38 3.09 3.02 1.92 1.07 4.24 2.63 5.09-1.23 1.82-1.58-2.88-1.53v-1.83l6.48-2.16 1.38-0.35z" fill="#81D3C1" opacity=".5"/>
  <path d="m198 106.5-1.88-1.78-3.15-0.03-3.44 1.55 0.4 1.75 4.29 0.84 3.16 0.2 0.62-2.53z" fill="#48B99A" opacity=".5"/>
  <path d="m67.62 92.63-1.91-2.13-14.39 0.45-4.24 3.07-6.93 2.04 2.82 1.8 8.25 0.3 9.43-1.64 6.86-2.84 0.11-1.05z" fill="#B06883" opacity=".5"/>
  <path d="m112.7 93.97 4.34-3.82 5.2 0.3 1.43 3.22 6.66-0.03 2.83 1.67 5.15 0.25 3.06 2.33-2.27 1.71-4.73 0.13-3.43-1.93h-4.55l-1.3 1.94 3.2 1.87-5.26 2.73 0.72 2.59-3.71-0.89-3.25 0.84-5.42-0.75-4.39-2.51v-1.97l1.99-0.79-1.52-2.14 1.77-1 2.3-0.41 1.18-3.34z" fill="#89C8EA" opacity=".5"/>
  <path d="m145.3 156.7-1.88-2.83 0.72-2.77-2.47-0.9-4.87 0.3-3.23 1.46 2.11 2.85 3.32 1.37-0.27 2.28-4.53 2.44-0.63 3.4 2.86 1.47 5.82-1.12 4.87 1.42 4.11 6.56 5.09 1.36 3.66-1.26 4.69-0.64 2.42-2.63 3.84 1 2.4-1.53 3.26 1.88 5.95-0.23 1.75-2.26h2.42l1.04-1.72-1.67-0.94-5.01 0.64-2.79-2.07-3.12 1.08-1.56-2.37 2.16-1.84 9.55-2.2 1.79-1.98-3.27-1.32-5.12 0.59-6.89 3.01-3.94 0.15-6.76 1.45-4.72-0.37-3.51-1.11-5.57-1.14-2.02-1.48z" fill="#F3A28C" opacity=".5"/>
  <path d="m140 172-4.76 1.28-0.67 1.78 2.59 1.29 4.36-0.48 2.11 0.7 2.63-1.08 0.45-1.72-2.49-1.47-4.22-0.3z" fill="#F1977A" opacity=".5"/>
  <path d="m3.12 157.4 0.95-1.35 3.04-0.64 4.76 0.41 1.99-1.82h2.54l1.55 2.16 3.48 1.87-3.71 3.17h-5.72l-3.92-1.19-4.01 0.24-0.95-2.85z" fill="#F8EA69" opacity=".5"/>
  <path d="m8.65 167.3 1.57-1.58 3.97-0.03 1.43 1.41-1.4 2.44-2.36 0.08-3.21-2.32z" fill="#F1DA37" opacity=".5"/>
  <path d="m13.21 171.1 1.55-1.01 1.79 0.28-0.62 1.41-2.72-0.68z" fill="#F7E96C" opacity=".5"/>
  <path d="m2.9 92.13 1.91 1.07 0.27 2.84 2.15-0.94 2.32 1.03-0.75 1.88 2.32 0.58 4.25-1.12 3.03 1.42-3.39 3.91 2.14 1.73 4.54 2.9 4.4-1.29 2.02 2.69 3.78-0.94 1.66-4.69 4.36-0.15 2.01 1.66 5.49-0.69 3.94-2.06 0.37-2.9-3-0.68-3.59 1.03-6.09-1.12-5.79-3.13-5.24-1.42-1.1-4.94 2.01-1.18 2.37 0.07 0.96 1.84 0.84 2.7 3.63 3.48-3.61-6.52-0.75-1.96h-5.87l-3.03 1.07-6.37-0.58-4.3 0.58-5.42 0.64-2.58 1.62 0.11 1.57z" fill="#E5859D" opacity=".5"/>
  <path d="m2.53 103.9 1.91-1.28 4.34-0.59 3.03 0.3 1.11 1.83-2.5 2.16-4.24 0.08-3.65-2.08v-0.42z" fill="#D75777" opacity=".5"/>
  <path d="m3.01 122.7-0.32 0.73 0.72 1.26 1.19 0.58 1.3-1.36-1.29-2.07-1.6 0.86z" fill="#B778A7" opacity=".5"/>
  <path d="m4.68 117 0.41-1.36 1.21-0.64 1.33 1.85 1.75 3.4-0.72 1.08-1.75-0.78-2.23-3.55z" fill="#BB8EBB" opacity=".5"/>
  <path d="m7.67 114 0.71-0.68 1.23 0.39 2.18 6.37-0.81 0.89-1.37-0.89-1.94-6.08z" fill="#C399C5" opacity=".5"/>
  <path d="m12.08 113.8 0.99-0.94 1.14 0.3 0.18 4.1-0.98 2.8-1.33-0.59v-2.21-3.46z" fill="#C399C5" opacity=".5"/>
  <path d="m7.5 126.1 2.57-2.86 0.15-1.61 2.91-1.4 1.96 0.71 0.08 2.19 0.92 1.19 0.02 1.82 0.9-1.19 2.29-0.16-0.49 4.21-3.42 3.63-2.68 0.3-2.18-1.83-3.03-5z" fill="#C382C2" opacity=".5"/>
  <path d="m18.63 122.6 0.45-3.43 1.75-0.64 0.53 1.11-0.88 2.96h-1.85z" fill="#C399C5" opacity=".5"/>
  <path d="m181.4 114.8 1.48-1.94 2.02-0.09 1.65 1.32-0.71 2.97-2.47 0.89-1.84-1.38-0.13-1.77z" fill="#EC9581" opacity=".5"/>
  <path d="m188.2 115.7 0.81-1.29 1.17 0.06 0.57 1.31-1.14 2.15h-1.6l-0.62-0.68 0.81-1.55z" fill="#E9907B" opacity=".5"/>
  <path d="m191 118.9 1.44-1.11 1.15 0.9 0.15 1.65-1.62 1.04-1.65-0.94 0.53-1.54z" fill="#E9907B" opacity=".5"/>
  <path d="m181.3 121.1 0.76-2.07 2.01-0.79 2.99 0.79 1.55 2.63 1.06-1.18 2.37 3.18-1.1 4.03-4.43 5.98-0.86 3.85-2.83 2.75-3.06 0.3-2.04-1.9v-2.97l2.17-2.58 3-1.23 0.75-4.84-1.87-0.93-0.99-2.34 0.52-2.68z" fill="#F69783" opacity=".5"/>
  <path d="m70.11 82.23 1.68-1.21 3.57-0.15 2.23 1.42-0.28 1.47-2.56 0.94h-3.57l-1.55-1.08 0.48-1.39z" fill="#61B9E8" opacity=".5"/>
  <path d="m57.81 101.5 1.23-1.34 2.92-0.29 2.65 1.23-0.79 2.16-2.84 0.42-2.79-0.84-0.38-1.34z" fill="#EC85A5" opacity=".5"/>
  <path d="m123.4 107 2.27-0.49 2.55 0.79-0.48 1.34-2.46 0.29-1.88-0.74v-1.19z" fill="#57B1E2" opacity=".5"/>
  <path d="m74.83 109.4h2.82v1.28l-1.77 0.5-1.05-1.39v-0.39z" fill="#62ADDF" opacity=".5"/>
  <path d="m65.98 169.3 0.93-0.58 1.37 0.3 0.07 1.29-1.29 0.42-1.44-0.74 0.36-0.69z" fill="#F7EA6A" opacity=".5"/>
  <path d="m118.2 170.6 1.02-0.85 1.55 0.3-0.62 1.34-1.74 0.05-0.21-0.84z" fill="#9084C6" opacity=".5"/>
  <path d="m110.3 173.4 1.99-0.15 0.62 1.08-1.75 0.25-0.86-1.18z" fill="#9DB2DD" opacity=".5"/>
  <path d="m70.61 152.4-4.69-0.3-3.91 2.51-5-0.51-3.82-1.41-0.37 2.99-2.09 0.1-5.39-0.47-2.01 0.47-4.21-1-4.84-2.8-5.46-4.64-3.33 1.38-0.42 4.36-3.93 1.83-0.03 3.06 1.14 1.06-3.48 3.42 1.27 2.74 2.88 1.78h4.72l1.55 1.11 3.55-0.47 4.27 1.95 4.3-1.48 0.92-2.96 6.76-1.38 3.54-1.81-0.58-2.75 5.14 1.18 6.22-0.64 2.3-1.83 5.65 1.29 3.57-1.78-0.62-4.02-3.6-0.98z" fill="#F7EA78" opacity=".5"/>
  <path d="m46.72 168.9 2.56-2.86 6.44-0.54 3.57 1.07 0.82 2.63-0.4 3.85-3 0.89-3.54-2.26-3.54 0.19-2.91-2.02v-0.95z" fill="#F6EA63" opacity=".5"/>
  <path d="m69.22 144.2 2.65-1.97 4.94-0.39 2.11 1.01-1.69 2.7-0.12 1.21-3.1-0.51-2.68 0.51-2.11-1.31v-1.25z" fill="#CC84C5" opacity=".5"/>
  <path d="m73.98 157 2.14-0.97 2.4 2.97h3.48l1.09 1.54-2.13 3.72-2.54 0.57-3.26-0.74-2.65 0.52-1.4 2.47 1.4 2.48 4.01 0.56 3.5-1.78 2.86 0.31 1.99 2.79 4.66 1.51 4.79-2.63 4.76-1.98-1.81-3.36 3.61 1.57 3.58 0.41 3.02 1.8 3.91-0.8 6.76-4.12 4.8 0.79 1.82-2.26-1.99-2.32 1.24-1.39 3.09 1.02 5.29 0.7 4.73-2.24-2.94-1.16-4.98 0.35-2.7-1.07-3.06-1.99-3.42-0.84-1.46-1.35-3.43 0.06-1.23 2.28-6.86 0.65-4.36 0.3-3.26 1.79-1.11 3.41-4.19-1.65-6.51-2.94-4.39-0.85-5.74 0.96-1.4 1.47-2.11-0.56z" fill="#E597C6" opacity=".5"/>
  <path d="m98.68 173.4 3.39-2.54 4.32-0.15 3.02 1.83-0.78 2.51-5.26 1.71-3.94-0.1-0.75-1.61v-1.65z" fill="#B170C1" opacity=".5"/>
  <path d="m120.1 83.85 2.59-1.13h4.55l2.72 1.53-0.62 2.06-3.02 0.9h-3.94l-2.72-1.48 0.44-1.88z" fill="#65B9E6" opacity=".5"/>
  <path d="m126.1 31 1.09 0.48-0.43 5 0.51 0.74 1.37-5.74 1.33-1 1.47 0.84-0.71 3.79-2.54 3.59 0.86 0.68 4.12-4.89 1.55 0.74-0.85 1.99-2.72 2.24 0.78 1.35 4.12-3.2 1.37 1.01-0.72 1.54-3.53 2.16-1.55-0.57-1.47 4.21-2.54 2.41-2.72-0.76-0.95 0.41-2.54-2.63-0.78-4.1 1.48-0.28 1.78 0.86 0.28-3.69 1.68-1.07 3.19 1.55-0.99-2.63-2.01-0.63-0.99 0.31-0.15-3.67 1.21-1.04z" fill="#ACD6F2" opacity=".5"/>
  <path d="m119.7 37.06 1.16 0.35 0.41 2.47-1.16 0.83-1.21-1.65 0.8-2z" fill="#65B9E6" opacity=".5"/>
  <path d="m70.02 104.3-4.17-2.94 0.23-2.26 6.93-4.03-0.6-2.47-1.72-1.57 1.27-2.74 7.3-1.08 2.12 5.09 4.76 3.69 6.89 1.13 10.26 0.52 1.33 1.46-5.61 1.08-9.91-0.64-3.69 0.3-3.19-0.65-4.4 0.75-1.81 3.85-5.99 0.51z" fill="#A1CEF1" opacity=".5"/>
  <path d="m161.8 102.2-6.66-0.41-1.4-4.25 6.66-0.45 8.76-0.94 1.3 1.62-1.04 3.22 1.95 5.42 4.52 1.46 5.64-1.88 2.97 0.5 4.43-2.64-0.99-1.96-4.2 0.41-3.97-2.53-2.79-3.72-3.13-1.07-3.94 2.91-8.11 4.31z" fill="#81D3C1" opacity=".5"/>
  <path d="m134.7 53.71 1.37-3.08c2.21-1.66 7.1-3.38 15.01-3.38 10.26 0 15.62 2.46 16.99 4.38v3.22l0.89 1.22-1.43 2.77 1.59 2.07-0.38 18.94 1.43 9.76-1.91 3.37c-3.02 2.63-9.52 4.08-13.93 4.16-7.13 0.12-19.18-2.04-21-6.23l-0.59-25.29 2.19-3.22-0.89-2.38 0.66-1.65v-4.66z" fill="#71BF9B" opacity=".5" stroke="#48917A" stroke-width=".3"/>
  <path d="m136.9 55.06c1.15-2.71 5.5-3.5 7.69-3.64l5.15 0.25 4.76 1.36 3.3-0.75h4.3l2.91 0.83 0.86 1.75-1.16 1.19-4.41-0.55-1.88 1.18-2.72-0.43-3.56-0.85-5.94-0.75-5.08 1.25-4.22-0.84z" fill="#3BCBA0" opacity=".5"/>
  <path d="m134.1 63.41 1.99-1.65 3.55 1.52 9.16 1.42 6.85-0.8 2.47 2.16 2.01 3.12-0.4 9.76 1.14 1.96 1.99-2.26 1.17-12.93 3.86-5.71 0.55 29-1.47 3.32c-3.26 2.83-10.84 3.77-14.34 3.77-6.49 0-17.48-2.26-18.9-6.38l-0.45-19.66 1.13-2.63 2.99-0.11 2.47 0.75 2.4 2.26 1.96 5.77-0.74 2.32 2.09 1.42-0.08 4.89 2.47 4.99 0.96 1.42 3.26-0.78-1.14 2.16 2.12 0.79-3.03 0.64-2.4-0.79-4.48-0.41-6.22-3.13-3.43-2.51-0.33-17.05 0.82-6.64z" fill="#81D3B6" opacity=".5"/>
  <path d="m31.95 53.08 2.96-2.96c2.2-1.05 5.04-2.04 12.47-2.04 7.58 0 16.56 1.33 18.03 3.92v3.62l0.72 1.08-0.99 1.79 1.47 1.07-0.69 1.9 1.59 2.44-0.35 25.81c-0.65 4.75-5.75 7.11-16.15 7.43-8.6 0.27-19.3-3.17-20.87-7.43l-0.12-20.44 1.93-2.84v-3.22l-1.24-1.8 1.24-2.13v-6.2z" fill="#CC6484" opacity=".5" stroke="#983651" stroke-width=".3"/>
  <path d="m33.11 54.15c0.28-2.91 6.01-4.44 8.89-4.89l4.24-0.89 10.03 0.45 5.71 1.3 2.72 1.72 0.38 2.31-0.86 1.55-3.26-1.48-5.95-1.36-7.38-0.55-7.41 0.65-4.66 1.9-2.45-0.71z" fill="#D692AB" opacity=".5" stroke="#C35977" stroke-width=".3"/>
  <path d="m33.19 56.12 2.57 1.75 7.23 1.29 6.22-0.64-0.99-2.4 2.06 0.08 4.63 0.55 3.13-1.65 4.04 0.52 3.71 1.49-5.52 5.6-1.35 3.35-1.59 0.35-3.47 0.5-5.14 0.74h-5.65l-5.95-1.24-3.93-1.36v-3.12l-0.92-1.82 0.92-1.84v-2.15z" fill="#E07694" opacity=".5" stroke="#983651" stroke-width=".3"/>
  <path d="m31.09 76.08 1.84-5.37 2.86-0.66 3.22 1.56 3.13-0.51 3.47-0.98 4.29-1.12 3.16 1.05 2.23 3.23-0.28 7.22 2.3 1.01 1.75-1.08-0.27-6.2 0.27-8.91 1.22-3.29 5.57-3.66 0.34 2.77-1.23 1.89 1.99 1.87 0.28 2.91-0.52 8.2v8.05l-0.69 5.65-2.15 3.39c-2.56 1.82-7.65 3.07-12.76 3.22l-9.93-1.01-7.97-2.9-2.47-3.22 0.35-13.11z" fill="#E38FA6" opacity=".5" stroke="#C33A51" stroke-width=".3"/>
  <path d="m83.18 52.58c1.72-2.53 6.21-5.47 16.9-5.47 9.88 0 14.83 2.53 15.23 4.26v3.33l0.48 1.83-1.03 1.48 1.43 1.72v3.08l0.89 1.09-0.37 7.01 0.12 15.28c-0.12 3.69-1.04 6.7-5.77 8.42-4.14 1.5-7.75 1.81-11.25 1.71-6.93-0.21-17.7-2.03-18.35-8.01l-0.35-23.12 1.7-3.88 0.5-2.1-0.85-1.46 0.72-1.73v-3.44z" fill="#7AB9E1" opacity=".5" stroke="#32678A" stroke-width=".3"/>
  <path d="m84.61 53.03c0.37-1.07 3.17-3.92 11.88-4.66h5.58l3.47-0.2 5.09 0.94 2.82 1.66 0.72 2.46-2.23 2.17-5.72 0.95-6.94-5.04-6.22 0.5-5.34 1.72-3.11-0.5z" fill="#9ED6F5" opacity=".5" stroke="#32678A" stroke-width=".3"/>
  <path d="m84.61 54.7 1.44-1.07 5.06-1.52 7.07-0.41 2.89 1.41 2.99-0.5 4.47 0.35 3.93-0.75 1.17 1.8-2.54 2.57-5.98 1.36-7.29-0.83-3.8 1.16-2.86-2.15-4.07 0.08-2.48-1.5z" fill="#63B1DE" opacity=".5" stroke="#32678A" stroke-width=".3"/>
  <path d="m82.04 64.25 1.14-1.85 2.46 1.22 1.37 3.22v5.17l1.3 1.27 1.55-1.27 0.89-9.61 2.31-3.04 3.57 0.53 3.42-0.78 5.42 0.1 5.56-1.34 3.76-1.75 1.02 2.79-1.09 1.03 2.11 2.63-0.37 5-0.72 12.93-0.35 8.01-1.55 3.81c-3.09 2.32-10.22 3.5-13.83 3.5-7.38 0-17.39-1.85-18.27-7.51l0.3-24.06z" fill="#C9E3F1" opacity=".5" stroke="#32678A" stroke-width=".3"/>
  <path d="m91.01 62.71 2.07-2.77 4.03 0.4 6.22 0.08 6.39-1.26 4.09-1.04-0.59 1.99-7.07 2.6h-10.09-5.05z" fill="#ECF6FE" opacity=".5" stroke="#32678A" stroke-width=".3"/>
  <path d="m91.62 68.56 1.47-0.45h6.12l4.6 1.8 2.14 5.2-1.04 14.94 3.93-1.44 2.47 0.3-1.06 2.14-8.11 1.46-3.77-1.04-0.99-2.76-3.06-0.71-0.37-2.89-2.4-1.35-1.33-4.79 0.37-2.26-1.78-1.19 0.92-3.29 1.89-3.67z" fill="#B5DDF5" opacity=".5"/>
  <path d="m134.8 110.2 1.3-1.98c1.82-1.59 5.81-2.6 14.29-2.5 9.24 0.1 15.72 1.93 17.29 4.09l0.62 2.16v2.16l0.79 1.19-0.95 1.99 1.43 1.75 0.57 2.73-0.22 24.34c-0.13 2.93-1.68 6.19-9.71 7.81-6.24 1.3-10.5 0.85-12.91 0.39-6.23-1.21-13.39-3.6-14.12-8.2l0.4-23.76 1.6-2.84-1.17-2.47 0.89-1.64-0.1-5.22z" fill="#E08374" opacity=".5" stroke="#8C4957" stroke-width=".3"/>
  <path d="m136.1 110.2c1.09-2.16 5.06-3.78 13.95-4.08 8.16-0.3 15.86 1.92 17.13 3.69v2.16l-1.68 1.07-2.86 0.08-3.6-1.08-7.2-0.82-8.6 0.5-7.14-1.52z" fill="#FAC1B4" opacity=".5" stroke="#8C4957" stroke-width=".3"/>
  <path d="m135.1 113.6 2.65 2.15 7.46 2.23 5.87-0.88 1.88 2.67 4.49 0.94 2.68 2.76 1.16 5.2-0.99 9.2 0.64 6.89 1.82-0.75 0.72-3.15-0.38-14.55 4.07-2.64 2.23 0.15 0.07 2.55-0.63 6.03v13.65h-2.91l-1.85 0.92-3.14 0.59-5.49 2.16-4.73 1.52-3.66-0.28-8.23-3.79-4.84-5-0.35-15.5 1.67-2.47 1.62-0.38 2 1.36 1.23 0.68 1.99-0.4 5.66 0.75 2.86-0.25-2.3-1.89-6.66-1.31-5.77-2.59-1.45-1.9 0.34-3.11 0.27-1.56z" fill="#FDD8C0" opacity=".5" stroke="#CC6651" stroke-width=".3"/>
  <path d="m148.7 115.7 1.85-1.46h4.43l5.06-1.21 2.57-0.25 3.4 0.84-0.89 2.41-3.85 2.94-4.66 0.2-3.46-1.72-4.45-1.75z" fill="#F6B19E" opacity=".5" stroke="#CC6651" stroke-width=".3"/>
  <path d="m32.42 109.9c1.72-2.33 6.1-3.93 15.51-3.93 8.22 0 15.78 1.46 17.21 3.93v3.26l0.88 1.61-1.01 1.66 1.27 1.46 0.47 3.12 0.34 2.37-0.08 22.7c-0.27 4.6-2.67 7.66-13.59 8.69h-6.6c-7.51-0.68-15.65-2.6-16.44-8.69l-0.36-21.04 1.69-4.98-1.33-2.65 1.78-1.65-0.89-1.68 1.15-2.41v-1.77z" fill="#EEDC53" opacity=".5" stroke="#906935" stroke-width=".3"/>
  <path d="m33.59 110.5c1.16-1.96 6.35-3.45 13.49-3.75 7.13-0.31 15.63 1.49 17.1 3.75l0.52 1.82-1.84 1.26-6.02 0.69-3.33-2.13-7.47-0.2-7.38 1.01-5.07-2.45z" fill="#F6EA75" opacity=".5" stroke="#906935" stroke-width=".3"/>
  <path d="m33.31 113.8 2.89-1.71 5.49-1.2 7.16-0.1 2.39 1.75 4.47-0.53 5.25-0.22 4 1.3-3.42 2.49-6.86 1.85-7.17-0.64-5.1 0.84-3.7-1.62-4.35-0.55-1.05-1.66z" fill="#E6D350" opacity=".5" stroke="#906935" stroke-width=".3"/>
  <path d="m32.86 117.9 1.65 2.17-3.67 12.81-2.82 6.82-3.73 5.28-4.25-1.39 2.97-9.42 4.6-11.18 3.43-4.64 1.82-0.45z" fill="#C5815E" opacity=".5" stroke="#5A3422" stroke-width=".3"/>
  <path d="m116.7 116.5c1.82 0.58 7.2 12.44 8.16 22.24l-4.47 1.29-5.52-17.99c-0.95-4.83 0.15-6.04 1.83-5.54z" fill="#CC9666" opacity=".5" stroke="#6D4128" stroke-width=".3"/>
  <path d="m119.8 139.9 5.87-1.28 2.05 7.99-4.5 2.13-3.42-8.84z" fill="#9EB7CC" opacity=".5" stroke="#5A3422" stroke-width=".3"/>
  <path d="m123.4 147.4c1.47-0.94 5.43 0.49 7.21 2.84l-0.2 5.7 2.07 2.28h-3.4c-3.26-0.88-8.06-4.06-6.79-9.44l1.11-1.38z" fill="#9B5673" opacity=".5" stroke="#5A3422" stroke-width=".3"/>
  <path d="m124 154.1 2.1-1.17 0.79-1.85 2.16 0.05v2.97" opacity=".5" stroke="#5A3422" stroke-width=".3"/>
  <path d="m151.1 162.4c2.4-3.06 5.22-4.94 7.94-4.64 2.02 0 3.08 1.13 3.58 2.73l-0.89 4.64-3.91 1.91-4.5-0.95-4.29-1.39 2.07-2.3z" fill="#E87070" opacity=".5" stroke="#5A3422" stroke-width=".3"/>
  <path d="m163.1 158.3 5.99-4.24 2.87 1.73 0.14 3.72-8.05 3.66-0.95-4.87z" fill="#99B7D1" opacity=".5" stroke="#5A3422" stroke-width=".3"/>
  <path d="m170.6 153.2c4.83-3.49 10.35-5.02 17.89-5.52 2.82 0 2.97 2.38 0.75 4.3-5.34 4.6-12.43 7.1-17.53 8.42l-1.11-3.4v-3.8z" fill="#D9AA79" opacity=".5" stroke="#714A2A" stroke-width=".3"/>
  <path d="m187.1 149.5c-4.26 3.43-9.49 6.18-14.66 7.98" opacity=".5" stroke="#B88158" stroke-width=".3"/>
  <path d="m169.4 60.01c2.86 0 8.55 11.95 9.6 19.84l-1.85 4.7-2.92-1.39-6.52-20.15c-0.47-1.9 0.36-3 1.69-3z" fill="#D89968" opacity=".5" stroke="#684129" stroke-width=".3"/>
  <path d="m172.5 64.85 4.63 9.96 1.07 5.04" opacity=".5" stroke="#C58055" stroke-width=".3"/>
  <path d="m172.6 83.16 6.6-1.15 1.75 6.9-2.79 2.22-2.02-0.92-3.54-7.05z" fill="#919FB0" opacity=".5" stroke="#492E26" stroke-width=".3"/>
  <path d="m177 92.74c0.51-2.76 2.36-3.28 3.11-3.13 2.4 0.64 5.15 4.43 6.87 9.6l0.45 2-2.36 0.6-3.91-1.35c-2.2-1.25-4.8-3.78-4.16-7.72z" fill="#507862" opacity=".5" stroke="#008A52" stroke-width=".3"/>
  <path d="m184.8 94.81 1.16 1.26-0.52 2.73-1.92-0.5-0.99-3.15 2.27-0.34z" fill="#60D4A0" opacity=".5" stroke="#008A52" stroke-width=".3"/>
  <path d="m116.6 22.86c2.17 0 1.45 4.79 0.8 6.95l-6.38 15.43-6.22-2.53c2.72-8.74 8.8-19.85 11.8-19.85z" fill="#ECBE94" opacity=".5" stroke="#B16134" stroke-width=".3"/>
  <path d="m104.4 42.42 6.4 2.39-3.88 7.95-5.52 0.55 3-10.89z" fill="#909193" opacity=".5" stroke="#422918" stroke-width=".3"/>
  <path d="m102.3 50.72 4.39 0.28 0.35 3.12-3.02 1.19-3.94-0.61 0.79-2.69 1.43-1.29z" fill="#A76C44" opacity=".5" stroke="#5A3422" stroke-width=".3"/>
  <path d="m31.71 56.73c1.3 0 2.02 1.36 1.4 3.98-2.3 7.48-7.02 17.25-8.04 18.01l-4.76-0.5c1.72-7.83 8.21-21.31 11.4-21.49z" fill="#F3CF96" opacity=".5" stroke="#B67046" stroke-width=".3"/>
  <path d="m20.51 79.41 1.01-1.8 5.39 1.8-3.34 7.15h-4.87l1.81-7.15z" fill="#94B0C2" opacity=".5" stroke="#556371" stroke-width=".3"/>
  <path d="m15.17 90.31 1.94-2.94 3.2-0.95 3.26 1.19-0.95 4.6-4.32 3.86-6.49 0.65 2.1-2.63 1.26-3.78z" fill="#D8526B" opacity=".5" stroke="#842A36" stroke-width=".3"/>
  <path d="m15.47 93.43 2.47-3.22 2.82-1.1 0.85 2.4-2.65 1.72-3.49 0.2z" fill="#C18872" opacity=".5" stroke="#B95961" stroke-width=".3"/>
  <path d="m31.12 60.11-3.16 6.52-4.7 10.58" opacity=".5" stroke="#F7D8B1" stroke-width=".3"/>
  <path d="m39.01 130.4 1.75 3.39 1.65-1.46 2.1 0.74 3 1.82-0.37 3.72-0.37 1.08 0.88 7.66 1.37 0.84 1.76-0.5 2.33 0.4 2.02 0.72 2.12-0.42 0.45-2.6-0.69-8.25 0.35 3.4 1.33 6.9-1.68 4.6-4.4 1.35-7.79-0.2c-4.95-1.08-13.11-2.55-13.55-10.12l3.09-10.94 1.72-2.94 1.75 3.23 1.18-2.42z" fill="#F6DB53" opacity=".5" stroke="#D0AF16" stroke-width=".3"/>
  <path d="m81.46 121.8 1.55-1.68-0.55-1.88 0.63-1.52-1.05-3.67 1.37-3.81c2.65-2.06 6.31-2.63 13.63-2.71 6.08-0.09 13.77 0.51 17.68 3.21l0.67 1.99-0.83 3.4 0.3 1.36-1.43 1.46-0.46 1.12-1.81 1.61-0.79 1.55 0.13 1.71 1.37 2.83 4.89 9.26-0.15 10.11c-0.64 4.2-3.67 7.89-14.99 9.19h-6.22" fill="#B882BA" opacity=".5" stroke="#6D4459" stroke-width=".3"/>
  <path d="m83.09 125.4 3.22-0.64 2.4 2.53 1.88 0.75 0.72 0.57 2.56 0.75 0.55 4.64-0.72 4.1 2.56 9.01 1.43 1.09 0.38 3.8-3.16 1.61-6.89-1.61-4.43-2.6-1.13-4.4 1.16-6.89-0.71-3.41 0.18-9.3z" fill="#CD98CB" opacity=".5" stroke="#945883" stroke-width=".3"/>
  <path d="m111.9 110.5" fill="#B675B6" opacity=".5" stroke="#783973" stroke-width=".3"/>
  <path d="m100.5 114.9 4.42-0.65 3.5 0.38-1.13 2.49 0.89 3.35 2.14-2.53 0.9-3.91-2.72-0.91-6.28 0.64-1.72 1.14z" fill="#B877B7" opacity=".5" stroke="#783973" stroke-width=".3"/>
  <path d="m106.8 129.1 0.95-6.37 0.64 5.34 1.75 8.97-1.4 4.3-1.43-0.92 0.38-5.79-0.89-5.53z" fill="#B575C1" opacity=".5" stroke="#6B3C8B" stroke-width=".3"/>
</svg>