<svg xmlns="http://www.w3.org/2000/svg" width="200" height="200" fill="none" viewBox="0 0 200 200">
<!-- SVG created with Arrow, by QuiverAI (https://quiver.ai) -->
  <path d="m70.08 8.51 1.11-1.22h12.34l2.4-1.18 2.63-0.2 1.37 5.28-1.74 2.25-6.67-0.45-11.68-0.69 0.24-3.79z" fill="#B58560" opacity=".6"/>
  <path d="m44.64 128.4 0.47 4.86 4.15 1.03 1.22-6.37-5.84 0.48z" fill="#B7775F" opacity=".7"/>
  <path d="m113.2 161.3-3.08-1.4 3.56-14.87 5.04-0.69-2.34 16.03-3.18 0.93z" fill="#B19280" opacity=".7"/>
  <path d="m141.3 4.61 2.56 0.62 1.56 2.68 1.91 18.51-0.65 1.29-1.06-0.23 3.6 29.68-0.15 1.44 0.59 2.02-0.47 1.29 1.1 7-0.35 1.25 14.86 103.8-3.37 1.6h-3.11l-14.22-148.3-1.22-0.04-0.81-5.84-0.76-3.55-12.25-6.37 0.54-2.79 9.5-0.47 1.42-2.87 0.78-0.7z" fill="#D3BBAE" opacity=".8"/>
  <path d="m140.7 5.19 2.43 0.1 1.81 2.21 2.5 19.31-0.81 0.9-0.96-0.2-4.4-19.2-0.57-3.12z" fill="#FEFFFE" stroke="#C7C2CC" stroke-miterlimit="10" stroke-width=".5"/>
  <path d="m130 8.62 9.17-0.31 1.5 1.06-0.55 2.19-10.21-0.15 0.09-2.79z" fill="#DDBBA6" stroke="#A4816B" stroke-miterlimit="10" stroke-width=".5"/>
  <path d="m69.75 8.31 16.01-0.26 1.46 1.06-0.24 2.53-17.31-0.24 0.08-3.09z" fill="#E3C09A" stroke="#C19976" stroke-miterlimit="10" stroke-width=".5"/>
  <path d="m59.7 29.95-14.7 144 5.89-0.32 16.78-69.45 3.39-82.09-1.88 0.14-2.06-5.08-4.61-13.19-2.81 26.04z" fill="#D9B08E" stroke="#B28267" stroke-miterlimit="10" stroke-width=".5"/>
  <path d="m60.07 30.15-14.96 143.8 3.07-0.74 18.39-133.1-0.16-10.09-6.34 0.04z" fill="#D5B197" stroke="#B98D74" stroke-miterlimit="10" stroke-width=".5"/>
  <path d="m66.81 30.33h4.01l16.49 161.7-0.69-2.34-1.24 0.4-1.73-1.81-15.56-132.9-1.28-25.03z" fill="#F2D5B5" stroke="#B9997B" stroke-miterlimit="10" stroke-width=".5"/>
  <path d="m72.08 22.67 71.81 0.77 14.89 108.5-3 0.97-4.09-2.99-10.33-103.5-2.41-1.29-67.27-1.62 0.4-0.85z" fill="#F9E3CA" stroke="#C7B2A1" stroke-miterlimit="10" stroke-width=".5"/>
  <path d="m74.53 31.11 16.62-0.05 10.09 87.06-23.4 1.22-3.31-88.23z" fill="#34424D" stroke="#212D33" stroke-miterlimit="10" stroke-width=".5"/>
  <path d="m74.86 31.61 16.85-0.5 10.29 90.57-15.94 1.6-11.2-91.67z" fill="#3E4D58" stroke="#1A262D" stroke-miterlimit="10" stroke-width=".5"/>
  <path d="m75.39 31.61 15.56-0.5 11.08 89.98-15.95 1.61-10.69-91.09z" fill="#48555E" stroke="#212D33" stroke-miterlimit="10" stroke-width=".5"/>
  <path d="m74.78 31.53 17.01-0.42 9.93 88.31-15.56 1.61-11.38-89.5z" fill="#47555F" stroke="#212D33" stroke-miterlimit="10" stroke-width=".5"/>
  <path d="m130.2 28.87 8.61-0.16 10.92 84.09-1.99 1.31-22.64 2.02 5.1-87.26z" fill="#FEFFFE" stroke="#C7B2A1" stroke-miterlimit="10" stroke-width=".5"/>
  <path d="m131.3 29.78 7-0.16 9.8 82.55-1.4 0.93-19.56 2.02 4.16-85.34z" fill="#E6D3CF" stroke="#C7B2A1" stroke-miterlimit="10" stroke-width=".5"/>
  <path d="m59.1 124.3 16.86-1.68 1.52 5.56-1.52 1.43-13.92 1.7-5.33-0.35 0.35-4.91 2.04-1.75z" fill="#F2D5B9" stroke="#C4A388" stroke-miterlimit="10" stroke-width=".5"/>
  <path d="m57.41 129.2 18.48-2.45 1.99 1.05 0.37 3.78-4.16 0.94-6.16 0.16-10.68-1.4 0.16-2.08z" fill="#D8C7BB" stroke="#B29687" stroke-miterlimit="10" stroke-width=".5"/>
  <path d="m57.51 132 21.43 5.84 0.47 4.46-23.32-6.65 1.42-3.65z" fill="#F2D5B9" stroke="#C4A07F" stroke-miterlimit="10" stroke-width=".5"/>
  <path d="m151.9 137.4 7.16-0.82 5.62 37.06-6.16 1.3-6.62-37.54z" fill="#E5C3A2" stroke="#CDAF89" stroke-miterlimit="10" stroke-width=".5"/>
  <path d="m87.21 138.6 76.06-7.44 0.55 4.23-66.12 12.65-10.02-2.26-0.47-7.18z" fill="#F7E1C2" stroke="#C29F7B" stroke-miterlimit="10" stroke-width=".5"/>
  <path d="m88.63 139.7 56.68-8.75 11.44 1.22-58.77 11.88-9.35-4.35z" fill="#FDF3E6" stroke="#C6A88D" stroke-miterlimit="10" stroke-width=".5"/>
  <path d="m90.44 140.9 54.94-8.75 3.48 0.64-51.98 12.19-6.44-4.08z" fill="#F2D5B9" stroke="#C4A388" stroke-miterlimit="10" stroke-width=".5"/>
  <path d="m115.1 126.2 34.85-4.8 1.46 7.35-6.9 0.39-23.56-3.91-5.85 0.97z" fill="#F2D5B9" stroke="#CCAB8F" stroke-miterlimit="10" stroke-width=".5"/>
  <path d="m86.08 125.2 65.87-10.24-1.43 4.92-63.87 10.2-0.57-4.88z" fill="#F0D3B4" stroke="#CAAA88" stroke-miterlimit="10" stroke-width=".5"/>
  <path d="m45.07 128.4 4.68-0.48v3.02l-4.52 1-0.16-3.54z" fill="#CDA894" stroke="#B28267" stroke-miterlimit="10" stroke-width=".5"/>
  <path d="m116.2 126.8 9.13-1.98 14.3 4.18-12.45 1.3-11.84-1.02 0.86-2.48z" fill="#BA9075" stroke="#A5725B" stroke-miterlimit="10" stroke-width=".5"/>
  <path d="m101.2 138.9 9.59-1.29 0.39 2.5-9.9 1.14-0.08-2.35z" fill="#BAD5BD" stroke="#8EB095" stroke-miterlimit="10" stroke-width=".5"/>
  <path d="m60.07 31.73-0.76 12.05-0.93 9.18 1.35 0.35-1.51 8.3 1.69 0.85 4.24-11.45 2.02-11.52-1.62-8.89-4.48 1.13z" fill="#8B5738" opacity=".3"/>
  <path d="m67.06 67.05-3.7 10.77v9.1l-0.93 8.24 2.46 8.26 1.9-1.31 1.3 3.08 2.62-2.01 0.82-6.98-2.82-4.32 0.24-4.79-1.31-2.02 2.44-2.02-0.81-11.87-2.21-4.13z" fill="#755546" opacity=".3"/>
  <path d="m73.61 108.3-3.29 4.13-2.88 3.41-9.25 0.93 0.32 1.85 1.02 0.57 8.68-0.77 5.16-0.98 2.04-2.91-1.8-6.23z" fill="#9A6A50" opacity=".3"/>
  <path d="m156.8 155.8 2.1 4.14 0.78 6.26 1.24 7.6-2.43 0.07-1.69-18.07z" fill="#CE9E74" opacity=".3"/>
  <path d="m52.12 152-3.19 6.73-2.14 14.7 2.62-0.31 2.71-8.98 1.14-8.18-1.14-3.96z" fill="#CAA892" opacity=".3"/>
  <path d="m52.81 89.24 3.2 0.37 1.27 3.59-1.27 8.02-1.1 4.78-2.79-4.99 0.69-11.77z" fill="#D9C6BA" opacity=".3"/>
  <path d="m114.3 145.9-2.28 14.06 3.7-0.68 1.81-14.27-3.23 0.89z" fill="#B88D72" opacity=".3"/>
  <path d="m143.6 28.12 1.63-0.16 1.87-0.76-0.34-1.2-2.62-14.89-1.38-4.61-1.65-1.47-1.45 0.28-0.39 3.07 1.5 3.54 1.46 5.3 1.37 10.9z" fill="#E5E0E5" opacity=".3"/>
  <path d="m137.8 21.44 2.34 0.15v1.02l-2.1 0.4-1.97-0.9 1.73-0.67z" fill="#7B573F" opacity=".3"/>
  <path d="m62.58 4.4 3.68-0.48 2.45 1.31 1.99 23.09-0.62 1.15-11.74 0.14-0.78-1.43 2.51-21.47 2.51-2.31z" fill="#CBE1E5" stroke="#9DBFCE" stroke-miterlimit="10" stroke-width=".5"/>
  <path d="m62.73 7.96 1.23 0.35 0.59 2.41-0.59 5.99 0.55 8.87-1.39 2.53-3.08-0.04-0.59-1.77 1.36-16.29 1.92-2.05z" fill="#A7CCD6" stroke="#92B7C5" stroke-miterlimit="10" stroke-width=".5"/>
  <path d="m59.85 26.18c0.4 0 0.72-0.39 0.72-0.87s-0.32-0.86-0.72-0.86-0.73 0.38-0.73 0.86 0.33 0.87 0.73 0.87z" fill="#85B0BD" stroke="#6999AA" stroke-miterlimit="10" stroke-width=".5"/>
  <path d="m66.18 26.93c0.4 0 0.72-0.39 0.72-0.86 0-0.48-0.32-0.86-0.72-0.86-0.41 0-0.73 0.38-0.73 0.86 0 0.47 0.32 0.86 0.73 0.86z" fill="#85B0BD" stroke="#6999AA" stroke-miterlimit="10" stroke-width=".5"/>
  <path d="m87.47 144.2-3.15 7.7 0.94 4.28 1.86 1.53 1.79-1.29-1.44-12.22z" fill="#AD8966" opacity=".2"/>
  <path d="m86.98 161.4 1.81 0.96 0.9 6.09-1.3 0.9-1.06-2.1-0.35-5.85z" fill="#AD8966" opacity=".2"/>
  <path d="m88.91 170.2 3.56 16.9 0.09 3.62-4.29 1.27-2.26-3.29 2.9-18.5z" fill="#E1B087" opacity=".2"/>
  <path d="m85.76 2.11 39.28 0.95c4.29 0.58 4.72 6.44 4.37 10.25-0.79 5.68-3.39 6.38-5.29 5.76l-38.19 0.54 1.28-1.5c3.32-0.52 4.22-8.5 0.67-13.99l-2.12-2.01z" fill="#CED5E4" opacity=".4"/>
  <path d="m86.22 2.29 38.82 0.93c4.37 0.57 4.99 6.43 4.17 10.69-1.06 4.93-3.49 5.31-5.01 4.93l-37.98 0.77c4.62-0.46 5.9-10.35 1.19-15.89l-1.19-1.43z" fill="#FEFFFE" stroke="#BFC6D3" stroke-miterlimit="10" stroke-width=".5"/>
  <path d="m86.97 2.11c-3.85 0-5.04 3.67-5.57 6.47-0.67 3.54-0.91 8.53 4.05 9.98 4.2 1.23 5.78-3.65 5.66-7.65-0.12-3.37-1.39-8.8-4.14-8.8z" fill="#D0D6E2" stroke="#959CB3" stroke-miterlimit="10" stroke-width=".5"/>
  <path d="m85.11 13.31c2.4 0 3.07-1.63 3.07-3.22 0-1.38-0.67-2.67-2.13-2.67-1.81 0-3.69 0.79-3.69 2.67 0 1.44 0.76 3.22 2.75 3.22z" fill="#868BA0" stroke="#6A7080" stroke-miterlimit="10" stroke-width=".5"/>
  <path d="m86.77 19.38c1.46 0.74 6.58 7.55 6.35 11.63l-19.22-1.31-0.16-6.57 13.03-3.75z" fill="#A7846A" opacity=".15"/>
  <path d="m89.22 19.18c2.9 2.19 6.01 4.07 10.89 3.99 4.89-0.08 16-1.15 21.12-3.16 3.85-0.55 7.98 6.77 8.68 15.11l-1.29-14.48-4.34-1.62-35.06 0.16z" fill="#AAB3D1" opacity=".15"/>
  <path d="m94.11 11.11 9.51 1.94 9.24 0.39 7.86-1.22 7.06-1.11-0.77 4.92-2.08 1.78-14.97-0.51-10.95 0.24-5.89-0.44 0.99-5.99z" fill="#D4D9E6" opacity=".15"/>
  <path d="m12.79 173.9 1.39 0.81v1.94l-2.46 1.23h-4.11l-3.18-1.47v-3.51l2.91-0.83 5.45 0.83v1z" fill="#B1BDD0" opacity=".7"/>
  <path d="m9.62 175.8c3.07 0 4.79-1.02 4.79-1.69 0-0.68-2.51-1.9-5.15-1.9-2.63 0-4.99 0.93-4.99 1.6s2.28 1.99 5.35 1.99z" fill="#FEFFFE" stroke="#99A5B4" stroke-miterlimit="10" stroke-width=".5"/>
  <path d="m21.22 153.7-0.82 1.06 0.47 8.43 1.28 1.05 7.78-0.16 0.82-2.09-0.59-8.52-1.73-1.06-5.34 0.36-1.87 0.93z" fill="#8EBFB2" opacity=".6"/>
  <path d="m25.49 156c3.58 0 4.99-1.12 4.99-2.14 0-1.01-1.97-1.56-4.76-1.56-2.78 0-5.55 0.47-5.55 1.49 0 1.01 1.74 2.21 5.32 2.21z" fill="#FEFFFE" stroke="#9BA9B7" stroke-miterlimit="10" stroke-width=".5"/>
  <path d="m32.31 158.1-0.55 0.95 0.35 6.2 1.06 1.4 5.44 1.6 2.8-1.05 0.55-8.51-2.47-1.3-5.33 0.08-1.85 0.63z" fill="#D87997" opacity=".7"/>
  <path d="m37.22 160.1c3.19 0 4.6-0.98 4.6-1.86 0-0.87-2.1-1.55-4.72-1.55-2.63 0-5.06 0.68-5.06 1.55 0 0.88 1.98 1.86 5.18 1.86z" fill="#FEFFFE" stroke="#965F74" stroke-miterlimit="10" stroke-width=".5"/>
  <path d="m11.26 160.7-0.24 1.33 1.39 7.9 2.36 1.5 4.94-0.44 1.24-2.01v-7.87l-2.63-1.98-4.94 0.2-2.12 1.37z" fill="#81ABC9" opacity=".7"/>
  <path d="m15.9 162.2c3.1 0 4.7-1.09 4.7-2.11s-1.89-1.6-4.35-1.6-4.91 0.58-4.91 1.6 1.46 2.11 4.56 2.11z" fill="#FEFFFE" stroke="#7389A5" stroke-miterlimit="10" stroke-width=".5"/>
  <path d="m23.93 164.8 0.31 1.45 0.08 7.65 1.9 1.3 5.85-0.25 1.99-1.55-0.16-8.87-2.99-1.43-4.89 0.31-2.09 1.39z" fill="#F7CB52" opacity=".7"/>
  <path d="m29.01 166.1c3.17 0 4.62-0.95 4.62-1.9 0-0.96-1.81-1.59-4.44-1.59s-4.47 0.75-4.47 1.7 1.12 1.79 4.29 1.79z" fill="#FEFFFE" stroke="#B28B3B" stroke-miterlimit="10" stroke-width=".5"/>
  <path d="m13.31 185.5 2.06-1.51 1.81-0.44 1.88 0.44 1.6 1.11 1.87-1.11 3.46 0.76 2.88 1.14-0.23 2.34-3 0.47-4.53-1.61-3.1 1.14-2.88-0.2-2.53-0.09 0.71-2.44z" fill="#54B9C5" opacity=".3"/>
  <path d="m27.17 194.6 2.66-1.01 3.3 0.42 0.81-1.86 3.08 0.47 5.69 0.93 1.37 1.53-2.94 1.14-6.61 0.58-2.38-1.8-4.98 0.08v-0.48z" fill="#E165A0" opacity=".3"/>
  <path d="m49.01 194.7 0.91-0.55 0.24 0.55-0.47 0.32-0.68-0.32z" fill="#E165A0" opacity=".3"/>
  <path d="m185.2 161.3 0.15 3.38 1.39 10.06-0.47 2.54-4.3 0.93-4.94-1-0.62-11.19 0.93-3.1 3.58-1.62h4.28z" fill="#93739F" opacity=".7"/>
  <path d="m182 167.8c3.76 0 4.94-1.28 4.94-2.44s-2.25-2.06-5.25-2.06-5.55 0.9-5.55 2.06 2.09 2.44 5.86 2.44z" fill="#FEFFFE" stroke="#75587E" stroke-miterlimit="10" stroke-width=".5"/>
  <path d="m195.7 161.1-0.59 2.77v7.83l-1.53 1.69h-4.48l-1.81-1.33-0.32-10.8 1.62-1.13 5.15 0.08 1.96 0.89z" fill="#82A77A" opacity=".7"/>
  <path d="m191 163c3.17 0 4.77-0.86 4.77-1.96s-2.04-1.67-4.59-1.67c-2.56 0-4.98 0.57-4.98 1.67s1.62 1.96 4.8 1.96z" fill="#FEFFFE" stroke="#68916E" stroke-miterlimit="10" stroke-width=".5"/>
  <path d="m166.3 149.1 0.47 2.53 1.39 17.91 2.46 0.93 5.7-0.32 5.61-1.4 1.99-11.71-0.35-8.49-4.79 0.59-6.36 0.31-6.12-0.9v0.55z" fill="#7697B8" opacity=".6"/>
  <path d="m174.7 151.2c5.01 0 8.89-1.41 8.89-2.8s-3.64-2.35-8.12-2.35-8.82 0.96-8.82 2.35 3.04 2.8 8.05 2.8z" fill="#FEFFFE" stroke="#728596" stroke-miterlimit="10" stroke-width=".5"/>
  <path d="m126.3 175.3 10.69-0.7 12.71 0.47 0.66 2.79-3.3 1.84-12.93 0.23-8.03-1.75-0.47-2.01 0.67-0.87z" fill="#B7DDBC" opacity=".6"/>
  <path d="m134.1 182.7 6.26-5.25 11.92 0.41 0.86 2.29-3 2.32-13.61 3.68-3.22-1.1 0.79-2.35z" fill="#D1B8D7" stroke="#8C769B" stroke-miterlimit="10" stroke-width=".5"/>
  <path d="m117.7 181.8 6.42-2.46 7.62 0.08 0.9 2.26-2.02 1.68-12.37 1.8-1.36-1.6 0.81-1.76z" fill="#E7B2CB" stroke="#AD7490" stroke-miterlimit="10" stroke-width=".5"/>
  <path d="m134.2 191.2 8.9-4.09 5.64 0.67 0.83 2.09-2.44 2.16-11.66 2.59-2.26-0.95 0.99-2.47z" fill="#F7DB96" stroke="#CAA76F" stroke-miterlimit="10" stroke-width=".5"/>
  <path d="m140.7 179.1 0.95-2.01 1.99 0.28 23.77 8.18 0.93 1.67-0.85 2.02-1.73-0.39-15.54-6.39-9.52-3.36z" fill="#C7DFC2" stroke="#96B194" stroke-miterlimit="10" stroke-width=".5"/>
  <path d="m140.4 179.1 1.52-2.01 1.63 0.28 14.3 11.87 0.15 2.23-1.61 1.19-1.55-1.23-13.48-11.49-0.96-0.84z" fill="#EBA0B6" stroke="#AA6485" stroke-miterlimit="10" stroke-width=".5"/>
  <path d="m124.2 185.9 14.08-13.83 1.36-0.07 1.03 1.61-13.07 14.79-2.02 0.31-1.38-1.41v-1.4z" fill="#C2DFF0" stroke="#86B0CB" stroke-miterlimit="10" stroke-width=".5"/>
  <path d="m172.7 120.6 1.63 3.92-0.55 4.34-1.36 0.95-0.93-1.66 1.21-7.55z" fill="#8A2974" opacity=".6"/>
  <path d="m172.8 126.4 0.82-0.14 0.54 0.84-1.28 12.06 0.81 1.75-1.47 10.3-1.06-0.35-0.93-14.15-2.9-7.44 0.39 4.4 0.76 0.48 2.46 6.41 0.78-1.75 1.08-12.41z" fill="#A98069" stroke="#896051" stroke-miterlimit="10" stroke-width=".5"/>
  <path d="m180.2 125.7 4.42 0.65-3.2 7.88 0.24 1.64-3.2 13.05-3.01 1.22 0.82-5.2 2.69-7.88-0.35-1.94 1.59-9.42z" fill="#D8B6A1" stroke="#915464" stroke-miterlimit="10" stroke-width=".5"/>
  <path d="m182.2 126.2 1.56 0.57-3.77 8.78-0.63-0.75 2.84-8.6z" fill="#EA8396" stroke="#C94255" stroke-miterlimit="10" stroke-width=".5"/>
  <path d="m189.1 128.3 3.93 0.6-8.4 12.4v1.32l-5.65 7.83-1.24-1.23 6.89-11.72 0.31-1.35 4.16-7.85z" fill="#D4D1D6" stroke="#7092A5" stroke-miterlimit="10" stroke-width=".5"/>
  <path d="m190.1 128.6 2.36 0.71-5.26 5.74 0.24-1.78 2.66-4.67z" fill="#85C0B7" stroke="#516C51" stroke-miterlimit="10" stroke-width=".5"/>
  <path d="m179.6 142.2 3.1 0.93-4.73 6.94-1.63-0.56 3.26-7.31z" fill="#F7C287" stroke="#938064" stroke-miterlimit="10" stroke-width=".5"/>
  <path d="m175.8 156.2 2.82-0.6 1.73-4.27h-1.88l-1.29 3.69-1.38 1.18z" fill="#FEFFFE" opacity=".3"/>
  <path d="m88.09 36.19-8.08 10.24 6.04-9.29-6.29 10.28 8.45-9.89-7.14 11.55 9.01-10.87-8.56 14.3 8.8-11.06-7.22 12.56 7.14-8.39-5.33 9.39 4.11-4-0.31 3.61 1.06 0.08" stroke="#95C2DB" stroke-linecap="round" stroke-linejoin="round" stroke-miterlimit="10" stroke-width=".5"/>
  <path d="m82.9 67.11c-1.86-1.82 0.32-3.27 1.5-2.58 2.51 1.22 1.29 3.48 0.15 5.42-2.82 4.49-1.37 7.79 0 8.26" stroke="#C6D7C2" stroke-linecap="round" stroke-linejoin="round" stroke-miterlimit="10" stroke-width=".5"/>
  <path d="m88.98 59.11c2 0.44 1.73 3.99-0.27 7.11l-2.43 3.73" stroke="#B4D0B8" stroke-linecap="round" stroke-linejoin="round" stroke-miterlimit="10" stroke-width=".5"/>
  <path d="m94.71 69.47-6.4 8.39 5.33-7.64-5.53 9.39 6.9-7.88-5.48 10.09 5.68-6.61-3.78 7.3 3.29-3.41" stroke="#B4D0B8" stroke-linecap="round" stroke-linejoin="round" stroke-miterlimit="10" stroke-width=".5"/>
  <path d="m90.77 96.08-2.7-0.84c-2.53-1.84-2.89-6.27-1.06-8.05" opacity=".6" stroke="#C6B784" stroke-linecap="round" stroke-linejoin="round" stroke-miterlimit="10" stroke-width=".5"/>
  <path d="m91.79 88.91c-1.01 1.8 1.31 4.12 4.26 3.45" opacity=".6" stroke="#B8B6A5" stroke-linecap="round" stroke-linejoin="round" stroke-miterlimit="10" stroke-width=".5"/>
  <path d="m97.7 96.08-7.14 14.58 6.66-13.62-4.52 14.68 7.22-15.4-5.26 14.34 8.33-13.31-5.01 11.54 5.93-7.44-2.59 6.65 2.35-1.6v1.44l1.72-0.67 0.62 1.14 1.72-1.14 1.17 0.83 0.47-2.19 1.99-1.9-0.63-1.46 2.13-0.75-1.63-1.8 1.86-0.83-1.86-1.94 0.46-4.2-2.63 0.24-1.8 3.05-2.17-1.24-2.35 1.52-2.36-1.52-2.68 1z" fill="#99C1A6" opacity=".6"/>
  <path d="m104.7 71.66-2.45 0.15 4.4 4.74 0.91-2.53-2.86-2.36z" fill="#99C1A6" opacity=".6" stroke="#85B092" stroke-linecap="round" stroke-linejoin="round" stroke-miterlimit="10" stroke-width=".5"/>
  <path d="m101.3 77.23-0.7 1.76 1.65-1.33 0.92 1.49 0.72-2.34 2.62 1.29 0.58-1.04 1.36 1.31 0.55-3.28 1.73 2.77 0.86-1.72 1.45 2.43 1.53-1.23 1.52 0.87 0.72-2.07 1.14 1.6 1.45-2.61 1.14 1.78 4.33-3.87 1.14 2.79 1.73-1.43 1.52 1.43 0.83-2.53-2.63-3.08-4.38 3.08 0.51-4.18-2.26 1.81-0.71 4.47-1.99 1.71-0.47-3.3-2.7 2.61-1.87-2.17-3.49 1.15-1.65-5.18-1.73 1.94 1.24 5.07h-1.45l-0.82-1.83-1.8 0.74-2.59 1.09z" fill="#99C1A6" opacity=".6" stroke="#85B092" stroke-linecap="round" stroke-linejoin="round" stroke-miterlimit="10" stroke-width=".5"/>
  <path d="m108.8 25.34 1.14 6.47-0.35-6.81-0.79 0.34z" fill="#F7CF7B" stroke="#D19B4A" stroke-linecap="round" stroke-linejoin="round" stroke-miterlimit="10" stroke-width=".5"/>
  <path d="m102.3 29.19 3.78 3.31-4.33-3.54 0.55 0.23z" fill="#F7CF7B" stroke="#D19B4A" stroke-linecap="round" stroke-linejoin="round" stroke-miterlimit="10" stroke-width=".5"/>
  <path d="m97.62 34.48 6.36 1.78-6.52-2.18 0.16 0.4z" fill="#F7CF7B" stroke="#D19B4A" stroke-linecap="round" stroke-linejoin="round" stroke-miterlimit="10" stroke-width=".5"/>
  <path d="m96.46 42.12 6.55-0.51-6.47 1.06-0.08-0.55z" fill="#F7CF7B" stroke="#D19B4A" stroke-linecap="round" stroke-linejoin="round" stroke-miterlimit="10" stroke-width=".5"/>
  <path d="m102.9 47.17 3.26-2.01-3.01 2.53-0.25-0.52z" fill="#F7CF7B" stroke="#D19B4A" stroke-linecap="round" stroke-linejoin="round" stroke-miterlimit="10" stroke-width=".5"/>
  <path d="m106.9 53.46 0.93-4.06-0.73 3.98-0.2 0.08z" fill="#F7CF7B" stroke="#D19B4A" stroke-linecap="round" stroke-linejoin="round" stroke-miterlimit="10" stroke-width=".5"/>
  <path d="m117 27.76-1.56 3.46 1.73-3.62-0.17 0.16z" fill="#F7CF7B" stroke="#D19B4A" stroke-linecap="round" stroke-linejoin="round" stroke-miterlimit="10" stroke-width=".5"/>
  <path d="m121.9 30.61-3.25 3.71 3.56-3.61-0.31-0.1z" fill="#F7CF7B" stroke="#D19B4A" stroke-linecap="round" stroke-linejoin="round" stroke-miterlimit="10" stroke-width=".5"/>
  <path d="m123.2 37.61-4.1 1.01 4.1-0.45v-0.56z" fill="#F7CF7B" stroke="#D19B4A" stroke-linecap="round" stroke-linejoin="round" stroke-miterlimit="10" stroke-width=".5"/>
  <path d="m124 45.85-3.42-1.23 3.77 1.85-0.35-0.62z" fill="#F7CF7B" stroke="#D19B4A" stroke-linecap="round" stroke-linejoin="round" stroke-miterlimit="10" stroke-width=".5"/>
  <path d="m117.5 49.01-1.06 0.79 2.2 3.16-1.14-3.95z" fill="#F7CF7B" stroke="#D19B4A" stroke-linecap="round" stroke-linejoin="round" stroke-miterlimit="10" stroke-width=".5"/>
  <path d="m110.9 51.64 1.07-0.88v5.29l-1.07 0.07v-4.48z" fill="#F7CF7B" stroke="#D19B4A" stroke-linecap="round" stroke-linejoin="round" stroke-miterlimit="10" stroke-width=".5"/>
  <path d="m111.5 32.7c-5.69-0.2-8.42 4.71-8.26 8.26-0.16 4.57 3.43 7.81 7.35 7.65 5.61-0.24 7.66-4.45 7.77-7.65 0.2-5.13-3.11-8.14-6.86-8.26z" fill="#F7CF7B" stroke="#D19B4A" stroke-linecap="round" stroke-linejoin="round" stroke-miterlimit="10" stroke-width=".5"/>
  <path d="m108.5 38.82c-1.32-0.24-1.4 1.1-0.78 1.49" stroke="#9D4844" stroke-linecap="round" stroke-linejoin="round" stroke-miterlimit="10" stroke-width=".5"/>
  <path d="m116.9 38.21c-0.9-0.24-1.55 0.53-1.21 1.2" stroke="#9D4844" stroke-linecap="round" stroke-linejoin="round" stroke-miterlimit="10" stroke-width=".5"/>
  <path d="m108.2 42.67c0.82 1.78 5.84 3.06 8.47-0.55" stroke="#9D4844" stroke-linecap="round" stroke-linejoin="round" stroke-miterlimit="10" stroke-width=".5"/>
  <path d="m104.3 58.31-0.99 2.62-2.89 3.16 1.34 1.94 3.6 0.94 3.04-3.76-2.08-1.64-0.57-2.76-1.45-0.5z" fill="#99B8DD" stroke="#5B88BA" stroke-linecap="round" stroke-linejoin="round" stroke-miterlimit="10" stroke-width=".5"/>
  <path d="m104.3 66.03-0.95-1.03c-0.4-1.71 1.6-1.98 2.15-1.24 0.9 1.24-0.25 2.46-1.2 2.27z" fill="#4C75A1" stroke="#21526D" stroke-linecap="round" stroke-linejoin="round" stroke-miterlimit="10" stroke-width=".5"/>
  <path d="m116.1 62.9-2 2.18-1.04-0.75-0.31 2.01 1.28 2.89 3.63-1.06 1.29-1.94-0.94-1.5-1.91-1.83z" fill="#CAA1CB" stroke="#936897" stroke-linecap="round" stroke-linejoin="round" stroke-miterlimit="10" stroke-width=".5"/>
  <path d="m116.7 67.21c-0.76 0.88-1.69-0.08-1.45-0.91 0.28-0.95 1.45-1.02 1.8-0.27l-0.35 1.18z" fill="#936897" stroke="#825178" stroke-linecap="round" stroke-linejoin="round" stroke-miterlimit="10" stroke-width=".5"/>
  <path d="m125.3 55.41-1.56-0.71-1.28 1.43-2.63 2.43 0.5 1.45 3.1 2.53 1.15 1.22 3.2-3.14 1.29-2.53-1.96-1.65-1.81-1.03z" fill="#F5A3B6" stroke="#D66174" stroke-linecap="round" stroke-linejoin="round" stroke-miterlimit="10" stroke-width=".5"/>
  <path d="m126.7 60.24c-1.57 0-1.73-2.19-0.2-2.46 1.46-0.27 2 0.94 1.65 1.64s-0.79 0.82-1.45 0.82z" fill="#EA859B" stroke="#D66174" stroke-linecap="round" stroke-linejoin="round" stroke-miterlimit="10" stroke-width=".5"/>
  <path d="m86.19 19.38 37.42-0.36c3.83 1.7 6.7 11.59 6.38 17.09l3.62 41.32-28.09 3.57-1.54 8.42-2.74-0.76-2.53-4.74-5.73-35.11-1.19-19.5-4.38-8.22-1.22-1.71z" fill="#FEFFFE"/>
  <path d="m85.61 19.02 37.57-0.59c4.89 1.93 7.13 12.18 7.05 16.65l3.89 43.29-29.44 3.14-1.97 2.24 1.62 3.29-1.82 1.98-3.39-2.87-7.45-40.93-2.26-19.11-3.8-7.09z" fill="#FEFFFE" stroke="#D7DDEA" stroke-miterlimit="10" stroke-width=".5"/>
  <path d="m138.7 78.37 1.82 1.35 0.16 3.41-2.75 3.18-33.59 3.03-2.02-2.91 1.04-3.43 1.86-0.83 33.48-3.8z" fill="#D9DFEA" opacity=".8" stroke="#96999E" stroke-linecap="round" stroke-linejoin="round" stroke-miterlimit="10" stroke-width=".5"/>
  <path d="m132.3 36.5" stroke="#E194B5" stroke-linecap="round" stroke-linejoin="round" stroke-miterlimit="10" stroke-width=".5"/>
  <path d="m132.8 38.51 1.46-0.46 1.06 1.56" stroke="#E194B5" stroke-linecap="round" stroke-linejoin="round" stroke-miterlimit="10" stroke-width=".5"/>
  <path d="m135.9 53.04 0.46-4.49 1.76 0.24 0.57 2.19-2.79 2.06z" fill="#EA859B" stroke="#D66174" stroke-linecap="round" stroke-linejoin="round" stroke-miterlimit="10" stroke-width=".5"/>
  <path d="m134.4 57.4-0.82 9.73 4.59-4.13-3.02 5.21 5.26-5.13-3.77 5.72 4.12-2.39-2.43 4 2.39 1.04-1.63 2.34 1.32 0.58-1.87-0.66-1.28-1.55 1.38-3.08-2 1.33-0.16-2.77-2.31 2.35-0.47-3.96 2.55-2.85-2.08 1.74 0.54-2.26 0.85-1.29-1.16 0.54-0.7 1.09 0.12-2.34 0.74-0.39 0.39 0.83 0.59-1.01 2.75-0.93-1.33 2.45 0.62 0.12" stroke="#A26592" stroke-linecap="round" stroke-linejoin="round" stroke-miterlimit="10" stroke-width=".5"/>
  <path d="m123.3 93.71" stroke="#E194B5" stroke-linecap="round" stroke-linejoin="round" stroke-miterlimit="10" stroke-width=".5"/>
  <path d="m121.3 96" stroke="#D970A5" stroke-linecap="round" stroke-linejoin="round" stroke-miterlimit="10" stroke-width=".5"/>
  <path d="m137.2 106.3 4.61-1.22 3.45 0.87-1.62 3.14-3.54-0.87 2.44-2.49-5.34 3.92-0.46-1.67 1.61-1.87-1.15 0.19z" stroke="#EEB472" stroke-linecap="round" stroke-linejoin="round" stroke-miterlimit="10" stroke-width=".5"/>
  <path d="m137.8 93.27-0.28-0.24-4.87 10.9-1.01 5.48 1.88 0.95 1.45-1.75 4.25-15.58-1.42 0.24z" fill="#E3A9D2" stroke="#6B6268" stroke-linecap="round" stroke-linejoin="round" stroke-miterlimit="10" stroke-width=".5"/>
  <path d="m141.2 97.23 2.62-0.95 0.55 3.13-2.18 1.02-0.99-3.2z" fill="#E3A9D2" stroke="#6B6268" stroke-linecap="round" stroke-linejoin="round" stroke-miterlimit="10" stroke-width=".5"/>
  <path d="       136.04,94.53 L 135.02,94.61 L 131.6,104.01 L 132.38,104.63 L 136.04,94.53 Z" fill="#D881B6" stroke="#6B6268" stroke-linecap="round" stroke-linejoin="round" stroke-miterlimit="10" stroke-width=".5"/>
  <path d="m139.6 88.27 0.47 1.34 2.35-0.5-2.82-0.84z" fill="#BF7093" stroke="#93537B" stroke-linecap="round" stroke-linejoin="round" stroke-miterlimit="10" stroke-width=".5"/>
  <path d="m67.21 174.2-29.99 6.95-0.2 2.32 2.17-0.36 36.13-8.1 0.72-0.42-0.85 0.7-7.98-1.09z" fill="#7193B2" stroke="#567686" stroke-linecap="round" stroke-linejoin="round" stroke-miterlimit="10" stroke-width=".5"/>
  <path d="m32.87 180.4-4.31 1.38-1.35 1.43 0.96 1.52 8.85-1.2 0.63-2.4-4.78-0.73z" fill="#D8E6E6" stroke="#637888" stroke-linecap="round" stroke-linejoin="round" stroke-miterlimit="10" stroke-width=".5"/>
  <path d="m22.69 183.9 4.32-1.31 2.16-0.39 0.08 2.43-9.54 1.45 2.98-2.18z" fill="#2A8880" stroke="#296A76" stroke-linecap="round" stroke-linejoin="round" stroke-miterlimit="10" stroke-width=".5"/>
  <path d="m49.38 184.5-3.06 1.3-3.67 2.18 1.23 1.13 6.21-1.72-0.83-2.97 0.12 0.08z" fill="#598092" stroke="#375162" stroke-linecap="round" stroke-linejoin="round" stroke-miterlimit="10" stroke-width=".5"/>
  <path d="m110.7 159.2 0.55 1.6 3.47-0.35-0.35-1.25h-3.67z" fill="#937462" opacity=".6" stroke="#A1817D" stroke-linecap="round" stroke-linejoin="round" stroke-miterlimit="10" stroke-width=".5"/>
  <path d="m113.6 102.8-0.47-0.84-0.15 1.01 0.62 0.5-0.39 1.22 0.84-0.67-0.35-1.5 1.01-0.75-0.63-0.09-0.47 0.48-0.83-0.75-0.65 1.67 0.25 0.7 0.93-0.47-1.15 0.16" opacity=".3" stroke="#D9D9DB" stroke-linecap="round" stroke-linejoin="round" stroke-miterlimit="10" stroke-width=".5"/>
  <path d="m110.3 96.32-1.03 3.9 1.28-3.9h-17.99" stroke="#C6B378" stroke-linecap="round" stroke-linejoin="round" stroke-miterlimit="10" stroke-width=".5"/>
  <path d="m110.1 106.5v2.91" stroke="#CDC888" stroke-linecap="round" stroke-linejoin="round" stroke-miterlimit="10" stroke-width=".5"/>
</svg>