<svg xmlns="http://www.w3.org/2000/svg" width="200" height="200" fill="none" viewBox="0 0 200 200">
<!-- SVG created with Arrow, by QuiverAI (https://quiver.ai) -->
  <g clip-path="url(#clip0_1919_989)">
    <path d="m199.9 91.13v-4.67c-6.56 1-13.12 2.54-18.64 5.93-15.08 9.2-24.03 22.49-36.38 36.37-7.95 9.01-14.1 14.51-21.47 18.43l3.14 3.71c11.03-6 20.07-16.28 28.87-27.17 10.17-12.52 20.26-24.99 36.4-30.58 2.62-0.92 5.31-1.58 8.08-2.02z" fill="#000" opacity=".2"/>
    <path d="m200 84.81v4.67c-10.48 1.91-19.88 7.55-28.04 14.58l-1.72-5.38c9.12-8.37 17.08-12.44 29.76-13.87z" fill="#F26E5B"/>
    <path d="m173.3 96.85c-2.27-16.79 3.04-36.48 15.11-50.18 3.14-3.6 6.76-6.55 11.42-8.71l0.16 7.16c-4.85 3.29-17.03 14.66-22.02 31.02-2.43 8.02-1.67 11.82-1.07 20.59l-0.37 4.06-3.23-3.94z" fill="#88B8CC"/>
    <path d="m178.3 100.2c4.94 9.65 5.83 37.86-6.13 55.97l-2.98-3.15c8.21-16.05 8.6-28.68 5.64-51.8l3.47-1.02z" fill="#000" opacity=".2"/>
    <path d="m176 100.4c-2.67-4.1-3.22-17.52 1.01-31.68 4.81-15.63 15.9-26.48 23.01-30.43l0.01 5.94c-9.54 6.36-16.33 16.01-20.74 30.77-2.94 9.61-2.9 13.99-1.65 24.24l-1.64 1.16z" fill="#76A7BE"/>
    <path d="m177 99.88c-2.26-1.1-2.72-4.79 0.3-10.86 6.56-13.32 12.67-20.75 22.73-30.25l0.02 6.13c-10.15 9.02-16.75 20.93-19.22 27.58-1.25 3.59-1.14 7.56-3.83 7.4z" fill="#00C8BE"/>
    <path d="m177.3 101.1c2.45 4.39 5.29 28.73-4.34 53.32l-2.64-1.77c7.29-14.89 8.11-27.64 5.53-50.69l1.45-0.86z" fill="#88B8CC"/>
    <path d="m197 41.29-5.92 4.89 1.2 1.12" opacity=".2" stroke="#33718B" stroke-miterlimit="10" stroke-width=".7"/>
    <path d="m196.2 44.21-8.4 6.73 0.98 1.4" opacity=".2" stroke="#33718B" stroke-miterlimit="10" stroke-width=".7"/>
    <path d="m191.7 50.04-8.06 7.75 0.76 1.14" opacity=".2" stroke="#33718B" stroke-miterlimit="10" stroke-width=".7"/>
    <path d="m189.2 56.87-10.23 9.27 0.63 1.62" opacity=".2" stroke="#33718B" stroke-miterlimit="10" stroke-width=".7"/>
    <path d="m186.1 62.21-8.11 9.52 0.48 1.9" opacity=".2" stroke="#33718B" stroke-miterlimit="10" stroke-width=".7"/>
    <path d="m183.9 67.11-7.29 9.68 0.4 2.23" opacity=".2" stroke="#33718B" stroke-miterlimit="10" stroke-width=".7"/>
    <path d="m180.8 73.87-4.8 7.87 0.95 2.19" opacity=".2" stroke="#33718B" stroke-miterlimit="10" stroke-width=".7"/>
    <path d="m179.2 80.74-3.14 6.01 0.88 2.11" opacity=".2" stroke="#33718B" stroke-miterlimit="10" stroke-width=".7"/>
    <path d="m195.8 87.7-8.43 2.48 0.73 1.82" opacity=".2" stroke="#A74E41" stroke-miterlimit="10" stroke-width=".7"/>
    <path d="m190.2 89.48-7.44 3.32 0.96 2" opacity=".2" stroke="#A74E41" stroke-miterlimit="10" stroke-width=".7"/>
    <path d="m181.4 103.9-3.51 4.02 0.88 2" opacity=".2" stroke="#6190A0" stroke-miterlimit="10" stroke-width=".7"/>
    <path d="m181.4 109.2-3.78 4.16 0.96 2.5" opacity=".2" stroke="#6190A0" stroke-miterlimit="10" stroke-width=".7"/>
    <path d="m181.6 114.8-3.47 4.36 0.72 1.87" opacity=".2" stroke="#6190A0" stroke-miterlimit="10" stroke-width=".7"/>
    <path d="m181.7 120.3-3.08 4.2 0.72 2.36" opacity=".2" stroke="#6190A0" stroke-miterlimit="10" stroke-width=".7"/>
    <path d="m181.4 126.4-3.04 4.36 0.85 2.22" opacity=".2" stroke="#6190A0" stroke-miterlimit="10" stroke-width=".7"/>
    <path d="m180.5 133.2-2.98 4.13 0.84 2.11" opacity=".2" stroke="#6190A0" stroke-miterlimit="10" stroke-width=".7"/>
    <path d="m176.7 166.9-6.94 7.03c-2.23 2.26-4.81 1.21-7.28-1.07l-8.06-9.51c-2.11-2.45-2.43-5.63 0.08-8.11l6.01-5.59c2.39-2.31 6.85-0.48 8.75 1.97l6.95 8.69c1.73 2.43 2.25 4.63 0.49 6.59z" fill="#D3594E"/>
    <path d="m175.4 165.2-6.94 7.03c-2.69 2.74-6.5 0.27-8.4-2.18l-6.33-8.84c-1.32-2.26-0.36-4.06 1.54-5.6l3.75-3.63c3.35-3.28 7.11-2.16 9.29 0.62l6.68 8.61c1.38 2.01 1.73 2.7 0.41 3.99z" fill="#F67A66"/>
    <path d="m161.1 166.6-4.03 4-2.97-3.25 3.64-3.85 3.36 3.1z" fill="#000" opacity=".2"/>
    <path d="m159.9 166.6-3.32 3.68-3.29-3.48 3.16-3.27 3.45 3.07z" fill="#5F9DBB"/>
    <path d="m136.1 178.4c-7.02 1.68-16.31 1.43-28.24 1.3-15.19-0.18-23.91 9.04-26.08 20.1h-5.52c1.87-11.53 10.89-25.69 31.79-26.56 8.46-0.36 16.86 0.98 23.86-1.03l4.19 6.19z" fill="#000" opacity=".15"/>
    <path d="m135.8 177.5c-7.02 1.68-13.57 0.94-27.37 0.94-17.22 0-25.52 10.5-26.95 21.4h-5.52c1.87-11.53 10.5-26.56 31.4-26.92 8.47-0.09 15.57 0.36 26.43-1.45l2.01 6.03z" fill="#88B8CC"/>
    <path d="m143.3 160c-9.68-0.6-13.23 6.35-13.5 12.15-0.22 5.26 4.35 12.75 13.43 12.89 7.55 0.11 12.19-7.22 11.92-12.67-0.33-6.33-4.8-11.96-11.85-12.37z" fill="#F8C14C"/>
    <path d="m133.6 173.5-5.25 1.68 2.77 0.78 3.9-1.28-1.42-1.18z" fill="#000" opacity=".2"/>
    <path d="m130.3 177-4.68-0.66 2.49-1.34" opacity=".2" stroke="#33718B" stroke-miterlimit="10" stroke-width=".7"/>
    <path d="m125 176.7-4.84-0.3 2.61-1.53" opacity=".2" stroke="#33718B" stroke-miterlimit="10" stroke-width=".7"/>
    <path d="m120 176.5-5.32-0.43 2.77-1.87" opacity=".2" stroke="#33718B" stroke-miterlimit="10" stroke-width=".7"/>
    <path d="m114 176.2-4.99-0.52 3.05-1.62" opacity=".2" stroke="#33718B" stroke-miterlimit="10" stroke-width=".7"/>
    <path d="m108 175.8-4.75-0.52 2.98-1.62" opacity=".2" stroke="#33718B" stroke-miterlimit="10" stroke-width=".7"/>
    <path d="m102.3 175.3-5.38-0.39 2.64-1.39" opacity=".2" stroke="#33718B" stroke-miterlimit="10" stroke-width=".7"/>
    <path d="m97.09 176-4.52-0.21 2.03-1.58" opacity=".2" stroke="#33718B" stroke-miterlimit="10" stroke-width=".7"/>
    <path d="m93.21 177.5h-4.68l1.75-1.73" opacity=".2" stroke="#33718B" stroke-miterlimit="10" stroke-width=".7"/>
    <path d="m89.91 179.8h-4l1.12-1.9" opacity=".2" stroke="#33718B" stroke-miterlimit="10" stroke-width=".7"/>
    <path d="m87.29 182.4-4.34 0.13 0.97-2.05" opacity=".2" stroke="#33718B" stroke-miterlimit="10" stroke-width=".7"/>
    <path d="m85.28 185.2h-3.63l0.47-2.08" opacity=".2" stroke="#33718B" stroke-miterlimit="10" stroke-width=".7"/>
    <path d="m83.27 188.6-3.51-0.14 0.76-2.26" opacity=".2" stroke="#33718B" stroke-miterlimit="10" stroke-width=".7"/>
    <path d="m81.79 192.2h-3.28l0.6-2.54" opacity=".2" stroke="#33718B" stroke-miterlimit="10" stroke-width=".7"/>
    <path d="m0.08 81.27c15.66 2.64 25.25 16.8 34.76 38.22l-3.84 1.95c-6.11-9.56-10.89-21.33-19.82-29.14-3.87-3.12-6.69-4.31-11.18-5.67l0.08-5.36z" fill="#F26E5B"/>
    <path d="m2.02 84.36 7.09 2.76" stroke="#A84F41" stroke-miterlimit="10" stroke-width=".7"/>
    <path d="m6.39 87.12 8.39 3.8" stroke="#A84F41" stroke-miterlimit="10" stroke-width=".7"/>
    <path d="m11.49 91.11 6.72 4.27" stroke="#A84F41" stroke-miterlimit="10" stroke-width=".7"/>
    <path d="m15.51 95.08 7.2 5.35" stroke="#A84F41" stroke-miterlimit="10" stroke-width=".7"/>
    <path d="m18.97 98.89 5.22 4.91" stroke="#A84F41" stroke-miterlimit="10" stroke-width=".7"/>
    <path d="m21.79 103.6 4.36 4.19" stroke="#A84F41" stroke-miterlimit="10" stroke-width=".7"/>
    <path d="m24.26 108.6 2.97 3.8" stroke="#A84F41" stroke-miterlimit="10" stroke-width=".7"/>
    <path d="m26.92 113.2 2.24 3.26" stroke="#A84F41" stroke-miterlimit="10" stroke-width=".7"/>
    <path d="m0.16 136.1c9.83 2.04 14.82 9.96 18.12 16.35 3.92 6.69 6.79 9.59 10.54 12.69l-2.67 2.85c-4.5-2.87-9.04-7.7-14.03-15.87-4.21-5.9-6.8-7.3-12.1-10.41l0.14-5.61z" fill="#F6BF4D"/>
    <path d="m1.19 138.1 5.52 2.47" stroke="#C18E32" stroke-miterlimit="10" stroke-width=".7"/>
    <path d="m3.18 141.3 7.05 3.85" stroke="#C18E32" stroke-miterlimit="10" stroke-width=".7"/>
    <path d="m7.55 144.9 6.66 4.16" stroke="#C18E32" stroke-miterlimit="10" stroke-width=".7"/>
    <path d="m10.56 149 5.86 3.86" stroke="#C18E32" stroke-miterlimit="10" stroke-width=".7"/>
    <path d="m13.44 153.3 5.14 3.9" stroke="#C18E32" stroke-miterlimit="10" stroke-width=".7"/>
    <path d="m16.21 157.4 4.59 3.72" stroke="#C18E32" stroke-miterlimit="10" stroke-width=".7"/>
    <path d="m41.97 170.5c11.82 2.68 24.44 11.46 24.21 29.28h-6.67c1.28-11.15-6.54-20-16.39-23.85l-1.15-5.43z" fill="#F6BF4D"/>
    <path d="m46.43 172.8 7.44 4.8" stroke="#C18E32" stroke-miterlimit="10" stroke-width=".7"/>
    <path d="m48.93 176.7 6.83 4.28" stroke="#C18E32" stroke-miterlimit="10" stroke-width=".7"/>
    <path d="m53.83 179.8 5.28 4.82" stroke="#C18E32" stroke-miterlimit="10" stroke-width=".7"/>
    <path d="m57.12 183.7 3.91 4.5" stroke="#C18E32" stroke-miterlimit="10" stroke-width=".7"/>
    <path d="m59.48 188.3 3.46 4.36" stroke="#C18E32" stroke-miterlimit="10" stroke-width=".7"/>
    <path d="m61.11 193.6 4.36 4.44" stroke="#C18E32" stroke-miterlimit="10" stroke-width=".7"/>
    <path d="m46.69 162.4c-0.94-1.59-2.77-0.86-4.56-0.48l-5.21 0.69-4.1-4.91c-1.73-1.62-3.88-1.15-4.91 1.54l-1.57 6.38-5.82 3.09c-1.9 1.12-2.39 3.54 0.76 5.2l5.09 2.71 1.02 7.33c0.38 2.65 3.2 3.12 4.88 1.21l4.17-4.47 7.02 1.39c2.66 0.63 3.76-1.28 3.05-3.59l-2.77-6.49 3.14-6.49c0.53-1.11 0.37-2.31-0.19-3.11z" fill="#00C8BE"/>
    <path d="m45.61 118.8c-1.12-1.68-2.88-1.1-5.12 0.29l-3.77 1.36-6.18-2.5c-2.01-0.69-3.03 0.63-2.48 3.08l0.59 4.28-4.07 6.03c-1.02 1.77 0.2 3.56 2.33 3.6l5.78 0.92 2.31 4.22c1.32 1.82 3.22 0.98 3.92-1.03l1.33-3.51 6.47-1.4c2.01-0.46 1.68-2.98-0.11-4.85l-2.67-2.69 0.81-5.72c0.21-0.8 0.33-1.49 0.86-2.08z" fill="#79B1CB"/>
    <path d="m62.42 132c-2.8-1.49-5.27-3.04-8.8-4.34-3.87-0.97-5.65 1.32-6.86 4.37l-5.23 9.26c-2.9 5.62-3.44 8.61 2.34 11.36 7.38 3.48 10.07 4.34 13.09 0.25l5.78-10.39c2.47-3.68 3.5-8.27-0.32-10.51z" fill="#F66E5B"/>
    <path d="m60.71 142.8-5.58 6.1 0.96 1.49 5.52-5.38-0.9-2.21z" fill="#000" opacity=".2"/>
    <path d="m150.1 42.1 7.85 0.66-1.87 7.33h-6.91l0.93-7.99z" fill="#D3594E"/>
    <path d="m153.8 17.49c9.12 0 14.99 7.48 14.99 15.41 0 7.62-6.81 14.89-14.51 14.3-9.61-0.77-14.45-7.44-14.45-14.3 0-7.93 5.8-15.41 13.97-15.41z" fill="#00C8BE"/>
    <path d="m150.1 20.58c1.06 0.74 6.86 0.93 9.52-0.42l-0.39-1.12-3.9-0.85-5.23 0.85v1.54z" fill="#007078"/>
    <path d="m155.3 20.71 5.39-20.71h-3.42l-5.2 19.18 0.12 1.65 3.11-0.12z" fill="#F67664"/>
    <path d="m155.8 5.75 3.45-4.47" opacity=".2" stroke="#A84F41" stroke-miterlimit="10" stroke-width=".7"/>
    <path d="m155.2 10.11 3.46-5.4" opacity=".2" stroke="#A84F41" stroke-miterlimit="10" stroke-width=".7"/>
    <path d="m154.4 14.41 2.66-5.14" opacity=".2" stroke="#A84F41" stroke-miterlimit="10" stroke-width=".7"/>
    <path d="m168.2 58.12-8.06-3.67-1.66-9.23c-1.12-2.53-3.59-3.05-5.77-0.71l-5.1 5.18-8.8-0.58c-2.61-0.28-3.57 1.66-2.39 4.07l3.61 7.43-3.56 7.88c-0.67 1.92 0.04 3.6 2.5 3.8l8.24-0.03 7.95 5.35c2.24 1.27 4.04-0.82 3.96-3.07l0.68-6.2 7.61-5.35c2.24-1.62 2.67-3.5 0.79-4.87z" fill="#F9BD48"/>
    <path d="m72.49 39.39-4.97-1.3 0.96-4.18h4.56l-0.55 5.48z" fill="#009696"/>
    <path d="m76.32 17.65c2.11 0.96 3.36 11.11 2.67 14.76-0.56 3.03-3.53 3.67-5.71 4.04l-7.95 1.06c-2.6 0-4.97-0.22-6.29-6.25-1.06-5.14-1.36-9.85 0.31-11.35 2.18-2.01 14.58-3.27 16.97-2.26z" fill="#88B8D3"/>
    <path d="m65.4 0h4.02l0.61 17.07-3.68 0.77-1.23-8.97 0.28-8.87z" fill="#00B7B2"/>
    <path d="m66.35 2.91 2.36 4.36" opacity=".2" stroke="#007078" stroke-miterlimit="10" stroke-width=".7"/>
    <path d="m66.21 7.46 2.66 4.36" opacity=".2" stroke="#007078" stroke-miterlimit="10" stroke-width=".7"/>
    <path d="m66.6 12.12 2.24 3.42" opacity=".2" stroke="#007078" stroke-miterlimit="10" stroke-width=".7"/>
    <path d="m28.4 1.15-5.09-0.96 1.64 22.94 3.87 0.6 1.03-2.95-1.45-19.63z" fill="#F0B441"/>
    <path d="m24.41 3.64 3.5 5.49" opacity=".2" stroke="#CAA23F" stroke-miterlimit="10" stroke-width=".7"/>
    <path d="m24.71 7.46 3.57 5.63" opacity=".2" stroke="#CAA23F" stroke-miterlimit="10" stroke-width=".7"/>
    <path d="m25.05 11.67 3.64 5.4" opacity=".2" stroke="#CAA23F" stroke-miterlimit="10" stroke-width=".7"/>
    <path d="m25.26 16.01 3.46 4.9" opacity=".2" stroke="#CAA23F" stroke-miterlimit="10" stroke-width=".7"/>
    <path d="m28.32 19.99c8.29 0 12.04 6.95 12.04 12.23 0 7.12-5.59 11.69-11.23 11.2-7.88-0.7-11.92-5.98-11.92-11.57 0-6.44 5.17-11.86 11.11-11.86z" fill="#00C8BE"/>
    <path d="m26.27 42.84 1.11 2.05 7.55-0.85 0.78-2.28-9.44 1.08z" fill="#000" opacity=".2"/>
    <path d="m25.33 43.74c-2.62 1.32-5.31 4.64-5.31 8.5 0 4.34 3.09 7.83 6.99 7.37l10.23-1.88c3.93-1.32 6.7-3.25 6.54-7.82-0.32-4.1-3.04-8.38-6.67-8.5-3.2-0.12-9.05 0.9-11.78 2.33z" fill="#F56D5A"/>
    <path d="m32.07 58.66 1.34 2.39h4.27l-0.47-3.02-5.14 0.63z" fill="#000" opacity=".2"/>
    <path d="m24.93 64.93c0.79-1.84 9.35-4.72 13.06-6.49 4.2-1.94 6.86-2.72 8.52-1.66 1.97 0.95 3.63 7.31 4.83 11.35 0.82 2.96-0.21 4.9-3.13 6.22l-14.34 6.07c-3.59 1.11-4.58-0.51-5.96-3.56-2.01-4.24-4.19-9.03-2.98-11.93z" fill="#F3E8CD"/>
    <path d="m35.98 59.69c0.82 3.77 4.15 9.77 4.19 13.63 0.04 2.67-1.25 3.66-2.26 4.39l4.33-1.91 6.97-3.21c1.76-1.02 1.8-2.92 1.2-5.06-1.31-4.47-3.22-10.1-5.2-10.83-1.55-0.64-3.82 0.24-6.1 1.11l-3.13 1.88z" fill="#000" opacity=".2"/>
    <path d="m39.32 77.21-0.2 2.9 3.63-1.79v-2.18l-3.43 1.07z" fill="#000" opacity=".2"/>
    <path d="m49.81 75.6c11.1-0.54 15.4 9.21 15.4 13.5 0 7.93-7.3 15.52-15.11 15.08-8.69-0.48-13.93-7.86-13.93-13.58 0-7.53 6.15-14.62 13.64-15z" fill="#00C8BE"/>
    <path d="m55.01 101.2c0.43-4.19 3.2-5.15 4.81-6.14l-1.61 2.76-2.18 3.42-1.02-0.04z" fill="#000" opacity=".2"/>
    <path d="m64.62 93.11c2.05-2.93 9.1-3.7 12.85-1.25 6.55 4.23 9.57 7.1 9.32 10.51-0.5 5.67-4.87 18.6-16.08 19.37-4.29 0.31-9.14-3.83-12.6-6.83-3.29-3.72-3.29-12.1 1.7-17.18l4.81-4.62z" fill="#F16351"/>
    <path d="m64.85 92.92c1.06-3.16 7.15-2.83 9.95-1.62 4.63 2.06 11.34 6.18 11.86 9.6 0.13 1.16-2.45 3.28-7.79 2.36-4.06-0.77-15.34-6.31-14.02-10.34z" fill="#F28F82"/>
    <path d="m78.43 116c-0.34-1.72 0.72-4.27 3.49-7.19l3.36 0.37v5.73l-6.85 1.09z" fill="#000" opacity=".2"/>
    <path d="m79.31 109 5.64 1.22v4.43l-6.03-1.49 0.39-4.16z" fill="#DAC0A2"/>
    <path d="m92.11 100.2 13.71-1.78c6.12-0.27 8.86 3.66 9.01 9.99l0.24 11.04c0 5.42-3.93 8.74-8.26 8.74l-12.81 1.02c-6.28 0.26-8.94-3.93-9.17-8.84v-11.68c0-5.8 2.66-8.82 7.28-8.49z" fill="#F8C142"/>
    <path d="m113.8 106 5.45 3.09-0.7 4.33-4.1-0.46-0.65-6.96z" fill="#000" opacity=".2"/>
    <path d="m113.8 105.7 5.35 3.05-0.08 2.46-3.95 1.32-1.32-6.83z" fill="#DAC0A2"/>
    <path d="m111.6 94.42 8.54-6.96c3.43-2.27 9.74-0.78 11.75 0 4.34 1.65 9.18 8.14 10.6 13.65 1.03 4.56-0.87 7.62-5.34 12.11-4.49 4.76-9.06 4.76-11.75 3.58-4.11-1.82-10.78-7.36-12.89-10.58-2.34-3.61-3.1-8.82-0.91-11.8z" fill="#7BB6D1"/>
    <path d="m133.8 88.64 5.78 2.47-0.75 2.5-3.68-1.53-1.35-3.44z" fill="#000" opacity=".2"/>
    <path d="m113.8 99.33c3.63 0.98 6.81 0.58 9.9-1.87l9.99-7.62-1.51-2.83-3.88-0.77-5.98-0.13-9.66 7.65c-2.01 2.15-2.29 4.51 1.14 5.57z" fill="#99C4DA"/>
    <path d="m141 72.26c7.44-0.69 11.19 4.72 11.49 10.65 0.25 5.6-4.74 11.26-10.78 11.2-7.67-0.12-11-5.54-10.96-10.13 0.07-6.07 3.76-11.39 10.25-11.72z" fill="#F56F60"/>
    <path d="m145.2 71.83-2.04 4.31 2.47 0.77 3.56-2.71-3.99-2.37z" fill="#000" opacity=".2"/>
    <path d="m145.7 72.05-1.97 2.86 3.29 1.91 1.89-2.12-3.21-2.65z" fill="#D59751"/>
    <path d="m111.1 41.35c3.75-1.2 13.33 1.49 16.3 5.85 2.47 3.76 0.68 10.72-4.42 11.81-5.52 0.77-12.58-2.99-14.95-4.53-3.56-2.17-2.11-11.32 3.07-13.13z" fill="#F56F5F"/>
    <path d="m118.6 41.73 0.67 3.42 2.99-0.94-1.33-2.48h-2.33z" fill="#000" opacity=".2"/>
    <path d="m119 28.51c5.08-0.54 10.18 1.47 10.87 6.65 0.65 4.66-2.91 8.75-7.71 8.45-6.12-0.37-9.09-3.15-9.09-7.78 0-4.06 2.66-6.92 5.93-7.32z" fill="#F3E6CD"/>
    <path d="m124.7 0h4.46l-4.46 30.18-4.39 1.12 0.49-7.13 3.9-24.17z" fill="#E8D7BC"/>
    <path d="m122.9 7.27 4.8-5.88" opacity=".2" stroke="#B7A28A" stroke-miterlimit="10" stroke-width=".7"/>
    <path d="m122.3 11.51 5.35-7.3" opacity=".2" stroke="#B7A28A" stroke-miterlimit="10" stroke-width=".7"/>
    <path d="m121.5 15.61 5.88-7.09" opacity=".2" stroke="#B7A28A" stroke-miterlimit="10" stroke-width=".7"/>
    <path d="m120.9 19.91 6.01-7.43" opacity=".2" stroke="#B7A28A" stroke-miterlimit="10" stroke-width=".7"/>
    <path d="m120.2 23.9 5.43-7.19" opacity=".2" stroke="#B7A28A" stroke-miterlimit="10" stroke-width=".7"/>
    <path d="m120.4 28.39 4.22-6.07" opacity=".2" stroke="#B7A28A" stroke-miterlimit="10" stroke-width=".7"/>
    <path d="m104.5 54.41c6.36 0.2 9.46 5.51 9.73 11.34 0.23 5.36-5.96 9.68-11.65 9.68-6.46 0-8.8-5.28-8.88-8.34-0.21-7.7 5.2-12.88 10.8-12.68z" fill="#00C8BE"/>
    <path d="m109.8 56.94 5.24 0.44-2.97 5.2-2.66-1.77 0.39-3.87z" fill="#000" opacity=".2"/>
    <path d="m109.7 56.23 5.24 1.07-3.43 5.31-1.81-2.15v-4.23z" fill="#DACBB1"/>
    <path d="m82.83 51.33c4.63-1.22 10.98 2.79 12 8.06l-4.71 12.11c-5.24 3.27-15.55-0.39-16.33-7.21-0.23-3.2 2.12-6.26 3.54-8.19 1.18-1.69 2.58-3.94 5.5-4.77z" fill="#F8C04A"/>
    <path d="m79.91 52.61-3.39 6-0.61-3.19 2.05-2.81h1.95z" fill="#009696"/>
    <path d="m74.99 35.65c6.27-0.69 9.52 5.14 9.72 10.53 0.16 4.63-2.39 7.5-8.6 9.02-6.04 1.69-10.6-0.89-12.26-7.92-1.06-5.11 2.4-11 7.39-11.2l3.75-0.43z" fill="#F66F60"/>
    <path d="m84.06 144c5.13 5.35 3.47 13.96-1 17.82-5.95 5.14-14.65 4.48-19.72-0.38-5.62-5.34-5.23-13.27 0.19-19.3 5.18-5.51 14.75-4.29 20.53 1.86z" fill="#F5E8CE"/>
    <path d="m85.48 151.2-2.77 3.42v3.79l2.77-1.62v-5.59z" fill="#AC6152"/>
    <path d="m96.67 142.6c-5.64-0.21-10.96 4.24-10.96 12.33 0 6.21 5.8 10.43 11.12 10.14 7.03-0.4 11.19-6.91 11.19-11.1 0-6.28-5.17-11.17-11.35-11.37z" fill="#86B9D0"/>
    <path d="m90.01 65.01 2.8-0.6 3.75 1.06 0.53 3.6-2.88-0.27-4.2 0.67v-4.46z" fill="#DACBB1"/>
    <path d="m128.3 152.2c0.55-1.68-1.56-3.17-2.5-5.02l1.43-6.46c0.19-2.01-1.13-2.84-3.45-1.62l-5.09 1.8-6.03-2.55c-1.94-0.92-3.39 0-3.2 1.95l0.6 4.4-4.66 5.4c-1.32 1.74-0.95 3.61 1.64 3.81l5.62 1.57 2.01 5.27c0.96 1.69 3.3 0.96 4.13-1.05l2.7-3.52 4.84-1.11c1.08-0.37 1.64-1.43 1.96-2.87z" fill="#00C8BE"/>
  </g>
  <defs>
    <clipPath id="clip0_1919_989">
      <rect width="200" height="200" fill="#fff"/>
    </clipPath>
  </defs>
</svg>