<svg xmlns="http://www.w3.org/2000/svg" width="200" height="200" fill="none" viewBox="0 0 200 200">
<!-- SVG created with Arrow, by QuiverAI (https://quiver.ai) -->
  <path d="m58.6 14.01 3.8-1.37h2.68l6.67 3.82 5.61 1.04 2.91 3.06 2.78 5.41 10.87 5.12 6.16 9.54 6.44 3.58 5.36 6.52 2.91 0.91v1.82l-2.91 2.57-2.78 0.58-1.73 2.12-4.74 1.03-6.43 1.99-0.43 2.43-4.89 1.42h-5.47l-2.14-0.58-1.5 3.24-3.06 1.36-3.8 0.52h-4.24l-4.9-1.36-4.63-2.05-5.73-0.71-5.56 1.82-5.11 0.94-8.57-0.37-6.15-1.92-0.95-3.51 1.84-1.23-1.84-1.99-3.79-1.65-6.16-0.71-7.11-1.67-1.74-2.5 4.64-2.35 1.02-3.51 3.9-2.02 5.78-7.05 4.3-3.15 2.81-1.48 2.43-5.06 4.07-3.24 5-1.86 7.99-7.77 4.8-0.78 1.59-0.95z" fill="#F7D5DD"/>
  <path d="m99.24 41.92 7.07 2.65 4.84 6.38 3.64 0.77v1.18l-2.68 2.16-2.5-1-1.73 2.75-1.68 1-2.38-0.49-3.22 0.93-1.36-1.44 1.53-3.79-9.08-3.51-5.11-13.02-5.46-5.66 0.11-9.77-2.2-2.21-4.79-1.46-5.11-1.71-3.8-2.68-3.63 0.37-4.42 1.82 2.6 1.63 2.04 0.4 1.58 6.47 2.78 5.65-1.27 5.38-2.97 2.54-3.38-0.29-4.9-3.88-3.22 8.94 2.37 4.92 3.21-4.22 1.55-1.22 1.27 1.22 3.8-0.46 3.91 2.11 1.16-0.7 3.16 2.15 0.54-0.99 2.73 2.16 1.95 4.93 1.6 1.38 1.27 5.52 3.91 0.78 1.95 1.74 4.34 0.91 1.07 1.36 4.43-0.71 3.16-2.75-0.73-2.37 1.95-1.28 1.32 0.83 2.37-2.26 2.91 0.71 2.14-1.62 1.27-2.45-3.63-4.46-4.13-1.94-2.91-0.94 0.76-2.46z" fill="url(#paint0_linear_5447_8250)"/>
  <path d="m25.74 57.49-4.84-0.88-0.84-2.43-2.68-1.1 1.37-2.87 2.37-1.1 0.33-2.39 5.05-3.43-0.48-2.21 2.05-3.88 3.39-1.1-0.85 1.56 3.52 1.25 1.27 1.17-2.68 1 2.37 1.13 4.02 0.7-1.5 2.87 0.75 1.28 4.52-4.94v-1.27l0.85 0.46-1.68 4.53-3.91 4.37 1.08 1.42-3.39 5.38-3.11 2.5-2.37 4.4-2.32-2.95-2.29-3.47z" fill="url(#paint1_linear_5447_8250)"/>
  <path d="m52.07 44.49 1.58 2.43 3.69-4.83 3.11 0.71 4.79 0.77 1.49 2.75 1.49 1.9-3.14 5.66-5.67 0.46-1.68 1.36 2.04 3.24-1.44 1.07 2.78 4.61-1.01 0.83-6.45-0.83-6.27 1.42-1.72-1.42 1.4-2.3-2.43-3.51 1.58-1.71 3.85 1.42 1.85-1.42-0.95-5.1 1.11-7.51z" fill="url(#paint2_linear_5447_8250)"/>
  <path d="m96.04 81.28-0.3 0.18-0.82-0.29-1.89 0.44-3.8 0.99-4.9 2.56-9.42 7.77-7.82 3.19-15.82 0.88-10.59 3.63-5.67 3.35-1 3.03 0.89 1.83 4.63 1.36-9.08 4.19-12.33 4.57-7.85 6.75-6.95 9.09-0.32 4.15 1.54 5.89 4.25 5.78 5.05 3.1 13.58 3.06 3.8-0.62 2.63 1.45-0.55 4.82-5.11 3.71-1.54 2.79-4.47 1.93-5.98 0.77-1.29 2.15 1.02 2.23 2.96 1.62h5.62l6 0.78 6.54-0.84 5.43-1.56 4.95 1.3 9.02-1.54 8.26-2.05 7.76-3.58 6.15-7.33 1.13-4.88-2.73-4.43-5.16-3.99-6.44-3.92v-2.25l2.42-3.43 5.11-2.5 5.37-1.17 3.01 0.89h6.16l3.39-1.12 3.27 3 5.66 0.9 7.29 1.7 7.59 3.64 7.93 1.47 7.11-0.11 2.58-0.94 1.54 1.48h3.27l4.79-1.48 4.63-3.45 3.47-0.83 6.78 0.65 5.93-1.23 5.27-0.95 2.91-2.75v-1.1l-3.42-1.41-4.29-1.93-5.16-6.52-4.07-1.55-2.42-2.29-8.26-2.75-5.83-5.89-4.99-1.16-4.34-0.21-2.68-5.24-6.31-4.93-5.16-8.83-7.94-7.27-7.47-4.53-2.52-0.22z" fill="url(#paint3_linear_5447_8250)"/>
  <path d="m106.2 90.83 7.43 3.18 4.24 7 5.93 2.85 1.64 4.25 2.73 2.43 1.22 2.87-3.11 2.04-2.77 2.07-5.42 1.06-2.37 1.61-1.58 2.87-6.67 2.45-6.44 6.69-6.73 2.46-2.5-0.94-1.79 0.77 1.36-2.46 3.42-1.22 0.9-2.42-1.9-1.67h-3.9l-2.32 1.13-5.56-0.56-5.11 1.22 0.47-2.88 4.35-4.57 3.05-3.05 1.59-7.11 3.53-2.09h2.6l3.32-1.28 2.53 0.94 0.85-3.24 4.07 1.48-1.69-6.01-5.48-3.7 3.02-0.37 3.47-2.1 0.32-2.81-1.64-2.44 2.23-1.22 2.71 2.77z" fill="url(#paint4_linear_5447_8250)"/>
  <path d="m133 113.6 3.72-0.14 5.51 5.41 9.4 3.24 2.63 2.56 3.21 1.22 2.38 5.48 3.9 3.16 6.38 1.22 0.95 1.57-1.99 2.87-3.58 1.05-1.44-1.38 3.47-1.75-0.38-0.79-5.26 2.54-7.53 0.56-4.24-1.18-4.02 4.57-6.15 3.3-3.53-0.39-0.85-1.98-3.11 1.22-5.56 0.62-8.97-1.42-3.16-3.69-8.25-1.36-4.33 1.22-4.64-0.47-2-1.36-5.36 0.46-1.27-1.22 0.22-1.04 1.79-0.12 1.55 0.82 2.96-3.3 3.37-1.22 5.31-6.8 4.48-0.94 3.42-1.61 3.01-4.46 3.96-0.77 2.19-2.11 5.05-0.53 3.53-3.11 3.23 0.05z" fill="url(#paint5_linear_5447_8250)"/>
  <path d="m134.1 105.7-3.58 0.29 8.09 2.59 3.48-0.41 2.14-2.18 5.99 0.77 5.17 1.03 4.79-0.77 6.85-1.36 3.47-4.57 5.51-0.37 3.41 1.04 5.84-1.67 2.19-1.76 3.69 0.62 3.47 0.34 3.42-1.17v-1.53l-2.27-1-1.9-0.27-2.86-3.33-2.09-1.48-1.55-2.58-2.32-0.94-1.89-0.89-3.9-3.92-1.41-3.69-2.73-2.4-3.91-1.27-0.61-4.63-6.16-3.78-3.97-1.53-8.42-9.17-4.9-4-6.21-2.73-4.19 1.12-5.22 1.6-4.66-0.49-9.35 6.17-1.79 3.16-3.63 1.87-4.02 5.89-3.74 3.29-3.63 5.19-3.91 2.16-1.54 3.88 2.37 0.77 5.37 1.3 3.22 2.81 5 4.14 1.9 0.9 4.08 6.21 4.52 3.79 4.48 1.76 7.91 1.2z" fill="url(#paint6_linear_5447_8250)"/>
  <path d="m198 97.41-2.24-1.36-3.01-0.28-3.53-3.07-1.36-2.49-3.19-1.7-1.5 1.82-2.37-3.71-3.42-1.04-0.33-2.16-2.09-0.36-2.09-1.89-1.16 2.09 0.78 1.71-1.37 2.08 0.59 1.64-2.88 1.93-1.67 3.09-3.91 0.31-3.01 2.92 3.16 1.17 3.47 1.12 4.36-3.83 5.27 1.61 5.46 0.83-2.08 1.98 4.19 0.12 3.01-1.93 2.52 0.77 3.01 0.28 2.32-0.34 3.07-1.31z" fill="url(#paint7_linear_5447_8250)"/>
  <path d="m138 94.13 4.24-4.96 3.91-2.88 3.1 0.72 4.08 3.43 2.73-5.42 3.58-1.83-2.03-3.79-2.53 0.39-1.8 3.15-3.42-4.31-0.48-4.53-2.63-3.89 1.68-5.37-1.26-3.52 1.84-4.19 1.54-0.99 2 1.76 0.4 2.59 3.53 3.72 1.41 3.93 3.27-0.17 3.58-0.37 3.11 2.61 0.95 3.51 2.68 2.34 3.69 1.48 1.07 1.42 1.01 3.64-3.47 0.66-1.99 3.58-1.44 3.24-2.44 0.94-3.91 2.16-3.49 0.99-3.75 1.57-4.3 0.6-5.65 1.42-6.05 0.35-3.58-1.04 0.82-2.94z" fill="url(#paint8_linear_5447_8250)"/>
  <path d="m124.6 56.02 4.38-3.62 2.68-0.49-2.33 3.25-2.19 1.45-0.72 5.08 2.56 3.1-2.85-0.38-3.52-2.95 0.03-2.79 1.96-2.65z" fill="#D6E4B5"/>
  <path d="m114.7 75.62 5.06-0.71 2.96 1-5.05 6.18-3.28 0.11-1.02-4.49 1.33-2.09z" fill="#FEED98"/>
  <path d="m132.3 59.76 2.37-1.65 1.94 0.41-2.78 7.39-2.57 1.17-0.85-1.28 1.89-6.04z" fill="#FEFFFE"/>
  <path d="m3.28 77.25 6.62-3.48 2.42-4.77 4.79 3.94 7.12-0.43 0.68 6-1.68 3.69 1.39 4.42-8.26-1.6-7.95 4.43-0.78-6.37-4.63-1.68 0.28-4.15z" fill="#F2D676"/>
  <path d="m24.43 73.34 0.19 5.17-2.43 2.61-6.15-1.72-7.29 3.81-0.57-5.5-4.08-1.86 7.71-2.74 1.12-4.11 4.68 3.94 6.82 0.4z" fill="#F7EC98"/>
  <path d="m5.76 76.5-2.48 0.76-0.75 3.47 0.9 0.93 4.35 1.28 0.51 3.77 0.92 2.57-0.47-6.2-2.98-1.57v-5.01z" fill="#E4B585"/>
  <path d="m16 82.03-8.04 5.37 0.83 1.88 7.35-4.63 8.31 1.44 0.17-2.48-8.62-1.58z" fill="#B4CC92"/>
  <path d="m119.3 32 5.47 0.31 5.67-4.88 2.86 4.88 7.35 1.48 0.43 4.37-3.91 3.36-0.49 4.37-7.06-2.87-9.19 2.87-0.53-4.98-0.9-6.18 0.3-2.73z" fill="#D296B1"/>
  <path d="m130.3 27.43 2.58 4.71 7.38 1.71-0.9 5.26-1.68 0.95-1.68-4.37-7.81-0.41-6.05 1.66-1.94-4.2 4.6-0.6 5.5-4.71z" fill="#D6A9C3"/>
  <path d="m119.7 32.84 3.3 4.05-1.94 3.79-1.72-4.47 0.36-3.37z" fill="#B94371"/>
  <path d="m129.1 38.65 5.11 2.26 2.47 4.93-6.58-2.5-1.89-3.88 0.89-0.81z" fill="#9CB7D3"/>
  <path d="m146.9 17.84 3.91-0.45 0.95 2.42h2.32l0.42-2.42h2.96l0.71 2.42h2.73l0.84-2.42h2.68l2.73 18.31-1.44 1.22-2.48 1.05-6.44 0.24-6.15-0.58-4.24-1.81-0.55-1.76 1.05-16.22z" fill="url(#paint9_linear_5447_8250)"/>
  <path d="m152.8 22.71 2.64-0.46 2.63 1.12 2.85 0.23 2.32 1.12 0.66 11.66-1.89 1.12-4.03 0.3-4.68-0.37-0.84-1.62 0.34-13.1z" fill="url(#paint10_linear_5447_8250)"/>
  <path d="m161.3 24.14 1.01 0.17 1.11 2.69-0.37 2.09-2.37-0.48-0.38-1.55 1-2.92z" fill="#739FA5"/>
  <path d="m147.2 18.13 2.19-0.43 0.47 2.43 1.89 0.43 1.64-0.66 0.17-2.2 1.54-0.29 0.76 2.78 1.9 0.52 2.19-0.7 0.85-2.31 2.13 0.05 0.76 0.53 1.54 8.66 0.22 6.67-1.99 1.93-1.49 1.63 3.59-0.79 1.64-1.57-1.01 1.99-4.15 1.36-5.31-0.12-5.67-0.61-3.91-1.89-0.85-2.1 0.9-15.31z" fill="url(#paint11_linear_5447_8250)"/>
  <path d="m158.4 46.02 1.67-1.1 1.37 0.32 3.22-3.64 4.9-2.6h5.11l5.99 3.15 2.63 2.29-1.37 2.75 2.83 1.66v1.56l-2.24 1.11-3.8-1.26-3.53 2.56-1.37 3.5h-3.64l-3.97-3.3-2.58-0.06-2.09 1.56h-4.47l-1.54-1.5 1.54-4.86 1.34-2.14z" fill="url(#paint12_linear_5447_8250)"/>
  <path d="m158.1 50.09 0.54-0.89 2.9 0.31 1.59 0.63-0.95 0.99-2.68-0.41-1.4-0.63z" fill="#A3CC8B"/>
  <path d="m163.6 45.73 2.57-0.89 2.78 1.56-0.06 3.05-2.72 0.06-2.68-1.84 0.11-1.94z" fill="#8CB579"/>
  <path d="m170.1 45.61 5.16-0.6 2.47-2.69 1.33 1.22-1.01 4.62-5 1.04-2.95-1.48v-2.11z" fill="#8CB579"/>
  <path d="m180.6 44.49-1.01 2.51 0.9 0.41 1.95-1.18-0.58-1.85-1.26 0.11z" fill="#8CB579"/>
  <path d="m152.7 169.8 1.68-20.09 1.11-0.52 1.21 0.52 1.02-1.03h1.41l0.75 1.54h1.95l0.66-1.32 1.73 0.43 1.06 5.14 11.55-0.56 1.02-5.01 1.68-0.22 0.78 1.54h1.95l1.01-1.32 2.58 0.43 2.73 19.64-0.8 1-3.59 1.51h-3.96l-3.8-1.87-6.3-0.35-4.34 1.42-6.53 0.71-5.57-1.32-0.99-0.27z" fill="url(#paint13_linear_5447_8250)"/>
  <path d="m154.4 150.2-0.9 18.38 2.73 1.53 3.75 0.49 0.92-2.22-0.9-1.86 1.12-2.56-2-1.93 1.58-5.63-1.73-0.34-1.4 2.05-0.49-3.3 1.63-2.69-2.53-0.99-1.78-0.93z" fill="url(#paint14_linear_5447_8250)"/>
  <path d="m165.6 155.2 1.54-0.72 9.92-0.43-1.01 14.02-5.74 0.78-3.85-1.1-0.86-12.55z" fill="url(#paint15_linear_5447_8250)"/>
  <path d="m180.2 156.3 1.27-1.18 1.95 0.24 1.16 1.71-0.95 3.15-2.42 0.33-1.37-1.61 0.36-2.64z" fill="#81B7D1"/>
  <path d="m185.5 153.7 1.27 1.5 0.66 7.09-2.53 6.53 2.92-0.32 0.71 0.49-1.41 1.18-4.95 1 1.89-4.14 1.44-13.33z" fill="#91BFDC"/>
  <path d="m124.9 165.2-3.8-0.6-1.12 0.43-0.84 1.42-0.06 3.35 2.09 2.04 2.63-0.17 0.89 1.76-1.74 2.75 0.62 3.62 2.58 2.25 2.37-2.81 2.58 2.81 4.79 1.89 2.68 2.39 3.79 0.18 1.32-3.79 3.53-1.98 2.09 0.66 0.71-1.77-1.44-0.83 1.27-1.87 1.07-0.43 0.17-1.71-3.27-2.59-3.79-2.1-4.69-4.11-1.36-1.16h-3.16l-3.58 1.62-3.58 0.17-2.75-1.42z" fill="url(#paint16_linear_5447_8250)"/>
  <path d="m126.8 169.5 2.37-1.41 4.79 0.29 2.48 1.98-3.38 3.16-2.82-0.72-2.48-2.87-0.96-0.43z" fill="#82B55D"/>
  <path d="m132.9 174.9 2.52-1.42 4.13-0.47 1.12 3.95-3.27 1.09-3.01-1.32-1.49-1.83z" fill="#82B55D"/>
  <path d="m141.6 170.9 3.16 1.29 2.28 3.19-1.54 2.6-2.78-0.89-1.49-3.51 0.37-2.68z" fill="#82B55D"/>
  <path d="m126.2 174.3 1.02 3.02-1.49 2.64-1.73-0.77-0.26-2.44 1.26-2.03 1.2-0.42z" fill="#82B55D"/>
  <path d="m140.1 182.4 2.04 0.83 0.54 2.37-2.05 0.06-1.89-2.67-0.76-1.36 2.12 0.77z" fill="#82B55D"/>
  <path d="m90.99 155.1 6.61-3.48 2.43-4.77 4.79 3.94 7.11 0.66 1.18 4.18-2.86 3.36 2.68 4.19v2.14l-2.27 0.56-7.06-2.44-7.12 4.41-0.71-7.1-5.93-1.76 1.15-3.89z" fill="url(#paint17_linear_5447_8250)"/>
  <path d="m100.1 152.4 5.41-0.23 6.15 0.23-2.18 4.96 2.42 6.6-3.22-1.17-4.79-3.88-6.49 4.93-0.79-6.79 3.49-4.65z" fill="#D99BB5"/>
  <path d="m3 137.4 2.04 7.7 4.25 4.83 5 2.79 5.88 0.71-3.16-2.38 4.07 0.29 0.85-0.73-1.9-0.93-3.8-1.88-5.96-15.08 5.05-7.71 3.64 0.29v-2.25l1.89-2.4-5.53-0.58-8.31 8.31-4.01 6.27v2.75z" fill="url(#paint18_linear_5447_8250)"/>
  <path d="m38.09 73.6 1.17-0.55h2.85l4.74 1.48 4.19 0.83 1.12-1.26 2.96-0.38h2.82l1.01 0.89 0.42 1.24v1.66l-2.32 2.59-3.63 0.82 0.49 2.58 1.44 2.75-0.96 3.66-1.59 0.77-1.68-2.75-2.09 1.81-6.32 1.63-3.96 3.05-1.78-0.49-0.11-2.5-2.05-2.32-2.19 0.52-2.37-1.36 1.27-2.02-2.91-2.45 0.54-1.77 4.24-1.22 2.73-3.79 1.97-3.42z" fill="url(#paint19_linear_5447_8250)"/>
  <path d="m60.17 133.7-4.68 4-0.95 3.42 1.36 4.68 4.47 4.01 5.52 1.3 3.85 6.48-2.63 8.59-6.21 3.73-8.37 0.29-4.62 2.6-2.73-2.6-3.07 0.44 0.9-2.37 3.42-3.24 3.48-8.99-1.37-6.31-8.31-7.33-1.01-8.81 3.79-6.48-1.89-5.12-4.95-1.88-4.47 3.04-5.27 4.15-2.91 3.78-3.22-1.16 0.22-3.19 1.54-0.72-1.89-1.66 3.63-3.4-2.09-3.36 9.23-3.58 7.2-3.3 10.27-2.5 8.04-3.04 3.37-2.02 3.32-1.05-1.07 1.8-6.72 4.31 1.64 1.83 8.26-4.87 9.55-2.25 7.38-6.83 7.59-0.49 5.94 2.29-2.96 1.12 5.46 1.82-1.37 6.52-4.89 0.94-4.9 1.58-1.64 6.21-6.15 5.32-2.31 5.1-5.47 1.53-5.47 1.98-5.84 3.69z" fill="url(#paint20_linear_5447_8250)"/>
  <path d="m146.8 146.6 1.31-1.42 3.32-0.56 3.01 0.33 0.9 1.22-1.99 1.36-5.24 0.37-1.31-1.3z" fill="#B9DBAC"/>
  <path d="m172.5 140.3 1.68-1.42 2.96 0.24 0.61 0.89-1.07 1.32h-2.83l-1.35-1.03z" fill="#BDDAA1"/>
  <path d="m187.7 108.5 1.58 0.13-0.22 0.94-1.36-0.29v-0.78z" fill="#E7C4D9"/>
  <path d="m172.6 108.3 2.58-2.27 0.9-0.93 3.42 0.17 4.58 1.36 0.95 2.05-1.12 1.35-3.32-0.66-3.8 0.66-3.32 0.25-0.87-1.98z" fill="url(#paint21_linear_5447_8250)"/>
  <path d="m144.5 110.9 2.62-2.09 2.58-0.15 1.89 0.94 0.54 1.3-2.04 1.28-4.79 0.56-0.8-1.84z" fill="url(#paint22_linear_5447_8250)"/>
  <path d="m3 55.16 2.23-1.54 3.06 0.99v1.53l-2.23 0.88-2.14-0.41-0.92-1.45z" fill="url(#paint23_linear_5447_8250)"/>
  <path d="m18.84 63.68 2.18-1.59 3.16 0.11 1.68 1.59-1.12 1.52-3.63 0.43-1.94-0.77-0.33-1.29z" fill="url(#paint24_linear_5447_8250)"/>
  <path d="m75.13 72.94 1.21-0.83 1.95-0.17 1.07 0.88-0.71 0.99-2.42 0.11-1.1-0.43v-0.55z" fill="#97C5DF"/>
  <path d="m83.78 70.51 2.32-1.65 2.52-0.11 2.05 0.99 0.05 1.42-1.42 0.55-3.96-0.17-1.99-0.49 0.43-0.54z" fill="#94C7E1"/>
  <defs>
    <linearGradient id="paint0_linear_5447_8250" x1="63.29" x2="63.29" y1="13" y2="63.91" gradientUnits="userSpaceOnUse">
      <stop stop-color="#D2ECFA" offset="0"/>
      <stop stop-color="#B3D9EE" offset=".484"/>
      <stop stop-color="#A2D1E6" offset="1"/>
    </linearGradient>
    <linearGradient id="paint1_linear_5447_8250" x1="29.8" x2="29.8" y1="36.1" y2="63.91" gradientUnits="userSpaceOnUse">
      <stop stop-color="#F4B6CB" offset="0"/>
      <stop stop-color="#E88FA7" offset="1"/>
    </linearGradient>
    <linearGradient id="paint2_linear_5447_8250" x1="56.2" x2="56.2" y1="37.2" y2="66.04" gradientUnits="userSpaceOnUse">
      <stop stop-color="#E0B1CC" offset="0"/>
      <stop stop-color="#F3B9D2" offset="1"/>
    </linearGradient>
    <linearGradient id="paint3_linear_5447_8250" x1="90.32" x2="90.32" y1="81.16" y2="178.4" gradientUnits="userSpaceOnUse">
      <stop stop-color="#B8D4E2" offset="0"/>
      <stop stop-color="#DCF4FE" offset=".51"/>
      <stop stop-color="#FCE2D5" offset="1"/>
    </linearGradient>
    <linearGradient id="paint4_linear_5447_8250" x1="106.1" x2="106.1" y1="88.06" y2="134.7" gradientUnits="userSpaceOnUse">
      <stop stop-color="#D2E7D9" offset="0"/>
      <stop stop-color="#D3EEB6" offset=".43"/>
      <stop stop-color="#F7EA91" offset="1"/>
    </linearGradient>
    <linearGradient id="paint5_linear_5447_8250" x1="131.3" x2="131.3" y1="112.5" y2="146.8" gradientUnits="userSpaceOnUse">
      <stop stop-color="#C2E0B5" offset="0"/>
      <stop stop-color="#C4E5B0" offset=".51"/>
      <stop stop-color="#A7D3A0" offset="1"/>
    </linearGradient>
    <linearGradient id="paint6_linear_5447_8250" x1="146.6" x2="146.6" y1="49" y2="108.6" gradientUnits="userSpaceOnUse">
      <stop stop-color="#CFE7D9" offset="0"/>
      <stop stop-color="#F6E9B7" offset=".51"/>
      <stop stop-color="#C7DCE8" offset="1"/>
    </linearGradient>
    <linearGradient id="paint7_linear_5447_8250" x1="171.5" x2="171.5" y1="83.06" y2="99.94" gradientUnits="userSpaceOnUse">
      <stop stop-color="#F0A7C3" offset="0"/>
      <stop stop-color="#F0B0C3" offset="1"/>
    </linearGradient>
    <linearGradient id="paint8_linear_5447_8250" x1="152.6" x2="152.6" y1="56.14" y2="99.23" gradientUnits="userSpaceOnUse">
      <stop stop-color="#BDD4EA" offset="0"/>
      <stop stop-color="#B6D2E9" offset=".51"/>
      <stop stop-color="#96C4DF" offset="1"/>
    </linearGradient>
    <linearGradient id="paint9_linear_5447_8250" x1="156.6" x2="156.6" y1="17.39" y2="38.21" gradientUnits="userSpaceOnUse">
      <stop stop-color="#F7E6A8" offset="0"/>
      <stop stop-color="#95C0CC" offset="1"/>
    </linearGradient>
    <linearGradient id="paint10_linear_5447_8250" x1="158.2" x2="158.2" y1="22.25" y2="37.8" gradientUnits="userSpaceOnUse">
      <stop stop-color="#DDE8AF" offset="0"/>
      <stop stop-color="#B0C997" offset="1"/>
    </linearGradient>
    <linearGradient id="paint11_linear_5447_8250" x1="156.8" x2="156.8" y1="17.41" y2="38.16" gradientUnits="userSpaceOnUse">
      <stop stop-color="#E1E5B6" offset="0"/>
      <stop stop-color="#B5D0D4" offset="1"/>
    </linearGradient>
    <linearGradient id="paint12_linear_5447_8250" x1="170.1" x2="170.1" y1="39" y2="56.32" gradientUnits="userSpaceOnUse">
      <stop stop-color="#D9E7B0" offset="0"/>
      <stop stop-color="#7CB36A" offset="1"/>
    </linearGradient>
    <linearGradient id="paint13_linear_5447_8250" x1="170.7" x2="170.7" y1="148.7" y2="171.5" gradientUnits="userSpaceOnUse">
      <stop stop-color="#DB7995" offset="0"/>
      <stop stop-color="#F0B7C3" offset=".51"/>
      <stop stop-color="#F6D2B7" offset="1"/>
    </linearGradient>
    <linearGradient id="paint14_linear_5447_8250" x1="157.3" x2="157.3" y1="149.2" y2="170.6" gradientUnits="userSpaceOnUse">
      <stop stop-color="#F6D576" offset="0"/>
      <stop stop-color="#F3B8C1" offset="1"/>
    </linearGradient>
    <linearGradient id="paint15_linear_5447_8250" x1="171.9" x2="171.9" y1="154" y2="168.8" gradientUnits="userSpaceOnUse">
      <stop stop-color="#E196B2" offset="0"/>
      <stop stop-color="#D1B8D3" offset="1"/>
    </linearGradient>
    <linearGradient id="paint16_linear_5447_8250" x1="135.1" x2="135.1" y1="164.6" y2="186.5" gradientUnits="userSpaceOnUse">
      <stop stop-color="#BFDFB6" offset="0"/>
      <stop stop-color="#78B065" offset="1"/>
    </linearGradient>
    <linearGradient id="paint17_linear_5447_8250" x1="101.5" x2="101.5" y1="146.8" y2="167.8" gradientUnits="userSpaceOnUse">
      <stop stop-color="#D88AAC" offset="0"/>
      <stop stop-color="#CA92A9" offset="1"/>
    </linearGradient>
    <linearGradient id="paint18_linear_5447_8250" x1="13.35" x2="13.35" y1="120.1" y2="153.4" gradientUnits="userSpaceOnUse">
      <stop stop-color="#D0E1F2" offset="0"/>
      <stop stop-color="#DFBBD0" offset=".43"/>
      <stop stop-color="#E9B5C6" offset="1"/>
    </linearGradient>
    <linearGradient id="paint19_linear_5447_8250" x1="43.99" x2="43.99" y1="73.05" y2="94.42" gradientUnits="userSpaceOnUse">
      <stop stop-color="#C2E0F0" offset="0"/>
      <stop stop-color="#94C4DF" offset=".43"/>
      <stop stop-color="#81B7D1" offset="1"/>
    </linearGradient>
    <linearGradient id="paint20_linear_5447_8250" x1="48.37" x2="48.37" y1="102.1" y2="172.8" gradientUnits="userSpaceOnUse">
      <stop stop-color="#D3E5CD" offset="0"/>
      <stop stop-color="#FCEA99" offset=".51"/>
      <stop stop-color="#F6B9C9" offset="1"/>
    </linearGradient>
    <linearGradient id="paint21_linear_5447_8250" x1="178.8" x2="178.8" y1="105.1" y2="110.3" gradientUnits="userSpaceOnUse">
      <stop stop-color="#EBB1C1" offset="0"/>
      <stop stop-color="#E795A9" offset="1"/>
    </linearGradient>
    <linearGradient id="paint22_linear_5447_8250" x1="148.3" x2="148.3" y1="108.7" y2="112.7" gradientUnits="userSpaceOnUse">
      <stop stop-color="#ADC6E1" offset="0"/>
      <stop stop-color="#76A4C2" offset="1"/>
    </linearGradient>
    <linearGradient id="paint23_linear_5447_8250" x1="5.645" x2="5.645" y1="53.62" y2="57.02" gradientUnits="userSpaceOnUse">
      <stop stop-color="#F0B6C8" offset="0"/>
      <stop stop-color="#EBB8C7" offset="1"/>
    </linearGradient>
    <linearGradient id="paint24_linear_5447_8250" x1="21.85" x2="21.85" y1="61.98" y2="65.74" gradientUnits="userSpaceOnUse">
      <stop stop-color="#EBA2B6" offset="0"/>
      <stop stop-color="#E59DB6" offset="1"/>
    </linearGradient>
  </defs>
</svg>