<svg xmlns="http://www.w3.org/2000/svg" width="200" height="200" fill="none" viewBox="0 0 200 200">
<!-- SVG created with Arrow, by QuiverAI (https://quiver.ai) -->
  <path d="m189.7 124.7-0.01 14.29c0 4.46-2.69 7.16-5.78 8.6l-100.2 48.02c-4.64 2.29-9.49 2.15-13.46-0.21-2.04-1.17-3.82-2.72-5.25-4.59l0.31-1.01-43.96-45.53c-1.01-1.07-2.46-2.55-2.48-5.71l0.02-17.85-8.17-9.44c-1.61-2.11-2.17-4.43-1.61-7.34l13.43-55.16c1.19-4.28 3.92-8.68 9.71-11.22l114.8-34.56c3.37-1.07 5.76-0.15 7.5 2.42l6.52 8.44c1.67 2.26 1.08 4.89 0.13 6.83l-20.7 50.09c-0.54 1.29-1.49 2.03-2.57 2.41 2.32 0.48 4.46 1.66 6.14 3.44l43.72 39.89c2.93 2.96 3.17 5.93 1.96 8.19z" fill="#00969B" fill-opacity=".25"/>
  <path d="m190 123.8-0.02 14.8c-0.04 4.34-2.57 7.54-6.2 9.1l-100.1 48.34c-5.38 2.5-10.39 1.59-14.27-1.65l-4.91-4.86-43.38-45.84c-0.86-1.04-0.41-3.92 3.43-4.71 2.49-0.53 4.86 0.02 6.73 1.89l21.82 23.55c6.74 6.48 9.7 14.7 9.64 24.4l6.32 6.11c1.62 1.45 4.07 1.79 5.38 1.64l-0.07-23.5 114.7-48.9 0.88-0.37z" fill="url(#paint0_linear_1_1021)"/>
  <path d="m62.87 188.9-41.78-45.29c-0.83-0.97-0.81-3.13 2.19-4.22 2.73-0.99 5.68-0.43 7.66 1.52l22.99 24.38c6.15 6 9.26 14.01 8.94 23.61z" fill="#F57359"/>
  <path d="m150.4 146.2-0.64 3.68c-0.87 3.51-2.83 6.26-7.11 8.33l-13.57 6.52c-4.64 2.14-8.2 0.35-8.59-4.11l0.16-1.24 29.75-13.18z" fill="#F57359"/>
  <path d="m187.6 117.1-42.62-41.15c-2.83-2.66-5.93-3.32-8.19-3.2 1.45-0.72 2.14-1.96 2.59-3.1l21.58-49.21c1.76-3.85-0.53-7-4.91-6.54l-0.75 0.1-67.91 22.13-43.83 14.18c-6.21 2.04-10.73 6.86-12.58 13.88l-12.87 49.56c-1.02 3.6 0.07 6.56 1.93 8.84l46.69 50.69c4.48 4.56 11.42 5.49 17.65 2.72l100.9-45.63c5.17-2.49 6.48-9.08 2.32-13.27z" fill="#F9BD55"/>
  <path d="m179.9 119.1-39.71-38c-2.7-2.69-5.8-3.41-10.19-1.96l-98.03 38.53c-4.67 1.98-4.79 5.49-2.26 7.83l41.44 42.66c3.25 3.1 8.01 3.07 12.84 0.87l95.31-41.76c3.85-1.79 3.91-5.06 0.6-8.17z" fill="#DA9B4E"/>
  <path d="m179.9 120.3-39.06-37.21c-2.7-2.7-5.79-3.47-10.18-2.02l-97.67 37.94c-4.83 1.86-4.69 4.17-2.16 6.51l41.64 41.97c3.12 2.96 6.57 2.35 11.31 0.05l94.99-41.7c3.84-1.79 3.98-2.84 1.13-5.54z" fill="#F9D9A1"/>
  <path d="m157.4 14.32-2.27-0.18-37.55 12.7c2.38 5.29 1.24 9.75-4.62 11.5l-16.17 4.74c-4.31 1.21-8.33-0.8-9.63-5.26l-41.83 13.25c-7.56 2.38-12.28 7.71-14.37 15.17l-12.18 47.52c-0.6 2.66-0.1 4.64 0.86 6.06-0.39-2.61 1.25-5.05 4.38-6.1l106.3-40.31c3.29-1.28 5.78-2.27 7.39-6.3l22.58-46.99c1.58-3.32 0.62-5.42-2.87-5.8z" fill="#F3B04D"/>
  <path d="m150.9 21.71-31.02 10.13 1.81 0.75-4.66 6.52-4.83 0.82-0.62 1.03 7.31-0.92 5.19-7.12 8.85-2.74 5.44-1.98 6.21-2.84 6.32-3.65z" fill="#E0993A"/>
  <path d="m151.3 21.7c-2.1-0.29-4.5 1.16-6.38 1.86l-13.72 33.44c-1.95 4.97-5.11 7.77-9.01 9.07l6 6.35 2.04-0.72c2.7-1.02 4.28-2.42 5.54-5.71l17.26-40.88c0.73-1.79 0.29-3.2-1.73-3.41z" fill="#D18935"/>
  <path d="m151.8 22.03c-0.95-0.87-3.05 0.08-6.55 1.23l-1.48 0.55-12.44 32.8c-2.11 5.83-5.33 8.41-9.52 9.99l-45.39 16.93c-4.62 1.57-6.22-2.16-4.72-6.62l2.18-6.09-4.42 2.18c-4.55 1.87-8.56 0.88-11.09-3.23-3.97-5.88-9.59-7.49-18.36-5.04l-1.71 0.44-12.87 45.02c-0.65 2.45-0.38 3.53 2.32 2.64l99.68-39.65c3.71-1.52 7.25-2.57 9.03-7.1l16.22-41c0.92-2.01 0.23-2.44-0.88-3.05z" fill="#F4725B"/>
  <path d="m125.3 33.86 6.4-0.36 1.96 3.69-5.7 7.38-5.36 0.25-2.24-4.19 4.94-6.77z" fill="#EFA835" stroke="#B77229" stroke-linecap="round" stroke-linejoin="round" stroke-width=".5"/>
  <path d="m114.2 42.06 5.81 0.15 1.65 4.02-5.49 6.84-5.81 0.55-1.89-4.41 5.73-7.15z" fill="#EFA835" stroke="#B77229" stroke-linecap="round" stroke-linejoin="round" stroke-width=".5"/>
  <path d="m101.6 50.62 5.55-0.39 2.34 4.18-4.38 5.7-6.05 0.5-2.17-3.24 4.71-6.75z" fill="#EFA835" stroke="#B77229" stroke-linecap="round" stroke-linejoin="round" stroke-width=".5"/>
  <path d="m113 53.24 5.33-0.8 1.52 4.38-3.9 5.19-6.52 1.89-2.17-4.13 5.74-6.53z" fill="#EFA835" stroke="#B77229" stroke-linecap="round" stroke-linejoin="round" stroke-width=".5"/>
  <path d="m125.6 45.11 4.49-0.37 1.45 3.32-4.76 6.75-5.47 0.89-1.89-3.69 6.18-6.9z" fill="#EFA835" stroke="#B77229" stroke-linecap="round" stroke-linejoin="round" stroke-width=".5"/>
  <path d="m26.58 41.53c1.76-2.27 4.1-4.06 7.26-4.8l113.2-33.72c3.18-0.9 5.65-0.3 7.46 2.3l6 8.32c1.2 1.64 0.42 1.48-1.34 0.98-1.19-0.35-3.05-0.45-5.22 0.24l-36.87 11.76c2.36 5.52 1.02 10.42-5.08 12.06l-14.84 4.11c-4.76 1.38-8.72-0.74-9.82-4.77l-42.31 13.17c-4.12 1.33-6.75 3.09-7.89 4.54l-10.54-14.19z" fill="url(#paint1_linear_1_1021)"/>
  <path d="m11.22 110.6 7.7 9.46 0.17-3.28c-0.13-1.76-0.03-2.6 0.81-4.58l11.11-46.92c1.16-5.1 3.27-8.28 5.8-9.98l-10.02-13.8c-2.38 2.38-3.68 5.08-4.51 8.48l-12.69 53.53c-0.9 3.53-0.38 4.98 1.63 7.09z" fill="url(#paint2_linear_1_1021)"/>
  <path d="m123.9 84.92 8.26-4.21c2.53-1.3 5.52-0.78 6.85 1.41l8.68 12.6c0.44 0.65 0.49 1.53-0.1 2.18l1.93 5.01c0.83 2.22-1.83 3.37-4.37 2.1l-18.26-11.56c-3.1-2.01-5.51-5.33-2.99-7.53z" fill="#20587E" stroke="#1A4862" stroke-linecap="round" stroke-linejoin="round" stroke-width=".5"/>
  <path d="m131.2 86.58 4.92-2.37c1.2-0.58 2.13-0.15 2.62 1.24l2.33 6.31c0.59 1.7-1.18 2.81-3.13 1.76l-6.77-3.82c-1.61-0.95-1.68-2.28 0.03-3.12z" fill="url(#paint3_linear_1_1021)" stroke="#4A8099" stroke-linecap="round" stroke-linejoin="round" stroke-width=".5"/>
  <path d="m108 89.82 8.25-2.74c2.8-0.94 4.61 0 6.15 2.71l10.49 19.02c1.08 2.05-0.81 3.47-3.23 2.72l-19.46-11.33c-3.61-2.13-6.14-7.39-2.2-10.38z" fill="#D05936" stroke="#B75031" stroke-linecap="round" stroke-linejoin="round" stroke-width=".5"/>
  <path d="m113.7 93.66 5.47-2.73c1.13-0.56 2.31-0.15 3.09 1.37l4.23 6.79c0.88 1.49 0.12 2.22-1.18 2.55l-4.98 1.93-7.52-6.16c-1.66-1.45-1.21-2.65 0.89-3.75z" fill="url(#paint4_linear_1_1021)" stroke="#B75A39" stroke-linecap="round" stroke-linejoin="round" stroke-width=".5"/>
  <path d="m90.19 98.66 7.77-2.94c3.32-1.28 5.85-0.61 7.21 2.39l10.05 17.48c1.16 2.45-1.17 3.79-3.62 3.07l-20.79-12.89c-3.06-2.01-3.62-5.17-0.62-7.11z" fill="#EA8536" stroke="#C77027" stroke-linecap="round" stroke-linejoin="round" stroke-width=".5"/>
  <path d="m96.08 100.5 5.99-2.45c1.54-0.69 2.65 0.1 3.24 1.85l2.28 6.19c0.52 1.51-0.38 2.44-1.8 2.89l-2.66 0.75-7.84-6.09c-1.68-1.34-1.37-2.24 0.79-3.14z" fill="url(#paint5_linear_1_1021)" stroke="#C77027" stroke-linecap="round" stroke-linejoin="round" stroke-width=".5"/>
  <path d="m72.38 106.5 7.95-4.14c3.41-1.73 5.71-1.42 7.46 1.4l9.62 19.8c1.2 2.77-1.12 4.19-3.78 2.77l-20.31-12.49c-3.39-2.15-4.25-5.1-0.94-7.34z" fill="#94B06A" stroke="#789954" stroke-linecap="round" stroke-linejoin="round" stroke-width=".5"/>
  <path d="m78.43 108.8 5.33-2.59c1.35-0.69 2.65-0.28 3.43 1.38l2.59 6.15c0.73 1.86 0.07 2.56-1.57 3.08l-3.16 1.23-7.32-6.02c-1.72-1.49-1.2-2.42 0.7-3.23z" fill="url(#paint6_linear_1_1021)" stroke="#789954" stroke-linecap="round" stroke-linejoin="round" stroke-width=".5"/>
  <path d="m52.75 114.8 7.93-4.59c3.03-1.59 6.71-2.21 8.25-0.16l8.83 16.19c0.42 0.67 0.19 1.26-0.12 1.62l2.27 4.83c0.87 2.08-1.26 3.16-3.09 2.33l-22-13.21c-3.39-2.11-4.44-5.24-2.07-7.01z" fill="url(#paint7_linear_1_1021)" stroke="#568778" stroke-linecap="round" stroke-linejoin="round" stroke-width=".5"/>
  <path d="m59.42 116.4 5.42-2.9c1.33-0.76 2.6-0.42 3.38 1.24l2.73 5.33c0.76 1.55-0.16 2.7-2.03 2.85l-2.61 0.75-7.25-5.18c-1.67-1.23-1.21-1.3 0.36-2.09z" fill="url(#paint8_linear_1_1021)" stroke="#568778" stroke-linecap="round" stroke-linejoin="round" stroke-width=".5"/>
  <path d="m34.56 121.8 9.22-4.72c2.84-1.45 4.95-1.2 6.15 0.63l9.62 15.34c0.43 0.72 0.26 1.29 0 1.65l1.66 5.16c0.66 2.11-2.33 3.04-4.3 1.74l-6.69-4.18c-0.96 0.48-1.71 0.28-2.71-0.62l-12.8-9.73c-2.27-1.87-2.49-3.95-0.15-5.27z" fill="url(#paint9_linear_1_1021)" stroke="#6398BA" stroke-linecap="round" stroke-linejoin="round" stroke-width=".5"/>
  <path d="m40.94 123.5 5.98-3.06c1.45-0.79 2.5-0.54 3.09 0.91l2.27 5.91c0.59 1.59-0.67 2.64-2.62 1.88l-7.6-3.57c-2.2-1.05-2.55-1.17-1.12-2.07z" fill="url(#paint10_linear_1_1021)" stroke="#3D7A96" stroke-linecap="round" stroke-linejoin="round" stroke-width=".5"/>
  <path d="m151.1 104.8 9.77 4.07-0.22 0.73 9.15 5.7c4.62 2.96 8.37 3.75 8.37 6.71 0 2.34-1.99 4.69-6.99 6.59-3.97 1.52-6.63 1.06-8.08-1.39l-12.8-18.1c-1.52-2.34-1.12-4.39 0.8-4.31z" fill="#926052" stroke="#82564B" stroke-linecap="round" stroke-linejoin="round" stroke-width=".5"/>
  <path d="m161.5 114.9 5.83 0.82c3.32 0.76 5.42 2.21 5.42 4.32 0 1.3-2.66 3.16-6.47 3.71-1.64 0.24-2.51-0.32-3.1-2.18l-2.53-5.26c-0.62-1.41-0.14-1.69 0.85-1.41z" fill="#5E493E" stroke="#82564B" stroke-linecap="round" stroke-linejoin="round" stroke-width=".5"/>
  <path d="m133.9 112.3 9.38 3.19-0.14 0.96 15.46 10.75c2.89 2.11 2.6 5.06-1.36 7.05l-7.84 3.69c-2.73 1.27-4.62 0-5.95-2.45l-10.45-19.46c-1.45-3.06-0.89-4.02 0.9-3.73z" fill="url(#paint11_linear_1_1021)" stroke="#658953" stroke-linecap="round" stroke-linejoin="round" stroke-width=".5"/>
  <path d="m145 122 7.37 3.32c2.42 1.11 2.88 2.22 0.54 3.6l-4.76 2.52c-1.9 1.03-3.2 0.66-4.16-1.79l-2.2-5.26c-0.94-2.39 0.43-3.66 3.21-2.39z" fill="url(#paint12_linear_1_1021)" stroke="#8CAD6C" stroke-linecap="round" stroke-linejoin="round" stroke-width=".5"/>
  <path d="m116.7 120.1 7.91 2.8-0.21 0.96 17.57 12.19c2.34 1.67 1.88 4.63-2.57 6.61l-7.31 3.19c-3.65 1.45-5.39-0.07-6.69-2.45l-9.9-19.05c-1.2-2.6-1.05-4.58 1.2-4.25z" fill="url(#paint13_linear_1_1021)" stroke="#426A5D" stroke-linecap="round" stroke-linejoin="round" stroke-width=".5"/>
  <path d="m127.9 130 7.49 3.72c2.01 1.05 2.31 2.5 0.04 3.92l-4.89 2.63c-2.07 1.1-3.52 0.8-4.47-1.54l-2.45-6.09c-1.02-2.7 0.85-4.31 4.28-2.64z" fill="url(#paint14_linear_1_1021)" stroke="#426A5D" stroke-linecap="round" stroke-linejoin="round" stroke-width=".5"/>
  <path d="m99.4 128.4 8.38 4.03-0.26 0.79 15.66 8.92c2.96 1.67 2.96 4.83-1.43 7.17l-6.29 3.39c-3.25 1.69-6.35 1.47-7.8-1.49l-10.45-19.24c-1.17-2.6-0.15-4.33 2.19-3.57z" fill="#B3383B" stroke="#9E3134" stroke-linecap="round" stroke-linejoin="round" stroke-width=".5"/>
  <path d="m109.8 137.6 7.76 3.59c2.11 1.02 2.5 2.81 0.08 4.33l-4.27 2.2c-2.11 1.02-4.05 0.82-5.03-1.42l-2.66-6.09c-1.12-2.77 0.64-4.19 4.12-2.61z" fill="url(#paint15_linear_1_1021)" stroke="#9E3134" stroke-linecap="round" stroke-linejoin="round" stroke-width=".5"/>
  <path d="m82.72 135.9 7.47 3.65-0.46 0.96 15.89 9.38c3.18 1.96 2.42 5.82-1.87 8.08l-6.94 3.25c-3.65 1.59-6.18 0.25-7.6-2.85l-9.15-18.26c-1.45-3.19-0.43-5.08 2.66-4.21z" fill="#DB663B" stroke="#BA5933" stroke-linecap="round" stroke-linejoin="round" stroke-width=".5"/>
  <path d="m92.42 145.4 7.49 4.12c2.27 1.2 2.2 2.79-0.33 4.24l-3.72 1.87c-2.34 1.1-4.14 0.65-5.26-1.87l-2.42-5.84c-0.96-2.6 0.63-4.47 4.24-2.52z" fill="url(#paint16_linear_1_1021)" stroke="#BA5933" stroke-linecap="round" stroke-linejoin="round" stroke-width=".5"/>
  <path d="m63.82 143.8 7.47 2.66-0.46 1.27 17.31 11.56c2.6 1.76 1.78 4.64-2.31 6.95l-6.05 3.09c-3.57 1.66-6.37 0.24-8.13-2.95l-10.44-17.35c-1.76-3.29-1-5.5 2.61-5.23z" fill="url(#paint17_linear_1_1021)" stroke="#C48B51" stroke-linecap="round" stroke-linejoin="round" stroke-width=".5"/>
  <path d="m73.89 153.4 7.93 4.03c2.34 1.2 1.65 2.96-1.08 4.55l-4.09 2.2c-1.98 1.02-3.43 0.26-4.19-2.12l-2.11-6.27c-0.86-2.73 0.3-4.11 3.54-2.39z" fill="url(#paint18_linear_1_1021)" stroke="#C48B51" stroke-linecap="round" stroke-linejoin="round" stroke-width=".5"/>
  <path d="m75.88 57.92c1.15-1.77 2.43-2.66 4.13-2.5 2.18 0.22 3.05 1.74 3.3 3.67l2.8-3.03 0.13-3.34c0.07-0.36 0.97-0.41 0.97 0.11l-0.15 2.91 2.92-0.18c0.65 0 0.73 0.9-0.14 0.95l-3.02 0.19-0.71 2.52c1.59 0.69 3.26 1.69 3.1 4.42-0.15 2.11-3.15 4.27-5.1 4.86-1.4 0.46-2.19-1.44-2.58-2.4l-5.42 2.72 2.07-5.65c-1.35-0.46-4.08-1.08-4.26-2.36-0.24-1.49 0.89-1.92 1.96-2.89z" fill="#3A3A3A"/>
  <path d="m76.01 57.56c1.07-1.95 2.35-2.35 3.63-2.22 1.94 0.17 2.94 1.47 3.27 3.5l-3.89 2.17c-1.87 0.65-3.81 0.4-4.57-0.59-0.84-1.06 0.5-1.85 1.56-2.86z" fill="url(#paint19_linear_1_1021)"/>
  <path d="m83.87 61.75 2.32-0.59c2.19 0.65 3.14 1.61 3.14 3.27 0 1.83-1.73 3.35-3.42 3.94-1.45 0.56-2.51-1.06-2.59-2.44l-0.15-2.11c-0.13-1.05-0.06-1.71 0.7-2.07z" fill="url(#paint20_linear_1_1021)"/>
  <path d="m76.72 66.81 3.81-2.19 1.83 1.74-1.73 1.35-2.6 0.9-1.31-1.8z" fill="url(#paint21_linear_1_1021)"/>
  <defs>
    <linearGradient id="paint0_linear_1_1021" x1="105.4" x2="105.4" y1="123.8" y2="197.1" gradientUnits="userSpaceOnUse">
      <stop stop-color="#19C0C9" offset="0"/>
      <stop stop-color="#00C1C1" offset="1"/>
    </linearGradient>
    <linearGradient id="paint1_linear_1_1021" x1="93.73" x2="93.73" y1="2.371" y2="57.32" gradientUnits="userSpaceOnUse">
      <stop stop-color="#18C6D1" offset="0"/>
      <stop stop-color="#18C0C9" offset="1"/>
    </linearGradient>
    <linearGradient id="paint2_linear_1_1021" x1="23.66" x2="23.66" y1="41.53" y2="120.1" gradientUnits="userSpaceOnUse">
      <stop stop-color="#00B7BD" offset="0"/>
      <stop stop-color="#00999F" offset="1"/>
    </linearGradient>
    <linearGradient id="paint3_linear_1_1021" x1="135.8" x2="135.8" y1="83.88" y2="94.01" gradientUnits="userSpaceOnUse">
      <stop stop-color="#669FBA" offset="0"/>
      <stop stop-color="#54879A" offset="1"/>
    </linearGradient>
    <linearGradient id="paint4_linear_1_1021" x1="119.4" x2="119.4" y1="90.5" y2="103.8" gradientUnits="userSpaceOnUse">
      <stop stop-color="#C6694A" offset="0"/>
      <stop stop-color="#CC7252" offset="1"/>
    </linearGradient>
    <linearGradient id="paint5_linear_1_1021" x1="100.7" x2="100.7" y1="97.74" y2="109.9" gradientUnits="userSpaceOnUse">
      <stop stop-color="#EA8C39" offset="0"/>
      <stop stop-color="#EB913B" offset="1"/>
    </linearGradient>
    <linearGradient id="paint6_linear_1_1021" x1="83.42" x2="83.42" y1="105.8" y2="118.2" gradientUnits="userSpaceOnUse">
      <stop stop-color="#608E4A" offset="0"/>
      <stop stop-color="#9ACA83" offset="1"/>
    </linearGradient>
    <linearGradient id="paint7_linear_1_1021" x1="65.62" x2="65.62" y1="108.9" y2="135.5" gradientUnits="userSpaceOnUse">
      <stop stop-color="#669994" offset="0"/>
      <stop stop-color="#558578" offset="1"/>
    </linearGradient>
    <linearGradient id="paint8_linear_1_1021" x1="64.77" x2="64.77" y1="112.9" y2="123.8" gradientUnits="userSpaceOnUse">
      <stop stop-color="#4A7B91" offset="0"/>
      <stop stop-color="#548899" offset="1"/>
    </linearGradient>
    <linearGradient id="paint9_linear_1_1021" x1="46.97" x2="46.97" y1="116.3" y2="142.4" gradientUnits="userSpaceOnUse">
      <stop stop-color="#759FC7" offset="0"/>
      <stop stop-color="#71A6C9" offset="1"/>
    </linearGradient>
    <linearGradient id="paint10_linear_1_1021" x1="46.24" x2="46.24" y1="120" y2="129.6" gradientUnits="userSpaceOnUse">
      <stop stop-color="#326985" offset="0"/>
      <stop stop-color="#3E7491" offset="1"/>
    </linearGradient>
    <linearGradient id="paint11_linear_1_1021" x1="147" x2="147" y1="112.3" y2="138.6" gradientUnits="userSpaceOnUse">
      <stop stop-color="#638450" offset="0"/>
      <stop stop-color="#789954" offset="1"/>
    </linearGradient>
    <linearGradient id="paint12_linear_1_1021" x1="148.4" x2="148.4" y1="121.3" y2="132.1" gradientUnits="userSpaceOnUse">
      <stop stop-color="#9CC682" offset="0"/>
      <stop stop-color="#91B771" offset="1"/>
    </linearGradient>
    <linearGradient id="paint13_linear_1_1021" x1="129.4" x2="129.4" y1="120" y2="146.4" gradientUnits="userSpaceOnUse">
      <stop stop-color="#568575" offset="0"/>
      <stop stop-color="#4F7568" offset="1"/>
    </linearGradient>
    <linearGradient id="paint14_linear_1_1021" x1="130.2" x2="130.2" y1="129.2" y2="141.3" gradientUnits="userSpaceOnUse">
      <stop stop-color="#426A5D" offset="0"/>
      <stop stop-color="#3A5A51" offset="1"/>
    </linearGradient>
    <linearGradient id="paint15_linear_1_1021" x1="112.3" x2="112.3" y1="136.7" y2="148.6" gradientUnits="userSpaceOnUse">
      <stop stop-color="#943135" offset="0"/>
      <stop stop-color="#B64445" offset="1"/>
    </linearGradient>
    <linearGradient id="paint16_linear_1_1021" x1="95.29" x2="95.29" y1="144.6" y2="156.4" gradientUnits="userSpaceOnUse">
      <stop stop-color="#D56035" offset="0"/>
      <stop stop-color="#CA6037" offset="1"/>
    </linearGradient>
    <linearGradient id="paint17_linear_1_1021" x1="75.54" x2="75.54" y1="143.7" y2="169.9" gradientUnits="userSpaceOnUse">
      <stop stop-color="#EDB264" offset="0"/>
      <stop stop-color="#E3AD62" offset="1"/>
    </linearGradient>
    <linearGradient id="paint18_linear_1_1021" x1="76.65" x2="76.65" y1="152.6" y2="164.8" gradientUnits="userSpaceOnUse">
      <stop stop-color="#C98C51" offset="0"/>
      <stop stop-color="#CC955B" offset="1"/>
    </linearGradient>
    <linearGradient id="paint19_linear_1_1021" x1="78.36" x2="78.36" y1="55.29" y2="61.38" gradientUnits="userSpaceOnUse">
      <stop stop-color="#A2DDD8" offset="0"/>
      <stop stop-color="#78BCC7" offset="1"/>
    </linearGradient>
    <linearGradient id="paint20_linear_1_1021" x1="86.31" x2="86.31" y1="61.01" y2="68.57" gradientUnits="userSpaceOnUse">
      <stop stop-color="#A2DDD8" offset="0"/>
      <stop stop-color="#78BCC7" offset="1"/>
    </linearGradient>
    <linearGradient id="paint21_linear_1_1021" x1="79.54" x2="79.54" y1="64.62" y2="68.61" gradientUnits="userSpaceOnUse">
      <stop stop-color="#292929" offset="0"/>
      <stop stop-color="#1C1C1C" offset="1"/>
    </linearGradient>
  </defs>
</svg>