<svg xmlns="http://www.w3.org/2000/svg" width="192" height="192" fill="none" viewBox="0 0 192 192">
<!-- SVG created with Arrow, by QuiverAI (https://quiver.ai) -->
  <path d="m83.87 16-2.05 0.11-69.67 18.34-2.53 1.49 0.21 14.7 0.63 11.22-0.11 20.38 1.06 15.91 2.54 3.68 19.86 17.08 15.27 12.13 3.95 1.85 14.65 3.47 15.88-5.85 22.35-5.22 27.9-9.55 2.64-10.47-0.1-59.07-1.53-3.47-17.66-10.06-31.15-15.93-2.14-0.74z" fill="#F9E9D1"/>
  <path d="m10.89 35.31 3.64-1.18 4.17 0.53 22.66-7.65 23.93-6.16 17.66-4.64 1.95-0.1 24.26 12.34-0.42 0.43-25.07-11.82-1.16-0.11-15.77 3.26-30.94 6.9-18.62 6.27-6.93 2.46 0.64-0.53z" fill="#CEB49B"/>
  <path d="m11.73 37.05 1.74-0.63 13.37 9.25 24.38 16.62 6.73 4.83-1.17 1.17-24.05-14.91-21-16.33z" fill="#E5D1B6"/>
  <path d="m82.84 17.9 0.11 3.47-19.04 4.42-45.74 8.76-0.21 2.29 7.03 4.31 4.95-1.27 5.27 0.21 5.47-0.63 3.65-0.74-0.42-3.36 7.97 1.69 8.93-2.07 0.64 1.86-0.95 2.94 4.48 2.16-0.21 2.07-8.83 0.62-4.88 3.36-4.28-3.36-9.03-1.05v-1.38l6.16-2.42-0.53-4.42 0.53-0.53 7.76 1.37 8.08-1.65 2 0.56-0.42 4.77 4.06 2.27v1.65l-0.73 0.42-8.4-0.21-5.15 3.88-4.18-3.15-9.6-1.05v-1.64l6.78-2.54-0.84-4.31v-0.43l0.84-0.22 7.56 1.76 9.04-1.76 1.04 0.56-0.63 4.61 3.54 2.01v2.8l-1.16 0.21-7.87-0.42-5.37 3.67-3.95-3.25-8.72-1.37-0.26-1.75 6.37-2.16v-4.35l0.31-0.34 7.56 1.65 8.82-1.76 0.94 0.45-0.83 4.56 4.47 2.22v2.33l-0.95 0.52-8.29-0.52-5.04 3.88-3.96-3.47-9.03-1.15-0.53-1.86 5.95-2.27-0.42-4.26 1-0.75 7.87 1.97 8.93-2.07 1.15 0.87-1.05 4.46 4.58 2.63-0.41 2.65-1.43 0.1-7.86-0.63-5.27 3.88-3.75-3.46-9.34-1.26-0.1-2.17 6.36-2.27-0.63-4.06 0.95-0.64 8.08 2.18 8.93-1.97 0.94 0.65-0.94 4.68 4.37 2.27v2.64l-1.32 0.27-8.34-0.53-5.27 3.78-4.06-3.47-8.82-1.36-0.1-2.07 6.52-2.42-0.83-4.33 0.94-0.32 8.08 2.08 8.41-2.08 1.15 0.54-0.94 5 4.79 2.16-0.42 2.81-1.64 0.15-7.97-0.68-4.89 3.67-4.17-3.25-9.03-1.37 0.21-2.17 5.95-2.37-0.63-4.06 1-0.53 8.08 2.28 8.72-1.97 1.25 0.43-1.25 5.01 4.79 2.42v2.33l-1.32 0.42-8.66-0.53-5.15 3.78-3.95-3.57-8.94-1.26-0.21-2.27 6.53-2.59-0.83-4.17 0.94-0.42 8.08 2.39 8.83-1.97 1.15 0.43-1.05 5.01 4.58 2.32v2.43l-1.42 0.21-8.55-0.52-5.27 3.98-3.74-3.56-9.04-1.37-0.1-2.28 6.74-2.47-0.64-4.13 0.43-0.26 8.29 2.18 8.62-1.97 1.15 0.33-1.15 5 4.47 2.43v2.32l-1.27 0.43-8.39-0.63-5.37 3.98-3.84-3.56-8.93-1.37-0.21-2.28 6.73-2.58-1.04-4.28 1.05-0.53 8.18 2.4 8.72-1.97 1.05 0.53-1.05 5.01 4.69 2.42v2.43l-1.43 0.43-8.55-0.63-5.16 3.98-4.05-3.67-8.93-1.26-0.1-2.38 6.52-2.48-0.94-4.17 1.25-0.43 7.99 2.29 8.61-1.97 1.15 0.43-1.26 5.22 4.79 2.32v2.43l-1.42 0.21-8.45-0.63-5.26 3.88-3.74-3.57-9.14-1.16-0.21-2.37 6.53-2.59-0.74-4.17 0.84-0.53 8.19 2.5 8.82-2.07 1.16 0.53-1.26 5.22 4.68 2.32v2.43l-1.31 0.21-8.66-0.73-5.26 3.98-3.75-3.56-9.14-1.16-0.1-2.38 6.63-2.48-0.84-4.49 0.74-0.32 8.49 2.4 8.62-1.97 1.05 0.53-1.25 5.11 4.89 2.43v2.43l-1.32 0.21-8.66-0.73-5.26 3.98-3.74-3.56-9.14-1.16-0.21-2.38 6.74-2.59-0.95-4.48 0.84-0.32 8.39 2.6 8.52-1.97 1.05 0.43-1.05 5.22 4.79 2.32v2.43l-1.42 0.21-8.66-0.73-4.74 3.88-4.27-3.36-9.03-1.26-0.21-2.38 6.63-2.59-0.94-4.48 1.05-0.53 8.28 2.5 8.52-1.97 1.15 0.74-1.04 5.11 4.57 2.27v2.64l-1.42 0.21-8.55-0.68-5.05 3.78-4.06-3.36-9.04-1.26-0.1-2.38 6.74-2.48-0.53-4.07 0.42-0.63 8.29 2.5 8.83-2.08 1.05 0.65-1.26 5.1 4.79 2.32v2.33l-1.42 0.42-8.24-0.74-5.47 3.88-3.75-3.56-9.24-1.26-0.21-2.28 6.63-2.48-0.94-4.59 1.25-0.53 7.98 2.71 8.72-2.07 0.84 0.53-1.05 5.11 4.48 2.27v2.8l-1.32 0.21-8.45-0.74-4.84 3.78-4.06-3.46-8.93-1.37-0.21-2.06 6.42-2.48-0.73-4.38 0.83-0.53 8.4 2.5 8.62-2.08 0.84 0.54-0.95 4.9 4.59 2.42v2.43l-1.53 0.37-8.14-0.89-5.57 4.09-3.74-3.46-8.93-1.26-0.21-2.28 6.62-2.37-0.62-4.49 0.52-0.63 8.19 2.5 8.83-1.97 1.25 0.53-1.25 5.22 4.99 2.42-0.42 2.43-1.63 0.11-8.24-0.63-5.37 3.98-3.85-3.56-8.82-1.26-0.2-2.17 6.41-2.48-0.83-4.17 0.94-0.95 8.51 2.6 8.71-1.97 0.94 0.43-1.04 5.11 4.78 2.27v2.49l-1.26 0.31-8.92-0.63-5.26 3.88-3.85-3.56-8.72-1.16-0.52-1.86 6.42-2.63-0.84-3.9 0.95-1.17 8.39 2.5 8.83-2.08 0.84 0.54-1.26 5 4.79 2.27-0.53 2.64-1.42 0.22-7.81-0.69-5.37 4.09-3.74-3.78-8.93-1.15-0.11-2.28 6.42-2.48-0.94-4.59 0.84-0.42 8.82 2.6 8.3-1.97 1.15 0.54-1.25 4.9 4.78 2.32-0.52 2.64-1.43 0.21-8.13-0.63-5.37 3.88-3.53-3.46-9.03-1.26-0.42-2.28 6.84-2.48-0.73-4.17 0.84-0.95 8.18 2.61 8.83-2.08 0.73 0.64-0.73 4.9 4.47 2.37-0.63 2.7-1.53 0.32-7.87-0.84-5.36 3.98-3.74-3.57-8.83-1.16-0.42-2.27 6.74-2.48-1.05-4.81 1.15-0.31 8.24 2.71 8.62-1.97 1.15 0.54-1.05 4.9 4.69 2.42-0.52 2.64-1.53 0.11-8.24-0.63-5.16 3.88-3.74-3.57-8.93-1.15-0.42-2.28 6.84-2.48-0.94-4.7 1.05-0.53 8.18 2.71 8.73-1.97 0.83 0.43-1.04 5.11 4.78 2.38v2.48l-1.42 0.32-8.45-0.53-5.26 3.78-3.74-3.46-9.14-1.26-0.21-2.28 6.52-2.37-0.73-4.38 0.95-0.74 8.29 2.6 8.61-1.97 0.84 0.43-0.94 5.01 4.79 2.32-0.53 2.64-1.31 0.21-8.24-0.63-5.47 3.88-3.54-3.46-9.04-1.26-0.2-2.28 6.74-2.48-0.95-4.69 0.84-0.43 8.4 2.61 8.72-1.97 0.94 0.53-1.15 5.11 4.79 2.32v2.43l-1.21 0.43-8.77-0.63-5.26 3.77-3.85-3.46-9.03-1.37-0.21-2.17 6.63-2.48-0.94-4.38 0.94-0.63 8.29 2.6 8.72-1.97 1.16 0.54-1.15 5.11 4.78 2.32v2.43l-1.53 0.21-8.66-0.53-5.26 3.78-3.74-3.46-9.03-1.26-0.21-2.38 6.52-2.38-0.83-4.48 0.83-0.53 8.5 2.71 8.62-1.97 1.16 0.43-1.36 5.11 4.78 2.32v2.43l-1.21 0.32-8.66-0.74-5.36 3.88-3.85-3.57-8.93-1.15-0.21-2.38 6.63-2.38-0.94-4.59 0.84-0.53 8.39 2.61 8.72-1.97 1.05 0.53-1.25 5.01 4.89 2.42-0.63 2.54-1.43 0.21-8.13-0.63-5.26 3.88-3.74-3.46-8.93-1.26-0.21-2.28 6.74-2.58-0.95-4.49 0.73-0.42 8.4 2.5 8.62-1.97 0.94 0.53-0.94 5.01 4.68 2.32v2.64l-1.42 0.21-8.55-0.73-5.05 3.88-4.06-3.36-8.93-1.26-0.32-2.38 6.74-2.48-0.94-4.49 1.05-0.53 8.18 2.61 8.62-1.97 1.15 0.53-1.05 5.11 4.89 2.43-0.42 2.43-1.52 0.21-8.45-0.63-5.26 3.88-3.74-3.46-8.93-1.26-0.21-2.28 6.63-2.48-0.94-4.69 0.62-0.53" stroke="#9A7764" stroke-miterlimit="10" stroke-width=".5"/>
  <path d="m10.78 36-0.74 1.69v11.72l0.42 12.67 0.73 6.01v4.17l-0.41 3.57 0.42 10.47 0.1 7.89 1.15 4.75 1.49 0.75-0.52-3.2-0.73-8.32-0.54-9.64 0.16-7.43-0.68-6-1.06-7.21 0.31-8.74-0.1-13.15z" fill="#CAA992"/>
  <path d="m135.1 43.9 1.16 3.39 0.37 8.7-1.1 14.59-0.37 11.63-0.21 4.11 0.55 4.99-0.42 13.34-0.37 7.17-1 3.4-0.27-0.11 1.3-4.51 0.31-11.43-0.73-9.51 0.53-7.38 0.32-6.77 0.78-14.28 0.32-8.74-0.59-6.25-0.58-2.34z" fill="#D2BA9F"/>
  <path d="m132.2 44-7.03-3.91-19.77-10.9-21.95-11.71-0.25-0.51 1.95 0.11 11.8 6.01 12.15 6.1 13.17 6.52 11.91 7.34 0.94 0.8-2.92 0.15z" fill="#F2D8B9"/>
  <path d="m130.5 45.06 2.15 1.15 0.42 4.75-0.94 1.85-1.94 0.21 0.57-5.39-47.43-25.57-0.47-1.96 0.47-0.74 23.82 12.13 23.35 13.57z" fill="#B2937A"/>
  <path d="m131.8 52.36-0.17 3.85v13.12l1.21 0.93 1.89-1.15 0.36-16.75h-3.29z" fill="#E8D3B5"/>
  <path d="m132.4 75.93 1.74 0.95v6.16l-1.95 0.94-0.73-1.32 0.94-6.73z" fill="#E8D3B5"/>
  <path d="m132.1 89.81 2.35-0.93v7.08l-2.35 0.95v-7.1z" fill="#E8D3B5"/>
  <path d="m131.4 103.4 3.03-0.42 0.05 4.46-0.73 3.57-1.68-0.78-0.67-6.83z" fill="#E8D3B5"/>
  <path d="m131.8 106.7-19.24 7.18-9.14 5.16 2.3 6.06 10.71-3.41 12-5.85 4.21-2.65-0.84-6.49z" fill="#F0DCC4"/>
  <path d="m131.5 93.28-2.7 1.85 0.84 2.43-3.09 0.47-1.69 2.43-7.33 0.79-1.58 6.15 7.18-1.21 6.67-1.96 1.9-0.95-0.2-10z" fill="#FEF6E9"/>
  <path d="m131.4 80.25-9.55 3.41-5.67 3.78 15.27-3.09 2.79-1.16-0.1-1.8-2.74-1.14z" fill="#FEF5E5"/>
  <path d="m130 74.73-6.79 5.37-5.8 0.95-0.37-3.73 3.86-3.52 6.57-2.07 2.53 0.99v2.01z" fill="#FEF8ED"/>
  <path d="m109.1 39.72-3.01 5.9h3.15l7.8-1.99 9.72 3.29-2.25-1.65-7.57-4.33-7.84-1.22z" fill="#FFFCF7"/>
  <path d="m31.51 55.21-7.02-5.12-9.44-8.1-1.73-0.84 0.63 5.32 2.78 4.54 5.24 5.64 6.91 4.24 2.63-1.04v-4.64z" fill="#F0DCC4"/>
  <path d="m13.1 75.09v2.85l3.34 3.1 3.82 3-1.35 2.64 5.16 5.91 2.29 3.98-1.65 1.64 5.41 4.5 0.84-4.56-6.74-8.49 4.53 0.69 2.15-3.67 0.89-9.85v-5.9l-0.68-9.7-4.69-2.43-5.52-3.59-3.85-2.3-1.04 1.15-0.26 14.85-2.65 6.18z" fill="#F3DDC2"/>
  <path d="m55.11 70.78 2 0.95 0.21 13.73-1.37 11.22-1.05 3.93-3.38-3.47-4.48-0.96 1.05-4.85-1.05-2.05 3.95-4.28 1.22-7.3-1.48-4.37 1.48-1.54 2.9-1.01z" fill="#F3DCC3"/>
  <path d="m62.12 73.37 3.59-0.57 32.5-5.74 2.35 8.09-3.44 4.16 6.84 0.63 2.74 4.36-4.99 3.91-12.41 1.33-18.41 4.65-1.48 3.1-2.53 0.69-3.05-6.92 0.99-5.74-2.7-11.95z" fill="#F8E9D2"/>
  <path d="m64.51 106.5 1.94-0.53 1 7.38 10.77-1.05 2.49 1.96-7.39 2.89-8.29 1-0.52-11.65z" fill="#FEFAF3"/>
  <path d="m62.21 125.9 13.02-2.64 7.13 1.86-1.75 7.84-11.34 3.36-5.71-2.84-1.35-7.58z" fill="#F0D9BE"/>
  <path d="m16.53 51.81 2.73 1.21 0.9 16.68 8.33 5.02 0.32 3.53-11.91-7.74-1.05-1.18 0.68-17.52z" fill="#B7967B" stroke="#7E6A57" stroke-miterlimit="10" stroke-width=".5"/>
  <path d="m20.11 53.84 7.33 4.52 1.37 2.65-0.37 13.55-7.18-4.55-1.15-16.17z" fill="#A6826A" stroke="#6A5546" stroke-miterlimit="10" stroke-width=".5"/>
  <path d="m39.87 68.45c-2.9 0.5-3.79 7.06-2.06 11.54 1.74 4.47 5.96 10.22 8.17 9.96 2.2-0.25 6.12-3.94 6.49-9.68s-3.22-8.02-5.22-6.86c-1.05 0.6-2.04 1.58-2.04 1.58s-1.55-7.08-5.34-6.54z" fill="#CBA890" stroke="#8A6D59" stroke-miterlimit="10" stroke-width=".5"/>
  <path d="m41.35 70.06c-1.37 1.45-2.42 6.15-1.43 9.2 1 3.05 3.89 9.15 5.89 9.84s5.14-3.91 5.72-6.95c0.58-3.05-1-8.47-3.21-8.31-1.26 0.1-3.17 1.94-3.17 1.94s-2.44-7.23-3.8-5.72z" fill="#B89A84" stroke="#806A56" stroke-miterlimit="10" stroke-width=".5"/>
  <path d="m83.16 73.41c-1.55-0.1-10.42 20.06-10.84 22.44-0.43 2.38 0.78 2.06 1.93 1.82 1.16-0.25 18.82-5.75 20.07-6.49 1.25-0.75 0.94-1.86-0.26-3.56-1.2-1.69-9.12-14.1-10.9-14.21z" fill="#D9BC9E" stroke="#987A60" stroke-miterlimit="10" stroke-width=".5"/>
  <path d="m82.79 74.73c-1.36 0.21-8.15 17.68-8.57 19s0.06 1.38 0.95 1.06c1.14-0.42 9.39-2.53 12.75-4.07 2.63-1.15 2.89-1.4 2.99-2.14 0.11-0.75-7.08-14.01-8.12-13.85z" fill="#B18A6D" stroke="#806A56" stroke-miterlimit="10" stroke-width=".5"/>
  <path d="m108.5 67.34c-3.29 0.27-5.39 5.97-4.18 9.98 1.58 5.75 8.1 9.86 10.9 10.02 1.58 0.08 9.97-9.33 11.39-13.98 0.94-3.25-0.05-8.32-3.95-9.16s-6.91 4.43-7.59 4.53c-0.68 0.11-3.47-1.65-6.57-1.39z" fill="#BF9A80" stroke="#796050" stroke-miterlimit="10" stroke-width=".5"/>
  <path d="m109.8 67.87c-2.89-0.06-5.23 4.85-4.45 8.78 0.89 4.55 3.98 7.39 8.82 9.5 1.53 0.16 9.39-10.64 9.65-15.33 0.19-3.63-1-6.25-2.95-5.93s-4.85 5.93-5.85 5.51c-1.26-0.55-2.15-2.48-5.22-2.53z" fill="#A78671" stroke="#705945" stroke-miterlimit="10" stroke-width=".5"/>
  <path d="m88.08 104c-0.47 1.49 4.36 12.2 5.73 12.94 0.94 0.53 14.71-3.76 15.45-4.45 0.73-0.7 4.27-14.95 3.8-16.17-0.31-0.82-2.46-0.28-3.57 0.09-1.1 0.36-20.89 5.94-21.41 7.59z" fill="#D3B091" stroke="#876B54" stroke-miterlimit="10" stroke-width=".5"/>
  <path d="m90.17 103.6c-1.45 0.59-0.67 3.31 0.49 5.43 1.15 2.12 1.68 3.96 2.36 4.22s12.89-3.53 13.94-4.06c0.73-0.39 3.26-12.16 2.79-12.69-0.37-0.39-16.47 5.82-19.58 7.1z" fill="#AD896B" stroke="#806A56" stroke-miterlimit="10" stroke-width=".5"/>
  <path d="m24.81 90 1.85-0.21 4.12 2.8 2.1-6.58 1.05 0.33 1.79 7.59v1.15l5.95 4.96v1.16l-4.78 4.14 0.95 7.79-0.73 0.44-4.27-7.44-5.85 1.06-0.58-1.48 1.85-6.59-3.45-5.9v-3.22z" fill="#CCAA90" stroke="#8A6D59" stroke-miterlimit="10" stroke-width=".5"/>
  <path d="m29.59 92.31 1.26-0.48 2.9-3.83 1.1 6.3-0.11 1.5 5.37 4.6-0.63 1.7-6.36 3.15-2.74-0.32 0.42-4.85-1.42-2.7 0.21-5.07z" fill="#AE8C70" stroke="#806A56" stroke-miterlimit="10" stroke-width=".5"/>
  <path d="m64.71 66.11-0.68 0.1-0.32 0.59 0.68 1.11 0.21 3.82c2.05-0.42 9.23-1.98 13.56-3.33 5.67-1.75 26.09-7.34 28.14-7.94s21.76-5.98 23.81-7.44l0.68-1.7-0.83-0.42c-1.05 0.84-4.54 2.86-10.21 4.26-7.13 1.85-27.57 7.54-34.36 9.19-5.57 1.38-11.98 2.56-14.61 3.2l-2.74 0.32-3.33-1.76z" fill="#D1B79C" stroke="#8E715D" stroke-miterlimit="10" stroke-width=".5"/>
  <path d="m70.3 46.57 17.89-5.41 11.85 7.04-0.78 1.42-16.42 4.26-12.54-7.31z" fill="#D2B7A1" stroke="#715845" stroke-miterlimit="10" stroke-width=".5"/>
  <path d="m73.16 46.94 14.61-2.7 9.44 5.43-13.7 3.75-10.35-6.48z" fill="#99795D" stroke="#745B4A" stroke-miterlimit="10" stroke-width=".5"/>
  <path d="m87.98 41.31 0.1 3.59" stroke="#856650" stroke-miterlimit="10" stroke-width=".5"/>
  <path d="m82.57 27.72c-5.89 0-11.9 2.07-12 5.38-0.11 3.31 4.93 4.31 12.06 4.31 7.12 0 10.18-2.37 10.02-5.42-0.1-2.2-5.47-4.27-10.08-4.27z" fill="#CEB9A8" stroke="#705945" stroke-miterlimit="10" stroke-width=".5"/>
  <path d="m82.68 29.95c-4.74 0-10.58 1.37-10.74 3.17-0.15 1.79 3.97 3.81 10.85 3.39 5.95-0.37 8.9-1.9 8.69-3.6-0.15-1.32-4.72-2.96-8.8-2.96z" fill="#795F4C" stroke="#634B37" stroke-miterlimit="10" stroke-width=".5"/>
  <path d="m61.1 67.07 2.98 0.48 0.26 3.01v1.23" stroke="#84654F" stroke-miterlimit="10" stroke-width=".5"/>
  <path d="m13.05 99.41 1.25 1.48 22.51 20.02 11.8 9.55 2.14 1.65" stroke="#CFB297" stroke-miterlimit="10" stroke-width=".5"/>
  <path d="m33.77 118.1 4.41 3.63 6.98 4.36" stroke="#CFB297" stroke-miterlimit="10" stroke-width=".5"/>
  <path d="m40.68 107.8 4.59 3.05 1.94 3.91-2.4 2.11-5.09-4.11-1.69-3.92 2.65-1.04z" fill="#E9D3B7"/>
  <path d="m46.04 102.7 2.05 1.23 0.52 3.04 2.2 0.42 1.1 2.32 2.64 0.47 0.57 4.81-4.99-1.1-3.24-3.59-0.85-7.6z" fill="#F3DEC8"/>
  <path d="m50.53 116.7 2.69 0.96 1.68 2.42 1.21 1.1 1.95 4.8-0.42 5.7h-3l-5.56-5.62-4.02-3.88 1.84-2.1 3.63-3.38z" fill="#F5E1C5"/>
  <path d="m133.8 119.9h-7.38l-1.1 1.36-0.62 16.79 1.05 8.5 9.21 0.52 6.88-0.42 5.71-3.47 0.26-8.32-1.47-13.6-2.39-1.1-10.15-0.26z" fill="#F8DB96" stroke="#AD7444" stroke-miterlimit="10" stroke-width=".5"/>
  <path d="m125.9 135-0.36 10.7 2.2 0.99 9.55 0.31 2.84-0.31 3.16-4.41 2.79-1.16 1.47-2.11-0.57-3.42-21.08-0.59z" fill="#E9B86B" stroke="#AD7444" stroke-miterlimit="10" stroke-width=".5"/>
  <path d="m142.5 100.1 0.74-1.06 15.63-5.02h1.84l7.43 5.17 0.79 2.32-0.89 15.42-1.16 0.74-7.85 7.73-8.61 1.96-7.91-6.91-0.01-20.35z" fill="#C0E3DF" stroke="#6AA296" stroke-miterlimit="10" stroke-width=".5"/>
  <path d="m143.7 100.1 7.03 6.05-0.79 19.46-0.78 0.94-6.19-6.1-0.26-19.39 0.99-0.96z" fill="#91CBC6" stroke="#629F95" stroke-miterlimit="10" stroke-width=".5"/>
  <path d="m150.7 106.1 17.04-6.05" stroke="#91CBC6" stroke-miterlimit="10" stroke-width=".5"/>
  <path d="m161.2 105.3-1.15 1.85 0.94 2.22 1.05-2.38-0.84-1.69z" fill="#C0E3DF"/>
  <path d="m105.3 122.9-19.58-4-5.37 7.45-0.42 11.55 1 8.92 17.76 3.47 6.31-6.21 0.73-12.38-0.43-8.8z" fill="#C0E5CD" stroke="#83B396" stroke-miterlimit="10" stroke-width=".5"/>
  <path d="m80.92 127.2 1.31-0.79 18.73 1.43 2.73-3.05 0.32 11.32v6.66l-3.6 6.06-1.99 0.32-16.19-2.49-1.73-8.7 0.42-10.76z" fill="#A7D7C5" stroke="#83B396" stroke-miterlimit="10" stroke-width=".5"/>
  <path d="m96.12 132.4-5.57 10.71 1.94 1.16 2.9-11.87h0.73z" fill="#99D0BE"/>
  <path d="m106.9 142.6-13.07 16.43 0.42 11.98 2 0.97 15.68-0.27 12.25-0.74 0.99-10.99-15.78-17.96-2.49-0.42v1z" fill="#F9CBAC" stroke="#BC784C" stroke-miterlimit="10" stroke-width=".5"/>
  <path d="m94.75 160.4 0.73 10.67 2.79 0.59h12.73l13.28-1.16 0.52-8.91-2.79-1.37-27.26 0.18z" fill="#F2A275" stroke="#D37440" stroke-miterlimit="10" stroke-width=".5"/>
  <path d="m103.2 162.7-1.48 2.79 2.85-0.59 0.63-2.2h-2z" fill="#EA8F61"/>
  <path d="m115.1 165.1-0.95 2.22 3.64-0.64 0.37-1.63-3.06 0.05z" fill="#F1A67A"/>
  <path d="m142.4 148 2.74-4.02c2-1.75 4.65-2.74 8.82-0.99 3.15 1.27 3.31 5.24 3.15 6.19 3.45-2.01 8.97-1.95 12.16 0.94 2.26 2.1 1.57 6.61 0.99 16.57-4.39 4.41-10.29 6.36-19.14 7.1l-5.36-0.32-4.06-9.31 0.7-16.16z" fill="#E3A2B7" stroke="#A75175" stroke-miterlimit="10" stroke-width=".5"/>
  <path d="m145.5 163.8 0.62 9.21" stroke="#A75175" stroke-miterlimit="10" stroke-width=".5"/>
  <path d="m144 144.8c-1.85 2.48-0.16 8.18 2.42 13.87 0.84 1.96 4.53 0.69 8.7-0.52s11.05-3.32 14.15-6.52c1.21-1.27-1.19-4.79-6.18-3.57-1.74 0.47-5.33 2.04-5.33 2.04s0.26-4.59-2.9-6.45c-2.48-1.35-8.54-1.61-10.86 1.15z" fill="#EAC7D3"/>
  <path d="m149.5 153 3-1.8v1.91l-2.05 1.5-0.95-1.61z" fill="#E3BAC8"/>
  <path d="m165.6 120c2.52-2.24 7.63-1.89 10.58 0.73 1.94-1.43 2.93-2.81 9.2-2.44 3.38 0.21 4.12 3.15 3.91 5.21l-0.63 12.12-0.47 0.69c-2.1 3.52-10.08 9.58-12.61 10.32-2.74-1.16-12.39-8.72-13.07-11.46l0.16-11.58c0.1-1.85 1.15-2.48 2.93-3.59z" fill="#F6CCB6" stroke="#BB6A49" stroke-miterlimit="10" stroke-width=".5"/>
  <path d="m188 121.2c1.37 2.64-0.98 6.56-3.87 8.93-3.25 2.75-7.37 5.7-8.95 5.28-2.2-0.64-10.18-6.75-11.7-10.28-0.84-2.16 1.05-5.99 3.3-5.89 2.69 0.1 7.79 3.3 9.26 2.88 1.48-0.42 9.19-6 11.96-0.92z" fill="#F3C5B0" stroke="#A85739" stroke-miterlimit="10" stroke-width=".5"/>
  <path d="m175.6 137 0.42 9.4" stroke="#BB6A49" stroke-miterlimit="10" stroke-width=".5"/>
  <path d="m2.82 147.1 0.32 9.06 3.69 3 0.21 12.57 1.48-0.53 8.76-3.15 2.95 2.06 8.18 1.86 1-0.59 0.21-8.09 5.77-4.6 0.37-11.59-11.16-1.1-4.37-7.49-1.95 0.26-5.57 6.62-9.57 0.79-0.32 0.92z" fill="#FCF5AB" stroke="#A87343" stroke-miterlimit="10" stroke-width=".5"/>
  <path d="m2.87 148.1 5.84 4.51-2.49 5.86 11.8-1.27 10.47 5.33-0.31 9.4-1.47-1.21-2.1-0.69-6.36-2.23-1.35 0.37-9.47 0.42-0.42-6.27 10.21-4.8-1.11 0.63-5.8 1.56-2.2 0.53-1.94-1.1-3.05-2.93-0.31-8.11h0.06z" fill="#F6E397" stroke="#A87343" stroke-miterlimit="10" stroke-width=".5"/>
  <path d="m42.91 140.4 0.95 12.89c1.47 2.12 4.21 4.82 8.36 5.87 4.89 1.22 12.6-0.58 15.79-3.97l1.21-3 0.31-12c-0.63-2.64-4.32-7.59-13.66-7.7-9.35-0.15-12.44 4.6-12.96 7.91z" fill="#B7D4E2" stroke="#497388" stroke-miterlimit="10" stroke-width=".5"/>
  <path d="m43.59 139.5c-0.37 3.42 2.02 6.78 8.68 8.37 4.74 1.21 6.64 2.2 5.27 5.15l-1.89 3.25 2.85 1.57c3.38-0.47 8.74-3.21 10.26-6.89l0.53-9.11-1.68-3.52c-1.74-2.64-6.48-4.49-10.4-4.49" fill="#CCE1F0" stroke="#99C6DD" stroke-miterlimit="10" stroke-width=".5"/>
  <path d="m54.32 137.8 1.58 0.59 0.84-2.14 2.9 1.75 2.29 1.5-1.21 2.59-4.48 1.16-2.95-4.96 1.03-0.49z" fill="#BADBED" stroke="#99C6DD" stroke-miterlimit="10" stroke-width=".5"/>
</svg>