<svg xmlns="http://www.w3.org/2000/svg" width="200" height="200" fill="none" viewBox="0 0 200 200">
<!-- SVG created with Arrow, by QuiverAI (https://quiver.ai) -->
  <path d="m178.8 23.36-3.96-0.2-7.74-0.34-1.18-0.19 1.38-1.36c0.27-2.01-1.54-1.2-3.15-1.33-1.61-0.12-2.63-1.74-5.88-1.53-3.26 0.2-1.81 1.69-3.45 1.4-2.24-0.42-8.76-1.22-16.85-7-9.79-7.07-23.76-9.63-35.38-10.11l-2.88 0.07-2.87-0.07c-11.62 0.48-25.58 3.04-35.38 10.11-8.09 5.78-11.96 6.58-14.2 7-1.64 0.29-1.12-1.31-3.96-1.49-3.23-0.2-4.29-0.05-5.31 0.9-1.43 1.38-4.03 0.89-5.25 0.95-1.38 0.07-1.34 2.28-0.87 2.75l-9.61 0.69c-9.6 1.94-13.04 6.34-13.28 14.2l-0.5 40.03 0.83 35.63-0.63 29.74 0.25 14.45 0.38 20.54c0 8.39 2.35 12.9 8.72 16.89 2.31 1.41 11.43 1.33 12.26 1.33l17.19 0.49 20.99-0.41 27.8-0.59 8.1-0.39 7.99 0.5 14.99 0.79 17.73-0.2 24.86-0.7 12.18-0.59c4.32-0.6 7.94-5.75 8.95-8.53l0.37-16.58-0.7-11.96 0.7-19.97-0.56-16.68 0.56-11.96-0.56-12.94 0.56-20.57-0.37-14.65 0.25-20.96c0-11.66-3.38-15.79-12.52-17.16zm-20.36-4.65c1.46-0.02 2.29 1.05 2.56 1.23h-4.18c0.13-0.46 0.44-1.21 1.62-1.23zm-118.2 0.25c1.59-0.25 2.1 0.45 2.48 0.85l-4.89 0.34c0.29-0.37 0.95-0.95 2.41-1.19z" fill="#AD8269" stroke="#806656" stroke-linecap="round" stroke-linejoin="round" stroke-width=".5"/>
  <path d="m22.42 23.8c-10.01 2.02-12.41 7.97-12.7 13.21l-0.7 21.72v15.87l0.6 19.66-0.5 25.73 0.35 22.93-0.35 6.3 0.6 23.98c-0.25 9.29 0.38 14.08 6.3 19.87 2.87 2.55 7.68 2.45 9.05 2.55l23.17 0.49 22.01-0.49 27.8-0.69 9.54 0.2 9.33 0.59 11.42 0.29 9.89 0.2 15.42-0.29 21.39-0.7 5.86-0.19c6.42-0.8 9.01-6.97 9.01-9.51l0.45-15.61-0.6-12.66 0.73-15.14-0.73-18.39 0.73-14.88-0.73-13.72 0.73-15.61-0.61-13.42 0.61-11.96-0.55-17.71c-0.78-8.01-5.49-11.91-12.89-12.62l-12.4-0.19-12.84-0.39-14.41 0.39-11.28-0.39-25.44 0.39-32.07-0.79-13.34 0.07-12.02 0.62-20.83 0.29z" fill="#F2DDBC" stroke="#D7B396" stroke-linecap="round" stroke-linejoin="round" stroke-width=".5"/>
  <path d="m187.5 32.34c-2.62-4.56-6.34-5.74-10.43-5.74l-8.37-0.12-6.46-0.19c-4.3 0-7.8-0.58-13.35-0.5l-11.99 1-4.61-1.57-5.57-0.1 10.09 2.96 2.87 3.76-5.57 1.55 3.48 3.13c3.38 1.29 11.15 0.57 13.4 1.09l3.27 0.59-1.45 6.97 7.99 1.78 3.59 5.66 6.77 5.06-2.7 5.25 6.9 4.26 3.93-3.86 8.21 3.51 2.47-4.11-0.77-25.61-1.7-4.77z" fill="#F2DDBC" opacity=".5"/>
  <path d="m189.2 185.6-2.2 3.26c-3.14 4.82-5.68 4.91-7.54 6.06l-2.04 0.59 0.25-1.4-3.46 0.71-6.76-4.37-6.14 0.5-5.13 0.85-6.03-2.69-3.86-0.15-5.54 1.04-6.01 3.73-6.99 0.59-7.5-1.38-4.12 0.19-5.45-0.39-3.76 1.29-5.1-0.5-4.12 0.2-9.31-0.39-12.35-3.19-6.09-2.87-6.5 0.99-11.91-1.04-7.58-3.31-11.92-1.09-6.63-0.05c-3.52-1.81-4.27-4.39-4.5-6.27l-0.7-9.1 3.31 8.21 1.69-4.61-1.13-3.3 1.13-6.67 1.53-0.4-0.4-1.85 4.12 0.1 2.11-0.69-2.31-0.99-6.04 0.59-0.78 0.99-0.6-0.79 0.23-0.89 9.77 0.4 7.34 0.29 1.06 0.99 0.65-2.77 0.82 4.06 1.18 0.69-0.75 3.63 3.1-3.53 0.4-2.77 4.08-1.09 7.67 0.59 4.77-0.99 3.99 1.99-0.41 2.86 2.56 0.2 1.58-4.65 5.31 0.89 3.85 0.6 4.87-0.3 6.41 0.4c5.03 2.76 8.22 7.72 8.83 11.49l-2.63 6.5c1.58 1.66 2.39 2.27 3.97 2.86l4.65 2.64 4.45-1.19 7.19 4.9 5.19 0.2 2.93-1.98 8.06 0.79 5.78 2.27 2.46-4.99-3.02-2.96 0.69-2.73 4.87 2.18 3 5.04 5 2.47 3.96 1.09 2.84-2.87 4.2-1.58 2.96 1.39 6.03 4.05 6.21-0.9 7.3-7.62 3.4 6.44-0.44-0.49z" fill="#FCECC8" opacity=".5"/>
  <path d="m9.36 45.42 0.9 1.39 0.95 13.73-0.95 12.66-1.25-0.79 0.35-26.99z" fill="#D1AD9A" opacity=".5"/>
  <path d="m189.9 157.2-0.73 2.15 0.35 8.71-1.43 4.88 0.38 5.97 0.35 3.23 1.55-6.22v-8.92l-0.47-9.8z" fill="#D1AD9A" opacity=".5"/>
  <path d="m190 133.2-0.77-0.99-0.41-0.5-0.88-3.22 0.83-6.57 1-0.92 0.23 12.2z" fill="#D1AD9A" opacity=".5"/>
  <path d="m10.12 143.4 0.6 3.36-0.2 13.43-1.15-5v-9.52l0.75-2.27z" fill="#D1AD9A" opacity=".5"/>
  <path d="m189.3 76.77-0.21 3.13 0.4 5.86-2.11 4.59-4.39 8.83-0.16 19.94 1.8 5.76-0.39 8.53 5.33-2.29 0.19-13.99-0.62-13.22 0.62-12.98-0.46-14.16z" fill="#D1AD9A" opacity=".5"/>
  <path d="m10.01 175.7 1.85 8.45c1.2 4.49 4.05 8.93 9.86 10.64l-4.73-1.23c-4.48-3.13-6.98-5.52-7.37-12.83l0.39-5.03z" fill="#FCECC8" opacity=".5"/>
  <path d="m160.7 67.06 1.39-0.34 1.1 3.36-1.66 3.13v3.16l-3.24 6.35 0.7 2.15 5.86 4.08-0.93 5.21-4.78 0.25-5.28 1.36-1.16 4.11-4.67 0.9-0.85 2.09-4.25 0.96-1.25 2.17 2.2 1.7h8.62l3.59 0.5 6.03-1.1-0.25 7.11 1.44 4.12-2.47 3.87 1.23 2.76 3.94 0.1 3.4 5.16 0.62 3.98 5.57-0.99 3.02 5.86-1.52 3.84 2.93 1.69-0.7 4.13 1.6 2.66 1.36 2.56 3.85-0.59 3.49 4.06 0.27-10.42-1.19-14.99-2.69-6.46 0.12-9.52-1.15-8.33 0.4-9.22 3.79-8.83-2.84-1.59-8.34 0.79-1.77-3.93-4.02-2.49-1.07-5.06-0.98-2.53-3.42-3.84-0.55-3.06-5.49-0.88z" fill="#F9DED4" opacity=".5"/>
  <path d="m186.6 170.1 1.22 0.96-1.22-0.96z" fill="#AD8269" opacity=".5" stroke="#AD8269" stroke-linecap="round" stroke-linejoin="round" stroke-width=".5"/>
  <path d="m10.01 132.7 1.37 4.36 3.43-0.09 5-1.89 3.6 3.27 1.25 2.35 0.52 7.52-3.57 2.57-6.14-1.65-4.6-1.99-0.86-14.45z" fill="#FCECC8" opacity=".5"/>
  <path d="m29.06 142.1 7.75 0.81c7.04 0.26 11.47-2.86 13.18-7.82l8.22-3.08-3.24-2.09-6.16 1.09-4.01-9.82-8.24-4.55-6.45 0.89-6.62 12.58 3.96 5.97 1.61 6.02z" fill="#D1AD9A" opacity=".5"/>
  <path d="m17.78 99.88 2.43 0.34 2.21 2.7 4.66-1.52 0.4 1.37-2.37 4.16 2.84 2.23-1.47 0.3-3.44 0.5-2.34 3.46-1.37-0.5v-4.06l-4.01-0.99 3.52-3.17-1.06-4.82z" fill="#70AA96" opacity=".5" stroke="#487272" stroke-linecap="round" stroke-linejoin="round" stroke-width=".5"/>
  <path d="m171.1 174.9 3.53-0.14 3-2.68 0.68 4.11 3.06 1.18-3.06 1.59-0.48 4.05-2.13-2.03-3.79-0.3 1.89-3.51-2.7-2.27z" fill="#70AA96" opacity=".5" stroke="#487272" stroke-linecap="round" stroke-linejoin="round" stroke-width=".5"/>
  <path d="m171.6 76.66 4.51-0.34 3.09-3.71 0.45 4.65 3.52 1.45-3.82 1.59-0.3 3.63-2.74-3.08-2.64 1.73 0.9-3.62-2.97-2.3z" fill="#70AA96" opacity=".5" stroke="#487272" stroke-linecap="round" stroke-linejoin="round" stroke-width=".5"/>
  <path d="m137.7 80.25 2.9-1.54 0.63-4.11 2.16 2.86 3.3-0.14-1.8 2.63 2.23 1.79-3.63-0.49-2.14 3.32-0.65-3.72-3-0.6z" fill="#D46D70" opacity=".5" stroke="#8A3743" stroke-linecap="round" stroke-linejoin="round" stroke-width=".5"/>
  <path d="m86.42 38.46 4.09-0.25 0.2-6.5 3.19 3.37 3.82-0.25-2.27 4.31 1.17 2.57-3.53-1.93-2.58 3.63-0.8-4.27-3.29-0.68z" fill="#70AA96" opacity=".5" stroke="#487272" stroke-linecap="round" stroke-linejoin="round" stroke-width=".5"/>
  <path d="m120.7 126.2 4.19-0.3 2.97-3.84 1.15 5.08 4.42 0.9-3.87 1.83 0.3 4.65-3.53-3.17-3.66 2.98-0.23-5.21-1.74-2.92z" fill="#E39890" opacity=".5" stroke="#B7585B" stroke-linecap="round" stroke-linejoin="round" stroke-width=".5"/>
  <path d="m129.9 142.7 4.07-1.7 2.77-3.73 2.23 0.79 0.55 2.65 5.81 1.39-1.05 3.18 1.49 1.87-4.61 2.76-2.04 4.59-2.53-1.18-0.42-2.84-4.62-0.57-1.65-2.45v-4.76z" fill="#D46D70" opacity=".5" stroke="#8A3743" stroke-linecap="round" stroke-linejoin="round" stroke-width=".5"/>
  <path d="m103 33.82 1.69 1.19 2.14-0.99 1.89 1.49 1.45-1.69 2.46 2.09 2.66-0.99 2.54 1.39 2.27-2.49 2.39 1.89 2.67-1.79 2.36 1.69 1.42 0.39 0.99 1.97-0.4 75.03-1.14 2.22-1.82-0.74-1.18-1.22-1.78 0.35-1.7-1.09-1.97 1.18-2.01-1.38-1.49 1.49-4.89-0.59-1.68-0.7-1.45 0.89-1.31-1.69-1.97 1.59-2.14-0.69-0.84-0.2 0.05-11.34 0.1-8.66-0.53-13.76 0.43-22.52-0.73-20.02 1.52-2.3z" fill="#BF9573" opacity=".5" stroke="#937255" stroke-linecap="round" stroke-linejoin="round" stroke-width=".5"/>
  <path d="m102.9 34.42 1.89 0.99 1.45-1.19 1.79 1.49 1.37-1.49 2.01 2.1 2.05-1.2 2.82 0.99 2.11-1.69 2.06 1.9 2.24-1.9 2.29 1.29 2.13-1.19 1.25 1.49-0.52 22.32 0.3 20.78 0.78 6.9v12.67l-0.83 13.34-1.45-0.89-1.79-1.27-2.16 1.17-1.82-1.17-1.79 0.1-1.34 2.16-2.84-0.2-2.34-0.39-1.86 0.39-1.45-1.58-1.57 1.68-1.6-1.97-2.53 2.07-0.8-0.39-0.07-20.63-0.7-14.44 0.6-18.73-0.8-17.21 0.6-6.5 0.52 0.2z" fill="#B3D5C5" stroke="#6A918D" stroke-linecap="round" stroke-linejoin="round" stroke-width=".5"/>
  <path d="m127.2 34.72 0.7 1.69-0.27 19.93-0.43 12.47-0.88 7.17 1.33 16.14-0.17 10.8-0.13 9.3" stroke="#6A918D" stroke-linecap="round" stroke-linejoin="round" stroke-width=".5"/>
  <path d="m115.1 35.32h-0.01c-1.66 0-3.5 0.39-3.45 2.78l0.7 3.02-1.14 10.49c-0.4 3.11 1.24 4.49 3.4 4.49 2.61 0 4.11-1.09 3.71-4.66l-1.2-10.22 0.79-3.31c0.17-1.6-0.85-2.59-2.8-2.59z" fill="#D8D8D8" stroke="#285656" stroke-linecap="round" stroke-linejoin="round" stroke-width=".5"/>
  <path d="m115.3 36.81-1.07 0.3-0.14 4.26 1.16 0.74 1.02-0.89-0.17-3.71-0.8-0.7z" fill="#D8D8D8" stroke="#285656" stroke-linecap="round" stroke-linejoin="round" stroke-width=".5"/>
  <path d="m115.6 49.91c-1.96 0-2.27 0.98-2.27 2.18s0.96 2.19 2.16 2.19 2.19-0.99 2.19-2.19-0.75-2.18-2.08-2.18z" fill="#D8D8D8" stroke="#285656" stroke-linecap="round" stroke-linejoin="round" stroke-width=".5"/>
  <path d="m115.7 55.91v56.51" stroke="#285656" stroke-linecap="round" stroke-linejoin="round" stroke-width=".5"/>
  <path d="m113.4 108.7h4.67l-0.47 4.41-3.85 0.19-0.35-4.6z" fill="#D8D8D8" stroke="#285656" stroke-linecap="round" stroke-linejoin="round" stroke-width=".5"/>
  <path d="m113.6 57.28 2.49-0.39" stroke="#285656" stroke-linecap="round" stroke-linejoin="round" stroke-width=".5"/>
  <path d="m113.7 59.92h2.11" stroke="#285656" stroke-linecap="round" stroke-linejoin="round" stroke-width=".5"/>
  <path d="m113.7 62.97h2.51" stroke="#285656" stroke-linecap="round" stroke-linejoin="round" stroke-width=".5"/>
  <path d="m113.3 66.71 2.66-0.1" stroke="#285656" stroke-linecap="round" stroke-linejoin="round" stroke-width=".5"/>
  <path d="m113.1 71 3.01 0.1" stroke="#285656" stroke-linecap="round" stroke-linejoin="round" stroke-width=".5"/>
  <path d="m113.9 74.6 2.14-0.1" stroke="#285656" stroke-linecap="round" stroke-linejoin="round" stroke-width=".5"/>
  <path d="m113.6 77.76 2.46-0.1" stroke="#285656" stroke-linecap="round" stroke-linejoin="round" stroke-width=".5"/>
  <path d="m113.5 82.06 2.56-0.1" stroke="#285656" stroke-linecap="round" stroke-linejoin="round" stroke-width=".5"/>
  <path d="m113.9 86.21 2.46-0.1" stroke="#285656" stroke-linecap="round" stroke-linejoin="round" stroke-width=".5"/>
  <path d="m114.4 90.01 2.16-0.1" stroke="#285656" stroke-linecap="round" stroke-linejoin="round" stroke-width=".5"/>
  <path d="m114.2 94.21 2.43-0.1" stroke="#285656" stroke-linecap="round" stroke-linejoin="round" stroke-width=".5"/>
  <path d="m113.8 98.01 2.61-0.13" stroke="#285656" stroke-linecap="round" stroke-linejoin="round" stroke-width=".5"/>
  <path d="m113.8 101.3h2.83" stroke="#285656" stroke-linecap="round" stroke-linejoin="round" stroke-width=".5"/>
  <path d="m113.8 104.8 2.56-0.01" stroke="#285656" stroke-linecap="round" stroke-linejoin="round" stroke-width=".5"/>
  <path d="m168 33.41c-8.08 0-14.61 6.25-14.61 13.78 0 7.52 6.53 13.85 13.67 12.95 6.64-0.82 12.67-8.98 12.67-14.38 0-7.26-5.75-12.35-11.73-12.35z" fill="#F2D864" opacity=".5" stroke="#AA6D29" stroke-linecap="round" stroke-linejoin="round" stroke-width=".5"/>
  <path d="m177.8 30.1 0.31 3.37" opacity=".5" stroke="#47291E" stroke-linecap="round" stroke-linejoin="round" stroke-width=".5"/>
  <path d="m182.8 39.93 3.17-0.6" opacity=".5" stroke="#47291E" stroke-linecap="round" stroke-linejoin="round" stroke-width=".5"/>
  <path d="m183.6 50.01 3.09 1.19" opacity=".5" stroke="#47291E" stroke-linecap="round" stroke-linejoin="round" stroke-width=".5"/>
  <path d="m177.4 61.38 1.88 4.7" opacity=".5" stroke="#47291E" stroke-linecap="round" stroke-linejoin="round" stroke-width=".5"/>
  <path d="m160.6 27.71 1.25 3.64" opacity=".5" stroke="#47291E" stroke-linecap="round" stroke-linejoin="round" stroke-width=".5"/>
  <path d="m148.7 32.69 4.42 3.52" opacity=".5" stroke="#47291E" stroke-linecap="round" stroke-linejoin="round" stroke-width=".5"/>
  <path d="m144.4 43.31 5.4 0.59" opacity=".5" stroke="#47291E" stroke-linecap="round" stroke-linejoin="round" stroke-width=".5"/>
  <path d="m155.7 66.74-2.01 3.27" opacity=".5" stroke="#47291E" stroke-linecap="round" stroke-linejoin="round" stroke-width=".5"/>
  <path d="m166 67.18 0.13 5.43" opacity=".5" stroke="#47291E" stroke-linecap="round" stroke-linejoin="round" stroke-width=".5"/>
  <path d="m136.2 60.09c1.44-0.57 1.97-0.87 1.97-1.76-0.67-3.62 1.73-6.21 5.04-6.21 1.95 0 3.35 0.52 4.15 1.49 1.27-3.54 3.6-4.81 6.47-4.81 3.26 0 5.17 2.15 5.41 5.01 1.83-0.72 5.05-1.1 6.63 2.2 0.65 1.42 1.75 1.91 3.31 2.02 1.69 0.12 2.11 1.68 1.88 3.45-0.25 1.14-1.05 1.19-2.49 1.24l-8.01 0.89-6.73-0.39-4.72-0.6-3.72 0.2c-1.38-0.1-2.05-0.69-3.07-0.59-3.77 0.59-7.46 0.89-7.16-1.15-0.15-1.03 0.6-0.99 1.04-0.99z" fill="#fff" opacity=".5" stroke="#6A918D" stroke-linecap="round" stroke-linejoin="round" stroke-width=".5"/>
  <path d="m102.9 2.91c8.7 0.4 20.18 2.82 30.38 9.4 6.51 4.36 11.02 7.05 17.83 7.5h15.82c1.25 0 1.05 1.98-0.32 2.38h-15.01c-5.99 0-11.33-4.08-15.46-6.56-9.07-5.26-19.87-9.25-34.49-9.25-15.62-0.2-27.97 3.72-37.83 9.69-5.69 3.51-9.66 6.27-15.04 6.89l-16.07 0.26c-1.24-0.06-1.45-2.35 0.09-2.92l5-0.25h5.79c5.64 0 11.17-3.92 14.51-6.15 10.08-6.33 24.3-11.36 39.9-11.19l4.9 0.2z" fill="#89CBC8" opacity=".5" stroke="#497B80" stroke-linecap="round" stroke-linejoin="round" stroke-width=".5"/>
  <path d="m27.89 34.62 46.05-0.5c5.83 0 7.77 3.83 8.12 9.59l0.35 9.22v36.22c-0.3 5.76-3.49 7.11-8.19 6.55l-45.13-0.54c-4.24-0.6-7-2.79-7.78-7.85l-0.3-46.48c0.18-4.12 2.58-6.11 6.88-6.21z" fill="#F2DDBC" stroke="#99664F" stroke-linecap="round" stroke-linejoin="round" stroke-width=".5"/>
  <path d="m18.07 45.66 1.3-0.89 0.82 0.23 0.12 13.73-1.3 0.24-1.02-1.04 0.08-12.27z" fill="#BCBCBC" stroke="#47291E" stroke-linecap="round" stroke-linejoin="round" stroke-width=".5"/>
  <path d="m18.19 71.7 0.92-1.44 0.8 0.15 0.27 13.82-1.25 0.49-0.8-1.04 0.06-11.98z" fill="#BCBCBC" stroke="#47291E" stroke-linecap="round" stroke-linejoin="round" stroke-width=".5"/>
  <path d="m32.81 43.41 5.42 4.21 6.5-0.36-3.58 4.65 2.13 6.22-5.36-2.34-4.16 5.82-0.85-6.81-5.2-2.09 5.77-2.5-0.67-6.8z" fill="#F4DB7C" stroke="#A88335" stroke-linecap="round" stroke-linejoin="round" stroke-width=".5"/>
  <path d="m42.11 45.96c4.39-4.84 9.83-6.54 17.17-7.76" opacity=".5" stroke="#6E6152" stroke-linecap="round" stroke-linejoin="round" stroke-width=".5"/>
  <path d="m46.91 47.8c3.9-1.84 6.27-2.71 9.98-3.17" opacity=".5" stroke="#6E6152" stroke-linecap="round" stroke-linejoin="round" stroke-width=".5"/>
  <path d="m26.92 68.5c0.59-2.86 1.84-5.18 3.09-7.42" opacity=".5" stroke="#6E6152" stroke-linecap="round" stroke-linejoin="round" stroke-width=".5"/>
  <path d="m27.66 65.54 1.35-1.63" opacity=".5" stroke="#6E6152" stroke-linecap="round" stroke-linejoin="round" stroke-width=".5"/>
  <path d="m43.51 89.94 0.45-0.49" opacity=".5" stroke="#6E6152" stroke-linecap="round" stroke-linejoin="round" stroke-width=".5"/>
  <path d="m52.97 89.3 0.65-0.4" opacity=".5" stroke="#6E6152" stroke-linecap="round" stroke-linejoin="round" stroke-width=".5"/>
  <path d="m54.27 87.26 0.45-0.6" opacity=".5" stroke="#6E6152" stroke-linecap="round" stroke-linejoin="round" stroke-width=".5"/>
  <path d="m30.01 81.74c-0.73-3.73 1.6-5.08 3.2-5.03 2.4 0.05 3.55 1.45 4.05 2.5 0.66-0.8 1.45-1.35 2.45-1.3 1.4 0.08 1.92 1.6 2.1 2.19 1.2-0.49 2.4-0.29 3.3 0.5 1.25 1.07 1 3.68 0.15 4.22l-3.5 0.35-2.4 1.84-3.25-0.8-1.4-1.73-6 1.14c-2.05-0.4-2.45-2.53-1.55-4.13l0.9-0.7 1.95 0.95z" fill="#fff" opacity=".5" stroke="#74A1A9" stroke-linecap="round" stroke-linejoin="round" stroke-width=".5"/>
  <path d="m83.96 53.43h4.71c1.44 0 1.82 1.31 1.92 3.31v12.86c-0.2 2.36-0.65 3.95-2.42 4.05h-3.86c-1.6 0-2.6-0.94-2.6-3.64v-13.27c0-2.05 0.7-3.31 2.25-3.31z" fill="#BCBCBC" opacity=".5" stroke="#99664F" stroke-linecap="round" stroke-linejoin="round" stroke-width=".5"/>
  <path d="m54.29 53.09 22.59 0.2c1.78 0 2.41 1.16 2.41 3.28v14.85c0 1.84-0.37 2.93-3.26 2.93l-20.31-0.45c-3.09-0.1-5.08-1.49-5.7-4.69l-0.3-5.55c0.1-2.3 0.89-9.71 4.57-10.57z" fill="#BCBCBC" opacity=".5" stroke="#99664F" stroke-linecap="round" stroke-linejoin="round" stroke-width=".5"/>
  <path d="m55.52 55.84 0.25 1.83h0.8l0.15-2.03-1.2 0.2z" fill="#285656" stroke="#47291E" stroke-linecap="round" stroke-linejoin="round" stroke-width=".5"/>
  <path d="m74.64 55.94 0.3 1.54h1.34v-1.59l-1.64 0.05z" fill="#285656" stroke="#47291E" stroke-linecap="round" stroke-linejoin="round" stroke-width=".5"/>
  <path d="m86.18 59.17-32.91 0.89c-2.56 0.2-3.96 1.15-3.96 3.75 0 2.2 0.75 3.53 4.51 3.5l32.1 0.26c2.27-0.1 2.75-1.4 2.8-3.86 0.05-3-1.1-4.49-2.54-4.54z" fill="#BCBCBC" stroke="#47291E" stroke-linecap="round" stroke-linejoin="round" stroke-width=".5"/>
  <path d="m60.09 62.13 0.13 2.57 8.17-0.25-0.1-3.42-3.26-0.09c-2.71-0.1-4.81 0.09-4.94 1.19z" fill="#BCBCBC" stroke="#47291E" stroke-linecap="round" stroke-linejoin="round" stroke-width=".5"/>
  <path d="m85.42 69.7 0.1 1.72 1.45 0.19 0.9-1.4-0.58-1-1.87 0.49z" fill="#BCBCBC" stroke="#47291E" stroke-linecap="round" stroke-linejoin="round" stroke-width=".5"/>
  <path d="m53.42 70 0.3 1.82 1.5 0.19 0.75-1.7-2.55-0.31z" fill="#BCBCBC" stroke="#47291E" stroke-linecap="round" stroke-linejoin="round" stroke-width=".5"/>
  <path d="m68.02 57.13h0.6c1.35 0 1.82 1.2 1.9 2l-0.1 9.33c-0.04 0.92-1 1.55-1.8 1.55h-0.5c-0.7 0-1.4-0.9-1.4-1.94l0.2-9.14c0.2-1.15 0.6-1.8 1.1-1.8z" fill="#D8D8D8" stroke="#285656" stroke-linecap="round" stroke-linejoin="round" stroke-width=".5"/>
  <path d="m61.75 82.1 3.63-2.15" opacity=".5" stroke="#628689" stroke-linecap="round" stroke-linejoin="round" stroke-width=".5"/>
  <path d="m66.12 79.21 0.7 2.85" opacity=".5" stroke="#628689" stroke-linecap="round" stroke-linejoin="round" stroke-width=".5"/>
  <path d="m67.85 79.85 1.12 1.4" opacity=".5" stroke="#628689" stroke-linecap="round" stroke-linejoin="round" stroke-width=".5"/>
  <path d="m67.97 82.84 2.1 0.35" opacity=".5" stroke="#628689" stroke-linecap="round" stroke-linejoin="round" stroke-width=".5"/>
  <path d="m65.83 83.83-1.05 2.28" opacity=".5" stroke="#628689" stroke-linecap="round" stroke-linejoin="round" stroke-width=".5"/>
  <path d="m143.2 100.9c1.45-1.05 2.85-0.83 3.7-0.4 0.8-3.32 2.6-5.35 7.12-4.81 1.69-4.7 4.31-6.5 8.14-6.6 4.1-0.09 6.89 1.78 7.57 6.15 1.32-1.14 2.77-1.39 4.59-0.84 1.8 0.6 3.5 3.57 3.3 6.4 1.9 0.55 2.73 1.31 2.73 2.6 0 1.75-3.4 3.36-5.4 3.19l-2.9-1.04-2.89 0.84-4.08-0.89-2.87 1.49h-5.13l-3.92-0.5-8.66 0.3c-3.24-0.2-5.23-2.29-4.64-4.13 0.48-1.39 1.3-1.86 3.34-1.76z" fill="#fff" opacity=".5" stroke="#6A918D" stroke-linecap="round" stroke-linejoin="round" stroke-width=".5"/>
  <path d="m35.07 112.5c-7.67 0-11.86 8.57-11.86 13.6 0 7.09 6.57 12.85 11.91 12.85h1.91c7 0 12.08-5.56 12.08-12.99-0.1-7.9-5.7-13.46-14.04-13.46z" fill="#89CBC8" stroke="#6A918D" stroke-linecap="round" stroke-linejoin="round" stroke-width=".5"/>
  <path d="m35.51 115.1c-6.75 0.65-9.59 7.26-9.7 11.15 0.45 5.9 4.9 9.52 10.25 9.52 6.29 0 10.85-5.71 10.85-10.24 0-6.29-4.8-10.78-11.4-10.43z" fill="#BBDED8" stroke="#6A918D" stroke-linecap="round" stroke-linejoin="round" stroke-width=".5"/>
  <path d="m33.51 122.2c-1.3 0-1.6 0.96-1.6 1.59 0 1.27 1.1 1.46 1.8 1.32l4.5 3.98c0.9 0.44 2 0 2.1-1.08 0.1-0.85-0.55-1.59-1.25-1.69l-3.45-3.2c-0.5-0.6-0.9-0.92-2.1-0.92z" fill="#47291E" stroke="#47291E" stroke-linecap="round" stroke-linejoin="round" stroke-width=".5"/>
  <path d="m39.11 121.8h0.4c0.4 0 0.7 0.4 0.7 0.8v0.35c0 0.4-0.35 0.76-0.75 0.76h-0.5c-0.5 0-0.9-0.4-0.9-0.9v-0.1c0-0.51 0.55-0.91 1.05-0.91z" fill="#47291E" stroke="#47291E" stroke-linecap="round" stroke-linejoin="round" stroke-width=".5"/>
  <path d="m33.31 129.2 0.3 0.39" stroke="#47291E" stroke-linecap="round" stroke-linejoin="round" stroke-width=".5"/>
  <path d="m49.36 131.5c3.78 0.56 8.32-0.09 11.12-2.4l0.45 0.01" stroke="#84AE88" stroke-linecap="round" stroke-linejoin="round" stroke-width="2"/>
  <path d="m65.93 153.6c3.14-6.54 6.51-11.54 6.06-19.54" stroke="#84AE88" stroke-linecap="round" stroke-linejoin="round" stroke-width="2.5"/>
  <path d="m70.39 148c4.35 0.25 10.52-0.66 14.83-8.58-5.31-0.15-11.28 1.33-14.25 7.78" stroke="#84AE88" stroke-linecap="round" stroke-linejoin="round" stroke-width=".5"/>
  <path d="m63.22 118.9c-1.91-1.19-7.8-1.07-8.7 4.15-0.25 3.83 3.41 6.03 5.39 5.23-1.27 3.01-1.3 5.6 1.8 8.87 2.37 1.45 5.66 1.5 7.36-2.13 1.35 2.13 5.32 2.26 6.12 0.05 1.82 1.49 5.22 1.04 6.22-0.35 2.05-1.99 3.66-5.81-0.2-9.13 3-2.59 4-5.01 2.2-8.71-2.2-3.18-6.93-3.24-8.67 0.18 0.25-5.36-1-7.9-6.29-8-4.64 0-5.84 5.73-5.23 7.12v2.72z" fill="#E9A6B3" stroke="#C97386" stroke-linecap="round" stroke-linejoin="round" stroke-width=".5"/>
  <path d="m67.07 115.5 1.15 3.21" stroke="#C97386" stroke-linecap="round" stroke-linejoin="round" stroke-width=".5"/>
  <path d="m73.91 119.3 4.07 2.98" stroke="#C97386" stroke-linecap="round" stroke-linejoin="round" stroke-width=".5"/>
  <path d="m67.42 132.2 0.65-2.13" stroke="#C97386" stroke-linecap="round" stroke-linejoin="round" stroke-width=".5"/>
  <path d="m76.4 128.9-1.08-1.79" stroke="#C97386" stroke-linecap="round" stroke-linejoin="round" stroke-width=".5"/>
  <path d="m70.82 119.1c-3.75 0-5.9 3.14-5.9 5.9 0 3.1 2.84 5.57 5.5 5.12 3.07-0.5 5.07-2.67 5.39-4.93 0.47-3.17-1.39-6.09-4.99-6.09z" fill="#F5D783" stroke="#D19142" stroke-linecap="round" stroke-linejoin="round" stroke-width=".5"/>
  <path d="m67.88 124.4 0.34 0.3" stroke="#926928" stroke-linecap="round" stroke-linejoin="round" stroke-width=".5"/>
  <path d="m72.29 123.9 0.45 0.3" stroke="#926928" stroke-linecap="round" stroke-linejoin="round" stroke-width=".5"/>
  <path d="m45.19 155.6 6.9-0.62 7.93 0.13 2.69 0.39 8.41 0.19c4.07-0.3 5.69 2.4 6.15 7.8v13.5c-0.15 2.93-0.6 5.43-3.33 6.13l-12.62 0.69-11.98-0.74c-4.28-0.5-6.67-0.6-7.26-4.69l-0.45-14.19c0.5-6.99 0.45-7.39 3.56-8.59z" fill="#D8E7EB" stroke="#668789" stroke-linecap="round" stroke-linejoin="round" stroke-width=".5"/>
  <path d="m46.21 157.9c-2 1.84-2 6.3-2 8.22 0 3.48 0.5 11.28 2 12.87 1.5 1.58 6.8 1.31 8.96 1.71 1.6-0.13 6.02 0.1 8.14-0.4 2.07-0.4 6.86-1.09 7.86-2.71 1.64-1.78 2.54-8.59 2.54-11.47-0.35-5.05 0-8.71-4.29-9.01-3.9-1.03-16.65-1.18-23.21 0.79z" fill="#D88466" stroke="#90513B" stroke-dasharray="1 3" stroke-linecap="round" stroke-linejoin="round" stroke-width=".5"/>
  <path d="m23.89 158.5c-1.1 1.39-1.6 6.1-0.8 12.5l0.8 7.74c1.06 1.86 2.11 2.46 3.35 2.36l6.47-0.3 9.38-0.6-0.68-22.1-6.6 0.2-6.72-0.5-5.2 0.7z" fill="#D88466" stroke="#90513B" stroke-dasharray="1 3" stroke-linecap="round" stroke-linejoin="round" stroke-width=".5"/>
  <path d="m73.51 168.2h-8.63 103.1c-105-0.29-104.6 1.9-103.6 1.8h105.9c-96.25-0.14-95.85-1.4-96.8-1.8z" fill="#D8E7EB" stroke="#668789" stroke-linecap="round" stroke-linejoin="round" stroke-width=".5"/>
  <path d="m76.51 158h81.7c-66.62 0.2-59.54 7-59.1 10.6 0.1 2.2-5.22 10.47-10.44 12.4l-12.58-0.5 0.42-22.5z" fill="#D88466" stroke="#90513B" stroke-dasharray="1 3" stroke-linecap="round" stroke-linejoin="round" stroke-width=".5"/>
  <path d="m53.72 168.2-0.6 2 1.45 0.7 1.1-0.9-0.1-1.4-1.85-0.4z" fill="#47291E" stroke="#47291E" stroke-linecap="round" stroke-linejoin="round" stroke-width=".5"/>
  <path d="m81.18 168 0.53-0.2 1 0.3-0.05 1.69-1.35 0.3-1-1.2 0.87-0.89z" fill="#47291E" stroke="#47291E" stroke-linecap="round" stroke-linejoin="round" stroke-width=".5"/>
  <path d="m96.73 103.3-4.24 2 0.1 4.84-4.28-3.4-4.8 2.26 2.25-5.4-2.15-3.45 4.8 0.65 3.4-4.6 0.1 5.19 5.3 1.81-0.48 0.1z" fill="#F5D783" stroke="#977832" stroke-linecap="round" stroke-linejoin="round" stroke-width=".5"/>
  <path d="m102.1 157.7c1.2-7.25 5.29-13.05 12.95-14.74l-2.4 3.49" opacity=".5" stroke="#725942" stroke-linecap="round" stroke-linejoin="round" stroke-width=".5"/>
  <path d="m109.4 180.8" opacity=".5" stroke="#725942" stroke-linecap="round" stroke-linejoin="round" stroke-width=".5"/>
  <path d="m96.78 130c5.4-3.1 9.47-3.69 19.03-4" opacity=".5" stroke="#725942" stroke-linecap="round" stroke-linejoin="round" stroke-width=".5"/>
  <path d="m95.43 139.1" opacity=".5" stroke="#725942" stroke-linecap="round" stroke-linejoin="round" stroke-width=".5"/>
  <path d="m96.78 126.4c4.01-3.51 12.58-4.61 21.14-2.61" opacity=".5" stroke="#725942" stroke-linecap="round" stroke-linejoin="round" stroke-width=".5"/>
  <path d="m120.2 121.1 2.7 1.68" opacity=".5" stroke="#DF8285" stroke-linecap="round" stroke-linejoin="round" stroke-width=".5"/>
  <path d="m134.1 123.1-2.37 1.76" opacity=".5" stroke="#725338" stroke-linecap="round" stroke-linejoin="round" stroke-width=".5"/>
  <path d="m133.2 132.9-1.55-1.69" opacity=".5" stroke="#725338" stroke-linecap="round" stroke-linejoin="round" stroke-width=".5"/>
  <path d="m164.3 118.4c8.62 0.39 12.82 5.64 15.92 11.75l-2.5-3.26" opacity=".5" stroke="#725438" stroke-linecap="round" stroke-linejoin="round" stroke-width=".5"/>
  <path d="m136.1 162-1.2-4.94-1 0.05-2.8-4.35-3.8-4.35-3.78 2.34-1.61-3.09h-1.37 27.56l-29.53 0.79-0.73 1.85-2.74 0.3-2.4 0.95-0.66 4.5-2.94 1.77-0.8 5.59-0.09 2.86 3.34 1.99-0.99 5.09 2.5 1.3 2.74-1.04 2.7 6.54 2.76-2.09 2.36 0.8 2.23 0.3 0.58-3.49 3.36-1.84 1.1 1.14 2.55-3.52 3.84-1.3 1.02-0.65-0.93-6.34-0.17-0.46-0.9-0.59-0.2-0.11z" fill="#6AAD96" opacity=".5" stroke="#528B7A" stroke-linecap="round" stroke-linejoin="round" stroke-width="1.5"/>
  <path d="m143.6 159.2 1.6-1.2 3 2.37 5.42-3.26 1.4 0.49 5.2 2.79 2.4-0.19 1.3 0.8-0.3 3.6 1.2 4.4 2.95 0.2-0.35 3.89-2.35 2.23 1.3 4.67-2.25 1.4-2.4-0.89-4.41 5.7-2.84 0.88-0.63-1.87-5.39 0.6-2.75 0.62-2.6-4.53-4-1.7v-2.8l1.8-1.73-1.8-4.57 1.7-2.29-1.75-2.3 1.75-3.5 2.75-0.7-0.1-3.22 0.15-0.09" fill="#F7DF87" stroke="#917565" stroke-linecap="round" stroke-linejoin="round" stroke-width=".5"/>
  <path d="m153.5 169.1 2.6 2.68c0.7 2.49-3.16 4.58-4.61 2.21l-1-3.01 2.96-2.19 0.05 0.31z" fill="#B6B6B6" stroke="#605146" stroke-linejoin="round" stroke-width=".5"/>
  <path d="m123.9 160.6 3.79 0.51-1.53 5.47-3.44 0.38-2.08-1.18 0.22-4.43 3.04-0.75z" fill="#B6B6B6" stroke="#605357" stroke-linecap="round" stroke-linejoin="round" stroke-width=".5"/>
</svg>