<svg xmlns="http://www.w3.org/2000/svg" width="200" height="200" fill="none" viewBox="0 0 200 200">
<!-- SVG created with Arrow, by QuiverAI (https://quiver.ai) -->
  <rect transform="translate(0 16)" width="200" height="167.6" fill="#FEFFFE"/>
  <path d="m1.44 182.9 196.7-0.17 0.88-17.81-7.19-13.93 5.11-11.18-10.79-16.37 0.65-13.36-13.23-8.45 0.58-3.12-27.28-10.94-5.94-1.74-8.39 0.68-16.25 0.52-11.59-0.56-17.34 0.73-14.71 1.21-22.57 5.11-17.74 6.81-7.88 6.69-2.98 1.88-8.41 20.02-2.2 10.35-4.07 2.32 3.89 1.92 12.27 13.67 13.92 6.22-1.85 2.7 2.73 0.61 3.02 2.04-0.94 4.53 3.96 3.9 3-0.21-0.36 2.76 1.9 1.26 1.1-2.26 1.33 0.79 0.68-3.01 4.66-2.2 3.67-1.5 15.66 2.59 7.92-0.67 13.63 0.83 10.95 0.67 10.51-0.67 16.06-2.93 11.95-0.82 7.54 1.91 3.89-1.49 2.15-4.42 8.54-3.77 5.18 2.76 1.07 1.01 1.26 1.21-2.33 0.96 10.38-5.87 12.76-13.01-0.92-14.85 0.63-9.16-3.98-12.01-7.49-7.27-10.96-7.03 0.23-2.37-15.3-8.78-11.31-3.36-5.8-1.1-3.67-10.1-10.36-24.89-7.85-22.63 2.32-0.55 14.15 5.51 14.22 7.67 8.3 7.04 11.34 7.25 8.14 11.56 10.24 21.87 4.33 20.51-2.18 2.08-5.7-2.47-7.74-4.84-5.69 5.44-1.71 1.83 6.77-0.14 7.38 1.29 7.54 4.52 5.18 10.87-0.65 7.19-6.54 12.05-12.59 10.76-10.58 6.02-5.18 4.41-4.46 4.1-6.27-1.42-9.16 0.82-13.17 2.94-12.77 0.32-18.55 0.25-14.26-1.15-14.84-2.07-15.84-3.89-17.44-4.38-13.05-5.73-11.49-15.21-5.77-1.98-1.3-3.43 7.14-24.77 9.67-23.23 9.99-21.98 10.59-13.89 12.26-12.63 15.56-8.94 18.41-6.9 13.24-4.26 6.87-1.67 11.14 0.58 11.16 2.7 13.11 5.8 12.65 8.81 14.04 14.29 11.28 19.2 9.92 24.02 2.39 13.96-2.29 2.02-4.12-1.61-9.48-14.58-3.48-11.18-5.24-15.3-6.87-12.04-10.23-12.3-6.27-4.47-11.56-6.38-10.95-4.14-8.98-5.39-7.47-3.59-5.87 0.26-13.48 1.86-15.49 5.28-15.63 8.95-16.06 13.83-12.77 17.37-15.05 30.74-8.2 26.64-2.01 12.05 1.42 3.43 6.33 0.39 2.7-2.97-0.39 4.07 4.33 5.54-2.73-2.05-6.54-4.41-3.89 0.55-0.79 42.65z" fill="#FEFFFE"/>
  <path d="m103.2 18.75 5.69 0.17 11.27 1.34 12.87 2.62 7 2.81-13.87-1.34-12.12-4.31-6.24-1.29h-4.6z" fill="#976F48" opacity=".25"/>
  <path d="m110.4 19.49 5.6 0.34 12.71 3.05 13 4.53 12.27 7.55 13.17 12.78 4.94 5.37-7.39-5.51-10.79-10.02-12.27-7.68-13.63-5.76-12.01-3.81-5.6-0.84z" fill="#976F48" opacity=".25"/>
  <path d="m169.9 54.71 8.54 12.17 12.47 28.33 1.2 13.24-2.56 1.4-1.98-2.83-5.25-14.81-7.61-19.55-4.81-11.62v-6.33z" fill="#976F48" opacity=".25"/>
  <path d="m10.74 137.7-3.29 1.18-3.56-0.69-0.68-2.94 3.74-13.85 7.78-21.32 9.43-21.15 12.19-18.87 12.52-14.01 13.92-11.02 15.38-9.01 13.17-4.97 9.8-2.34 1.81-0.21-5.94 1.6-13.33 3.6-14.91 7.2-15.05 10.16-14.45 14.94-12.4 19.09-11.2 25.16-6.54 18.46-2.07 11.18 3.68 7.81z" fill="#976F48" opacity=".25"/>
  <path d="m195.9 121.8 0.95 8.21-6.26 15.37-14.7 11.81-9.83 5.51-5.55 5.58-4.77 3.69-4.49-1.39-3.14-2.37-13.86 2.83-13.03 3.01-16.64 0.14-14.18-0.83-14.25 0.83-18.73-4.15-3.22 1.19-2.9-1.19-4.13 1.86-3.07-1.1-1.64-3.74 1.71-1.84-0.88-0.51-6.4 1.32-1.46-1.82 1.32-1.18 12.37 2.26 13.51 3.77 18.02 3.01 18.15 0.99 18.15-0.41 17.09-2.27 14.53-2.17 6.76 1.52 6.76-3.26 10.83-5.87 13.17-9.78 9.91-14.54 0.85-7.82-0.95-6.66z" fill="#976F48" opacity=".25"/>
  <path d="m23.08 167.9 1.59-0.76 0.72 0.92-2.31-0.16z" fill="#B66359" opacity=".25"/>
  <path d="m35.85 168.1 1.14 0.69-1.56 0.35-0.32-0.83 0.74-0.21z" fill="#B66359" opacity=".25"/>
  <path d="m59.27 172.4 1.07-0.48 0.68 0.61-0.51 1.61-1.63-0.13-0.36-1 0.75-0.61z" fill="#B66359" opacity=".25"/>
  <path d="m165.3 166.7 1.43-0.61 0.91 1.03-0.44 2.52-1.42 0.38-1.49-1.7 1.01-1.62z" fill="#B66359" opacity=".25"/>
  <path d="m173.1 164.7 0.91-0.79 0.92 1.39-0.92 1.61-1.49-0.89 0.58-1.32z" fill="#B66359" opacity=".25"/>
  <path d="m193.1 141.1 2.46 1.64-5.02 6.7-3.6 1.74 4.02-5.99 2.14-4.09z" fill="#976F48" opacity=".25"/>
  <path d="m196.6 127.1c-1.1-9.58-7.98-18.15-19.62-24.64l-2.87-4c-11.1-7.37-25.71-11.86-41.58-12.03l-0.37-0.13-15.55 0.45-12.26-0.3-12.57 0.25-11.49 0.96-7.68 0.67c-20.53 2.83-35.66 6.9-46.61 14.92l-3.09 3.77 0.88 0.43c-6.59 6.98-10.8 15.18-12.39 24l-0.68 4.63c4.83 13 25.71 26.96 63.11 31.85 46.2 5.96 88.12-2.62 101.3-13.4 13.23-7.67 22.21-17.58 21.43-27.43z" fill="#CCD9E0" stroke="#694F46" stroke-miterlimit="10" stroke-width=".5"/>
  <path d="m195.4 127.2c-1.14-10.72-10.94-19.73-22.21-25.78l-0.07-2.95c-10.98-7.72-25.08-11.84-40.76-11.84l-0.37-0.16-15.67 0.56-12.91-0.35-12.77 0.47-11.52 0.82-5.12 0.72c-19.86 3.28-36.56 7.53-48.48 16.13l-2.18 2.54c9.9 0.42 21.68 2.78 29.22 4.69l4.29 0.21c7.02 0.36 14.42 2.84 18.19 2.33l1.95-1.63-0.39 1.92-1.07 1.09 0.07 1.35 2.39 1.78 2.53 5.92-1.63 2.69 5.31 4.42 0.76 1.74 4.12-0.21 6.13 1.12 4.77 0.67 6.4-0.1 2.94-0.89 3.12 0.21 7.33-1.64 5.19-0.35 4.12 2.06 7.03-1.08 5.18-1.01 3.83 1.22 2.94-1.15 1.95-0.04 4.12 0.67 4.13 0.52 8.53 4.24 5.7 4.6-1.63 3.72-4.35 5.53 3.66 2.83 6.84-2.76 6.46-3.82c8.39-8.29 12.75-14.19 11.93-21.01z" fill="#F3D8E2" stroke="#A682A5" stroke-miterlimit="10" stroke-width=".5"/>
  <path d="m116.2 88.42-6.37-0.28-2.73 2.02-0.68 6.84 1.63 5.86-1.7 2.7 2.6 2.7 7.25-1.17 7.1-2.7 2.94-7.25-2.07-6.91-7.97-1.81z" fill="#FAE594" stroke="#F9D675" stroke-miterlimit="10" stroke-width=".2"/>
  <path d="m77.25 88.7-4.46 0.56 5.32 6.98 2.64 2.86 7.46 7.38 2 1.52 11.95-1.38 3.01-6.1-0.14-11.62-2.94-1.32-5.08 0.67-1.29 0.72-3.49-0.21-3.6 0.67-3.19-0.39-2.21-0.93-5.98 0.59z" fill="#B2D7BC" stroke="#96CCAB" stroke-miterlimit="10" stroke-width=".2"/>
  <path d="m24.34 109.2-4.13 3.35-5.48 14.47 1.33 4.2-3.9 2.7-0.42 3.59c4.53 10.48 19.44 21.57 38.88 21.4l26.35-19.83 6.26-5.86-1.63-1.78-4.53-1.43-2.8-3.84-1.14-3.05 0.1-2.83-4.94-3.08-7.68-2.42-6.7-0.73-16.06-3.26-13.51-1.6z" fill="#B6E3ED" stroke="#89CEDC" stroke-miterlimit="10" stroke-width=".5"/>
  <path d="m152.2 114.4 5.98 0.67 5.63-0.82 8.12-4.92 3.66-0.99 6.47 0.31 6.7 5.2 1.08 4.24-2.67 5.92 1.01 5.07-0.88 4.04-2.25 1.85 0.68 3.43-2.04 4.53 1.14 3.36-2.53 2.06-3.12 2.69-4.6 2.06-5.48-3.08-4.13 3.08-4.94-0.35-4.84-6-2.99-32.35z" fill="#D5B7D8" stroke="#B492BD" stroke-miterlimit="10" stroke-width=".5"/>
  <path d="m147.7 90.16 5.32 4.28 4.76 1.66 4.39-2.09 5.41 2.7 6.04 3.63-0.66 2.76-6.67 7.05-6.27 3.36-3.25-0.42-5.6-2.69-4.2-13.41 0.73-6.83z" fill="#D1E3F2" stroke="#B4CFE6" stroke-miterlimit="10" stroke-width=".5"/>
  <path d="m117.2 98.38 5.05-6.35 10.72-4.92 3.16 1.52 1.77 7.6-0.82 5.48-4.22 2.4-6.6-0.8-7.89-4.2-1.17-0.73z" fill="#D1E3F2" stroke="#96B8CE" stroke-miterlimit="10" stroke-width=".5"/>
  <path d="m155.2 133 7.47 2.15 8.91 6.76-0.75 2.12-10.65 7.19-2.8-1.32-2.18-16.9z" fill="#FDF0F0" stroke="#B28291" stroke-miterlimit="10" stroke-width=".5"/>
  <path d="m115.6 144.4 9.16-6.6 12.87-4.18 5.6 1.05 3.46 12.64 0.07 7.12-11.81 3.29-12.74-6.7-6.61-6.62z" fill="#FADED9" stroke="#C98E96" stroke-miterlimit="10" stroke-width=".5"/>
  <path d="m12.1 136.6-1.36 1.99-5.73 0.59-1.7-2.45 6.8-26.07c14.05-37.76 32.17-68.6 66.43-86.01 9.48-3.79 15.57-5.31 21.77-5.76l4.12-0.92c7.98-0.17 15.38 5.92 22.35 16.21 13.01 20.3 20.68 41.68 25.18 63.51l8.91 71.27-2.8 2.69-3.56-1.46-2.56-3.32-10.24-58.5c-4.53-23.68-12.98-51.09-24.86-72.78-4.85-6.06-10.24-9.41-13.71-9.21-5.02 1.29-7.41 4.22-11.98 10.94l-0.48-3.14 2.83-4.79 7.04-3.32c-6.27 0.64-14.47 2.84-28.54 10.45-21.9 11.19-44.32 40.41-57.91 100.1z" fill="#F2DEC2" stroke="#9E785D" stroke-miterlimit="10" stroke-width=".7"/>
  <path d="m103.7 19.34-0.14 5.86-0.19 1.12" stroke="#946F51" stroke-miterlimit="10" stroke-width=".7"/>
  <path d="m109.7 19.41c11.2 0.7 29.76 7.25 39.98 14.66 16.51 12.31 26.17 25.6 39.04 57l3.33 16.23-1.49 2.62-3.05-1.31-13.6-35.25c-9.73-21.35-19.73-35.23-39.5-43.67-10.32-4.6-17.86-6.92-24.71-10.28z" fill="#F2DEC2" stroke="#9E785D" stroke-miterlimit="10" stroke-width=".7"/>
  <path d="m150.5 37.41c-1.43 0-1.29 2.39 0.17 2.39 1.39 0 1.39-2.39-0.17-2.39z" fill="#8F674C"/>
  <path d="m58.49 38.3c-1.43 0-1.29 2.39 0.17 2.39 1.39 0 1.32-2.39-0.17-2.39z" fill="#8F674C"/>
  <path d="m122.5 41.52c-1.43 0-1.29 2.39 0.17 2.39 1.32 0 1.18-2.39-0.17-2.39z" fill="#8F674C"/>
  <path d="m87.06 34.01c-1.14 0-1.06 1.95 0.14 1.95 1.07 0 1-1.95-0.14-1.95z" fill="#8F674C"/>
  <path d="m150.2 40.69-0.68 21.39" stroke="#604436" stroke-miterlimit="10" stroke-width=".7"/>
  <path d="m150.6 62.63c-9.96-0.42-9.28 13.4-1.46 13.81 8.54 0.42 9.81-13.33 1.46-13.81zm-0.88 11.69c-5.47-0.28-5.12-10.16 0.28-9.95 4.83 0.14 5.9 10.22-0.28 9.95z" fill="#E2C3A2" stroke="#6E503F" stroke-miterlimit="10" stroke-width=".5"/>
  <path d="m149.8 61.94h0.61c0.61 0 1.06 0.58 0.99 1.27l-0.28 1.85c-0.21 1.35-2.32 1.28-2.39-0.14l-0.07-1.85c-0.07-0.61 0.49-1.2 1.14-1.13z" fill="#F2DEC2" stroke="#604436" stroke-miterlimit="10" stroke-width=".5"/>
  <path d="m59.15 43.66c-1.01 1.06-1.29 6.78-0.41 16.89" stroke="#604436" stroke-miterlimit="10" stroke-width=".7"/>
  <path d="m58.81 60.13c-11.16 0-12.97 18.23-0.5 19.94l0.68 0.07h1.88c11.64-0.66 11.93-18.95-0.15-20.01h-1.91z" fill="#D4D4D4" stroke="#604436" stroke-miterlimit="10" stroke-width=".2"/>
  <path d="m57.86 60.31c-5.91 0.77-9.71 7.11-8.45 12.8 1 4.27 3.74 5.81 7.5 6.68l0.95-19.48z" fill="#9CACCC" stroke="#604436" stroke-miterlimit="10" stroke-width=".2"/>
  <path d="m60.58 60.31c5.19 0.42 9.38 4.85 9.24 10-0.14 5.62-4.11 8.96-7.77 9.55l-1.47-19.55z" fill="#D8988D" stroke="#604436" stroke-miterlimit="10" stroke-width=".2"/>
  <path d="m59.29 60.52c-3.4 2.9-7.2 11.25-0.4 19.03l0.98 0.31c3.33-0.38 5.76-7.88 3.16-14.14-1.2-2.8-2.18-4.61-3.74-5.2z" fill="#F3E8DC" stroke="#604436" stroke-miterlimit="10" stroke-width=".2"/>
  <path d="m121.6 46.17c-3.46 2.45-3.25 11.67-0.97 15.09l-0.2 4.7c-0.07 1.67 2.66 1.46 2.59-0.35l-0.35-4.81c1.56-3.03 2.89-10.64-1.07-14.63zm0.07 1.74c2.01 0.93 1.8 7.41-0.59 12.3-1.98-3.05-1.84-9.91 0.59-12.3z" fill="#F2DEC2" stroke="#604436" stroke-miterlimit="10" stroke-width=".5"/>
  <path d="m116.2 66.9c1.01-1.84 4.9-0.28 6.26 0 2.36 0.45 6.03-1.39 6.24 1.44 0.07 1.32-0.58 2.58 0.43 3.83 1.26 1.57 3.51 2.99 2.6 4.9-0.75 1.64-2.53 1.09-3.31 2.86-0.81 1.92-0.21 3.98-2.53 4.7-2.36 0.8-3.62-1.19-5.8-1.54-1.98-0.34-3.76 1.68-5.32 0.49-1.98-1.46-0.07-4.52-2.11-6.23-1.88-1.57-2.56-3.48-0.58-5.04 1.19-0.96 2.33-0.68 2.94-2.56 0.36-1.13 0.57-1.89 1.18-2.85z" fill="#E2C3A2" stroke="#9A7158" stroke-miterlimit="10" stroke-width=".5"/>
  <path d="m121.6 70.82c-6-0.24-6.28 7.86-1.1 8.31 5.91 0.49 6.79-8.07 1.1-8.31z" fill="#FEFEFE" stroke="#9A7158" stroke-miterlimit="10" stroke-width=".5"/>
  <path d="m89.51 37.11c-3.46 2.45-4.88 6.59-2.59 10.8l0.85 2.83-0.64 1.74-0.88 3.76-5.19 6.97 1.33 2.51 1.36 5.49c0.42 1.85 2.43 1.37 3.38 0.49l1.63-0.35 2.43 0.28 2.6-0.62 1.26 0.41 1.7-5.55 0.88-3.56-2.6-3.35-2.87-1.68-1.49-4.07 0.42-3.19c2.05-4.21 1.84-9.76-1.58-12.91zm0.75 1.39c1.97 1.61 0.9 8.52-1.35 11.14-2.43-2.45-2.85-8.93 1.35-11.14z" fill="#F2DEC2" stroke="#604436" stroke-miterlimit="10" stroke-width=".5"/>
  <path d="m83.12 63.98 2.11-1.99 2.83-1.68 1.7-6.48 1.43-0.21 1.14 3.42 2.83 1.57 1.7 2.12-1.7 3.32-0.51 5.66-1.5 1.16-5.02-0.77-2.18 0.83-0.78-4.86-2.05-2.09z" fill="#F3E8DC" stroke="#977560" stroke-miterlimit="10" stroke-width=".5"/>
  <path d="m76.28 88.29c1.72-17.15 4.85-41.51 10.99-57.38" stroke="#9E785D" stroke-miterlimit="10" stroke-width=".7"/>
  <path d="m150.5 41.81-1.07 17.15" stroke="#604436" stroke-miterlimit="10" stroke-width=".5"/>
  <path d="m103.6 19.06 0.14 6.97c9.48 2.52 21.74 19.48 28.99 40 7.1 20.18 15.08 52.35 23.82 102.8l-1.56 1.22-3.19-3.09-13.3-64.99c-6.44-28.84-18.42-73.01-34.9-82.96z" fill="#D8AF86" stroke="#9E785D" stroke-miterlimit="10" stroke-width=".7"/>
  <path d="m22.18 91.21-11.16 25.04-3.16 20.88 2.18 0.44 12.94-35.41 0.82-10.95h-1.62z" fill="#D8AF86" stroke="#9E785D" stroke-miterlimit="10" stroke-width=".7"/>
  <path d="m22.76 81.81-1.43 3.22 1.43-2.02v-1.2z" fill="#9E785D" opacity=".5"/>
  <path d="m19.16 94.73 0.68 3.36 0.75 0.35 0.35-3.36-1.78-0.35z" fill="#9E785D" opacity=".5"/>
  <path d="m41.18 49.99-8.91 10.42 6.83-8.98 2.08-1.44z" fill="#9E785D" opacity=".5"/>
  <path d="m28.13 78.49-2.32 4.24 1.42-5 0.9 0.76z" fill="#9E785D" opacity=".5"/>
  <path d="m169.1 53.11 3.67 4.38-1.36-1.28-2.31-3.1z" fill="#9E785D" opacity=".5"/>
  <path d="m181.6 74.9 3.8 8.18-1.98-2.52-1.82-5.66z" fill="#9E785D" opacity=".5"/>
  <path d="m13.01 111.1-3.15 7.19 0.39-3.19 1.35-3.65 1.41-0.35z" fill="#976F48" opacity=".25"/>
  <path d="m20.8 107.6 2.11-0.89 1 0.66-3.11 0.23z" fill="#976F48" opacity=".25"/>
  <path d="m15.31 134.3 11.08-2.16 1.56 2.3 7.03-1.39 3.67 3.59-1.07 2.36-8.12 12.17-9.39-9.22-5.34-4.85 0.58-2.8z" fill="#6299B2" opacity=".25"/>
  <path d="m26.85 147.9 17.06-8.4 2.21 1.39 4.99-1.88 2.32 0.56 5.98-2.58 1.63-3.18 5.91 1.88 5.7-0.59 3.26-2.26-2.84-4.24 1.64-0.52 3.15 2.42 1.78 3.39-3.93 4.17-26.29 19.42-6.5-1.39 3.09-1.39 7.46-5.51-2.28-0.8-12.54 6.8-1.63-0.9 13.67-8.09-1.08-0.52-12.52 7.26-2.33-1.16 12.02-7.04-1.63-0.66-16.56 5.86-1.74-2.04z" fill="#6299B2" opacity=".25"/>
  <path d="m38.06 101.1 4.19 0.45 4.13 2.39 3.26 0.41 2.77 2.3 1.14-1.12-4.39-2.06-2.84-1-3.19-2.13-5.07 0.76z" fill="#72BF72" opacity=".25"/>
  <path d="m44.26 100 2.6 0.28 3.46 2.33 1.81 0.51 2.43-2.12-2.53 0.28-3.4-2.06-1.2-1.19-3.17 1.97z" fill="#72BF72" opacity=".25"/>
  <path d="m49.63 97.79 2.18-0.66 2.9 1.78 1.5-0.21 1.98 1.85 1.77-1.85 3.73-0.45 3.67 0.8 1.7-0.8 1.78 1.79 2.07-0.28 1.14 1.56 2.5-0.77 1.63 1.75-2.25 0.35 2.73 0.99 2.4 1.57 2.6 1.13 1.42 1.64-5.67 1.06-4.49 2.76-6.97 1.06-4.12-2.06-5.98-0.28-4.9-2.9-2.97-1.56 3.46 0.14 2.25-1.49-1.63-0.8-2.6-1.3-1.83-4.82z" fill="#99D18E" opacity=".25"/>
  <path d="m72.39 95.66 2.04 0.42 1.49-0.87 0.92 1.5-1.71 0.35-2.74-1.4z" fill="#72BF72" opacity=".25"/>
  <path d="m81.55 91.24 3.09 1.06 3.22 6.52 2.36 3.34 1.7 1.06 0.75-2.12-2.39-2.35-0.36-3.47-1.97-4.28 0.21-1.39-1.7-0.59-1.53 0.59-1.17-0.99-2.21 0.4v2.22z" fill="#72BF72" opacity=".25"/>
  <path d="m94.08 90.16 1.26-0.59 1.67 8.74v1.92h-0.88l-2.05-10.07z" fill="#72BF72" opacity=".25"/>
  <path d="m97.28 90.16 1.42-0.52 0.92 8.39-0.75 1.29-1.59-9.16z" fill="#72BF72" opacity=".25"/>
  <path d="m108.1 93.21 1.63-1.05 1.63 0.52-0.48 1.67h-2.36l-0.42-1.14z" fill="#F0CA42" opacity=".25"/>
  <path d="m107.2 98.41 2.18-0.66 1.36 1.08v1.28l-3.19 0.35-0.35-2.05z" fill="#F0CA42" opacity=".25"/>
  <path d="m107.5 103.6 1.91-0.55 1.28 1.85-1.07 0.7-2.47-0.7 0.35-1.3z" fill="#F0CA42" opacity=".25"/>
  <path d="m113.4 104.1 1.53-0.66 2.08 1.64-0.68 1.06-2.93-1.06v-0.98z" fill="#F0CA42" opacity=".25"/>
  <path d="m115.2 95.21 1.84-0.52 0.98 0.73-1.08 1.09-1.74-0.28v-1.02z" fill="#F0CA42" opacity=".25"/>
  <path d="m78.72 111.2 7.37-3.77 5.02-0.44 5.7 0.3 10.1-0.28 8.12 1.07 0.98 1.64-1.08 4.11-4.77 1.57-5.37-0.28-4.7 2.2-2.87-2.7-2.25-1.71 1.07-3.87-8.05-0.14-11.67 4.01 2.4-1.71z" fill="#F0E6A6" opacity=".25"/>
  <path d="m100.7 119.1-0.65 3.63-3.29 2.26-4.7 1.06-0.98 2.83 3.4-1.42 7.46 0.83 5.54 3.09 1.78 3.43 8.54-1.78 7.26-5.86 5.48-5 1.33-3.76-4.43-0.28-4.32 1.78-5.03-0.52-3.33 1.63h-3.67l-2.35 1.29-3-0.07-1.26 3.15 1.77 2.29-4.39-2.52-1.16-6.06z" fill="#F0D286" opacity=".25"/>
  <path d="m133 117.7 6.84-3.28 3.39 2.26 0.52 8.21-0.61 7.31-5.7 1.81-7.39 0.66-2.11-2.61 5.66-6.29-0.6-8.07z" fill="#B184B6" opacity=".25"/>
  <path d="m116.1 148.4 2.18-0.45 3.39 1.13 1.08-3.05 3.46 1.25 2.93 2.26 3.33 0.42 1.77 3.43 2.67-1.92 2.08-4.24 1.84-0.35 3.16 2.26 3.46-0.8 0.54 6.19-12.26 3.77-5.98-1.42-7.26-4.65-6.39-3.83z" fill="#B8849B" opacity=".25"/>
  <path d="m118.2 156.7 0.92 0.73 1.13 3.49-1.26 1.26-1.32-2.13 0.53-3.35z" fill="#D88286" opacity=".25"/>
  <path d="m114 157.1 0.82 4.07-0.89 1.06-0.41-4.79 0.48-0.34z" fill="#D88286" opacity=".25"/>
  <path d="m110 157.6 1.07 1.5-0.65 3.08-1.23-3.53 0.81-1.05z" fill="#D88286" opacity=".25"/>
  <path d="m105.2 157.1 0.65 3.05-0.65 0.82v-3.87z" fill="#D88286" opacity=".25"/>
  <path d="m109.8 149.5 1.63 1.57-0.21 2.86-1.42-4.43z" fill="#F1A8AA" opacity=".25"/>
  <path d="m151.4 95.52 3.73 1.56 1.43 1.74 2.6-0.41 2.83 2.32-1.7 2.13 2.36 1.32-1.91 4.93-1.53 2.49-2.5-2.89-3.22-2.4-3.33-1.28-1.43-5.99 2.67-3.52z" fill="#B8CCDA" opacity=".25"/>
  <path d="m171.8 106.2 5.97-1.06 4.36 2.4-3.67 1.53-7.4 0.49 0.74-3.36z" fill="#CEAD7A" opacity=".25"/>
  <path d="m174.9 113.3c1.14-1.21 3.94-1.01 5.01-0.65" opacity=".25" stroke="#74587A" stroke-miterlimit="10" stroke-width=".7"/>
  <path d="m176.1 115.3c1.7-0.96 5.16-0.75 7 0.31" opacity=".25" stroke="#74587A" stroke-miterlimit="10" stroke-width=".7"/>
  <path d="m177.7 117.7c2.04-1.16 6.43-0.5 8.34 1" opacity=".25" stroke="#74587A" stroke-miterlimit="10" stroke-width=".7"/>
  <path d="m173.1 119.3 2.86-0.62 1.43 1.25" opacity=".25" stroke="#74587A" stroke-miterlimit="10" stroke-width=".7"/>
  <path d="m172 122.6 2.56-0.42 1.7 0.89" opacity=".25" stroke="#74587A" stroke-miterlimit="10" stroke-width=".5"/>
  <path d="m163.3 121.9 3.46-0.35 1.2 1.06" opacity=".25" stroke="#74587A" stroke-miterlimit="10" stroke-width=".7"/>
  <path d="m162.7 124.5 2.7-0.28 1 0.99" opacity=".25" stroke="#74587A" stroke-miterlimit="10" stroke-width=".7"/>
  <path d="m162.3 127 2.04-0.35 1.2 1.06" opacity=".25" stroke="#74587A" stroke-miterlimit="10" stroke-width=".7"/>
  <path d="m181.9 126.7c0.75-2.05 2.18-1.63 3.25-0.42" opacity=".25" stroke="#74587A" stroke-miterlimit="10" stroke-width=".7"/>
  <path d="m189.2 123.7 0.91-0.55 1.01 0.76" opacity=".25" stroke="#74587A" stroke-miterlimit="10" stroke-width=".5"/>
  <path d="m189.7 131.2 1.2-0.49 1.2 0.76" opacity=".25" stroke="#74587A" stroke-miterlimit="10" stroke-width=".5"/>
  <path d="m162.1 139.7 2.04 0.59 1.14 2.62-3.16 0.99-4.29-1.16 0.36-2.52 1.07-1.2 2.84 0.68z" fill="#F1C3C4" opacity=".25"/>
  <path d="m178.4 144.4 1.7-1.16 2.32 1.5-2.6 2.56-2.8-0.55 0.28-2.42 1.1 0.07z" fill="#B784B6" opacity=".25"/>
  <path d="m138.3 161.5 4.8 0.76 1 0.89-7.85 2.55-8.47 0.48-11.81 1.06-7.4 2.75-11.47-0.35-9.9-0.62-10.03-2.12 7.98 1.16 11.92-0.35 2.18-2.02 2.67 0.66 1.14 2.67 4.39-0.72 2.25 0.31 6.4-1.5 7.53-1 7.47-3.17 7.2-1.44z" fill="#B28291" opacity=".25"/>
  <path d="m57.61 157.1 1.88-1.74 0.91 1.32 0.21 1.84-2.5 1.06-0.5-2.48z" fill="#EA989D" opacity=".25"/>
  <path d="m63.19 158.9 1.56-1.74 0.68 1.12v2.45l-2.24-1.83z" fill="#EA989D" opacity=".25"/>
  <path d="m67.68 158.6 1.56-2.45 1.07 0.99-1.7 2.86-0.93-1.4z" fill="#EA989D" opacity=".25"/>
  <path d="m71.42 158.9 1.84-1.74 0.58 1.4-1.46 1.85-0.96-1.51z" fill="#EA989D" opacity=".25"/>
  <path d="m63.54 153.4 2.6-1.06 0.82 1.06-1.53 1.85-1.89-1.13v-0.72z" fill="#EA989D" opacity=".25"/>
  <path d="m67.31 152.4 1.14-1.13 0.48 1.13-1.62 1.64-0.98-1.06 0.98-0.58z" fill="#EA989D" opacity=".25"/>
  <path d="m70.98 149.1 1.74-0.82 0.51 1.5-1.56 1.13-1.43-1.81h0.74z" fill="#EA989D" opacity=".25"/>
  <path d="m75.04 147.6 1.07-1.13 0.51 1.13-1.56 1.49-0.55-1.49h0.53z" fill="#EA989D" opacity=".25"/>
  <path d="m78.2 145.8 1.14-1.25 0.51 0.76-1.63 1.6-0.98-1.11h0.96z" fill="#EA989D" opacity=".25"/>
  <path d="m74.71 151.6 1.43-2.12 0.82 0.99-1.53 1.85-0.72-0.72z" fill="#EA989D" opacity=".25"/>
  <path d="m77.14 153.9 2.5-2.98 1.07 1.41-2.08 2.76-1.49-1.19z" fill="#EA989D" opacity=".25"/>
  <path d="m76.29 158.7 3.26-3.08 1.07 2.13-1.42 7.33-4.2-3.76 1.29-2.62z" fill="#EA989D" opacity=".25"/>
  <path d="m80.83 159.2 3.39 2.26 4.46-1.16 2.26-1.63 2.32 0.99 0.36 2.42 1.7-1.63 1.14 1.06 0.35-5.25-2.6-2.25-2.93 0.28-3.73-1.25-0.64 1.06-2.18-2.42-2.5 1.43-1.43 1.63-0.75 1.32 0.78 3.14z" fill="#F1A8AA" opacity=".25"/>
  <path d="m87.08 136.4-0.92 2.29 0.85-0.92 0.92-0.66-0.85-0.71z" fill="#EA989D" opacity=".25"/>
  <path d="m87.56 138.8-0.55 1 1.23-1.42-0.68 0.42z" fill="#EA989D" opacity=".25"/>
  <path d="m96.46 140.3 1.07 0.87" opacity=".25" stroke="#EA989D" stroke-miterlimit="10" stroke-width=".5"/>
  <path d="m118.2 145.6 2.08 1.22 3.32-1.74-2.94 0.07-2.46 0.45z" fill="#B8849B" opacity=".25"/>
  <path d="m137.5 124 0.84-0.89 1.53 2.52-2.6 1.5-1.14-1.99 1.37-1.14z" fill="#996892" opacity=".25"/>
  <path d="m134.8 124.6 0.75-1.15-0.39 2.36-0.82-0.59 0.46-0.62z" fill="#996892" opacity=".25"/>
  <path d="m178.2 135.7-1.14 1.43 1.07 0.76 1.63-1.15-1.56-1.04z" fill="#996892" opacity=".25"/>
  <path d="m118.2 98.11 5.9 0.72 3.8 0.78 1.7-0.54 3.16 0.21 1.01 0.27 4.46 5.59 2.08 7.58-4.49 2.69-5.9-1.36-4.99-3.22 2.53-4.01-3.33-3.22 1.91-2.99 3-2.3-4.94 1.32-2.39-0.52-4.99-1.22 1.48 0.22z" fill="#BF9578" stroke="#966664" stroke-miterlimit="10" stroke-width=".5"/>
  <path d="m134.9 93.21 0.75 0.5 1.92 2.52v5.93l1.56 1 1.71 6.95-1.53 1.65-2.25-4.43-2.25 4.14-4.43 4.8-3.52 0.89-0.82-1.25 2.6-3.5-6.94 2.19-1.35-0.99 3.19-2.83 4.45 0.35 1.63-1.67-0.55-4.49 2.93-4.96 2.9-1.6 0.82-2.75-1.55-2.53-1.63 1.09-1.26 2.26" fill="#F9E3D9" stroke="#BA8266" stroke-linecap="round" stroke-miterlimit="10" stroke-width=".7"/>
  <path d="m134.5 95.41" stroke="#614436" stroke-miterlimit="10"/>
  <path d="m45.04 124.8 4.98-3.49 7.91 0.75 0.42-0.75 2.3-2.13 4.26-1.02 3.32 0.95 2.93 1.06 1.01-0.61 2.18 0.55-0.64 2.12 5.48 1.71-0.75 1.54-3.94 0.96-1.97 1.25 1.22 4.43-0.42 2.25-3.47-1.16-7.43-2.95-1.46 2.26-5.91 3.59-4.39-1.45-8.12 4.53-3.73 0.52-1.26-3.46 5.83-5.05-8.39-1.06-0.75-2.32 2.46-8.05 1.53-0.59 8.47 2.26-1.67 3.36z" fill="#F5E1CE" stroke="#997760" stroke-miterlimit="10" stroke-width=".5"/>
  <path d="m52.88 119.4-1.07 2.12" stroke="#997760" stroke-miterlimit="10" stroke-width=".5"/>
  <path d="m65.09 121.8" stroke="#997760" stroke-miterlimit="10" stroke-width=".5"/>
  <path d="m68.66 126.5-6.44 2.39-0.52-2.95-1.08-2.83 0.14-0.96" stroke="#997760" stroke-miterlimit="10" stroke-width=".5"/>
  <path d="m16.52 119.3 7.36-6.48 13.28 1.06-1.7-1.56-12.43-1.99-5.98 5.89-1.73 5.63 1.33-0.75-0.13-1.8z" fill="#AFE3DC" opacity=".3"/>
  <path d="m21.71 111.1 10.1 0.66" opacity=".5" stroke="#84D3E1" stroke-miterlimit="10" stroke-width=".7"/>
  <path d="m22.72 113.8 12.47 0.9" opacity=".5" stroke="#84D3E1" stroke-miterlimit="10" stroke-width=".7"/>
  <path d="m20.73 120.5 10.58 0.35" opacity=".5" stroke="#84D3E1" stroke-miterlimit="10" stroke-width=".7"/>
</svg>