<svg xmlns="http://www.w3.org/2000/svg" width="200" height="200" viewBox="0 0 200 200">
<!-- SVG created with Arrow, by QuiverAI (https://quiver.ai) -->
  <path d="m13.96 36.13c6.32-13.94 9.88-13.43 18.82-16.08 8.95-2.64 42.51-10.16 57.82-12.14 11.79-1.58 21.2-5.2 29.07-0.75 4.25 2.44 5.12 4.09 6.59 3.9 6.31-0.8 10.05 0.06 17.75 5.14 11.78 8.03 34.91 26 43 34.59 5.65 6.21 5.85 9.4 4.47 17.61-1.5 5.53-6.33 6.54-7.32 7.44 4.96 13.17 13.44 61.12 13.19 77.23-1.06 2.56-2.54 3.55-6.07 4.15-2.49-0.53-9.07-5.03-11.62-6.81-1.6-1.46-1.69-6.32-1.75-7.48-0.45-5.84-1.35-7.67-5.32-9.01 0.52 2.22-1.42 5.04-1.98 5.21 3.8 9.77 8.6 26.71 10.32 33.7-1.02 3.47-3.22 4.55-6.14 4.58-4.61 0.1-7.18-2.66-7.95-5.75l-5.18-27.12-11.49 2.17c1.49 7.34 1.55 11.92-0.99 14.21-3.03 1.65-8.11 0.9-9.54-2.63l0.42-8.15-10.89 2.61 0.92 32.39c-0.68 8.07-2.14 10.02-8.75 10.07-3.41-0.27-5.65-2.4-5.81-5.95l3.43-36.98-4.73-1.77-11.92-4.5-2.72 27.47c-1.67 2.84-3.3 3.07-4.45 3.05-3.61 0.13-6.08-3.02-5.58-6.75 0.87-4.83 6.74-21.76 9.09-29.66-2.05-1.81-2.49-4.11-2.03-8.97 0.69-2.68 2.19-4.85 6.24-6.85 1.4-0.61 18.35-6.43 18.35-6.43l0.15-4.05-46.64 14.21-7.85 3.03 4.57 58.27c-0.33 2.45-1.02 3.1-6.15 3.97-3.43-0.64-8.67-5.19-11.85-8.14-2.39-3.03-1.17-12.37-6.17-20.02-3.44-5.08-16.14-12.9-24.44-18.56l-3.34 10.13-4.07 0.51c-4.38-2.71-8.43-5.37-10.2-9.81-2.18-10.25-1.7-36.15-0.78-49.22 1.57-14.48 1.62-24.83 3.47-33.23-3.77-3.94-4.9-6.79-4.91-12.48-0.26-4.92 0.68-13.43 10.96-16.35z" fill="#A47F7A"/>
  <path d="m126.5 12.01c4.55-0.37 8.39-0.12 15.44 4.21 9.22 5.53 33.95 25.59 45.22 35.93 3.85 3.6 4.94 5.87 4.08 12.45-0.93 5.18-2.94 9.02-7.57 10.42l-44.23 13.06c-1.28 5.84-1.34 9.53 5.82 13.04l22.79 9.05c3.32 1.43 4.43-0.46 3.48-4.95l-4.28-23.54 1.75-1.28 8.76-3.29 6-1.4c6.44-2.04 6.97-7.6 7.28-12.57 0.38-5.13-5.88-10.98-8.81-13.74-10.37-9.59-29.96-25.95-41.36-33.93-7.09-4.44-11.98-4.19-15.82-3.65l1.45 0.19z" fill="#C4E5EA"/>
  <path d="m14.7 36.53c2.81-7.39 5.73-12.36 12.97-14.2 11.74-3.22 51.21-12.72 65.48-14.98 13.24-2.19 20.61-3.26 25.74 0.68 5.03 2.99 7.62 6.83 7.87 9.92 0.2 1.71-0.33 2.05-3.75 2.32l-56.75 13.79-24.47 6.25-18.57 2.87c-3.15-0.51-7.71-4.16-8.52-6.65z" fill="#F5DBA4"/>
  <path d="m5.36 42.71c-1.58 3.59-1.54 7.48-1.22 12.5 0.74 6.85 12.99 16.56 21.4 24.2 10.33 9.45 22.13 20.52 27.65 24.51 6.82 4.26 14.02 3.17 18.9 2.69l114.4-33.67c3.69-2.12 4.57-8.69 3.64-12.8l-2.44 2.91c-2.52 3.84-6.39 4.56-12.93 6.08l-8.35 2.08-27.1 8.79-24.13 6.91-38.7 10.43-9.36-0.6c-4.89-0.05-8.37-1.59-12.15-4.3l-45.85-42.71c-3.37-3.68-3.18-4.91-2.64-9.73l-1.11 2.71z" fill="#8DC4DD"/>
  <path d="m135.6 21.61c1.72-1.58 6.65-2.45 9.58-0.9 5.75 3.05 26.26 21.16 38.73 33.05 2.19 2.23 1.49 4.19 0.01 4.91-1.98 0.96-4.28 1.48-6.51-0.24l-40.16-31.35c-3.21-2.57-2.96-4.21-1.65-5.47z" fill="#E6A8B7"/>
  <path d="m37.81 23.36c2.15 0.4 2.52 4.97 3.13 10.09 0.48 2.83-0.91 3.76-2.9 4.18l-9.33 1.88c-2.59 0.24-2.81-2.7-2.11-6.93 1.01-5.46 5.56-9.77 11.21-9.22z" fill="#F2BBBC"/>
  <path d="m107.4 8.4c7.74-0.92 11.84 2.8 13.16 7.88 0.57 1.74-0.55 2.2-2.28 2.57l-8.87 1.52c-1.5 0.14-2.48-0.72-3.05-3.14-0.7-3.24-1.89-8.35 1.04-8.83z" fill="#B1D180"/>
  <path d="m44.88 22.94 51.66-12.94c3.09-0.54 3.98 1.01 4.95 4.61 1.24 6.48 1.02 7.57-1.43 8.19l-50.83 11.86c-2.25 0.61-3.17-0.78-3.78-3.62l-1.71-6.06c-0.22-1.39 0.13-1.72 1.14-2.04z" fill="#F3DA9A"/>
  <path d="m133.8 25.28 13.1 2.63 29.91 22.47 1.7 4.92-5.74-2.2-25.43-20.63-13.54-7.19z" fill="#BC95A8"/>
  <path d="m37.99 44.97 85.77-21.37c4-0.93 6.95 2.36 11.26 6.11 9.1 7.89 23.89 20.44 35.19 29.37 2.55 2.11 2.29 5.39-1.36 6.58l-11.89 4.25-20.75 5.32-55.39 13.23c-3.77-0.29-4.48-2.22-5.61-4l-37.61-35.29c-1.34-1.91-1.32-3.55 0.39-4.2z" fill="#FEFFFE"/>
  <path d="m19.01 28.97c2.29-3.58 5.71-5.94 6.41-5.64-4.07 2.35-5.69 8.38-4.79 15.87 0.27 2.45 1.38 2.81 2.66 3.47-2.26-0.19-7.22-3.88-8.18-6.14 0.77-2.26 1.83-4.42 3.9-7.56z" fill="#F0CB99"/>
  <path d="m116.6 9.41c2.77 1.6 4.36 3.7 4.54 7.6l-13.4 1.13-0.79-8.95c1.8-0.91 6.2-1.37 9.65 0.22z" fill="#96C667"/>
  <path d="m45.97 23.13 50.83-11.81c1.46-0.44 2.36 0.11 2.46 1.76l-2.14 7.06c-0.32 2.35-1.9 3.35-4.44 3.79l-43.81 10c-1.4 0.32-2.01-1-2.52-3.06l-1.55-5.77c-0.41-1.41 0.08-1.61 1.17-1.97z" fill="#C7DBB1"/>
  <path d="m139.8 89.12-2.19 0.7c-0.86 3.42-1.34 7.18 2.43 10.13 4.28 3.29 17.13 8.79 25.82 12.95 5.03 2.01 6.88 0.24 7.09-2.94 1.37 2.24 3.16 3.03 7.72 3.94 3.06 0.94 7.29 21.44 10.5 41.25-2.3-0.03-11.11-6.44-12.01-7.06-1.27-1.42-1.2-6.03-1.71-10.37-0.51-3.01-1.85-4.23-5.95-5.72 0.69-2.89-1.02-5.38-4.32-7.89-6.41-3.84-14.04-9.63-19.88-9.63-4.13-0.2-3.45-0.51-8.63 0.45l-16.29 3.62 0.12-4.44 6.45-1.48-0.07-11.92-5.64-1.8-0.33-5.18 8.57-2.97 5.25-1.24 3.07-0.4z" fill="#D8B192"/>
  <path d="m15.44 37.27c-4 0.86-8.22 2.97-8.42 7.46-0.31 3.29 0.51 5.44 4.35 8.97l38.04 35.21c5.58 4.51 8.6 8.1 15.69 8.15 2.83 0.22 3.41 1.34 3.35 2.8-0.2 2.26-2.18 2.87-4.44 2.97-3.85 0.01-8.44-2.62-10.99-4.71-12.86-10.05-38.85-32.89-45.6-40.41-2.66-3.15-3.52-5.7-3.33-9.23 0.54-4.86 2.66-9.55 11.35-11.21z" fill="#B8DFF2"/>
  <path d="m19.4 46.09 3.17 2.14-1.91 1.29-1.26-3.43z" fill="#B8DFF2"/>
  <path d="m14.79 73.92-5.68-8.17c-3.12 18.45-4.92 40.66-4.5 56.38l1.47 24.86c1.47 3.9 5.11 7.23 8.76 9.3l0.67-9.42c0.86-3.7 2.44-4.08 6.34-2.07l16.01 12.29c7.73 4.19 11.76 7.98 13.25 15.13l1.76 10.75 1.26 2.06 10.55 7.06 0.33 0.36 4.93-1.58 0.8-4.06-1.53-15.65-4.62-32.9-0.71-31.56-8.87-2.84-12.38-9.55-27.84-20.39z" fill="#F5DBB2"/>
  <path d="m64.79 108 6.5-0.83 69.1-19.44 27.22-8.8 2.28-0.6-37.48 11.4-9.63 3.06-47.4 14.02-10.59 1.19z" fill="#81A7D1"/>
  <path d="m22.48 86.46c-2.26-0.39-4.74 1.15-6.03 7.72-1.24 8.63-1.62 21.08 0.56 28.62 1.13 3.84 4.8 6.47 9.27 9.52l17.34 10.87c3.99 1.92 4.78-1.41 5.2-5.3l-1.54-10.33-3.52-20.28c-1.79-5.07-13.49-14.87-21.28-20.82z" fill="#D8B192"/>
  <path d="m22.44 87.76c-2.23-0.25-6.4 19.42-5 29.23 0.86 4.19 1.18 5.9 4.47 5.26-2.55-9.09-1.43-19.44 0.53-34.49z" fill="#E8C5A7"/>
  <path d="m24.21 47.94 2.42-0.12c2.78-0.06 4.43 1.26 6.82 4.09l11.29 10.92 22.14 20.46c2.15 2.16 1.3 7.07-3.48 7.56-3.42 0.46-6.97-1.14-9.59-3.56l-32.72-31.21c-3.27-2.95-1.87-7.61 3.12-8.14z" fill="#F6E281"/>
  <path d="m23.37 51.09c1.84-1.46 6.73-1.08 7.65 1.37 1.24 2.55-0.35 5.16-3.78 4.87-4.96-0.6-6.15-4.32-3.87-6.24z" fill="#DEB550"/>
  <path d="m23.31 54.41c-0.05-1.46 2.46-2.02 4.38-1.75 2.32 0.33 2.98 1.63 2.84 2.8-0.22 1.16-1.62 1.32-3.25 1.22-2.27-0.2-3.97-0.99-3.97-2.27z" fill="#CF9F48"/>
  <path d="m35.09 60.02 9.63 5.08c1.93 1.22 2.63 2.56 1.89 3.96l9.16 8.04c2.21 0.63 3.94 2.83 5.28 5.16 0.64 1.12 0.1 1.65-1.31 1.96l-4.73 1.58c-1.03 0.27-2.36-0.72-3.7-2.37l-7.68-9.38-5.22-2.71-2.74-0.73c-0.96-2.26-1.88-7.5-1.3-10.04 0.14-0.54 0.35-0.79 0.72-0.55z" fill="#D8BD7C"/>
  <path d="m35.31 61.95 9.01 5.27c0.86 0.54 1.05 1.09 0.76 1.78l-0.76 1.09-2.11-2.05-4.12-1.03-3.06-1.84 0.28-3.22z" fill="#B7965E"/>
  <path d="m37.88 70.19 3.77 1.53 8.56 9.13c1.35 1.66 2.61 3.13 4.01 2.86l4.99-1.4-2.12-3.29c-0.86-1.19-1.4-1.28-2.87-0.32l-3.06-0.97-6.15-7.12-1.55-0.49-1.34-1.06-3.77 0.07-0.47 1.06z" fill="#F2D996"/>
  <path d="m96.66 33.88 3.42 2.09c-3.06 2.69-4.17 4.22-4.45 7.87-0.74 2.56-2.97 3.84-7.6 4.11-3.36-0.04-6.02-1.82-8.44-3.57-2.93-1.67-3.34-2.93-4.4-4.59l-10.38 1.47-2.8-0.54-5 0.39c-4.55 0.96-6.22 4.94-10.4 5.89-2.77 0.08-3.73 1.14-2.4 3.77l3.1 3.14 3.3 0.99 1.34 0.49 0.86 2.08 2.2 2.45 3.16 1.19 1.98-0.39 1.8 0.54 2.93 1.23 3.84 0.72 3.19 1.19 4.13-6.64 1.8-6.72 1.03-3.15 2.22-3.68 4.9-1.19 7.93 3.09 2.33-5.15 0.86-3.84-0.45-3.24z" fill="#F9F2E3"/>
  <path d="m97.69 38.15c2.26-1.94 7.72-0.71 7.37 3.41-0.08 1.16 0.23 1.7 2.08 2.66 3 2.09 2.34 6.12-1.89 7.28-3.28 1.03-6.8-0.68-7.86-3.41l1.26-0.96c2.66 1.36 5.49 0.68 5.49-1.05-0.06-1.37-1.33-2.01-3.99-1.71 1.57-2.16 1.51-4.46-0.94-4.76-1.63-0.13-1.79 1.65-2.4 2.61l-1.19-0.41c-0.22-1.85 0.84-2.84 2.07-3.66z" fill="#B3DAC1"/>
  <path d="m79.88 45.23c2.83-2.19 7.31-0.95 7.85 2.23 0.19 1.89-0.64 3.7-1.44 5.96l5.23-0.41c1.34 0.34 1.87 1.87 0.61 2.83l-7.49 2.52c-2.2 0.25-2.55-1.35-2.35-3.07l1.84-7.2c-0.22-1.85-2.74-1.78-3.92 1.64l-2.35-0.55c-0.2-2.08 0.49-3.01 2.02-3.95z" fill="#F1D2C9"/>
  <path d="m60.19 48.61 1.07-0.79c1.02-0.26 2.28 0.35 3.62 2.73l5.44 7.16 1.79-0.25c1.34 0.38 1.5 1.61 0 2.5l-4.41 2.67-1.91-1.03 0.96-1.78-4.28-6.78-1.55 1.78-1.98-0.86 1.25-5.35z" fill="#B4D1DF"/>
  <path d="m95.49 58.66c2.65-2.01 8.35-1.38 9.22 1.74 0.41 1.46-0.2 2.42-1.16 3.51 2.76 0.55 4.85 2.01 4.37 4.74-0.7 2.86-3.89 3.82-7.97 3.34l-6.32-10.78c-1.02-1.46-0.06-2.07 1.86-2.55z" fill="#F1D58E"/>
  <path d="m100.1 59.51c1.13 0.26 2.09 1.28 1.33 2.94l-1.47 0.96-3.13-2.09c0.3-1.71 1.58-2.11 3.27-1.81z" fill="#D8B372"/>
  <path d="m102.2 65.11c1.55 0.07 2.95 0.72 2.69 2.31-0.45 1.49-2.01 1.66-3.64 1.3l-1.98-2.61c0.45-1.02 1.31-1.12 2.93-1z" fill="#D8B372"/>
  <path d="m115.5 55.78c2.39-0.68 4.55 0 5.44 1.46v1.06l-0.86 0.61c-1.19-0.75-3.14-1.2-4.45 0-2.35 1.75-1.84 6.37 1.3 8.18 2.05 1.12 4.71 0.57 5.5-2.06l1.98 0.28c0.77 2.23-1.32 4.79-5.95 4.3-6.06-0.73-8.15-5.7-7.39-9.6 0.7-2.55 2.27-3.55 4.43-4.23z" fill="#AFD38A"/>
  <path d="m82.81 65.97 1.25-0.3 12.47 8.25 0.55 2.01-1.55 0.79-5.22-2.29-3.22 2.99-0.13 2.49-1.95 0.54-2.56-12.7 0.36-1.78z" fill="#E6A8B7"/>
  <path d="m84.91 68.7 4.86 3.02-3.36 2.09-1.5-5.11z" fill="#F2D2D4"/>
  <path d="m86.98 80.71 3.23-6.41 4.8 1.82 1.95 0.55-1.7 0.36-4.86-2.32-2.48 3.09-0.94 2.91z" fill="#F2D2D4"/>
  <path d="m119.6 31.54 9.7 1.16 1.34 9.45c0.45 2.23-2.48 4.65-4.29 2.87-1.15-1.36-0.19-3.99 2.95-3.95l-0.86-6.96-7.49 0.96 1.16 6.24c0.2 2.63-1.79 3.9-3.52 3.4-2.99-0.96-3.21-3.75 0.79-4.11l0.22-9.06z" fill="#C3AFCC"/>
  <path d="m109.8 71.82 4 0.37c2.45 1.12 2.8 2.9 0 4.02l-4.55 0.19-2.09 3.53-4.2 1.85-7.8 2.08-8.01 3.46c-3.64 1.03-6.23-0.13-8.99-1.75l-1.85-5.28-2.01-3.68-8-5.32 1.33-1.13c-0.29-2.76 3.56-2.25 5.65-0.85l2.52 2.45 1.98-1.03 2.09 1.29 4.41 9.15 9.71 1.95 3.26-0.96 7.1-0.65 3.26-3.43 2.19-6.26z" fill="#D5F1F6"/>
  <path d="m140.9 45.98 2.44 0.7c1.2 0.61 1.39 1.57 0.69 3.45l-6 12.09-4.28-1.7c-0.64-0.48-0.47-1.67 0.29-3.62l4.63-9.68c0.45-0.96 0.93-1.41 2.23-1.24z" fill="#D99489"/>
  <path d="m138.3 51.45c1.56-0.61 2.75 0.58 2.4 2.36l-1.95 4.69c-1.55 0.68-2.31-0.72-2.15-2.43l0.79-3.46c0.16-0.65 0.36-1 0.91-1.16z" fill="#B06862"/>
  <path d="m133.4 61.41 4.49 1.49-4.06 4.76-0.3-1.57-0.13-4.68z" fill="#D99489"/>
  <path d="m154.2 51.91 0.86 0.61-8 3.59c-1.99 1.03-1.79 2.37 0.2 3.39l1.63 0.96c1.17 1.19 0.68 2.82-3.45 4.77l-6.43 2.63c-2.83 0.89-4.81 0.69-5.78-0.13l10.17-4.12 4.73-1.78-2.71-2.63c-1.66-1.71-0.8-3.79 2.26-4.75l6.52-2.54z" fill="#F9E9B6"/>
  <path d="m122.9 99.61-3.16 0.61-55.09 16.71 0.61 1.91 61.69-17.83 0.74 1.85-0.06 8.7-1.4 1.3 1.8-0.79 0.61-11.03-1.4-1.23-4.34-0.2z" fill="#A3CB9A"/>
  <path d="m40.74 119.8 5.23 0.6 1.69 5.66-0.32 5.96-4 3.89-12.22-7.52 1.12-2.19-2.04-0.14-5.59-2.63 16.13-3.63z" fill="#97C587"/>
  <path d="m66.92 120.2 0.26 10.71 59.5-17.6 0.61-6.9-1.63-0.7-1.47 1.5-0.33 2.26-32.73 8.56-5.93 0.54-2.66 2.77-1.13-1.14h-14.49z" fill="#96C184"/>
  <path d="m108.5 123.2c8.67-2.89 16.6-6.42 25.75-8.17 4.9-1.16 8.99-1.65 13.89 0.1 6.82 2.63 18.61 8.43 20.7 11.06 2.77 2.95 3.66 8.18 1.4 11.81-2.19 2.32-6.19 4.2-10.6 5.82l-25.99 7.89c-6.18 1.39-10.65 1.32-15.45-0.46-6.9-2.32-15.5-7.63-18.19-10.54-2.9-2.56-3.86-5.45-2.63-10.85 1.26-3.79 5-4.98 11.12-6.66z" fill="#81C7CD"/>
  <path d="m99.76 128.8c1.75-2.59 6.75-3.75 10.49-0.9l3.43-1.85-1.63-0.75c5.96-2.63 12.08-5.19 20.46-6.9 6-1.46 9.43-3.31 15.75-1.6 6.51 2.02 7.7 3.68 5.65 5.33-2.77 1.71-8.2 3.33-13.85 4.65-4 0.68-7.74 1.64-11.67 3.13-4.69 1.88-9.24 2.74-14.14 3.23-5.64 0.26-13.51-2.3-14.49-4.34z" fill="#B8E2E5"/>
  <path d="m168.5 127.4c1.33 1.78-0.07 4.01-3.49 5.56l-13.93 5.6-14.72 4.12c-9.33 3.4-15.08 1.45-19.98-0.6-5.96-2.95-13.13-6.34-15.69-8.53-2.19-1.88-1.73-4.21-0.7-5.13-1.8 1.71-2.26 5.55-0.07 7.64l11.22 8.5c4.9 2.76 6.56 2.92 9.18 0l0.16 3.43c-0.51 1.78 0.6 2.81 5.09 1.99 7.73-1.32 24.11-7.01 33.51-10.65 8.27-3.36 13.43-4.7 11.7-10.6l-2.28-1.33z" fill="#B8E2E5"/>
  <path d="m99.31 141.2 7.14 5.2-5.31 27.33-3.43 2.09-5.65-0.96-2.19-4.73 8.99-28.93h0.45z" fill="#EAB6B1"/>
  <path d="m119.1 152.6 4.59 1.06 4.73-1.26 1.07 29.8-1.16 8.89-3.84 3.09-5.32-0.25-3.16-3.42 3.09-37.91z" fill="#F0BDBA"/>
  <path d="m140.3 150.3 1.74 8.82 5.74 0.96 2.52-2.55-0.38-10.15-1.99-0.59-7.63 3.51z" fill="#CC94A3"/>
  <path d="m162.7 143.6 3.26 0.69 2.45-4.22 1.63-0.71 10.17 32.68-2.52 4.29-5.81-0.26-4.28-4-4.9-28.47z" fill="#EAB6B1"/>
  <path d="m11.42 76.29v7.02l-1.34 13.41h0.76l1.33-11.7 0.49-8.41-1.24-0.32z" fill="#F2D3AE"/>
  <path d="m10.77 105.8 1.4 1.57v-1.19l-1.4-0.38z" fill="#F2D3AE"/>
  <path d="m16.07 124.1 1.06 1.95v-1.85l-1.06-0.1z" fill="#F2D3AE"/>
  <path d="m16.52 130.9 1.19 0.69v5.36h-0.58l-0.61-6.05z" fill="#F2D3AE"/>
  <path d="m18.71 130.2 0.96 0.1v12.08l-0.96-0.58v-11.6z" fill="#F2D3AE"/>
  <path d="m38.91 144.7 1.34 0.64 0.79 10.93h-0.79l-1.34-11.57z" fill="#F2D3AE"/>
  <path d="m47.96 151.7 2.76 0.54 0.32 6.1-3.08-6.64z" fill="#F2D3AE"/>
  <path d="m52.72 105.8 3.37 4.83 2.92 11.92 1.63 10.6 2.69 9.02 2.52 14.02v4.86l0.36 17.18-0.63 4.86 0.13 8.6-1.98-5.49-2.32-3.11-0.79-4.28-2.09-2.76-1.8-14.39 2.55-6.81-3.84-15.13-0.79 10.28-0.38 5.9-0.96-9.52 2.16-20.46-2.42-16.75-0.33-3.37z" fill="#F1D2A6"/>
  <path d="m135.4 94.42 3.67 1.68 0.05 3.85 2.32 2.49 12.54 6.34 6.89 2.95-1.05 0.86-0.61 0.27v5.55l-0.9-0.45-0.32-5.43-2.72-0.73-15.26-7.58-3.77-3.84c-1.85-1.72-1.65-3.66-0.84-5.96z" fill="#D2A988"/>
  <path d="m170.9 80.91 7.42-3.05 2.33 3.25 5.49 22.3 3.49 11.69 6.82 37.71-4.49 3.09-6.89-36.83-6.57-27.71-7.6-10.45z" fill="#E9CCB1"/>
  <path d="m172.3 90.24 7.9-5.83 0.69 1.85-3.19 8.93 0.96 3.33-0.96 0.61-1.99-3.12-3.41-5.77z" fill="#DCC1A5"/>
  <path d="m189.5 101.9 1.62 5.63-1.06-0.71-0.56-4.92z" fill="#DCC1A5"/>
  <path d="m178.6 99.23 0.86 1.71-0.38 3.55h-0.96l0.48-5.26z" fill="#DCC1A5"/>
  <path d="m187.2 131.6 4.76 13.94 0.69 7.82-1.33 1.5-2.83-12.85-1.29-10.41z" fill="#E3C6AC"/>
  <path d="m180.9 128.3 1.29-2.09 0.48 6.89-0.69 11.73-1.08-4.86v-11.67z" fill="#DCC1A5"/>
  <path d="m173.5 121.1 1.29 1.06v2.26l-1.29-1.3v-2.02z" fill="#DCC1A5"/>
  <path d="m135.3 104.1 1.33 0.79 1.16 8.17-1.16 0.54-1.33-9.5z" fill="#D2A988"/>
  <path d="m127.7 100.1 1.23 1.26v13.39l-1-0.31-0.23-14.34z" fill="#D2A988"/>
  <path d="m166.1 144.7 2.76 1.09 8.17 25.1-0.96 2.02-5.05-16.87-4.92-11.34z" fill="#F0BDBA"/>
  <path d="m120.8 157.8 1.56 0.89-1.3 12.39-1.82 5.62 0.22 6.96-1.42 2.62 0.96 6.14-1.98-1.02-0.86-6.35 1.57-12.99 3.07-14.26z" fill="#F1B6B2"/>
</svg>