<svg xmlns="http://www.w3.org/2000/svg" width="200" height="200" fill="none" viewBox="0 0 200 200">
<!-- SVG created with Arrow, by QuiverAI (https://quiver.ai) -->
  <path d="m46.66 28c1.29-9.01 3-19.76 11.85-22.34 8.84-2.58 8.3-2.31 14.21-1.95s28.53 0.18 37.33 1.68c8.79 1.49 27.9 2.4 34.88 4.07 6.99 1.68 16.2 0.72 22.2 4.24 6 3.51 15.75 2.65 19.53 19.15 2.16 9.22 0.56 19.64-0.35 28.42-0.91 8.79-5.32 28.57-7.18 34.2-1.86 5.64-2.41 9.86-7.95 12.48-5.54 2.61-9.02 2.86-10.59 2.54-1.58-0.31-7.58 0.77-8.4 0.42-0.82-0.36-0.95 1.84-0.45 3.24 0.49 1.41 1.73 5.29-1.01 6.79s-3.47 3.35-8.36 2.67c-4.9-0.68-10.35-1.47-12.21-2.01s-2.87-0.54-3.36-1.94c-0.5-1.41-1.09-8.35-0.09-9.43-2.69-1.01-4.68-1.74-8.62-2.37s-17.98-0.9-21.08-1.25c-3.1-0.36-7.96 0-10.09 0.09s-1.21 6.91-1.21 6.91-9.58 0.45-12.9-0.6c-3.33-1.05-5.46-4.88-4.5-9.24 0.5-2.29 1.78-4.69 1-5.05s-7.63-1.98-14.06-5.45c-6.44-3.46-8.48-12.55-8.89-16.2-0.4-3.64-2.17-14.16-0.55-29.88 0.91-9.13 0.85-19.19 0.85-19.19z" fill="#F8DA8B"/>
  <path d="m94.56 94.12c-2.96-0.2-29.48-2.5-38.37-6.01-6.48-2.62-8.74-12.83-9.47-18.65-0.46-3.61-1.6-8.37-1-18.74 0.89-15.83 2.05-29.73 6.41-37.92 3.94-7.27 12.56-6.59 16.75-7.59-3.49 2.29-6.6 2.65-8.86 3.88-4.17 2.3-9.36 7.64-9.85 24.38-0.5 16.74 0.59 29.76 0.59 33.45 0 5.1 0.73 15.39 6.55 19.97 6.63 5.29 28.66 6.29 37.25 7.23z" fill="#F0D689"/>
  <path d="m172.8 13.34c4.31 1.67 9.6 5.6 11.5 10.18 1.91 4.58 3.22 10.77 2.77 19.14-0.46 8.37-2.35 26.21-4.84 34.58-1.23 1.04-2.63 1.58-2.63 1.58 1.05-7.08 6.29-30.06 5.23-37.98s-2.52-18.68-6.51-21.62c-2.75-2.01-5.71-4.99-8.45-6.46 1.23 0.05 1.73 0 2.93 0.58z" fill="#E4B2B1"/>
  <path d="m170.7 18.78c3.33 1.63 8.39 3.44 9.88 11.36s3.39 17.32 0 28.24c-1.91 6.24-1.76 13.18-4.5 22.45-2.74 9.26-4.01 15.17-8.69 18.29-4.86 3.24-7.39 3.96-15.56 3.38-8.16-0.59-18.64-1.09-25.91-2.88-7.28-1.8-25.17-6.69-32.86-5.2 3.99-1.85 14.81 0.74 17.34 2.24 1.53-0.91-4.01-2.32-6.85-3.17-2.85-0.84-22.68-4.76-28.41-5.76-5.72-1-13.1-1.79-17.41-6.77s-5.76-10.68-4.41-21.9c0.91-7.83 1.55-9.3 2.18-11.32 0.63-2.01 0.68-13.96 1-17.55 0.49-5.38 1.23-14.37 5.58-17.07 3.01-1.8 8.15-2.06 12.29-2.02 7.22 0.04 19.93 1.57 23.31 1.57s13.5-0.49 20.86 0.76 19.28 1.02 25.42 1.65c7.74 0.78 19.92 0.52 26.74 3.7z" fill="#F7D7DB"/>
  <path d="m92.74 12.81c-3.33 0.26-16.47-1.62-21.81-1.4-4.05 0.17-9.6 0.95-11.77 3.72 1.95-3.12 6.2-4.4 11.77-4.3 6.09 0.09 18.39 0.31 21.81 1.98z" fill="#CBBCA7"/>
  <path d="m113.5 12.9c9.34 0.84 24.95 1.38 28.69 3-4.08 0.22-13.96-0.64-17.29-1.18s-10.45-0.98-11.4-1.82z" fill="#CBBCA7"/>
  <path d="m171.1 23.2c2.89 1.45 4.38 6.52 4.83 16.68 0.32 7.11-1.81 28.03-3.81 37.19-2.13 9.96-2.91 20.52-11.25 23.1 5.82-3.25 8.04-7.76 10.26-15.82 2.4-8.87 4.05-15.19 3.79-25.84-0.22-8.88 0.91-19.04-0.95-27.68-1.24-6.05-3.37-6.95-7.1-8.72-5.1-2.35-10.69-3.7-16.95-4.33-1.2-0.67-2.73-0.93-3.42-1.47 9.53 1.04 19.92 4.46 24.6 6.89z" fill="#C3B9B4"/>
  <path d="m179.1 97.48c-1.46 4.43-2.37 8.52-8.41 10.78-3.96 1.47-5.49 2.18-7.44 2.18-1.23-0.96-2.52-1.05-3.15-1.31 4.64-1.4 9.93-2.92 13.27-9.3 3.43-6.65 5.28-18.6 6.26-21.01 1.46-1.09 2.91-1.54 3.45-1.66-1.05 4.71-3.31 17.96-3.98 20.32z" fill="#E4B49F"/>
  <path d="m106.7 12.96c2.47 0.67 5-0.01 6.86 1.05 1.23 0.7 0.95 1.85 3.65 2.25 2.69 0.41 2.81 3.85 1.04 4.94 1.61 1.89 0.7 5.11-1.47 5.93-1.16 0.46-1.73 1.83-3.4 2.68s-10.61 1.32-14.21 1.32c-2.81 0-7.95-0.41-10.16 0.95-1.63 1.03-4.62 1.35-5.89 1.79-1.91 0.72 0.05 2.85 0.5 4.06 0.77 2.06-1.54 3.76-3.17 4.56-1.9 0.96-2.97 2.22-2.61 4.03 0.34 1.61 1.08 3.02 0.71 4.38-0.45 1.71-2.55 1.59-4.9 0.64-2.65-1.07-3.22-1.29-4.85 1.07-1.38 2.18-2.4 1.73-3.42 0.51-1.27-1.63-7.62-2.12-10.07-3.04-0.23-2.8 0.91-5.07 1.36-7.19 0.63-3.08-0.61-9.19-0.07-12.83 2.45 5.68 3.47 14.85 8.06 14.36 4.59-0.5 11.5-5.35 12.37-6.62 0.86-1.27 1.97-3.93 3.69-4.55 2.36-0.86 5.14-0.33 7.18-1.52 1.71-0.99 1.51-4.31 1.51-4.91 0-1.41-1.53-2.31-0.81-5.48 0.73-3.18 3.47-7.33 8.28-7.73 1.82-0.15 2.87-1.24 4.54-1.24s3.88 0.21 5.28 0.59z" fill="#F3B8C3" opacity=".5"/>
  <path d="m132.4 30.77c3.85-1.13 6.31-6.04 10.74-7.94 4.43-1.89 7.48-1.67 12.01 0.95 4.54 2.62 5.6 3.16 4.41 6.36-0.71 2.13-0.52 3.22 0.6 4.58 2.21 2.84 2.39 5.46-1.36 5.73-3.74 0.26-6.54 2.7-8.75 2.7-3.94 0-6.36-3.99-7.86-5.96-1.34-1.18-6.02-1.97-8.43-2.76-1.81-0.65-3.34-2.31-1.36-3.66z" fill="#B0DCE8" opacity=".5"/>
  <path d="m165.2 47.14c2.26-1.13 6.57 0.99 7.3 3.93 1.23 4.9-0.72 8.07-1.36 10.92-0.58 2.67 2.63 5.92 1.57 9.18-1.77 5.86-2.78 14.32-6.48 17.87-3.05 3.01-6.39 3.37-10 1.61-3.47-1.61-2.52-1.11-5.9-2.05-2.21-0.63-3.97-0.74-4.24-1.7-0.54-1.97 2.74-3.24 3.28-4.82 0.45-1.36-1.68-2.81-1.95-4.35-0.36-1.85 0.36-4.75 2.86-4.75 1.9 0 2.13 1.14 2.95 1.14 2.12 0 4.29 1.81 5.83 2.49 1.01 0.46 0.32 2.08-0.54 2.48 1.14 0.68 2.66 1.63 3.78 2.58 1.23-0.58 1.81-2.21 2.87-1.46 1.19 0.84-0.67 3.87-1.49 5.28-1.45 2.62-1.9 6.69-5.43 7.32-2.41 0.46-9.14 0.12-11.48-0.97-1.58-0.75-7.8-1.75-8.99-2.02-1.63-0.36-2.72 0.69-3.96 0.48-1.86-0.36-2.58-1.09-3.64-1.39-1.81-0.54-2.22 2.49-3.45 2.14-1.57-0.5-1.93-2.22-3.33-2.85-1.14-0.55-2.86 0.09-4.31-0.27-1.13-0.32-2.85-1.42-4.76-0.79-1.62 0.59-3.57 1.15-5.56 0.88-1.99-0.26-3.49-0.99-5.44-0.54-2.18 0.54-4.17 2.16-6.16 1.98-1.63-0.13-3.98 0.22-3.98-1.17 0-1.8 1.58-3.82 2.08-4.87 0.95-2.06-0.14-3.06-1.81-4.41 3.8-2.4 7.07-3.13 12.22-3.08 4.8 0.05 9.6 0.09 13.03 0 4.13-0.13 9.95 0.72 13.9 0.63 3.47-0.09 4.71 0.51 6.38-2.33 2.34-4.04 4.87-7.52 7.82-6.72 2.65 0.78 4.81 2.22 7.31 1.22 1.9-0.78 3.81-2.58 5.04-2.42 1.71 0.27 3 1.98 4.06 2.47 1.45 0.74 2.59-2.03 2.5-4.11-0.13-2.58 1.95-4.48 3.36-5.74 1.05-0.96 1.14-4.68-1.12-4.55-1.63 0.1-1.85 2.36-2.58 3.17-1.1 1.22-4.85-0.37-7.3-1.45-0.49-1.09-0.32-2.41-0.32-3.54 0-1.28-1.9-0.61-2.49-2.14-0.73-2.01-3.82-1.8-3.86-0.04-0.05 1.27-2.17 2.74-4.08 3.54-1.45 0.63-0.86 2.14 0.43 4.28 1.23 2.21 3.27 1.17 5.08 0.09 1.45-0.85 1.14 2.39-0.48 4.24-1.19 1.41-0.04 4.3 2 4.09 1.41-0.18 1.91-2.51 4.03-2.64 2.13-0.13 4.39 1.13 4.7 2.85 0.27 1.28 1.8 1.59 2.57-0.52 0.82-2.33-0.28-4.22 0.82-5.63 0.91-1.22 2.58-1.57 2.8-4.28 0.09-1.5-2.27-3.04-3.36-1.29-0.82 1.41-0.19 2.96-2.6 2.36-1.86-0.5-5.2-1.41-6.29-1.67 1.05-2.07 0.23-5.72-1.35-5.72-0.91 0-1.91 2.23-3.27 0-1.14-1.95-2.05 1.46-2.5 2.48l15.29-5.42z" fill="#E8B6B0" opacity=".5"/>
  <path d="m196.2 152.8c1.67 4.38-3.92 16.2-6.9 21.83-2.89 5.47-6.83 10.54-9.78 10.76-3 0.21-4.62 3.59-11.9 3.9-7.27 0.31-17.52 0.09-20.37 0.77-2.85 0.67-5.02 3.02-10.17 4.7-4.48 1.49-12.18 2.26-16.36 1.81-3.24-0.36-14.17-0.09-20.8-1.14-7.27-1.14-26.92-4.44-33.31-6.58-5.68-1.93-11.41-3.72-15.49-4.51-4.09-0.79-5.71-0.61-9.04-1.06-4.54-0.63-15.47-4.39-20-6.74-5.83-2.3-10.93-4.31-14.72-11.53-2.35-4.73-3.31-9.15-2.99-10.15l3.38 3.65 6.43 7.12 12.29 4.62 22.58 5.9 14.65 3.13 14.4 4.17 20.69 4.59 18.32 2.49 8.5-0.45 9.69-2.73 10.78-3.62 8.03 1.67 10.98-0.51c3.74-0.73 9.65-0.71 14.61-5.74l6.83-6.01 7.18-12.51 2.49-7.83z" fill="#78ACD1"/>
  <path d="m195.4 149.5c-1.36-4.98-7.36-9.46-13.18-10.96-4.53-1.19-6.84-1.98-7.74-3.42-2.85-4.75-8.39-9-21.46-12.29l-1.68-0.78-2.49 2.35-5.64 0.45-13.08-2.22-2.74-1.31-0.63-12.15-4.85-2.54-29.78-6.3-5.65-0.26-1.57 4.03-0.23 9.86-16.08-3.78c-1.72-2.25-3.89-2.62-10.32-2.35-9.79 0.41-15.66 1.54-24 7.18-8.33 5.63-21.73 17.58-24.73 22.02-2.35 3.6-5.45 7.12-5.33 14.38 0 5.42 5.78 12.59 13.52 15.52 5.91 2.31 15.84 5.21 24.55 7.01 10.49 2.3 19.91 5.24 28.7 7.74 6.78 2.01 22.71 5.42 33.2 6.2 7.22 0.59 15.87 1.37 23.14 0 4.64-0.83 7.65-1.37 11.59-3.39 2.36-1.12 4.36-1.84 7.45-0.8 4.13 1.44 11.49 1.84 17.32 1.17 8.34-0.96 14.2-2.53 22.14-11.23 4.58-4.93 10.85-19.45 9.57-24.13zm-7.8 1.22c-3.44 9.06-10.51 21.01-16.72 26.81 5.25 0.18 11.02-4.26 16.17-12.09 3.1-4.81 6.15-13.05 6.51-15.63 0.04-2.18-4.22-4.03-5.96 0.91z" fill="#89C17D"/>
  <path d="m176.4 145.7 3.84 0.77c3.54 1.09 5.06 2.59 4.96 7.12-0.13 3.88-3.46 2.83-3.46 1.56 0-2.35-4.81-2.22-5.54-0.26-1.16 3.24-8.57 17.66-11.27 17.75-2.5 0.09-6.29 0.09-5-2.57 1.19-2.57 5.99-6.38 8.74-12.29 2.12-4.63 4.43-11.08 7.73-12.08z" fill="#537999"/>
  <path d="m175.1 143.8 3.25-0.74c5.63 0.63 7.71 4.28 7.98 6.54 0.4 2.89-2.22 3.03-2.22 3.03 0-2.62-5.68-3.84-7.98-2.3l-2.09-1.31 1.06-5.22z" fill="#55A56E"/>
  <path d="m172 131.4c1.53 2.62 2.72 4.38 2.72 7.27 0 3.43-3.11 5.28-5.52 10.44-2.16 4.81-12.65 17.93-15.35 20.1-4.22 3.35-6.52 5.02-6.52 7.64l0.63 0.85c3.43-1.67 8.63-1.1 14.72-1.96 9.79-1.45 14.98-4.59 20.66-14.51 2.69-4.62 4.36-10.17 2.87-13.19-0.96-2.11-3.91-3.87-8.96-4.46-2.04-1-0.89-4.68-1.62-7.08-0.73-2.06-2.4-4.03-3.63-5.1z" fill="#77B878"/>
  <path d="m115.4 191.7c-1.57-1.72 2.53-3.57 5.86-3.17 5.91 0.72 12.64-2.23 15.64-3.4 3.1-1.19 7.04-2.33 8.9-1.15-3.29 1.05-5.06 3.9-11.9 5.75-4.59 1.26-6.88 2.01-9.18 3.55-1.95 1.23-7.41 0.45-9.32-1.58z" fill="#4381B6"/>
  <path d="m10.64 142.7c-1.77 4.27-1.45 12.5 6.72 16.1 6.35 2.89 19.97 5.15 22.51 7.18 1.9-0.96 3.29 0.09 5.06 0.62 2.35-0.36 3.8-1.49 4.16-3.56 0.36-1.85-1.17-2.64-1.48-4.14-0.4-1.86 0.89-3.44-2.3-4.8-3.14-1.25-1.55-3.1-6.69-4.29-5.45-1.27-10.78-5-14.86-7.21-3.7-1.97-10.67-5.7-13.12 0.1z" fill="#BBD99D" opacity=".5"/>
  <path d="m26.16 137.7c-0.46 5.03 6.02 7.43 11.66 10.14 4.9 2.4 9.28 2.27 12.8 3.22 2.85 0.79 4.42-1.02 6.59-2.78 1.9-1.54 4.11-2.59 6.6-2.76 3.1-0.18 5.09 2.23 9.22 2.32 5.49 0.13 15.42 2.48 19.46 3.22 3.94 0.72 6.58 1.36 5.24 3.57-2.26 3.79-4.79 10.36-14.14 12.37-6.38 1.41-13.26 0.09-18.21-1.45-6.03-1.97-13.45-5.32-11.64-10.26 1.01-2.98 2.45-4.16 0.41-4.16-0.81 0-2.71 0.36-4.34-0.32-2.4-1.05-4.8-2.09-7.69-2.59-3.79-0.74-13.01-4.89-14.54-6.34-2.74-2.68-2.47-5.78-0.26-8.81 3-4.03 3.67-6.7 14.16-12.84 5.73-3.47 8.33-4.61 12.63-4.97 7.69-0.63 15.2 0.47 21.38 2.96 4.03 1.67 5.89 4.51 12.12 6.92 4.21 1.62 12.45 3.78 18.5 4.46 5.82 0.63 7.81 1.63 11.6 0.96 4.04-0.79 7.43-1.59 10.86-1.94 5.35-0.55 9.52 1.57 16.36 2.97 7.13 1.53 14.78 3.2 14.78 7.23 0 4.23-7.37 14.3-14.25 19.37-5.64 4.23-12.57 5.23-22.15 5.72-9.26 0.46-17.55-1.8-21.34-2.71-5.05-1.31-8.85-1.48-6.68-5.08 1.86-3.24 2.54-5.19 1.3-5.68-2.53-1.05-13.68-2.55-17.86-3.33-5.4-1.09-7.71-0.83-10.55-2.14-2.4-1.09-3.14-1.88-4.49-0.88-2.45 1.81-8.43 5.58-10.93 5.84-3.99 0.36-16.42-3.66-19.75-5.51-4.64-2.5-6.54-3.67-6.85-6.72z" fill="#87C7E5" opacity=".5"/>
  <path d="m11.93 146.1c-0.54 3.79 0.18 7.94 4.72 9.95 4.04 1.76 9.42 3.61 12.27 3.97 1.29 0.17 9.37 3.92 10.9 3.47 0.36-1.26-2.78-2.61-5.18-3.47-4.39-1.64-9.12-2.99-12.6-5.1-5.01-2.94-6.77-4.35-10.11-8.82z" fill="#D8F0CC" opacity=".5"/>
  <path d="m145.3 171.8c-4.39 3.24-7.47 3.33-12.47 4.78-6.53 2.02-10.52 2.06-14.65 0.05 1.57-1.23 5.37-0.5 8.55-1.5 4.17-1.35 5.52-3.04 8.22-3.53 2.31-0.41 5.35-0.81 8.54-3.02 2.85-1.96 4.25-2.96 6.6-5.41 1.72-1.85 4.71-5.78 7.11-8.13 2.85-2.79 7.11-8.91 9.8-12.78 2.12-3.2 3.69-6.93 3.34-9.68 1.29 1.41 2.49 5.51-0.9 11.85-3.7 7.02-13.28 19.2-24.14 27.37z" fill="#A9D183" opacity=".5"/>
  <path d="m94.35 165c2.08-1.58 5.58-1.25 8.96-1.16 3.69 0.13 11.92 1.25 14.82 1.38 4.08 0.17 9.18-0.18 12.18 0.46 3.61 0.79 1.44 2.85-5.09 3.59-4.44 0.5-5.13 2.35-8.74 2.14-3.7-0.22-10.37-0.96-13.26-0.33-3.75 0.91-6.16 1.4-8.15-0.22-2.45-2.12-2.99-4.14-0.72-5.86z" fill="#9CCC84" opacity=".5"/>
  <path d="m138 177.7c-4.58 2.51-12.03 4-16.02 3.22-4.69-0.95-6.68-1.49-8.81-1.67-2.99-0.31-6.18-1.45-8.76-3.22l0.68-0.78 6.78 1.18c2.9-1.05 4.93-0.09 8.36 0.59 3.99 0.83 11.01-0.99 14.1-1.96 2.85-0.95 5.07-0.45 6.52 0 0.63 1.01-1.04 1.79-2.85 2.64z" fill="#D3ECC4" opacity=".5"/>
  <path d="m78.71 113-3.53-1.85v-9.11l7.54 0.58 1.09 3.45-7.69-1.18-0.31 2.52 8.34 1.71 1.09 5.03-6.53-1.15z" fill="#FEFEFE" opacity=".5"/>
  <path d="m130.7 103.8 12.31 2.22-0.91 9.2-11.25-1.71-2.13-5.8 1.98-3.91z" fill="#FEFEFE" opacity=".5"/>
  <path d="m148.9 111.3c1.57 0.86 2.03 6.02-0.23 8.55-1.34 1.58-2.49-1.4-1.58-5.6 0.64-3.04 0.87-3.59 1.81-2.95z" fill="#DD9D81" opacity=".5"/>
  <path d="m88.12 32.92c-2.74 0.79-4.04 20.89-3.59 34.46 0.18 5.34 7.12 5.03 17.48 7.09 10.83 2.26 16.61 1.81 24.94 1.94 5.87 0.09 10.67 0.36 11.78-1.27 2.4-3.53 4.8-34.03 3.4-37.45-1.19-3.19-21.69-4.95-32.12-5.35-8.38-0.31-18.6-0.35-21.89 0.58z" fill="#7C909B"/>
  <path d="m91.22 36.81-1.22 28.94 4.26 1.26 14.19 1.81 12.71 0.9 12.8 1.09 2.22-27.7-4.13-2.13-15.34-2.35-21.9-1.62-3.59-0.2z" fill="#D0E5E1"/>
  <path d="m136.2 23.44 1.86-1.72h1.67v11.07l-1.1 0.73-1.5-0.54 0.23-7.93-1.63 0.86-1.24-1 1.71-1.47z" fill="#F0D062"/>
  <path d="m148 25.96c1.14-2.26 4.94-2.35 6.13 0.45s-2.89 6.25-4.04 6.75l2.5 1-0.46 2.07-6-1.86 0.13-1.76c1.9-1 6.43-3.53 5.98-5.44-0.36-1.45-2.13-0.5-3.62 0.54l-1.68-0.78 1.06-0.97z" fill="#C0769A"/>
  <path d="m160.3 34.01 1.09-0.74c2.65-0.58 4.81 2.04 4.23 4.05-0.63 2.31-1.73 2.57-2.92 3.07l0.31 1.63-1.86 2.26-3.43-0.36-1.9-2.8 0.95-1.76 2.12 0.26c-0.4 1.18 1.01 2.8 2.15 1.9 1.76-1.44 2.22-2.01 2.22-3.51-0.68-0.78-1.97-1-3.26-1l0.3-3z" fill="#78B07B"/>
  <path d="m76.12 18.41c1.99 3.88-0.41 10.27-5.85 10.54-4.91 0.26-7.85-2.41-8.26-5.8-0.5-4.19 2.11-8.47 5.64-8.34 3.8 0.13 6.9 0.62 8.47 3.6z" stroke="#599472" stroke-miterlimit="10" stroke-width=".8509"/>
  <path d="m62.55 37.01 2.96 0.22 3.57 9.03-0.68 1.45-1.49-0.18-1-2.9-3.8 0.46-1.09 2.17-1.01-0.74 2.54-9.51z" fill="#F3B7B7" stroke="#E17475" stroke-miterlimit="10" stroke-width=".8509"/>
  <path d="m70.98 32.92 1.24-0.74 3.09 0.46c1.82 1.21 1.28 4.46-0.39 5.05l1.05 0.63 0.45 2.21-1.39 1.58h-3.95l-0.96-0.85 0.86-8.34z" fill="#B3CF61" stroke="#5F9469" stroke-miterlimit="10" stroke-width=".8509"/>
  <path d="m81.38 44.94c-2.31-1.81-5.05-1.59-6.63 1.12-1.14 2.07-1.32 5.85 1.28 6.53 1.58 0.45 2.86 0.59 3.91-0.86" stroke="#5994A8" stroke-miterlimit="10" stroke-width="1.702"/>
  <path d="m90.39 76.41 2.12 1.49 2.08-0.22-0.28 1.05-2.17 1.22-2.25-0.54v6.13l-1.77 0.63-1.94-0.68-0.36-1.04 1-1.41 3.19-0.73 0.38-5.9z" fill="#C05258"/>
  <path d="m109.5 79.59 7.03 3.24-2.35 8.3-2.54 0.36-1.2-1.58 1.35-2.02 3.39-0.85 0.87-4.03-6.34-2.07-3.7 6.82-1.81-0.64 0.68-2.01 2.99-0.4 1.63-5.12z" fill="#5B97B8" stroke="#4D8597" stroke-miterlimit="10" stroke-width=".5673"/>
  <path d="m124.1 83.97 7.02-1.18-0.31 8.96-1.67 1.19-1.72-1 1.34-2.36 1.77-0.63-0.41-4.67-5.1 0.85-2.17 7.4-2.4-0.12-0.91-1.27 0.64-1.41 2.54-0.45 1.38-5.31z" fill="#549762" stroke="#46736B" stroke-miterlimit="10" stroke-width=".5673"/>
  <path d="m118.4 41.03c1.52-0.27 2.66 1.08 4.65 1.08 2.75 0 6.58 0.63 8.66 0.41 2.03-0.27 3.8 1.31 4.11 2.4 0.36 1.26-1.04 15.09-1.94 16.89-1.19 2.12-0.13 5.7-1.19 6.33-1.66 0.68-4.11-0.76-5.61-0.93-1.49-0.17-3.62-2.19-2.99-3.19 1.1-1.71-1.35-2.57-2.81-3.74-1.24-1-2.39-2.4-0.22-4.84 1.1-1.23 0.24-2.02-0.49-0.94-1.63 2.57-3.3 2.52-4.79 2.92-2.59 0.69-3.55 2.09-6 2.59-2.45 0.58-2.58-2.95-3.09-3.79-0.95-1.59-2.19-0.42-2.96-1.59-1.05-1.71 0-4.46-1.95-4.42-1.35 0.05-3.38 1.85-4.67 0.8-1.44-1.25-2.07-0.93-3.41-2.25-1.24-1.31-2.43-1.09-2.79-0.55l0.63-11.2 2.35 0.04 14.53 1.01 9.98 2.97z" fill="#A9B8E0" opacity=".3"/>
  <path d="m58.79 64.71c1.19-1.96 2.72-2.23 3.82-1.01 1.15 1.41 2.1-0.09 3.51-1.39 1.1-1.05 3.31-0.59 3.99-1.55 0.86-1.25 1.04-2.47 3.3-2.25s2.76 1.54 2.64 3.8c-0.14 2.3 2.15 2.71 1.56 4.47-0.68 2-2.58 1.6-2.94 4.02-0.36 2.16 1.25 2.01 1.98 0.89 0.73-1.14 1.87-1.98 2.83-0.89 0.73 0.85-2.27 4.43-5.87 4.97-2.9 0.46-4.45-0.8-6.26-2.81l-1.72 1.76-3.79-1.31-1.72 0.35c-1.57-2.58-2.71-7.21-1.33-9.05z" fill="#78BCA6" opacity=".3"/>
  <path d="m48.94 126.1-0.82 1.67-1.1 0.2 0.46 4.14 2.25 2.66 1.4-1.18 1.63 1.09 3.09-1.41 1.5-1.3 1.15 1.09 1.24-2.45 0.54 1.17 1.49-3.77 1.24 1 0.81-4.03 0.64 3.41 1.67-0.52 1.19 2.3-2.17 1.81-1.63-0.79-0.86 2.48-0.95-1.63-2.04 1.63-2.55 0.09-1.53-1.62-2.17-5.53-2.5-0.79 0.31-7.26-3.94 0.45-10.11 6.01-3.1 5.94 5.2 1.98 1.1 4.15 3.69 1.22 1.11-2.01 2.94-2.62-0.91-1.76 1.73-5.82z" fill="#629BC9" opacity=".3"/>
  <path d="m95.07 133 0.78 3.15-1.44 1.25 2.7 1-1.5 2.56-4.85 1-2.04-9.51-1.44 0.79 0.53 2.56-1.9-3.15-1.25 0.78-0.9-1.01-1.95 1.01-1.01-2.02-1.73 1.81-0.41-2.79-1.99 1.57-1.44-3.43-1.72 1.95-0.45-4.47-2.26 2.98-1.45-1.56-2.44 2.76-1.06-1.53 1.29-2.66-3.05 0.67-0.23-1.54-3.84-0.75-1.45 1.81-2.26-2.4-1.1 0.74-2.61-0.37 1.01-5.91 2.12-0.31 0.64 0.06 3.79 0.37 2.35-0.27 2.9 0.45 1.3-0.5 3.6 0.36 3.75 2.52 2.17 0.79 2.08-0.03 2.85 2.47 3.93 1.62 4.44 1.41 7.82 1.68 6.93 1.05 5.73-0.64 5.2-0.27 4.29-0.79 4.49 0.5 1.53-1.15 2.39-0.54 2.4 1.08 7.78 1.13 5.49 0.9 4.23 1.62 6.79 2.45 2.9 1.53-1.35 3.07 0.14 4.18-2.08 4.17-5.44 5.48-10.24 5.07-1.44-6.12-2.75 0.41-0.4-0.78 3.94-3.51 2.84-2.57 5.55-4.85-2.8-1.21-1.34-0.96 0.91-0.9-4.95 0.19-12.8-1.86-1.82 2.97-0.72 1.6 2.43 3.88-1.77 0.74-3.69-0.68-2.45-6.13-2.94 0.17-6.24-1.86-3.85 0.17-3.09-1.25-4.73 0.85-1.35-3.05z" fill="#96CAE0" opacity=".3"/>
  <path d="m60.91 147.2-5.87 6.93 0.32 4.29c2.17 3.51 7.94 5.32 11.78 6.85l9.02-0.18 4.22-0.22 6.01-0.95 6-6.51c1.34-2.3 1.22-3.45-4.07-3.89l-7.59-0.89-15.4-2.02-4.42-3.41z" fill="#F38920" opacity=".3"/>
</svg>