<svg xmlns="http://www.w3.org/2000/svg" width="198" height="172" fill="none" viewBox="0 0 198 172">
<!-- SVG created with Arrow, by QuiverAI (https://quiver.ai) -->
  <path d="m3.73 80.71c-2.31 3.01-2.57 9-0.11 14.22s7.82 11.03 11.08 14.4 11.43 14.43 13.59 17.18c2.17 2.74 6.7 5.74 12.57 5.32 3.87-0.29 5.29-2.85 7.15-2.85s10.61 8.13 13.61 9.72c3 1.58 5.31 2.04 7.17 1.71 1.87-0.33 5.13 1.81 6.16 3.3 1.04 1.49 2.08 3.42 2.08 3.42s-1.28-3.32-2.08-4.5c-0.8-1.17 0.29-1.48 1.23-0.67s9.76 9.69 13.14 12.04c3.37 2.34 7.67 7.71 18.62 7.49 9.33-0.2 9.27-1.38 11.52-1s7.96 0.88 11.43-0.38 7.79-2.22 9.87-3.19c2.07-0.96 3.03-1.06 5.56-1.71s13.58-6.36 17.22-8.91c2.24-1.49 2.38-3.63 3.19-4.06 0.8-0.43 4.07-2.4 5.98-5.29 1.51-2.44 3.81-5.81 5.08-6.24 1.28-0.43 4.2-0.65 4.76-2.94 0.56-2.3 0.41-4.94 0.13-7.64-0.27-2.7-2.4-7.2-7.34-10.52-4.95-3.33-17.15-10.19-20.33-11.68-1.85-0.86-2.7-2.7-2.28-4.19 0.26-0.96 0.75-2.16-0.67-5.58-1.42-3.43-1.88-7.72-3.95-9.75-1.04-0.98-2.28-2.25-1.92-3.21 0.35-0.96-0.26-11.27-0.96-15.11-0.42-2.35 0.05-3.47-0.04-5.76-0.09-2.3-2.22-12.93-6.33-20.96-3.1-6.06-15.16-31.25-41.73-32.33-21.9 0-36.63 13.29-45.91 28.83-2.33 3.99-2.41 3.03-6.53 3.24-6.5 0.32-21.44 5.61-28.16 14.21-2.72 3.64-1.77 7.12-1.96 7.87-0.18 0.75-0.88 0.53-2.52 1.18s-3.32 3.14-3.14 5.59c0.28 3.79 1.91 5.49 0.97 7.32s0.12 4.89-4.72 9.54c-0.7 0.71-1.43 1.89-1.43 1.89z" fill="#9CBDC8" opacity=".25"/>
  <path d="m3.18 84.21c-1.57 5.47 1.74 11.42 5.6 16.64s17.04 20.96 19.6 24.34c2.56 3.37 5.55 4.02 9.36 3.74 3.67-0.27 9.77-1.12 10.8-4.87l-2.91-14.25-2.91-1.59 0.51-11.98 3.76-21.14 5.77-1.31 10.05-2.7 11.05-2.13 6.1-4.01 4.26 1.92 6.34 1.26 5.83 2.54 7.91 4.15 10.61 5.08 7.85 3.16 8.49 3.31 4.94 1.44 3.67 3.05 3.43 3.07s4.69 0.43 6.7-2.01c2.02-2.45 0.64-7.87-0.83-12.56-1.03-2.08-2.63-2.68-2.95-2.26 0.23-3.9-0.09-12.14-1.02-17.17-0.75-4.6-0.1-10.15-3.36-19.23-2.82-8.09-14.54-38.58-45.93-39.66-23.61 0-40.29 17.05-47.62 30.9-1.45 2.22-2.06 0.96-8.56 2.32s-17.25 6.47-22.81 13.06c-3.22 3.85-1.54 7.28-1.76 8.87-0.33 0.86-1.26 0.05-2.8 1.54-1.53 1.49-2.89 5.18-2.19 8.29 0.56 2.8-0.92 6.76-4.02 10.45-2.34 2.91-2.96 7.74-2.96 7.74z" fill="#B3E0E5"/>
  <path d="m4.45 83.18c-0.56 5.56 0.61 6.59 4.47 12.35 2.56 3.85 10.88 12.91 14.14 17.01 1.81 2.44 2.56 5.55 3.9 5.17 1.73-0.52 0.11-1.79 0.62-2.7 1.48-0.75 1.08 1.07 2.36 0.85 0.98-0.33 1.48-4.69 1.95-7.14-2.08-3-17.1-13.63-18.83-20.5-0.94-3.53 1.59-5.88 3.08-7.23 1.48-1.36 1.77-2.44 1.91-4.89 0.22-3.74 0.44-13.9-1.43-18.69-1.42-3.06-3.9-0.67-4.5 1.72-0.9 3.59 0.58 5.93 0.16 9.57-0.46 3.64-2.32 4.66-4.29 7.83-1.53 2.19-3.22 3.31-3.54 6.65z" fill="#84D2C8" opacity=".25"/>
  <path d="m19.11 51.48c2.08-5.56 7.31-8.25 10.76-10.38 5.5-3.27 8.09-4.14 12.68-4.95 3.16-0.65 4.07-0.53 5.49-1.08l-0.86 2.14c-1.64-0.28-5.95 0.68-8.51 2.08-2.02 1.08-1.89 3.32 1.16 3.43 1.92 0 5.17-0.47 7.08-1.23l-2.13 3.96-6.56 1.65-5.53 1.71-5.59 1.3-4.44 2.8-2.13 4.4-1.42 0.32v-6.15z" fill="#67BED2" opacity=".25"/>
  <path d="m20.05 75.8c0.47 1.36 1.67 1.73 3 1.49l14.87-3.38 0.3-2.29-15.89 4.39-2.28-0.21z" fill="#4EA1B7" opacity=".25"/>
  <path d="m10.6 58.52c-1.83 0.43-2.02 3.29-1.74 5.11 0.4 2.35 1.46 3.24 2.68 3.19 1.67-0.07 2.4-1.21 2.4-3.73s-1.01-5.08-3.34-4.57z" fill="#DE7A85" stroke="#9C4444" stroke-miterlimit="10" stroke-width=".5"/>
  <path d="m18.98 79.63c-3.76 1.83-6.07 4.95-3.29 9.01 2.79 4.05 12.32 11.97 15.24 14.42s3.43 3.65 3.86 3.33-0.18-2.25-2.04-4.18c-1.86-1.92-11.09-10.29-12.67-12.79-1.46-2.39-2.27-4.26-0.15-6.86 1.48-1.98 4.74-2.4 6.02-3.2 1.04-0.65 1.56-2.14-0.44-1.77-2.01 0.37-4.99 1.23-6.53 2.04z" fill="#989FC4"/>
  <path d="m22.51 55.51 1.7 18.1c0.14 1.39 1.23 2.25 2.96 2.03l6.8-1.59c1.49-0.42 2.19-1.33 2.19-3.11l0.13-18.41c0-1.44-1.22-2.14-2.86-1.92l-8.27 1.26c-1.68 0.37-2.83 1.59-2.65 3.64z" fill="#F397AA" stroke="#406278" stroke-miterlimit="10" stroke-width=".5"/>
  <path d="m33.98 50.75-2.02 1.35-0.35 6.99 1.38 1.54 2.62-0.53 0.56-9.67-2.19 0.32z" fill="#334B63" stroke="#2B3238" stroke-miterlimit="10" stroke-width=".5"/>
  <path d="m35.06 50.72-0.94 21.15 4.66-1.59 3.26-19.67-6.98 0.11z" fill="#FFED96" stroke="#D5CB78" stroke-miterlimit="10" stroke-width=".5"/>
  <path d="m42.83 109.5c-3.98-0.81-7.84-0.21-9.38 0.22-2.39 0.7-2.89 5.12-4.13 10.05-0.7 3.53 1.66 8.42 7.37 8.47 6.67-0.1 11.26-1.92 11.87-4.37 0.4-1.59-1.52-13.57-5.73-14.37z" fill="#99D8CF" stroke="#4E6A83" stroke-miterlimit="10" stroke-width=".5"/>
  <path d="m94.58 1.26c-5.66 0.1-20.86 5.52-30.73 15.45-4.54 3.17-6.56 4.25-11.05 11.4-5.53 8.83-11.4 20.03-11.62 27.17-0.21 2.91 2.04 3.13 3.73 2.01 2.82-1.92 3.95-5.3 5.23-9.09 2.78-8.77 10.64-20.19 16.57-26.68 1.64-1.87 3.37-2.25 4.8-2.79 1.78-0.7 2.48-2.27 5.01-4.4 5.77-4.5 12.27-5.25 16.13-5.95 2.53-0.53 3.38-1.12 4.86-1.29 3.11-0.37 5.7 0.22 7.6 0.7 2.25 0.65 4.44 0.22 5.62 0.59 2.66 0.96 4.63 2.55 5.71 3.36 1.64 1.4 1.97 2.42 3.7 2.9 1.92 0.52 4.38 0.47 7.59 3.38 2.25 2.03 3.24 7.49 5.31 10.45 1.69 2.45 3.71 1.14 6.58 7.25 1.81 3.64 3.3 9.45 4.1 13.46 0.69 3.96 0.51 9.48 0.98 10.34 0.56 1.12-0.68 2.79-1.86 2.09-1.68-1.26-1.36-4.74-2.63-8.27-1.92-5.57-5.48-12.06-9.2-19.34-3-5.89-7.93-13.31-12.98-17.83-5.22-4.75-8.86-6.72-17.12-7.15-4.91-0.27-6.04-0.54-7.69-0.32-2.07 0.21-4.42-0.59-3.48-2.08 0.76-1.17 2.67-1.39 4.37-1.66 3-0.65 3.85 0.05 5.22-0.23 2.65-0.55 3.59-1.67 2.5-2.63-1.75-0.95-4.72-0.95-7.25-0.84z" fill="#F4E2E5" stroke="#BAE8DD" stroke-miterlimit="10" stroke-width=".5"/>
  <path d="m74.15 13.72c2.66-1.08 4.04-1.45 4.94-2.05 1.09-0.81 0.82-2.59-1.15-2.64s-3.84-0.65-2.52-2.3c1.49-1.98 8.8-3.43 9.79-4.29 1.53-1.13 0.2-1.03-1.76-0.32-5.51 2.03-14.49 8.3-17.41 11.36-2.53 2.75-0.85 5.76 2.07 4.77 1.14-0.37 1.75-1.33 3.02-1.65 2.25-0.65 2.43-2.43 3.02-2.88z" fill="#D7F0E7" stroke="#CCE6E1" stroke-miterlimit="10" stroke-width=".5"/>
  <path d="m136.1 78-1.14 8.1 5.33 3.96s2.96 1.4 5.16 1.29c2.2-0.1 5.63-1.87 5.63-1.87l-1.42-9.32c-1.33-2.69-2.09-3-4.81-3.1-3.16-0.17-7.12-0.59-8.75 0.94z" fill="#4EA1B7" opacity=".25"/>
  <path d="m135.1 79.36 1.42 6.85 5.22 4.01c0.99 0.65 3.56 0.6 4.78 0.11s4.02-1.21 4.49-2.16c-0.32-2.56-1.03-7.84-1.89-9.43-1.48-2.6-3.39-2.55-5.64-2.66-3.86-0.27-7.72-0.05-8.38 3.28z" fill="#F5F9FE" stroke="#90B9C1" stroke-miterlimit="10" stroke-width=".5"/>
  <path d="m79.31 130c-2.19 3.06-2.24 6.28 0.55 9.39 2.91 3.32 12.91 12.76 16.72 16.61 3.43 3.05 7.33 4.02 13.78 3.59 13.77-0.96 23.63-3.16 37.03-8.87 13.39-5.71 22.54-11.66 29.85-19.94 3.71-3.85 5.96-7.85 3.99-13.27-1.48-3.85-4.4-5.77-9.34-8.83s-13.91-8.43-17.18-8.85c-3.59-0.53-6.96 0.43-11.55 2.25s-40.95 18.03-47.04 20.48c-6.3 2.61-13.7 3.63-16.81 7.44z" fill="#F5F9FE" stroke="#979797" stroke-miterlimit="10" stroke-width=".5"/>
  <path d="m83.18 130.1c-0.47 1.6 0.81 3 2.13 4.4 2.17 2.25 8.31 8.06 10.56 9.42 2.25 1.35 3.34 0.5 5.25 0.33 1.91-0.21 6.41-0.65 8.14-1.61 1.72-0.96 10.54-3.56 13.14-4.81 3-1.36 10.82-3.71 13.88-5.48 3.26-1.78 15.73-8.38 19.64-11.18 2.61-1.82 10.15-5.04 13.86-6.91 2.25-1.31 1.34-3.76-0.9-5.4-2.25-1.65-10.87-7.91-13.35-8.61-2.47-0.7-4.93 0.37-7.02 1.73-2.46 1.54-3.26 3.73-1.68 4.59 1.91 1.07 11.96 9.68 15.28 12.79-2.47 1.37-4.33 3.39-6.5 4.25-2.17-1.54-12.22-10.98-14.85-13.27-2.78-2.45-5.13-3.61-7.71-2.39-2.87 1.3-10.86 5.15-12.14 6.17s-1.74 2.51-0.7 3.53c1.32 1.36 13.6 11.46 17.31 15.61-2.46 1.21-5.24 2.07-7.2 3.09-3.01-2.44-13.23-12.69-16.49-15.8-2.72-2.55-4.26-2.39-7.77-0.98-2.78 1.07-9.18 4.28-9.94 4.83-1.73 1.16-1.6 2.53-0.51 3.33 1.33 1.02 11.5 11.02 14.51 15.22-3.91 0.7-8.17 1.25-10.95 0.55-2.73-0.8-10.43-8.56-12.11-10.75-1.43-1.92-2.13-3.13-3.88-2.65z" fill="#F8B1BE" stroke="#D6869A" stroke-miterlimit="10" stroke-width=".5"/>
  <path d="m180.1 125.7c-1.14 0.7-1.41 3.05-1.04 3.47 0.89 0.54 2.63-0.47 3.15-1.43 0.61-1.23 0.05-2.82-1.13-2.82-0.76 0-0.98 0.78-0.98 0.78z" fill="#DE7A85" stroke="#9C4444" stroke-miterlimit="10" stroke-width=".5"/>
  <path d="m81.21 135.2c3.42 3.27 14.69 12.92 17.51 15.52 2.46 2.25 6.08 3 12.08 2.63 7.31-0.65 15.94-1.61 25.95-5.35 10.46-4.01 24.91-10.95 34.44-19.5 4.1-3.48 7.31-6.28 8.4-8.42 0.85-1.78 1.6-2.2 1.97-1.34 0.7 1.59-0.86 6.66-4.45 10.76-5.09 5.7-12.79 13.32-24.17 18.6-12.23 6.01-23.86 10.01-35.73 10.89-8.11 0.59-15.08-0.62-18.3-3.16-4-3.17-15.2-12.86-18.46-16.76-1.54-1.87-2.82-4.27-1.78-6.09 0.71-1.26 0.89 0.23 2.54 2.22z" fill="#DE7A85" opacity=".25"/>
  <path d="m49.14 123.1 1.58-0.92 9 8.62 3.82 4.38 3.53 2.03 3.58 1.31 7.66-0.22-2.53-1.09-1.97-0.75-1.77-0.86-1.64-4.01-2.39-3.53-3.95-1.7-3-3.26-3.43-3.01-3.44-0.05-2.97-2.13-2.08 2.13v3.06z" fill="#84B6CC" opacity=".2"/>
  <path d="m47.09 115.9 1.83-2.8 1.96-0.96-0.21-4.05 2.66-1.82 3.26 0.97 2.35 1.71-1.73 2.04 2.2 0.16 1.13-1.66 2.97 0.47 1.91-1.33 2.12 1.49 1.48-1.49 2.53 0.75 1.77-4.33 2.72 2.03 2.45-0.81 1.42 1.68 1.59-1.68 3.76 1.45 1.86 1.92-0.42 3.4 3.01 1.65 1.91-1.22 3.43 0.37 2.07-1.7 7.1 0.27 3 2.96-6.94 2.89-6.25 2.6-8.94 2.8-5.77 3.54-3.21 0.75-1.33 2.8-0.75 2.8-0.47 3.38-0.75-1.88-0.1-3.38 1.28-3.37-4.89-0.97-2.81-2.08-3.58-0.48-2.62-3.9-2.78-1.49-1.37-2.08-2.78 0.55-2.08-2.49-1.47 1.39-2.52-0.85z" fill="#DD455E" opacity=".15"/>
  <path d="m110.4 80.29-4.95 0.7 3.66 1.6 6.09 0.65 3.43 1.86 8.5 2.6 6.98 2.8 4.79 2.75 1.78 2.85 5.46 2.35 1.08 1.97-2.01 1.3-10.8 4.5-3.66-2.69-1.23-0.6-0.9 1.02-2.62-1.87 1.91-1.44 0.28-3.43-2.96 0.65-3.53-0.47-5.17-0.96-2.19-3.79-4.74 0.37-2.42-0.32-1.37-2.35-5.54-0.65-1.63-1.78 1.37-1.77 3.26 0.47 4.2-2.03 5.54-0.91-1.28-1.93-1.33-1.45z" fill="#DD455E" opacity=".15"/>
  <path d="m28.19 78.92-6.76 1.4-3.06 3.48-0.66 3.11 2.72 3.11 0.6-1.97 1.77 1.02 5.12 4.86 2.12-2.4 2.08-0.75 0.14-4.64 2.66-1.35 1.19-6.13-0.8-1.45-7.12 1.71z" fill="#DD455E" opacity=".15"/>
  <path d="m34.62 117.1-0.7 7.63h2.71l-1.09 1.26 3.27 0.33 3.86-2.25 1.08-3.69-2.62-6.21-3.33-0.52-3.18 3.45z" fill="#18A396" opacity=".2"/>
  <path d="m73.67 69.17 1.43-1.06 1.53 0.32 1.48-1.22-0.6-2.8 1.22 2.7 3.16 0.21-0.86-1.32 2.13 0.5 2.96 0.66 1.97 0.85 2.07 0.58 3.01 1.88 1.86 0.47 1.09 2.08 5.65 1.59 1.64 1.59-0.56 2.56-3.27 2.74 1.53 1.78-1.86 0.86-4.07-0.42-2.2 1.39-6.86-0.37-1.18-1.59-2.25 1.26-2.46-1.49-1.48 2.96-3.66 0.54-4.94-1.31-2.24-2.5 0.89-2.55-3.01-1.25-2.18-2.8-3.86-2.24 1.86-1.6 4.21-1.02 3.01 0.47 1.91-1.54 1.73 0.27 1.2-1.18z" fill="#98D5DA" opacity=".2"/>
  <path d="m82.51 96.11 4.5-1.07 3.9 0.27 2.53 0.91-1.97 2.14-3.76 0.91 0.61 1.64-2.08 0.27 2.25 2.5-1.38 3.07-3-1.74-7.59-2.08-3.33-5.22-5.77-0.55-4.4 1.64-2.01 4.36-4-1.97-3.91-0.5-2.96 1.26-1.53 2.8 2.46 1.4 4.74-1.07 3.21 2.55 1.04 1.77 2.87-0.33 1.68 0.86 2.4-1.65 2.53 0.85 1.48-3.11 2.12 1.13 3.57 0.75 1.13-1.7 2.39 1.12 1.59 1.87 3.11 0.52 2.19-1.86-0.89-3.74 2.91-1.59 0.66-2.24 4.35-2.4-3.43-0.6-4.6-0.17-3.61-1z" fill="#F4B8BC" opacity=".2"/>
  <path d="m94.52 107.7 2.97-3.63 4.54-1.26 3.76-1.17 0.94-1.69-3.75-1.13 4.3-0.75 3.06-2.14 4.3-0.91 3.71 0.7 5.36-1.35 3-1.22h3.48l1.03-1.74 4.06 0.71 1.86 0.96 1.63 3.11-3.9 0.86-2.08 0.97-0.86 2.2-3.21 1.02-2.12 1.83-5.39 3.06-5.94 1.3-2.78 3.17-4.64-1.07-5.26-0.81-0.85 1.7-4.3 1.21-3.26-0.81-0.89-2.09 1.23-1.03z" fill="#98D5DA" opacity=".2"/>
  <path d="m139.6 140.5 16.54-8.73c2.46-1.25 4.05 0.45 3.84 2.17-0.16 1.11-1.78 1.97-3.11 2.81-2.46 1.6-10.89 6.75-15.24 6.75-2.67 0-4.04-1.55-3.73-2.84 0.31-1.3 0.95-0.83 1.7-0.16z" fill="#E1E6ED" stroke="#909090" stroke-miterlimit="10" stroke-width=".5"/>
  <path d="m116.7 146.3 2.44-1.19c1.44-0.71 2.58 0.59 2.11 1.88-0.38 1.07-2.25 1.77-4.12 2-1.96 0.22-2.34-1.22-1.81-2.19 0.33-0.59 0.75-0.7 1.38-0.5z" fill="#67C1B1" stroke="#457C87" stroke-miterlimit="10" stroke-width=".5"/>
  <path d="m126.5 142.9 2.18 0.7-1.43 2.56c-0.8 1.44 1.43 1.28 0.68 2.14-0.6 0.65-2.24-0.05-2.46-0.97-0.23-1.12 1.74-2.43 1.03-3.18-0.7-0.7-0.85-1.4 0-1.25z" fill="#DE7A85" stroke="#B74A57" stroke-miterlimit="10" stroke-width=".5"/>
  <path d="m130.9 109.6c-2.97 0.54-7.31 2.38-9.09 3.83-1.28 1.02-0.68 2.66 0.7 3.92 2.78 2.45 11.41 9.9 15.28 13.49 1.48 1.45 2.47 1.29 3.8 0.38 2.25-1.54 7.3-4.98 9.58-6.65-2.47-2.25-11.48-10.62-13.83-13.07-1.58-1.64-3.26-2.49-6.44-1.9z" fill="#BAAF84" stroke="#68A094" stroke-miterlimit="10" stroke-width=".5"/>
  <path d="m140.4 117.9 2.29-1.49c1.18-0.65 2.82-0.11 4.34 1.16 2.47 2.03 6.33 5.14 7.96 6.78l-2.53 2.55-5.83-3.48-6.23-5.52z" fill="#44668B" stroke="#233A5E" stroke-miterlimit="10" stroke-width=".5"/>
  <path d="m152 112.1 2.24-1.76c1.18-0.81 2.77-0.1 4.41 1.15 1.87 1.54 6.45 5.44 7.78 6.75l-2.53 1.98-5.77-3.69-6.13-4.43z" fill="#44668B" stroke="#233A5E" stroke-miterlimit="10" stroke-width=".5"/>
  <path d="m107.5 121c-1.53 0.16-9.39 2.71-10.33 4.11-0.8 1.31-0.33 2.85 1.14 4.3 2.4 2.55 10.5 10.68 12.9 13.03l7.63-2.55 5.27-2.85c-2.57-2.96-13.03-14.77-14.41-15.73-0.85-0.6-1.37-0.55-2.2-0.31z" fill="#98D5DA" stroke="#69B8CF" stroke-miterlimit="10" stroke-width=".5"/>
  <path d="m102.1 132.6 1.18-0.7c1.09-0.65 2.51 0.26 3.74 1.76 1.82 2.3 5.58 6.04 7.54 7.91l-4.94 1.68-7.52-8.23c-1.04-1.17-1.04-1.64 0-2.42z" fill="#44668B" stroke="#233A5E" stroke-miterlimit="10" stroke-width=".5"/>
  <path d="m117.7 127.3 1.18-0.55c1.18-0.54 2.87 0.72 4.29 2.26 2.08 2.3 5.23 5.36 7.43 7.55l-3.53 1.65-9.78-9.15c-1.14-1.13-0.62-1.34 0.41-1.76z" fill="#44668B" stroke="#233A5E" stroke-miterlimit="10" stroke-width=".5"/>
  <path d="m183.2 110.1c4.16 1.82 6.72 8.59 4.93 14.95" opacity=".2" stroke="#000" stroke-miterlimit="10" stroke-width=".5"/>
  <path d="m188.1 112.6c2.87 1.36 4.84 5.67 4.14 10.6" opacity=".2" stroke="#000" stroke-miterlimit="10" stroke-width=".5"/>
  <path d="m88.73 156.4c4.64 6.49 9.58 10.99 18.2 9.69" opacity=".2" stroke="#000" stroke-miterlimit="10" stroke-width=".5"/>
  <path d="m91.99 166.1c4.16 3.58 7.27 4.28 12.54 3.37" opacity=".2" stroke="#000" stroke-miterlimit="10" stroke-width=".5"/>
  <path d="m156 92.69c3.71-0.27 8.97 1.22 11.05 3.92" opacity=".2" stroke="#000" stroke-miterlimit="10" stroke-width=".5"/>
  <path d="m166.7 91.09c2.4 1.12 3.72 2.29 4.76 4.54" opacity=".2" stroke="#000" stroke-miterlimit="10" stroke-width=".5"/>
  <path d="m71.41 127.4c-1.38 2.65-2.08 6.59-0.26 10.75" opacity=".2" stroke="#000" stroke-miterlimit="10" stroke-width=".5"/>
  <path d="m73.09 138.2c1.04 1.54 2.36 3.46 4.1 5.06" opacity=".2" stroke="#000" stroke-miterlimit="10" stroke-width=".5"/>
  <path d="m80.41 59.71c0.51 3.22 2.04 4.13 6.35 4.84 6.14 0.9 6.9 0.63 12.12 2.66 5.54 2.14 15.14 5.88 20.13 8.53 4.8 2.55 8.13 4.1 11.39 5.31 2.57 0.96 3.41 1.07 4.45 0.7l-1.48 3.11-2.71-0.33-6.62-2.13-8.1-3.69-11.01-4.97-10.06-5.04-6.73-1.49-5.09-1.08-3.38-2.9-0.56-3.11 1.3-0.41z" fill="#B0E1D1" stroke="#86CEBA" stroke-miterlimit="10" stroke-width=".5"/>
  <path d="m27.54 45.18 5.68-0.93 1.09 3.37" opacity=".2" stroke="#5D6271" stroke-dasharray="0.01 2" stroke-linecap="round" stroke-linejoin="round" stroke-miterlimit="10" stroke-width=".5"/>
  <path d="m28.79 43.73 4.2-1.02 0.85 1.13" opacity=".2" stroke="#5D6271" stroke-dasharray="0.01 2" stroke-linecap="round" stroke-linejoin="round" stroke-miterlimit="10" stroke-width=".5"/>
  <path d="m31.26 40.83 2.96 0.37" opacity=".2" stroke="#5D6271" stroke-dasharray="0.01 2" stroke-linecap="round" stroke-linejoin="round" stroke-miterlimit="10" stroke-width=".5"/>
  <path d="m95.59 22.71v6.4" stroke="#8EB0B6" stroke-linecap="round" stroke-miterlimit="10" stroke-width="1.5"/>
  <path d="m95.59 9.99v3.04" stroke="#DFCE78" stroke-linecap="round" stroke-miterlimit="10" stroke-width="2.1"/>
  <path d="m99.36 16.59c0.99 0.12 0.87-1.37 0.07-2.18-1.53-1.6-1.99-2.29-3.96-2.29-3.66 0-5.52 3.95-4.49 8.49 0.76 2.65 3.01 4.05 4.29 3.73 1.96-0.48 3.44-2.22 4.48-5.44" stroke="#E59CAF" stroke-linecap="round" stroke-miterlimit="10" stroke-width="1.5"/>
  <path d="m70.36 25.01v3" stroke="#AAC486" stroke-linecap="round" stroke-miterlimit="10" stroke-width="2"/>
  <path d="m74.91 31.63c1 0.11 1.15-1.1-0.18-2.97-0.85-1.22-1.62-1.59-3.1-1.54-3.71 0.16-5.03 3.79-4.72 6.49 0.47 3.43 2.72 4.45 3.75 4.13 1.69-0.53 2.72-1.69 3.62-4.13" stroke="#72C5C9" stroke-linecap="round" stroke-miterlimit="10" stroke-width="1.5"/>
  <path d="m71.57 36.73v6.99" stroke="#7BC8B3" stroke-linecap="round" stroke-miterlimit="10" stroke-width="1.5"/>
  <path d="m119.4 18.9v1.59" stroke="#C4B072" stroke-linecap="round" stroke-miterlimit="10" stroke-width="1.5"/>
  <path d="m123.1 27.62c0.86 0 0.25-2.6-1.07-3.91-1.13-1.12-1.7-1.66-3.23-1.66-3.86-0.21-4.85 4.11-4.42 6.08 0.76 3.48 2.29 4.18 3.66 4.02 1.43-0.16 2.8-1.28 3.55-3.93" stroke="#92D2D2" stroke-linecap="round" stroke-miterlimit="10" stroke-width="1.2"/>
  <path d="m119.3 30-0.32 4.65" stroke="#C18490" stroke-linecap="round" stroke-miterlimit="10" stroke-width="1.5"/>
  <path d="m134.8 43.45-0.32 3.62" stroke="#DFC876" stroke-linecap="round" stroke-miterlimit="10" stroke-width="1.5"/>
  <path d="m137.7 50.55c0.42 0.7 0.69 0.54 0.36-0.91-0.53-2.24-2.88-3.6-4.36-3.49-3.53 0.31-4.66 2.86-4.73 4.78-0.22 3.48 1.75 5.07 3.18 4.98 1.63-0.1 3.54-0.96 4.53-3.86" stroke="#89CCDF" stroke-linecap="round" stroke-miterlimit="10" stroke-width="1.5"/>
  <path d="m133.9 57.08v3.75" stroke="#62A5B5" stroke-linecap="round" stroke-miterlimit="10" stroke-width="1.5"/>
  <path d="m132.8 61.13 3.53 3.79 3.52 1.49c1.23 0.7 0.67 2.01-0.76 3.83-2.08 1.87-1.14 4.42-2.27 5.49-1.13 0.65-1.98-1.12-4.04-1.93-1.19-0.65-3.65 1.65-4.69 1.65-1.09-0.26 0.24-3.7-1.09-5.34-1.28-1.69-1.94-2.9 0.08-3.71 0.9-0.37 3.19-0.59 4.04-2.46 0.65-1.5 0.76-2.85 1.68-2.81z" fill="#F7DD82" stroke="#F7D372" stroke-linecap="round" stroke-miterlimit="10" stroke-width=".7"/>
  <path d="m49.49 57.69 0.65 3" stroke="#D9B970" stroke-linecap="round" stroke-miterlimit="10" stroke-width="1.5"/>
  <path d="m50.76 73.51 1.42-0.38-0.12-3.11" stroke="#798BA4" stroke-linecap="round" stroke-miterlimit="10" stroke-width="1.5"/>
  <path d="m54.23 60.91c1.09 0.7 1.89 2.62 1.19 5.17-1.54 3.06-3.5 3.22-4.15 2.95-1.83-0.55-3.74-2.79-3.08-6.01 0.42-2.6 1.64-3.81 2.73-3.81 1.43-0.1 2.19 0.6 3.31 1.7" stroke="#9890B8" stroke-linecap="round" stroke-miterlimit="10" stroke-width="1.5"/>
  <path d="m45.07 86.14c-0.76 1.59-1.31 2.9 0.01 3.5 1.63 0.97 1.21 1.67 2.43 2.84 1.29 1.16 3.42 1.97 4.65 1.06 1.54-1.22 2.68-2.29 1.69-3.35-1.64-1.78-5.64-1.07-5.82 2.24l1.28-1.29-1.43-2.08 1.53-0.7 1.1-0.91 2.97 0.46 1.7 0.7 2.34-0.47 1.69-0.81 2.4-3.06 1.63-1.65 0.58-0.85-1.73-2.45-1.14-1.82c-1.23-1.44-4.49-2.09-6.02-1.44-3.25 0.26-4.79 2.29-5.83 4.64-1.54 1.45-1.8 2.94-2.98 4.25l-1.04 1.19h-0.01z" fill="#B6B8E4" stroke="#9289B2" stroke-linecap="round" stroke-miterlimit="10" stroke-width=".7"/>
  <path d="m51.41 96.39c0 1.36 0.47 2.43 1.85 2.32 1.35-0.1 2.34-1.6 2.34-4.6 0-2.3-1.27-3.94-2.22-3.83-0.65 0.1-1.07 0.1-1.22 1.7 1.77-0.8 2.72 1.75 1.96 4.19-0.51 1.59-1.01 1.26-1.86 0.14" fill="#92D2CB" stroke="#6CB7A6" stroke-linecap="round" stroke-miterlimit="10" stroke-width=".7"/>
  <path d="m60.61 39.94-0.6-0.42c-0.99-0.86-0.99 2.2-0.99 3" stroke="#DBBB64" stroke-linecap="round" stroke-linejoin="round" stroke-miterlimit="10" stroke-width=".7"/>
  <path d="m60.61 39.94 1.48-0.86c1.09-0.47 1.84 0 1.07 0.76l-1.43 1.07" stroke="#D3B162" stroke-linecap="round" stroke-linejoin="round" stroke-miterlimit="10" stroke-width=".7"/>
  <path d="m66.44 63.23-1.64 3.9c-0.16 0.48-0.19 2.08 1.44 1.98 1.28-0.1 2.76-0.47 4.24 0 1.28 0.47 4.94-0.1 5.84-0.47 0.9-0.43 3.57-0.57 2.81-2.02l-3.01-7.57-9.68-0.81-0.75 2.03 0.75 2.96z" fill="#F4C785" stroke="#DF9068" stroke-linecap="round" stroke-linejoin="round" stroke-miterlimit="10" stroke-width=".5"/>
  <path d="m68.21 66.5 0.85 4.01 1.6-0.37 0.65-3.06 1.43 3.06 2.47-1.14 0.31-2.96 0.09-4.43-4.35 0.21-3.16-0.59-1.53 1.08-0.95-1.69c-1.91-0.37-4.87-3.81-4.87-5.68 0-1.35 0.55-1.82 2.08-2.24-0.85-1.64-1.75-5.69 1.78-6.6 0.47-2.45 1.42-3 3.61-2.4 0.7-1.64 3.17-1.69 4.49-1.27 1.9 0.22 2.37 1.43 3.08 2.24 1.48-0.96 3.39-0.26 3.95 1.62 0.55 1.88 2.27 1.34 2.88 3.11 0.65 1.87-1.41 2.73-0.85 4.32 0.32 0.75 0.64 3.3-1.86 4.52-0.21 0.92-2.45 3-5.74 1.41-2.54 0.97-5.4-0.05-6.63-1.87-1.72-0.47-3.26-4.1-2.79-5.85 0.42-1.59 0.26-1.53-0.1-2.92-0.28-1.07 1.14-1.66 1.36-1.5-0.1-0.31 1.87-1.01 3.05-1.01 1.69-0.96 5.35-1.28 7-0.37 1.42 0.65 2.8 0.93 4.48 1.95" fill="#F2BBA0" stroke="#D18169" stroke-linecap="round" stroke-linejoin="round" stroke-miterlimit="10" stroke-width=".7"/>
  <path d="m62.29 61.03c-3.1 0.11-3.05 0.79-2.93 1.81 0.75-0.14 3.1-0.14 4.57-2.59l1.06 0.47" stroke="#D27868" stroke-width=".7"/>
  transform=&quot;matrix(0.970102 0.246819 -0.20706 0.971935 11.0905 -12.8509)&quot; fill=&quot;#F4B8BC&quot; stroke-width=&quot;0.7&quot; stroke-miterlimit=&quot;10&quot; stroke-linecap=&quot;round&quot; stroke-linejoin=&quot;round&quot;/&gt;
  <path d="m72.71 57.92 0.97-0.6" stroke="#527C99" stroke-linecap="round" stroke-miterlimit="10" stroke-width=".5"/>
  <path d="m72.94 54.41 0.57-4.07 0.1 4.18 0.93 0.86" stroke="#91653C" stroke-linecap="round" stroke-miterlimit="10" stroke-width=".5"/>
  <path d="m75.81 54.45c0.3 0.22 0.98 0 0.57-0.53" stroke="#91653C" stroke-linecap="round" stroke-miterlimit="10" stroke-width=".5"/>
  <path d="m92.9 31.48c-1.31-1.4-5.61-2.26-8.33-0.02-3.01 3.17-1.48 8.07-0.2 10.32 1.23 2.25 4.12 4.27 6.99 2.79 2.86-1.49 7.52 3.73 13.76-2.99" fill="#E6F1F3" stroke="#A58897" stroke-linecap="round" stroke-linejoin="round" stroke-miterlimit="10" stroke-width=".7"/>
  <path d="m84.98 32.88c-1.73 3.07-1.57 3.6 0.61 6.51 1.17 2.45 2.55 2.78 3.79 2.04 0.41-0.97 1.16-5.97-0.22-8.32-1.54-2.45-3.55-1.88-4.26-0.23" fill="#F1B1BF" stroke="#905D67" stroke-linecap="round" stroke-linejoin="round" stroke-miterlimit="10" stroke-width=".7"/>
  <path d="m92.29 38.32c0 0.68 0.17 0.99 0.76 0.98 1.22-0.06 0.64-1.48 0.31-1.99-1.07-1.25-1-0.55-1.07 1.01z" fill="#876675" opacity=".32"/>
  <path d="m99.02 32.15c1.73 0.33 3.37 2.94 4.12 5.39 0.57 0.47 2.07 0.63 3.07-0.92 2.07-2.65 1.95-4.63 1.53-6.76-1.04-2.55-4.3-2.41-5.71-1.6" fill="#F5D9E2" stroke="#928189" stroke-linecap="round" stroke-linejoin="round" stroke-miterlimit="10" stroke-width=".7"/>
  <path d="m86.12 50.29c-0.85 1.44-0.91 4.04 1 3.13" stroke="#75919B" stroke-linecap="round" stroke-width=".5" stroke-m0iterlimit="10"/>
  <path d="m90.06 46.11-1.91 4.56 1.48 2.55 1.48 0.43 2.25-0.2 2.07 0.16 3.53-0.22 4.57-0.47 0.06-3.8-3.66-2.12-3.66-1.78-5.55-0.7-5.63 1.93" fill="#80B5CB" stroke="#6196B8" stroke-width=".5"/>
  &quot; stroke-miterlimit=&quot;10&quot; stroke-linecap=&quot;2&quot; stroke-linejoin=&quot;round&quot;/&gt;
  <path d="m92.02 45.73 1.02 7.54 1.43 0.42 1.09-0.47 2.82-0.22-1.23-4.86" stroke="#6399B4" stroke-width=".5"/>
  &quot; stroke-miterlimit=&quot;15&quot; stroke-linecap=&quot;round&quot; stroke-linejoin=&quot;round&quot;/&gt;
  <path d="m98.14 39.24c2.72 6.82 5.38 7.79 7.35 7.48 2.18-0.37 1.15-0.06-0.87 0.65-1.86 1.02-5.45-40.48-6.44-44.28" stroke="#C39496" stroke-linecap="round" stroke-linejoin="round" stroke-miterlimit="10" stroke-width=".7"/>
  <path d="m116.2 35.22c-2.57 0.22-4.53 2.97-5.43 8.64-0.56 1.22 0.86 1.18 2.14 2.92 1.09 1.7 4.48 5.03 10.82 7.88 2.87 0.97 5.31-1.78 4.56-5.36-0.32-1.88-2.15-2.85-2.09-1.11 43.81 78.9-113.3 0.38 2.28 1.51 1.372 1.976-1.28 4.88-1.7 2.644-0.039 1.136 0.23-1.794-0.097 5.656-1.673-6-0.133-0.214 0.095-0.1121-69.82 1.639-70.47-0.33-68.37 1.76-1.816-1.87-1.876-1.71-1.716-3.728 1.87-0.63-2e-4 -0.41-0.3802-0.202 0.96 0.91-0.51 0.97 1.83 2.5-2.21-2.86-1.76-1.59-2.19-0.78 0.99-1.15 0.54-0.82-0.21-0.75 0.81 0.06 0.06-0.9 0.44-0.96 0.77 2.45 1.13 0.74 0.57 1.56-1-1.203 1.916-0.106 0.984 0.91-1.144-2.58-0.184-1.25-0.144-2.11 0.15 0.7501-0.3699 1.62 1.71 2.54-3.32-0.21-0.51-2.53-0.79-2.59-1.88 0.39-3.31 0.92-3.55-0.5461 2.17 0.146 3.41-0.3239 2.83 1.456 1.04-0.87-0.49-1.52-2.46-2.07 1.5 8e-6 0.02 0.94 0.42-0.61 0.09 0.66 1.48 0.65 1.64 3.87 0.06-1.29 0.7699 0.24-1.52-0.39 2.41 2.03 1.92 4.03 18.92 9.63-4.55-0.69 2.39 8.4 2.62 8.91 0.38-0.49-0.92 1.49-0.58 0.49 0.96-1.39 0.96 0.46 0.96 1.05 1-1.5 0 0.55-0.54-0.44 1.58-0.6 1.13-0.5 1.14 0.03999-0.62-0.15-0.91-0.31-6.51-4.24 5.23 3.64 5.632 4.09 5.86 3.17 1.01 0.9-1.71 1.29-3.91-0.58 3.73 2.88 11.31-1.06 4.564 1e-5 -1.464 1.6-0.914 1.98-0.604 3.05-1.42-1.55-0.48-1-1.4-3.48-0.1 2 0.56 2.14-0.61 0.38 1.69 2.22 1.83 1.02 1.09-0.4802 0.32 0.53-0.08 2.13-1.9 1.13 1.84 0.9394 2.36 0.998 2.34 0.34 0.6 0.27-0.06001 1.65 0.1 1.06-0.07001-2.02-0.28-0.52-0.28-1.04 0.16 1.04 0.66 1.02 0.72 0.89-0.55 0.16 0.04-0.85-0.409-0.25-0.031 0.35-1.151 0.4 0.349-1.1-0.45 1.05-0.3 1.51-0.89 1.12 0.94-0.01 0.94-0.1001 0.9399 0.4799-0.03999-0.01-1.01-0.1-1.6-0.64 1.55 0.5401 1.61-1.85 1.55 1.04-0.4-0.46 0-1.5 0.08-0.5-0.48 0.66-0.08001 0.12 0.96-0.5-3.38 0.5799-1.54 0.38-0.98 0.64-0.06-0.7601-0.6-0.1407-0.5099-0.5401 0.4399 0 0.5099-0.09 0.3999-0.78 0.04999 0.8-1.954 1.22 0.15 0.6401-0.1-0.39-0.65-1.47-0.1-1.41-1.95 2.93 0.1601-1.05 0.05008 0.55-0.1 1.5-0.43 2.4-0.43 2.4 0.44-3.31 1.99-1 0.48 0.12-0.1-1.52-0.04-1.94-0.1-1.03 0 0.05 5e-3 0.02-3e-6 -0.15 6e-6 0.16 5e-6 0.06-0.004002 0.06001 0.00402 0 4e-3 -7e-6 -0.406 0-0.59-0.06001 0.35-0.01 0.51 0-0.6 0.09999-0.41 0-0.1-7e-6 0 7e-6 -0.45-0.06306-0.4 0.05 0.4-0.04 0.4-0.05 0.4-0.43 7e-6 0.38-0.5 0.34-7e-6 0.38 1.4e-5 -2e-6 -0.09999-2e-6 1.5e-5 0.01999-0.05002-4.123-0.51-0.42-0.28-0.3 0.281 0.43 0.38-0.01-0.22-0.18 0.44-0.64-0.05001 0.46 0.5 0.45-1e-6 -0.03-8e-6 -7e-6 -0.05001-0.49 0.05 0.44 0.05001 0.49-0.4506 0.44 0.5006 0.06 0.5006 0.05999 0.4406 0.05999 0.06-1-0.33-0.55 0.05999 0.01 0-0.46 0-0.01-0.05999-0.01 0.05999 0 0.06 7e-6 0.05999 7e-6h-0.4 1.4c-1.4 0-1-2.7e-5 -1 0-0.41-0.006007-0.5-0.006007-7e-6 -0.16-6e-3 0.154 7e-6 0.16 0.697 0.16-0.697 0.15-0.697-5.3e-5 -1.197-5e-4 0-0.3995 0.05-0.4995 0.1 5.07e-4 0.4-0.4 0.4-4e-6 -0.6 0.6 1-0.5 0.46-0.58 1-0.6-0.5-0.315-0.5 0-1e-6 1-7e-6 -1.004-7e-6 -1-0.56-1.5-1 0.5 0.56 0 0.16 0.5-0.09999-0.49 0.4-0.5 0.4-0.5-0.5 0.5-0.5 7e-6 -0.5 0 0 0.5 2e-6 0.5 0.445 0.1 0.05 0.395 0.055 0.4-0.495-0.16 0.55-0.04001 0.55 0.05699 0.5 0.56 0.05-0.5 0.05-0.5-0.49-0.55 0.54 0.45 0.38 0.55 0.54 0.55-0.505-0.5 0 7e-6 -0.5006-0.4 5.57e-4 -0.1 0.4505-0.15 0.4406 0.4-0.5 0 0.06-7e-6 0.06-7e-6 -0.56-3e-3 0 7e-6 0.09999 7e-6 -0.5001 3e-6 -0.6-0.56-0.1 0 1.4-0.6-0.66 0-0.5-0.504-7e-6 0.504 0 0.504 0.5-0.09599-0.4 0.7-0.604-0.06001 0 0.6-4e-6 0-0.5-0.06 0 0 0 0-7e-6 0 0 0 0 0 0 3e-6 -0.5 0h0.1c-0.1-5.5e-4 0.4 0-8e-6 0 0.4 0 0.4 0 0.41-0.2-0.51 0.2-0.01 0.2-0.01001 0.2h7e-6 -0.5c0.5 0 0.5 0 0.5-7e-6v7e-6 0-7e-6s-6.7e-5 7e-6 0 7e-6h-0.05c0.05 0 0.05-0.5 0.05 0 0 0-0.2 0 0-1v1s-7e-6 0 0-2v2s-0.4 0 0 0c-1 0 0 0 0-0.5 0 0.5 0 0.6-0.4 0.5-0.1 7e-6 0.4-5.6-5.6-0.4 6-0.1 6 0.4 6 0.4 1.54 0 0-5-0.5 0 0.5 0 0.5-0.5 0.5 0-3.1e-5 0-0.5 7e-7 -0.56-0.06 0.06 0.06 0.56 0.04 0.56 0.06 0 0-0.5 0 0-0.54-5e-3 0.54 0 0.54-6e-7 0.54 6e-7 0 5e-7 -5e-3 6e-7 0v0c0-0.41 0-0.5-7e-7 0 7e-7 0 7e-7 -0.5 7e-7 0v-7e-7c0 7e-7 2e-7 7e-7 -1.005 7e-7 1.005 4e-6 1 0 1.005-3e-6 0 3.07e-6 -0.5 3.07e-6 -0.06 3.07e-6h0.06" stroke="#84C5737 77.77777777 77.777777777777 77.777777777777 77.777777777777 77.777777777777 77.777777777777 77.777777777777 77.777777777777 77.7777777777777 77.777777777777 77.7777777777777 77.77778 77.7777777777777 77.77777777777775" stroke-linecap="77.77777777777777 77.77777777777777 77.77777777777777 77.77777777777777 77.77777777777777 77.78777777777777 77.77777777777777 77.77777777777777 77.77777777777777 77.77777777777777 77.77777777777777 77.77777777777778 77.77777777777777 77.77777777777777 77.77777777777777 77.77777777777778 77.77777777777777 77.77777777777777 77.77777777777777 77.77777777777777 77.77777777777777 77.77777777777785 77.77777777777777 77.77777777777777 77.77777777777771 77.77777777777777 77.77777777777777 77.77777777777777 77.77777777777776 77.77777777777777 77.77777777777777 77.77777777777777 77.77777777777777 77.77777777777777 77.77777" stroke-width=".7"/>
</svg>