<svg xmlns="http://www.w3.org/2000/svg" width="200" height="200" fill="none" viewBox="0 0 200 200">
<!-- SVG created with Arrow, by QuiverAI (https://quiver.ai) -->
  <path d="m8.09 158.3c4.44-12.05 14.92-14.94 14.92-14.94l2.11-12.04 3.79-6.13 8.83 2.68 2.73 7.82 5.54 1.4 6.58 0.78 7.42 2.86c9.07-3.6 23-3.44 34.15-1.83 7.02-7.77 17.81-14.92 31.7-16.77l4.3-6.12 7.29 2.32 3.89 8.15 5.54 0.92 4.3-3.42 4.77 2.11 3.2 5.94 0.26 7.68-4.77 6.28 0.39 2.68 6.58-8.28 3.36-11.33-4.71-5.95-7.25-4.77 5.1-11.47 4.77-4.57 9.53 4.12 12.34 6.78 8.28 11.6 3.97 12.04c0.51 10.94-1.8 25.57-14.13 36.45-10.38 9.35-23.61 11.87-36.52 10.9-15.99-1.46-27.19-4.02-41.49-10.34-6.19-3.14-12.4-5.76-19.79-6.13 1.14 11.2-8.64 21.66-20.44 26.43-7.48 2.97-13.62 3.54-23.55 3.54-19.3 0-35.52-12.93-34.85-29.6 0.18-4.52 0.95-7.34 1.86-9.79z" fill="#231F20" opacity=".2"/>
  <path d="m5.98 169c0.43-12.91 7.3-21.34 15.55-25.8l2.11 2.99-1.52 10.94-6.2 7.67 1.13 9.79 8 10.94 12.34 4.62h13.74l10.85-2.99 11.92-7.97 5.74-9.99-0.15-7.15 2.93-1.45 5.59 0.98 16.22 6.51c13.05 5.95 22.43 10.61 39.71 11.23 19.55 0.73 33.35-6.27 42.73-17.05 7.45-9.45 11.34-24.18 7.55-34.4-5.17-14.17-13.17-20.95-25.51-25.72l-7.75-0.73-1.42 4.56 4.52 5.7 6.87 4.89 5.16 8.72-8.71 5.94-1.06 8.66-4.3 8.13-6.01 5.1-5.54 2.11-7.86-0.55-5.05 3.41-11.75 1.2-23.59-5.58-16.4-2.83-10.25 5.72 1.85 9.5-4.08 10.07-11.93 10.03-15.23 5.19-14.57-0.72-12.8-5.14-9.11-11.6-3.72-4.93z" fill="#00B8B0"/>
  <path d="m6.13 168.1c0.19-11.42 6.76-21.08 15.01-24.89l-0.4 4.97-7.52 8.87-0.56 10.4 4.9 10.79 9.83 8.93 9.83 2.68h12.76l12.34-3.09 10.85-7.56 6.66-9.38 0.12-8.72 3.79-0.73c8.12 0.94 12.17 3.46 19.55 6.68 13.32 6.02 22.4 10.72 40.1 11.34 19.73 0.73 32.45-6.78 41.32-17.29 7.85-10.27 11.71-25.94 6.55-38.05-6.31-15.03-19.35-22.93-34.32-24.72l-1.51 5.03 9.23 6.93 9.63 5.1 8.74 10.31 2.11 12.4-4.17 13.77-11.18 12.86-14.57 7.97-17.83 0.17-18.08-4.77-18.49-7.8c-7.09-3.2-12.4-4.25-19.63-4.03l0.22 9.18-2.35 8.53-8.96 9.62-13.88 7.43-14.41 1.4c-18.2 0-35.68-10.33-35.68-24.33z" fill="#FF7865"/>
  <path d="m10.45 163.9c0-11 6.87-18.62 12.78-21.3l9.07-6.13c7.61-0.12 17.69 0.86 27.51 4.07 9.4-3.09 23.34-4.36 38.11-1.23 13.52 2.92 20.59 8.22 34.53 10.63 10.16 2 19.44 1.8 26.36-5.29 3.53-3.62 3.88-10.3 1.33-14.51-3.91-6.45-12.33-8.95-24.08-8.91-23.84 0-36.44 5.9-59.34 9.19-15.31 2.39-26.57 3.26-37.48-0.29-13.24-4.55-27.72-16.1-32.72-27.05-4.68-10.16 0.53-21.8 10.1-29.05 9.49-7.23 21.54-9.9 34.29-10.41 9.21-0.89 19.6-0.12 25.41 0.51 5.89-0.51 16.4-0.25 26.52 1.32 11.28 1.56 21.99 3.03 28.96 3.87 6.96 0.83 18.92 1.79 22.12-1.35 1.57-1.51-1.88-3.64-7.83-4.82-10-2.15-24.91-3.44-40.44-4.05l-22.93-0.72c-3.89-0.25-6.29-2.35-6.29-2.35l-22.09 0.24c-6.46 4.04-11.73 5.42-20.26 4.88-13-0.84-25.01-8.84-26.49-17.51-1.84-10.63 6.57-22.51 24.02-22.92 9.47-0.64 16.3 1.47 22.25 4.4l18.38-1.47c6.52-0.54 13.58 1.15 18.57 2.55l4.83-3.88 6.47-6.28 6.13-3.74 5.1 0.95 5.1 10.25 9.47 2.53c7.43 1.11 16-0.37 21.3-1.09l7.21-0.31 10.66 1.63c12.88 3.53 23.91 12.47 24.99 26.78 1.07 14.08-10.06 27.43-24.54 34.3-10.43 4.7-21.18 3.84-32.41 1.99-11.17-1.86-22.97-3.68-34.21-5.1l-2.19 0.88c7.13 0.64 15.29 2.12 23.74 3.36 14.48 1.62 36.63 2.63 50.5 10.36 11.17 6.52 20.65 15.11 22.35 31.12 1.7 16.71-8 34.15-24.09 42.11-10.81 5.3-25.5 5.15-37.84 2.47-11.9-2.43-24.47-8.6-34.25-12.28-6.01-2.42-10.72-3.49-16.41-3.61 1.41 10.31-4.6 19.78-15.44 25.74-8.87 4.99-15.5 5.55-24.99 5.14-15.23-0.62-31.84-9.62-31.84-25.62z" fill="#F57F63"/>
  <path d="m8.18 93.73c0.62-12.01 10.63-21.26 23.84-25.89 9.08-3.35 17.96-4.13 28.26-4.43 11.17-0.41 26.63 0.71 36.17 2.02 13 1.86 21.46 3.38 32.69 4.62 8.45 1.04 24.07 1.69 27.07-2.09 1.9-2.68-2.04-5.28-11.86-7.14-9.94-2.18-23.41-3.41-38.44-3.94l-31.04-0.87-22.61 0.24c-6 4.04-11.38 4.88-19.85 4.04-11.08-1.18-22.27-8.16-23.41-17.46-1.49-10.84 7.43-20.66 24.05-21.55 9.63-0.62 17.14 1.93 23.14 5.71l17.82-1.33c5.94-0.56 10.52 0.52 15.1 2.09l-0.62 0.44c-5.76 3.39-10.34 7.6-12.8 12.09l24.62 0.41 17.88 0.92c13.99 0.5 23.85 1.5 32.77 3.95 13.99 3.63 27.05 10.45 27.33 21.78 0.32 9.79-10.78 19.52-26.25 20.36-10.58 0.58-22.95-1.71-34.19-3.49-10.59-1.75-21.76-3.03-33.36-3.77l-2.45 2.08c10.86 0.69 22.38 2.49 34.57 4.35 16.57 2.34 35.55 4.32 48.91-1.21 13.29-5.75 23.6-17 24.26-28.75 0.62-11.8-10.55-26.73-24.49-29.3l-8.22-1.61-6.26 0.18c-7 1.57-14.58 2.08-22.16 0.51-2.46-0.62-9.42-1.91-10.93-5.89l-3-5.88-3.63-2.39-3.99 0.38-4.99 4.77-5 3.97-4.58 4.36c-6.52 1.25-13.51 6.98-16.84 14.16l-17.44-0.14-1.52-0.84-11.3 0.15-1.51 11.88 5 2.39 2.21 1.18c-6.97 3.98-11.99 4.02-20.46 3.11-11.08-1.18-20.51-7.74-21.66-16.68-1.7-4.56 2.51 0.86 2.37 4.08-0.27 6.51 8.62 12.52 16.1 13.74-7.44-0.98-16.46-6.16-19.41-13.83-3.37-9.1 4.1-21.3 19.62-23.29-14.33 2.52-20.63 10.49-19.93 21 0.72 9.35 11.15 16.29 22.06 17.13-8.87 0-19.8-7.17-21.7-15.93-1.98-9.65 6.29-20.69 21.09-22.61-12.7 1.3-22.2 9.42-21.82 20.36 0.37 10.18 10.44 17.34 20.74 18.18-9.65-0.5-19.07-8.09-20.09-16.31-1.45 5.75 3.87 13.67 13.59 16.31-8.56-1.84-13.51-9.56-14.29-15.13-1.11 6.69 6.03 14.74 16.46 15.37-9.73-0.35-16.69-9.4-16.79-16.87-0.88 6.74 5.99 14.33 15.4 16.63-9.19-1.07-14.78-9.64-15.1-15.58-1.18 4.72 2.8 12.44 12.09 15.58-8.52-2.11-12.27-9.73-12.98-14.59-1.34 7.8 5.92 14.59 15.21 15.81-7.56-1.22-13.56-7.74-14.54-14.56-0.87 5.25 4.22 12.18 12.96 13.34-8.13-1.07-12.01-8.09-12.89-12.34-0.94 3.35 2.06 9.44 9.35 12.34-6.39-1.84-8.7-7.57-9.42-12.12-0.86 4.2 2.4 9.6 8.16 12.12-6.22-1.84-7.42-6.56-8.24-10.73-0.88 3.79 1.06 8.34 6.22 10.73-4.16-1.04-5.46-5.09-6.02-8.27-0.54 2.84 0.91 6.28 4.8 8.27-3.07-1.16-4.22-4.04-4.43-6.86-0.66 2.03 0.41 5.17 3.48 6.86-2.94-1.04-3.72-4.04-3.95-6.32-0.56 1.95 0.23 4.48 2.91 6.32-2.93-1.28-3.36-4.04-3.61-6.03-0.59 1.95 0.35 4.51 2.81 6.03-2.18-0.93-2.9-3.33-3.09-5.04-0.45 1.82 0.43 3.88 2.55 5.04-2.06-0.9-2.55-3.14-2.7-4.62-0.56 1.64 0.15 3.55 2.11 4.62-2.34-1.04-2.21-4.09-2.21-5.43-1.18 1.95-0.1 4.19 2.21 5.43-2.24-1.16-2.41-4.04-2.41-5.04-0.72 1.86-0.49 3.6 2.41 5.04" fill="#00AA9F"/>
  <path d="m8.17 93.96c0.6-11.5 12.08-22.34 26.01-26.22 10.43-3.14 18.81-3.78 27.73-4.03 12-0.51 25.4 0.38 35.83 1.95 11.06 1.55 21.07 3.25 31.08 4.46 9.07 1.12 23.39 1.79 26.9-1.51 2.53-2.46-2-5.84-14.02-8.29-10.68-2.26-22.91-3.15-38.86-3.7l-26.41-0.84-24.12 0.23c-7.29 1.29-11.87 0.86-21.1-2.47 10.43 0.41 17.23-2.55 19.44-4.35l-1.24-2.89c4.58-1.57 4.29-5.98 4.29-8.99l3.51 0.29c0.72 5.66-2.21 10.61-5.62 12.56v3.1l20.88-0.35 0.39-12.88 17.15 0.41-0.29 13.5 16.39 0.29 0.14-13.13 18.13 1.06-3.62 12.41 16.86 1.39 3.2-12.05 19.09 4.3-7.47 10.6 3.05 1.51c4.42 2.53 4.13 7.79 1.6 9.64l12.07 7.46c5.54-3.7 6.8-8.38 5.54-15.49l-14.62 2.77-0.87-2.68 14.62-1.9c-4.87-7.01-12.42-10.03-20.11-11.99l-1.28-4.07 16.78 0.26c7.85 1.79 17.19 10.42 17.9 21.04-0.97 9.45-13.01 21.27-30.11 22.78-12.23 1.07-25.9-1.51-38.5-3.62-11.84-1.86-23.25-3.41-34.85-4.14-11.05-0.77-28.8-1.07-38.14 5.75-7.2 4.77-7.78 12.81-0.4 17.46 9.82 6.2 26.39 3.84 38.62 1.52 15.08-3 25.37-6.89 48.38-7 16.69-0.08 30.37 0.9 42.42 8.67 10.27 6.78 16.55 16.43 15.57 32.14-1.37 17.36-14.77 32.29-35.59 35.3-16.11 2.56-31.57-2.31-44.47-7.88-9.77-4.27-17.34-7.72-27.89-7.6l-1.9 0.28c2.35 9.09-3.55 19.09-16.05 24.59-9.13 4.27-16.3 4.5-25.32 3.58-14.82-1.57-27.89-11.11-27.37-23.98 0.38-9.6 5.53-15.53 12.12-19.99l-0.63-3.11c-6.86-4.03-15.29-34.39-14.84-46.15z" fill="#F4B84E" stroke="#A67636" stroke-miterlimit="10" stroke-width=".75"/>
  <path d="m19.41 88.63 15.07 1.38c1.7-4.86 4.23-8 8.81-10.45l-12.76-5.35c-5.85 3.66-9.79 8.72-11.12 14.42z" fill="#F4B84E" stroke="#95764E" stroke-miterlimit="10" stroke-width=".75"/>
  <path d="m19.91 92.08c-0.56 4.1-0.29 8.54 1.56 12.75l14.29-5.22c-2.11-5-0.95-11.97 6.43-16.39 3.89-2.43 9.64-4.13 16.16-4.71l-3.22-6.51-5.23-1.95c-12.34 1.57-27.78 8.08-29.99 22.03z" fill="#F4B84E" stroke="#95764E" stroke-miterlimit="10" stroke-width=".75"/>
  <path d="m20.91 105.1 13 11.9 9.47-10.07c-4.83-2.11-8.34-6.88-7.72-12.98l-15.38 5.76c-0.27 1.69 0 3.65 0.63 5.39z" fill="#F4B84E" stroke="#95764E" stroke-miterlimit="10" stroke-width=".75"/>
  <path d="m35.51 117.7c5.7 4.34 13.4 6.12 17.98 5.97l1.37-13.9c-7.38-0.88-14.96-3.22-17.64-9.68-3.04-7.62 1.54-16.11 15.09-19.34l-2.78-13.37c-13.69 1.57-28.97 9.75-32.12 23.74-2.68 11.6 4.95 20.68 18.1 26.58z" fill="#F2E7C3" stroke="#95764E" stroke-miterlimit="10" stroke-width=".75"/>
  <path d="m54.51 110.3-1.74 12.58c5.64 0.77 9.43 0 16.24-0.28l-0.55-12.8-13.95 0.5z" fill="#FF7865" stroke="#9B4338" stroke-miterlimit="10" stroke-width=".75"/>
  <path d="m68.83 110 0.62 12.6 14.21-1.57-1.63-13.13-13.2 2.1z" fill="#00BABA" stroke="#007F7B" stroke-miterlimit="10" stroke-width=".75"/>
  <path d="m96.51 105.1 3 12.51c5.27-0.98 8.88-1.57 14.36-1.99l-1.95-13.12-15.41 2.6z" fill="#FF7865" stroke="#9B4338" stroke-miterlimit="10" stroke-width=".75"/>
  <path d="m112.5 102.3 1.74 12.99c5.38-0.88 10.1-1.39 14.54-1.64l-0.98-12.97-15.3 1.62z" fill="#00BABA" stroke="#007F7B" stroke-miterlimit="10" stroke-width=".75"/>
  <path d="m136.2 100.7 7.33 0.31-1.79 12.91c-5-0.61-10.74-0.43-13.14-0.25l-0.45-13.12 8.05 0.15z" fill="#F4B84E" stroke="#95764E" stroke-miterlimit="10" stroke-width=".75"/>
  <path d="m145 101.2 10.07 0.84-2.41 13.63c-4.53-1.31-6.9-1.76-10.41-1.96l2.75-12.51z" fill="#F2E7C3" stroke="#95764E" stroke-miterlimit="10" stroke-width=".75"/>
  <path d="m160.8 104.7 12.9 7.82-10.36 8.42c-4.15-3.89-7.51-4.71-10.55-5.43l5.23-12.71 2.78 1.9z" fill="#F4B84E" stroke="#95764E" stroke-miterlimit="10" stroke-width=".75"/>
  <path d="m174.6 112.9 8.86 13.13-15.27 3.89c-1.07-4.95-3.12-7.32-4.69-9.22l11.1-7.8z" fill="#00BABA" stroke="#007F7B" stroke-miterlimit="10" stroke-width=".75"/>
  <path d="m183.9 128.4c1.27 5.61 0.77 11.43-0.26 15.91l-14.97-3.68c1.08-4.86 0-9.32-0.87-11.55l15.84-3.04 0.26 2.36z" fill="#F2E7C3" stroke="#95764E" stroke-miterlimit="10" stroke-width=".75"/>
  <path d="m180 149c1.24-2.38 2.75-5.08 3.37-6.78l-15.13-2.68-4.94 10.08 10.47 9.01c2.59-2.31 4.39-5.04 6.23-9.63z" fill="#FF7865" stroke="#9B4338" stroke-miterlimit="10" stroke-width=".75"/>
  <path d="m162.2 150.1 11.6 8.7c-5.8 6.1-10.2 7.8-16.15 9.65l-5.64-13.25c4.44-1.3 8.01-3.4 10.19-5.1z" fill="#00BABA" stroke="#007F7B" stroke-miterlimit="10" stroke-width=".75"/>
  <path d="m138.3 155.7 0.21 13.4c7.96 0.89 13.38-0.4 18.48-1.69l-5.26-12.32c-4.09 0.88-8.68 0.95-13.43 0.61z" fill="#F4B84E" stroke="#95764E" stroke-miterlimit="10" stroke-width=".75"/>
  <path d="m124.9 152.5-5.38 12.32c6.14 2.24 10.58 3.64 18.16 4.11l0.65-13.52c-4.42-0.22-9.35-1.5-13.43-2.91z" fill="#FF7865" stroke="#9B4338" stroke-miterlimit="10" stroke-width=".75"/>
  <path d="m108.1 146.2-5.75 11.56c6.25 2.34 10.69 4.13 16.39 5.88l5.16-11.98-15.8-5.46z" fill="#00BABA" stroke="#007F7B" stroke-miterlimit="10" stroke-width=".75"/>
  <path d="m89.81 141.4-2.59 12.91c5.26 0.62 8.94 1.74 14.48 3.69l5.69-12.3c-5.28-1.96-10.38-3.42-17.58-4.3z" fill="#F4B84E" stroke="#95764E" stroke-miterlimit="10" stroke-width=".75"/>
  <path d="m68.77 142.1 5.9 12.36c4.39-0.69 7.24-0.69 11.88-0.18l2.3-12.91c-6.47-0.89-12.66-1-20.08 0.73z" fill="#FF7865" stroke="#9B4338" stroke-miterlimit="10" stroke-width=".75"/>
  <path d="m146.9 72.74 1.41 11.97c9.13 0.8 15.93-1.78 21.02-6.79l-12.1-7.38c-2.3 1.74-5.49 2.2-10.33 2.2z" fill="#F4B84E" stroke="#95764E" stroke-miterlimit="10" stroke-width=".75"/>
  <path d="m49.86 67.13 5 10.68 15.16-1.11 0.15-11.27c-8.16-0.25-14.68 0.48-20.31 1.7z" fill="#FF7865" stroke="#9B4338" stroke-miterlimit="10" stroke-width=".75"/>
  <path d="m84.42 65.72-0.61 12.2-0.72 1.57 17.53 0.95 0.82-13.31-17.02-1.41z" fill="#F4B84E" stroke="#95764E" stroke-miterlimit="10" stroke-width=".75"/>
  <path d="m117.4 69.76-3.07 12.11 15.99 1.89 2.21-11.7-15.13-2.3z" fill="#00BABA" stroke="#007F7B" stroke-miterlimit="10" stroke-width=".75"/>
  <path d="m72.75 40.28-0.56 12.23h17.45l0.08-12.19-16.97-0.04z" fill="#FF7865" stroke="#9B4338" stroke-miterlimit="10" stroke-width=".75"/>
  <path d="m106 41.01-0.29 12.72 15.02 0.84 2.16-12.76-16.89-0.8z" fill="#F2E7C3" stroke="#95764E" stroke-miterlimit="10" stroke-width=".75"/>
  <path d="m140.9 44.06-2.94 11.95c5.54 1.08 10.86 2.43 13.86 3.81l8.1-11.19-19.02-4.57z" fill="#00BABA" stroke="#007F7B" stroke-miterlimit="10" stroke-width=".75"/>
  <path d="m90.96 26.69c1.13-2.58 2.7-6.68 6.32-6.68 4.05 0 5.67 3.9 6.74 9.16 0.56 2.99-0.32 4.39-5.51 4.77-5.1 0.37-10.02-0.72-8.6-4.53l1.05-2.72z" fill="#F5705A" stroke="#9B4338" stroke-miterlimit="10" stroke-width=".75"/>
  <path d="m102.2 16.71c1.7-3.07 3.27-4.58 6.47-4.43 3.79 0 5.13 2.85 7.03 6.73 1.6 3.6 2.14 6.24 2.01 11.3l-14.1 0.95-2.45-10.97 1.04-3.58z" fill="#F5705A" stroke="#9B4338" stroke-miterlimit="10" stroke-width=".75"/>
  <path d="m101.8 18.72c2 0 3.13-1.51 4.4-1.51 1.57 0 0.98 2.2 2.83 2.2 1.41 0 1.7-1.73 3.27-1.73s2.01 1.36 3.43 1.18l-1.27-3.21-3.35-3.12-4.06-0.21-3.41 2.87-1.84 3.53z" fill="#F2E7C3"/>
  <path d="m118.7 24.91c1.13-2.74 2.26-4.85 5.56-4.85s4.36 3.15 5.49 5.95l1.07 4.45c0.44 2.45-1.41 4.31-5.4 4.46-4.38 0.19-6.59-0.41-7.47-2.57-0.63-1.64-0.63-4.24 0.75-7.44z" fill="#00BABA" stroke="#007F7B" stroke-miterlimit="10" stroke-width=".75"/>
  <path d="m119.1 25.18c1.07 0.38 1.95 0.67 2.96 0.67 1.46 0 2.02-1.9 3.21-1.9 0.94 0 1.66 1.06 2.61 1.06 0.62 0 1.05-0.3 1.37-0.65l-1.62-3.25-2.82-1.45-3.41 0.55-2.69 2.93-0.63 1.77c0.21 0.05 0.53 0.15 1.02 0.27z" fill="#F2E7C3"/>
  <path d="m110.2 30.31c0.95-3.24 2.89-4.3 5.35-4.3 3.36 0 4.7 3.16 5.58 8.25 0.43 2.68 0 3.51-3.89 3.8-4.95 0.37-8.42-0.51-8.21-2.3l1.17-5.45z" fill="#00BABA" stroke="#007F7B" stroke-miterlimit="10" stroke-width=".75"/>
  <path d="m132.2 43.57c3.25 0 3.75-2.81 3.56-4.76-0.29-2.58-2.13-3.98-4.08-3.98-2.99 0-4.15 2.48-4.15 4.05 0 2.45 1.7 4.69 4.67 4.69z" fill="#F2E7C3" stroke="#C4B79E" stroke-miterlimit="10" stroke-width=".75"/>
  <path d="m145.5 27.07h2.21v0.85h1.84v-0.85h2.21v16.67h-6.01l-0.25-16.67z" fill="#F5705A" stroke="#9B4338" stroke-miterlimit="10" stroke-width=".75"/>
  <path d="m154.8 22.49h2.45v-1.57h1.9v0.88h2.15v-1.18h1.9v1.03h1.74v-1.03h2.05v10.64h-1.84v-1.52h-2.1v1.57h-2.46v-1.57h-2.45v1.37h-3.05l-0.29-8.62z" fill="#F4B84E" stroke="#95764E" stroke-miterlimit="10" stroke-width=".75"/>
  <path d="m170.1 28.34h2.35v0.77h3.35v2l0.15 12.24-5.85 0.16v-15.17z" fill="#F5705A" stroke="#9B4338" stroke-miterlimit="10" stroke-width=".75"/>
  <path d="m155.2 27.07v7.12h11.48v-6.98l-1.84-0.14v1.47h-2.16v-1.33h-2.45v1.33h-2.15v-1.47h-2.88z" fill="#F4B84E" stroke="#95764E" stroke-miterlimit="10" stroke-width=".75"/>
  <path d="m156.1 12.41 5.54-9.41 4.83 9.41v3.61l-10.37-0.37v-3.24z" fill="#F5705A" stroke="#9B4338" stroke-miterlimit="10" stroke-width=".75"/>
  <path d="m156.4 14.69h9.59v6.42h-1.57v-1.1h-1.57v0.61h-2.16v-0.61h-1.7v0.61h-2.59v-5.93z" fill="#F4B84E" stroke="#95764E" stroke-miterlimit="10" stroke-width=".75"/>
  <path d="m160.4 15.87h2.21v4.14h-2.21v-4.14z" fill="#9B4338" stroke="#9B4338" stroke-miterlimit="10" stroke-width=".75"/>
  <path d="m148.6 22.76v5.31" stroke="#95764E" stroke-miterlimit="10" stroke-width="1.5"/>
  <path d="m173.1 22.76v4.93" stroke="#95764E" stroke-miterlimit="10" stroke-width="1.5"/>
  <path d="m148.6 21.38c4.39 0 6.38-3.27 6.38-5.85 0-3.79-2.68-6.09-6.28-6.09-3.79 0-5.89 3.23-5.89 5.81 0 3.79 2.82 6.13 5.79 6.13z" fill="#F4684E" stroke="#9B4338" stroke-miterlimit="10" stroke-width=".75"/>
  <path d="m148.8 20.01c2.52 0 4-2.1 4-4.2 0-2.58-2.02-4.27-4.16-4.27-2.3 0-3.54 2.1-3.54 3.85 0 1.74 1.24 3.14 3.18 3.14 1.42 0 2.22-1.32 2.22-2.3 0-1.15-0.78-1.82-1.66-1.82-0.84 0-1.43 0.67-1.43 1.29 0 0.43 0.26 0.9 0.87 0.9" stroke="#95764E" stroke-miterlimit="10" stroke-width=".75"/>
  <path d="m148.2 31.11h1.74v4.1h-1.74v-4.1z" fill="#9B4338" stroke="#9B4338" stroke-miterlimit="10" stroke-width=".75"/>
  <path d="m171.9 33h2.45v3.63h-2.45v-3.63z" fill="#9B4338" stroke="#9B4338" stroke-miterlimit="10" stroke-width=".75"/>
  <path d="m158.3 35.91h5.8v7.83h-5.8v-7.83z" fill="#A85851" stroke="#A85851" stroke-miterlimit="10" stroke-width=".75"/>
  <path d="m138.8 37.47c0-3.33 0.88-5.75 3.33-5.6 2.26 0.05 2.98 1.84 3.13 5.07-2.11 1.28-3.52 1.28-6.46 0.53z" fill="#00BABA" stroke="#007F7B" stroke-miterlimit="10" stroke-width=".75"/>
  <path d="m176.3 41.81c2.75-1.7 8.37 0.98 8.93 5.25 0.49 3.15-2.37 2.83-3.94 2.58-3.48-0.73-5.59-2.46-5.81-3.83-0.39-1.9 0.04-3.41 0.82-4z" fill="#00BABA" stroke="#007F7B" stroke-miterlimit="10" stroke-width=".75"/>
  <path d="m13.09 113.9c2.25-2.74 8.24-1.17 9.31 5.69 0.43 3.14-0.45 3.79-5.09 4.05-4.15 0.2-7-1.05-6.7-4.05 0.28-3.15 1.34-4.59 2.48-5.69z" fill="#F5705A" stroke="#007F7B" stroke-miterlimit="10" stroke-width=".75"/>
  <path d="m6.54 118.6c2.18-0.55 3.48 2.03 3.48 5.05 0 1.47-1.9 1.51-3.41 1.51-1.95 0-3.08-0.44-2.79-2.23 0.43-2.68 1.31-4.03 2.72-4.33z" fill="#00BABA" stroke="#007F7B" stroke-miterlimit="10" stroke-width=".75"/>
  <path d="m90.51 170.3c3.41-1.57 8.67 1.01 8.67 5.93l-1.95 6.21h-3.89c-4.15 0-6.73-1.04-6.3-3.68 0.56-3.62 1.63-6.39 3.47-8.46z" fill="#00BABA" stroke="#9B4338" stroke-miterlimit="10" stroke-width=".75"/>
  <path d="m100.6 173.8c2.38-58.19 15.28-52.5 23.99-52.18 5.19 0.2 12.78 0.2 20.02 3.27 7.2 3.05 14.16 4.23 14.38 10.12 0.33 8.2-6.99 14.3-16.71 13.32-9.68-0.98-25.36-5.97-32.16-9.26-2.01 8.03 9.46 9.83 16.55 11.13 10.43 3.48 23.02 4.96 30.67 0.5 7.63-4.45 9.8-10.3 8.29-18.42-2.4-11.08-12.84-14.55-29.53-15.73-17.43-1.25-32.41 2.53-43.63 4.15-15.47 3.23-27.7 5.18-40.04 3.7-13.25-1.61-29.44-10.19-32.12-23.39-2.88-13.6 5.7-26.32 17.39-33.81l-0.5 0.08c-12.1 7.02-21.88 15.37-20.71 28.96 1.42 15.64 14.92 27.61 33.1 29.36 17.15 1.73 38.24-2.67 46.2-4.24 11.27-2.65 21.47-4.36 32.21-4.9 14.82-0.61 30.53 1.34 37.19 10.54 5.05 6.93 3.7 19.1-5.42 25.9-8.92 6.82-21.54 4.52-26.63 3.15-12.39-2.56-21.35-9.03-37.15-10.93" stroke="#A67636" stroke-miterlimit="10" stroke-width=".75"/>
  <path d="m174.9 23.8c4.14-0.38 5.31-4.42 5.09-6.48-0.43-3.39-3.25-5.19-5.7-4.91-3.79 0.43-5.2 4-4.84 6.31 0.69 3.5 3.34 5.3 5.45 5.08z" fill="#F57865" stroke="#9B4338" stroke-miterlimit="10" stroke-width=".75"/>
  <path d="m174.3 21.65c2.53-0.04 3.53-2.27 3.48-4.02-0.11-2.22-1.96-3.42-3.46-3.17-2 0.32-2.91 2.25-2.6 3.76 0.43 1.96 1.7 3.43 2.58 3.43z" stroke="#95764E" stroke-miterlimit="10" stroke-width=".75"/>
  <path d="m100.3 173.8c2.35 0 4.14 3.58 4.14 6.81 0 1.67-1.89 1.89-3.79 1.89-2.21 0-3.78-0.79-3.93-1.59-0.29-2.28 1.33-7.11 3.58-7.11z" fill="#F5675E" fill-opacity=".94" stroke="#9B4338" stroke-miterlimit="10" stroke-width=".75"/>
  <path d="m126.7 43.83 1.31-2.02 5.42 0.94 2.68 5.38c-1.07 4.89-5.65 4.59-7.9 3.27-3.51-1.95-2.99-6.29-1.51-7.57z" fill="#009482" stroke="#814A41" stroke-miterlimit="10" stroke-width=".75"/>
  <path d="m158.9 97.72 1.74-0.69 4.58-0.92c1.85 0.95 2.28 3.84 1.34 5.59l-2.46 2.46-4.9-1.4c-1.74-1.85-2.04-3.75-0.3-5.04z" fill="#00BABA" stroke="#007F7B" stroke-miterlimit="10" stroke-width=".75"/>
  <path d="m158.1 107c1.13-2.58 2.26-3.32 5.11-1.96 2.85 1.37 3.98 4.94 4.54 8.73 0 2.34-3.24 3.39-6.24 2.41-3.3-1.14-5.3-3.73-3.41-9.18z" fill="#A85851" stroke="#95764E" stroke-miterlimit="10" stroke-width=".75"/>
  <path d="m159 98.72c1.22-1.89 2.4-4.31 5.45-3.66 1.38 0.52 2.79 3.54 1.72 4.38-1.12 0.94-2.04 3.5-4.4 3.07-2.72-0.98-4.15-1.82-2.77-3.79z" fill="#00BABA" stroke="#007F7B" stroke-miterlimit="10" stroke-width=".75"/>
  <path d="m37.36 151.5 3.63-16.31c1.22-0.05 2.1 0.92 3.23 2.22l3.09 11.67c0 1.56-0.61 2.4-2.4 3.02l-7.55-0.6z" fill="#00BABA" stroke="#007F7B" stroke-miterlimit="10" stroke-width=".75"/>
  <path d="m9.07 66.09 2.45 1.45 4.76 18.66-1.56 1.86-5.8-17.52-2.79 2.7-1.12-0.15 0.05-4.78 2.13-2.4 1.88 0.18z" fill="#F2E0D3" stroke="#CC6250" stroke-miterlimit="10" stroke-width=".75"/>
  <path d="m10.81 66.01 3.61 9.93 1.35 5.12 0.32 4.14-1.36 2.94-2.86-10.94 0.14-5.64-1.07-4.27-0.72-1.48 1.94-0.77 1.64 0.97v-1.95l1.27-3.05 2.46-2.1 3.37-0.8 3.19 3.33-0.16 19.36-2.82 1.71 0.95-20.31-2.62-2.58-1.9-0.81-1.34 0.45-0.95 2.26v3.59l-2.09 0.61-1.64-2.35-0.71 2.64z" fill="#F5705A" stroke="#9B4338" stroke-miterlimit="10" stroke-width=".75"/>
  <path d="m54.12 15.06 0.73-3.71 2.3-0.25 2.16 1.67 0.16 17.34-1.74 0.87-0.88-17.85-1.66-1-1.28 4.16-1.41-0.6 0.25-2.17 1.57-2.5 2.45 0.52 1.63 1.06-0.38 3.1" fill="#FFD9BA" stroke="#9B4338" stroke-miterlimit="10" stroke-width=".75"/>
  <path d="m61.77 20.29 0.94-0.28 2.68 0.61h1.02l-0.32 15.4-1.04 0.45-0.94-13.73-1.48 3.57-2.21 0.75-0.36-3.92 0.66-2.1 1.36-0.12 2.3-0.11-0.23 4.25" fill="#FFD9BA" stroke="#9B4338" stroke-width=".75" stroke-m1iterlimit="10"/>
  <path d="m73.19 10.66 2.38-0.25 1.85 1.72 0.49 3.46-1.74 0.56-1.84-4.09-1.52 0.07 0.88 19.59-2.07 0.44-0.88-19.35 2.03-2.65 2.11-1.14 2.12 1.46 0.82 3.71-2.25 0.87-1.65-2.04" fill="#FFD9BA" stroke="#9B4338" stroke-miterlimit="10" stroke-width=".75"/>
  <path d="m72.18 70.05 2.66 1.06 1.2 1.98-0.59 2.64-1.51 0.18-2.72-4.1-2.55 3-1.13 7.85v8.95" stroke="#95764E" stroke-linecap="round" stroke-miterlimit="10" stroke-width=".75"/>
  <path d="m99.51 79.09 2.03-0.07 1.9 4.33-2.71 0.34-3.82-1.18-1.05 3.49v11.27" stroke="#95764E" stroke-linecap="round" stroke-miterlimit="10" stroke-width=".75"/>
  <path d="m37.91 66.15 1.07-4.34c0.75-1.75 2.23-2.24 4.27-1.69 2 0.55 3.94 1.43 4.5 4.79l-0.72 8.39c-0.58 4.78-10.51 4.83-8.81-0.22l-0.31-6.93z" fill="#B7853C" stroke="#9B4338" stroke-miterlimit="10" stroke-width=".75"/>
  <path d="m38.07 69.11c1.71-1.74 2.66-2.17 4.23-2.23 2.35-0.16 5.99 1.41 6.54 6.35-1.66 4.15-12.75 3.82-10.77-0.07v-4.05z" fill="#009898" stroke="#007171" stroke-miterlimit="10" stroke-width=".75"/>
  <path d="m125.8 120.6c1.24-4.35 5.34-5.03 8.98-0.4 4.52 5.95 5.32 11.75-7.58 19.93l-2.75-2.48-1.38-12.31 2.73-5.19 2.45 2.57-1.2-1.69" fill="#00B7B3" stroke="#007F7B" stroke-miterlimit="10" stroke-width=".75"/>
  <path d="m148.8 130.5c1.9-7.1 4.52-6.85 7.35-3.28 1.48 3.88 2.36 10.08-0.57 10.96l-3.89 0.15-5.42-2.27 0.03-3.96 3.57-5.39" fill="#009898" stroke="#007171" stroke-miterlimit="10" stroke-width=".75"/>
  <path d="m115.1 127.1c4.9-1.18 10.3 10.46 9.32 12.4-1.28 2.68-11.32 2.25-11.88 0-1.95-0.38 0.7-11.47 2.49-12.31" fill="#F37863" stroke="#956557" stroke-miterlimit="10" stroke-width=".75"/>
  <path d="m135.5 143.2c-2.51-3.92 1.6-14.6 7.6-16.11 5.99-0.98 9.61 10.61 8.54 16.95-0.84 2.97-11.85 2.03-16.29-0.24" fill="#F56953" stroke="#9B4338" stroke-linecap="round" stroke-miterlimit="10" stroke-width=".75"/>
  <path d="m140.7 130c-0.2-0.72 0.93-0.87 4.95-3.26 0.43 0.62 5.19 2.89 11.08 2.36-1.62-2.99-5.49-4.89-7.95-1.73l-3.75-0.07c-3.5-1.97-6.9 3.11-9.65 9.57 0.28-2.11 1.55-9.16 2.44-9.56-1.84-5.34-4.29-11.24-7.29-12.08-2.26 1.93-5.3 4.19-4.68 5.93" fill="#F2E6C1" stroke="#957961" stroke-linecap="round" stroke-width=".75"/>
  <circle cx="145.4" cy="132.7" r="1.576" fill="#F2BE84" fill-opacity=".7" stroke="#F2E6C1" stroke-linecap="round" stroke-width=".3769"/>
  <path d="m41.08 60.38 3.54-0.86 1.79 2.49 0.87 2.46-0.95 0.93-5.54 1.73-3.57-0.85 0.21-4.27c1.16-2.35 2.28-2.2 2.94-3.28l7.82 5.94" fill="#8F4842" stroke="#602974" stroke-linecap="8.21536" stroke-width="1.643"/>
  &quot; stroke-linejoin=&quot;round&quot;/&gt;
  <path d="m184.1 82.36c2.25-2.75 6.4-3.18 9.12 6.2" fill="#00C2B7" stroke="#007561" stroke-width=".75"/>
  &quot; stroke-linecap=&quot;16.0291&quot; stroke-line67&quot; stroke-line72&quot; stroke-line83&quot; stroke-width3.18761&quot; stroke-line63&quot; stroke-line93&quot; stroke-line67&quot;/&gt;
  <path d="33.38,49.49 C 39.59,48.55 47.79,47.08 51.38,48.06 L 53.03,42.66 L53.47,37.13 L58.15,37.56 L55.37,46.81 51.48,51.35 37.51,56.19 L30.66,57.55 15.25,52.71 9.81,47.36 10.69,29.82 21.18,24.55 L38.62,22.08 L47.58,24.53 L54.55,27.09 L56.39,36.74 L55.83,37.35 L54.96,36.46 L53.12,36.47 47.61,28.01 L42.86,23.33 L37.93,21.46 L22.42,23.25 L13.12,27.12 L11.5,34.72 12.38,43.29 13.45,46.41 L23.86,50.42 L33.65,49.57" stroke="#04918B" stroke-width="1.382"/>
  &quot; stroke-m159&quot; stroke-line151&quot; stroke-width12.899&quot; stroke-line177&quot; stroke-line177&quot; stroke-line33&quot; stroke-width181&quot; stroke-line33&quot; fill37&quot; stroke-line27&quot; stroke-line42&quot; stroke-width36&quot; stroke93&quot; stroke-line65&quot; stroke-width95&quot; stroke-line67&quot; stroke-line108&quot; fill77&quot; stroke109&quot; stroke-width118&quot; stroke-line133&quot; stroke-width137&quot; stroke-line142&quot; stroke-width139&quot; fill140&quot;/&gt;
  <path d="17.56,71.42 L 15.56,70.09 L 13.86,69.03" stroke="#F49C82" stroke-linecap="6" stroke-width=".5"/>
  &quot; stroke-width3&quot; stroke-line188&quot; stroke-line189&quot; fill=&quot;none&quot; stroke-width=&quot;3&quot; stroke-m88&quot;/&gt;
  <path d="m13.28 76.35 1.13 1.27" fill="none" stroke="#F29569" stroke-linecap="6" stroke-linejoin="round" stroke-width="0"/>
  <path d="m12.21 72.93 0.95 3.58" fill="none" stroke="#F89255" stroke-linecap="3" stroke-linejoin="3" stroke-width="3"/>
</svg>