<svg xmlns="http://www.w3.org/2000/svg" width="200" height="200" fill="none" viewBox="0 0 200 200">
<!-- SVG created with Arrow, by QuiverAI (https://quiver.ai) -->
  <path d="m194.5 197h-187.9c-0.49-1.93 3.57-5.98 14.9-9.39 14.48-4.5 29.28-10.79 66.31-11.17 38.01-0.39 50.79 0.27 82.1 9.29 14.17 3.18 22.89 7.72 24.6 11.27z" fill="#000405" opacity=".15"/>
  <path d="m5.66 196.6h188.2c0.49-1.88-4.58-6.92-15.91-10.24-14.48-4.35-27.52-9.54-64.55-9.92-38.01-0.38-50.78 0.68-82.1 9.39-14.17 3.08-23.9 7.52-25.61 10.77z" fill="#6EA97B"/>
  <path d="m107.9 175.5-2.3-64.18c0.39-10.83 3.16-15.33 13.49-21.69 8.8 0.04 19.93 0.64 29.18 0.39 7.86-0.23 11.64-2.83 12.74-3.36 3.56 1.11 5.19 5.63 7.45 6.45 3.17 1.21 6.63-0.49 7.3-1.22-1.26-4.8-5.7-7.35-8.66-7.95 5.1 0.53 9.76-3.65 12.19-8.29-2.5-1.54-6.65-1.82-9.36-1.26-4.96 1.05-6.54 5.41-8.09 8.17-6.25 2.65-13.01 3.26-27.15 1.59 6.4-1.59 10.01-5.36 9.74-6.99-0.17-0.98-1.56-0.72-2.16 0.13-4.05 4.17-10.53 5.69-24.33 7.42-4.95 1.1-10.23 4.26-12.31 6.53 2.4-10.15 8.34-19.59 21.17-25.5 8.86-4.23 17.86-7.52 30.26-9.6 3.33-0.56 4.38-1.09 5.17-2.82 0.53-1.18-1.12-2.03-2.17-1.11-1.99 1.83-8.97 2.63-21.17 3.74 8.44-6.34 12-12.05 13.35-17.86 0.4-1.76-1.93-2.25-2.34-0.9-2.01 6.74-5.86 12.09-13.04 17.15-1.29-1.04-0.13-5.3 2.08-8.02 0.76-0.8-1.15-2.05-2.14-0.94-2.31 2.72-3.25 8.09-4.74 10.91-6.22 4.5-20.75 5.19-29 20.06 0.63-6.15 4.14-11.68 8.77-18.16 4.17-5.78 5.26-11.14 5.97-17.13 3.92-0.35 6.86-2.55 8.68-6.12 0.86-1.82-0.64-2.85-1.26-1.58-1.78 3.86-4.35 5.24-6.88 5.91 0.73-3.28 0.96-5.52 0.86-7.73-0.13-1.6-2.21-1.92-2.49-0.2-1.22 6.85-3.48 12.8-6.95 19.05-2.3-5.84-6.06-8.6-8.17-12.27-1.54-2.95-2.64-6-3.31-8.91-0.42-1.87-2.65-2-2.57-0.1 0.13 5.03 1.79 8.98 5.5 14.1 3.21 4.53 4.68 10.94-0.05 17.64-4.39 6.62-5.34 12.7-5.94 20.39-3.18-6.6-9.23-11.2-15.13-15.5-3.7-2.82-4.29-9.1-0.34-12.94 3.24-3.15 6.5-4.65 7.06-10 0.18-1.57-1.61-1.7-2.06-0.42-1.64 4.53-4.15 4.7-8.48 8.94-2.64 2.62-3.37 6.8-3.37 7.91-1.12-1.89-2.7-4.19-4.48-6.75-0.6-2.27-0.26-9.58-8-19.25-0.98-1.04-2.09 0-1.58 1.54 1.98 5.6 4.28 11.3 4.9 13.4-1.37-0.91-3.99-4.79-10.84-4.96-0.89-0.04-1.13 0.56-0.6 1.57 2.33 4.3 4.66 5.51 10.89 4.73 0.98 1.1 2.7 4.91 3.91 9.5-1.96 1.11-4.87 1.39-6.41 1.18-2.5-0.34-3.3-3.05-6.2-9.5-0.92-2.2-2.87-1.05-2.34 0.43 1.54 4.64 3.41 8.33 3.94 10 0.63 2.14 1.25 5.98 3.21 8.74-5.26 0.53-13.8-0.79-24.67-4.01-1.48-0.46-2.36 1.71-0.84 2.55 2.33 1.26 5.1 2.32 6.4 2.88-2.53 1.85-5.93 3.17-8.77 2.86-1.5-0.17-1.43 1.46-0.07 1.68 5.07 0.72 8.28-0.73 11.74-2.27 4.96 0.13 15.08 2.44 26.66 3.8-2.43 1.17-6.92 3.31-12.11 5.77-1.68 0.82-0.69 2.48 0.8 1.92 4.75-1.89 7.35-3.74 13.24-4.19 10.03-0.5 16.65 8.14 17.35 25.62 0.7 9.44-0.49 20.27-0.29 33l-0.95 35.97 20.11 0.06z" fill="#000405" opacity=".15"/>
  <path d="m119.9 28.07c3.24-7.71 7.48-11.06 22.09-9.74-2.95 7.72-8.45 11.34-15.65 10.62-2.95-0.2-4.35-0.54-6.44-0.88z" fill="#F3B85A"/>
  <path d="m150.9 18.21c-5.45 5.81-3.72 11.9 0.54 17.68 4.26-4.8 4.86-10.95-0.54-17.68z" fill="#69B8AC"/>
  <path d="m153.4 36.15c1.84-6.42 6-10.01 13.21-9.74-0.1 3.98-3.9 10.08-9.85 10.22-1.5 0.06-2.44-0.07-3.36-0.48z" fill="#F3B85A"/>
  <path d="m161.9 51.2c3.6-8.53 7.93-11.95 21.47-9.29-4.01 8.01-8.32 11.36-15.38 10.48-2.12-0.28-4.05-0.69-6.09-1.19z" fill="#F47A63"/>
  <path d="m163.5 52.92c1.71 0.49 3.62 0.93 6.5-0.06 4.61-1.6 8.87 2.35 11.4 6.74-4.72 2.46-13.07 2.6-16.24-3.12-0.83-1.5-1.53-2.77-1.66-3.56z" fill="#409B96"/>
  <path d="m127.6 34.89c5.46 0.07 8.45 3.76 8.78 9.78-4.43-0.56-8.8-4.01-9.19-8.85-0.08-0.63 0.05-0.91 0.41-0.93z" fill="#409B96"/>
  <path d="m142 27.71c5.12 5.3 2.62 12.58-3.86 15.86-3.46-6.59-2.4-11.19 3.86-15.86z" fill="#F3B85A"/>
  <path d="m118.5 5.61c7.18 7.31 6.39 15-1.51 22.46-6.39-6.86-6.74-14.97 1.51-22.46z" fill="#409B96"/>
  <path d="m132.4 7.04c1.59 4.99-2.08 9.16-6.96 10.67-1.19-5.05 1.02-9.25 6.96-10.67z" fill="#F0685B"/>
  <path d="m106.7 2.42c4.59 8.65 1.13 18.7-10.78 21.99-2.21-7.65-2.08-14.31 5.31-19.34 1.69-1.21 3.62-2.18 5.47-2.65z" fill="#F3B85A"/>
  <path d="m85.49 5.03c-4.53 9.58 1.52 16.82 8.34 20.8 4.43-9.21 1.28-15.55-5.04-19.42-1.08-0.66-2.5-1.26-3.3-1.38z" fill="#69B85A"/>
  <path d="m85.49 5.03c-4.53 9.58 1.52 16.82 8.34 20.8 4.43-9.21 1.28-15.55-5.04-19.42-1.08-0.66-2.5-1.26-3.3-1.38z" fill="#69B85A"/>
  <path d="m70.42 11.73c6.48-0.72 11.2 2.23 13.73 7.97-2.6 1.11-7.14 1.21-9.84-0.86-2.26-1.73-3.45-4.03-3.89-7.11z" fill="#F5846F"/>
  <path d="m75.42 24.74c6.69-1.83 12.63-0.59 18.75 3.67-3.56 2.07-7.36 3.61-10.26 2.92-4.33-1.11-6.79-3.67-8.49-6.59z" fill="#F0685B"/>
  <path d="m97.19 29.91c2.53-6.19 6.23-7.85 14.7-7.25-1.97 6.49-6.13 9.5-13.12 8.43-1.02-0.17-1.81-0.51-1.58-1.18z" fill="#409B96"/>
  <path d="m94.38 29.12c-1.1 7.39-3.36 10.01-9.19 10.15-1.06-5.46 2.07-9.19 9.19-10.15z" fill="#F3B85A"/>
  <path d="m69.29 16.32c3.96 6.73 0.75 13.86-8.22 18.39-2.33-7.1-0.25-14.68 8.22-18.39z" fill="#F5846F"/>
  <path d="m43.18 11.73c8.97 0.33 14.17 6.11 13.83 18.45-9.67-1.97-14.39-6.33-13.83-18.45z" fill="#69B85A"/>
  <path d="m43.18 11.73c8.97 0.33 14.17 6.11 13.83 18.45-9.67-1.97-14.39-6.33-13.83-18.45z" fill="#69B85A"/>
  <path d="m28.45 19.95c6.57-2.59 12.79-1.17 15.96 4.99-4.26 3.11-12.06 2.14-15.96-4.99z" fill="#F3B85A"/>
  <path d="m34.56 33.01c7.36-5.93 15.48-5.79 21.85 0.93-3.3 4.8-12 7.76-20.25 0.9-0.9-0.83-1.53-1.48-1.6-1.83z" fill="#F0685B"/>
  <path d="m75.44 35.82c-7.32 0.47-9.6 5.07-10.54 10.64 4.16 0.66 9.21-1.67 10.61-9.45 0.18-0.67 0.23-1.12-0.07-1.19z" fill="#409B96"/>
  <path d="m51.13 41.31c4.66-0.6 7.83 1.7 9.53 6-5.22 1.5-8.01-1.15-9.86-4.99-0.46-0.69-0.32-0.96 0.33-1.01z" fill="#69B85A"/>
  <path d="m41.01 40.51c-3.4 7 0.4 13.58 7.86 15.34 3.04-7.13-0.17-12.56-6.65-15.12l-1.21-0.22z" fill="#409B96"/>
  <path d="m17.74 46.71c9.47 1 14.43 7.35 12.97 18.7-8.25-1.86-14.58-7.43-12.97-18.19v-0.51z" fill="#409B96"/>
  <path d="m5.33 63.56c5.68-5.78 12.74-6.18 21.54 0.34 1.05 0.91 1.58 1.81 1.58 2.28-5.06 4.43-14.03 5.51-20.19-0.64-1.19-1.18-2.33-1.98-2.93-1.98z" fill="#F3B85A"/>
  <path d="m10.05 83.57c0.14-7.42 5.1-14.55 13.25-14.82 2.26-0.07 4.08-0.89 4.71-0.69 0.86 0.34 0.4 3.56-0.79 6.95-2.6 7-10.12 9.45-17.17 8.56z" fill="#F0685B"/>
  <path d="m32.27 50.81c6.42-1.66 11.37-0.59 14.64 4.94-3.8 2.27-11.09 1.83-14.2-3.84-0.41-0.69-0.54-1.03-0.44-1.1z" fill="#F3B85A"/>
  <path d="m39.26 93.75c1.62-7.65 5.75-10.63 15.16-9.71-0.9 5.91-5.43 10.72-13.41 9.88-1.02-0.07-1.62-0.07-1.75-0.17z" fill="#F3B85A"/>
  <path d="m144.7 75.38c4.33-4.36 9.39-5.37 15.33-2.02-2.87 4.8-8.64 6.66-13.83 3.97-1.08-0.6-1.68-1.11-1.5-1.95z" fill="#F3B85A"/>
  <path d="m85.25 46.11c6.9-2 13.46-0.49 17.66 7.81-2.7 1.53-7.9 1.95-11.89 0.29-3.96-1.66-4.76-5.15-5.95-7.16-0.56-0.76-0.43-0.74 0.18-0.94z" fill="#F3B85A"/>
  <path d="m117 83.16c-0.79-7.06 1.81-10.58 9.07-12.27 1.05 5.57-0.77 9.9-7.32 12.4-1.05 0.42-1.68 0.42-1.75-0.13z" fill="#F0685B"/>
  <path d="m116.2 90.09c6.19-1.6 10.85 2.17 11.9 9.72-5.84 0.21-10.9-3.53-12.03-8.8-0.23-0.7-0.38-0.8 0.13-0.92z" fill="#F0685B"/>
  <path d="m118.7 39.24 4.96 6.42" stroke="#409B96" stroke-linecap="round" stroke-miterlimit="10" stroke-width=".5"/>
  <path d="m120.7 39.9-1.39 7.75" stroke="#409B96" stroke-linecap="round" stroke-miterlimit="10" stroke-width=".5"/>
  <path d="m126.4 46.04c-2.59 0-3.54 2.15-3.54 3.96 0 2.31 2.08 3.21 3.76 3.21 2.33 0 3.52-1.79 3.52-3.4 0-1.93-0.98-3.77-3.74-3.77z" fill="#D6544F"/>
  <path d="m118 47.82c-2.6 0-3.02 1.04-3.02 3.11 0 2.01 1.73 3.33 3.87 3.33 1.91 0 3.17-1.11 3.17-2.94 0-1.86-1.39-3.5-4.02-3.5z" fill="#F2786B"/>
  <path d="m157.9 83.81c1.21 1.45 2.37 4.3 2.57 9.1" stroke="#409B96" stroke-linecap="round" stroke-miterlimit="10" stroke-width=".7"/>
  <path d="m160.1 83.02c1.61 1.1 3.75 4.25 4.48 6.91" stroke="#409B96" stroke-linecap="round" stroke-miterlimit="10" stroke-width=".7"/>
  <path d="m152.6 90.31c-2.46 0-2.91 1.82-2.91 3.24 0 2.21 1.71 3.42 3.6 3.42 2.11 0 3.16-1.76 3.16-3.36 0-1.7-1.42-3.3-3.85-3.3z" fill="#D6544F"/>
  <path d="m161.7 91.62c-2.6 0-3.48 1.49-3.48 3.25 0 1.97 1.68 3.08 3.36 3.08 2.19 0 3.52-1.54 3.52-3.43 0-1.66-1.29-2.9-3.4-2.9z" fill="#F2786B"/>
  <path d="m160 54.19c-0.45 3.66-1.25 5.7-2.9 8.03" stroke="#409B96" stroke-linecap="round" stroke-miterlimit="10" stroke-width=".7"/>
  <path d="m162.4 54.54c1.19 2.07 1.68 3.79 2.28 5.87" stroke="#409B96" stroke-linecap="round" stroke-miterlimit="10" stroke-width=".7"/>
  <path d="m155.6 61.22c-2.33 0-3.06 1.66-3.06 3.32 0 1.97 1.58 3.26 3.39 3.26 1.79 0 3.26-1.39 3.26-3.26 0-1.73-1.25-3.32-3.59-3.32z" fill="#F2786B"/>
  <path d="m164.7 60.68c-2.53 0-3.45 1.66-3.45 3.26 0 2.04 1.45 3.57 3.56 3.57 2.04 0 3.54-1.76 3.54-3.69 0-1.86-1.39-3.14-3.65-3.14z" fill="#F2786B"/>
  <path d="m136 58.09 2.7 5.98" stroke="#409B96" stroke-linecap="round" stroke-miterlimit="10" stroke-width=".5"/>
  <path d="m134.8 59.53-0.88 6.38" stroke="#409B96" stroke-linecap="round" stroke-miterlimit="10" stroke-width=".5"/>
  <path d="m133.5 65.71c-2.5 0-3.45 1.11-3.45 3.25 0 1.86 1.55 3.07 3.45 3.07 2.05 0 3.34-1.42 3.34-3.21 0-1.76-1.19-3.11-3.34-3.11z" fill="#D6544F"/>
  <path d="m142.2 64.71c-2.18 0-3.73 1.21-3.73 3.25 0 1.76 1.47 3.25 3.4 3.25 2.01 0 3.41-1.66 3.41-3.49 0-1.66-1.26-3.01-3.08-3.01z" fill="#F2786B"/>
  <path d="m84.13 46.71-2.94 8.47" stroke="#409B96" stroke-linecap="round" stroke-miterlimit="10" stroke-width=".5"/>
  <path d="m85.71 47.51 2.94 7.13" stroke="#409B96" stroke-linecap="round" stroke-miterlimit="10" stroke-width=".5"/>
  <path d="m80.18 54.13c-2.5 0-3.22 1.56-3.22 3.32 0 2.14 1.39 3.36 3.4 3.36 2.14 0 3.33-1.49 3.33-3.25s-1.05-3.43-3.51-3.43z" fill="#F2786B"/>
  <path d="m88.81 55.21c-2.4 0-3.19 1.21-3.19 3.15 0 1.86 1.29 3.07 3.3 3.07s3.37-1.42 3.37-3.28c0-1.76-1.16-2.94-3.48-2.94z" fill="#DB5650"/>
  <path d="m63.21 47.82-3.77 7.39" stroke="#409B96" stroke-linecap="round" stroke-miterlimit="10" stroke-width=".5"/>
  <path d="m64.92 48.41 2.5 6.93" stroke="#409B96" stroke-linecap="round" stroke-miterlimit="10" stroke-width=".5"/>
  <path d="m57.14 55.08c-2.08 0-2.87 1.35-2.87 3.08 0 2.03 1.51 3.35 3.44 3.35 1.94 0 3.13-1.42 3.13-3.08 0-1.73-1.19-3.35-3.7-3.35z" fill="#F2786B"/>
  <path d="m66.69 56.74c-2.18 0-3.1 1.31-3.1 2.97 0 1.87 1.5 3.22 3.43 3.22 1.94 0 3.23-1.56 3.23-3.22 0-1.76-1.29-2.97-3.56-2.97z" fill="#F0685B"/>
  <path d="m139.7 161.1-1.01 13.22 1.01 0.91 11.33 0.53 1.06-2.72 1.64 2.19 9.73-0.73 2.7-14.45c-5.39 3.22-12.43 3.69-26.46 1.05z" fill="#000405" opacity=".15"/>
  <path d="m139.1 161.2-0.66 12.49 1.05 0.91 11 0.59 0.98-1.85-1.75-12.26-10.62 0.12z" fill="#DA5A4D"/>
  <path d="m149.4 161.6 6.69 13.58 7.59-0.9 1.84-15.91c-4.53 2.56-8.09 2.83-16.12 3.23z" fill="#F2786B"/>
  <path d="m150.3 106.1c-0.27 0-1.56 0-1.56 0.53 0.4 0.46 0.6 1.11 0.4 1.81-7.25-2.66-14.24-0.27-16.94 4.53l0.87 0.14c-3.02 1.97-3.89 7.06-3.89 7.06l0.7-0.63c-0.98 2.34-0.46 5.42 0.11 7.29 4.33 0.72 8.7-1.64 10.03-5.74l-0.53 3.08c6.29-0.69 7.66-3.73 9.25-6.23 1.05 3.22 2.45 4.4 3.84 4.81l0.63-1.86c1.48 2.62 3.19 3.73 4.49 3.28 0.47-2.07 2.36-2.73 3.48-1.28 1.71 2.4-0.89 5.25-2.44 5.73l-1.65 5.12 2.95 0.91c3.8-3.46 3.27-12.37 0.25-19.37-1.84-3.52-4.3-5.12-6.9-6.13 0.4-0.79 1.38-1.06 2.25-1.2-1.29-0.76-2.65-0.76-3.94 0.14l-1.4-1.99z" fill="#C26C58"/>
  <path d="m157.1 133.6-4.1 4.36c-4.16 3.66-7.96 2.45-11.6 0.06l-8.7 3.5 3.9 9.05 1.15 9.63c0.53 1.97 15.25 1.97 22.17-0.85 4.02-1.73 5.08-1.93 4.8-5.28l-1.98-5.91 6.07-6.86c-2.11-4.1-6.77-7.25-11.71-7.7z" fill="#F3B85A"/>
  <path d="m132.1 142.6-8.97 6.86c-2.26 0.9-3.38 3.46-2.75 5.6 0.79 1.98 2.8 1.98 4.3 0.53l0.38-1.31 10.15-4.98-3.11-6.7z" fill="#F8C9B2"/>
  <path d="m140.9 175.7 0.35 7.17h6.7l1.12-7.17h-8.17z" fill="#F8C9B2"/>
  <path d="m156.4 177.2 1.85 6.22 6.69-1.07 0.7-5.5-9.24 0.35z" fill="#F8C9B2"/>
  <path d="m141.2 182.4c-2.33 0.46-4.37 3.18-4.04 5.15 1.35 1.28 10.39 0.81 12.07-0.85l-0.38-4.3c-2.88 1.26-4.99 1.46-7.65 0z" fill="#26989A"/>
  <path d="m157.1 185.7c0.53-1.86 2.24-3.62 3.8-4.28l1.62 1.22 3.56-1.63c1.12 1.39 1.85 2.95 1.05 4.06-1.39 1.97-6.52 4.28-9.47 3.68-1.05-0.24-1.05-1.59-0.56-3.05z" fill="#26989A"/>
  <path d="m162.7 166.9c0 6.93 5.67 11.29 10.56 11.29 6.85 0 11.91-4.8 11.91-11.22 0-2.42-0.45-2.96-1.4-2.96-2.53 0-7.32 1.32-11.65 2.26-3.33 0.76-7 1.04-8.4 0.44-0.79-0.37-1.02-0.64-1.02 0.19z" fill="#C68863"/>
  <path d="m166.2 168.2c-0.88-5.91 2.36-12.7 8.06-12.7 5 0 9.33 5.29 9.55 9.27" stroke="#A56B52" stroke-linecap="round" stroke-miterlimit="10" stroke-width=".7"/>
  <path d="m178.1 160.5-0.95 3.42" stroke="#A56B52" stroke-linecap="round" stroke-miterlimit="10" stroke-width=".7"/>
  <path d="m170.8 162.1 1.72 1.6" stroke="#A56B52" stroke-linecap="round" stroke-miterlimit="10" stroke-width=".7"/>
  <path d="m172.9 162.6c-2.01 0-2.67 1.29-2.67 2.78 0 0.69 0.27 1.39 0.73 1.92 1.61-0.17 3.29-0.47 4.84-0.83 0.34-0.52 0.54-1.13 0.54-1.78 0-1.42-1.09-2.09-3.44-2.09z" fill="#D6544F"/>
  <path d="m178.3 162.1c-1.93 0-3.06 1.21-3.06 2.93 0 0.66 0.24 1.28 0.66 1.78 1.94-0.46 3.72-1.03 4.95-1.57 0.1-0.32 0.15-0.66 0.15-0.99 0-1.42-0.98-2.15-2.7-2.15z" fill="#F2786B"/>
  <path d="m168.9 142.5c3.02 3.15 5 10.49 5.2 12.64-0.46 2.33-1.75 3.79-3.86 3.51-1.54-0.27-2.52-2.17-1.89-4.4l0.49-1.36-4.13-5.84 4.19-4.55z" fill="#F8C9B2"/>
  <path d="m157 144.7 5.74 3.45 1.27-1.7-5.74-2.95-1.27 1.2z" fill="#E2A051"/>
  <path d="m136.7 143.2 0.77 7.07 0.65-7.31-1.42 0.24z" fill="#E2A051"/>
  <path d="m136.6 131.4-1.49 1.07c0.59 2.72 2.63 4.11 5.19 3.87l0.35-1.86c-0.45-2.33-1.85-3.34-4.05-3.08z" fill="#F7B3A8"/>
  <path d="m150.8 128.2c-2.87 0-2.34 2.72-2.34 2.82 0 1.66 1.55 2.67 3.04 2.67 2.11 0 3.06-1.82 3.06-3.14 0-1.52-1.36-2.35-3.76-2.35z" fill="#F7B3A8"/>
  <path d="m136.6 128.8-0.27 0.94" stroke="#000405" stroke-linecap="round" stroke-miterlimit="10" stroke-width=".7"/>
  <path d="m147.9 126.3 0.25 1.01" stroke="#000405" stroke-linecap="round" stroke-miterlimit="10" stroke-width=".7"/>
  <path d="m142 130.4 0.26 1.08h1.43" stroke="#C68863" stroke-linecap="round" stroke-miterlimit="10" stroke-width=".5"/>
  <path d="m141.8 134.6c1.29 1.01 3.79 0.41 4.42-1.49" stroke="#D6544F" stroke-linecap="round" stroke-miterlimit="10" stroke-width=".5"/>
  <path d="m73.71 120c-1.59-7.09-5.32-9.9-9.75-10.91-6.95-3.11-15.42-2-20.48 6.6-6.39 9.92-3.63 18.19 2.24 19.44l20.12 2.1c5.83-1.63 8.42-8.73 7.87-17.23z" fill="#C26C58"/>
  <path d="m48.95 134.8c2.01 2.46 2.8 4.06 3.96 4.91l10.49-0.65 1.79-1.93c-1.55-1.86-6.14-2.8-8.67-3.14l-7.57 0.81z" fill="#BF6150"/>
  <path d="m47.24 135c-5.84-1.22-13.68 8.49-13.51 14.27l2.6 0.28 4.5-0.41c5.06-1.45 8.79-8.48 6.41-14.14z" fill="#F6A393"/>
  <path d="m64.92 137.1 6.55 5.65c2.26 1.21 6.98 1.62 9.31 1.35l0.27 6.66c-4.53 1.21-11.02 0.52-12.21-0.8l-3.92-12.86z" fill="#F6A393"/>
  <path d="m46.37 162.8c2.01-6.42-0.45-15.44-7.44-15.44-7.29 0-12.68 8.15-12.48 13.8 0.27 6.86 5.8 10.84 11.96 10.56 5.52-0.27 9.32-4.56 10.3-9.26l-2.34 0.34zm-8.11-13.11c6.49 0 8.17 6.09 7.9 11.21l-17.31-4.19c1.58-4.04 4.88-7.02 9.41-7.02z" fill="#C68863"/>
  <path d="m46.01 151.7 2.66-0.47c2.11-0.2 2.74 1.36 2.74 2.68 0 1.83-1.5 2.84-3.28 2.84-0.8 0-1.86-0.41-2.42-1.01l0.3-4.04z" fill="#F8C9B2"/>
  <path d="m47.17 168.8-5.26 6.42-0.7 11.35c0.87 1.97 8.96 2.82 11.22 2.1 1.46-0.46 0.27-3.65-2.52-5.31l1.19-8.48-3.93-6.08z" fill="#F3685B"/>
  <path d="m54.73 175.9 0.4 11.03c0.62 1.42 4.82 1.42 8.62 0.95 3.96-0.55 4.59-2.08 3.19-3.5l-1.71-1.1-0.46-7.85-10.04 0.47z" fill="#F3685B"/>
  <path d="m46.44 134.4 3.8 1.66 1.87 5.06 8.9-0.07 3.7-3.98 5.46 32.12c0.07 2.2-4.59 3.21-7.12 3.66-5.88 0.73-14.94-0.48-20-1.73l7.73-13.15-4.34-23.57z" fill="#309996"/>
  <path d="m51.76 145.7 9.99-0.07c0.39 4.57-1.72 7.39-4.6 7.39-4.4 0.06-5.8-2.76-5.39-7.32z" fill="#3DA09A"/>
  <path d="m46.44 122.4c-2.6-0.07-2.93 1.9-2.73 2.98 0.2 1.11 0.92 1.64 1.98 1.84 0.4 6.16 5.46 8.39 9.49 8.39 5.84 0 9.74-3.12 10.4-17.98 2.33 2.46 4.12 6.44 8.05 8.83 0.53-1.76 0.53-5.42-0.96-9.24-2.33-5.61-7.38-8.04-11.12-7.51-6.89 0.88-9.91 13.38-15.11 12.69z" fill="#F8C9B2"/>
  <path d="m57.71 160 0.8-0.12" stroke="#C68863" stroke-linecap="round" stroke-miterlimit="10" stroke-width=".5"/>
  <circle cx="54.38" cy="127" r="1.222" fill="#DD857A"/>
  <circle cx="67" cy="132.5" r="1.847" fill="#F7B3A8"/>
  <circle cx="67" cy="129.1" r="1.161" fill="#000405"/>
  <path d="m61.21 128.8 0.63 0.8 0.45-0.19" stroke="#C68863" stroke-linecap="round" stroke-linejoin="round" stroke-miterlimit="10" stroke-width=".5"/>
  <path d="m58.16 133.3c1.02 1.35 3.62 1.08 4.41-0.27" stroke="#D6544F" stroke-linecap="round" stroke-miterlimit="10" stroke-width=".5"/>
  <path d="m72.67 173.4h30.14c0 7.13-3.6 15.08-14.43 15.08-11.16 0-14.46-5.92-15.71-15.08z" fill="#C68863"/>
  <path d="m80.11 163.3-0.8 7.68" stroke="#62A886" stroke-linecap="round" stroke-miterlimit="10" stroke-width=".7"/>
  <path d="m82.84 163.9c2.77 0.66 3.64 2.32 3.64 3.77" stroke="#62A886" stroke-linecap="round" stroke-miterlimit="10" stroke-width=".7"/>
  <path d="m89.11 167.4 1.85-3.59c1.06 1.79 1.59 3.59 1.52 5.25" stroke="#62A886" stroke-linecap="round" stroke-miterlimit="10" stroke-width=".7"/>
  <path d="m96.71 167.4 3.4-2.39c1.94-0.27 3.72 1.18 5.01 3.51-2.76 1.32-5.86 1.59-8.41-1.12z" fill="#62A886"/>
  <path d="m76.94 170.3c-2.01 0-2.8 1.56-2.8 2.7 0 0.62 0.37 1.29 0.93 1.74l4.99 0.11c1.29-0.46 2.08-1.64 2.08-2.85 0-1.35-1.19-1.7-5.2-1.7z" fill="#F3685B"/>
  <path d="m86.05 169c-2.11 0-2.74 1.32-2.74 2.66 0 0.92 0.73 2.07 1.46 2.33l5.26-0.07c1.56-0.34 2.12-1.79 2.12-2.8 0-1.35-0.98-2.19-6.1-2.12z" fill="#DB5951"/>
  <path d="m91.55 170.2c-2.16 0-3.05 1.21-3.05 2.63 0 0.8 0.34 1.76 1.13 2.22l5.13-0.46c1.4-0.28 1.92-1.39 1.92-2.3 0-1.6-1.16-2.09-5.13-2.09z" fill="#F2786B"/>
  <path d="m89.89 142.2c-3.17-0.57-6.23 0.88-7.52 6.69l0.39 2.99 0.8-0.21 0.27-3.38c1.29-3.29 3.3-2.82 6.06-6.09z" fill="#62A886"/>
  <path d="m20.7 177.1 0.7 7.69" stroke="#409B51" stroke-linecap="round" stroke-miterlimit="10" stroke-width=".5"/>
  <path d="m14.82 181.4c0.63-3.66 2.57-5.7 6.37-4.8 2.43 0.69 3.41 2.66 3.87 4.66" stroke="#409B51" stroke-linecap="round" stroke-miterlimit="10" stroke-width=".5"/>
  <path d="m186 178.6c-1.75 0.53-3.2 2.02-4.76 6.59" stroke="#409B51" stroke-linecap="round" stroke-miterlimit="10" stroke-width=".5"/>
  <path d="m112.4 173.8c1.56 1.32 2.86 3.29 3.65 8.09" stroke="#409B51" stroke-linecap="round" stroke-miterlimit="10" stroke-width=".5"/>
  <path d="m130.2 176.2c-1.85 1.22-3.14 2.3-4.19 6.43" stroke="#409B51" stroke-linecap="round" stroke-miterlimit="10" stroke-width=".5"/>
  <path d="m96.71 177.2c1.75 2.07 1.55 4.05 1.75 6.61" stroke="#409B51" stroke-linecap="round" stroke-miterlimit="10" stroke-width=".7"/>
  <path d="m27.74 181.3c-1.93 0-3.23 1.66-3.23 3.08 0 1.97 1.55 2.87 3.23 2.87s3.15-1.82 3.15-3.65c0-1.76-0.98-2.3-3.15-2.3z" fill="#F0685B"/>
  <path d="m20.62 184.3c-2.53 0-3.82 1.56-3.82 2.77 0 1.77 0.73 2.78 2.74 2.78 1.78 0 3.18-1.42 3.18-3.08 0-1.73-0.2-2.47-2.1-2.47z" fill="#F2786B"/>
  <path d="m116.2 180.5c-2 0-3.5 1.21-3.5 3 0 1.97 1.57 3.25 3.56 3.25 1.56 0 2.95-1.56 2.95-3.18 0-1.76-1.19-3.07-3.01-3.07z" fill="#DB5650"/>
  <path d="m126.3 163.1c-2.6 0-3.8 1.32-3.8 3.08 0 1.01 1.39 2.87 3.33 2.87 1.29 0 2.79-1.45 2.79-3.31 0-1.21-0.98-2.64-2.32-2.64z" fill="#F2786B" stroke="#DE766A" stroke-miterlimit="10" stroke-width=".2"/>
  <path d="m125.6 154.1c0.73 3.66 0.46 5.12 0.46 6.87" stroke="#409B51" stroke-linecap="round" stroke-miterlimit="10" stroke-width=".5"/>
  <path d="m121.2 157.2 1.71 2.04" stroke="#409B51" stroke-linecap="round" stroke-miterlimit="10" stroke-width=".5"/>
  <path d="m100 184.3c-3.93 0-3.86 1.76-3.86 3.36 0 1.9 0.98 3.12 2.56 3.53 3.2 0 4.6-3.05 4.6-4.06 0-1.87-1.5-2.83-3.3-2.83z" fill="#F2786B"/>
  <path d="m126.5 182.1c-3.14 0-4.33 1.6-4.33 3.26 0 1.45 2.11 3.89 4.86 3.77 2.05-0.79 2.93-3.12 2.73-5.05-0.2-1.21-1.26-1.98-3.26-1.98z" fill="#F3746D" stroke="#DE766A" stroke-miterlimit="10" stroke-width=".2"/>
  <path d="m30.79 76.37 1.69 1.01 1.29 7.14" stroke="#409B51" stroke-linecap="round" stroke-miterlimit="10" stroke-width=".5"/>
  <path d="m26.86 83.09c-1.45 0.79-2.95 2-2.95 3.21 0.8 2.56 2.42 2.89 4.01 2.89 1.68-0.53 3.05-3.16 1.68-4.1-1.4-1.01-0.94-2.22-2.74-2z" fill="#DB5A52"/>
  <path d="m35.82 84.05c-2.6 0.63-4.11 2.49-3.78 4.06 0 1.01 1.4 2.38 3.48 2.38 1.94-0.34 2.89-2.38 2.89-3.46 0-1.76-0.45-3.32-2.59-1.76" fill="#F2786B" stroke="#DB5951" stroke-linecap="round" stroke-miterlimit="10" stroke-width=".5"/>
  <path d="m58.1 82.08 5.53 6.48c0 0.79 0.27 3.35 0.74 4.15" stroke="#409B51" stroke-linecap="round" stroke-miterlimit="10" stroke-width=".5"/>
  <path d="m56.48 90.81c-1.63 1.08-2.69 1.95-2.69 3.52 0 1.76 1.69 3.23 3.87 3.23 2.53-0.46 3.16-1.31 2.89-3.28-1.13-2.46-1.65-3.32-3.65-3.32" fill="#F16859" stroke="#D6544F" stroke-linecap="round" stroke-miterlimit="10" stroke-width=".5"/>
  <path d="m80.71 152.2c-2.03 0.46-3.04 2.6-3.04 2.94 0 2.43 0.39 2.63 1.36 3.15 1.19 0.4 3.72-0.7 4.68-2.46 0.53-1.11-0.45-3.08-3-3.63z" fill="#F25A55" stroke="#D65C4F" stroke-linecap="round" stroke-miterlimit="10" stroke-width=".5"/>
  <path d="m88.13 151.2c-1.19 0-1.98 1.31-1.98 3.73 0 1.56 0.2 2.57 2.21 2.64 1.93-0.14 3.25-1.46 3.87-4.07-0.79-2.24-0.62-2.3-4.1-2.3z" fill="#DA5448" stroke="#AF362F" stroke-linecap="round" stroke-miterlimit="10" stroke-width=".5"/>
</svg>