<svg xmlns="http://www.w3.org/2000/svg" width="250" height="240" fill="none" viewBox="0 0 250 240">
<!-- SVG created with Arrow, by QuiverAI (https://quiver.ai) -->
  <path d="m175.1 62.38h-100.3c-17.14 0-29.01 15.39-29.01 30.53v93.89c0 15.87 13.11 30.25 29.76 30.2h99.14c12.46 0 24.33-9.71 24.33-28.8v-95.29c0-16.44-10.68-30.53-23.89-30.53z" fill="url(#paint0_linear_77_12282)"/>
  <path d="m175.3 69.54h-100.3c-12.72 0-23.02 10.71-23.02 22.99v94.58c0 11.5 10.47 22.38 23.19 22.38h99.28c10.65 0 19.3-8.97 19.3-21.49v-97.47c0-12.65-7.87-20.99-18.48-20.99z" fill="#13BEC3"/>
  <path d="m174.8 70.77h-99.31c-12.39 0-22.99 9.87-22.99 22.28v92.87c0 11.81 10.2 21.38 22.6 21.38h98.84c11.87 0 18.82-7.84 18.82-19.65v-95.49c0-12.41-6.59-21.39-17.96-21.39z" fill="#F6745D"/>
  <path d="m91.16 79.13h-20.11c-6.08 0-7.44 5.33-7.44 8.35v18.61c0 5.59 3.58 8.86 8.11 8.86h19.14c5.25 0 8.68-4.61 8.68-8.72v-18.86c0-4.62-3.36-8.24-8.38-8.24z" fill="url(#paint1_linear_77_12282)"/>
  <path d="m133.4 79.13h-18.36c-6.61 0-8.72 5.19-8.72 9.06v17.03c0 6.12 3.09 9.73 8.58 9.73h17.88c6.24 0 9.97-4.88 9.97-10.11v-17.28c0-5-3.92-8.43-9.35-8.43z" fill="url(#paint2_linear_77_12282)"/>
  <path d="m132.4 82.02h-15.95c-4.39 0-6.27 3.49-6.27 7.15v14.76c0 4.63 3.14 7.18 6.93 7.18h14.24c5.02 0 7.46-4.08 7.46-7.83v-14.91c0-3.59-2.55-6.35-6.41-6.35z" fill="#F9BF41"/>
  <path d="m130.5 85.91h-12.1c-3.49 0-5.6 2.16-5.6 5.46v11.28c0 3.62 2.07 5.57 5.69 5.57h11.44c3.54 0 5.43-2.44 5.43-5.66v-11.26c0-3.32-1.63-5.39-4.86-5.39z" fill="#01B7BA"/>
  <path d="m176.8 79.13h-18.71c-6.08 0-9.31 3.77-9.31 9.28v17.75c0 5.74 3.62 8.79 8.83 8.79h18.89c5.83 0 8.68-4.88 8.68-9.44v-18.5c0-4.53-2.9-7.88-8.38-7.88z" fill="url(#paint3_linear_77_12282)"/>
  <path d="m175.8 82.02h-17.16c-4.66 0-8.01 3.12-8.01 7.94v14.42c0 4.21 2.85 6.73 7.27 6.73h17.25c4.56 0 7.85-3.19 7.85-7.98v-14.12c0-3.62-2.38-6.99-7.2-6.99z" fill="#F9D06E"/>
  <path d="m91.16 121.9h-20.11c-6.08 0-7.44 5.32-7.44 8.34v18.61c0 5.6 3.58 8.86 8.11 8.86h19.14c5.25 0 8.68-4.61 8.68-8.72v-18.85c0-4.62-3.36-8.24-8.38-8.24z" fill="url(#paint4_linear_77_12282)"/>
  <path d="m90.99 122.8h-18.88c-4.65 0-7.5 3.48-7.5 7.79v17.2c0 4.62 3.13 8.47 7.55 8.47h18.36c4.56 0 7.8-3.62 7.8-8.41v-17.75c0-3.96-3.01-7.3-7.33-7.3z" fill="#F9D06E"/>
  <path d="m134.3 121.9h-19.19c-6.48 0-8.82 4.58-8.82 8.75v18.34c0 5.86 3.62 8.72 8.51 8.72h18.88c5.38 0 9.04-4.61 9.04-9.86v-17.54c0-5.12-3.83-8.41-8.42-8.41z" fill="url(#paint5_linear_77_12282)"/>
  <path d="m133.4 122.8h-17.35c-5.12 0-8.21 3.37-8.21 7.93v17.65c0 4.76 3.3 7.88 7.89 7.88h17.77c4.63 0 7.83-3.58 7.83-8.58v-17.6c0-4.29-3.06-7.28-7.93-7.28z" fill="#01B7BA"/>
  <path d="m175.7 121.9h-18.68c-5.44 0-8.54 3.55-8.54 8.24v18.64c0 5.16 3.36 8.93 8.32 8.93h19.65c5.97 0 8.6-5.46 8.6-9.33v-18.82c-0.01-4.3-3.94-7.66-9.35-7.66z" fill="url(#paint6_linear_77_12282)"/>
  <path d="m174.6 122.8h-12.55c-4.05 0-5.89 1-7.85 3.93l-4.92 8.38v8.23l13.42 12.92h10.2l11.7-10.67v-6.45l-14.53-13.81c-2.06-1.91 0-2.53 4.53-2.53z" fill="url(#paint7_linear_77_12282)"/>
  <path d="m168 122.8h-3.85c-3.05 0-4.97 1.92-6.91 4.58l-7.07 11c-1.63 2.35-1.02 5.71 1.05 7.88l7.96 8.8c1.78 2.07 4.84 1.65 5.27 0l0.7-1.92 12.57-11.26c1.92-1.69 5.33-1.08 6.76 0.21v-6l-12.89-11.6c-1.43-1.35-1.89-1.69-3.59-1.69z" fill="#F9BF41"/>
  <path d="m164.2 130.8c-2.27-0.16-4.06 0.88-5.25 2.6l-7.07 10.07c-1.08 1.48-1.15 3 0.56 4.92l6.44 6.18c1.79 1.84 4.03 1.35 4.73-0.89l0.67-1.66 12.86-11.18c1.57-1.35 1.19-2.07 0-3.26l-8.36-5.52c-1.43-1.04-2.62-1.26-4.58-1.26z" fill="#01B7BA"/>
  <path d="m91.52 166.4h-20.47c-5.62 0-7.67 3.79-7.67 8.06v15.64c0 5.96 2.93 9.42 8.25 9.42h19.3c5.72 0 8.45-5.26 8.45-9.16v-16.09c0-4.62-3.01-7.87-7.86-7.87z" fill="url(#paint8_linear_77_12282)"/>
  <path d="m90.99 168.8h-18.88c-4.65 0-6.99 3.36-6.99 7.41v12.56c0 4.75 2.54 7.87 7.13 7.87h17.75c4.63 0 7.31-3.73 7.31-8.2v-13.13c0-3.62-2.37-6.51-6.32-6.51z" fill="#F9BF41"/>
  <path d="m86.29 172.6h-9.81c-3.12 0-5.27 2.28-5.27 5.43v8.36c0 3.22 2.07 4.85 5.13 4.85h9.57c3.16 0 4.65-1.92 4.65-5.04v-8.76c0-2.72-1.35-4.84-4.27-4.84z" fill="#01B7BA"/>
  <path d="m80.87 166.4h-10.75c-4.56 0-6.9 3.52-6.9 7.42v8.77h11.04c4.42 0 6.61-2.55 6.61-6.51v-9.68z" fill="#01B7BA"/>
  <path d="m135 165.5h-19.29c-6.47 0-9.39 4.69-9.39 9.42v16.12c0 5.08 3.36 8.95 8.51 8.95h18.89c5.02 0 9.03-3.35 9.03-8.81v-17.91c0-4.73-3.62-7.77-7.75-7.77z" fill="url(#paint9_linear_77_12282)"/>
  <path d="m134.3 166.4h-18.28c-5.59 0-8.25 3.76-8.25 8.36v14.22c0 5.05 3.13 8.13 7.93 8.13h17.77c5.04 0 8.04-3.44 8.04-8.25v-14.78c0-4.09-2.86-7.68-7.21-7.68z" fill="#F9D06E"/>
  <path d="m176.4 165.5h-17.77c-6.47 0-9.83 4.42-9.83 9.9v14.52c0 6.2 3.36 10.07 8.83 10.07h18.4c6.27 0 9.17-4.85 9.17-10.17v-15.74c0-4.96-3.49-8.58-8.8-8.58z" fill="url(#paint10_linear_77_12282)"/>
  <path d="m175.7 166.4h-17.2c-5.19 0-8.38 3.73-8.38 8.78v12.78c0 5.5 3.26 9.15 8.35 9.15h16.73c4.76 0 8.41-4.05 8.41-9.44v-13.13c0-4.55-3.2-8.14-7.91-8.14z" fill="#F9BF41"/>
  <path d="m167.1 196.1c8.93 0 14.3-8.72 14.3-13.75 0-6.12-5.19-12.27-13.36-12.27-9.71 0-15.24 7.05-15.24 14.09 0 6.78 6.11 11.93 14.3 11.93z" fill="url(#paint11_linear_77_12282)"/>
  <path d="m166.7 169.1c0.69 6.62-5.6 14.64-14.21 14.64-0.7 0-0.26 2.18 0.14 3.18 11.26 2.2 20.7-7.87 19.44-17.25-0.9-0.5-3.44-1.08-5.37-0.57z" fill="url(#paint12_linear_77_12282)"/>
  <path d="m168.3 169.1c0.76 7.68-7.14 16.08-15.9 14.83-0.84-0.13 0 3.09 0.5 3.85 9.01 2.32 21.95-5.45 21.25-17.5-1-0.83-3.27-1.45-5.85-1.18z" fill="#01B7BA"/>
  <path d="m137.1 185.8-0.86-3.01c-0.61-2.3-2.09-2.96-4.75-3.11l-2.78-5.24c-0.87-1.78-2.57-2.28-4.48-2.28h-4c-3.29 0-4.9 1-6.09 4.23l-2.06 5.88h-1.67c-1 0-1.68 0.8-1.68 1.69v4.06c0 0.8 0.6 1.27 1.4 1.27h27.04c1.36 0 2.43-1.68-0.07-3.49z" fill="#01B7BA"/>
  <path d="m129.1 179.6-2.58-5.74h-3.99v8.14h7.42c0.5 0 0.09-1.15-0.85-2.4z" fill="#F9BF41"/>
  <path d="m119.9 173.8-2.51 0.44c-1.35 0.28-2.45 2.86-2.88 5.91l6.22-0.06 0.1-6.27c0-0.28-0.46-0.1-0.93-0.02z" fill="#F9BF41"/>
  <path d="m116.7 193c2.99 0 4.1-2.36 4.1-3.78 0-2.15-1.66-3.77-3.8-3.77-2.61 0-4.24 1.84-4.24 3.84 0 2.12 1.63 3.71 3.94 3.71z" fill="url(#paint13_linear_77_12282)"/>
  <path d="m132 193c3 0 4.01-2.28 4.01-3.78 0-2.15-1.54-3.77-3.68-3.77-2.61 0-4.17 1.77-4.17 3.77 0 2.12 1.53 3.78 3.84 3.78z" fill="url(#paint14_linear_77_12282)"/>
  <path d="m116.9 191.4c1.76 0 2.6-1.35 2.6-2.4 0-1.42-1.1-2.5-2.53-2.5-1.66 0-2.69 1.19-2.69 2.44 0 1.35 1.1 2.46 2.62 2.46z" fill="#F9BF41"/>
  <path d="m132 191.4c1.76 0 2.53-1.35 2.53-2.4 0-1.42-1.08-2.5-2.44-2.5-1.67 0-2.67 1.19-2.67 2.44 0 1.35 1.07 2.46 2.58 2.46z" fill="#F9BF41"/>
  <path d="m122.9 182.9h1.63c0.56 0 0.89-0.23 0.89-0.79v-0.44c0-0.43-0.39-0.71-0.89-0.71h-1.52c-0.62 0-0.95 0.28-0.95 0.78v0.28c0 0.58 0.28 0.88 0.84 0.88z" fill="#F6745D"/>
  <path d="m96.11 11.61h-3.02c-8 0-10.52 17.3-10.52 26.45 0 3 0.86 5.12 4.24 5.12h5.25c2.13 0 3.15 1.13 3.15 2.93 0 3.2 1.42 5.31 4.71 5.31h50.21c3.79 0 5.08-2.69 5.08-5.31 0-1.78 1.22-2.93 2.96-2.93h5.89c2.85 0 3.52-2.27 3.52-4.68 0-8.45-4.07-26.89-12.37-26.89h-2.61l-0.94-5.6c-0.35-2.11-1.6-3.66-4.15-3.66h-43.24c-3.06 0-4.87 1.42-5.15 4.29l-0.8 4.97h-2.21z" fill="url(#paint15_linear_77_12282)"/>
  <path d="m103.7 2.35h43.05c3.19 0 4.2 1.69 4.37 4.34l2.06 37.09c0.17 3.02-0.95 5.13-4.64 5.13h-49.21c-3.42 0-4.03-2.89-3.86-5.51l2.21-36.35c0.17-3.15 1.59-4.7 6.02-4.7z" fill="url(#paint16_linear_77_12282)"/>
  <path d="m107.2 21.03h35.03c2.72 0 3.42 1.49 3.42 3.27 0 2.01-1.22 3.33-3.42 3.33h-35.03c-2.34 0-3.45-1.25-3.45-3.12 0-1.88 1.18-3.48 3.45-3.48z" fill="url(#paint17_linear_77_12282)"/>
  <path d="m107.1 22.32h34.55c2.06 0 2.76 0.96 2.76 2.19 0 1.29-0.96 2.15-2.69 2.15h-34.69c-1.73 0-2.53-0.86-2.53-2.08 0-1.25 0.87-2.26 2.6-2.26z" fill="#F6745D"/>
  <path d="m135.1 19.19h5.5c2.99 0 4.51 2.42 4.51 5.25 0 3.22-1.73 5.49-4.89 5.49h-5.02c-2.45 0-3.74-1.55-3.74-4.31v-2.41c0-2.55 1.29-4.02 3.64-4.02z" fill="#01B7BA"/>
  <path d="m137.3 19.19h2.42c2.34 0 4.08 2.04 4.08 5.04 0 3.23-1.46 5.53-4.52 5.53h-2.14c-1.07 0-1.62-0.58-1.62-1.94v-6.52c0-1.29 0.55-2.11 1.78-2.11z" fill="#13BEC3"/>
  <path d="m103.9 39.49-0.92 5.42c-0.28 1.42 0 1.7 1.74 1.7h38.71c1.59 0 2.17-0.59 1.73-2.01l-1.73-5.05c-0.37-1.13-1.37-1.42-3.44-1.42h-32.78c-1.99 0-3 0.08-3.31 1.36z" fill="url(#paint18_linear_77_12282)"/>
  <path d="m119.7 41.04 10.3-2.11c4.23-0.87 6.12 0.9 6.62 4.19l1.42 8.9c0.46 2.83-0.64 4.42-3.99 5.21l-9.64 2.28c-3.19 0.8-4.78-1.12-5.58-4.35l-1.52-9.14c-0.55-2.86 0.15-4.45 2.39-4.98z" fill="url(#paint19_linear_77_12282)"/>
  <path d="m120.4 43.83 4.63-0.78c1.55-0.29 2.21-0.14 2.44 1.35 0.31 1.91 1.3 2.81 3.21 2.74l1.29-0.07c1.62-0.09 2.41 0.64 2.61 2.16l0.24 1.52c0.22 1.46-0.67 2.52-2.03 2.86-1.36 0.35-2.51-0.27-3.02-1.79-0.53-1.64-1.87-2.31-3.9-2.7l-5.19-2.41-0.28-2.88z" fill="#fff"/>
  <path d="m66.29 138.9c-0.97-2.83-3.04-2.72-5.27-1.75l-14.7 2.69 14.3-7.76c2.92-1.6 2.8-3.98 1.44-5.34-1.5-1.5-3.45-0.8-5.34 0.59l-13.69 7.5 10.88-9.62c2.34-1.88 1.8-4.57 0.21-5.83-1.55-1.25-3.68 0.34-5.41 2.04l-11.4 8.31 7.41-9.68c1.43-1.99 0.39-4.12-1.53-4.21-1.52-0.09-3.11 1.43-5.1 3.81-4.06 4.73-8.05 8.28-15.05 11.27-3.04 1.26-5.89 5.62-7.42 6.8l-15.62 5.6v31.41l0.7 0.21 23.27-13.51c2.16-1.35 3.14-1.2 5.37-0.4 3.07 1.15 8.69 0.71 11.69 0.21 2.99-0.5 6.98-0.29 9.39-0.06 2.89 0.28 3.39-2.55 1.76-4.75-1.52-2.2-4.17-1.4-7.66-1.33-3.29 0.07-3.29-2.07-0.57-3.37l17.08-7.81c3.12-1.39 6.04-3.19 5.26-5.02z" fill="#01B7BA"/>
  <path d="m249.8 53.2-29.81 14.36c-2.06 0.96-5.95-0.14-10.01 0.56-6 1.11-9.99 1.53-16.9 0.9-3.49-0.35-8.05-1.39-9.83 0.49-1.77 1.88-0.52 5.2 2.97 5.62l9.51 0.9-14.64 2.06c-3.35 0.42-4.05 1.85-3.35 4.12 0.76 2.55 2.54 2.41 5.44 2.41l11.94-0.8-15.13 4.63c-2.61 0.86-3.48 2.28-2.83 4.27 0.97 3.02 4.22 2.32 5.85 1.82l14.33-3.39c0.5-0.14 0.53 0.76-0.2 1.11l-11.86 5.99c-2.85 1.49-3.2 3.76-2.01 5.88 1.03 1.88 3.41 1.02 5.33 0.22l16.13-6.87c2.35-1.03 3.31-0.34 2.3 1.65l-3.12 5.92c-1.19 2.48-0.33 4.25 1.19 4.78 1.29 0.49 2.39-1.03 4.09-2.61l9.51-8.49c3.09-2.92 5.22-7.01 8.28-8.3l22.98-3.83-0.16-33.4z" fill="#F6745D"/>
  <path d="m224.5 239.6-6.3-17.46 1.1-16.06 0.21-6.09 0.43-10.1c0-2.86-1.67-4-3.19-4-1.92 0-2.72 1.25-3.07 3.8l-1.84 9.01-1.29-0.14-0.7-15.67c-0.28-2.55-1.91-3.59-3.36-3.51-2.13 0.14-3.06 1.57-3.06 4.05l-0.36 13.99-0.93 0.21-2.82-16.61c-0.59-2.38-1.95-3.27-3.79-2.92-2.27 0.5-2.7 2.49-2.27 5.11l2.48 13.68-1.19 1.15-3.99-12.56c-1.1-2.45-3.09-2.89-4.72-2.09-1.99 0.96-2.27 3.23-1.3 5.85l5.89 15.95-0.06 3.86c-0.14 1.59-1.84 1.24-2.7-0.21l-4.47-5.15c-1.63-1.7-4.17-1.28-5.04 0.14-0.86 1.49-0.23 3.08 1.29 4.67l7.41 10.89c1.99 2.55 5.41 5.24 7.65 7.23l1.94 12.98h28.05z" fill="#F6745D"/>
  <path d="m96.07 97.08-4.06-2.85 2.6-4.42-4.5-1.07-0.44-4.63-4.76 1.42-2.75-3.22-3.45 3.22-4.96-1.42-0.6 4.02-5.44 0.61 2.92 4.42-4.13 3.86 4.26 2.42-2.72 4.29 4.7 2.08 0.8 4.09 4.53-0.67 3.35 2.69 3.09-3.36 4.53 1.07 0.7-5.22 3.59-1.07-1.88-4.19 4.62-2.07z" fill="url(#paint20_linear_77_12282)"/>
  <path d="m81.95 106c5.76 0 9.11-4.5 9.11-8.78 0-4.8-3.93-9.1-8.98-9.1-5.48 0-9.07 4.38-9.07 8.88 0 4.9 3.79 9 8.94 9z" fill="#F9D06E"/>
  <path d="m74.71 97.56c0.89 0 1.35-0.68 1.35-1.3 0-0.8-0.64-1.43-1.44-1.43-0.87 0-1.4 0.7-1.4 1.38 0 0.79 0.64 1.35 1.49 1.35z" fill="#F6745D"/>
  <path d="m88.13 98.81c1.39 0 1.88-1.07 1.88-1.87 0-1.06-0.87-1.76-1.8-1.76-1.13 0-1.82 0.86-1.82 1.72 0 1.03 0.87 1.91 1.74 1.91z" fill="#F6745D"/>
  <path d="m77.81 97.56c0.8 1.1 1.87 1.66 3.5 1.66 1.77 0 3.06-0.8 4.07-2.15" stroke="#A55627" stroke-linecap="round" stroke-miterlimit="10" stroke-width=".7"/>
  <path d="m77.92 94.62c0.35-1.15 1.05-1.91 2.31-1.91 1 0 1.68 0.57 2.15 1.43" stroke="#A55627" stroke-linecap="round" stroke-miterlimit="10" stroke-width=".7"/>
  <path d="m83.27 126.2h-3.52c-3.89 0-6.39 1.14-8.63 3.69-2.34 2.73-3.97 4.71-2.68 7.13l2.27 4.22c1.09 2.17 4.15 1.89 5.51 0l1.92-2.17h7.97l2.06 1.92c1.45 1.42 3.79 0.46 5.21-2.27l1.46-3.02c1.19-2.51-0.69-4.57-3.24-7.02-2.13-2.05-4.05-2.48-8.33-2.48z" fill="url(#paint21_linear_77_12282)"/>
  <path d="m71.51 141.7 1.71 7.28 1.17-0.96 1.22-4.87-2.39-0.14-1.71-1.31z" fill="url(#paint22_linear_77_12282)"/>
  <path d="m87.6 144.1v9.03l1.59 0.8 0.93-1.01-1.35-7.57-1.17-1.25z" fill="url(#paint23_linear_77_12282)"/>
  <path d="m74.69 153.5c-0.97-0.86-0.38-2.19 0.99-2.44l0.68-13.64h10.1l1.88 13.64c1.07 0.5 1.28 1.99 0.31 2.44h-3.2c-1.04 0-1.62-0.86-1.62-2.44v-1.36c0-0.96-0.86-1.49-1.75-1.49h-0.35c-1.07 0-1.77 0.7-1.77 1.63v1.43c0 1.22-0.71 2.23-1.85 2.23h-3.42z" fill="url(#paint24_linear_77_12282)"/>
  <path d="m78.41 126.6-2.99 7.8c-0.46 1.59-0.31 3.29 1.43 3.99l1.07 0.48c1.52 0.73 3.19-0.41 3.89-1.83l3.35-8.01c0.97-2.38-2.08-3.14-3.25-3.14h-1.2c-1.19 0-1.92 0.25-2.3 0.71z" fill="#F9D06E"/>
  <path d="m85.49 137.9c2.13 0 3.02-1.7 3.02-3.05 0-1.84-1.35-3.06-2.87-3.06-1.77 0-2.81 1.42-2.81 2.91 0 1.7 1.08 3.2 2.66 3.2z" fill="url(#paint25_linear_77_12282)"/>
  <path d="m76.77 135.2c0 0.6 0.49 1.09 1.09 1.09s1.09-0.49 1.09-1.09-0.49-1.09-1.09-1.09-1.09 0.49-1.09 1.09z" fill="#7A4520"/>
  <path d="m84.07 137.6-1.19 2.27-1.73-0.35" stroke="#7A4520" stroke-linecap="round" stroke-miterlimit="10" stroke-width=".7"/>
  <path d="m81.25 146.8 1.1 1.12 1.19-1.3v-1.59l-1.19-0.7-1.2 0.7 0.1 1.77z" fill="url(#paint26_linear_77_12282)"/>
  <path d="m124.1 126.4-13.05 13.07v2.76l1.85 0.79 11.2-12.39 12.16 12 2.06-2.45-14.22-13.78z" fill="#F6745D"/>
  <path d="m130.6 128.5h3.7v10.06l-3.7-3.73v-6.33z" fill="#F9D06E"/>
  <path d="m114.7 138.7v16.12h20.08v-16.95l-10.58-10.19-9.5 11.02z" fill="#01B7BA"/>
  <path d="m120.9 143h6.54c0.97 0 1.25 0.66 1.25 1.46v10.4h-8.23v-10.68c0-0.7 0.14-1.18 0.44-1.18z" fill="#F9D06E"/>
  <path d="m124.2 140.5c2.24 0 2.77-1.59 2.77-2.66 0-1.7-1.36-2.73-2.62-2.73-1.63 0-2.83 1.35-2.83 2.59 0 1.42 1.08 2.8 2.68 2.8z" fill="#F9D06E"/>
  <path d="m160.1 85.51 5.93-2.12c1.19-0.44 2.48-0.23 3.44 0.36l4.46 2.39c1.46 0.8 2.17 1.69 2.17 3.53v17.41h-19.93v-12.92l0.93-6.03c0.28-1.32 1.47-2.22 3-2.62z" fill="#F6745D"/>
  <path d="m157.2 99.11h18.72c0.92 0 1.35 0.8 1.35 1.53v6.44h-21.17v-6.47c0-0.9 0.35-1.5 1.1-1.5z" fill="#01B7BA"/>
  <path d="m158.5 104.5c1.33 0 1.9-0.98 1.9-1.88 0-1.24-0.97-2.1-2.07-2.1-1.29 0-2.03 1.07-2.03 2.1 0 1.14 0.97 1.88 2.2 1.88z" fill="#F9BF41"/>
  <path d="m174 104.5c1.33 0 1.89-0.98 1.89-1.88 0-1.24-0.97-2.1-2.07-2.1-1.29 0-2.03 1.07-2.03 2.1 0 1.14 0.96 1.88 2.21 1.88z" fill="#F9BF41"/>
  <path d="m159.1 88.52 1.81-0.39h10.2c1.1 0 1.59 0.53 1.59 1.61l-0.96 4.66h-11.7l-1.04-4.17c-0.35-0.96-0.6-1.49 0.1-1.71z" fill="#F9D06E"/>
  <path d="m156.2 108.2h2.35v1.42c0 0.7-0.6 1.09-1.2 1.09h-0.28c-0.8 0-1.4-0.53-1.4-1.5v-1.01h0.53z" fill="#01B7BA"/>
  <path d="m175.9 108.2h2.09v0.97c0 0.72-0.52 1.16-1.29 1.16h-0.15c-0.8 0-1.33-0.53-1.33-1.5v-0.63h0.68z" fill="#01B7BA"/>
  <defs>
    <linearGradient id="paint0_linear_77_12282" x1="122.3" x2="122.3" y1="62.38" y2="217" gradientUnits="userSpaceOnUse">
      <stop stop-color="#18CACE" offset="0"/>
      <stop stop-color="#09B2B1" offset="1"/>
    </linearGradient>
    <linearGradient id="paint1_linear_77_12282" x1="81.57" x2="81.57" y1="79.13" y2="115" gradientUnits="userSpaceOnUse">
      <stop stop-color="#0DB9BE" offset="0"/>
      <stop stop-color="#09B2B1" offset="1"/>
    </linearGradient>
    <linearGradient id="paint2_linear_77_12282" x1="124.5" x2="124.5" y1="79.13" y2="115" gradientUnits="userSpaceOnUse">
      <stop stop-color="#AD433F" offset="0"/>
      <stop stop-color="#AD433F" stop-opacity=".25" offset="1"/>
    </linearGradient>
    <linearGradient id="paint3_linear_77_12282" x1="167" x2="167" y1="79.13" y2="115" gradientUnits="userSpaceOnUse">
      <stop stop-color="#AD433F" offset="0"/>
      <stop stop-color="#AD433F" stop-opacity=".25" offset="1"/>
    </linearGradient>
    <linearGradient id="paint4_linear_77_12282" x1="81.57" x2="81.57" y1="121.9" y2="157.7" gradientUnits="userSpaceOnUse">
      <stop stop-color="#AD433F" offset="0"/>
      <stop stop-color="#AD433F" stop-opacity=".25" offset="1"/>
    </linearGradient>
    <linearGradient id="paint5_linear_77_12282" x1="124.5" x2="124.5" y1="121.9" y2="157.7" gradientUnits="userSpaceOnUse">
      <stop stop-color="#0DB9BE" offset="0"/>
      <stop stop-color="#09B2B1" offset="1"/>
    </linearGradient>
    <linearGradient id="paint6_linear_77_12282" x1="166.8" x2="166.8" y1="121.9" y2="157.7" gradientUnits="userSpaceOnUse">
      <stop stop-color="#AD433F" offset="0"/>
      <stop stop-color="#AD433F" stop-opacity=".25" offset="1"/>
    </linearGradient>
    <linearGradient id="paint7_linear_77_12282" x1="166.9" x2="166.9" y1="122.8" y2="156.3" gradientUnits="userSpaceOnUse">
      <stop stop-color="#AD433F" offset="0"/>
      <stop stop-color="#AD433F" stop-opacity=".25" offset="1"/>
    </linearGradient>
    <linearGradient id="paint8_linear_77_12282" x1="81.36" x2="81.36" y1="166.4" y2="199.6" gradientUnits="userSpaceOnUse">
      <stop stop-color="#AD433F" offset="0"/>
      <stop stop-color="#AD433F" stop-opacity=".25" offset="1"/>
    </linearGradient>
    <linearGradient id="paint9_linear_77_12282" x1="124.5" x2="124.5" y1="165.5" y2="200" gradientUnits="userSpaceOnUse">
      <stop stop-color="#AD433F" offset="0"/>
      <stop stop-color="#AD433F" stop-opacity=".25" offset="1"/>
    </linearGradient>
    <linearGradient id="paint10_linear_77_12282" x1="167" x2="167" y1="165.5" y2="200" gradientUnits="userSpaceOnUse">
      <stop stop-color="#AD433F" offset="0"/>
      <stop stop-color="#AD433F" stop-opacity=".25" offset="1"/>
    </linearGradient>
    <linearGradient id="paint11_linear_77_12282" x1="167.1" x2="167.1" y1="169.1" y2="196.1" gradientUnits="userSpaceOnUse">
      <stop stop-color="#EC5164" offset="0"/>
      <stop stop-color="#F6745D" offset="1"/>
    </linearGradient>
    <linearGradient id="paint12_linear_77_12282" x1="166.9" x2="152.4" y1="168.9" y2="187.1" gradientUnits="userSpaceOnUse">
      <stop stop-color="#F3705B" offset="0"/>
      <stop stop-color="#F9BF41" offset="1"/>
    </linearGradient>
    <linearGradient id="paint13_linear_77_12282" x1="116.8" x2="116.8" y1="185.5" y2="193" gradientUnits="userSpaceOnUse">
      <stop stop-color="#AD433F" offset="0"/>
      <stop stop-color="#AD433F" stop-opacity=".25" offset="1"/>
    </linearGradient>
    <linearGradient id="paint14_linear_77_12282" x1="131.9" x2="131.9" y1="185.5" y2="193" gradientUnits="userSpaceOnUse">
      <stop stop-color="#AD433F" offset="0"/>
      <stop stop-color="#AD433F" stop-opacity=".25" offset="1"/>
    </linearGradient>
    <linearGradient id="paint15_linear_77_12282" x1="125.1" x2="125.1" y1="2.354" y2="51.42" gradientUnits="userSpaceOnUse">
      <stop stop-color="#D69733" offset="0"/>
      <stop stop-color="#B68324" offset="1"/>
    </linearGradient>
    <linearGradient id="paint16_linear_77_12282" x1="124.5" x2="124.5" y1="2.354" y2="48.91" gradientUnits="userSpaceOnUse">
      <stop stop-color="#FBCF62" offset="0"/>
      <stop stop-color="#F9BF41" offset="1"/>
    </linearGradient>
    <linearGradient id="paint17_linear_77_12282" x1="124.5" x2="124.5" y1="21.03" y2="27.63" gradientUnits="userSpaceOnUse">
      <stop stop-color="#AD433F" offset="0"/>
      <stop stop-color="#AD433F" stop-opacity=".25" offset="1"/>
    </linearGradient>
    <linearGradient id="paint18_linear_77_12282" x1="124.5" x2="124.5" y1="38.13" y2="46.61" gradientUnits="userSpaceOnUse">
      <stop stop-color="#AD433F" offset="0"/>
      <stop stop-color="#AD433F" stop-opacity=".25" offset="1"/>
    </linearGradient>
    <linearGradient id="paint19_linear_77_12282" x1="126.2" x2="126.2" y1="38.62" y2="59.86" gradientUnits="userSpaceOnUse">
      <stop stop-color="#02D3D6" offset="0"/>
      <stop stop-color="#01B7BA" offset="1"/>
    </linearGradient>
    <linearGradient id="paint20_linear_77_12282" x1="81.28" x2="81.28" y1="82.31" y2="111.9" gradientUnits="userSpaceOnUse">
      <stop stop-color="#F3705B" offset="0"/>
      <stop stop-color="#F6745D" offset="1"/>
    </linearGradient>
    <linearGradient id="paint21_linear_77_12282" x1="81.28" x2="81.28" y1="125.9" y2="142" gradientUnits="userSpaceOnUse">
      <stop stop-color="#F3705B" offset="0"/>
      <stop stop-color="#F6745D" offset="1"/>
    </linearGradient>
    <linearGradient id="paint22_linear_77_12282" x1="73.87" x2="73.87" y1="141.7" y2="149" gradientUnits="userSpaceOnUse">
      <stop stop-color="#F3705B" offset="0"/>
      <stop stop-color="#F6745D" offset="1"/>
    </linearGradient>
    <linearGradient id="paint23_linear_77_12282" x1="88.68" x2="88.68" y1="144.1" y2="153.9" gradientUnits="userSpaceOnUse">
      <stop stop-color="#F3705B" offset="0"/>
      <stop stop-color="#F6745D" offset="1"/>
    </linearGradient>
    <linearGradient id="paint24_linear_77_12282" x1="81.57" x2="81.57" y1="137.4" y2="153.9" gradientUnits="userSpaceOnUse">
      <stop stop-color="#F3705B" offset="0"/>
      <stop stop-color="#F9BF41" offset="1"/>
    </linearGradient>
    <linearGradient id="paint25_linear_77_12282" x1="85.63" x2="85.63" y1="131.8" y2="137.9" gradientUnits="userSpaceOnUse">
      <stop stop-color="#F3705B" offset="0"/>
      <stop stop-color="#F6745D" offset="1"/>
    </linearGradient>
    <linearGradient id="paint26_linear_77_12282" x1="82.39" x2="82.39" y1="143.1" y2="147.9" gradientUnits="userSpaceOnUse">
      <stop stop-color="#F3705B" offset="0"/>
      <stop stop-color="#F7945C" offset="1"/>
    </linearGradient>
  </defs>
</svg>