<svg xmlns="http://www.w3.org/2000/svg" width="200" height="200" fill="none" viewBox="0 0 200 200">
<!-- SVG created with Arrow, by QuiverAI (https://quiver.ai) -->
  <path d="m172.3 145.2 17.23 3.96c3.06 0.73 4.2 3.74 2.84 7.46l-6.83 19.52c-0.92 2.86-2.97 3.84-6.39 3.22l-18.92-0.44c-3.34-0.37-5.18-2.3-5.01-5.19l0.68-21.42c0.06-3.08 2.19-5.08 4.77-5.27l10.47-1.91c0.4-0.06 0.79-0.04 1.16 0.07z" fill="#00A8A6"/>
  <path d="m169.2 168.8 8.76 2.89c1.84 0.63 3.54-0.62 4.68-1.98 0.89-1.07 2.13-2.04 3.13-2.09 0.89-0.06 1.19 2.8-1.44 3.85-2.01 0.82-3.37 2.26-4.47 3.12l-11.3 2.42-1.6-6.09 2.24-2.12z" fill="#2FB2AE"/>
  <path d="m160.9 151.8c0.72-0.43 3.29 0.03 4.2 0.9l1.63 6.55-2.39 5.13-5.7-1.66c-0.43-2.73 0.68-7.04 2.26-10.92z" fill="#F26F59"/>
  <path d="m160.6 154.7c0.18-1.5 2.18-2.51 3.07-1.98l0.66 2.37-1.33 2.45-3.42 0.89 1.02-3.73z" fill="#F0C44F"/>
  <path d="m159.3 161.2c-0.53-1.15 0.55-2.87 2.43-3.38 1.53-0.44 2.62-0.41 3.1 0.6l-0.65 5.31-4.88-2.53z" fill="#F0ECEC"/>
  <path d="m163.1 159.1c0.41 0 0.74-0.32 0.74-0.72 0-0.39-0.33-0.71-0.74-0.71s-0.74 0.32-0.74 0.71c0 0.4 0.33 0.72 0.74 0.72z" fill="#594A42"/>
  <path d="m174.9 164.3 8.87 1.36c2.86 0.78 3.79 3.23 2.34 5.56-1.28 2.2-4.08 3.06-6.37 2.63l-8.54-1.08c-2.39-0.78-2.82-3.14-1.65-5.12 1.26-2.13 3.08-3.32 5.35-3.35z" fill="#F0C44F"/>
  <path d="m175.4 152.2 8.06 1.95c2.7 0.77 4.48 3.05 3.87 5.97-0.84 4.05-3.96 6.23-8.2 4.99l-5.03-1.46c-2.93-0.98-3.78-4.35-2.9-7.11 1.02-2.74 2.16-4.46 4.2-4.34z" fill="#8B5E3C"/>
  <path d="m173.2 153.7c0.37-2.12 2.67-2.52 4.27-1.74l5.76 1.74c2.3 0.66 3.42 2.75 2.64 5.58-1 3.81-2.84 5.44-7.09 4.51-4.51-1.01-7.16-2.9-6.27-7.1 0.23-1.11 0.41-2.06 0.69-2.99z" fill="#F0C44F"/>
  <path d="m175.7 154c1.22 0 1.99 0.97 1.79 2.3l-0.53 3.16c-0.23 1.08-1.21 1.54-2.48 1.14-1.3-0.44-2-1.71-1.7-3.49 0.35-1.81 1.4-3.2 2.92-3.11z" fill="#F0C44F"/>
  <path d="m182.1 154.4c1.25 0.18 1.73 1.46 1.38 3.01-0.44 1.93-1.42 2.91-2.72 2.6-1.23-0.35-1.72-1.42-1.41-3.05 0.38-1.85 1.38-2.78 2.75-2.56z" fill="#F0C44F"/>
  <path d="m176.5 160.5c0.35 0 0.65-0.29 0.65-0.65s-0.3-0.65-0.65-0.65c-0.36 0-0.65 0.29-0.65 0.65s0.29 0.65 0.65 0.65z" fill="#594A42"/>
  <path d="m178.6 160.6c0.36 0 0.65-0.29 0.65-0.65s-0.29-0.65-0.65-0.65-0.65 0.29-0.65 0.65 0.29 0.65 0.65 0.65z" fill="#594A42"/>
  <path d="m177.1 169.9 1.14 1.72-0.85 1.01-1.36-0.45-0.65-2.11 1.72-0.17z" fill="#F0C44F"/>
  <path d="m141.6 158 16.52-6.64c2.69-0.93 5.3 0.5 5.73 3.36l0.31 20.99c0.17 2.51-1.25 4.02-4.26 4.88l-10.94 6.6c-2.43 1.6-5.94 0-6.78-2.98l-6.27-18.29c-1.01-3.45 1.17-6.64 5.69-7.92z" fill="#00A8A6"/>
  <path d="m143.1 154.8 9.14-0.88c2.55-0.31 4.15 2.14 3.84 5.18l-1.45 20.7-5.57 3.91c-2.86 1.24-5.19-0.56-5.84-3.91l-3.96-21c-0.43-2.53 1.24-4 3.84-4z" fill="#B37D6A"/>
  <path d="m151 158.9 1.78 0.15c1.02 0.17 1.85 1.1 1.52 2.92l-1.43 6.91-3.55-1.18-1.19-6c-0.06-1.47 1.27-2.9 2.87-2.8z" fill="#8B5E3C"/>
  <path d="m152.8 164.9 1.27 2.1-0.27 8.51-4.07 0.14-0.67-6.91c0.19-1.94 1.44-3.46 3.74-3.84z" fill="#C8AA82"/>
  <path d="m147.8 157.1c0.68 0 1.23-0.63 1.23-1.41s-0.55-1.41-1.23-1.41c-0.69 0-1.24 0.63-1.24 1.41s0.55 1.41 1.24 1.41z" fill="#8B5E3C"/>
  <path d="m153.7 161.1c0.51-0.59 0.24-1.79-0.68-2.2-1.11-0.48-2.25-0.15-2.68 0.82l-0.35 1.44c-0.17 0.92 0.55 1.59 1.69 1.5 1.16-0.12 1.66-0.86 2.02-1.56z" fill="#8B5E3C"/>
  <path d="m150.3 161.6c0.32 0 0.58-0.26 0.58-0.58 0-0.31-0.26-0.57-0.58-0.57s-0.58 0.26-0.58 0.57c0 0.32 0.26 0.58 0.58 0.58z" fill="#594A42"/>
  <path d="m152.6 161.4c0.28 0 0.51-0.24 0.51-0.53 0-0.28-0.23-0.52-0.51-0.52-0.29 0-0.52 0.24-0.52 0.52 0 0.29 0.23 0.53 0.52 0.53z" fill="#594A42"/>
  <path d="m122.5 170.2 15.08-12.44c2.5-1.84 5.59-0.43 6.37 2.33l5.56 18.4c0.89 2.98-0.47 5.64-3.68 7.14l-1.38 8.62c-1.7 1.69-4.65 1.47-6.18-0.33l-15.94-18.7c-1.8-1.97-1.65-4.18 0.17-5.02z" fill="#00A8A6"/>
  <path d="m128.4 171.4 4.39-0.06 3.42 7.33-2.2 4.94-5.97-6.92-0.33-3.52 0.69-1.77z" fill="#F26F59"/>
  <path d="m133 173.9c1.31-0.24 2.64 0.81 2.5 2.75l-0.73 3.28-3.34 0.06-0.21-2.7c0.09-1.56 0.69-3.13 1.78-3.39z" fill="#F0ECEC"/>
  <path d="m133.2 176.5c0.29 0 0.54-0.25 0.54-0.55s-0.25-0.54-0.54-0.54c-0.3 0-0.55 0.24-0.55 0.54s0.25 0.55 0.55 0.55z" fill="#594A42"/>
  <path d="m133.9 181.9c1.69-0.96 3.9-0.5 5.05 1.14l2.64 4.83-3.82 0.86-3.59-2.54-1.05-2.39 0.77-1.9z" fill="#F26F59"/>
  <path d="m134 183.4c0.89-0.43 1.7-0.14 2.23 0.65l0.75 2.09h-1.92l-1.26-1.35 0.2-1.39z" fill="#F0ECEC"/>
  <path d="m26.41 119-22.73-16.31c-1.67-1.26-1.87-3.62-0.59-5.43l11.18-15.98c1.61-2.39 3.91-3.15 5.84-1.82l18.45 8.2c2.43 1.36 3.05 4.03 1.35 6.55l-11.27 23.33c-0.66 1.32-1.38 1.75-2.23 1.46z" fill="#00A8A6"/>
  <path d="m26.46 118.9-22.89-14.84c-2.04-1.45-2.08-4.32-0.24-7.08l8.13-11.98c1.6-2.45 4.71-3.16 6.92-1.53l19.6 11.91c2.3 1.45 2.95 4.19 1.18 6.7l-10.48 15.56c-0.72 1.14-1.44 1.52-2.22 1.26z" fill="#EA9D7A"/>
  <path d="m11.82 33.99 5.12-2.66 6.77 8.32-2.64 5.67-3.96 1.33-7.89-4.42 0.89-5.52 1.71-2.72z" fill="#8B5E3C"/>
  <path d="m13.78 37.94c1.33-2.86 3.94-4.13 6.33-3.12l3.3 2.01 2.01 3.61c0.65 2.53-0.49 5.39-3.44 6.57-3.55 1.46-6.76-0.09-8.54-2.95-1.7-0.49-3.22-1.35-2.92-3.54 0.33-1.63 1.56-2.41 3.26-2.58z" fill="#F0C44F"/>
  <path d="m17.87 41.56c0.32 0 0.58-0.41 0.58-0.93 0-0.51-0.26-0.92-0.58-0.92-0.31 0-0.58 0.41-0.58 0.92 0 0.52 0.27 0.93 0.58 0.93z" fill="#594A42"/>
  <path d="m25.57 47.93 1.32 0.78 1.78-0.3 0.54-0.91 0.85-0.35 3.82-3.94 0.23 1.95-1.14 1.95-1.26 1.01-1 1.87-2.04 1.73-2.3-0.35-2.11-2.12 1.31-1.32z" fill="#CC9659"/>
  <path d="m26.23 47.52 1.52 0.66 2.04-0.86 2.43-1.21 1.7-2.36-0.21-1.74-3.86 2.86-1.84 0.35-2.21 0.98 0.43 1.32z" fill="#F0C44F"/>
  <path d="m123.6 28.98-88.98 36.1c-7.22 2.98-9.49 10.13-6.86 16.58l35.44 83.16c2.92 5.66 8.95 7.57 14.6 5.62l88.63-33.57c6.79-3.07 8.23-10.85 5.89-15.79l-34.24-84.84c-2.76-5.92-9.02-8.87-14.48-7.26z" fill="#00A8A6"/>
  <path d="m124.3 32.06-87.91 34.67c-6.21 2.55-8.26 10.15-5.71 16.14l10.28 22.54 10.92-4.15c-0.3 1.81 0.59 2.97 2.19 2.8 1.61-0.17 2.39-1.72 1.73-3.66l9.34-3.49-8.88-22.03c-2.04-4.81-1.04-11.17 4.17-13.27l12.84-8.65 7.62 0.86 0.66-5.7 23.51-10.62 18.08-5.59c4.96-1.62 11.74 0.7 13.52 6.2l10.62 28.14-5.39 1.86c0.66 1.63-0.31 3.26-2.01 3.43-1.43 0.17-2.69-1.09-2.26-2.64l-3.64 0.86-4.4-13.87c-1.11-2.86-4.06-3.45-6.27-2.55l-10.13 3.87-2.38-6.92c1.9-1.44 1.9-3.98 0.2-4.98-0.78-0.5-1.81-0.5-2.81-0.15l-2.1-7.05 18.21-6.05z" fill="#2FB2AE"/>
  <path d="m41.72 6.9 13.21-0.72c2.4-0.06 3.84 1.78 3.84 4.23v24.07c0 2.45-1.44 4.28-3.84 4.28l-14.88 1.84c-2.43 0-4.03-1.84-4.4-4.7l-2.54-22.46c-0.34-3.52 1.7-6.22 4.71-6.28l3.9-0.26z" fill="#00A8A6"/>
  <path d="m37.39 8.29 11.38-0.59c3.21-0.34 5.05 0.73 5.05 3.88v21.94l-12.74 5.69c-2.55 0.53-4.33-1.1-4.66-4.27l-3.21-20.84c-0.35-3.17 1.25-5.57 4.18-5.81z" fill="#B37D6A"/>
  <path d="m48.13 9.07c1.81-1.45 3.73-1.88 5.33-1.22 1.85 0.76 2.2 3.43 0.36 4.96l-5.69 0.11v-3.85z" fill="#B37D6A"/>
  <path d="m39.23 11.61c1.46-0.86 3.23-0.45 4.37 1.2 2.39-1.26 5.51-1.69 7.56-0.61 2.43 1.24 2.66 3.44 2.3 5.71l-1.26 6.72-3.12 1.08-3.96-0.29-4.81-2.86c-1.26-2.05-2.69-5.36-2.03-7.75 0.34-1.26 0.4-2.3 0.95-3.2z" fill="#8B5E3C"/>
  <path d="m46.66 15.41c2.05-0.86 3.5 0.86 3.87 2.67 0.53 2.45-0.82 4.4-3.32 4.34-2.29-0.06-2.9-2.01-2.47-4.14 0.33-1.58 0.89-2.44 1.92-2.87z" fill="#B37D6A"/>
  <path d="m45.88 26.81c1.84-1.76 5.28-2.3 7.83-0.9v8.8l-8.87 1.62c-0.33-2.95-0.36-7.6 1.04-9.52z" fill="#C5A181"/>
  <path d="m47.12 19.5c0.68 0.13 0.89 0.27 1.32 0 0.44-0.29 0.61-0.61 0.98-0.78" stroke="#594A42" stroke-linecap="round" stroke-miterlimit="10" stroke-width=".5"/>
  <path d="m48.18 18.99-0.34-1.28" stroke="#594A42" stroke-linecap="round" stroke-miterlimit="10" stroke-width=".5"/>
  <path d="m57.01 7.7 18.81 0.11c2.86 0 3.99 2.2 3.9 4.74l-0.27 24.19c0 2.54-2.04 4.17-4.25 4.08l-17.64 0.09c-2.86-0.14-3.85-1.98-3.85-4.52l0.11-25.11c0-2.36 0.99-3.58 3.19-3.58z" fill="#00A8A6"/>
  <path d="m57.21 7.42 18.58 0.28c2.63 0 3.9 2.19 3.76 4.64v23.41c0 2.67-1.84 4.22-4.27 4.22h-17.65c-2.29 0-3.81-1.55-3.81-3.9v-24.82c0-2.54 1.14-3.83 3.39-3.83z" fill="#F0C44F"/>
  <path d="m59.81 12.74 3.86 0.87 3.55 0.85 3.74-0.85 2.72-1.1 0.43 5.6-1.14 4.91-1.26 2.26-3.72 1.07-4.18-1.44-5.5-3.67 1.84-3.95-0.34-4.55z" fill="#E86835"/>
  <path d="m62.78 28.81c0.93-1.8 3.03-3.53 5.04-3.36 2.1 0.17 3.89 1.73 4.42 3.68l8.79-2.12-1.02 4.4-2.95 4.66-4.88 1.26-9.77-0.24c-2.21-1.34-2.04-4.89 0.37-8.28z" fill="#E86835"/>
  <path d="m60.01 21.02 1.02-1.08c1.6-1.43 5.13-1.72 7.08-1.19 2.55 0.72 4.76 1.36 5.9 2.49l1.6 0.98-3.55 4.04-0.53 1.85-3.54 0.52-3.86-2.72-6.86-4.18 2.74-0.71z" fill="#F0ECEC"/>
  <path d="m64.07 33.11 2.04-0.18 1.02 0.09 0.26 3.95-1.39 0.29-1.26-0.17-0.67-3.98z" fill="#6D4942"/>
  <path d="m65.31 24.16 1.42-0.23 0.92 0.55 0.17 2.53-1.26 2.2-1.6-2.03 0.35-3.02z" fill="#F0C44F"/>
  <path d="m67.22 23.93c0.47 0 0.85-0.35 0.85-0.79 0-0.43-0.38-0.78-0.85-0.78s-0.84 0.35-0.84 0.78c0 0.44 0.37 0.79 0.84 0.79z" fill="#594A42"/>
  <path d="m72.61 24.71 4.31-1.69 1.14 1.26-1.02 1.74 0.08 2.03-2.1-0.87-0.79 1.95-1.84 0.43 0.22-4.85z" fill="#F0ECEC"/>
  <path d="m70.63 33.16 1.78-0.78 2.43 0.73 0.85 3.19-2.55 0.86-2.63-0.54 0.12-3.46z" fill="#E86835"/>
  <path d="m71.71 30.3 1.14-1.17 1.85 1.17-0.44 4.18-1.52 0.86-2.55-0.72 0.17-2.2 1.35-2.12z" fill="#E86835"/>
  <path d="m62.81 13.95-2.1-0.86-0.53 3.32 1.6 0.53 1.03-2.99z" fill="#F0C44F"/>
  <path d="m73.08 13.41-0.23 3.09 1.14-0.49-0.23-3.18-0.68 0.58z" fill="#F0C44F"/>
  <path d="m114.8 77.71-21.47 7.9c-2.21 0.91-2.58 3.53-1.56 6.07l2.96 5.53c-2.21 0-2.99 1.63-2.46 3.36 0.69 1.84 2.46 2.27 3.79 1.19l2.4 6.75c0.85 1.45 2.3 1.51 3.8 0.72l19.05-7.71c1.85-0.78 3.69 0.2 4.47 2.21l7.22 17.17c1.02 2.45 3.07 2.95 5.36 1.91l25.05-9.39c2.44-1.01 2.82-3.46 1.8-6.19l-6.21-14.12c-1.25-3.3-3.74-3.89-6.48-2.74l-20.66 8.06c-2.3 0.98-4.14 0-5.28-2.63l-8.14-16.47c-0.9-1.81-2.04-2.24-3.64-1.62z" fill="#E86835" fill-opacity=".85"/>
  <path d="m150.8 90.91-18.08 7.29c-3.11 1.36-4.25 3.91-2.99 7.36l5.19 13.68c0.89 2.54 3.1 3.4 5.65 2.16l22.32-8.38c2.43-1.07 3.12-3.4 1.98-6.41l-5.94-13.59c-1.14-2.74-4.1-3.59-8.13-2.11z" fill="#EA9D7A"/>
  <path d="m144.5 97.42 2.13 0.24c3.11 0.77 4.8 4.39 4.54 8.4l-0.24 2.05 4.78 0.37 1.78 3.27-0.68 2.62-6.42 1.55-1.04-3.17-1.02 0.41 0.17 3.72-2.81 1.08-1.7-4.54-5.76-1.3c-2.43-2.59-4.13-7.41-2.19-10.4 1.13-1.84 4.76-3.69 8.46-4.3z" fill="#8B5E3C"/>
  <path d="m138.7 102.8c0.98-0.97 2.24-0.56 3.07 0.27l2.4-1.55c1.53-0.86 2.88-0.6 3.54 0.4l0.89 3.28-1.6 3.84-4.62 1.08-3.74-1.63-1.23-3.37c-0.24-0.75 0.19-1.65 1.29-2.32z" fill="#F0C44F"/>
  <path d="m143 107.1 1.67-0.51 0.37 1.01-1.26 0.69-1.23-0.79 0.45-0.4z" stroke="#594A42" stroke-linecap="round" stroke-miterlimit="10" stroke-width=".3"/>
  <path d="m138.9 126 27.18-11.14 3.64 8.01c1.95 4.69-1.79 10.79-6.11 12.71l-20.15 7.9-4.39-8.32c-2.39 1.14-4.43 0-4.8-1.74-0.44-2.04 0.55-3.41 2.66-3.76l-0.78-2.53c-0.54-1.63 0.78-2.16 2.75-1.13z" fill="#2FB2AE"/>
  <path d="m42.38 98.58 9.53 26.82c0.88 2.73 2.89 3.32 5.44 2.31l15.31-7.04c2.4-0.96 2.66-2.59 1.77-5.04l-1.35-5.32c1.84-0.35 2.35-2.2 1.43-3.65-0.89-1.35-2.49-1.35-3.43-0.35l-2.66-7.23c-0.78-1.76-2.63-2.02-4.67-1.33l-21.37 0.83z" fill="#F26B5A"/>
  <path d="m113.5 132.5 5.66-2.45c-1.14-1.84-0.25-3.84 1.44-4.14 1.6-0.24 2.72 0.74 2.89 1.9l4.68-2.45c1.6-0.76 2.13-2.71 1.35-4.91l-4.53-14.75c-1.25-2.53-3.8-3.19-6.01-2.01l-13.66 5.33c-2.14 0.85-3.06 2.48-2.63 4.58l2.76 5.98c1.84-0.17 3.2 1.19 2.93 3.02-0.43 1.84-2.03 2.47-3.73 1.75l2.64 4.75c1.36 2.52 3.26 4.22 6.21 3.4z" fill="#2FB2AE"/>
  <path d="m112.2 133.4 7.8-3.3c-1.26-1.84-0.23-3.47 1.12-3.81 1.53-0.44 2.76 0.34 3.13 1.8l10.93-3.6 1.92 3.95-0.43 1.83c-1.94 0.96-2.37 2.69-1.46 4.43 1.02 1.63 2.69 1.87 4.12 1.01l3.85 7.16-21.12 8.38c-3.43 1.26-6.38 0.18-7.41-2.68l-4.38-9.91c-0.89-2.33-0.23-4.28 1.93-5.26z" fill="#F26F59"/>
  <path d="m52.5 131.8 10.69-3.05c-0.43 2.03 0.7 2.32 1.84 2.03 1.53-0.34 2.06-1.89 1.62-3.84l8.41-3.7 7.91 19.71c1.26 2.95 4.21 3.71 6.51 2.84l18.74-7.14 4.29 10.54c0.89 2.95-1.05 6.65-4.77 8l-28.73 11.13c-5.93 1.95-11.79-1.14-13.84-6.08l-12.67-30.44z" fill="#2FB2AE"/>
  <path d="m58.95 63.56 17.34-6.64c2.43-0.86 3.89 0.49 5.02 3.22l7.43 21.08c1.02 2.95-0.33 5.94-3.29 7.12l-13.34 5.57c-3.43 1.36-5.98-0.32-7.02-3.27l-8.54-20.64c-1.02-2.95-0.34-5.25 2.4-6.44z" fill="#00A8A6" fill-opacity=".51"/>
  <path d="m59.23 63.42 16.75-6.17c2.63-0.87 3.65 0.49 4.79 3.34l6.65 19.82c1.02 2.95-0.41 5.25-3.52 6.4l-13.09 5.01c-2.74 0.97-4.59-0.59-5.73-3.54l-7.9-19.35c-1.02-2.77-0.49-4.5 2.05-5.51z" fill="#EA9D7A"/>
  <path d="m62.61 67.02 4.75 0.23 6.84-5.53 2.95 1.46 1.03 5.93 0.78-0.29 1.02 0.29-3.97 6.5-3.1 2.2-4.66-1.63-4.69-5.1-0.95-4.06z" fill="#E86835"/>
  <path d="m64.16 70.42 1.6 0.08 1.77-0.6c1.7-0.53 3.86-0.24 5.39 0.77 1.53 1.08 2.06 3.25 1.22 5.26l-0.53 1.68-0.89 2.01-2.55-1.46-5.75-2.01-1.03-2.04 0.77-3.69z" fill="#F0ECEC"/>
  <path d="m72.78 83.02 0.43-0.86 1.36-0.29 1.13 0.17 0.78 1.21-0.23 2.45-1.68 0.5-1.45-0.5-0.34-2.68z" fill="#6D4942"/>
  <path d="m70.41 82.16 0.66-2.04 2.31-0.86 2.95 1.35 0.23 3.3-1.36 0.86-2.05-0.51-2.74-2.1z" fill="#E86835"/>
  <path d="m73.41 70.91c0.73-0.73 1.91-0.9 2.84-0.41 0.9 0.53 1.13 1.79 0.38 2.79l-3.25 3.45-1.36-1.16c-0.43-1.26 0.2-3.52 1.39-4.67z" fill="#F0ECEC"/>
  <path d="m72.48 75.75c0.4 0 0.73-0.42 0.73-0.94 0-0.51-0.33-0.92-0.73-0.92-0.41 0-0.74 0.41-0.74 0.92 0 0.52 0.33 0.94 0.74 0.94z" fill="#594A42"/>
  <path d="m137.6 78.16c0 6.76-5.46 11.65-11.83 11.12-5.72-0.51-8.51-4.85-7.75-10.44 0.86-6.26 5.64-7.93 10.33-7.67 5.75 0.34 9.25 3.29 9.25 6.99z" fill="#00A8A6" fill-opacity=".51"/>
  <path d="m139.8 80.73c1.11 6.23-4.65 10.95-9.8 11.89-6.79 1.23-9.62-4.69-9.06-9.6 0.72-6.19 5.23-8 8.21-7.59 4.78 0.58 6.45 1.83 10.65 5.3z" fill="#B5423A"/>
  <path d="m125.9 77.6c1.91-1.39 5.11-0.71 6.16 1.24l1.16 2.79 4.88 3.49c0.92 1.14 0 2.81-1.6 2.41l-3.42-2.41-4.96 2.41-2.3-0.43-2.43-1.84c-1.26-1.15-1.49-3.85 0-6.05l2.51-1.61z" fill="#353132"/>
  <path d="m126.7 79.91c1.14-0.29 2.3-0.06 2.99 0.44 1.26 0.91 2.95 3.64 3.12 5.84 0.43 3.09 1.18 5.15-2.03 6.54-3.34 1.46-5.55 0.49-6.44-3.1-0.89-3.31-0.24-6.9 1.09-9.02l1.27-0.7z" fill="#F0F0F0"/>
  <path d="m129.7 82.61c0.18-0.4-0.02-0.88-0.44-1.05s-0.9 0.02-1.08 0.41c-0.17 0.4 0.03 0.88 0.45 1.05s0.9-0.02 1.07-0.41z" fill="#F0C44F"/>
  <path d="m80.17 114.7 14.74-5.5c2.86-1.06 4.7 0.44 5.72 3.3l6.87 19.47c1.03 2.99-0.43 5.94-3.17 6.89l-13.92 5.38c-3.21 1.23-5.16-0.29-6.69-3.6l-6.22-18.2c-1.14-3.52-0.35-6.57 2.67-7.74z" fill="#00A8A6" fill-opacity=".51"/>
  <path d="m80.18 114.8 14.3-5.35c3.24-1.25 5.18 0.59 6.32 3.76l6.21 17.35c1.26 3.36 0 5.81-3.32 7.04l-12 4.29c-3.07 1.15-5.62-0.48-7.07-4.14l-6.48-15.39c-1.36-3.55-0.7-6.37 2.04-7.56z" fill="#F0C44F"/>
  <path d="m86.4 120.3c1.81-3.2 6.96-4.36 9.51-2.09l1.95 4.93 4.76 2.85-1.14 1.42-2.96-0.17-3.23 3.27-4.76 0.29-5.37 2.55-0.43-2.13 1.52-4.94c-1.02-2.36-0.94-4.28 0.15-5.98z" fill="#353132"/>
  <path d="m89.83 119.7c1.32-0.76 3.36-0.35 4.02 1.1l1.26 2.55c1.94 2.04 2.96 4.3 2.43 6.23-0.84 2.73-3.27 5.27-6.33 5.8-2.55 0.53-4.08-1.68-4.62-4.54l-0.23-6.74c-0.14-2.33 0.75-3.88 3.47-4.4z" fill="#F0F0F0"/>
  <path d="m91.36 123.7c0.47 0 0.85-0.35 0.85-0.79s-0.38-0.79-0.85-0.79-0.85 0.35-0.85 0.79 0.38 0.79 0.85 0.79z" fill="#F0C44F"/>
  <circle cx="150" cy="27.3" r="8.573" fill="#00A8A6"/>
  <circle cx="149.7" cy="25.85" r="7.04" fill="#2FB2AE" stroke="#00A8A6" stroke-width="2"/>
  <circle cx="173.9" cy="21.7" r="8.212" fill="#00A8A6"/>
  <circle cx="173.6" cy="19.04" r="7.04" fill="#2FB2AE" stroke="#00A8A6" stroke-width="2"/>
  <circle cx="171" cy="41.92" r="7.478" fill="#EA6F59" stroke="#B5423A"/>
  <circle cx="170.7" cy="40.95" r="6.111" fill="#F28067"/>
  <circle cx="151.8" cy="29.24" r="7.478" fill="#2FB2AE" stroke="#00A8A6" stroke-width="2"/>
  <circle cx="130.3" cy="85.12" r="9.004" fill="#B5423A"/>
  <circle cx="106.7" cy="94" r="9.004" fill="#00A8A6" stroke="#007670"/>
  <path d="m102.7 85.8c2.29-1.71 5.4-1.06 6.42 0.58l2.3 3.03 4.68 4.5-1.46 0.97-1.52-2.46-0.33 4.18c-1.02 1.83-3.67 2.81-6.09 2.12-2.55-0.86-3.57-2.8-3.55-5.16l-1.55-0.14c-1.26-2.73-1.26-5.69 1.1-7.62z" fill="#353132"/>
  <path d="m105.3 88.53 1.14-0.08c1.02 0.59 1.55 1.77 2.07 2.86l0.75 2.54c0.89 2.27 0.36 4.46-2.19 5.47-2.43 0.9-4.47-1.2-5.41-4.06l0.69-6c0.37-1.84 2.32-1.9 2.95-0.73z" fill="#F0F0F0"/>
  <circle cx="106.7" cy="90.05" r=".8065" fill="#F0C44F"/>
  <circle cx="152" cy="79.38" r="9.004" fill="#B5423A"/>
  <path d="m146.1 72.92c1.46-2.45 5.97-2.8 7.81-1.44l2.1 2.13 1.14 4.6-1.36 5.9c-0.89 1.35-4.86 1.98-6.7 1.12-1.6-0.86-2.38-2.96-2.92-6.11l-0.89-1.84 0.82-4.36z" fill="#353132"/>
  <path d="m150.5 73.72c0.89-0.57 2.59-0.28 2.92 1.08l-0.44 2.37c0.54 1.84 0.48 3.22-0.31 4.49-1.03 1.84-3.24 1.64-4.6-0.31-0.89-1.36 0-4.32 1.28-6.17l1.15-1.46z" fill="#F0F0F0"/>
  <circle cx="151.6" cy="74.93" r=".6592" fill="#F0C44F"/>
  <circle cx="42.15" cy="163.4" r="7.745" fill="#EA6F59" stroke="#B5423A"/>
  <circle cx="14.45" cy="157.8" r="8.573" fill="#00A8A6"/>
  <circle cx="14.02" cy="156.6" r="7.04" fill="#2FB2AE" stroke="#00A8A6" stroke-width="2"/>
  <circle cx="48.25" cy="170.9" r="8.2" fill="#F28168" stroke="#B5423A"/>
  <circle cx="18.1" cy="16.9662 L 26.89,9.35 C 29.09,7.51 32.05,8.05 33.73,10.41 L 38.91,15.92 C 40.41,17.65 40.24,20.3 38.62,22.94 L 32.01,32.32 C 30.65,34.51 L 26.12,37.68 L 23.46,36.71 L 10.79,24.28 C 8.95,21.62 9.52,17.65 11.72,16.1 L 18.09,16.97 V 16.96 Z" fill="#00A8A6"/>
  <path d="m24.01 16.73" fill="#353132"/>
  <path d="m26.26 23.64 0.78 0.49-0.43 0.63-1.26-0.6-0.23-0.67 1.14-0.35v0.5z" fill="#F0C44F"/>
  <path d="m28.21 19.36c0.89-0.9 1.91-0.73 2.25 0.45 0.23 0.86-0.53 2.32-1.67 2.32-1.02 0-1.45-1.93-0.58-2.77z" fill="#F0F0F0"/>
  <path d="m19.18 23.91c0 2.36 1.26 3.47 1.93 3.3l-0.35 7.61-2.13-3.57 0.55-7.34z" fill="#353132"/>
  <path d="m20.77 25.11" fill="#F0F0F1"/>
  <path d="m19 36.33 1.84 0.86 0.89 0.17-1.14 0.75-1.59-1.78z" fill="#00A8A6"/>
  <path d="m27.39 39.06h2.96l-1.03 0.64-1.46-0.13-0.47-0.51z" fill="#F0C44F"/>
  <path d="m180.2 64.2-2.43 0.41-14.01-10.53c-1.95-1.45-2.61-0.52-1.73 0.84l1.94 1.94-8.5-1.84c-2.3-0.66-2.83 1.06-0.89 2.14l4.76 2.1-7.75-0.17" fill="#F6C6A5"/>
  <path d="m175 78.01 24.74 13.42-0.17-21.32-20.53-6.25-4.42 12.85 0.38 1.3z" fill="#F26F59"/>
</svg>