<svg xmlns="http://www.w3.org/2000/svg" width="200" height="200" fill="none" viewBox="0 0 200 200">
<!-- SVG created with Arrow, by QuiverAI (https://quiver.ai) -->
  <path d="m74.09 37.82c-6.74-15.71-18.56-23.77-34.07-23.95-18.67-0.23-35.26 12.89-35.97 32.05-0.34 6.79 0.43 11.54 1.84 13.33l2.5-2.05c3.27-8.11 8.12-9.79 14.02-9.22 6.83 0.65 13.53 5.29 15.02 15.54 1.53 10.44-1.46 23.35-0.3 31.66 1.54 11.23 6.44 22.25 16.1 26.91l80.02-0.36c2.03-5.62-0.01-16.27-2.13-20.66l-57.03-63.25z" fill="#231F20" opacity=".15"/>
  <path d="m74.01 35.28c-6.74-15.25-18.56-23-34.07-22.98-18.67 0-35.94 12.49-37.27 32.27-0.41 5.44-0.01 10.7 1.64 12.93l1.67 0.48c3.27-8.77 8.13-12 14.03-11.87 7.76 0.18 14.74 4.56 16.89 14.78 2.19 10.33-1.21 23.49 0.45 33.19 1.84 10.78 6.21 20.62 15.78 26.06l13.32-0.14 10.03-20.31-2.47-64.41z" fill="#F26951"/>
  <path d="m5.18 57.58c3.88-7.88 7.98-11.98 16.26-11.51 7.63 0.44 14.51 6.36 15.87 16.12 1.4 9.98-1.17 21.44-0.35 29.77 0.95 10.34 6.22 22.65 15.21 28.04h-15.19c-7.86-6.26-11.72-16.03-11.57-26.38 0.12-8.55 2.17-15.59 3.34-23.63-2.32 1.19-5.09 1.72-8.63 1.29-5.93-0.69-12.44-4.23-14.94-13.7z" fill="#F9BF53"/>
  <path d="m119.7 4.01c-4.02-0.6-10.64 8.64-11.16 12.14-4.93-1.41-13.56-1.63-19.25 0-1.97-4.98-6.88-12.23-10.91-11.7-4.67 0.6-7.25 13.63-6.09 19.53 0.44 2.39 1.12 3.76 1.6 4.44-3.82 6.12-6.71 11.38-6.24 21.99-7.53 2.79-11.24 8.48-11.24 16.5 0 9.15 7 16.28 16.34 17.57l1.15 0.84-0.79 34.77h48.8c3.75-8.01 6.08-23.71 6.08-29.01l-0.01-6.87c8.36-3.43 14.03-9.45 14.03-17.7 0-7.46-4.77-12.82-9.93-15.16 0.18-11.51-2.36-16.01-6.76-22.59 4.16-5.57 2.39-18.75-2.33-23.5-0.91-0.93-1.98-1.11-3.29-1.25z" fill="#231F20" opacity=".15"/>
  <path d="m120.2 4.08c-4.02-1.06-10.8 8.33-12.21 12l3.38 4.37 12.22 7.27c5.09-5.76 2.17-22.23-3.39-23.64z" fill="#F26951"/>
  <path d="m77.58 4.08c-4.11 0.98-6.69 13.34-5.53 19.23 0.76 4.06 2.61 6.02 3 6.33l13.34-13.47c-1.21-3.68-6.43-13.11-10.81-12.09z" fill="#F26951"/>
  <path d="m118.5 10.56c-3.04-1.14-6.24 4.62-6.85 7.37l8.54 5.79c2-1.32 2.47-11.7-1.69-13.16z" fill="#F9BF53"/>
  <path d="m78.86 10.56c-4.15 1.21-3.08 12.69-2.28 13.29l8.58-6.71c-0.6-2.25-2.93-7.13-6.3-6.58z" fill="#F9BF53"/>
  <path d="m118.3 21.85c-7.59-6.01-17.29-7.99-27.71-6.63-8.27 1.16-17.3 6.81-19.42 16l-0.98 14.06 57.71 0.24c0.71-8.51-1.49-17.18-9.6-23.67z" fill="#F26951"/>
  <path d="m130.8 49.1c0.15-5.04-0.46-14.01-7.89-18.11-14.1-3.98-19.73 6.08-22.37 16.39l-4.34 1.24c-2.49-9.72-7.29-18.45-18.71-18.45-9.73 0-11.24 9.26-11.15 18.77-6.82 2.51-11.49 8.25-11.38 16.98 0.08 8.69 7.29 17.27 20.24 18.46 8.82 0.84 20.89 0.8 31.64-0.04 13.26-1.09 23.64-2.62 31.35-10.73 4.9-6.34 3.88-19.02-7.39-24.51z" fill="#F9BF53"/>
  <path d="m92.1 51.65c-0.18 2.5 3.01 4.18 4.36 4.76 0.71 0.31 2.79-0.47 4.19-1.75 1.68-1.58 3.19-3.93 2.06-4.75-1.88-1.36-10.27-2.13-10.61 1.74z" fill="#754727"/>
  <path d="m77.37 48.62c0.3-3.47 2.44-4.1 4.44-4.13s4.1 0.87 4.52 4.13" stroke="#754727" stroke-linecap="round" stroke-linejoin="round" stroke-width="2.662"/>
  <path d="m110.5 48.62c0.46-3.01 2.47-4.21 4.67-4.31 2.35-0.11 4.11 1.5 4.41 4.31" stroke="#754727" stroke-linecap="round" stroke-linejoin="round" stroke-width="2.662"/>
  <path d="m89.71 58.44c0.88 2.73 2.5 3.65 5.35 3.38 2.54-0.25 3.5-2.17 3.55-3.97 0.6 1.8 1.76 3.37 4.3 3.46 3.13 0.12 4.12-2.25 4.38-3.03" stroke="#754727" stroke-linecap="round" stroke-linejoin="round" stroke-width="1.888"/>
  <path d="m94.82 61.46c-1.78 0.38-1.02 5.37 0.84 5.93 1.36 0.44 5.25 0 5.95-0.56 1.16-0.92 1.21-4.53 0.32-4.71-1.74-0.05-3.07-0.65-3.68-2.11-0.53 0.72-1.49 1.23-3.43 1.45z" fill="#fff"/>
  <path d="m63.76 95.18-0.84 14.13c-0.41 4.81-0.05 8.25 1.36 10.79l18.2 0.08-7.16-14.07 0.84-10.93h-12.4z" fill="#F1725A"/>
  <path d="m120.9 101.9-0.3 18.11 12.36-0.33c1.35-3.68 1-11.52-1-16.96l-11.06-0.82z" fill="#F26951"/>
  <path d="m74.97 84.83c0.94 1.58 1.77 3.94 2.34 5.58 2.63 0 4.64-1.33 8.8-0.85 4.68 0.55 7.18 4.54 7.18 8.08 0 5.44-6.21 9.12-15.57 8.98-10.57-0.14-17.66-4.6-17.66-12.41 0-5.69 5.15-11.68 10.78-11.39 2.09 0.11 3.05 0.29 4.13 2.01z" fill="#F67D6A"/>
  <path d="m123.8 84.83c-0.68 1.44-1.04 3.34-1.62 4.97-3.59 0.83-5.65-0.24-9.26-0.24-4.9 0-7.54 3.35-7.54 7.74 0 6.18 5.49 8.91 15.02 8.77 9.68-0.16 18.13-6.21 17.99-12.23-0.13-5.68-4.85-11.27-10.35-11.02-1.87 0.06-3.01-0.14-4.24 2.01z" fill="#F67D6A"/>
  <path d="m166.7 121.3h-9.11l2.32-8.16c-1.9-4.17-8.87-8.03-11.05-6.51-3.36 6.26-9.86 13.14-17.48 13.85l-100.6-0.25c-13.2 0-20.18 15.44-20.18 32.58 0 4.16 0.36 7.09 1.64 10.94l172.8 0.72c2.67-8.27 2-42.28-18.38-43.17zm-18.51 16.37c0.47-7.17 6.72-10.6 11.24-10.42 6.55 0.27 10.81 5.22 10.62 11.19-0.27 6.11-4.95 10.86-11.57 10.41-6.56-0.44-10.65-4.89-10.29-11.18zm-30.86-5.47c4.52 1.83 6.05 4.94 2.57 7.55-5.5 4.02-18.72 5.78-29.76 5.78-9.68 0-22.91-1.45-28.86-4.26-6.2-2.92-7.4-6.6-2.59-8.89 4.72-2.25 9.68-3.61 15.97-3.83h30.93c3.49 0 8.17 2.15 11.74 3.65z" fill="#231F20" opacity=".15"/>
  <path d="m166.1 120.3h-8.95l2.1-9.07c-1.52-3.25-9.52-7.36-11.22-6.16-2.81 4.91-8.62 13.9-18.46 14.41l-99.62 0.62c-12.1 0-19.21 14.63-19.21 32.27 0 4.64 0.5 6.53 1.63 10l173.3-1.69c2.49-8.31 1.1-40.13-19.55-40.38zm-18.69 17.75c0.21-7.28 6.25-11.21 11.45-11.31 6.43-0.13 11.45 4.71 11.23 11.03-0.21 6.5-5.44 11-11.41 10.91-6.59-0.11-11.44-4.26-11.27-10.63z" fill="#AF6E4D"/>
  <path d="m158.7 109.3c1.3 2.58-1.44 3.43-3.3 3.17-4.44-0.62-7.27-4.32-7.02-6.35 0.24-1.78 7.9-1.11 10.32 3.18z" fill="#D39D75"/>
  <path d="m13.94 151.1c0.23-11.79 6.17-25.98 15.6-26.08 8.76-0.1 13.47 9.68 14.65 14.83l-1.18 4.61c-2.05-7.31-7.29-12.22-12.69-11.91-7.58 0.43-11.44 11.13-11.53 21.72-0.05 3.98 0.02 4.63 0.52 6.77l-4.5-0.36c-0.7-2.63-0.95-4.38-0.87-9.58z" fill="#7A452C"/>
  <path d="m151.3 139.7c-0.05-5.85 4.72-8.28 8.21-8.25 4.38 0.05 8.65 2.77 8.57 8-0.09 5.2-4.11 8.32-8.88 8.22-5.05-0.11-7.86-3.19-7.9-7.97z" fill="#66391F"/>
  <path d="m53.42 136.9c-0.21-4.15 9.64-8.77 19.84-8.85h18.81c5.55-0.09 7.74 0.08 9.94 0.46 1.26 0.36-4.5 2.15-6.8 2.15l-17.81-1.88c-9.58-0.07-23.63 4.68-23.98 8.12z" fill="#573222"/>
  <path d="m185.4 150.4c-7.62 4.36-22.98 6.32-35.33 6.63-6.05 0.16-7.66 1.89-6.21 6.13l-18.08-1.06c-12.22-2.75-22.68-8.94-48.67-9.51-8.83-0.22-16.88 0.31-27.08 2.55l-2.94 11.56c-1.95 5.52-7 12.15-12.7 12.99l-0.44 1.02 150.2-0.43c2.91-2.65 3.44-21.07 1.28-29.88zm-55.91-4.91c4.81-0.16 6.39 3.54 6.22 6.09-0.3 4.01-3.69 5.21-6.71 5.21-3.82 0-6.08-2.13-6.02-5.3 0.09-3.48 3.08-5.9 6.51-6z" fill="#995838"/>
  <path d="m77.39 166.7c0-5.84 6.4-9.09 12.46-9 7.17 0.11 12.86 4 12.64 8.59-0.28 5.7-5.88 8.77-12.97 8.41-6.29-0.34-12.13-3.2-12.13-8z" fill="#231F20" opacity=".15"/>
  <path d="m80.58 166.1c-0.15-5.9 6.14-8.05 9.34-8.05 7 0 12.24 3.42 12.15 7.99-0.12 4.98-5.85 7.81-11.71 7.38-5.69-0.42-9.66-3.02-9.78-7.32z" fill="#673A20"/>
  <path d="m190 41.23 0.84-0.51c1.36-0.36 3.6 0.65 3.51 2.01-0.17 1.43-2.43 3.39-2.87 4.3 4.45 3.78 6.17 9.13 4.48 11.67-1.16 1.91-2.84 1.61-3.58 1.25-2.62 3.81-5.44 7.43-13.39 7.1l-1.86 0.34c-1.16-0.83-1.55-1.48-1.99-2.78-3.37-5.53-0.14-11.3 3.19-15.46-0.57-0.96-0.7-2.22 0.83-3.75 2.36-2.37 8.25-1.69 11.31-0.17 0.64-0.97-0.02-2.37-0.47-4z" fill="#231F20" opacity=".15"/>
  <path d="m191 40.42c1.36-0.41 3.31 0.46 3.21 1.82-0.13 1.6-3.12 4.11-3.4 4.76l-12.29 1.13c-0.92-1.2-0.79-2.47 0.74-3.82 3.18-2.94 9.28-1.33 10.64-0.41 0.7-0.62 0.75-1.74 1.1-3.48z" fill="#D95445"/>
  <path d="m178.2 47.33 15.74 10.52c0.9 0.66 2.17 0.43 2.69-1.34 1.52-5.3-4.17-11.07-10.69-12.2-5.9-1-8.99 1.7-7.74 3.02z" fill="#EA604D"/>
  <path d="m160.6 71.92c-1.69 0.27-1.75 1.16-1.59 2.32 0.34 2.14 1.14 3.55 2.17 4.95-5.13 4.02-5.66 8.22-5.34 10.72 0.39 2.91 2.11 3.78 3.19 3.38 2.63 5.43 7.07 10.42 13.98 9.82l4.15 0.74c1.16-0.44 1.59-1.77 1.68-2.74 5.01-6.5 4.75-9-0.05-19.29 0.51-0.71 0.25-2.55-0.95-3.81-2.9-2.9-8.29-2.42-12.6-0.92-1.35-1.07-1.4-2.98-1.49-4.48-0.09-1.32-1.55-1.02-3.15-0.69z" fill="#231F20" opacity=".15"/>
  <path d="m160.6 71.24c-1.68 0.22-1.45 1.58-1.14 2.9 0.46 1.84 1.24 3.1 2.2 4.25l1.41-1.15c-0.41-1.26-0.71-2.42-0.62-4.06 0.05-1.36-0.3-2.2-1.85-1.94z" fill="#159588"/>
  <path d="m158.7 92.28 19.12-10.09c1.68-1.01 1.38-3.38-0.71-5.07-5.09-3.5-13.68-0.26-18.91 5.09-4.03 4.24-2.96 10.78 0.5 10.07z" fill="#178E84"/>
  <path d="m178.4 81.81-1.41 1.21c4.03 6.02 6.61 11.69 0.91 18.99-0.3 1.87-1.57 1.8-2.31 1.45l-16.33-10.55c4.45-1.58 13.44-6.87 19.14-11.1z" fill="#49B7A5"/>
  <path d="m152.1 7.84c-1.26-0.08-1.77 0.93-1.47 1.88 0.56 1.77 2.32 3.22 2.15 4.01-4.95 4.17-5.25 8.18-4.36 10.1l1.31 0.68c2.2 4.58 7.15 10.2 14.11 9.22l2.72 0.44c0.97-0.79 1.26-1.8 1.43-3.07 4.15-5.26 2.52-10.49-1.5-16.29 0.74-1.2-0.09-2.73-2.04-3.81-2.71-1.43-6.63-0.95-9.36 0.12-1.16-1.07-1.25-2.21-1.55-3.05-0.23-0.53-0.8-0.31-1.44-0.23z" fill="#231F20" opacity=".15"/>
  <path d="m152.3 7.29c-1.16-0.05-1.57 0.87-1.37 1.79 0.39 1.63 2.21 3.3 2.21 3.92l1.68-0.92c-0.5-1.16-1.1-2.32-1.37-3.95-0.12-0.75-0.43-0.84-1.15-0.84z" fill="#15776A"/>
  <path d="m150.3 24.16 15.99-8.8c1.86-1.14 1.61-3.19-0.79-4.72-4.57-2.91-11.57 0.09-15.46 4.44-3.83 4.35-2.48 9.93 0.26 9.08z" fill="#188E84"/>
  <path d="m166.7 14.81-1.68 1.26c4.03 4.98 5.56 8.99 1.4 15.49-0.54 1.16-1.28 1.81-2.17 1.37l-13.23-8.34c4.68-2.15 10.17-5.38 15.68-9.78z" fill="#53B7A1"/>
  <path d="m27.17 155.9c-4.23-3.61-11.46 0.09-14.1 2.4l-4.26-4.44c-0.19-1.07-0.09-0.69-0.29-1.47-0.52-1.11-4.45 0.86-4.45 1.83 0 3.05 2.63 5.67 4.35 7.3-5.41 5.7-5.41 11.79-3.23 15.19 1.36 2.25 3.12 1.98 3.96 1.39l22.52 1.79c5.46-8.73 2.45-17.64-4.5-23.99z" fill="#188E84"/>
  <path d="m9.06 178.3 17.53-15.22c2.05-1.96 1.22-3.99-1.42-6.01-4.44-2.75-10.73 0.67-16.22 6.39-5.74 6.11-5.04 13.58 0.11 14.84z" fill="#39A597"/>
  <path d="m27.07 153.7 1.53 1.73c-1.21 2.03 1.6 4.28 2.57 5.34 5.05 5.26 4.62 11.35 0.95 19.37-0.7 1.53 0.09 2.75-1.59 4.9-1.52 1.11-2.36 0.43-3.81 0.73-8.29 2.5-12.81-1.08-18.21-7.49 5.15-3.34 15.21-12.61 18.56-17.51v-7.07z" fill="#53B7A1"/>
  <path d="m27.31 151c1.45-5.14 7.4-7.73 14.78-6.57l-0.36-5.6c0.09-1.36 2.29-1.65 2.59-0.49 1.59 4.46 1.89 7.71 2.02 10.74 0.3 8.17-3.73 22.97-13.3 26.14l-4.96-7.06c-1.82-4.16-2.17-11.36-0.77-17.16z" fill="#D3931A"/>
  <path d="m27.17 152.4 18.65 8.27c0.84-3.63 1.1-6.76 0.66-14.27l-2.68-1.26c-5.78-1.94-14.44-1.24-17.17 5.07-0.47 1.16-0.3 1.84 0.54 2.19z" fill="#D39720"/>
  <path d="m114 70.36c-1.25-1.15-4.54-1.3-4.74-0.29-0.16 0.75 0.17 4.91-1.36 6.02-6.69-2.55-14.16-2.19-16.75 2.9-1.1 1.92-0.49 3.04 1.3 4.12l16.65 9.61c1.86 0.34 8.15-2.3 8.76-3.66 0.41-4.23-2.19-7.98-6.91-11 1.16-1.53 4.15-6.38 3.05-7.7z" fill="#178E84"/>
  <path d="m164.3 169c2.91-4.3 3.53-4.37 4.05-5 2.04-5.97 10.62-5.97 17.31-0.17 1.45-1.92 2.13-3.33 2.7-6.12 1.41-1.16 3.9 0.21 3.86 1.69-0.06 2.2-2.78 4.82-4.27 6.66 5.31 5.26 6.01 10.37 3.1 15.35-0.97 1.54-2.92 1.79-3.89 0.91l-20.63-3.64c-5.79-2.25-5.22-5.58-2.23-9.68z" fill="#D3931A"/>
  <path d="m167.5 164.9 19.4 16.88c-2.5 3.34-8.6 9.5-20.79 7.44-2.2 0.55-3.6-1.03-3.63-3.06-3.83-6.11-1.06-14.41 5.02-21.26z" fill="#F9BF53"/>
  <path d="m119 160.6c-1.6 0-2.17 1.46-1.6 3.48 0.83 2.52 2.83 4.22 3.72 5.54-5.05 5.8-5.53 11.15-2.62 15.03 1.16 1.56 2.84 1.05 3.68 0.42l17.64-14.45c2.36-2.5 0.72-6.34-5.8-7.78-3.94-0.67-8.23 1.58-10.96 3.87-1.94-1.01-2.44-3.54-3.01-5.69-0.23-0.65-0.56-0.52-1.05-0.42z" fill="#158A81"/>
  <path d="m121.8 184.9 17.69-15.62c1.4-1.23 1.5-3.12-0.35-4.21 6.95 4.04 9.99 12.15 8.46 19.48-1.31 3.54-1.1 4.19-1.23 6.34-0.17 1.89-3.33 2.81-4.68 2.16-8.4 3.38-13.9-0.9-19.89-8.15z" fill="#49B7A5"/>
  <path d="m63.71 113.8c-1.53 0.09-1.55 1.57-1.3 2.93 0.46 2.14 1.3 3.11 2.13 4.37-5.9 3.92-6.83 9.39-5.86 12.82 0.85 2.87 2.2 3.52 3.56 3.15l19.97-10.25c1.85-1.42 1.11-4.68-2.26-7.07-3.73-2.03-7.85-0.96-11.88 1-1.06-1.32-1.06-2.78-0.89-5.02 0.08-1.46-0.86-2.2-3.47-1.93z" fill="#D3931A"/>
  <path d="m61.42 137 20.79-10.45c1.53-0.89 1.09-2.7 0.2-4 4.76 6.48 7.67 13.21 2.92 22.57-11.51-0.36-14.23-1.17-19.28-3.67l-4.63-4.45z" fill="#F9CC53"/>
  <path d="m50.09 159c-1.77 0.11-2.03 1.81-1.28 3.5 1.06 2.59 2.32 3.41 3.56 4.57-5.24 5.12-5.71 10.76-4.04 14.35 1.31 2.96 3.08 2.96 4.14 2.12l18.22-14.8c2.42-2.13 1.06-5.77-4.08-7.03-3.69-0.83-8.74 1-11.6 3.3-1.46-1.08-2.35-2.89-2.92-5.15-0.35-1.23-1.01-1.08-2-0.86z" fill="#E05541"/>
  <path d="m52.06 184 19.12-16.3c5.74 4.5 8.03 9.62 6.77 16.07-1.03 3.43-1.17 4.08-1.47 6.23-0.65 2.36-2.6 2.93-4.69 2.4-7.58 2.25-11.47-0.84-19.73-8.4z" fill="#F27262"/>
  <path d="m114.7 120.4c-1.6 0.07-1.29 3.5-4.46 6.31-4.95-3.81-10.1-5.07-13.62-2.92-2.08 1.23-1.46 3.85-0.22 4.83l16.93 14.85c2.5-0.8 3.38-2.6 3.72-5.38 0.47-3.57-2.2-7.11-4.24-9.21 1.25-1.36 4.12-3.86 4.59-5.11 0.7-1.7-0.27-3.47-2.7-3.37z" fill="#EA5647"/>
</svg>