<svg xmlns="http://www.w3.org/2000/svg" width="200" height="200" fill="none" viewBox="0 0 200 200">
<!-- SVG created with Arrow, by QuiverAI (https://quiver.ai) -->
  <path d="m197.9 137.1c0 14.22-32.49 31.96-98.02 31.96-62.86 0-97.03-13.85-97.03-31.66 0-9.72 10.54-17.27 24.68-23.18 9.97-4.23 23.08-5.22 34.02-6.43l9.93 1.08c6.03-0.66 12.13-1.22 18.86-1.22 9.65 0 17.75 0.18 26.16 1.16l9.5-1.23c15 1.87 25.04 3.62 35.39 6.97 16.46 5.69 36.51 12.8 36.51 22.55z" fill="#005450" opacity=".15"/>
  <path d="m196.9 136.3c0 13.82-30.34 31.56-95.86 31.56-62.85 0-97.93-13.7-97.93-31.5 0-12.7 16.86-22.58 34.35-27.66 8.9-1.9 16.6-1.54 25.17-1.96l8.51 0.92c6.62-0.56 10.62-1.2 19.46-1.2 8.89 0 17.26 0.42 25.27 1.26l8.83-1.09c11.76 1.4 23.18 3.42 32.52 6.39 17.05 5.15 39.68 12.43 39.68 23.28z" fill="#32BCB9"/>
  <path d="m193.9 135.6c0 12.79-28.96 29.35-92.86 29.35-61.12 0-94.95-12.75-94.95-29.53 0-9.91 10.83-17.83 24.84-23.53 7.88-3.3 17.75-4.05 26.85-4.71l8.41 0.72c7.16-0.73 13.81-1.47 22.75-1.47 9.76 0 18.97 0.79 27.25 1.86l8.79-1.19c12.46 1.71 22.42 3.69 31.79 6.94 15.89 6.03 37.13 12.41 37.13 21.56z" fill="#F57F65"/>
  <path d="m190.7 135.4c0 11.84-27.9 27.17-89.46 27.17-59.24 0-91.98-11.99-91.98-27.59 0-9.16 8.61-15.94 21.52-21.46 8-3.59 15.54-4.44 25.24-5.47l8.18 0.62c7.67-1 13.88-1.42 23.09-1.42s19.59 0.72 28.36 1.86l8.3-1.29c11.1 1.59 22.51 3.67 31.28 6.65 15.07 5.58 35.47 12.34 35.47 20.93z" fill="#FDD586"/>
  <path d="m186 135.4c0 10.86-25.43 25.11-84.19 25.11-56.43 0-88.56-11.68-88.56-24.6 0-8.36 10.95-15.52 22.9-21 7.08-3.11 11.53-4.19 20.14-5.2l8.38 0.62c8.1-1.29 12.41-1.86 22.36-1.86 9 0 18.83 0.9 27.99 2.25l8.67-1.46c9.99 1.65 19.1 3.9 27.46 6.85 14.38 5.22 34.85 11.44 34.85 19.29z" fill="#FEFFFE"/>
  <path d="m134.6 32.71c4.16-3.64 12.18-2.74 15.9 2.28 3.34 4.55 3.45 10.99 3.03 12.69-1.08 4.24-3.29 10.38 0.75 12.42 1.28 0.61 2.5-0.9 2.81-0.39 0.37 0.62-3.02 4.38-7.11 4.02-4.59-0.4-6.52-3.02-7.75-4.01l-9.98-21.99c0-0.67 0.62-3.67 2.35-5.02z" fill="#22B5B3"/>
  <path d="m135.8 35.61c-3.78-1.5-5.89 1.32-5.89 2.21l7.03 8.29 2.6-2.54c0.51-2.1-0.34-6.61-3.74-7.96z" fill="#F57059"/>
  <path d="m109.6 41.13c4.16-4.9 9.42-5.58 15.24-5.24 9.64 0.57 18.66 9.15 18.97 18.07 0.16 5.02-1.19 8.97-5.63 12.06l-1.37 3.06-26.57-0.67c-7.2-1.36-9.3-3.03-7.63-16.27 0.84-4.94 3.91-9.39 6.99-11.01z" fill="#32BCB9"/>
  <path d="m115.1 73.36c-7.74 1.66-13.92 21.59-15.28 29.7h12.03l3.25-29.7z" fill="#F8B64C"/>
  <path d="m138 68.81c9.79 4.24 17.29 22.83 22.63 42.25l-38.94-3.76-11.69-0.29c0.47-11.1 1.6-29.04 6.13-36.89l21.87-1.31z" fill="#F57059"/>
  <path d="m136.6 48.81c2.49 0 3.46 2.1 3.36 4.91-0.08 2.69-0.42 4.14-3.44 6.28-0.47 3.07 0 6.39 0 6.39-3.4 4.24-8.41 8.73-14.07 8.33-7.53-0.52-15.67-8.19-15.67-13.53l14.92-1.46 0.52-8.11 2.76 6.83c3.95-0.34 8.9-2.06 11.12-3.36 0.48-0.28-0.11-5.77 0.5-6.28z" fill="#FCCF75"/>
  <path d="m136.9 56.82c2.86-0.89 3.25 1.97 2.74 3.89-0.75 2.85-3.35 2.96-4.01 2.34l1.27-6.23z" fill="#FCCF75"/>
  <path d="m116 66.33c-0.89 2.38 0.52 4.59 2.08 4.83 1.77 0.28 3.5-1.05 3.84-3.05l-5.05-2.15-0.87 0.37z" fill="#AD7846"/>
  <path d="m111.2 67.07c1.55-0.14 2.51 0.7 2.51 2.01s-1.02 2.08-2.14 2.03c-1.31-0.08-2.53-1.64-2.78-3.09 0.42-0.57 1.18-0.84 2.41-0.95z" fill="#F57059"/>
  <path d="m128.5 65.29c2.16 0 2.93 1.13 2.82 2.53-0.14 1.62-1.68 2.3-3.14 2.3-1.8 0-2.97-0.9-2.92-2.64 0.06-1.46 1.46-2.19 3.24-2.19z" fill="#F57059"/>
  <path d="m111.1 64.83c0.65 0 1.01 0.41 1 1.02-0.02 0.57-0.38 0.89-0.88 0.86-0.57-0.04-0.87-0.55-0.88-1.02-0.02-0.51 0.31-0.86 0.76-0.86z" fill="#65352A"/>
  <path d="m124.3 62.51c0.75-0.08 1.04 0.6 0.98 1.27-0.08 0.68-0.56 1.11-1.13 0.97-0.51-0.14-0.82-0.61-0.74-1.33 0.06-0.57 0.4-0.86 0.89-0.91z" fill="#65352A"/>
  <path d="m119 71.95c1.21 0.34 3.43 0.17 4.69-1.58" stroke="#65352A" stroke-linecap="round" stroke-linejoin="round" stroke-miterlimit="10" stroke-width=".5"/>
  <path d="m115.7 74.49c-0.45 3.07 1.24 5.44 2.8 5.55 2.49 0.17 3.66-2.42 4.97-2.42 1.07 0 3.12 1.99 5.12 1.19 3.17-1.3 4.62-6.25 4.45-8.69l-2.39 2.31c-2.23 1.83-4.06 2.73-6.71 2.73-3.34 0-4.7-0.67-8.24-0.67z" fill="#F8B64C"/>
  <path d="m145.9 80.91c1.42 5.84-1.34 16.8-5.93 21.52-3.93 4.07-11.79 6-14.28 6.62-2.49 1.84-4.21 2.86-6.98 2.36-1.83-0.35-2.64-1.57-3.63-1.01-0.99 0.57-1.84 0.91-2.31 0.24-0.34-0.52 3.41-7.58 5.63-8.32 1.84-0.67 3.94-0.44 5.39-1.38 2.33-1.51 6.69-5.85 7.82-8.6 1.5-3.85 0.14-12.93 5.19-17.01 3.39-2.42 7.87-1.39 9.1 5.58z" fill="#FCCF75"/>
  <path d="m192.2 106.6-4.11-2.81 2.33-5.03-5.83 0.34 0.52-5.66-5.53 2.65-2.65-4.35-2.77 5.13-4.91-3.2-0.67 5.2-4.8-0.22 1.83 5.26-3.72 2.69 4.17 3.07-2 4.12 5.1 0.99 0.34 5.35 4.85-2.96 2.87 5.13 2.59-5.36 10.12-2.16-2.82-4.82 5.09-3.36z" fill="#DB6142"/>
  <path d="m177.5 116.1c6.2 0 10.48-5.56 10.24-10.74-0.26-5.28-4.76-9.26-10.13-8.98-5.81 0.29-9.71 4.83-9.49 10.4 0.22 5.36 4.59 9.32 9.38 9.32z" fill="#F8B64C"/>
  <path d="m177.4 114.4c5.37 0 9.06-4.74 8.85-9.26-0.24-4.6-4.14-8.06-8.76-7.81-4.95 0.26-8.29 4.21-8.09 9.03 0.19 4.56 3.97 8.04 8 8.04z" fill="#F57F65"/>
  <path d="m84.19 90.02c1 4.44 2.67 8.09 7.26 13.27l-11.24 1.51-0.99-13.56 4.97-1.22z" fill="#F8B64C"/>
  <path d="m50.74 70.12c-4.12 0.57-8.36 2.99-11.02 8.27-2.21 4.55-5.61 16.53-5.61 20.76 1.85 4.08 7.02 9.42 10.97 11.46l24.64-3.48 9.69-1.31c-0.1-6.11-0.19-22.14-3.26-32.74l-3.45-3.64-21.96 0.68z" fill="#32BCB9"/>
  <path d="m76.15 72.91c2.5 2.77 6.57 10.26 8.52 16.54-1.13 1.82-3.29 2.56-4.56 2.56l-2.49-18.41-1.47-0.69z" fill="#005450" opacity=".15"/>
  <path d="m48.16 60.59c-2.76-5.35-1.77-16.61 1.63-20.57 2.1-2.54 4.32-3.9 5.39-4.07-1.66-1.31-2.24-1.82-1.51-2.35 1.02-0.57 3.51 0.39 4.63 0.9 0.11-1.84 1.01-3.99 1.73-4.05 0.52-0.06 0 2.49 0.52 2.89 3.16-2.1 5.93-2.63 9.7-2.69 11.13-0.17 20.22 10.76 19.47 21.66-0.19 2.9-0.81 5.43-1.65 5.83-5.06 0.11-10.94-3.53-13.81-7.12l0.34 3.3c-4.49-1.08-8.98-4.03-12.29-8.49-1.35 3.75-3.73 8.09-6.17 8.78-1.66-2.36-4.61-2.82-6.06-0.66-1.31 2.04-0.37 4.95 1.53 5.18l-0.68 5.14-2.77-3.68z" fill="#32BCB9"/>
  <path d="m53.55 52.25c-2.87-0.4-3.54 1.7-3.6 2.88-0.16 2.3 1.34 3.91 2.57 3.8l1.03-6.68z" fill="#FCCF75"/>
  <path d="m51.89 65.35c2.27 4.4 7.07 11.99 13.7 11.99 5.26 0 11.35-6.42 13.45-8.52 1.9-1.89 4.28-6.49 4.5-8.81-4.64-0.51-9.13-4.63-9.7-6.09l0.34 2.81c-5.17-1.03-10.22-5.53-11.95-8.65-1.32 4.29-3.51 7.88-6.22 8.05l-2.87-1.31-1.25 10.53z" fill="#FCCF75"/>
  <path d="m62.23 61.31c2.33-0.68 3.31 0.83 3.39 2.56 0.09 1.74-1.26 3.26-3.09 3.2-2-0.07-3.07-1.43-3.07-2.74-0.06-1.57 0.93-2.54 2.77-3.02z" fill="#F57059"/>
  <path d="m80.03 62.16c1.05-0.14 1.33 0.55 1.25 1.29-0.11 0.79-0.75 1.21-1.51 1.07s-1.01-0.76-0.85-1.44c0.14-0.63 0.6-0.86 1.11-0.92z" fill="#995442"/>
  <path d="m66.59 59.47c0.9-0.34 1.24 0.34 1.18 1.07-0.06 0.85-0.63 1.25-1.35 1.13-0.66-0.11-0.91-0.79-0.71-1.52 0.11-0.45 0.45-0.62 0.88-0.68z" fill="#65352A"/>
  <path d="m73.67 63.02 0.66 3.31c-0.52 0.68-1.6 0.8-2.83 0.52" stroke="#AD7846" stroke-linecap="round" stroke-linejoin="round" stroke-miterlimit="10" stroke-width=".5"/>
  <path d="m67.49 68.82c0.7 1.13 2.82 1.56 4.43 1.22" stroke="#65352A" stroke-linecap="round" stroke-linejoin="round" stroke-miterlimit="10" stroke-width=".5"/>
  <path d="m38.28 94.63c-0.22 6.59 2.43 11.1 8.77 14.58 4.9 2.76 10.88 3.98 15.74 5.38 1.5 1.92 3.83 2.77 6.59 2.43 2.77-0.34 4.98-1.62 4.64-4.39-0.29-2.42-3.79-4.1-4.51-4.9-0.66-0.67-7.53-2.03-15.9-9.82l1.02-4.68c-5.82 1.94-11.58 2-16.35 1.4z" fill="#FCCF75"/>
  <path d="m37.99 94.41c-0.68-5.13 0.35-14.28 3.12-19.63 1.77-3.17 5.65-4.77 7-4.66 5.61 2.65 7.07 13.17 6.9 22.7-2.55 1.84-12.43 2.24-17.02 1.59z" fill="#32BCB9"/>
  <path d="m38.06 120.4 23.72-3.89 87.74 5.02-18.45 7.59-71.99 1.13-9.02-0.17-12.15-9.31 0.15-0.37z" fill="#32BCB9"/>
  <path d="m38.04 120.4 23.74-3.89 87.74 5.02-12.46 4.88-7.14-2.6-16.33 1.74 5.42 9.15-1.36 0.74-63.46-8.23-16.33-6.44 0.18-0.37z" fill="#F57059"/>
  <path d="m59.19 130.5 24.5 10.8 29.36-7.52-6.27-0.63-47.59-2.65z" fill="#F57059"/>
  <path d="m76.01 116 33.05-0.97 6.08 14.66 7.21 0.19-3.82 5.3-43.12-9.26 0.6-9.92z" fill="#F3B53A"/>
  <path d="m80.77 120.1c-6.42 0.33-10.49 3.53-10.32 5.2 0.28 2.69 7.64 3.09 14.22 2.75 7.41-0.4 13.04-1.75 12.97-3.91-0.08-2.2-7.63-4.47-16.87-4.04z" fill="#FCCF75"/>
  <path d="m124.3 129c-2.22 3.01 2.88 4.32 8.7 4.21 6.82-0.14 11.41-2.07 11.27-3.19-0.22-2.22-2.65-4.02-10.06-3.93-5.04 0.05-8.21 0.62-9.91 2.91z" fill="#66C6B9"/>
  <path d="m72.98 103.9c3.14-1.56 7.63 0.05 10.61 3.94 2.66 3.55 4.16 8.05 4.16 9.87l-9.48-0.66-8.13-3.41 0.11-6.48 2.73-3.26z" fill="#F57059"/>
  <path d="m11.11 121.4c-5.1 3.07-6.66 7.08-7 9.61l1.12 0.11 5.88-9.72z" fill="#005450" opacity=".15"/>
  <path d="m8.72 103.7 1.4 1.02c1.83 0.11 3.34 0.34 4.89 0.11 1.83-0.28 3.44 0 4.34-0.4l1.26-0.79c0.57 0.57 0.52 2.61 0.11 4.17 1 1.51 2.4 4.16 3.07 6.53 0.9 3.31-0.17 6-2.77 7.08l-2.77 0.45-6.82-0.06c-3.4-0.56-5.42-3.37-5.08-6.5 0.29-2.59 2.37-6.39 2.99-7.56-0.62-1.56-0.91-3.03-0.62-4.05z" fill="#66C6B9"/>
  <path d="m20.41 111.1c1.3 0 3.18 2.32 3.44 5.73 0.14 1.94-1.13 3.86-2.44 3.86-1.22 0-2.49-1.92-2.66-4.46-0.17-2.53 0.57-5.13 1.66-5.13z" fill="#14A8A8"/>
  <path d="m9.04 111.4c-1.22 0.28-1.98 2.41-1.93 4.63 0.06 2.37 1.32 4.63 2.54 4.57 1.32-0.05 2.08-2.54 2.08-4.57 0-2.59-1.27-4.96-2.69-4.63z" fill="#14A8A8"/>
  <path d="m13.34 106.7c-2.71 0-3.97 2.25-3.92 3.76 0.09 2.21 1.89 3.85 4.2 3.74 2.55-0.11 4.1-1.96 3.99-4.22-0.11-2-1.66-3.28-4.27-3.28z" fill="#FDD586"/>
  <path d="m12.71 109.7c-0.8 0-1.19 0.52-1.16 1.13 0.04 0.61 0.48 1.01 1.12 0.93 0.6-0.08 0.94-0.5 0.9-1.13-0.04-0.57-0.45-0.93-0.86-0.93z" fill="#65352A"/>
  <path d="m15.83 109.4c-0.69 0-1.12 0.42-1.09 1.02 0.03 0.59 0.47 0.95 1.03 0.89 0.64-0.07 0.94-0.56 0.9-1.08s-0.43-0.83-0.84-0.83z" fill="#65352A"/>
  <path d="m13.62 114.3c-2.49 0.23-3.57 3.37-3.51 4.77l0.22 3.97 1.32 0.23 0.47-1.25 1.17 1.25 1.21-0.89 1.12 0.75 1.4-1.03 0.41-1.03c0.29-3.95-1.37-7.02-3.81-6.77z" fill="#C1D2B6"/>
  <path d="m26.14 97.22 0.97 0.57 0.79-0.39c1.56 0.34 3.28 0.22 4.35 0.22 1.56 0 2.91-0.11 4.08-0.4l0.86 0.29-0.75 3.4c0.8 1.78 2.3 4.54 2.87 7.02 0.8 3.46-0.57 5.34-2.29 5.68l-2.93 1.3-5.05-0.17-3.5-1.88c-1.73-0.95-2.63-3.9-1.78-6.81 0.75-2.7 1.87-5.4 2.38-8.83z" fill="#F3B53A"/>
  <path d="m37.84 103.4c1.4-0.34 2.25 2.3 1.97 5.26-0.23 2.42-0.99 4.02-2.21 3.79-1.11-0.23-1.69-2.59-1.47-4.84 0.23-2.25 0.7-3.92 1.71-4.21z" fill="#F57059"/>
  <path d="m25.32 103.9c-1.41 0.29-1.87 2.72-1.64 4.92 0.23 2.05 1.02 3.62 2.09 3.45 1.17-0.23 1.74-2.34 1.63-4.48-0.12-2.16-0.79-4.12-2.08-3.89z" fill="#F57059"/>
  <path d="m29.52 100.2c-2.04 0.11-2.8 1.94-2.69 3.35 0.11 1.9 1.61 3.15 3.28 2.98 2.05-0.23 3.18-1.73 3.06-3.67-0.11-1.72-1.51-2.78-3.65-2.66z" fill="#FCCF75"/>
  <path d="m29.06 102.2c-0.75-0.08-1.04 0.48-0.99 1.05s0.51 0.91 1.08 0.79c0.57-0.11 0.82-0.62 0.71-1.14-0.09-0.45-0.43-0.67-0.8-0.7z" fill="#65352A"/>
  <path d="m32.72 102.1c-0.66-0.06-1.01 0.45-0.95 1.02 0.06 0.62 0.58 0.88 1.01 0.77 0.57-0.15 0.85-0.6 0.8-1.11-0.06-0.45-0.4-0.68-0.86-0.68z" fill="#65352A"/>
  <path d="m28.5 113.7 0.41 1.85 0.9-0.95 0.8 0.95 0.8-1.2" stroke="#F57059" stroke-linecap="round" stroke-linejoin="round" stroke-miterlimit="10" stroke-width=".7"/>
  <path d="m37.04 145.3c-1.33 2.76-1.95 6.91-0.6 8.18l6.97 4.34 0.8 1.07 0.95-0.56 1.35 0.68 0.96-1.62 1.66 0.6 1.4-0.84c2.73-1.31 6.72-4.89 7.08-9.03 0.28-3.32-1.22-4.87-2.52-6.04l-15.48-8.67-0.66 0.12c-0.34 1.13-0.06 2.79 0.41 2.27-0.75 1.41-1.04 6.22-2.32 9.5z" fill="#F57059"/>
  <path d="m39.75 133.4 1.13 1.37c1.55-0.94 4.04-1.51 6.42-1.11 2.11 0.34 3.66 0.96 4.83 1.25l1.78-1.51c0.9 0.29 1.12 2.34 0.4 4.7 1.08 4.4 2.63 8.15 1.91 11.9-1.18 6.37-6.76 9.02-10.48 8.68-5.68-0.5-10.12-3.87-9.89-6.29 0.28-3.46 1.63-7.15 4.07-8.66 0.17-2.69-0.77-6.59-0.17-10.33z" fill="#FCCF75"/>
  <path d="m44.92 136.2c-3.34 0-4.13 2.59-4.07 3.99 0.12 2.65 2.22 4.11 4.61 3.88 2.76-0.28 4.37-2.43 4.09-4.75-0.23-1.98-1.89-3.12-4.63-3.12z" fill="#32BCB9"/>
  <path d="m48.56 142 0.28 1.84 1.36-1.84h-1.64z" fill="#F57059" stroke="#F57059" stroke-linecap="round" stroke-linejoin="round" stroke-miterlimit="10" stroke-width=".7"/>
  <path d="m52.19 138.3c-1.4 0.34-1.81 1.51-1.47 2.36 0.41 1.08 1.63 1.37 2.6 0.97 1.12-0.51 1.52-1.68 1.04-2.71-0.39-0.84-1.35-0.9-2.17-0.62z" fill="#229592"/>
  <path d="m43.38 157.6 0.46 1.02 1.07-0.56" stroke="#F57059" stroke-linecap="round" stroke-linejoin="round" stroke-miterlimit="10" stroke-width=".7"/>
  <path d="m49.41 157.2 0.51 0.66 1.27-0.51" stroke="#F57059" stroke-linecap="round" stroke-linejoin="round" stroke-miterlimit="10" stroke-width=".7"/>
  <path d="m165.3 134.4c1.07 0.61 0.28 3.07-0.66 4.38 1.35 3.31 3.19 8.81 4.04 11.28 0.57 2.95-1.53 4.93-5.42 5.55l-4.95 1.21-4.6-1.46c-3.29-1.08-5.67-5.16-5.61-7.97 0.05-2.21 0.9-3.29 2.07-4.36l0.57-8.15 0.66-0.29 1.5 1.13c1.99-0.68 4.21-1.57 6.97-1.07 1.27 0.23 2.17 0.56 3.24 1.07l2.19-1.32z" fill="#229592"/>
  <path d="m164.3 144c-1.84 0-2.5 2.43-2.27 4.63 0.29 2.37 2.5 5.11 4.83 4.94 2.1-0.17 1.87-2.65 0.88-5.08-0.94-2.37-1.89-4.49-3.44-4.49z" fill="#F57059"/>
  <path d="m159 137.7c-2.98 0-3.6 2.15-3.49 3.57 0.23 2.49 2.22 3.66 4.27 3.43 2.33-0.28 3.54-2.17 3.37-4.17-0.17-1.83-1.63-2.86-4.15-2.83z" fill="#F8B64C"/>
  <path d="m153.9 138.4c-2.04-0.4-2.84 1.11-2.9 2.19-0.17 1.46 1 2.55 2.3 2.43 1.5-0.17 2.26-1.34 2.1-2.62-0.12-1.12-0.8-1.8-1.5-2z" fill="#F8B64C" stroke="#65352A" stroke-linecap="round" stroke-linejoin="round" stroke-miterlimit="10" stroke-width=".5"/>
  <path d="m155.3 157.1 0.84 0.92 1.18-0.89 1.03 0.8 1.21-0.75" stroke="#F57059" stroke-linecap="round" stroke-linejoin="round" stroke-miterlimit="10" stroke-width=".7"/>
  <path d="m105.4 150.4c2.05 1.5 2.57 6.7 0.35 8.91-1.61 1.62-4.53 3.14-6.36 2.79l-0.23-4.08 6.24-7.62z" fill="#32BCB9"/>
  <path d="m90.42 142.4 0.75 0.56 1.56 0.11c1.36-0.62 4.59-0.91 6.43-0.74l3.34 0.4 1.94-0.51c0.8 1.51 0.4 4 0.4 5.07 1.22 3.13 2.77 8.48 0.5 11.94-2.1 3.37-5.73 6.84-12.61 5.06-4.33-1.18-6.37-3.22-6.37-4.68 0-3.53 2.32-7.61 3.59-9.54-0.17-2.37-0.63-5.74 0.47-7.67z" fill="#F8B64C"/>
  <path d="m90.42 151.8c2.21-0.23 3.01 2.13 2.73 4.23-0.4 2.91-4.12 5.66-6.06 5.1-1.5-0.52-0.42-4.71 0.54-6.55 0.8-1.56 1.32-2.58 2.79-2.78z" fill="#14A8A8"/>
  <path d="m96.24 147.5c-1.99 0.17-2.52 1.58-2.41 2.83 0.17 2.16 1.89 3.33 3.78 3.05 1.99-0.34 3.01-1.91 2.84-3.64-0.17-1.56-1.72-2.44-4.21-2.24z" fill="#FCCF75" stroke="#AD7846" stroke-linecap="round" stroke-linejoin="round" stroke-miterlimit="10" stroke-width=".5"/>
  <path d="m102.2 147c-1.45 0.11-1.84 1.19-1.73 1.98 0.17 1.18 1.19 1.64 2.27 1.36 1.16-0.34 1.57-1.42 1.22-2.49-0.34-0.79-1.14-0.97-1.76-0.85z" fill="#F57059" stroke="#AD7846" stroke-linecap="round" stroke-linejoin="round" stroke-miterlimit="10" stroke-width=".5"/>
  <path d="m94.2 165.1v1.02" stroke="#F57059" stroke-linecap="round" stroke-linejoin="round" stroke-miterlimit="10" stroke-width=".7"/>
  <path d="m97.12 165.1 0.34 0.85" stroke="#F57059" stroke-linecap="round" stroke-linejoin="round" stroke-miterlimit="10" stroke-width=".7"/>
  <path d="m100.3 164.6 0.66 0.57" stroke="#F57059" stroke-linecap="round" stroke-linejoin="round" stroke-miterlimit="10" stroke-width=".7"/>
  <path d="m98.45 154.7c-4.44 0-6.33 3.74-6.22 5.89 0.12 2.7 3.52 3.33 5.62 2.99 3.5-0.57 6.9-3.33 6.38-5.76-0.51-2.32-2.67-3.17-5.78-3.12z" fill="#FCCF75"/>
  <path d="m119.9 147.7c-2.1 1.92-3.07 7.4-2.5 9.51l3.88 2.27 5.33-0.37 10.04-2.7c2.49-1.56 2.77-6.76 0.56-9.83l-1.78-2.47-13.54-4.08-0.75-1.94c-1.07 0.34-0.26 2.65-0.26 3.82 0 1.66-0.05 3.23-0.98 5.79z" fill="#F57059"/>
  <path d="m121.8 138 1.35 0.96c2.55-0.68 5.15-0.91 8.55 0l2.55-1.31c1.07 1.08 0.96 3.77 0.2 5.45 1.07 3.07 4.32 8.07 2.96 12.19-1.61 5.09-7.25 6.86-11.63 6.18-5.51-0.84-8.17-3.92-8.28-5.38-0.23-3.52 1.88-7.27 3.78-9.32-0.62-3.18-0.51-6.92 0.52-8.77z" fill="#F8B64C"/>
  <path d="m129 150.1c-4.99 0.5-5.65 5.96-5.08 10.77l5.82-0.46c4.33-1.12 7.15-2.68 6.53-6.28-0.46-2.75-3.16-4.49-7.27-4.03z" fill="#FCCF75"/>
  <path d="m123.9 161.2 1.07 0.56" stroke="#F57059" stroke-linecap="round" stroke-linejoin="round" stroke-miterlimit="10" stroke-width=".7"/>
  <path d="m130.8 160.3 0.95 0.84" stroke="#F57059" stroke-linecap="round" stroke-linejoin="round" stroke-miterlimit="10" stroke-width=".7"/>
  <path d="m127.2 146.4 1.12 2.37 0.85-1.77-1.97-0.6z" fill="#F57059" stroke="#F57059" stroke-linecap="round" stroke-linejoin="round" stroke-miterlimit="10" stroke-width=".5"/>
  <path d="m134.1 143.2c-1.72-0.11-2 1.57-1.66 2.64 0.52 1.37 2.25 1.43 3.15 0.54 1.08-1.07 0.5-3.12-1.49-3.18z" fill="#AD7846"/>
</svg>