<svg xmlns="http://www.w3.org/2000/svg" width="200" height="200" fill="none" viewBox="0 0 200 200">
<!-- SVG created with Arrow, by QuiverAI (https://quiver.ai) -->
  <path d="m11.25 43.92h83.9c0.69-2.94-2.36-5.68-7.38-5.68l-1.87-0.13c2.23-2.65-0.79-5.99-4.94-5.39-1.95-5.11-9.2-10.44-14.19-9.5-2.3-2.12-5.72-2.58-10.63 0.28-2.52-5.81-6.73-7.89-11.39-7.89-8.36 0-14.06 7.45-13.85 14.15-5.93-1.29-9.44 2.88-9.29 7.58l-3.75 0.35c-3.47 0.52-6.05 2.49-6.61 6.23z" fill="#000" opacity=".2"/>
  <path d="m11.25 43.45h83.58c0.39-2.79-2.54-5.19-7.29-5.19l-1.91-0.15c1.56-2.65 0.42-6.05-4.92-5.6-2.03-5.57-7.86-10.27-13.94-9.43-1.85-2.61-6.69-3.11-11.59-0.02-1.95-5.17-6.27-7.85-11.63-7.85-7.46 0-13.12 6.5-13.12 13.52l0.28 0.77c-6.54-1.06-8.9 2.28-9.52 7.86h-3.34c-3.47 0.52-6.04 2.36-6.6 6.09z" fill="#B1E6E6"/>
  <path d="m109.1 37.99h76.88c0.54-3.06-2.17-5.38-9.12-5.14 0.79-5.04-3.06-7.74-8.39-7.12 1.21-6.61-4.75-12.91-11.59-12.91-5.08 0-8.83 3.64-10.49 7.43-5.48-3.64-9.65-1.56-12.69 5.48-7.56-4.02-15.22-2.79-17.57 6.88-3.65-0.5-7.08 1.2-7.03 5.38z" fill="#000" opacity=".2"/>
  <path d="m109.1 37.52h76.56c0.4-2.92-2.89-4.95-9.53-4.73 0.95-4.33-1.79-7.78-8.23-7.38 0.95-6.12-4.82-12.63-11.37-12.63-5.4 0-8.33 3.51-10.42 7.43-4.06-2.92-9.27-2.72-12.41 5.47-7.56-4.02-14.93-3.3-17.51 6.89h-2.4c-2.95 0-4.71 1.94-4.69 4.95z" fill="#B1E6E6"/>
  <path d="m187.7 83.28c0.33-3.4-3.47-5.35-6.92-5.1 0.27-4.46-3.19-8.99-9.05-8.99-3.79 0-5.84 1.99-7.48 4.11-4.17-3.24-9.44-1.48-11.37 4.5-2.03-0.65-5.1-0.02-5.47 4.33-0.03 0.38-0.06 0.76-0.06 1.16l40.35-0.01z" fill="#000" opacity=".2"/>
  <path d="m187.3 82.93c0.33-3.41-3.47-5.35-6.92-5.1 0.28-4.47-2.75-8.64-8.83-9.04-3.73-0.25-5.76 2.12-7.38 4.09-3.45-2.61-8.69-1.87-10.89 4.55-2-0.52-5.46 0-5.87 4.28v1.21l39.89 0.01z" fill="#B1E6E6"/>
  <path d="m15.86 157.4c-6.53-1.3-12.84 4.1-13.36 12.61h195c0.31-6.88-4.59-11.6-9.74-10.63-1.12-12.16-11.88-21.66-23.67-21.66-6.77 0-13.12 2.73-18.7 7.33-8.18-7.23-20.29-6.96-27.13 1.93-6.65-7.31-16.78-5.41-21.05-1.12-3.3-12.66-14.4-12.05-17.29-7.8-3.91-8.19-11.82-15.05-22.72-14.8-10.38 0.25-19.37 16.64-18.54 18.67-4.84-1.73-8.73-1.86-12.59 1.1-6.46 3.92-10.38 9.69-10.21 14.37z" fill="url(#paint0_linear_33_20068)"/>
  <path d="m10 173.5h183.8c0.42-7.78-6.1-11.11-12.64-9.72 2.5-11.18-3.53-21.26-13.89-21.26-9.1 0-13.22 8.07-14.83 12.87-5.34-5.37-12.9-3.64-14.95 3.53-6.98-6.03-16.34-4.63-19.64 3.99-3.94-2.97-10.44-2.47-12.64 1.45l-1.1 10.13-94.12-0.99z" fill="url(#paint1_linear_33_20068)"/>
  <path d="m17.66 164.9c-4.81-0.84-7.44 2.85-7.66 7.8h51.96c0.49-6.62-5.19-10.45-9.15-8.96-1.96-6.03-9.52-8.06-13.2-5.45-2.58-6.03-6.54-8.93-11.88-8.52-7.55 0.61-11.22 7.41-10.07 15.13z" fill="url(#paint2_linear_33_20068)"/>
  <path d="m107.7 178.4-1.64-15.29c-0.42-3.15-8.96-4.24-19.88-2.36s-19.54 6.15-19.12 9.3l0.42 8.13c-2.15 0.62-4.84 1.27-4.84 2.7v0.97c0 1.9 11.11 3.32 25 2.98 13.01-0.33 24.11-2.12 24.11-4.02v-1.52c0-0.97-1.56-1.04-4.05-0.89z" fill="#000" opacity=".2"/>
  <path d="m110.9 178.8v1.25c0 1.9-10.71 3.69-23.72 3.69-13.02 0-24.12-1.32-25.46-2.95v-1.43c0-1.89 1.99-2.3 3.04-2.3l42.88 0.25c2.12-0.16 3.26 0 3.26 1.49z" fill="url(#paint3_linear_33_20068)"/>
  <path d="m107.3 162.4c0.42 3.15-8.2 7.42-19.12 9.3s-20.14 0.8-20.56-2.36c-0.42-3.15 8.2-7.42 19.12-9.3 10.92-1.87 20.14-0.79 20.56 2.36z" fill="url(#paint4_linear_33_20068)"/>
  <path d="m102.3 163.2c0.33 2.32-6.82 5.72-16.23 7.32-9.42 1.6-17.34 0.85-17.68-1.47-0.33-2.31 6.82-5.72 16.24-7.31 9.41-1.6 17.33-0.85 17.67 1.46z" fill="url(#paint5_linear_33_20068)"/>
  <path d="m86.78 161.7-4.94-1.03-1.92-0.57-4.49 0.79-1.32 4.16c-0.39 1.28 0.32 2.88 1.81 2.62 1.25-0.24 9.06-2.24 11.99-2.69 1.5-0.26 0.52-2.78-1.13-3.28z" fill="url(#paint6_linear_33_20068)"/>
  <path d="m54.93 177.8-4.15-1.61-2.67 0.97-3.6-0.97-0.85 4.38c-0.33 1.6 0.12 2.42 1.61 2.42l11.95 1.08c1.39 0.14 1.1-0.51 1.02-1.9-0.12-1.73-1.39-3.49-3.31-4.37z" fill="url(#paint7_linear_33_20068)"/>
  <path d="m81.71 95.23c-1.56-2.1-2.57-2.12-3.25-1.04l-1.56 2.96c-0.82 1.46-0.13 2.51 0.98 3.26l-7.86 10.37-3.45-0.37-1.56 6.22 5.11 1.66c5.59-3.12 8.51-12.38 9.85-16.65 1.39-0.99 3.54-2.74 3.81-4.4 0.22-1.08-0.86-1.32-2.07-2.01z" fill="#F1A68E"/>
  <path d="m79.38 96.11-0.56 0.95 0.49 1.73" stroke="#894532" stroke-linecap="round" stroke-miterlimit="10" stroke-width=".6"/>
  <path d="m80.57 96.02-1.36 0.52 1.99 1.97" stroke="#894532" stroke-linecap="round" stroke-miterlimit="10" stroke-width=".6"/>
  <path d="m66.5 100c1.1 1.9 3.9 3.3 2.82 6.15-2.26 6.12-10.98 10.51-18.19 9.85-9.31-0.86-19.76-2.59-22.51-8.49-1.33-3.08 2.3-5.41 2.92-9.34 0.17-8.04 2.36-18.38 18.18-18.38 4.7-0.08 6.52 0.82 9.19 2.35 6 1.4 7.79 6.4 7.67 10.82 0.04 3.28-0.71 5.99-0.08 7.04z" fill="#6D342D"/>
  <path d="m39.64 126.4c-3.42 2.77-7.53 10.63-8.05 13.38 1.42 0.75 2.32 1.34 1.7 3.32-0.52 1.69-1.26 3.05-2.52 2.64l-0.56-0.59-0.9 0.55-1.7-0.78c-1.39-0.75-1.5-2.18-0.24-4.92 1.48-6.95 2.42-12.27 5.93-15.5l2.81-2.32 3.53 4.22z" fill="#F1A68E"/>
  <path d="m64.4 110.2 6.56 0.28 1.36 8.4-8.6 4.5-2.55-11.89 3.23-1.29z" fill="#F9D346"/>
  <path d="m58.09 113.1 1.75-0.66 2.71 1.07 4.86 22.19 7.3 2.71c3 1.06 4.24 2.92 5.12 7.37l2.79 9.92-11.19 3.38-1.26-8.18-12.2-1.7-3.21 23.67-11.54-0.97-0.13-14.88c-3.16-8.47-3.28-16.02-0.81-23.96l2.48-18.46 2.45-0.66 1.8 0.56 9.08-1.4z" fill="url(#paint8_linear_33_20068)"/>
  <path d="m44.16 169.1 9.45 0.86c1.29 0.11 1.69 0.19 1.65 1.48l-0.32 2.29-11.82-0.75-0.4-2.02c-0.13-1.32 0.02-2.07 1.44-1.86z" fill="url(#paint9_linear_33_20068)"/>
  <path d="m72.08 156.1 9.88-1.82 1.06 1.82-0.74 2.15-9.58 1.87-1.59-0.83 0.97-3.19z" fill="url(#paint10_linear_33_20068)"/>
  <path d="m33.67 122.6c2.81-3.3 10.24-7.49 12.65-7.49l0.99 10.21-8.39 5.92-5.25-8.64z" fill="#F9D346"/>
  <path d="m45.23 114.4 2.59-0.36 2.15 7.6 8.45-0.98-0.74-7.6 2.16-0.02 1.24 9.1-12.26 1.51-3.59-9.25z" fill="#F9B342"/>
  <path d="m50.67 100.6-0.56 2.84" stroke="#894532" stroke-linecap="round" stroke-miterlimit="10" stroke-width=".6"/>
  <path d="m56.98 99.16 0.13 3.23-0.82 0.75 1.56 0.82" stroke="#894532" stroke-linecap="round" stroke-miterlimit="10" stroke-width=".6"/>
  <path d="m50.59 101.6c0.89 0 0.77-1.32-0.14-1.32-0.87 0-0.74 1.32 0.14 1.32z" fill="#000" stroke="#000" stroke-linecap="round" stroke-miterlimit="10" stroke-width=".6"/>
  <path d="m61.01 96.8c1.01-0.42 2.2-0.59 2.72 0.23" stroke="#894532" stroke-linecap="round" stroke-miterlimit="10" stroke-width=".6"/>
  <path d="m47.58 98.62c0.81-1.01 2.03-1.34 2.82-1.12" stroke="#894532" stroke-linecap="round" stroke-miterlimit="10" stroke-width=".6"/>
  <path d="m47.78 108.6c2.51 0 2.34-2.16 1.6-3.3-0.98-1.53-5.21-1.06-4.77 1.42 0.24 1.15 1.32 1.88 3.17 1.88z" fill="#F58A76"/>
  <path d="m63.79 105.8c2.7 0 2.54-2.34 1.87-3.23-1.12-1.58-4.97-1-4.27 1.65 0.23 0.89 1.09 1.58 2.4 1.58z" fill="#F58A76"/>
  <path d="m40.38 104.8c-1.24-3.01-4.61-3.77-5.55-0.75-0.97 3.14 1.13 5.59 4.1 4.53l2.29-0.36-0.84-3.42z" fill="#F1A68E"/>
  <path d="m37.31 105.3 1.45 1.94" stroke="#894532" stroke-linecap="round" stroke-miterlimit="10" stroke-width=".6"/>
  <path d="m37.13 95.81 1.63-0.54 3.62 2.34c0.66 0.49 0.03 1.88-1.36 1.6l-3.89-2.15v-1.25z" fill="url(#paint11_linear_33_20068)"/>
  <path d="m52.29 107h7.42c-0.44 2.96-2.34 4.22-3.63 3.96-2.15-0.44-3.36-1.54-3.79-3.96z" fill="#992927"/>
  <path d="m52.29 107c1.54-0.55 4.62 0.47 6.58 1.26-0.69 1.57-1.89 2.41-2.79 2.3-2.02-0.29-3.36-1.61-3.79-3.56z" fill="url(#paint12_linear_33_20068)"/>
  <path d="m49.44 102.1c0.84 0 0.71-1.29-0.13-1.29-0.82 0-0.71 1.29 0.13 1.29z" fill="#000" stroke="#000" stroke-linecap="round" stroke-miterlimit="10" stroke-width=".6"/>
  <path d="m50.71 124.5 10.5-0.42c0.9 5.18-0.92 9.35-5.09 9.1s-5.57-3.5-5.41-8.68z" fill="url(#paint13_linear_33_20068)"/>
  <path d="m86.27 157.7c0.74-12.74 1.36-23.78 13.55-44.29 1.11-1.97 0.96 1.11 1.93 2.29 0.86 1.06 3.53 1.35 3.77 1.9-9.61 11.04-16.23 28.11-19.25 40.1z" fill="#B1E6E6"/>
  <path d="m91.22 158.4c2.48-8.35 7.29-15.9 15.45-22.54 1.8-1.9 0.55-2.76-0.65-2.2-5.22 1.29-13.66 15.69-14.8 24.74z" fill="#B1E6E6"/>
  <path d="m85.98 154c-0.75-3.96-0.67-8.56-2.86-12.49-0.42-0.87 0.7-0.91 1.49-0.39 3.23 1.97 2.81 8.83 1.37 12.88z" fill="#B1E6E6"/>
  <path d="m27.73 85.79c0.85-8.88 6.67-18.76 12.48-23.36l-1.12-1.39c-5.58 3.92-11.36 15.52-11.36 24.75z" fill="#B1E6E6"/>
  <path d="m29.75 67.24c1.64-4.95 4.44-10.13 8.73-12.87 1.29-0.75 1.33 0.74 0.44 2.43-2.61 2.61-6.02 6.58-9.17 10.44z" fill="#B1E6E6"/>
  <path d="m159.4 126.2 2.63-1.75 10.96-0.29 3.41 1.19 7.05 5.52-0.9 5.08-2.93 3.15 0.19 5.11-12.14-5.92-9.61 1.76 0.07-7.94 1.27-5.91z" fill="url(#paint14_linear_33_20068)"/>
  <path d="m155.1 120c-1.98-0.62-4.97-0.07-4.97 5.08-1.34 5.22-1.37 11.79 2.05 11.89l4.58-1.3 1.79-9.55-0.32-5.55-3.13-0.57z" fill="url(#paint15_linear_33_20068)"/>
  <path d="m155.2 104.9-0.6 11.2 1.56 8.18 3.05 2.21c2.02 1.56 5.74 2.04 8.49-0.16l3.35-1.39 2.6-4.67 1.52-8.18-2.06-11.46-15.26-0.5-2.65 4.77z" fill="url(#paint16_linear_33_20068)"/>
  <path d="m153.2 103.4c-0.86-2.43 2.8-4.7 4.46-6.01-1.01-0.89-2.15-2.28 0.65-3.31 2.71-1.04 5.74-1.34 10.4-0.37-0.24-1.32 0.41-2.21 2.71-1.52 3.42 0.97 6.79 3.58 8.53 5.55 0.79-1.08 1.55-1.77 2.56-0.72 0.9 0.89-0.14 1.79-0.76 2.1 2.15-0.68 3.71-0.71 3.46 0.82-0.23 0.94-1.41 1-1.8 0.8 2.79 2.2 4.39 6.41 3 9.56-1.29 3.11-2.61 2.49-3.4 4.16l-6.98 1.08-1.92-10.59-17.81 1.79c-1.39-0.1-2.47-1.3-3.1-3.34z" fill="#662D25"/>
  <path d="m180.2 115.1c2.83-0.68 3.98 1.98 3.45 3.82-0.97 3.44-4.75 2.9-6.57 1.53l0.29-3.32c0.6-1.01 1.27-1.62 2.83-2.03z" fill="url(#paint17_linear_33_20068)"/>
  <path d="m181 117-1.52 1.72" stroke="#894532" stroke-linecap="round" stroke-miterlimit="10" stroke-width=".6"/>
  <path d="m156.6 114.1c1.96-0.45 2.11 2.34 0.44 3l-1.6-0.04c-1.05-1.07-0.39-2.57 1.16-2.96z" fill="#E04F4A"/>
  <path d="m172.2 115.8c2.38-0.47 3.46 1.36 2.64 2.72l-1.67 1.18-4.53-0.09c-0.69-1.97 0.46-3.21 3.56-3.81z" fill="#E04F4A"/>
  <path d="m157.7 111.7c0.86-1.44 2.16-1.65 2.98-0.85" stroke="#42210B" stroke-linecap="round" stroke-miterlimit="10" stroke-width=".6"/>
  <path d="m170.1 109.3c1.01-0.56 2.49-0.56 3.2 0.55" stroke="#42210B" stroke-linecap="round" stroke-miterlimit="10" stroke-width=".6"/>
  <path d="m170 118c0.09 2.1-1.67 4.08-2.86 3.83-1.39-0.22-2.99-1.53-3.27-3.51 1.87-0.97 3.87-1.22 6.13-0.32z" fill="url(#paint18_linear_33_20068)"/>
  <path d="m171 121.9c-0.39-1.9 0.3-2.59 1.09-2.47l0.83 0.79-0.42-0.97c0-0.79 1.11-1.12 1.9-0.26l7.78 11.51c1.26 2.4 0.57 5.55-2.08 6.3-3.3 0.97-8.21-7.8-9.1-14.9z" fill="url(#paint19_linear_33_20068)"/>
  <path d="m104.1 82.32c-3.02-1.41 1.87-12.3 8.01-17.76 4.34-3.95 9.32-4.23 10-3.95l-4.94 16.41-3.03 0.39c-3.51 1.13-8.04 5.75-10.04 4.91z" fill="#000" opacity=".2"/>
  <path d="m105.8 113.1c-2.23 0-1.12-10.63 0-13.05l4.44-1.9-5.66 1.49c1.47-7.41 7.1-12.59 13.41-12.59l6.81 2.05c2.48 7.69-3.74 18-7.68 19.52l-1.34-3.57c-2.15 3.3-6.69 7.8-9.98 8.05z" fill="#000" opacity=".2"/>
  <path d="m135.8 102.8c-2.67-0.56-1.11-5.5-0.63-11.69l-1.56-2.53 1.06-1.15c4.83-3.64 10.65-9.92 12.57-9.36 3.81 3.79-0.21 14.95-8.56 23.55-1.25 1.18-2.03 1.34-2.88 1.18z" fill="#000" opacity=".2"/>
  <path d="m104.2 82.07c-3.03-1.41 2.26-12.04 8.02-17.51 4.14-4.03 8.98-4.44 9.99-4.2l-4.94 16.41-3.03 0.39c-3.53 1.13-8.06 5.75-10.04 4.91z" fill="url(#paint20_linear_33_20068)"/>
  <path d="m105.7 112.4c-1.99-0.69-0.7-10.3 0.59-12.4l3.94-1.6-5.63 0.95c1.99-8.18 6.9-12.6 13.61-13l6.2 2.24c2.22 6.59-3.11 15.91-7.71 19.05l-0.98-3.24c-1.95 3.07-6.4 7.23-10.02 8z" fill="url(#paint21_linear_33_20068)"/>
  <path d="m116.8 81.14 9.29 8.55c1.56 1.39 5.18 0.73 6.54-0.69 11.36-10.04 26.14-22.09 34.58-49.95 1.55-6.86 1.03-16.2-1.91-18.14-3.29-1.79-15.37 3.86-22.86 10.5-14.61 11.83-22.3 27.25-26.24 42.5-0.97 3-1.09 5.05 0.6 7.23z" fill="url(#paint22_linear_33_20068)"/>
  <path d="m118.9 92.82c-1.7-0.89 4.19-13.81 9.68-21 2.67-3.08 5.08-4.61 6.1-3.76 1.56 1.34-3.77 11.66-8.47 17.75-2.3 3.15-5.59 7.7-7.31 7.01z" fill="url(#paint23_linear_33_20068)"/>
  <path d="m130.8 90.14c2.96-1.97 7.23-5.96 10.03-8.92s5.64-3.81 6.43-1.84c2.34 5.93-3.46 15.35-9.56 21.43-2.67 2.22-3.93 1.35-3.55-2.19 0.42-2.96 0.73-4.82 0.73-7.34-0.08-1.31-1.88-0.61-4.08-1.14z" fill="url(#paint24_linear_33_20068)"/>
  <path d="m142.9 31.55c6.38-5.65 15.54-10.9 21.75-10.9 3.16 0 3.68 10.26 1.42 19.98-0.79 3.56-1.48 6.1-2.46 6.1-7.48 0.36-19.77-9.39-20.71-15.18z" fill="url(#paint25_linear_33_20068)"/>
  <path d="m144.2 44.8c-6.14 0-9.4 5.01-9.4 9.61 0 5.4 4.1 9.07 9.01 9.07 5.92 0 8.98-4.82 8.8-9.36-0.25-4.91-4.01-9.32-8.41-9.32z" fill="#000" opacity=".2"/>
  <path d="m144.1 45.01c-5.97 0-9.24 4.88-9.24 9.3 0 5.42 3.91 8.61 8.6 8.61 5.96 0 8.99-4.66 8.83-9.01-0.25-4.83-3.91-8.9-8.19-8.9z" fill="url(#paint26_linear_33_20068)"/>
  <path d="m144 47.68c-4.19 0-6.34 3.4-6.34 6.63 0 3.64 2.75 5.54 5.88 5.42 4.17-0.12 6.15-3.42 6.02-6.37-0.19-3.3-2.78-5.68-5.56-5.68z" fill="#B1E6E6"/>
  <path d="m42.53 58.09c-0.52-0.39 0.84-4.97 2.66-7.83 2.02-3.15 4.77-4.54 8.12-4.06l2.71 1.44-1.39 2.42c-1.72 3.15-5.01 7.01-6.93 7.48l-0.69-1.87c-1.14 1.26-3.16 2.55-4.48 2.42z" fill="url(#paint27_linear_33_20068)"/>
  <path d="m46.06 40.82c1.56-3.52 7.05-9.08 14.34-8.62l0.52 0.75-7.56 9.12-5.59-1.16c-1.01 0.46-2.06 0.71-1.71-0.09z" fill="url(#paint28_linear_33_20068)"/>
  <path d="m53.23 42.62 1.95-1.22 3.03 2.96-1.56 4.72-2.3-1.31-1.12-5.15z" fill="url(#paint29_linear_33_20068)"/>
  <path d="m55.42 45.13c5.5-7.87 16.6-22.75 32.77-27.23 3.53-0.39 4.82-0.19 4.9 1.86 0.2 3.35-4.5 12.81-6.18 13.36-3.79 0.69-9.65 4.71-14.83 10.8-3.03 3.4-9.3 5.73-10.96 5.17l-5.7-3.96z" fill="url(#paint30_linear_33_20068)"/>
  <path d="m60.33 57.11c-0.02-1.72 2.48-4.33 1.96-9.19l1.12 0.39 8.34-1.22c-1.64 6.25-6.67 10.82-9.7 11.37-1.13 0.2-1.68-0.35-1.72-1.35z" fill="url(#paint31_linear_33_20068)"/>
  <path d="m74.54 27.41c-4.13 0-5.25 3.82-5.13 6.32 0.18 3.28 2.49 4.81 5.05 4.69 3.39-0.16 5.41-2.95 5.41-5.65-0.04-2.84-2.25-5.36-5.33-5.36z" fill="url(#paint32_linear_33_20068)"/>
  <path d="m74.71 28.91c-2.8 0-3.84 2.48-3.75 4.49 0.11 2.52 1.67 3.61 3.46 3.48 2.44-0.17 3.83-2.15 3.83-4.27-0.04-2.1-1.52-3.7-3.54-3.7z" fill="#B1E6E6"/>
  <path d="m52.76 48.51c-0.08-1.03 8.36-7.98 13.66-10.17 0.97-0.38 1.05 0.4 0.59 1.27-2.12 4.1-9.4 9.47-12.07 9.84-1.22 0.16-2.06-0.04-2.18-0.94z" fill="url(#paint33_linear_33_20068)"/>
  <path d="m88.23 32.61c-4.17-1.53-9.08-7.42-9.7-13.24 3.27-1.08 8.89-1.78 12.41-1.61 1.22 0.06 1.84 0.45 2 1.28 0.57 2.28-3.13 10.22-4.71 13.57z" fill="url(#paint34_linear_33_20068)"/>
  <defs>
    <linearGradient id="paint0_linear_33_20068" x1="2.433" x2="197.5" y1="153.6" y2="153.6" gradientUnits="userSpaceOnUse">
      <stop stop-color="#099" offset="0"/>
      <stop stop-color="#008584" offset="1"/>
    </linearGradient>
    <linearGradient id="paint1_linear_33_20068" x1="9.951" x2="193.8" y1="166.9" y2="166.9" gradientUnits="userSpaceOnUse">
      <stop stop-color="#FBD346" offset="0"/>
      <stop stop-color="#F9A64A" offset="1"/>
    </linearGradient>
    <linearGradient id="paint2_linear_33_20068" x1="9.987" x2="61.99" y1="160.8" y2="160.8" gradientUnits="userSpaceOnUse">
      <stop stop-color="#FBD346" offset="0"/>
      <stop stop-color="#F9A64A" offset="1"/>
    </linearGradient>
    <linearGradient id="paint3_linear_33_20068" x1="61.65" x2="110.9" y1="180.5" y2="180.5" gradientUnits="userSpaceOnUse">
      <stop stop-color="#099" offset="0"/>
      <stop stop-color="#006865" offset="1"/>
    </linearGradient>
    <linearGradient id="paint4_linear_33_20068" x1="67.01" x2="107.3" y1="166.3" y2="166.3" gradientUnits="userSpaceOnUse">
      <stop stop-color="#D9F0EB" offset="0"/>
      <stop stop-color="#96D7C6" offset="1"/>
    </linearGradient>
    <linearGradient id="paint5_linear_33_20068" x1="68.35" x2="102.3" y1="166.1" y2="166.1" gradientUnits="userSpaceOnUse">
      <stop stop-color="#FBD346" offset="0"/>
      <stop stop-color="#F9A64A" offset="1"/>
    </linearGradient>
    <linearGradient id="paint6_linear_33_20068" x1="74" x2="89.36" y1="163.9" y2="163.9" gradientUnits="userSpaceOnUse">
      <stop stop-color="#008481" offset="0"/>
      <stop stop-color="#006865" offset="1"/>
    </linearGradient>
    <linearGradient id="paint7_linear_33_20068" x1="43.53" x2="58.36" y1="180" y2="180" gradientUnits="userSpaceOnUse">
      <stop stop-color="#008481" offset="0"/>
      <stop stop-color="#006865" offset="1"/>
    </linearGradient>
    <linearGradient id="paint8_linear_33_20068" x1="40.59" x2="82.62" y1="142.7" y2="142.7" gradientUnits="userSpaceOnUse">
      <stop stop-color="#FF725D" offset="0"/>
      <stop stop-color="#E94A47" offset="1"/>
    </linearGradient>
    <linearGradient id="paint9_linear_33_20068" x1="42.64" x2="55.28" y1="171.4" y2="171.4" gradientUnits="userSpaceOnUse">
      <stop stop-color="#FF725D" offset="0"/>
      <stop stop-color="#E94A47" offset="1"/>
    </linearGradient>
    <linearGradient id="paint10_linear_33_20068" x1="71" x2="83.02" y1="157.2" y2="157.2" gradientUnits="userSpaceOnUse">
      <stop stop-color="#FF725D" offset="0"/>
      <stop stop-color="#E94A47" offset="1"/>
    </linearGradient>
    <linearGradient id="paint11_linear_33_20068" x1="37.13" x2="42.95" y1="97.2" y2="97.2" gradientUnits="userSpaceOnUse">
      <stop stop-color="#FF725D" offset="0"/>
      <stop stop-color="#E94A47" offset="1"/>
    </linearGradient>
    <linearGradient id="paint12_linear_33_20068" x1="52.25" x2="59.71" y1="108.7" y2="108.7" gradientUnits="userSpaceOnUse">
      <stop stop-color="#DD3636" offset="0"/>
      <stop stop-color="#992927" offset="1"/>
    </linearGradient>
    <linearGradient id="paint13_linear_33_20068" x1="50.65" x2="61.51" y1="128.2" y2="128.2" gradientUnits="userSpaceOnUse">
      <stop stop-color="#DD5A54" offset="0"/>
      <stop stop-color="#E94A47" offset="1"/>
    </linearGradient>
    <linearGradient id="paint14_linear_33_20068" x1="158" x2="183.4" y1="134.2" y2="134.2" gradientUnits="userSpaceOnUse">
      <stop stop-color="#B1E6E6" offset="0"/>
      <stop stop-color="#81D3D1" offset="1"/>
    </linearGradient>
    <linearGradient id="paint15_linear_33_20068" x1="150.3" x2="158.5" y1="128.4" y2="128.4" gradientUnits="userSpaceOnUse">
      <stop stop-color="#F1A68E" offset="0"/>
      <stop stop-color="#D47056" offset="1"/>
    </linearGradient>
    <linearGradient id="paint16_linear_33_20068" x1="154.6" x2="175.9" y1="113.7" y2="113.7" gradientUnits="userSpaceOnUse">
      <stop stop-color="#F1A68E" offset="0"/>
      <stop stop-color="#994532" offset="1"/>
    </linearGradient>
    <linearGradient id="paint17_linear_33_20068" x1="176.7" x2="183.9" y1="117.8" y2="117.8" gradientUnits="userSpaceOnUse">
      <stop stop-color="#F1A68E" offset="0"/>
      <stop stop-color="#994532" offset="1"/>
    </linearGradient>
    <linearGradient id="paint18_linear_33_20068" x1="163.8" x2="170.2" y1="119.4" y2="119.4" gradientUnits="userSpaceOnUse">
      <stop stop-color="#DD3636" offset="0"/>
      <stop stop-color="#992927" offset="1"/>
    </linearGradient>
    <linearGradient id="paint19_linear_33_20068" x1="170.8" x2="183.2" y1="127" y2="127" gradientUnits="userSpaceOnUse">
      <stop stop-color="#F1A68E" offset="0"/>
      <stop stop-color="#D47056" offset="1"/>
    </linearGradient>
    <linearGradient id="paint20_linear_33_20068" x1="103.1" x2="122.2" y1="71.21" y2="71.21" gradientUnits="userSpaceOnUse">
      <stop stop-color="#F77062" offset="0"/>
      <stop stop-color="#E94A47" offset="1"/>
    </linearGradient>
    <linearGradient id="paint21_linear_33_20068" x1="104.4" x2="125" y1="99.41" y2="99.41" gradientUnits="userSpaceOnUse">
      <stop stop-color="#FBD346" offset="0"/>
      <stop stop-color="#F9B04A" offset=".42"/>
      <stop stop-color="#F9A64A" offset="1"/>
    </linearGradient>
    <linearGradient id="paint22_linear_33_20068" x1="115.3" x2="168.1" y1="55.31" y2="55.31" gradientUnits="userSpaceOnUse">
      <stop stop-color="#00C6C3" offset="0"/>
      <stop stop-color="#009693" offset="1"/>
    </linearGradient>
    <linearGradient id="paint23_linear_33_20068" x1="118.6" x2="135.1" y1="80.27" y2="80.27" gradientUnits="userSpaceOnUse">
      <stop stop-color="#F77062" offset="0"/>
      <stop stop-color="#E94A47" offset="1"/>
    </linearGradient>
    <linearGradient id="paint24_linear_33_20068" x1="130.8" x2="148.1" y1="88.01" y2="88.01" gradientUnits="userSpaceOnUse">
      <stop stop-color="#F77062" offset="0"/>
      <stop stop-color="#E94A47" offset="1"/>
    </linearGradient>
    <linearGradient id="paint25_linear_33_20068" x1="142.8" x2="167.2" y1="33.68" y2="33.68" gradientUnits="userSpaceOnUse">
      <stop stop-color="#F77062" offset="0"/>
      <stop stop-color="#E94A47" offset="1"/>
    </linearGradient>
    <linearGradient id="paint26_linear_33_20068" x1="134.9" x2="152.3" y1="53.97" y2="53.97" gradientUnits="userSpaceOnUse">
      <stop stop-color="#FFD147" offset="0"/>
      <stop stop-color="#F9A848" offset="1"/>
    </linearGradient>
    <linearGradient id="paint27_linear_33_20068" x1="42.34" x2="56.02" y1="52.08" y2="52.08" gradientUnits="userSpaceOnUse">
      <stop stop-color="#FBD346" offset="0"/>
      <stop stop-color="#F9A64A" offset="1"/>
    </linearGradient>
    <linearGradient id="paint28_linear_33_20068" x1="45.96" x2="60.92" y1="36.9" y2="36.9" gradientUnits="userSpaceOnUse">
      <stop stop-color="#F77062" offset="0"/>
      <stop stop-color="#E94A47" offset="1"/>
    </linearGradient>
    <linearGradient id="paint29_linear_33_20068" x1="53.12" x2="58.21" y1="45.25" y2="45.25" gradientUnits="userSpaceOnUse">
      <stop stop-color="#099" offset="0"/>
      <stop stop-color="#008584" offset="1"/>
    </linearGradient>
    <linearGradient id="paint30_linear_33_20068" x1="54.86" x2="93.05" y1="33.55" y2="33.55" gradientUnits="userSpaceOnUse">
      <stop stop-color="#00B6B3" offset="0"/>
      <stop stop-color="#009693" offset="1"/>
    </linearGradient>
    <linearGradient id="paint31_linear_33_20068" x1="60.33" x2="71.75" y1="38.56" y2="38.56" gradientUnits="userSpaceOnUse">
      <stop stop-color="#F77062" offset="0"/>
      <stop stop-color="#E94A47" offset="1"/>
    </linearGradient>
    <linearGradient id="paint32_linear_33_20068" x1="69.17" x2="79.87" y1="33.11" y2="33.11" gradientUnits="userSpaceOnUse">
      <stop stop-color="#FFD147" offset="0"/>
      <stop stop-color="#F9A848" offset="1"/>
    </linearGradient>
    <linearGradient id="paint33_linear_33_20068" x1="52.75" x2="67.44" y1="43.54" y2="43.54" gradientUnits="userSpaceOnUse">
      <stop stop-color="#F77062" offset="0"/>
      <stop stop-color="#E94A47" offset="1"/>
    </linearGradient>
    <linearGradient id="paint34_linear_33_20068" x1="78.49" x2="93.06" y1="25.19" y2="25.19" gradientUnits="userSpaceOnUse">
      <stop stop-color="#F77062" offset="0"/>
      <stop stop-color="#E94A47" offset="1"/>
    </linearGradient>
  </defs>
</svg>