<svg xmlns="http://www.w3.org/2000/svg" width="250" height="250" fill="none" viewBox="0 0 250 250">
<!-- SVG created with Arrow, by QuiverAI (https://quiver.ai) -->
  <path d="m13.71 212.1 57.59 13.2c2.61 0.78 5.2 0.44 7.9-0.44 21.02-7.2 38.43-20.23 51.4-42.7 6.58-11.4 13.07-25.29 17.46-35.55l9.18 33.56c3.72 11.69 13.29 12.23 19.87 6.98 3.87-3.15 5.32-7.32 5.66-8.31l33.66 6.05 3.88 14.23c3.44 9.28 12.43 8.65 17.25 6.23 6.5-3.16 9.45-11.8 8.65-17.64l-12.46-47.64c5.48-4.73 6.09-12.62 4.41-17.8l-13.04-47.64c-2.34-7.4-7.52-10.33-12.4-9.63l-2.68-13.55c-3.32-12.66-12.51-15.82-21.39-14.9-18.55 1.58-25.32 13.74-27.33 25.35-1.13-8.08-6.58-11-10.99-10.45l-3.56-14.3c-4.16-11.02-11.14-14.34-21.79-13.93-14.34 0.61-25.13 11.67-24.52 32.78l0.22 5.22c-10.03 3.94-21.84 14.56-28.47 31.56-14.48 34.6-25.83 60.16-51.28 74.29-10.68 4.77-14.22 11.82-16.74 18.46-2 6.87-1.06 10.08 4.1 12.33-2.5 5.31-3.16 11.55 5.42 14.24zm218.3-79.63-16.87-60.62c2.8 0.31 4.17 4.55 5.2 9.31l12.5 43.22c0.97 3.65 1.11 5.67-0.83 8.09z" fill="#221F1F" opacity=".25"/>
  <path d="m224.8 74.94c-2.38-8.65-7.87-11.46-12.95-11.02l-1.76 0.08 1.68 7.14c3.22-0.65 5.51 1.58 7.04 8.06l13.04 47.64c1.56 5.29-0.91 8.77-2.64 9.98l2.85 2.9c6.35-4.61 7.35-12.07 5.78-17.14l-13.04-47.64z" fill="url(#paint0_linear_2_6347)"/>
  <path d="m162.3 61.31c-2.31-10.26-7.3-11.45-11.71-10.7l-0.46 6.6c3.36-0.43 5.94 0.87 7.58 4.95l1.26 1.59 3.33-0.46v-1.98z" fill="url(#paint1_linear_2_6347)"/>
  <path d="m156.6 177.2-11.1-38.88 3.8-1.56 11.58 41.48c2.83 8.56 10.98 7.73 15.23 2.75 2.66-3.16 2.84-5.14 3.25-6.06l4.09 1.34c-1.45 5.61-4.68 10.52-10.08 12.91-5.19 1.74-13.37-0.01-16.77-11.98z" fill="url(#paint2_linear_2_6347)"/>
  <path d="m11.84 210.2 58.97 13.81c2.44 0.68 4.81 0.34 7.11-0.41 19.24-5.79 37.38-18.09 50.6-39.89 8.24-13.66 17.99-36.38 24.11-51.15 6.97-17.15 14.9-27.04 25.4-29.8l31.37-11.01-3.72-9.28-35.9 9.88c-14.63 4.63-22.57 19.77-30.66 40.88-8.5 21.04-16.38 40.52-31.42 55.52-11.67 11.81-23.05 18.75-34.86 20.93l-62.03-13.15c-5.6-1.33-5.8-4.22-5.19 1.5 0.09 3.35-0.16 9.56 6.22 12.17z" fill="url(#paint3_linear_2_6347)"/>
  <path d="m11.46 193.3 59.41 14.55c7.34 2.36 32.46-11.81 47.08-35.18 8.18-12.48 14.06-27.23 20.9-42.53 7.6-17.93 15.21-31.29 27.64-36.5l36.56-11.8-4.88-5.8-33.55-5.8c-15.91 2.64-27.4 17.62-34.14 35.81-12.73 31.08-22.72 61.56-47.47 76.92-8.94 4.14-13.7 10.82-16 19.22-1.32 5.4 1.1 8.24 3.2 8.31l-58.15-14.82c-5.92-1.71-4.85-6.57-0.6-8.53 13.17-6.15 21.51-8.85 36.82-23.98 12.49-12.79 19.95-31 30.16-53.99 8.28-18.13 15.74-28.18 27.85-32.85l0.15-16.24-4.57-1.02c-10.75 2.68-23.22 14.8-30.36 32.57-13.53 32.87-25 57.79-45.45 71.76-4.38 3.19-9.91 4.22-14.85 9.88-5.54 5.58-8.15 13.22-7.29 16.6 0.6 2.36 2.91 2.79 7.54 3.42z" fill="url(#paint4_linear_2_6347)"/>
  <path d="m101.3 58.06 2.59 0.58c-0.5-15.22 3.14-31.39 23.64-31.51 10.18-0.06 13.62 6.68 15.86 16.42l5.65 17.93 3.73-1.19-6.64-24.39c-4.87-10.6-12.45-13.6-23.85-12.7-13.34 1.29-22.53 12.35-21.93 31.28l0.95 3.58z" fill="url(#paint5_linear_2_6347)"/>
  <path d="m106.9 72.31 39.62-11.47 15.25 1.77-0.63 12.39-13.92 10.63-40.58-8.69 0.26-4.63z" fill="url(#paint6_linear_2_6347)"/>
  <path d="m162.1 115.1 40.06 6.42-4.27-10.49-26.83-3.97-8.96 8.04z" fill="url(#paint7_linear_2_6347)"/>
  <path d="m156.3 127.1 3.67-7.09 43.66 7.09 1.41 15.84-44.42-7.94c-5.44-1.33-5.75-4.48-4.32-7.9z" fill="url(#paint8_linear_2_6347)"/>
  <path d="m159.2 150.2 4.07 19.71c1.06 3.69 3.93 5.72 6.88 6.17l45.68 7.33-4.72-20.29-50.15-10.21-1.76-2.71z" fill="url(#paint9_linear_2_6347)"/>
  <path d="m161.8 64.71c0.85-15 9.22-27.87 27.17-29.29 10.79-1 17.76 3.99 20.26 14.27l37.23 136.1c1.96 7.29-2.51 15.64-7.31 17.94-6.03 2.86-14.43 0.45-17.22-8.93l-26.83-103.8-19.85 7.03c-6.3 1.32-12.81-2.01-13.87-9.46-0.73-7.93-0.62-15.96 0.42-23.9zm12.43-3.3c-0.78 6.2 2.86 4.35 6.42 3.6 6.78-1.58 14.15-3.76 16.14-5.82 1.72-1.42 0.86-6.95-2.77-10.02-3.44-2.42-17.45-1.55-19.79 12.24z" fill="url(#paint10_linear_2_6347)"/>
  <path d="m165 64.85c1.04-14.04 8.09-24.32 23.9-24.99 9.59-0.78 14.72 5.85 16.98 14.22l35.01 130.9c2.69 8.58-2.8 15.32-6.54 15.78-5.04 1.02-7.95-1.83-9-7.11l-29.73-103.6c-0.36-0.88-1.24-0.6-1.85-0.3l-18.73 5.94c-5.04 1.33-7.99-1.74-8.8-6.04-0.86-8.23-1.31-15.46-1.24-24.77zm8.91-4.43c-0.78 6.87 2.32 5.24 6.41 4.58 6.58-1.42 13.11-3.6 15.8-5.42 2.69-1.42 1.11-9.36-4.33-11.34-6.58-1.63-15.75 1.85-17.88 12.18z" fill="url(#paint11_linear_2_6347)"/>
  <path d="m106.3 60.69c1.53 5.38 0.4 16.69 0.4 16.69-13.11 5.68-19.33 18.48-28.13 38.69-10.54 23.9-19.9 44.74-42.41 60.02-8.11 6.05-14.21 8.27-21.87 11.63-4.09 1.85-5.3 6.99-1.22 8.31l-3.55-0.81c-4.28-1.58-6.5-3.71-4.82-10.47 2.5-8.1 7.64-14.14 15.88-17.98 18.29-8.85 26.87-19.75 43.73-58 8.28-19.91 13.22-34.75 31.58-47.23 3.57-2.23 9.17-4.29 10.41-0.85z" fill="url(#paint12_linear_2_6347)"/>
  <path d="m113.9 43.81c3.9-6.73 10.17-7.65 15-6.84 5.04 0.92 7 8.01 6.27 10.14-0.73 2.42-6.76 3.51-13.54 5.46-7.23 2.18-8.61 1.51-8.2-4.4 0.09-1.3-0.19-2.65 0.47-4.36z" fill="#FEFFFE"/>
  <path d="m159.2 148.8 12.08-3.35 36.71 5.8 2.59 10.5-50.15-9.12c-1.85-0.67-2.38-2.63-1.23-3.83z" fill="url(#paint13_linear_2_6347)"/>
  <defs>
    <linearGradient id="paint0_linear_2_6347" x1="211.8" x2="239" y1="101.7" y2="101.7" gradientUnits="userSpaceOnUse">
      <stop stop-color="#F16650" offset="0"/>
      <stop stop-color="#F37560" offset="1"/>
    </linearGradient>
    <linearGradient id="paint1_linear_2_6347" x1="150.2" x2="161.7" y1="56.9" y2="56.9" gradientUnits="userSpaceOnUse">
      <stop stop-color="#F16650" offset="0"/>
      <stop stop-color="#F37560" offset="1"/>
    </linearGradient>
    <linearGradient id="paint2_linear_2_6347" x1="146.1" x2="183.2" y1="161.4" y2="161.4" gradientUnits="userSpaceOnUse">
      <stop stop-color="#F16650" offset="0"/>
      <stop stop-color="#F37560" offset="1"/>
    </linearGradient>
    <linearGradient id="paint3_linear_2_6347" x1="6.823" x2="209.4" y1="153.8" y2="153.8" gradientUnits="userSpaceOnUse">
      <stop stop-color="#FFCC52" offset="0"/>
      <stop stop-color="#F4B43B" offset="1"/>
    </linearGradient>
    <linearGradient id="paint4_linear_2_6347" x1="3.713" x2="203" y1="134.9" y2="134.9" gradientUnits="userSpaceOnUse">
      <stop stop-color="#F37560" offset="0"/>
      <stop stop-color="#F16650" offset="1"/>
    </linearGradient>
    <linearGradient id="paint5_linear_2_6347" x1="100.3" x2="152.8" y1="41.28" y2="41.28" gradientUnits="userSpaceOnUse">
      <stop stop-color="#FFCC52" offset="0"/>
      <stop stop-color="#F4B43B" offset="1"/>
    </linearGradient>
    <linearGradient id="paint6_linear_2_6347" x1="106.4" x2="161.8" y1="72.85" y2="72.85" gradientUnits="userSpaceOnUse">
      <stop stop-color="#FF785F" offset="0"/>
      <stop stop-color="#F37560" offset="1"/>
    </linearGradient>
    <linearGradient id="paint7_linear_2_6347" x1="161.7" x2="202.2" y1="113.5" y2="113.5" gradientUnits="userSpaceOnUse">
      <stop stop-color="#FFCC52" offset="0"/>
      <stop stop-color="#F4B43B" offset="1"/>
    </linearGradient>
    <linearGradient id="paint8_linear_2_6347" x1="155" x2="205.1" y1="130" y2="130" gradientUnits="userSpaceOnUse">
      <stop stop-color="#F37560" offset="0"/>
      <stop stop-color="#F16650" offset="1"/>
    </linearGradient>
    <linearGradient id="paint9_linear_2_6347" x1="159.2" x2="215.8" y1="167.5" y2="167.5" gradientUnits="userSpaceOnUse">
      <stop stop-color="#F37560" offset="0"/>
      <stop stop-color="#F16650" offset="1"/>
    </linearGradient>
    <linearGradient id="paint10_linear_2_6347" x1="161" x2="246.6" y1="119.9" y2="119.9" gradientUnits="userSpaceOnUse">
      <stop stop-color="#FFCC52" offset="0"/>
      <stop stop-color="#F4B43B" offset="1"/>
    </linearGradient>
    <linearGradient id="paint11_linear_2_6347" x1="165" x2="241.8" y1="120.1" y2="120.1" gradientUnits="userSpaceOnUse">
      <stop stop-color="#36CCC8" offset="0"/>
      <stop stop-color="#36C0B8" offset="1"/>
    </linearGradient>
    <linearGradient id="paint12_linear_2_6347" x1="3.904" x2="107.2" y1="127.8" y2="127.8" gradientUnits="userSpaceOnUse">
      <stop stop-color="#00A6AC" offset="0"/>
      <stop stop-color="#029BA6" offset="1"/>
    </linearGradient>
    <linearGradient id="paint13_linear_2_6347" x1="159.3" x2="210.6" y1="153.7" y2="153.7" gradientUnits="userSpaceOnUse">
      <stop stop-color="#FFCC52" offset="0"/>
      <stop stop-color="#F4B43B" offset="1"/>
    </linearGradient>
  </defs>
</svg>