<svg xmlns="http://www.w3.org/2000/svg" width="200" height="200" fill="none" viewBox="0 0 200 200">
<!-- SVG created with Arrow, by QuiverAI (https://quiver.ai) -->
  <path d="m188.9 78.38c0.58-3.22-1.76-5.29-5.48-4.43l-0.67-0.3c1.64-6.87-3.84-13.5-11.31-13.75-3.97-0.14-7.47 1.56-10.04 4.23-1.12-4.88-5.4-8.46-10.6-8.46-2.54 0-4.89 0.87-6.8 2.34-0.9-0.34-1.87-0.56-2.89-0.62 0.21-1 0.33-2.04 0.33-3.12 0-8.39-6.51-15.27-14.48-15.27-7.96 0-19.17 6.04-19.37 15.65-0.13 6.11 3.07 11.17 7.95 13.91-0.73 1.08-1.32 2.3-1.69 3.62-2.13-1.3-4.6-2.02-7.24-1.91-5.15 0.22-8.62 3.51-8.98 8.3l91.22-0.15 0.05-0.04z" fill="#999A9F" opacity=".15"/>
  <path d="m188.5 79.92c0.78-2.85-0.7-6.21-5.73-6.12l-0.62-0.29c1.94-6.87-3.81-13.97-11.52-14-4.13-0.02-7.61 2.1-10.13 5.11-1.58-4.57-5.62-7.8-10.6-7.8-2.5 0-4.74 0.91-6.69 2.29-0.87-0.32-1.79-0.53-2.77-0.58-1.5 2.02-2.99 2.85-4.47 3.8h-6.14c0.08-0.56 0.15-1.12 0.15-1.7 0-8.16-6.36-14.44-13.64-11.89l-1.89 17.39-0.09 2.22 1.41 1.93-2.4 6.78 2.97 0.48 72.11 0.36 0.05 2.02z" fill="#FFFFFE"/>
  <path d="m138.3 53.88c0 8.79-6.85 15.09-15.23 15.09-8.37 0-15.82-6.3-15.82-15.09s7.1-15.9 15.74-15.9 15.31 7.11 15.31 15.9z" fill="url(#paint0_linear_2000_12422)"/>
  <path d="m2.81 151.7c0.14-7.74 4.25-26.62 16.62-44.58 5.6-7.92 13.24-11.05 22.34-10.22 11.34 1.09 20.76 8.03 29.66 15.79 2.78 2.55 7.54 5.41 10.32 5.49h41.2c7.07-6.63 12.52-18.16 28.13-21.28 9.08-1.91 17.24 0.33 25.83 10.9 8.83 10.91 19.9 31.32 20.56 43.88l-194.7 0.02z" fill="#00666A" opacity=".15"/>
  <path d="m2.72 151c0.46-8.32 7.3-26.25 25.25-31.33l17.75-0.24c6.73 0.48 11.85 4.22 16.31 8.45 2.79 2.73 8.1 3.99 14.72 0.38l48.96-15.76c6.15-7.15 13.6-12.48 24.06-15.33 5.61-1.57 9.29-0.67 10.44-0.27l14.83 21.36c12.43 4.5 20.5 13.71 22.19 30.94-1.6-3.95-9.05-10.74-18.88-11.75-5.69-0.56-13.15-0.86-20.3 3.51-5.69 3.44-11.33 3.81-16.03 2.63-5.31-1.32-9.8-0.63-14.1 2.71l-4.18 4.77-121-0.07z" fill="url(#paint1_linear_2000_12422)"/>
  <path d="m2.72 150.8c2.95-7.79 11.26-13.61 22.56-13.54 9.54 0.07 12.63 2.47 17.71 4.65 4.97 2.13 8.13 2.36 13.16 1.89l16.97-7.3 6.39-2.48c3.41 5.82 9.42 8.24 20.71 10.28l8.55 0.18 15.97-2.22 10.95-0.48c2.96 1.24 11.12 1.88 19.29-2.47 6.38-3.44 10.04-2.97 15.93-2.73 12.31 0.5 23.37 7.53 26.25 14.28l-194.4-0.06z" fill="url(#paint2_linear_2000_12422)"/>
  <path d="m17.88 59.52c-0.11-4.51 3.55-8.17 10.49-6.96l0.71-0.13c1.11-6.24 4.31-9.89 10.54-9.97h13.92c6.38 0 11.43 3.36 12.81 8.77 4.97-3.22 11.21-2.96 14.54 1.68 5.18-0.56 9.05 1.96 10.27 6.55l-73.28 0.06z" fill="#999A9F" opacity=".15"/>
  <path d="m17.17 59.18c0-4.11 3.56-7.66 10.52-6.46l1.01-0.15c0.91-5.96 4.69-9.79 10.49-9.71l14.76-5.82c6.09 0.35 10.89 3.94 12.45 10.18 4.98-2.5 10.69-1.81 14.02 2.4 5.19-0.41 9.31 2.3 10.6 9.59l-73.85-0.03z" fill="#FFFFFE"/>
  <path d="m160.8 23.04h-122.2v9.44h122l0.22-9.44z" fill="#C49261" stroke="#99693F" stroke-miterlimit="10" stroke-width=".7"/>
  <path d="m159.7 23.04h-120.6v8.47h120.6v-8.47z" fill="#D2A87D" stroke="#B08559" stroke-miterlimit="10" stroke-width=".7"/>
  <path d="m122.7 21.81c-2.44-0.15-2.57 1.6-2.35 2.62 0.93 3.36 0.61 6.46-0.36 8.65-1.84 2.45-0.56 4.23 0.66 4.23 1.48 0 2.68-1.07 3.61-6.12 0.83-4.66 0.37-9.12-1.56-9.38z" fill="#D2A87D" stroke="#B08559" stroke-miterlimit="10" stroke-width=".7"/>
  <path d="m80.47 21.81c-1.93-0.49-2.3 0.61-1.99 1.86 0.92 3.68 0.82 6.44 0 8.81-1.69 2.85-0.42 4.21 0.8 4.13 1.23-0.08 2.58-0.85 3.25-5.58 0.59-4.3 0-8.65-2.06-9.22z" fill="#D2A87D" stroke="#B08559" stroke-miterlimit="10" stroke-width=".7"/>
  <path d="m137 115.8-8.83 42.35 5.98-0.41 18.56-57.19-2.39-5.49-4.61 2.23-8.71 18.51z" fill="#94663B"/>
  <path d="m145.8 98.08-18.42 59.44 5.12 0.48 21.36-57.59-1.78-4.08-5.3 0.24" fill="#C49261" stroke="#99693F" stroke-miterlimit="10" stroke-width=".5"/>
  <path d="m151.9 22.62h5.9l4.15 25.67h-10.36l0.31-25.67z" fill="#48B8B0" stroke="#349993" stroke-miterlimit="10" stroke-width=".7"/>
  <path d="m149 31.72h1.48l5.87 16.34-3.43 1.82-7.56-1.67 3.64-16.49z" fill="#349993" stroke="#349993" stroke-miterlimit="10" stroke-width=".7"/>
  <path d="m155.4 48.39 5.23-0.39 24.73 120.3-10.46-0.53-22.4-117.2 2.9-2.18z" fill="#D2A87D" stroke="#B18961" stroke-miterlimit="10" stroke-width=".7"/>
  <path d="m155.1 28.29c0.96 0 1.41-0.6 1.41-1.36 0-0.65-0.73-1.12-1.25-1.12-0.78 0-1.27 0.57-1.27 1.12 0 0.68 0.49 1.36 1.11 1.36z" fill="#C49261" stroke="#99693F" stroke-miterlimit="10" stroke-width=".5"/>
  <path d="m45.51 22.62h4.4l4.44 24.99h-7.29l-1.55-24.99z" fill="#48B8B0" stroke="#349993" stroke-miterlimit="10" stroke-width=".7"/>
  <path d="m39.61 23.66 4.19-0.66 0.24 8.72h-5.04l0.61-8.06z" fill="#C49261" stroke="#99693F" stroke-miterlimit="10" stroke-width=".7"/>
  <path d="m40.54 31.61 3.83-8.61 2.69 25.11-3.17 1.91-6.18-2.1 2.83-16.31z" fill="#349993" stroke="#349993" stroke-miterlimit="10" stroke-width=".7"/>
  <path d="m38.71 49.03-22.21 112.4 9.7 1.18 19.71-112.2-3.2-2.89-4 1.42z" fill="#C49261" stroke="#99693F" stroke-miterlimit="10" stroke-width=".5"/>
  <path d="m47.72 47.83h5.89l20.38 128.2-4.86 0.99-5.31-2.64-18.79-124.6 2.69-1.86z" fill="#D2A87D" stroke="#B18961" stroke-miterlimit="10" stroke-width=".7"/>
  <path d="m48.71 28.23c1.02 0 1.37-0.65 1.37-1.36 0-0.72-0.74-1.11-1.26-1.11-0.91 0-1.36 0.65-1.36 1.11 0 0.74 0.55 1.36 1.25 1.36z" fill="#C49261" stroke="#99693F" stroke-miterlimit="10" stroke-width=".5"/>
  <path d="m26.91 113.1 30.15 5.18c2.18 0.28 3.1 2.17 2.18 5.65-0.63 2.54-1.71 2.32-3.66 1.63l-29.67-6.26c-1.33-0.45-0.95-5.72 1-6.2z" fill="url(#paint3_linear_2000_12422)" stroke="#349993" stroke-miterlimit="10" stroke-width=".7"/>
  <path d="m27.5 117.6c1.1 0.48 1.58-0.31 1.71-1.17 0.16-0.97-0.44-1.64-1.12-1.66-0.93-0.03-1.35 0.67-1.35 1.36 0 0.62 0.27 1.25 0.76 1.47z" fill="#D2A87D" stroke="#99693F" stroke-miterlimit="10" stroke-width=".5"/>
  <path d="m55.54 122c-0.16 0.84 0.22 1.4 1.01 1.52 0.97 0.16 1.26-0.61 1.26-1.37 0-0.98-0.63-1.42-1.26-1.35-0.73 0.08-0.92 0.53-1.01 1.2z" fill="#D2A87D" stroke="#99693F" stroke-miterlimit="10" stroke-width=".5"/>
  <path d="m74.73 109.8c0-12.39 7.04-23.07 21.75-23.07 11.53 0 17.59 6.9 20.36 18.98 0.87 3.81 2.12 7.39 8.62 7.65l7.8 0.76 2.78 4c0 9.64-3.03 20.63-11.98 24.44-5.05 2.26-8.62 2.93-13.57 2.93h-5.69c-10.99-1.22-18.7-2.97-23.78-7.77-4.4-4.1-6.29-17.52-6.29-27.92z" fill="url(#paint4_linear_2000_12422)"/>
  <path d="m80.11 114.3c-3-11.07 1.16-23.75 15.66-24.42 10.18-0.47 17.49 6.24 19.42 17.28 1.2 6.77 2.73 8.57 8.57 8.99l9.16 0.59 1.3 1.36c-0.8 8.16-3.94 14.95-12.11 19.01-4.47 2.29-7.7 2.51-13.65 1.75-8.75-1.15-14.8-4.16-19.14-11.57l-2.4-4.03c-3.85-0.76-7.83-1.71-9.6-4.16-1.22-1.84-0.23-4.5 1.46-5.09l1.33 0.29z" fill="url(#paint5_linear_2000_12422)"/>
  <path d="m80.07 35.22-2.66 62.89" stroke="#B28861" stroke-miterlimit="10" stroke-width="1.2"/>
  <path d="m122 35.12-8.83 61.95" stroke="#B28861" stroke-miterlimit="10" stroke-width="1.2"/>
  <path d="m122.4 36.04 11.28 79.66" stroke="#D2B192" stroke-miterlimit="10" stroke-width="1.2"/>
  <path d="m80.51 35.12 10.65 84.89" stroke="#D2B192" stroke-miterlimit="10" stroke-width="1.2"/>
  <path d="m90.52 100.4 6.02 5.24 2.87 10.3c0.15 1.13-1.48 1.93-3.1 1.93l-3.66-1.77-2.74-15.03 0.61-0.67z" fill="#B28861"/>
  <path d="m104.5 99.27h2.59l3.64 3.81 0.74 11.69-4.65 0.35-2.5-14.96-0.93-0.74 1.11-0.15z" fill="#B28861"/>
  <path d="m105 101.6 4.25 0.6 1.84 11.69c0 1.29-0.59 2.11-2.9 1.82l-1.48-0.3-1.71-13.81z" fill="url(#paint6_linear_2000_12422)"/>
  <path d="m91.02 102.7 5.77 3.06 2.77 10.05c-0.15 1.23-1.15 1.75-3.02 1.51l-1.62-0.48-3.9-14.14z" fill="url(#paint7_linear_2000_12422)"/>
  <path d="m89.22 120.5h44.63c2.26 0 2.56-4.08 0.3-4.59-1.56-0.38-1.19 1.51-1.26 1.91-0.23 1.05-2.23 0.84-5.99 1.11-6.74 0.49-9.51 1.44-14.11 0.49-3.51-0.75-12.88 0.2-18.5-0.08-1.84-0.1-1.64-1.42-2.85-1.52-2.69-0.23-3.28 2.22-2.22 2.68z" fill="#D19852" stroke="#B28861" stroke-miterlimit="10" stroke-width=".7"/>
  <path d="m91.89 123.8c3.66 0 7.47-1.02 13.29-0.32 6.53 0.8 10.34 3.34 10.54 11.15l-3.66 10.65c0.59 1.03 3.89 1.27 6.05 0 2.25-1.28 1.56-10.15 2.12-15.97 0.78-5.16 4.65-6.53 8.59-7.01 2.8-0.27 6.44-1.3 7.22-3.82-0.45-1.29-1.59-2.32-2.33-1.84-1 0.67-0.41 2.52-1.59 2.93-1.4 0.51-7.38 0.33-11.11 0.91-6.05 0.96-12.53 0.65-18.94 0.69-3.76 0.03-8.74 0.11-10.22 0-2.07-0.15-2.93-1.11-2.85-2.14 0.11-1.22 1.12-0.95 1.49-0.83 1.12 0.38 0.63 2.57 0.53 3.03-0.26 1.13-0.5 2.4 0.87 2.57z" fill="#FDC55D" stroke="#CC954B" stroke-miterlimit="10" stroke-width=".7"/>
  <path d="m95.37 128.7 7.05 0.61c2.29 0.15 2.97-0.93 3.12-1.34 0.48-1.03 0.72 0.2 2.88 0.76 2.44 0.68 4.23 2.97 4.8 8.28l-1.69 1.13c-1.03-4.07-4.36-6.38-5.71-6.38h-7.61l-2.84-3.06z" fill="#D2B192" stroke="#B28861" stroke-miterlimit="10" stroke-width=".7"/>
  <path d="m102.8 129.3 1.35-0.6c0.86-0.41 2.21-0.51 3.63-0.26 1.84 0.36 2.31 1.22 2.41 2.2l-0.31 1.75-2.69-0.56-4.8 0.38-0.31-1.48 0.72-1.43z" fill="url(#paint8_linear_2000_12422)" stroke="#349993" stroke-miterlimit="10" stroke-width=".7"/>
  <defs>
    <linearGradient id="paint0_linear_2000_12422" x1="107.2" x2="138.3" y1="53.81" y2="53.81" gradientUnits="userSpaceOnUse">
      <stop stop-color="#FFD762" offset="0"/>
      <stop stop-color="#FEE362" offset="1"/>
    </linearGradient>
    <linearGradient id="paint1_linear_2000_12422" x1="2.721" x2="197.2" y1="123.8" y2="123.8" gradientUnits="userSpaceOnUse">
      <stop stop-color="#359993" offset="0"/>
      <stop stop-color="#37A6A1" offset="1"/>
    </linearGradient>
    <linearGradient id="paint2_linear_2000_12422" x1="2.721" x2="197.2" y1="143.4" y2="143.4" gradientUnits="userSpaceOnUse">
      <stop stop-color="#56B7A8" offset="0"/>
      <stop stop-color="#56C6B7" offset="1"/>
    </linearGradient>
    <linearGradient id="paint3_linear_2000_12422" x1="24.67" x2="59.58" y1="119.8" y2="119.8" gradientUnits="userSpaceOnUse">
      <stop stop-color="#56B7A8" offset="0"/>
      <stop stop-color="#56C6B7" offset="1"/>
    </linearGradient>
    <linearGradient id="paint4_linear_2000_12422" x1="74.73" x2="136" y1="116.2" y2="116.2" gradientUnits="userSpaceOnUse">
      <stop stop-color="#CF4D46" offset="0"/>
      <stop stop-color="#F67F69" offset="1"/>
    </linearGradient>
    <linearGradient id="paint5_linear_2000_12422" x1="78.3" x2="133.9" y1="113.8" y2="113.8" gradientUnits="userSpaceOnUse">
      <stop stop-color="#E5A139" offset="0"/>
      <stop stop-color="#F0B044" offset="1"/>
    </linearGradient>
    <linearGradient id="paint6_linear_2000_12422" x1="105" x2="111.1" y1="108.7" y2="108.7" gradientUnits="userSpaceOnUse">
      <stop stop-color="#E57861" offset="0"/>
      <stop stop-color="#EA7D65" offset="1"/>
    </linearGradient>
    <linearGradient id="paint7_linear_2000_12422" x1="91.02" x2="99.57" y1="110" y2="110" gradientUnits="userSpaceOnUse">
      <stop stop-color="#E57861" offset="0"/>
      <stop stop-color="#EA7D65" offset="1"/>
    </linearGradient>
    <linearGradient id="paint8_linear_2000_12422" x1="102.1" x2="110.2" y1="130" y2="130" gradientUnits="userSpaceOnUse">
      <stop stop-color="#359993" offset="0"/>
      <stop stop-color="#37A6A1" offset="1"/>
    </linearGradient>
  </defs>
</svg>