<svg xmlns="http://www.w3.org/2000/svg" width="200" height="200" fill="none" viewBox="0 0 200 200">
<!-- SVG created with Arrow, by QuiverAI (https://quiver.ai) -->
  <path d="m197.4 140.9c-0.81-3.27-1.97-2.1-0.11-7.53 0.85-2.68 0.46-3.26 0.46-3.26l-4.89 4.78 2.41-6.47c-3.2 1.52-6.05 7.2-6.05 7.2-0.8-16.88-6.1-35.48-17.4-45.54-2.04-1.9-4.12-3.29-6.25-3.76-4.7-1.07-11.25-2.06-17.77-2.93 0.49-12.09 0.19-25.97-9.24-32.07-6.59-4.34-14.39-5.3-27.24-5.3h-8.27c-0.02-2.69-0.34-7.32-1.13-9.88-2.94-9.5-14.59-14.87-25.98-15.13-12.21-0.29-24.65 6.06-26.4 15.45-0.22 1.17-0.37 2.39-0.47 3.63-8.96 1.16-14.05 8.67-14.54 18.83l-0.29 17.41-23.93 60.67c-1.75 3.71 3.61 5.23 6.65 1.92l17.03-40.72 0.07 37.04c0 3.69 1.81 4.26 3.69 4.12 2.06-0.15 3.59-1.04 3.59-4.73l-0.15-46.03 12.89 29.28-2.95 4.93-3.44 3.69c-0.95 1.52-0.6 2.74 0.29 3.17 0.9 0.43 1.95-0.04 2.71-1.24l3.31-4.84 1.72-2.07 1.47 5.41-0.56 2.31-3.39 0.48-2.32 2.32-2.33-0.77c-1.52-0.14-2.75 5.36-2.79 6.54-0.05 1.17 1.65 1.53 2.69 0.88l4-3.26 0.65 1.57 4.89 2.17 4.59-1.54 2.12-3.55 1.53 2.35 1.82-0.64 0.19 4.03-5.25 6.21c-0.74 1.05-0.05 1.95 0.9 2.9l2.51 3.14c1.17 1.37 2.39 0.47 2.49-0.75l-0.29-4 4.59-6.8h33.34l-0.28-10.41h-6.11v-4.09l0.97-4.03c3.83-1.12 4.33-4.81 3.48-8.16s-5.97-5.05-9.88-2.55c-3.14 2.32-3.66 7.51-0.62 9.79l1.54 1.15v3.8h-6.85l-0.48-1.82 1.7-3.36-3.69 2.82c0-2.47-0.23-5.62-0.93-5.74-1.79 1.37-2.68 5.5-3.27 7.02l-2.05-3.52-0.96-0.1 2.36 5.5-12.43 0.11-1.59-3.89 1.71-2.91c1.53-0.62 4.52-5.18 4.64-6.41l3.56-12.8 1.9-3.75c0.47-1.68-0.29-2.18-1.51-2.44-1.23-0.27-2.44 0.76-2.58 2.15l-0.14 2.75-3.04 3.19-0.07-2.9c0.85-2.4 0.57-5.37-0.56-7.69 1.37-1.52 1.33-3.49 0.53-4.03-1.23 0-1.65 0.96-4.42 0.51s-6.02-0.89-9.27 0.37c-2.51 1-3.93 3.47-4.42 4.85l-1.1-0.75-0.95 2.31-1.63 0.23 0.69 1.4c-1.91 2.55-1.48 5.81 0.56 8.81 2.39 3.63 5.67 5.06 7.82 5.39l-5.59 3.94-11.72-27.08-0.3-22.68c0-10.78 2.08-15.36 7.12-17.68-0.13 4.77 0 8.68 1.47 10.31 1.64 1.91 4.12 1.69 6.74 1.78l9.95 0.34 3.85 14.32c0 1.12 0.77 1.34 1.57 0.72l3.76-3.25 3.78 3.1c0.63 0.52 1.23 0.48 1.79-0.08l3.6-3.02 1.41 2.48c0.66 0.95 1.24 0.73 1.57-0.35l2.65-14.13c4.46-0.48 8.54-0.84 10.5-2.81 1.07-1.07 1.56-3.56 1.72-6.56l6.99 0.05c10.28 0 19.73-0.3 25.13 4.45 5.2 4.55 5.53 13.73 5.53 21.09v6.01c-9.88-1.22-19.62-2.1-24.98-1.96-6.31 0.17-8.39 4.06-8.62 10.12-0.45 10.36-0.69 23.52-0.64 40.57-0.05 3.15 4.94 3.29 6.05 0.35l0.67-3 12.73-3.26 5.82 1 0.71 2.11-3.85 3.73-1.82 0.8-1.29-1.52c-0.96-0.79-2.57 0.88-2.98 1.96s1 2.15 1.7 2.25l3.49 1.65 4.51 0.3 2-1.05 1 1.8-0.59 5.63-7.25 9.04-2.15 3.38-2.11-0.14c-1.79-0.56-2.88 0.39-2.83 1.61 1.04 1.45 4.43 3.46 5.8 3.89 1.62 0.62 2.68-2.71 3.15-4.01l2.94 0.14 6.45-6.62 2.12-0.65 3.55 10.34-0.56 3.35c-0.6 1.15 0 2.15 1.96 1.86l5.29-1.38c1.17-0.43 1.03-2.48-0.19-3.43l-0.3-1.71 1.03-14.14-1.16-7.27 2.39-1.85 4.96 6.94 0.6 1.37c0.95 1.3 2.15 0.2 2.6-1.05 0.28-0.84-0.79-2.85-1.68-3.65l-1.75-5.05-4.76-3.59 1.75-2.29 13.29 1.8-0.38 13.66c-0.03 3.32 5.72 4.44 7.3 0.79l13.02-8.25c2.41-0.62 6.11 4.14 6.11 5.89 0 3.51-6.06 7.54-11.4 8.62-4.74 0.98-6.3 3.27-4.6 5.39l3.81 4.26c1.7 2.32 0.69 6.97-9.47 10.44-12.03 4.34-36.56 6.38-61.96 7.34-23.47 0.95-46.83 0-65.07-2.04-13.11-1.29-26.16-4.68-26.83-10.02-0.48-3.83 1.74-5.1 3.26-6.7 1.96-2.16-0.08-3.96-3.64-4.9-4.59-1.31-11.25-1.7-13.9-6.38-2.52-4.47 0.23-7.34 1.28-8.92l-2.28-3.6 6.41 1.17-1.53-5.6 2.94 3.63-0.28 1.9c0.17 1.18 2.84 0.84 3.8 0.3 5.94-7.89 16.19-8.1 20.17-8.89l0.11 5.09c0.03 3.16 2.29 3.74 3.76 3.51 1.41-0.23 2.52-1.19 2.47-4.28l-0.15-4.92c3.2 0.44 5.38 1.37 6.76 2.56 1.22 1.07 0.64 2.09 0 3.25-0.58 1.16-0.88 2.96 0.24 3.43 1.56 0.68 2.7-1.28 3.71-2.28l1.36 1.81 1.95 1.99-4.64 1.03-5.37 4.8-11.29 15.85c-2.44 3.01-1.93 6.83 2.76 7.06l1.37 0.43-1.7-2.97 3.07 1.52-0.54-6.59 2.52 1.38 2.83 3.42 3.04-5.66 2.21-1.68-0.85 7.44 2.97-0.82 2.18-0.68 2.52 3.35 2.65-3.69 1.96 4.19 3.64-6.14 3.15-2.31-1.42 9.12 3.28-2.62 1.64-0.23-1.96 6.59c27.79 1.65 62.61 0.5 88.19-2.77l-0.36-5.28 3.44 2.69c0.8-3.12 1.82-6.18 3.76-6.97l-0.56 8.59 3.96-1.52c3.45-1.48 1.53-6-0.99-8.41l-14.18-14.76 0.58-12.11 14.45 2.08 0.27 10.41c0.4 3.69 5.27 4.35 7.45 2.09 3.64-1.97 12.4-6.74 14.91-9.89 2.73-1.9 8.87 10.05 7.72 5.07z" fill="#543E25" opacity=".2"/>
  <path d="m33.61 75.26-23.19 59.81c-1.19 3.64 4.94 4.81 6.88 1.36l16.26-40.03 0.05-21.14z" fill="#EF7E6C"/>
  <path d="m40.8 86.03 13.92 32.04-3.81 4.65-10.07-20.53-0.04-16.16z" fill="#D06257"/>
  <path d="m48.7 37.63c-9.09 0.79-14.52 8.58-14.76 19.69l0.38 76.5c0.02 3.84 1.91 4.43 3.79 4.08 1.67-0.34 2.8-1.19 2.75-4.9l-0.42-68.18c0-10.78 2.07-15.78 8.26-17.68v-9.51z" fill="#359D9B"/>
  <path d="m101.7 44.07h9.38c10.8 0 19.96 0.66 26.95 6.09 8.61 6.75 9.46 15.75 9.13 31.4l-7.18-1.05v-5.37c0-7.93-1.52-16.05-7.15-19.4-5.41-3.18-12.4-3.18-22.68-3.18l-8.61-0.08 0.16-8.41z" fill="#EF7E6C"/>
  <path d="m48.67 37.63c1.06-10.22 11.96-18.01 25.99-18.01 12.25 0 24.76 6.64 26.73 15.27 1.34 6.2 0.27 17.27-0.78 20.92-1.16 3.56-9.17 3.01-13.5 3.19l-20.14-0.49c-3.36 0-11.89 0.14-14.86-0.89-4.2-1.44-4.06-7.33-3.44-19.99z" fill="#69BFB6"/>
  <path d="m166.8 83.72c-7.92-1.9-40.01-5.3-50.93-5.01-6.69 0.19-9.39 2.95-9.72 10.14-0.57 11.16-0.66 23.78-0.47 40.11-0.05 3.59 4.76 3.81 5.91 0.65l0.86-2.74 13.14-4.09 42.07 5.93-0.43 13.51c0 4.09 6.68 4.89 7.64 0.35l0.42-47.48c0.11-6.31-2.6-10.06-8.49-11.37z" fill="#F3BD50"/>
  <path d="m114 85.82-0.27 41.08-1.69 1.18v-40.03c0-2.04 1.21-2.87 3.72-2.81 8.34 0.23 42.58 3.35 48.33 5.46 1.69 0.63 2.4 2.81 2.4 6.16v30.23l0.95 0.35 0.23-33.73c0.03-2-1.03-3.8-2.82-4.2-10.02-2.5-36-4.3-47.79-4.5-1.82-0.04-2.89 0.32-3.06 0.81z" fill="#2D8685"/>
  <path d="m113.3 90.82-0.22 35.32" stroke="#2D8685" stroke-miterlimit="10" stroke-width="1.3"/>
  <path d="m118.7 86.4c7.18 6.21 10.01 20.42 10.41 35.22" stroke="#2D8685" stroke-miterlimit="10" stroke-width="1.3"/>
  <path d="m126.3 86.63c6.31 7.76 8.28 17.59 8.93 28.48" stroke="#2D8685" stroke-miterlimit="10" stroke-width="1.3"/>
  <path d="m133.9 87.49c4.83 6.9 6.99 15.32 7.68 25.14" stroke="#2D8685" stroke-miterlimit="10" stroke-width="1.3"/>
  <path d="m142 88.12c4.26 8.27 5.56 15.85 6.66 25.67" stroke="#2D8685" stroke-miterlimit="10" stroke-width="1.3"/>
  <path d="m150 88.92c3.65 8.27 5.14 17.01 6.09 26.83" stroke="#2D8685" stroke-miterlimit="10" stroke-width="1.3"/>
  <path d="m157.4 89.68c3.1 7.19 4.62 15.93 5.84 26.4" stroke="#2D8685" stroke-miterlimit="10" stroke-width="1.3"/>
  <path d="m169 93.27-55.78-3.49" stroke="#2D8685" stroke-miterlimit="10" stroke-width="1.3"/>
  <path d="m168.2 100.7-53.11-5.5" stroke="#2D8685" stroke-miterlimit="10" stroke-width="1.3"/>
  <path d="m167.6 108.2-52.81-5.93" stroke="#2D8685" stroke-miterlimit="10" stroke-width="1.3"/>
  <path d="m166.7 115.2-52.8-6.15" stroke="#2D8685" stroke-miterlimit="10" stroke-width="1.3"/>
  <path d="m166.5 121.3-52.3-4.89" stroke="#2D8685" stroke-miterlimit="10" stroke-width="1.3"/>
  <path d="m173.8 92.9c9.06 7.16 15.13 21.99 15.36 40.98l-4.01 2.32-0.1-11.42c-0.91-12.04-6.4-23.77-11.39-27.62l0.14-4.26z" fill="#F3BD50"/>
  <path d="m174.7 101 7.43 3.69" stroke="#2D8685" stroke-miterlimit="10" stroke-width="1.3"/>
  <path d="m174.4 108.4 9.35 3.49" stroke="#2D8685" stroke-miterlimit="10" stroke-width="1.3"/>
  <path d="m174.2 114.9 10.13 3.49" stroke="#2D8685" stroke-miterlimit="10" stroke-width="1.3"/>
  <path d="m174.2 121.3 10.51 2.93" stroke="#2D8685" stroke-miterlimit="10" stroke-width="1.3"/>
  <path d="m174.2 127.7 10.64 2.5" stroke="#2D8685" stroke-miterlimit="10" stroke-width="1.3"/>
  <path d="m174.4 133.6 9.35-3.49" stroke="#2D8685" stroke-miterlimit="10" stroke-width="1.3"/>
  <path d="m177.1 120.8 0.42 16.11" stroke="#2D8685" stroke-miterlimit="10" stroke-width="1.3"/>
  <path d="m115.2 87.15c7.34 5.56 12.63 17.96 13.63 36.34l-16.25 5.93 0.22-40.41c0-1.65 1.06-2.73 2.4-1.86z" fill="#D39A3A"/>
  <path d="m195.8 139.1c-0.85-3.25-2.53-2.61-0.12-8.17l1.02-2.64-6.59 5.43-2.42 1.39c-3.6 3.67-9.09 6.82-14.74 9.61-3.99 2.04-6.85 1.57-8.01-1.5l-14.73-3.1-13.15-0.19-11.25 0.19-14.68-1.69-40.1 0.67h-12.13l-8.86 1.38-17.31 18.83c-3.96 4.62-1.83 7.35 3.58 7.78l-1.29 1.03 3.25 0.21c4.83 2.08 25.88 2.08 29.5 1.6 24.98 1.65 61.21 0.8 89.13-2.84l1.82 0.14 7.15-1.22c5.33-1.29 3.51-6.7-0.27-10.01l-13.82-14.43 3.81-4.16 10.35 4.09c2.39 2.42 6.2 3.58 9.37 2.42 4.49-1.65 12.38-6.81 14.59-9.56 2.37-3.05 3.22-5.32 6.26-6.17-0.66 1.42-1.88 3.92-1.26 4.93 0.7 1.24 1.5 2.56 0.9 5.98z" fill="#69BFB6"/>
  <path d="m19.05 144.2 4.56 1.42 3.44-0.58-1.57-1.37-6.43 0.53z" fill="#56BAB3"/>
  <path d="m26.17 132.7 1.63-0.54 1.06 1.15-2.69-0.61z" fill="#56BAB3"/>
  <path d="m36.81 169.4-0.34-2.47-2.42 0.33 2.76 2.14z" fill="#56BAB3"/>
  <path d="m40.41 170 2.65-0.75 1.56 0.95-4.21-0.2z" fill="#56BAB3"/>
  <path d="m123.6 176.2 0.49 0.88-1.82 0.14 1.33-1.02z" fill="#56BAB3"/>
  <path d="m147 82.61 5.01 0.66-2.63-1.24-2.38 0.58z" fill="#56BAB3"/>
  <path d="m113.1 101.9 6.78-1.69" stroke="#2D8685" stroke-miterlimit="10" stroke-width="1.3"/>
  <path d="m119.8 101.1 0.34 19.48" stroke="#2D8685" stroke-miterlimit="10" stroke-width="1.3"/>
  <path d="m112.8 116.1 7.03-1.76" stroke="#2D8685" stroke-miterlimit="10" stroke-width="1.3"/>
  <path d="m65.81 36.29c0.57-1.52 1.93-1.52 8.71-1.67 5.67 0 11.87 0.15 13.67 1.37 1.96 1.29 1.23 8.02 0.65 16.25l-23.44-0.23c-1.16-4.94-0.92-12.57 0.41-15.72z" fill="#EF7E6C"/>
  <path d="m64.51 53.34c0-2.32 5.5-3.31 12.9-3.31 7.39 0 15.35 1.28 15.35 3.68 0 2.69-6.19 4.01-14.69 3.91-7.29-0.1-13.56-1.25-13.56-4.28z" fill="#EF7E6C"/>
  <path d="m67.31 53.21c0-1.15 4.3-1.95 10.12-1.95 5.81 0 10.99 0.8 10.99 1.95s-4.8 1.7-10.61 1.7c-5.82 0-10.5-0.68-10.5-1.7z" fill="#B85548"/>
  <path d="m66.9 55.69 3.81 9.42 1.9 8.49 4.73-4.28 3.91 3.77 3.81-0.93 3.25-14.14" stroke="#359D9B" stroke-linecap="round" stroke-linejoin="round" stroke-miterlimit="10" stroke-width="1.3"/>
  <path d="m69.94 57.52 4.37 7.08-3.81 3.49 6.59-1.05 4.99-6 3.1-3.52" stroke="#359D9B" stroke-linecap="round" stroke-linejoin="round" stroke-miterlimit="10" stroke-width="1.3"/>
  <path d="m77.12 57.52 8.06 8.59 0.9 6.98-8.87-8.27-4.6-5.33" stroke="#359D9B" stroke-linecap="round" stroke-linejoin="round" stroke-miterlimit="10" stroke-width="1.3"/>
  <path d="m82.91 80.03c-5.82 0-7.72 5.03-7.49 7.69 0.29 3.46 3.2 6.45 6.98 6.45 4.83 0 7.42-4.06 7.23-7.16-0.22-3.7-2.72-6.98-6.72-6.98z" fill="#000" fill-opacity=".15"/>
  <path d="m82.61 80.01c-5.4 0-7.19 4.8-6.96 7.35 0.28 3.27 3.03 6.14 6.63 6.14 5 0 7.28-4.19 7.04-6.98-0.29-3.49-2.6-6.51-6.71-6.51z" fill="#EF7E6C"/>
  <path d="m86.72 153.5-1.37 3.83c-0.45 1.39 0.06 1.83 1.76 1.77h19.21c1.96-0.05 2.09-0.61 1.49-2.41l-1.29-3.09c-0.39-0.96-1.35-1.09-2.77-1.09h-14.26c-1.47 0-2.26 0.08-2.77 0.99z" fill="#000" fill-opacity=".15"/>
  <path d="m86.51 153.1-1.3 3.52c-0.49 1.22 0.2 1.65 1.85 1.6h18.35c2.11-0.05 2.7-0.38 2.11-2.06l-1.16-2.87c-0.44-1.05-1.19-1.22-2.85-1.22h-14.45c-1.37 0-2.15 0.17-2.55 1.03z" fill="#69BFB6"/>
  <path d="m94.52 119h3.1l0.09 13.72h-4.23l1.04-13.72z" fill="#F3BD50"/>
  <path d="m96.79 108.2c-4.57 0-6.22 4.41-6.02 6.74 0.24 3.07 2.86 5.46 5.96 5.4 4.07-0.08 5.97-3.94 5.79-6.17-0.25-3.24-2.31-5.97-5.73-5.97z" fill="#F1E3C1" stroke="#D3C6A9" stroke-miterlimit="10" stroke-width=".25"/>
  <path d="m93.34 132.5h5.17c0.6 0 0.91 0.35 0.91 1.03v21.15c0 0.95-2.29 1.18-4.4 1.18-1.79 0-1.96-0.23-1.96-1.38v-21.15c0-0.54 0.17-0.83 0.28-0.83z" fill="#EF7E6C"/>
  <path d="m52.93 132.6-2.81-1.37c-2.21-1.15-3.44 1.61-4.6 5-0.99 2.77 0.79 2.58 2.02 2.18l4.54-2.79 0.85-3.02z" fill="#EF7E6C"/>
  <path d="m68.05 144.8-2.51-1.59c-1.53-1.05-3.49 0.35-4.06 1.5l4.53 5.78c1.2 1.22 2.36 0.27 2.4-0.81l-0.36-4.88z" fill="#EF7E6C"/>
  <path d="m54.09 133-3.38 1.38 0.68 3.58 3.65-0.79-0.95-4.17z" fill="#F1E3C1"/>
  <path d="m56.31 133.7-1.3 0.47c-0.42 0.16-1.94 0.6-1.52 2.24 0.6 2.32 3.92 3.38 5.98 2.45 2.65-1.22 4.45-3.67 4.45-4.6l-1.97-0.79-3.74-1.26-1.9 1.49z" fill="#F1E3C1"/>
  <path d="m56.24 125.4-0.34 1.65 3.37 7.62 5.4 1.02 1.42-3.05 1.3 2.75 4.07 0.1c1.85-0.1 3.13-0.6 2.98-1.9l-0.73-9.56-16.13-0.23-1.34 1.6z" fill="#2D9796"/>
  <path d="m74.71 105-3.25-1.36-3.82 4.4-1.63 0.1-4.47 0.89c-2.72 0.76-6.53 3.56-8.32 5.53l3.6 5.66 0.34-0.1-1.03 5.23c5.68 1.38 12.86 0.87 17.78-1.96l-1.63-9.82c2.31-1.72 3.73-4.71 3.53-6.23l-1.1-2.34z" fill="#F3BD50"/>
  <path d="m52.8 92.22c-3.2 2.52-4.05 6.51-2.19 9.86 1.8 3.46 4.58 5.23 7 5.83 2.11 0.7 4.33 0.98 5.32 0.65l0.6 0.85c1.09 1.32 4.19 0.47 5.15-1.5l1.96-4.16c1.12-2.32 0.67-6.56-1.45-9.46l-2.07-0.23-0.41 1.15-3.74 0.86-6.34 0.43 0.28-0.38c-0.28-0.79-0.72-2.06-1.48-3.11l-2.63-0.79z" fill="#F1E3C1"/>
  <path d="m54.62 90.11c1.29-2.09 3.51-3.24 8.21-3.24 4.26 0 5.06 0.85 7.18-0.59 0.95-0.27 0.95 2.18-0.1 3.76l1.16-0.79c0.57 1.97-0.86 5.36-3.96 6.16l0.21-1.7c-2.11 1.8-5.21 2.96-10.71 2.65l-0.23 0.8c-0.28 1.1-0.47 2.78 0.58 4.07l-1.52 0.67c-2.32-0.47-3.02 2.03-1.83 3.19 1.6 1.52 3.06 0.99 3.11 0.49l-0.48 1.32c-3.6-0.47-6.23-3.89-6.8-7.87-0.45-2.46 0.85-5.22 2.21-6.74l0.4-0.29 0.34 1.06 2.23-2.95z" fill="#259493"/>
  <path d="m132.1 112.3c1.8-4.31 5.32-6.91 10.68-6.01 4.99 0.85 8.81 0.85 10.92 6.85 0.7 2.87 2.81 9.22 1.72 10.45l-4.64 3.82-16.41-1.22c-2.42-0.79-3.64-1.09-2.94-3.88 0.73-2.97-0.43-7.02 0.67-10.01z" fill="#EB7162"/>
  <path d="m123.1 130.4 2.82 0.52 2.22-0.52 3.9-2.59 4.99-0.75 0.41 6.75-4.92 1.86-3.2 0.33-5.4-2.07c-2.22-0.79-2.64-2.69-0.82-3.53z" fill="#F1E3C1"/>
  <path d="m137 126.7-4.86 2.32-0.75 6.35 4.31 0.7 2.51-3.69 0.14-5.23-1.35-0.45z" fill="#E86E62"/>
  <path d="m148.3 128 7.44 5.2 3.58 6.41c1.32 1.75-0.38 3.55-1.18 3l-1.29-1.75 0.34-1.58-4.45-4.53-4.59 1.78-2.06-6.08 2.21-2.45z" fill="#F1E3C1"/>
  <path d="m148 126.6-2.22 0.22-0.85 1.22-2.83 0.31-1.96-0.9-0.96-0.85-2.51 0.48-1.53 6.94-0.49 7.55-7.52 8.2-1.96 3.05 5.86 3.35 2.28-3.69 6.99-4.39 3.39 10.83 6.99-0.95-0.36-3.89 0.42-11.66-2.31-5-0.43-10.82z" fill="#2D9796"/>
  <path d="m120.1 155 5.89 3.9c1.23 0.7 2.59-2.05 2.98-3.63l-5.88-1.76c-1.79-0.86-3.85 0.1-2.99 1.49z" fill="#EF7E6C"/>
  <path d="m144.4 163.1 6.14-1.02c1.16-0.3 0.92-2.34-0.14-3.39l-5.5 1.05c-1.7 0.29-1.99 3.64-0.5 3.36z" fill="#EF7E6C"/>
  <path d="m137.9 135.1 6.59-0.2v2.18c0 1.8-1.42 2.46-2.89 2.39-2.41-0.14-3.77-1.56-3.7-4.37z" fill="#349998"/>
  <path d="m131.8 115.8c-0.18-3.29 2.48-8.59 7.34-8.04 4.2 0.47 6.58 3.34 7.43 7.89l1.97 0.43 1.36 0.17c0.8 1.16-0.16 4.16-1.95 3.77-1.46 3.59-3.36 5.18-5.77 5.18-5.41 0-9.98-2.82-10.38-9.4z" fill="#F1E3C1"/>
  <path d="m131.7 115.5c4.01 0.44 8.27-1.24 10-3.21 1.53 3.35 4.25 6.31 6.47 5.06l-0.34-5.13-3.2-4.01-6.86-0.95-5.27 2.45-0.8 5.79z" fill="#EB7162"/>
  <path d="m139.6 125.9 0.14 1.97c0.08 1.32 2.98 1.24 3.08-0.15l0.22-1.65" stroke="#C67562" stroke-linecap="round" stroke-linejoin="round" stroke-miterlimit="10" stroke-width="1.3"/>
  <path d="m37.66 60.81 0.42-2.87" stroke="#2D8685" stroke-linecap="round" stroke-linejoin="round" stroke-miterlimit="10" stroke-width=".5"/>
  <path d="m112.4 142.9c-1.86 2.88-1.27 7.03 1.88 8.53 3.52 1.68 7.43 0.1 9.33-3.19 2-3.49-0.41-7.91-3.51-8.86-2.9-0.95-5.8 0.21-7.7 3.52z" fill="#F1E3C1" stroke="#2D8685" stroke-miterlimit="10" stroke-width=".25"/>
  <path d="m115.1 140 1.1 1.08-3 1.8-0.7-0.9c0.6-0.95 1.56-1.71 2.6-1.98z" fill="#2D8685"/>
  <path d="m121 140.5-0.66 2.63 2.11 2.32 1.27-1.22c-0.07-1.65-1.23-3.12-2.72-3.73z" fill="#2D8685"/>
  <path d="m116.1 143.9 3-0.2 1.52 3.42-2.89 1.9-2.66-3 1.03-2.12z" fill="#2D8685"/>
  <path d="m114.5 150.1 1.69 1.05 1.53-0.8-0.7-0.95-2.52 0.7z" fill="#2D8685"/>
</svg>