<svg xmlns="http://www.w3.org/2000/svg" width="200" height="200" fill="none" viewBox="0 0 200 200">
<!-- SVG created with Arrow, by QuiverAI (https://quiver.ai) -->
  <path d="m172.8 169.2-5.91-8.34-10.11 8.38 8 3.83c2.2-0.01 8.2-1.44 8.02-3.87z" fill="#110201" opacity=".15"/>
  <path d="m19.22 169.2 6.03 2.94 2.42 0.19 8.05-3.84-3.49-7.63-13.01 8.34z" fill="#110201" opacity=".15"/>
  <path d="m28.33 120.4-9.44 47.78c-0.55 2.87 3.88 4.01 7.68 3.95l10.19-48.66-8.43-3.07z" fill="#F47E6C"/>
  <path d="m39.87 123.5-2.6 22.04-6.98 16.66-3.39 9.83 7.96-3.59c9.75 4.67 29.36 8.66 57.88 9.34l9.4-0.29c22.67-0.65 45.95-4.51 58.76-12.09l5.04 6.4 6.31-2.55-7.99-48.65-8.25 3.45 2.55 21.05c-10.83-4.92-28.79-7.97-56.77-8.82l-11.1-0.25c-20.71-0.19-39.15 1.73-50.82 7.14v-19.67z" fill="#F47E6C"/>
  <path d="m151.6 124.6 1.7 20.18 5.26 2.34-2.82-21.27 0.91-1.83 0.45-0.15 4.01-1.78 2.93-1.52-1.33 0.52-3.35 1.43-3.47 1.28-4.29 0.8z" fill="#D35A54"/>
  <path d="m28.97 157.8c0.1 9 22.95 18.26 66.87 19.38 31.37 0 66.42-8.25 67.54-14.82l-1.3-6.18-2.92 2.94c-9.29 5.84-28.23 10.99-58.78 11.1-29.63 0.26-56.36-4.23-66.96-12.14l-4.45-2.84v2.56z" fill="#D6695E"/>
  <path d="m30.11 155c0 7.68 23.28 15.73 64.57 15.73 33.82 0 65.94-8.05 66.63-15.67l-0.12-4.37c-0.97-7.21-26.51-13.69-62.31-14.48l-7.04-0.04c-35.39 0.92-61.73 7.24-61.73 16.61v2.22z" fill="#993F36"/>
  <path d="m32.82 154.1c0 7.27 22.06 14.26 60.9 14.26 31.9 0 65.03-7.52 65.62-14.61l-0.05-1.47c-0.5-7.74-25.07-12.65-59.47-13.56l-6.87-0.18c-33.97 1.2-60.13 6.4-60.13 14.36v1.2z" fill="#E15244"/>
  <path d="m172.6 95.67c0 9.81-26.25 20.41-72.26 20.41-42.8 0-81.59-8.99-81.59-19.69v16.57c0 7.67 19.98 16.99 60.53 19.35 5.78 0.45 11.68 0.69 17.74 0.68 41.78-1.44 75.58-10.27 75.58-20.38v-16.94z" fill="url(#paint0_linear_3888_14465)"/>
  <path d="m172.5 95.29c0 9.07-24.02 19.36-74.82 19.36-43.92 0-78.87-9.54-78.87-19.51 0-9.06 24.02-18.55 74.82-18.55 43.92 0 78.87 8.73 78.87 18.7z" fill="url(#paint1_linear_3888_14465)"/>
  <path d="m167.6 97.01c-4.69 6.07-23.67 13.72-69.3 14.47-41.53 0-73.16-8.26-74.21-14.36 3.6-5.79 18.11-12.97 66.63-13.26 44.68 0.12 71.87 7.4 76.88 13.15z" fill="url(#paint2_linear_3888_14465)"/>
  <path d="m135.7 43.51-6.82 34.45 4.51 0.35 6.01-33.55-3.7-1.25z" fill="#F47E6C"/>
  <path d="m145 2.58c-2.06-0.2-2.74 1.28-2.81 3.52l1.3 0.97 3.55-0.66c0.39-1.56 0.19-3.59-2.04-3.83z" fill="#F17163"/>
  <path d="m85.71 29.21c9.22-16.55 23.62-23.54 43.7-23.92 29.3-0.55 60.53 17.54 61.75 44.37l-2.63 0.76-30.48-5.73-0.21-0.97-0.9 2.23-39.04-10.52-0.64 0.58c-1.37 3.45-3.78 5.16-7.92 4.37l-16.83-3.37c-4.73-0.86-6.69-3.43-6.8-7.8z" fill="url(#paint3_linear_3888_14465)"/>
  <path d="m85.89 28.82 32.54 6.38c1.63-8.18 11.76-25.89 25.19-28.57-5.28-1.44-11.63-1.44-14.9-1.29-19.57 0.38-34.91 9.59-42.83 23.48z" fill="#F3BA44"/>
  <path d="m117.7 35.12 40.07 7.99c1.44-11.9-2.94-32.39-14.35-36.42-12.35 1.22-22.39 16.08-25.72 28.43z" fill="url(#paint4_linear_3888_14465)"/>
  <path d="m157.8 43.11 33.32 5.82c-2.12 5.76-6.4 6.05-9.18 5.45l-17.09-2.97c-4.62-0.97-6.48-3.2-7.05-8.3z" fill="url(#paint5_linear_3888_14465)"/>
  <path d="m117.8 35.2 39.86 8.21c-0.65 2.82-2.84 5.68-6.54 5.02l-27.13-4.96c-4.76-0.86-6.06-3.25-6.19-8.27z" fill="url(#paint6_linear_3888_14465)"/>
  <path d="m116.8 52.76c3-0.55 6.41-0.5 7.56 2.01 0.78 2.32-1.23 3.53-2.97 2.22-1.44-1.1-2.75-2.97-4.59-4.23z" fill="#110201" opacity=".15"/>
  <path d="m116.7 52.21c2.56-0.65 5.91-0.94 7.17 1.42 1.15 2.25-0.8 3.51-2.28 2.68-1.5-0.85-2.69-2.61-4.89-4.1z" fill="#69C3DB"/>
  <path d="m166.3 82.9c3.4-3.19 5.76-4.59 8.72-4.12 3.19 0.51 2.42 5.18-0.91 4.94-2.2-0.15-5.19-1.01-7.81-0.82z" fill="#110201" opacity=".15"/>
  <path d="m165.8 81.99c3.3-3.64 5.35-4.18 8.1-4.03 3.52 0.28 3.04 4.85-0.36 4.92-2.42 0.05-4.5-1.1-7.74-0.89z" fill="#D0EDF2"/>
  <path d="m16.91 72.57c-2.49-1.44-4.8-2.13-6.6-2.06-3.12 0.07-2.98 4.38-0.29 4.01 1.95-0.28 4.04-1.45 6.89-1.95z" fill="#110201" opacity=".15"/>
  <path d="m16.62 72.09c-2.63-2.48-4.51-2.97-6.24-2.9-2.85 0.14-2.64 4.3-0.07 3.88 1.8-0.36 3.4-1.12 6.31-0.98z" fill="#94D1E0"/>
  <path d="m80.68 45.88c-2.43-1.87-4.43-2.37-6.16-2.57-3.81-0.49-4.51 3.55-2.81 4.1 1.95 0.65 3.97-1.39 8.97-1.53z" fill="#110201" opacity=".15"/>
  <path d="m78.25 45.41c-2.63-1.73-3.89-2.08-5.98-2.08-2.63 0-2.84 3.61-0.7 3.73 1.81 0.1 2.79-1.18 6.68-1.65z" fill="#94D1E0"/>
  <path d="m105.8 47.4c1.58-3.32 4.93-3.46 6.37-2.59 2.09 1.25 0.51 4.17-1.23 3.81-1.44-0.28-2.7-1.15-5.14-1.22z" fill="#110201" opacity=".15"/>
  <path d="m105.5 46.86c1.62-2.82 4.05-3.48 5.79-2.93 2.36 0.79 1.39 3.71-0.84 3.43-1.58-0.24-2.43-0.57-4.95-0.5z" fill="#D0EDF2"/>
  <path d="m95.71 55.33c-1.62-5.06-0.86-10.97 2.4-11.53 1.62-0.31 3.5 1.26 3.08 4.33-0.41 2.48-3.93 4.77-5.48 7.2z" fill="#110201" opacity=".15"/>
  <path d="m96.07 55.04c-1.56-4.21-1.63-11.32 2.56-11.32 2.02 0 2.99 2.79 1.73 5.75-0.84 1.99-3.04 3.36-4.29 5.57z" fill="#94D1E0"/>
  <path d="m98.74 62.84c1.7-5.75 5.67-10.13 9.62-10.04 2.7 0.08 3.95 2.83 2.7 4.91-1.95 3.35-7.09 2.45-12.32 5.13z" fill="#110201" opacity=".15"/>
  <path d="m98.95 62.37c1.51-5.33 5.67-10.46 9.64-10.16 2.62 0.21 3.66 3.1 2.04 5.29-1.91 2.77-7.02 2.32-11.68 4.87z" fill="#68C2DA"/>
  <path d="m93.95 62.23c-2.89-4.21-9.84-11.55-13.13-11.33-3.06 0.21-3.06-3.76 0.14-4.49 6.15-1.51 11.76 5.6 12.99 15.82z" fill="#110201" opacity=".15"/>
  <path d="m93.95 61.61c-3.67-3.82-9.04-8.16-12.84-7.55-3.59-1.51-2.5-6.29 2.06-6.15 5.68 0.21 9.7 6.85 10.78 13.7z" fill="#69C3DB"/>
  <path d="m109.3 64.41c3.05-0.15 5.86 0.34 6.62 2.61 0.77 2.39-1.52 3.22-2.45 2.18-1.39-1.54-2.38-3.41-4.17-4.79z" fill="#110201" opacity=".15"/>
  <path d="m109.3 63.43c2.49 0.22 5.71 0.35 6.55 3.67 0.55 2.36-1.94 2.85-2.78 1.31-0.97-1.7-1.94-3.57-3.77-4.98z" fill="#69C3DB"/>
  <path d="m27.97 73.6c-2.16-1.09-5.68-1.99-7.62-4.08-2.36-2.48-1.39-5.8 1.31-5.66 3.8 0.2 5.67 4.98 6.31 9.74z" fill="#110201" opacity=".15"/>
  <path d="m27.68 73.06c-1.94-0.97-4.56-2.28-6.92-3.66-2.85-1.81-1.52-6.09 1.46-5.68 3.8 0.56 5.24 4.91 5.46 9.34z" fill="#69C3DB"/>
  <path d="m28.94 93.69c-1.87-1.16-4.5-3.24-5.82-5.4-1.81-3.04 0.82-4.47 2.69-3.43 3.05 1.62 3.54 4.3 3.13 8.83z" fill="#110201" opacity=".15"/>
  <path d="m29.36 92.93c-1.7-1.62-4.33-3.49-5.95-5.19-2.36-2.61 0.34-4.62 2.4-3.3 3.05 1.87 3.61 4.47 3.55 8.49z" fill="#69C2DA"/>
  <path d="m19.51 75.48c1.51-1.25 4.36-1.39 5.4 0.48 0.9 1.66 0.2 3.1-1.43 2.49-1.33-0.56-2.46-1.87-3.97-2.97z" fill="#110201" opacity=".15"/>
  <path d="m19.12 74.92c1.44-0.97 4.07-1.26 5.51 0.61 1.44 1.94 0.54 3.45-1.3 2.58-1.51-0.78-2.38-1.94-4.21-3.19z" fill="#69C2DA"/>
  <path d="m86.17 62.79c-2.55-0.28-5.85-0.78-7.4 0.85-1.44 1.56-0.74 3.92 0.81 3.71 2.23-0.29 3.08-3.11 6.59-4.56z" fill="#110201" opacity=".15"/>
  <path d="m86.46 62.3c-2.7-0.29-4.72-0.71-6.95 0.21-2.43 1.05-1.87 4.41 0.36 3.99 2.29-0.49 3.26-2.86 6.59-4.2z" fill="#69C2DB"/>
  <path d="m158.1 82.06c-0.41-4.49 1.03-9.71 5.14-9.85 3.58-0.14 4 3.89 1.71 5.58-2.16 1.6-4.86 2.47-6.85 4.27z" fill="#110201" opacity=".15"/>
  <path d="m158.5 81.16c-0.48-3.7 0.81-9.31 4.87-9.66 3.23-0.29 4.07 3.59 1.3 5.53-1.9 1.34-4.39 2.29-6.17 4.13z" fill="#D0EDF2"/>
  <path d="m152.2 89.3c-2.16-3.45-1.88-7.66 0.62-8.98 1.87-0.97 3.43 1.46 2.8 3.32-0.7 2.07-2.46 3.5-3.42 5.66z" fill="#110201" opacity=".15"/>
  <path d="m152.5 88.61c-1.8-2.83-2.22-6.8 0.07-8.35 1.94-1.32 3.71 0.9 2.74 3.23-0.84 1.94-1.88 3.22-2.81 5.12z" fill="#94D1E0"/>
  <path d="m157.4 90.55c0.56-3.09 1.6-4.89 3.4-5.51 1.95-0.69 2.55 2.03 1 3.06-1.26 0.86-2.85 1.13-4.4 2.45z" fill="#110201" opacity=".15"/>
  <path d="m157.2 90.06c0.56-2.55 1.71-4.42 3.41-5.35 1.87-1.03 3.2 1.92 1.11 3.11-1.44 0.86-2.81 1.07-4.52 2.24z" fill="#D0EDF2"/>
  <path d="m125.2 101.1 10.37 1.59c3.06-0.21 4.03-2.72 7.09-2.58 3.72 0.2 7.53 2.14 10.83 0.85 2.43-0.97 3.33-3.26 3.62-4.6l-2.43 2.54c-2.02 1.29-8.42-0.82-11.68-1.11-3.9-0.39-6.96 2.79-10.58 2.27l-7.22 1.04z" fill="#110201" opacity=".15"/>
  <path d="m125.1 100.3 7.82 1.31c3.29 0.56 5.23-2.16 8.79-2.3 4.03-0.14 8.16 1.72 11.01 0.75 2.23-0.82 3.59-2.86 4.01-3.98l-2.43 1.94c-1.87 1.25-8.07-0.62-11.69-0.97-4.19-0.41-6.71 3.01-10.9 2.4l-6.61 0.85z" fill="#F1F8FE"/>
  <path d="m113.2 91.04c0.56 1.66 1.89 3.38 5.35 3.38l6.4 0.42c2.86 0 4.81-1.04 5.44-2.8-1.04 0.87-2.51 1.63-5.07 1.38-3.22-0.55-7.15-1.45-9.21-1.38-1.33 0-2.17-0.42-2.91-1z" fill="#110201" opacity=".15"/>
  <path d="m113.3 85.39 2.89 7.42 10.71-0.15 2.23-7.06-2.09-1.16-10.91 0.14-2.83 0.81z" fill="url(#paint7_linear_3888_14465)"/>
  <path d="m114.6 85.72c0 0.97 3.19 1.75 6.38 1.61 3.26-0.14 6.59-0.8 6.59-1.73 0-0.9-2.89-1.49-6.45-1.42-3.55 0.07-6.52 0.66-6.52 1.54z" fill="#C27A2A"/>
  <path d="m141.5 93.23 1.87 6.38 11.27-0.21 1.56-5.88-1.4-1.19-10.98-0.21-2.32 1.11z" fill="url(#paint8_linear_3888_14465)"/>
  <path d="m142.2 93.41c0.05 1.16 3.37 1.8 6.7 1.62 3.4-0.17 6.52-1.08 6.45-2.16s-3.07-1.58-6.66-1.44-6.56 0.95-6.49 1.98z" fill="#993F36"/>
  <path d="m83.69 90v5.75c0 2.01 6.12 2.91 12.52 2.77 6.25-0.14 11.9-1.91 11.9-3.31v-5.07l-6.77-1.77h-10.23l-7.42 1.63z" fill="url(#paint9_linear_3888_14465)"/>
  <path d="m92.95 72.24v18.83c0 1.32 6.18 1.04 6.18-0.36v-18.55l-6.18 0.08z" fill="url(#paint10_linear_3888_14465)"/>
  <path d="m85.71 69.06v2.4c0 2 5.21 2.9 10.63 2.76 5.35-0.14 9.67-1.77 9.47-3.11v-2.12l-6.53-1.43-10.09 0.28-3.48 1.22z" fill="url(#paint11_linear_3888_14465)"/>
  <path d="m85.82 68.6c0 2.06 4.69 3.49 10.53 3.28 5.7-0.21 9.74-1.65 9.66-3.42-0.07-1.8-4.6-2.42-9.94-2.21s-10.25 0.99-10.25 2.35z" fill="url(#paint12_linear_3888_14465)"/>
  <path d="m93.81 67.83c0 0.32 0.4 0.58 0.9 0.55 0.5-0.02 0.9-0.31 0.88-0.63s-0.43-0.49-0.93-0.47c-0.49 0.03-0.87 0.23-0.85 0.55z" fill="#008A94"/>
  <path d="m97.72 67.63c0 0.28 0.4 0.5 0.89 0.48 0.5-0.03 0.9-0.29 0.88-0.56-0.02-0.28-0.43-0.43-0.92-0.41-0.5 0.03-0.87 0.21-0.85 0.49z" fill="#008A94"/>
  <path d="m95.37 69.91c0 0.32 0.4 0.58 0.9 0.55 0.5-0.02 0.9-0.31 0.88-0.63s-0.43-0.49-0.93-0.47c-0.49 0.03-0.87 0.23-0.85 0.55z" fill="#008A94"/>
  <path d="m104.9 100.1 1.87 7.55 10.84-0.14 2.09-7.5-2.5-1.29-9.39 0.15-2.91 1.23z" fill="url(#paint13_linear_3888_14465)"/>
  <path d="m105.9 100.2c0 1.04 3.09 1.69 6.55 1.48 3.48-0.21 6.11-0.97 6.04-1.94s-2.92-1.49-6.38-1.35c-3.47 0.14-6.28 0.87-6.21 1.81z" fill="#D5A029"/>
  <path d="m29.21 78.78v0.35c0 0.59 0.42 0.94 0.9 0.94l37.58-0.56v-1.7l-37.72-0.14c-0.48 0-0.76 0.56-0.76 1.11z" fill="#20ACB9"/>
  <path d="m35.38 61.51-0.24 0.9c-0.28 0.56 0 1.18 0.49 1.45l32.14 31.88 1.26-1.32-31.7-33.11c-0.56-0.56-1.6-0.42-1.95 0.2z" fill="#20ACB9"/>
  <path d="m68.95 61.92-33.67 31.59c-0.56 0.42-0.63 1.21-0.21 1.7l0.63 0.62 33.6-31.76c0.56-0.49 0.63-1.35 0.14-1.91-0.49-0.55-0.97-0.65-0.49-0.24z" fill="#20ACB9"/>
  <path d="m51.7 55.61-0.14 22.49h1.4l0.28-22.35c0-0.79-0.56-1.14-1.03-1.14-0.7 0-0.58 0.42-0.51 1z" fill="#00AAB5"/>
  <path d="m51.78 57.71c-11.06 0-20.37 9.81-20.37 21.42 0 10.89 8.66 19.75 17.76 19.87l2.02-7.38c-6.83-0.97-12.47-6.49-12.47-12.99 0-7.02 6.47-13.16 13.41-13.16 7.59 0 14.12 6.62 14.12 13.66 0 6.58-5.49 12.25-12.03 13.05v6.55c10.24-0.9 18.46-9.5 18.46-19.67 0-11.35-9.04-21.35-20.9-21.35z" fill="url(#paint14_linear_3888_14465)"/>
  <path d="m46.03 79.51c0-4.68 2.79-6.9 6.44-6.84 3.87 0.07 5.86 3.07 5.79 6.4-0.08 4.21-2.51 6.79-5.77 6.64l-7.36 2.11 0.9-8.31z" fill="url(#paint15_linear_3888_14465)"/>
  <path d="m45.48 107 3.83-27.01c0.28-1.91 1.46-3.13 2.82-3.13 1.63 0 2.82 1.03 3.17 3.06l3.8 28.88-1.04 0.63-11.45-1.44-1.13-0.99z" fill="#00BDC1"/>
  <path d="m49.84 79.06c0 1.55 0.97 2.31 2.06 2.31 1.33 0 2.03-1.04 1.96-2.31s-0.91-2.14-2.03-2.14c-1.26 0-1.99 0.89-1.99 2.14z" fill="url(#paint16_linear_3888_14465)"/>
  <path d="m29.83 100.6c4.56-0.62 9.16-2.55 12.28-0.9 2.43 1.19 4.2 4.01 6.83 5.5l-4.48 2.89-8.97-2.75-5.66-4.74z" fill="#FAFFFE"/>
  <path d="m57.59 103.1 5.58-2.82c2.89-0.69 5.05-0.38 6.54 0.67 1.62 1.15 2.04 2.95 0.89 4.11-1.04 1.05 0.59 2.12 1.21 2.54l-4.63 2.29-6.11-0.97-3.48-5.82z" fill="#E6F6FC"/>
  <path d="m73.52 107.8c3.49-1.63 5.29-1.42 7.38-0.93 2.86 0.73 4.22 1.49 8.92 1.41-3.19 1.25-7.3 0.56-10.38-0.2-1.73-0.48-3.17-0.55-5.92-0.28z" fill="#B1D0DB"/>
  <path d="m86.46 132.1-5.24 58.91c0 3.89 7.4 5.76 14.33 5.62 7.83-0.14 15.37-2.75 15.37-5.9l-5.93-57.66c-3.23 1.13-13.88 1.99-18.53-0.97z" fill="url(#paint17_linear_3888_14465)"/>
  <path d="m84.13 131c0-6.83 4.83-13.07 11.94-13.07 8.34 0 11.67 6.89 11.75 14.11-2.56 1.97-6.85 2.32-12.09 2.32-4.67 0-8.19-0.62-11.6-3.36z" fill="url(#paint18_linear_3888_14465)"/>
  <path d="m77.18 83.02-2.52 6.21c-1.14 2.83 0.41 5.19 2.57 5.19 2.02 0 3.75-2.11 3.54-4.69l-2.88-6.71h-0.71z" fill="#FEFFFE"/>
  <path d="m74.81 100 1.09 3.49 12.49-0.56 0.52-2.93c-0.7-1.56-3.79-1.77-7.1-1.84-3.56-0.07-6.45 0.35-7 1.84z" fill="url(#paint19_linear_3888_14465)"/>
  <defs>
    <linearGradient id="paint0_linear_3888_14465" x1="97.17" x2="97.17" y1="92.52" y2="129.7" gradientUnits="userSpaceOnUse">
      <stop stop-color="#20ACB9" offset="0"/>
      <stop stop-color="#00BDC1" offset="1"/>
    </linearGradient>
    <linearGradient id="paint1_linear_3888_14465" x1="95.87" x2="97.11" y1="74.97" y2="112.4" gradientUnits="userSpaceOnUse">
      <stop stop-color="#20ACB9" offset="0"/>
      <stop stop-color="#00BDC1" offset="1"/>
    </linearGradient>
    <linearGradient id="paint2_linear_3888_14465" x1="96.29" x2="96.03" y1="81.84" y2="109.9" gradientUnits="userSpaceOnUse">
      <stop stop-color="#96D3E0" offset="0"/>
      <stop stop-color="#B7E1EA" offset="1"/>
    </linearGradient>
    <linearGradient id="paint3_linear_3888_14465" x1="138.4" x2="138.4" y1="4.798" y2="48.93" gradientUnits="userSpaceOnUse">
      <stop stop-color="#F3BA44" offset="0"/>
      <stop stop-color="#F5C145" offset="1"/>
    </linearGradient>
    <linearGradient id="paint4_linear_3888_14465" x1="138.1" x2="138.1" y1="6.391" y2="43.11" gradientUnits="userSpaceOnUse">
      <stop stop-color="#F4C85F" offset="0"/>
      <stop stop-color="#F3BA44" offset="1"/>
    </linearGradient>
    <linearGradient id="paint5_linear_3888_14465" x1="174.4" x2="174.4" y1="42.53" y2="54.71" gradientUnits="userSpaceOnUse">
      <stop stop-color="#DB9A32" offset="0"/>
      <stop stop-color="#F3BA44" offset="1"/>
    </linearGradient>
    <linearGradient id="paint6_linear_3888_14465" x1="137.7" x2="137.7" y1="34.51" y2="47.66" gradientUnits="userSpaceOnUse">
      <stop stop-color="#DB9A32" offset="0"/>
      <stop stop-color="#F3BA44" offset="1"/>
    </linearGradient>
    <linearGradient id="paint7_linear_3888_14465" x1="121" x2="121.2" y1="84.42" y2="92.81" gradientUnits="userSpaceOnUse">
      <stop stop-color="#C98029" offset="0"/>
      <stop stop-color="#F3BA44" offset="1"/>
    </linearGradient>
    <linearGradient id="paint8_linear_3888_14465" x1="148.7" x2="148.8" y1="91.7" y2="99.54" gradientUnits="userSpaceOnUse">
      <stop stop-color="#993F36" offset="0"/>
      <stop stop-color="#F47E6C" offset="1"/>
    </linearGradient>
    <linearGradient id="paint9_linear_3888_14465" x1="95.76" x2="95.94" y1="88.09" y2="98.4" gradientUnits="userSpaceOnUse">
      <stop stop-color="#F37366" offset="0"/>
      <stop stop-color="#D5584A" offset="1"/>
    </linearGradient>
    <linearGradient id="paint10_linear_3888_14465" x1="95.81" x2="96.07" y1="72.16" y2="92.08" gradientUnits="userSpaceOnUse">
      <stop stop-color="#00AAB5" offset="0"/>
      <stop stop-color="#F3BA44" offset="1"/>
    </linearGradient>
    <linearGradient id="paint11_linear_3888_14465" x1="95.58" x2="95.8" y1="67.46" y2="74.18" gradientUnits="userSpaceOnUse">
      <stop stop-color="#0099A8" offset="0"/>
      <stop stop-color="#00B0B4" offset="1"/>
    </linearGradient>
    <linearGradient id="paint12_linear_3888_14465" x1="95.65" x2="96.08" y1="65.93" y2="71.82" gradientUnits="userSpaceOnUse">
      <stop stop-color="#0099A8" offset="0"/>
      <stop stop-color="#00B0B4" offset="1"/>
    </linearGradient>
    <linearGradient id="paint13_linear_3888_14465" x1="112.4" x2="112.4" y1="98.54" y2="107.6" gradientUnits="userSpaceOnUse">
      <stop stop-color="#D5A029" offset="0"/>
      <stop stop-color="#F3BA44" offset="1"/>
    </linearGradient>
    <linearGradient id="paint14_linear_3888_14465" x1="51.71" x2="51.71" y1="57.71" y2="99" gradientUnits="userSpaceOnUse">
      <stop stop-color="#F47E6C" offset="0"/>
      <stop stop-color="#F47E6C" offset="1"/>
    </linearGradient>
    <linearGradient id="paint15_linear_3888_14465" x1="51.86" x2="51.86" y1="72.66" y2="87.82" gradientUnits="userSpaceOnUse">
      <stop stop-color="#F37366" offset="0"/>
      <stop stop-color="#D5584A" offset="1"/>
    </linearGradient>
    <linearGradient id="paint16_linear_3888_14465" x1="51.84" x2="51.84" y1="76.88" y2="81.37" gradientUnits="userSpaceOnUse">
      <stop stop-color="#F3BA44" offset="0"/>
      <stop stop-color="#F3BA44" offset="1"/>
    </linearGradient>
    <linearGradient id="paint17_linear_3888_14465" x1="96.07" x2="96.07" y1="122.2" y2="196.6" gradientUnits="userSpaceOnUse">
      <stop stop-color="#F3BA44" offset="0"/>
      <stop stop-color="#F3BA44" offset="1"/>
    </linearGradient>
    <linearGradient id="paint18_linear_3888_14465" x1="95.97" x2="95.97" y1="118" y2="134.4" gradientUnits="userSpaceOnUse">
      <stop stop-color="#48D1D2" offset="0"/>
      <stop stop-color="#20ACB9" offset="1"/>
    </linearGradient>
    <linearGradient id="paint19_linear_3888_14465" x1="81.76" x2="81.89" y1="98.13" y2="103.6" gradientUnits="userSpaceOnUse">
      <stop stop-color="#008A94" offset="0"/>
      <stop stop-color="#00B0B4" offset="1"/>
    </linearGradient>
  </defs>
</svg>