<svg xmlns="http://www.w3.org/2000/svg" width="200" height="200" fill="none" viewBox="0 0 200 200">
<!-- SVG created with Arrow, by QuiverAI (https://quiver.ai) -->
  <path d="m161 99.07c-18.75 0-35.53 17.99-36.47 40.55-0.11 2.77 0.08 5.47 0.52 8.09l-1.06-1.81c-23.97 0.8-31.72 11.76-46.01 13.35-7.23 0.82-11.75 0.92-17.54 0.12-6.36 8.9-13.44 13.76-22.92 14.34l109.7 0.27h12.15c19.1 0 37.34-17.99 37.34-34.28 0-21.32-14.91-40.63-35.68-40.63z" fill="#000" opacity=".2"/>
  <path d="m36.7 173 109.5-0.25-9.18-6.81-11.99-16.85-0.42-4.61c-21.41-0.55-32.09 12.82-46.79 13.67-11.59 0.69-17.16-0.25-20.69 0.36-7.41 8.69-12.4 13.34-20.39 14.49z" fill="#F7BF5C"/>
  <path d="m33.22 98.61c-16.99 0-30.51 16.79-30.51 37.55 0 18.71 13.72 36.69 30.51 36.69 17.7 0 32.62-15.84 32.87-36.69 0.25-18.61-12.84-37.55-32.87-37.55z" fill="url(#paint0_linear_708_1414)"/>
  <path d="m159.8 97.85c-19.22 0-36.12 17.99-36.4 40.87-0.24 18.6 14.52 39.69 36.4 39.57 18.46-0.11 36.28-17.01 36.51-38.9 0.24-19.08-13.55-41.54-36.51-41.54z" fill="url(#paint1_linear_708_1414)"/>
  <path d="m157.2 105.3c-15.04 0-27.03 15-27.03 33.53 0 15.89 12.23 30.9 27.03 30.9 15.04 0 28.13-13.85 28.13-31.36 0-15.88-11.57-33.07-28.13-33.07zm1.26 10.12 7.59 16.27c0.52 1.17 0.26 1.76-1.03 1.46l-4.28-1.53c-1.07-0.41-1.98-1.35-1.93-2.83l-1.55-11.57c-0.27-1.89 0.2-2.31 1.2-1.8zm-17.84 0.81 9.99 10.7c0.88 1.03 0.88 2.31-0.96 2.67l-6.85-0.81c-2.54-0.11-3.93-1.39-4.48-3.66-1.1-4.32-1.05-9.02 2.3-8.9zm2.59 34.97c-1.24 2.03-3.3 2.25-4.94-2.12-2.12-5.66-2.07-10.25-0.68-14.61 0.57-1.91 1.91-1.39 3.47-0.11l8.72 7.75c0.88 0.75 0.74 1.57-0.23 2.79l-6.34 6.3zm22.75 7.01c0.97 1.57-0.9 2.4-3.74 2.91-5.56 0.99-9.25-0.51-13.76-2.64-1.5-0.7-1.22-2.25-0.2-3.19l5.51-6.16c1.03-1.22 4.67-0.82 5.5 0.51l6.69 8.57zm13.32-18.8c-0.86 6.87-2.97 12.28-6.76 15.8-0.85 0.76-1.91 0.19-2.68-1.44l-3.73-8.97c-0.65-1.63 0.75-4.51 2.76-5.17l8.4-3.64c1.69-0.6 2.37 0.72 2.01 3.42zm-2.41-11.86c0.91 2.23 0.4 3.66-1.71 3.88l-7.26 1.22c-1.72 0.36-2.44-1.37-3.44-4.12l-2.02-10.86c-0.6-2.9 0.73-3.66 3.79-2.26 5.44 2.52 8.61 6.9 10.64 12.14z" fill="#F76F5F"/>
  <path d="m31.91 106.9c-12.98 0-23.68 13.07-23.68 29.57 0 14.52 10.89 29.03 23.68 29.03 13.5 0 23.58-13.83 23.4-29.72-0.2-14.51-9.83-28.88-23.4-28.88zm3.77 8.27c0.41-1.28 1.67-1.17 3.18-0.52 5.82 2.66 8.89 7.51 10.28 12.51 0.51 1.96-0.83 2.4-2.45 2.4l-7.42 0.54c-1.87 0.17-3.26-2.17-3.11-3.85l-0.48-11.08zm-18.92 9.4c2.23-5.96 6.86-9.3 11.02-10.47 2.34-0.71 3 0.23 2.54 2.66l-1.78 8.54c-0.46 2.35-1.8 2.65-3.81 2.24l-6.01-1.42c-1.63-0.36-2.28-0.61-1.96-1.55zm-1.61 9.37c0.1-2.89 1.39-3.24 3.26-1.97l7.9 4.57c1.61 0.94 1.36 2.56 0.34 4.19l-7.23 8.09c-1.12 1.17-2.36-0.2-3.4-4.36-1.12-4.66-1.07-6.33-0.87-10.52zm7.73 20.63c-1.27-0.98-0.76-2.2 0.31-3.63l4.99-5.77c1.03-1.22 4.66-0.36 5.42 0.58l5.01 9.35c0.77 1.42-0.4 2.55-3.06 3.05-5.36 1.04-8.63-0.5-12.67-3.58zm23.38-4.41c-1.39 1.91-2.94 1.6-3.97-1.01l-4.43-9.1c-0.81-1.72-0.1-2.65 1.97-2.75l9.77-0.36c1.5-0.15 1.55 2.03 0.64 5.81-1.05 4.37-2.69 5.9-3.98 7.41z" fill="#F76F5F"/>
  <path d="m153.7 127.9 2.81-13.91-2.61-0.21-3.88 10.19 3.68 3.93z" fill="#000" opacity=".2"/>
  <path d="m140.1 88.2c5.15 0.51 8.7 5.39 10.69 10.87l4.14-1.36c-2.47-5.9-6.64-10.27-10.76-11.19l-4.07 1.68z" fill="#000" opacity=".2"/>
  <path d="m139.1 87.41c5.15 0.51 8.7 5.39 10.68 10.86l4.43-1.16c-2.47-5.9-6.93-10.47-11.04-11.39l-4.07 1.69z" fill="#31B7B0"/>
  <path d="m140.1 86.02c-6.62 3.19-6.8 11.34-4.26 20.23l11.77 32.62 8.08-1.73-12.28-31.96c-2.01-5.31-2.76-11.07 1.72-13.26l-1.45-5.9h-3.58z" fill="#39BCB5"/>
  <path d="m143.2 81.07c-4.38-0.35-10.2 1.59-11.06 3.99-0.75 2.25 1.31 3.19 1.88 2.15 1.45-2.8 6.74-3.01 8.76-3.16 2.54-0.2 2.44-2.82 0.42-2.98z" fill="#000" opacity=".2"/>
  <path d="m142.7 80.61c-4.38-0.35-9.36 1.59-10.21 3.99-0.76 2.25 0.59 2.71 1.15 1.68 1.45-2.34 5.93-2.75 7.95-2.9 2.54-0.2 3.15-2.61 1.11-2.77z" fill="#F16051"/>
  <path d="m77.45 112.1-5.34 2.58 4.62 10.39 3.96-1.91 1.73-4.82-4.97-6.24z" fill="#000" opacity=".2"/>
  <path d="m68.88 94.91 5.54 14 4.24-1.09-4.85-15.02-4.93 2.11z" fill="#F36F5B"/>
  <path d="m130.2 51.62-4.94-14.41-4.62 1.04 4.48 14.41 5.08-1.04z" fill="#F36F5B"/>
  <path d="m107.5 30.76 9.94-0.25 18.6 0.89c4.93-0.16 5.03 10.51-0.24 10l-17.45-0.61-11.25 0.35 0.4-10.38z" fill="#F36F5B"/>
  <path d="m93.01 31.93 11.78-0.43c5.27-0.76 6.45 10.12 0.54 10.58l-12.04-0.46-0.28-9.69z" fill="#F36F5B"/>
  <path d="m143.2 31.88h5.82c5.71-0.55 6.22 10.65 0.2 11.82h-5.82l-0.2-11.82z" fill="#907836"/>
  <path d="m137 30c-5.37 0-4.35 11.77 0.12 11.77 4.72 0 5.18-11.77-0.12-11.77z" fill="#907836"/>
  <path d="m105.1 29.31c-4.72 0-4.72 11.55 0.48 12.06 5.37 0.51 5.23-12.06-0.48-12.06z" fill="#907836"/>
  <path d="m147.7 30.05c-5.37 0-5.08 11.86-0.11 11.86 5.57 0 5.9-11.86 0.11-11.86z" fill="#F7BF5C"/>
  <path d="m137.1 30.05c-4.73 0-4.27 11.76 0.21 11.76 4.72 0 4.66-11.76-0.21-11.76z" fill="#F7BF5C"/>
  <path d="m90.29 28.82c-6.02-0.21-6.53 12.1-0.81 13.46 6.22 1.47 6.83-13.26 0.81-13.46z" fill="#D1983B"/>
  <path d="m54.75 19.11c-11.61 0.3-18.59 10.63-18.39 19.84 0.3 10.66 9.27 17.68 18.7 17.38 11.25-0.41 19.3-9.1 19.3-17.74 0-10.39-8.15-19.79-19.61-19.48z" fill="#F7BF5C"/>
  <path d="m10.28 65.22 53.88 0.25-0.25-4.91h18.45c0.56-3.83-2.35-5.65-5.21-5.86-0.86-5.62-6.78-9.09-11.93-5.97-2.06 1.22-3.03 3.13-3.64 4.02-1.07-0.61-4.37-0.81-6.3 2.36-1.4-5.97-8.09-8.84-13.16-6.6-3.28-5-7.15-6.78-13.4-6.08-6.62 0.76-10.41 6.52-10.56 11.78-6.95-0.81-8.96 5.9-8.96 7.57l0.25 3.34 0.83 0.1z" fill="#000" opacity=".2"/>
  <path d="m9.53 64.81 54.49 0.15-0.25-4.9 16.18-0.56c1.77-3.18-2.09-5.68-3.91-5.58-0.86-5.91-7.24-9.39-12.07-5.22-1.22 1.04-2.23 2.8-2.79 3.69-1.83-1.27-4.97-0.61-6.47 2.67-1.24-5.61-8.08-8.85-13.23-6.5-3.27-5-8.15-6.82-13.57-6.31-6.85 0.66-9.9 6.57-10.25 11.67-7.52-0.6-8.55 6.47-8.55 7.69l0.1 3.05 0.32 0.15z" fill="#F36F5B"/>
  <path d="m150.8 64.86 12.64 0.05h26.4c2.28 0 2.28 5.72 1.57 5.72h-31.83c-0.86 0-0.3-5.97 5.26-5.56 1.07-3.68 6.17-4.24 7.25-3.25 1.29-2.71 4.18-3.79 6.72-3.38 4.17 0.61 6.35 3.55 6.45 8.35 3.15-0.3 1.68 0.36 2.9 1.02l-3.4-0.31-0.05-3.42c-0.56-5.03-4.59-10.59-12.49-9.78-1.55-3.38-4.24-5.36-9.02-4.9-5.09 0.51-7.01 5.51-6.76 7.69-5.47-0.81-6.59 4.8-6.08 6.99l0.44 0.78z" fill="#000" opacity=".2"/>
  <path d="m150.3 64.45 29.7-0.15h10.14c1.34-0.89 1.55 7.86 0.1 7.86h-30.94c-0.71 0-0.25-6.77 5.72-5.73 1.07-3.94 5.44-4.64 7.05-3.78 1.6-3.38 4.7-4.19 6.87-3.94 4.03 0.51 6.21 3.23 6.3 8.23 3.61-0.3 4.63 1.61 5.13 3.44l-5.2-0.94-0.75-4.11c-1.07-4.42-5.55-6.19-10.27-4.92-1.88 0.56-3.07 2.08-3.78 3.51-3.4-2.03-8.55-1.88-10.33 0.41l-9.74 0.12z" fill="#F36F5B"/>
  <path d="m109.6 123.5c-1.82 3.58-3.43 13.4-3.43 14.93 0 2.85 2.07 3.61 3.7 3.56 1.93-0.07 3.25 0.25 6.75-0.51 3.2-0.74 2.18-2.91 1.32-6.54-1.01-4.32-2.03-11.82-4.51-14.48-1.47-1.63-2.87 0.71-3.83 3.04z" fill="#000" opacity=".2"/>
  <path d="m112.8 120c-2.97 0-4.09 11.4-4.85 15.19l3.82 1.12 0.26 8.85h1.5l-0.2-10.18 5.07-0.99c-0.15-2.85-2.32-13.99-5.6-13.99z" fill="#39BCB5"/>
  <path d="m111.1 130.1c-0.47 0-0.78-0.3-0.78-0.76 0-0.45 0.31-0.76 0.78-0.76 0.45 0 0.76 0.31 0.76 0.76 0 0.46-0.36 0.76-0.76 0.76z" fill="#765438"/>
  <path d="m115.4 130.2c-0.46 0-0.77-0.31-0.77-0.76s0.31-0.76 0.77-0.76c0.45 0 0.76 0.31 0.76 0.76 0 0.41-0.36 0.76-0.76 0.76z" fill="#765438"/>
  <path d="m112.6 133.7c-1.29 0-1.9-0.99-1.95-1.09l0.46-0.25c0.05 0.05 0.71 1.09 2.1 0.68 1.04-0.3 1.34-1.38 1.34-1.43l0.51 0.15c-0.02 0.05-0.43 1.48-1.72 1.84-0.28 0.05-0.51 0.1-0.74 0.1z" fill="#765438"/>
  <path d="m103 133.8c-5.1-0.3-6.29 4.6-6.29 6.32 0 4.27 3.07 5.79 5.4 6l0.25 2.34 0.92-0.15 0.15-2.34c2.94-0.51 5.27-2.54 5.27-6.21 0-2.9-2.07-5.75-5.7-5.96z" fill="#000" opacity=".2"/>
  <path d="m102.9 133.4c-4.72-0.31-6.33 4.33-6.33 6.2 0 4.11 2.94 5.83 5.22 5.99l0.56 3.13 0.86-0.3 0.1-2.84c2.84-0.51 5.07-2.69 5.07-6.22 0-2.89-2.08-5.76-5.48-5.96z" fill="#50CCC6"/>
  <path d="m100.8 138.4c-0.45 0-0.81-0.36-0.81-0.81 0-0.46 0.36-0.81 0.81-0.81 0.46 0 0.82 0.35 0.82 0.81 0 0.45-0.36 0.81-0.82 0.81z" fill="#42210B"/>
  <path d="m105.1 138.6c-0.46 0-0.81-0.35-0.81-0.81s0.35-0.81 0.81-0.81 0.82 0.35 0.82 0.81-0.36 0.81-0.82 0.81z" fill="#42210B"/>
  <path d="m102.7 139.6c-1.12 0-1.73-0.71-1.83-0.92l0.35-0.25c0.05 0.1 0.92 1.22 2.55 0.51 1.07-0.51 1.17-1.22 1.17-1.27l0.46 0.05c0 0.05-0.15 1.09-1.44 1.7-0.5 0.12-0.91 0.18-1.26 0.18z" fill="#42210B"/>
  <path d="m28.52 77.44c-5.09 0-6.23 4.27-6.23 6.3 0 1.17 0.46 2.34 1.12 3.28-1.7 0.66-3.2 2.43-3.2 5.34 0 4.16 3.07 5.93 5.3 6.09l0.61 1.52 2.06-0.35 0.41-1.38c3.58-0.61 7.27-3.22 7.27-8.02 0-1.42-0.77-3.3-1.43-4.29 0.31-3.89-1.08-8.49-5.91-8.49z" fill="#000" opacity=".2"/>
  <path d="m28.42 76.63c-5.09 0-6.13 4.27-6.13 6.29 0 1.42 0.86 3.1 1.83 4.14-1.97 0.66-3.7 2.62-3.7 5.28 0 3.37 2.43 5.19 4.5 5.7l-7.78 6.31 0.15-1.27 0.27-6.56-1.85-2.71 0.46-0.51 1.92 2.52 0.23-5.86h0.56l-0.15 4.45 1.77-1.97 0.36 0.41-2.18 2.62v1.56l2.54 0.15c2.94-0.94 4.23-3.42 4.23-6.08 0-1.67-0.82-3.34-1.94-4.42 1.17-0.66 1.94-1.98 3.12-2.28 1.08-0.31 3.41 0.25 4.07 0.1 3.21-0.76 3.36-7.87-2.28-7.87z" fill="#F7BF5C"/>
  <path d="m27.56 85.11c-0.46-0.15-0.71-0.66-0.56-1.12l0.51 0.15c-0.1 0.31 0.05 0.56 0.25 0.66 0.31 0.11 0.56-0.05 0.66-0.25l0.51 0.15c-0.16 0.41-0.82 0.66-1.37 0.41z" fill="#42210B"/>
  <path d="m30.49 84.03-0.4-0.31c0.25-0.35 0.71-0.45 1.07-0.2 0.35 0.25 0.45 0.71 0.2 1.06l-0.51-0.25c0.16-0.2 0-0.51-0.36-0.3z" fill="#42210B"/>
  <path d="m28.32 87.92 1.34 1.91-0.25 9.72 0.91-0.16-0.05-10.22 1.78-1.73-0.36-0.4-1.78 1.67-1.19-1.22-0.4 0.43z" fill="#895830"/>
  <path d="m126.1 62.04-45.5 55.12-11.85 16.3 1.83 11.31c2.33 1.62 8.75 1.98 11.29-1.76l2.17 0.89 5.44-1.67-1.34-6.92 44.95-53.3c2.07-5.31-0.81-14.81-6.99-19.97z" fill="url(#paint2_linear_708_1414)"/>
  <path d="m116 80.06-27.38 34.78c-3.5 4.61 0 9.08 4.47 7.6l30.27-36.31c3.35-4.12-0.63-11.28-7.36-6.07z" fill="url(#paint3_linear_708_1414)"/>
  <path d="m134.6 61.94 5.1 11.87c-2.28 2.23-7.55-1.2-7.1-7.8 0.1-1.62 0.91-3.1 2-4.07z" fill="#66CEC9"/>
  <path d="m132.6 51.82-1.55 0.21c-3.78 0.5-7.97 2.95-9.8 3.79-1.55 0.76-1.1 5.51 1.83 5.26 2.54-0.2 4.87-2.96 9.7-3.37 2.27-0.2 2.57-5.63-0.18-5.89z" fill="#F8B041"/>
  <path d="m47.45 80.11c2.54-2.19 6.27-0.87 9.95-0.46 9.3 1.07 17.62-0.36 25.21-1.48 4.98-0.71 9.91-0.05 10.57 7.14l-21.44 9.76c-8.93 3.13-18.67 0.05-24.24-4.47-3.27-2.76-2.25-8.47-0.05-10.49z" fill="#F36F5B"/>
  <path d="m72.5 93.76 20.38-8.6-0.56-1.03c-6.24 0.88-13.4 5-19.26 8.67-1.78 1.12-1.63 1.38-0.56 0.96z" fill="#CB4E3F"/>
  <path d="m67.72 112.3c0.45-2.13 5.79-3.41 8.99-4.9 3.2-1.32 4.75 0.51 4.19 2.85-0.45 1.87-2.83 2.43-4.58 3.29-2.11 1.05-4.53 2.25-6.31 2.25-1.39 0-2.52-2.56-2.29-3.49z" fill="#F8B041"/>
  <path d="m29.08 131.9c6.62 0 18.93 0.93 26.54 0.73l19.36-0.1c4.48-0.41 4.53 2.55 4.07 5.21-0.46 2.09-3 2.19-5.84 2.19l-21.49-0.5-21.47 1.77c-7.1 0.5-8.23-9.3-1.17-9.3z" fill="#39BCB5"/>
  <path d="m27.47 131.9c-4.59 0.82-6.06 4.69-4.95 8.11 1.24 4.11 4.69 4.83 7.49 4.12 3.71-0.98 5.05-4.05 4.3-7.43-0.81-3.48-3.28-5.42-6.84-4.8z" fill="url(#paint4_linear_708_1414)"/>
  <path d="m27.21 133.8c-2.33 0.71-2.1 4.92 0.6 4.92 3.02 0 2.97-5.92-0.6-4.92z" fill="#F8B041"/>
  <path d="m154.7 130c-6.3 0.2-8.02 8.2-6.01 12.02 2.47 4.85 8.03 5.4 11.48 2.03 5.09-4.95 2.92-14.05-5.47-14.05z" fill="url(#paint5_linear_708_1414)"/>
  <path d="m150.8 135.5c-2.66 0.2-2.76 4.68-0.35 4.83 3.38 0.25 3.47-5.06 0.35-4.83z" fill="#39BCB5"/>
  <defs>
    <linearGradient id="paint0_linear_708_1414" x1="2.707" x2="66.1" y1="135.7" y2="135.7" gradientUnits="userSpaceOnUse">
      <stop stop-color="#32302F" offset="0"/>
      <stop stop-color="#12100B" offset="1"/>
    </linearGradient>
    <linearGradient id="paint1_linear_708_1414" x1="123.3" x2="196.3" y1="138.1" y2="138.1" gradientUnits="userSpaceOnUse">
      <stop stop-color="#282625" offset="0"/>
      <stop stop-color="#12100B" offset="1"/>
    </linearGradient>
    <linearGradient id="paint2_linear_708_1414" x1="68.78" x2="134.1" y1="103" y2="103" gradientUnits="userSpaceOnUse">
      <stop stop-color="#39BCB5" offset="0"/>
      <stop stop-color="#34B3AF" offset="1"/>
    </linearGradient>
    <linearGradient id="paint3_linear_708_1414" x1="88.15" x2="124.9" y1="97.86" y2="97.86" gradientUnits="userSpaceOnUse">
      <stop stop-color="#50CCC6" offset="0"/>
      <stop stop-color="#66CEC9" offset="1"/>
    </linearGradient>
    <linearGradient id="paint4_linear_708_1414" x1="22.12" x2="34.67" y1="138.1" y2="138.1" gradientUnits="userSpaceOnUse">
      <stop stop-color="#D1983B" offset="0"/>
      <stop stop-color="#F4B044" offset="1"/>
    </linearGradient>
    <linearGradient id="paint5_linear_708_1414" x1="147.7" x2="162.8" y1="138.1" y2="138.1" gradientUnits="userSpaceOnUse">
      <stop stop-color="#D1983B" offset="0"/>
      <stop stop-color="#F4B044" offset="1"/>
    </linearGradient>
  </defs>
</svg>