<svg xmlns="http://www.w3.org/2000/svg" width="200" height="200" fill="none" viewBox="0 0 200 200">
<!-- SVG created with Arrow, by QuiverAI (https://quiver.ai) -->
  <path d="m197 112.3c-0.41-4.5-8.89-23.57-15.2-32.24l-2.1-6.71c-0.26-0.89-0.71-0.99-1.58-0.71-4.16 1.36-10.8 2.14-16.35 2.14-5.81 0-11.59-1.1-15.75-2.16-0.9-0.24-1.46-0.01-1.73 0.95l-1.88 5.51c-6.78 6.5-13.96 23.79-15.73 31.36-0.78 3.49 1.19 5.66 7.29 7.4 6.75 2.06 15.68 3.77 24.75 3.77 10.96 0 22.09-2.27 30.36-4.68 5.73-1.24 8.16-2.47 7.91-4.63h0.01z" fill="#1D1D1B" opacity=".15"/>
  <path d="m196.5 109.5c-1.32-6.2-8.76-22.23-15.78-32.49l-2.23-5.24c-0.37-0.88-0.86-0.89-1.71-0.55-4.66 1.98-11.06 2.03-15.91 2.03-5.75 0-10.91-0.72-15.44-2.19-0.98-0.33-1.46-0.14-1.73 0.82l-2.05 5.04c-6.81 6.96-13.15 21.06-15.88 32.01-1.21 4.78 2.08 6.69 8.39 8 4.92 1.05 15.26 0.53 22.92-2.83 3.98-1.75 5.88-3.69 7-4.75 5.96 6.47 14.22 7.12 19.34 7.12 6.82 0 14.04-2.75 13.08-6.97z" fill="#48B8B5"/>
  <path d="m179.9 76.31-1.44-4.53c-0.41-1.01-0.78-1-1.82-0.65-4.08 1.42-10.23 1.95-15.26 2.09-6.36 0.19-11.27-0.81-16-2.21-0.91-0.31-1.47-0.08-1.73 0.88l-1.91 5.53c7.31 2.43 15.13 2.63 19.43 2.43 7.23-0.32 11.97-1.52 18.73-3.54z" fill="#3AA5A0"/>
  <path d="m172.8 79.53c3.44 12.58-3.92 29.63-18.16 35.32-7.93 3.29-15.6 2.36-20.52 1.31 7.21 0.55 14.81 0 21.2-3.54 13.32-7.03 18.7-20.41 17.48-33.09z" fill="#3AA5A0"/>
  <path d="m182.8 28.14c-0.29-2.5-11.54-11.56-19.85-11.95h-0.98c-0.96 0-1.63 0.27-2.09 1.18-1.6 3.26-6.21 6.47-9.71 6.44-3.65-0.03-7.34-2.84-8.94-6.51-0.36-0.84-1.2-1.21-2.37-1.11h-1.25c-6.75 0-15.15 8.32-17.19 10.27-1 0.95-1.13 2.47-0.44 3.87 2.05 4.38 4.69 8.41 5.52 9 0.92 0.66 2.52 0.1 3.96-1.4l0.34 0.22c-2.29 4.98-5.55 10.78-5.83 14.16-0.46 5.43 11.29 6.55 26.07 6.55 12.23 0 27.1-2.88 27.74-7.4 0.55-3.55-5.61-11.23-6.39-13.95l0.32-0.29c2.05 1.85 3.33 2.55 4.87 1.2 1.08-0.95 5.35-8.01 6.08-9.31 0.2-0.38 0.22-0.56 0.14-0.97z" fill="#1D1D1B" opacity=".15"/>
  <path d="m182.1 27.44c-0.39-2.68-11.85-11.97-19.69-12.53h-0.73c-1.1-0.09-1.84 0.29-2.34 1.35-1.79 3.6-6.79 7.49-9.87 7.35-3.69-0.15-7.03-2.62-8.99-6.89-0.49-1.16-1.24-1.71-2.67-1.71h-0.76c-7.05-0.28-14.67 7.67-16.72 9.42-1.31 1.16-1.22 2.91-0.53 4.44 1.87 4.19 4.28 8.21 5.33 9.06 1.11 0.95 2.72 0.49 4.54-1.46l0.41 0.28c-2.36 4.65-5.71 11.22-5.84 13.78-0.32 4.84 6.73 4.18 17.44 3.37 9.31-0.75 25.06-5.32 25.94-12.21 0.59-4.84-6.2-9.31-14.34-14.91 3.75-3.21 5.04-5.15 7.19-8.97 0.66-1.28 1.02-2.7 2.47-2.89 8.05-0.19 17.43 8.75 18.74 10.4 0.59 0.75 0.6 1.27 0.41 2.12h0.01z" fill="#F9C253"/>
  <path d="m141.5 16.01c2.68 4.61 7.28 7.9 11.6 10.78 2.44-2.07 5.63-6.16 7.34-9.7-2.1 3.22-6.07 6.48-10.16 6.34-3.31-0.11-6.3-2.98-8.78-7.42z" fill="#DB8F36"/>
  <path d="m177.5 50.95c0.74 4.74-10.67 7.6-27.12 7.6-12.93 0-24.16-2.4-25.64-5.46 2.13 1.48 7.17 1.24 15.89 0.54 8.96-0.75 23.14-4.79 26.69-10.85 1.76-3.22-0.07-6.76-2.75-9.16 4.32 3.89 12.3 13.66 12.93 17.33z" fill="#F2B037"/>
  <path d="m112.7 66.3c-8.63-8.26-9.72-22.29-16.32-35.6-3.46-6.97-9.67-10.36-12.13-11.21-3.21-3.33-5.78-6.18-11.55-6.49h-4.65c-2.14 0-3.24 0.72-4.15 1.11-0.92-0.48-2.81-0.55-3.95 0.1-1.25-0.65-4-1.03-5.87-0.54-2.07-0.56-4.08-1.03-6.21-0.67h-3.72c-4.55 0.12-8.42 2.91-11.55 6.63-4.93 1.42-9.73 4.97-14.7 15.07-5.65 11.51-6.8 22.08-14.82 31.32-0.92 1.11 0.67 3.12 1.59 2.31 7.02-6.2 9.28-17.27 13.54-27.21 3.59-8.36 8.87-16.42 15.89-18.71-6.03 3.46-12.03 10.47-15.24 19.9-3.49 10.54-5.63 18.9-11.86 27.46-0.92 1.28 1.44 3.45 2.4 2.25 1.6-2.1 3.47-4.95 4.7-7.26-1.12 3.35-2.68 7.22-3.7 9.65-0.77 1.95 2.31 2.7 3 1.1 2.27-5.36 4.31-11.43 5.91-15.97-1.7 6.47-3.71 12.8-5.31 17.38-0.74 2.26 2.81 2.87 3.5 0.69 0.36-1.13 0.88-2.72 1.4-4.37-0.59 2.62-1.28 5.67-1.4 6.72-0.26 1.72 2.88 2.32 3.36 0.67 0.14-0.56 0.37-1.34 0.64-2.34l0.69 1.38c0.68 1.32 3.13 0.48 3.49-0.65l0.55 3.7c0.22 1.32 1.88 1.19 2.47 0.14l10.71-10.97 3.89-1.85 0.53 0.28-3.32 0.75c-5.86 7.74-16.13 18-25.2 24.63-5.24 3.23-10.2 4.07-11.12 9.22-0.75 4.09 4.22 5.69 8.62 4.84 9.17-1.87 18.89-10.44 24.65-17.16-1.96 3.63-16.29 34.67-17.46 38.82-1.14 4.46 2.9 7.33 14.65 10.68 0.74 0.23 1.55 0.46 2.41 0.69l0.41 9.63c0 7.72 3.03 29.69 10.47 33.59 2.06 1.12 6.23 1.22 8.06-0.57 4.4-4.08-0.38-25.35-0.38-32.68l0.79-6.74h5.77l0.44 9.68c0 7.33-4.55 21.66-1.24 27.91 1.6 3.27 7.57 2.95 9.63 1.31 6.59-5.12 7.37-20.22 8.81-29.41l0.59-12.22c9.06-2.96 17.11-6.44 16.65-10.8-0.46-3.67-7.16-19.78-7.85-23.48-0.83-4.29-5-8.47-7.03-12.45 6.06 6.43 13.72 13.05 22.63 13.19 4.81 0.08 7.63-2.52 7.7-4.98 0.13-3.96-4.61-5.68-8.4-7.63-8.41-4.17-21.06-16.52-27.7-25.52l-2.29-1.32 0.95-0.27 5.13 5.09c2.52-2.81 3.96-8.61 4.41-14.41 0.84-7.26 0.09-12.93 0.09-12.93l0.47-1.76c0.62-2.26-2.05-14.01-4.87-17.16 4.96 2.07 9 8.32 11.67 16.08 3.23 9.43 5.74 19.08 14.15 27.78 1.26 1.32 3.53-0.59 2.48-2.12-1.35-2.09-3.34-4.64-4.99-7.46 2.1 3.1 4.56 5.72 6.5 6.95 1.43 0.91 3.77-2.57 2.59-3.79z" fill="#1D1D1B" opacity=".15"/>
  <path d="m55.61 13.72c-4.46-1.38-7.84-0.85-10.41-0.34-5.03-0.62-9.18 1.23-12.91 6.14-6.19 2.1-10.53 5.58-15.57 16.17-5.11 10.8-6.03 19.47-13.48 29.54-0.84 1.18 0.55 2.5 1.37 1.78 7.44-6.76 9.33-19.15 13.87-28.3 5.33-10.8 11.64-18.48 20.59-19.6 3.09-3.07 6.1-4.87 9.84-4.7 2.83-0.88 5.89-0.82 6.7-0.69z" fill="#2AAAB0"/>
  <path d="m43.99 12.87c-4.93-0.14-9.23 2.88-12.87 7.9l2.36 0.14c4.3-4.46 7.56-5.52 11.63-5.58 3.06-1.42 5.33-2.08 8.15-1.71-2.14-0.89-5.45-1.03-9.27-0.75z" fill="#2AAAB0"/>
  <path d="m65.87 12.6c-2.36 0-4.45 0.57-5.71 2.79-1.08-1.71-4.9-2.9-8.92-2.01 2 0.39 5.09 1.81 6.62 4.08l1.73 2.62 2.36-3.06c2.36-2.81 5.12-3.9 7.76-4.02-0.75-0.24-2.01-0.4-3.84-0.4z" fill="#2AAAB0"/>
  <path d="m67.8 12.73c-4.29-0.23-6.65 2.39-8.19 3.81-1-2.19-5.37-3.81-9.43-3.53 3.96 0.98 7.53 3.97 8.58 7.2l1.05 3.93 3.42-5.79c2.36-3.23 5.82-4.88 9.41-5.24-1.49-0.27-2.33-0.38-4.84-0.38z" fill="#2AAAB0"/>
  <path d="m72.61 12.5h-3.09c-2.36 0-6.76 1.69-9.05 6.57l-2.36 5.03 3.72 0.36c3.21-6.38 8.48-9.88 14.3-10.15h1.93c-1.6-1.2-2.7-1.71-5.45-1.81z" fill="#2AAAB0"/>
  <path d="m72.98 13.11h-1.97c-5.5 0-9.67 4.65-11.11 8l-0.69 2.58 2.45-0.38c3.75-6.2 8.55-8.82 13.38-9h3.83c-1.26-0.65-2.86-1.2-5.89-1.2z" fill="#2AAAB0"/>
  <path d="m74.13 13.39h-2.36c-5.18 0-10.45 5.63-12.59 11.33l1.97 0.24c4.29-6.85 9.02-9.91 14.14-10.05l4.12 0.14c-1-0.94-2.6-1.66-5.28-1.66z" fill="#2AAAB0"/>
  <path d="m73.39 13.67c-7.02-0.28-11.22 4.41-14.48 9.59l0.78 0.84c4.3-5.36 9.03-8.17 14.1-8.39l6.26-0.28c-1.15-0.95-3.11-1.67-6.66-1.76z" fill="#2AAAB0"/>
  <path d="m75.04 16.92c-6.33 0.14-11.85 5.32-15.79 10.1l0.76 1.26c5.38-6 9.84-9.33 16.1-9.67l6.95 0.27c-1.33-1.01-3.85-2.06-8.02-1.96z" fill="#2AAAB0"/>
  <path d="m81.13 18.56c-7.98-0.85-15 5.4-18.92 9.44l1.31 1.16c5.36-5.25 10.39-8.25 16.89-8.25l5.97 0.14c-0.87-0.97-2.46-2.17-5.25-2.49z" fill="#2AAAB0"/>
  <path d="m83.92 19.71c-8.63-0.76-15 5.56-19.83 10.44l1.05 1.12c6.84-6.35 10.87-8.65 17.39-8.75l6.39 0.49c-1.06-1.28-1.98-2.7-5-3.3z" fill="#2AAAB0"/>
  <path d="m87.11 21.72c-7.98-2.91-15 3.2-20.1 8.39l0.85 0.95c6.84-5.85 10-7.51 17.19-6.85l7.47 1.16c-0.93-1.27-2.89-2.83-5.41-3.65z" fill="#2AAAB0"/>
  <path d="m94.81 29.01c-5.96-9-11.48-9.84-16.3-9.49l-1.8 0.99c7.15 0.14 11.9 4.83 16.06 9.6 7.32 8.6 7.19 19.6 18.64 36.92 0.92 1.42 2.42-0.46 1.2-1.72-8.64-8.57-10.78-25.79-17.8-36.3z" fill="#2AAAB0"/>
  <path d="m38.31 20.91c-9.72 0.76-17.01 10.56-21 22.11-3.39 9.9-4.38 16.75-10.02 26.68-0.84 1.56 1.42 2.98 2.34 1.66 6.36-8.46 8.09-18.35 11.55-27.28 4.03-10.32 11.05-19.02 18.94-20.58l5.41-1.5c-1.44-0.75-3.04-1.35-7.22-1.09z" fill="#2AAAB0"/>
  <path d="m39.75 23.01c-8.18 0.95-16.24 9.98-20.03 20.3-3.65 9.9-5.61 18.33-9.61 29.13-0.74 2.13 2.15 2.69 2.99 0.78 4.17-9.43 5.61-19.87 9.43-28.99 4.46-10.73 10.95-17.3 19.1-19.51l3.65-1.27c-1.25-0.56-2.35-0.83-5.53-0.44z" fill="#2AAAB0"/>
  <path d="m41.07 24.72c-8.46 1.95-16.79 11.85-20.48 23.77-2.68 8.7-4.28 15.42-7.37 25.8-0.74 2.56 2.19 2.92 3.03 0.75 3.36-8.63 4.27-17.33 7.96-27.13 4.04-10.68 11.3-19 18.75-21.5l3.16-1.22c-0.92-0.59-2.18-1.09-5.05-0.47z" fill="#2AAAB0"/>
  <path d="m43.75 25.1c-8.63 1.42-17.59 12.13-20.24 23.32-2.1 8.84-3.36 14.59-5.82 26.51-0.61 2.99 2.63 2.99 3.32 0.82 2.82-8.89 2.69-17.02 5.75-26.99 3.36-10.97 10.25-19.16 17.91-21.78l2.36-1.15c-0.69-0.46-1.32-1.02-3.28-0.73z" fill="#2AAAB0"/>
  <path d="m44.71 26.48-3.6 0.62c-8.02 2.26-14.18 11.82-14.7 21.96-0.46 8.32-0.18 13.75-0.5 25.53-0.14 3.33 2.92 2.9 3.41 0.45 1.73-9.18-0.24-17.33 0.8-27.22 1.19-11.71 6.71-18.71 15.16-20.56l2.07-0.95c-0.52-0.36-0.84-0.44-2.64 0.17z" fill="#2AAAB0"/>
  <path d="m46.07 27.37-2.89 0.95c-7.02 2.56-11.85 10.53-11.07 19.96 0.62 7.63 2.98 12.28 4.07 22.95l2.07-1.12c0.13-9.97-3.39-16.49-3.08-25.61 0.36-9.09 4.95-14.28 12.04-16.32l1.5-1.12c-0.52-0.22-0.88-0.45-2.64 0.31z" fill="#2AAAB0"/>
  <path d="m45.11 70.04-6.16 5.47c-5.96 8.26-15.64 18.4-24.71 23.49-5.03 2.16-9.13 3.22-9.63 7.11-0.59 4.16 4.44 5 8 4.05 10.81-3.02 21.52-13.54 27.27-21.73 3.21-4.62 4.47-10.82 5.23-18.39z" fill="#F3C9AF"/>
  <path d="m73.12 70.04 3.93 2.26c5.86 7.4 15.06 17.53 26.96 24.62 3.72 1.85 8.02 3.54 8.02 7.35 0 2.81-3.52 5.11-7.89 4.6-9.21-1.11-19.13-11.48-24.09-18.06-3.75-4.92-5.92-12.6-6.93-20.77z" fill="#F3C9AF"/>
  <path d="m38.81 142.9-1.09 0.14-0.24 9.16c0 5.5 2.75 24.6 7.33 30.03 2.89 3.49 5.1 3.49 7.61 3.22 4.4-0.47 4.4-5.25 3.19-12.04-1.05-6.3-1.43-15.94-1.08-20.3l0.98-8.29-0.49-0.21-16.21-1.71z" fill="#F3C9AF"/>
  <path d="m62.64 145-0.58 10.8-1.79 18.6c-0.66 5.7 0 10.62 6.67 10.62 7.98 0 10.5-11.99 11.34-18.89l1.8-14.93 0.1-9.11-17.54 2.91z" fill="#F3C9AF"/>
  <path d="m40.02 168.4s7.49 1.59 14.85-1.86l0.74 2.5c-1.7 2-4.89 4.12-11.19 3-2.14-0.43-4.3-1.14-4.3-1.14l-0.1-2.5z" fill="#48B8B5"/>
  <path d="m62.72 166.6c3.69 2.4 10.71 2.57 14.77 0.99l-0.13 2.71c-2.95 2.2-8.55 2.76-11.85 1.5-2.26-0.95-3.1-1.8-3.1-1.8l0.31-3.4z" fill="#48B8B5"/>
  <path d="m39.19 87.09c-4.59 7.12-17.14 35.96-19.88 44.12-1.97 6.25 8.74 9.07 14.01 10.72 8.46 2.75 19.81 3.37 23.73 3.14 9-0.56 27.04-3.25 34.76-9.12 2.82-2.26 4.96-2.64 3.91-6.83-2.26-8.06-7.66-21.73-9.01-23.29-5.06-5.89-9.2-13.91-11.63-34.42l-4.06-2.29-25.51 0.19-6.32 17.78z" fill="#F2725E"/>
  <path d="m24.17 119.2 4.54 0.32c-3.77-1.81-4.99-3.87-2.8-8.22l4.16 2.81 4.3 3.71 3.6 2.26 6.4 1.02 8.05 2.36c-1.39 1.65-4.41 6.64-8.71 4.24l-4.65-2.59-4.65 1.95-6.03 2.56c-2.89 1.12-8.06-2-6.71-5.49 0.92-2.68 2.5-4.93 2.5-4.93z" fill="#CC6250"/>
  <path d="m80.21 118.5c1.44 3.68 3.64 4 5.78 3.25-3.21 1.56-3.8 6.47-0.48 9.03 3.72 2.81 6.4-2.07 7-3.08l2.1 5.98 1.6-1.65-2.46-8.96c-3.34 1.56-4.59-0.89-4.06-5.97l-1.5-3.17c-0.27 3.17-3.02 4.73-7.98 4.57z" fill="#CC6250"/>
  <path d="m74.01 76.08c-3.39 2.43-2.3 6.13-0.86 9.05-2.74-2.07-6.06-3.49-9.25-0.31-1.97 3.29-0.28 6.81 6.19 8.23l-7.51 2.71c1.83 1.16 7.59 0.6 9.56-0.76-1.97 1.36-7.83 4.45-5.2 9.81 2.29 4 7.19 2.54 8.92-2.2-0.14 4.18 2.06 7.1 5.35 6.82 4.06-0.39 4.52-5.16 3.13-9.42l-4.5-6.62-0.69-6.68-5.14-10.63z" fill="#F0B141"/>
  <path d="m30.07 104.4c-3.02 2.92-4.12 7.04-2.29 9.23 2.29 2.89 6.28 4.09 9.14 3.85l5.81 2.43c3.29 2.07 9.29 5.02 10.39 3.21 2.64-3.02 0.6-5.49-5.66-6.21 4.93-1.42 6.32-3.72 4.66-8.08-2.51-2.99-6.91-1.78-9.77 1.61 1.57-4.71 0.38-8.52-3.79-8.8-4.5-0.28-5.42 4.13-5.24 7.8l-3.25-5.04z" fill="#F0B141"/>
  <path d="m30.81 129.2c0.31 3.52 2.1 6.94 6.5 6.5 3.29-0.75 2.81-4.1 2.21-6.5 2.14 3.66 5.4 6.02 8.25 4.5 4.17-2.26 2.34-8.68-2.09-10.69l-6.39-2.46-6.85-3.5c-2.62 2.07-3.57 7.42-1.63 12.15z" fill="#F0B141"/>
  <path d="m54.31 139.1c0.53-3.76 4.73-4.13 8.45-1.96 0.46-4.42 1.05-6.04 4.77-6.04 4.17 0 4.76 3.87 4.07 6.89 2.36-2.95 5.41-3.9 7.77-2.58 2.99 1.75 2.99 5.74-0.1 6.72l-7.02 2.4-8.12 0.28c-4.02 0.78-10.52-0.87-9.82-5.71z" fill="#F0B141"/>
  <path d="m37.12 113.5c-3.56 0-5.7 2.71-5.7 5.21 0 2.92 2.14 4.93 5.1 4.69 3.19-0.27 5.16-2.67 5.16-4.86 0-2.75-1.7-5.04-4.56-5.04z" fill="#CC6250"/>
  <path d="m76.91 87.7c-3.09 0.95-3.84 3.11-3.25 5.67 0.47 2.06 4.16 3.94 6.35 2.25 1.26-0.95 1.4-3.57-0.1-6.76l-3-1.16z" fill="#F2725E"/>
  <path d="m66.12 144.4c0-2.71 1.35-3.71 2.95-3.81 2.04-0.14 3.36 0.92 3.75 2.92l-6.7 0.89z" fill="#F2725E"/>
  <path d="m119.8 185c3.36 0 4.8-6.96 6.05-11.74l9.69-37.2c-12.65 4.55-22.95 27.55-27.25 38.72-2.13 5.56 5.46 9.79 11.51 10.22z" fill="#D86250"/>
  <path d="m145 179.4 12.22-0.2 9.14-43.15-4.54-1.43c-2.75 1.32-4.74 2.88-10.9 2.69-5.8-0.19-6.92-1.51-9.75-2.69l-3.85 1.18 2.75 40.2 4.93 3.4z" fill="#D86250"/>
  <path d="m183.2 185c3.96 0 11.25-4.52 10.83-9.08-0.35-4.16-13.92-34.66-27.81-40.54l-3.92-0.82c-6.16 0-8.95 18.12-8.49 28.95 0.69 12.77 3.72 19.1 12.52 19.55 6.12 0.35 10.36 0.7 11.62-4.08 0.81 2.26 2.16 5.94 5.25 6.02z" fill="#F2725E"/>
  <path d="m139.8 134.3c-7.69 0-13.58 16.74-14.87 36.08-0.69 8.6 0.22 12.45 6.09 12.45h4.16c9.45 0 12.54-8.26 12.15-21.78-0.36-11.62-3.33-26.75-7.53-26.75z" fill="#F57F6E"/>
  <path d="m162.2 134.3c-5.59 0-8.45 15.84-8.45 26.78 0 11.51 1.73 21.38 13.79 21.8 7.12 0.35 9.35-0.6 9.65-8 0.1-11.44-5-40.58-14.99-40.58z" fill="#F57F6E"/>
  <path d="m46.51 20.91c-15.53 4.92-14.14 22-14.14 22 4.46-11.3 16.06-17.2 25.25-17.2 13.1 0 24.45 9.32 26.3 17.2 0-7.29-5.36-25.2-25.81-21.8-3.19 0-7.25-1.45-11.6-0.2z" fill="#F2725E"/>
  <path d="m82.86 46.37c-9.1-2.46-13.73-11.36-15.7-17.26-9.05 12.64-20.95 18-34.93 18.52 0-9.98 10.78-22.57 25.18-22.57 15.6 0 25.65 9 25.45 21.31z" fill="#2AAAB0"/>
  <path d="m82.88 47.28c0 11.68-9.49 23.36-22.86 23.36-13.61 0-27.29-8.93-27.29-22.63 12.48-0.38 25.98-5.57 34.48-18.9 1.97 5.9 6.56 14.8 15.67 18.17z" fill="#F3C9AF"/>
  <path d="m46.78 48.53c-1.94 0-1.97 4.28-0.1 4.28h0.4c2.53 0 2.4-4.28-0.3-4.28z" fill="#29545B"/>
  <path d="m70.01 48.53c-2.64 0-2.78 4.28-0.26 4.28h0.34c2.42 0 2.52-4.28-0.08-4.28z" fill="#29545B"/>
  <path d="m43.72 54.61c-4.3 0.46-4.2 7.52 0.5 7.52h0.49c4.3 0 3.55-7.95-0.99-7.52z" fill="#F58772"/>
  <path d="m73.07 54.61c-4.3 0.28-4.59 7.1-0.19 7.38h0.44c4.4-0.28 4.6-7.67-0.25-7.38z" fill="#F58772"/>
  <path d="m55.83 56.36c0.99-1.42 2.98-1.51 4.03-0.35" stroke="#CC785E" stroke-linecap="round" stroke-linejoin="round" stroke-miterlimit="10" stroke-width=".5"/>
  <path d="m52.22 60.82c2.8 2.92 9.41 3.04 11.77 0" stroke="#D86250" stroke-linecap="round" stroke-linejoin="round" stroke-miterlimit="10" stroke-width=".82"/>
  <path d="m49.29 69.41c0.36 3.97 3.42 7.51 8.32 7.51 5.06 0 8.41-3.7 9.33-8.02-3.36 1.32-12.8 1.74-17.65 0.51z" fill="#F3C9AF"/>
</svg>