<svg xmlns="http://www.w3.org/2000/svg" width="200" height="200" fill="none" viewBox="0 0 200 200">
<!-- SVG created with Arrow, by QuiverAI (https://quiver.ai) -->
  <path d="m63.26 172.2-10.54-13.82c-1.64-2.32-6.62-1.7-6.91 0.3-2.04 12.82-1.9 30 0.88 35.37l10.68-0.29 21.53-13.78 0.38-19.1-16.02 11.32z" fill="#172E35" opacity=".35"/>
  <path d="m57.92 173.8-6.96-16.53c-1.25-2.78-4.99-1.12-4.93 1.17v28.17l11.42 1.08 0.47-13.89z" fill="#B44C3B" stroke="#9C614E" stroke-miterlimit="10" stroke-width=".5"/>
  <path d="m41.17 170.3-23.86 3.49 1.9 22.36 37.73-9.23v-13.73l-15.77-2.89z" fill="#B44C3B" stroke="#9C614E" stroke-miterlimit="10" stroke-width=".5"/>
  <path d="m174.2 171.5c-0.14 3.41-0.18 7.28-2.13 9.42-3.12 3.47-9.29 9-13.89 9.99s-26.39-0.67-36.59-2.62c-3.26-0.62-4.33-1.47-4.68-5.55l-0.17-5.16 9.23-1.57 48.23-4.51z" fill="#0A8F92" stroke="#256A68" stroke-miterlimit="10" stroke-width=".5"/>
  <path d="m173.8 111.6c2.25 6.25 4.07 25.18 4.69 28.56 0.62 3.37 0 17.44-2.25 22.92s-11.78 16.34-19.73 20.63c-3.78 2.12-35.05-1.53-39.74-4.5-2.13-1.29-2.56-2.14-2.56-6.37l1.57-55.13 5.33 0.41 33.67 0.75c7.54-0.43 17.2-5.26 19.02-7.27z" fill="#17A1A4" stroke="#1D7F85" stroke-miterlimit="10" stroke-width=".5"/>
  <path d="m48.79 107.7c-4.25 17.89-4.87 39.08-2.96 51.59l12.31 13.42c0-6.76 1.79-12.86-0.93-19.92 0-11.58-1.01-21.34 0.78-43.27l-9.2-1.82z" fill="#41BEBA" stroke="#256A68" stroke-miterlimit="10" stroke-width=".5"/>
  <path d="m114.6 132.9-36.43-4.6c-2.08-0.19-2.39 0.66-2.92 1.8-3.42 7.1-9.24 13.78-18.38 18.23v4.68c0 2.07 1.19 3.02 3.64 3.72 10.58 2.98 31.77 7.42 54.27 7.88l0.28-8.45-0.46-23.26z" fill="#EB6E5F" stroke="#B7463F" stroke-miterlimit="10" stroke-width=".5"/>
  <path d="m114.7 134.9-34.76-2.78c-1.15-0.12-2.15 1.26-2.8 3.2-1.07 3.25-4.73 7.85-11.59 11.27-0.81 0.66 0.09 1.32 1.28 1.55l23.35 3.8 24.47 2.12 0.05-19.16z" fill="#BC4837" stroke="#B7463F" stroke-miterlimit="10" stroke-width=".5"/>
  <path d="m114.9 133.8-15.76-0.38c-1.53-0.11-1.91 1.28-2.76 3.49-1.19 3.25-4.31 9.22-6.58 12.35-0.92 1.46 0.14 1.91 1.67 1.91l23.22 0.41 0.21-17.78z" fill="#D55243" stroke="#B7463F" stroke-miterlimit="10" stroke-width=".5"/>
  <path d="m160.6 130.2c0.6-4.64 4.66-9.03 7.49-8.71 2.83 0.33 4.7 12.1 5.16 13.47 0.47 1.37 5.49 1.37 5.02 4.2-0.74 4.52-8.05 8.8-9.35 8.8s-5.79-1.3-6.86-2.87c-0.81-1.21-1.88-11.57-1.46-14.89z" fill="#0A8F92" stroke="#256A68" stroke-miterlimit="10" stroke-width=".5"/>
  <path d="m162.1 146.8c0.99 0.58 4.28 0.89 6 0 1.07 2.83 0.82 15.34-3.02 22.84-1.29 1.49-3.31 0.67-3.49-0.18s0.31-18.41 0.51-22.66z" fill="#65C6C1" stroke="#256A68" stroke-miterlimit="10" stroke-width=".5"/>
  <path d="m177.7 138c-0.25-1.45-1.37-1.8-2.58-2.15 1.14 1.01-0.05 2.98-1.35 4.28-2.89 3.13-4.95 5.88-8.17 6.63 2.13 0.16 2.38 0.65 2.52 1.37 0.51 2.72 0.52 12.52-2.9 21.1 3.92-1.63 10.89-8.73 12.28-10.86 1.39-2.12 0.97-17.23 0.2-20.37z" fill="#41BEBA" stroke="#256A68" stroke-miterlimit="10" stroke-width=".5"/>
  <path d="m47.06 158.1-33.41 4.3 0.56 3.77 33.74-5.1c1.96-0.24 1.32-3.35-0.89-2.97z" fill="#F1BA5E" stroke="#B78135" stroke-miterlimit="10" stroke-width=".5"/>
  <path d="m15.89 174.1-4.57-12.02c-0.99-2.02-4.05-1.65-4.81 0.3l-3.86 10.78c-0.31 0.78-0.46 1.62-0.44 2.46v11.46c0 1.7 0.43 2.36 1.73 2.82l14.28 6.21v-16.78c0-1.95-1.3-3.25-2.33-5.23z" fill="#EB6E5F" stroke="#B7463F" stroke-miterlimit="10" stroke-width=".5"/>
  <path d="m119.7 122.7c-1.75-0.27-1.93 3.2-2.07 6.03-0.7 14.24 0.14 38.03 1.57 44.72 0.24 1.3 17.81 4.2 28.81 4.2 2.68 0 2.53-1.46 3.15-5.65 1.53-10.51 1.03-34.75-0.93-44.68-0.46-2.25-0.88-2.53-2.55-2.53-1.95-0.02-21.09-1.14-27.98-2.09z" fill="#F3B548" stroke="#D5A33E" stroke-miterlimit="10" stroke-width=".5"/>
  <path d="m122.1 130.4c-2.01-0.31-2.43 16.46-2.24 23.65 0.13 4.91 0.74 11.46 1.24 13.79 0.29 1.26 4 0.63 4-0.45 0-1.09-2.2-10.67-1.54-19.12 0.42-5.16 2.24-16.68 2.24-16.68 0-0.85-1.26-0.85-3.7-1.19z" fill="#F1CC86" stroke="#D5A33E" stroke-miterlimit="10" stroke-width=".5"/>
  <path d="m104.9 182.1-1.85-0.95c-0.29-0.7-0.41-1.2-0.66-2.12l1.03-2.23-2.23-1.44-1.77 1.29c-0.92-0.24-1.43-0.36-2.28-0.65l-1.57-2.12-2.05 0.18-0.66 2.44c-0.66 0.36-1.34 0.58-2.19 0.95l-1.95-0.53-1.07 2.44 1.34 1.44c-0.14 0.95-0.18 1.3-0.27 2.29l-1.7 1.77 0.85 3.12 2.12 0.46 1.43-0.99 1.91 1.44 1.14 3.23 2.15-0.02 1.14-2.59 1.53-0.95 2.24 1.29 2.07-1.87-0.85-2.93 1.24-1.44 0.91-1.51zm-8.9 5.01c-2.38 0-3.49-1.74-3.49-3.57 0-2.19 1.91-3.57 3.73-3.57 2.23 0 3.53 1.73 3.53 3.33 0 2.23-1.83 3.81-3.77 3.81z" fill="#4BC1BA" stroke="#256A68" stroke-miterlimit="10" stroke-width=".5"/>
  <path d="m85.78 175.5-2.69-2.35-4.14 0.67-2.18 4.53 2.34 4.14 5.3-0.27 2.12-4.37-0.75-2.35zm-4.02 4.86c-1.69 0-2.51-1.38-2.51-2.66 0-1.55 1.36-2.53 2.66-2.53 1.6 0 2.55 1.3 2.55 2.49 0 1.63-1.33 2.7-2.7 2.7z" fill="#F3B548" stroke="#B78135" stroke-miterlimit="10" stroke-width=".5"/>
  <path d="m194.2 153.2-4.62-0.07-2.84 5.08 2.35 4.14 5.62 0.37 2.18-4.53-2.69-4.99zm-2.52 7.35c-1.94 0-2.89-1.57-2.89-3.03 0-1.82 1.57-2.95 3.03-2.95 1.82 0 2.89 1.57 2.89 2.9 0 1.82-1.57 3.08-3.03 3.08z" fill="#EB6E5F" stroke="#256A68" stroke-miterlimit="10" stroke-width=".5"/>
  <path d="m193.7 170.5-4.91-1.57-3.91 4.05 1.96 4.68 6.41 0.14 1.82-4.1-1.37-3.2zm-3.44 5.29c-1.92 0-2.81-1.57-2.81-2.99 0-1.77 1.52-2.8 2.91-2.8 1.77 0 2.84 1.5 2.84 2.75 0 1.82-1.53 3.04-2.94 3.04z" fill="#41BEBA" stroke="#256A68" stroke-miterlimit="10" stroke-width=".5"/>
  <path d="m76.58 180.8-4.86-0.03-2.78 5.13 3.37 3.54 4.05-0.62 1.93-4.34-1.71-3.68zm-3.18 6.78c-1.72 0-2.59-1.5-2.59-2.82 0-1.69 1.5-2.71 2.82-2.71 1.69 0 2.68 1.5 2.68 2.65 0 1.73-1.5 2.88-2.91 2.88z" fill="#EB6E5F" stroke="#B7463F" stroke-miterlimit="10" stroke-width=".5"/>
  <path d="m109 146.7-1.62 0.85c-0.8 0.46-1.05 1-1.12 1.69l-9.8 0.21c-0.86 0-0.98 1.75 0 1.75l11.41 0.41c1.3 0.09 3.01-1.21 3.01-2.16 0-0.66-0.47-1.28-1.67-1.28 0.19-0.56 0.9-0.99 1.32-1.16 0.25-0.41-0.8-0.71-1.53-0.31z" fill="#17A1A4" stroke="#256A68" stroke-miterlimit="10" stroke-width=".5"/>
  <path d="m81.18 138.8c-2.94-0.56-5.16 1.67-5.52 4.64l-0.47 4.01-0.66 0.54 0.37 0.55 0.29-0.16-0.07 0.74h3.56c0.43-0.66 0.28-3.03 0.06-3.71 1.03-0.66 1.4-1.2 1.82-1.97 0.35-0.99 0.3-3.35 0.62-4.64z" fill="#41BEBA" stroke="#256A68" stroke-miterlimit="10" stroke-width=".5"/>
  <path d="m82.45 142.9-0.37 2.45 8.66-0.66 0.67-2.4-8.96 0.61z" fill="#41BEBA" stroke="#256A68" stroke-miterlimit="10" stroke-width=".5"/>
  <path d="m173.1 94.68c-2.61-1.27-11.16-1.27-14.95-1.38l-23.15-1.14-71.95-4.6c-2.94-0.18-7.9 0.62-9.96 2.02l-14.84 5.16v9.69c0 2.2 0.72 2.71 3.4 3.37 15.17 3.37 48.27 8.09 67.62 9.28 12.54 0.78 27.87 1.85 39.57 2.07 9.97 0.2 21.85-6.86 27.28-11.35v-9.39c-0.15-1.9-1-2.93-3.02-3.73z" fill="#EB6E5F" stroke="#B7463F" stroke-miterlimit="10" stroke-width=".5"/>
  <path d="m56.99 98.41 16.3-7.36 8.75-1.4 45.85 5.29c1.33 0.18 1.58 1.48 0.55 2.28l-12.9 7.92-0.14 11.08c-15.27 0-45.16-4.94-57.48-7.29l-0.29-8.8c-0.06-0.74 0-1.3-0.64-1.72z" fill="#F1BA5E" stroke="#B78135" stroke-miterlimit="10" stroke-width=".5"/>
  <path d="m59.52 101.4v6.68c0 1.09 0.64 1.55 1.66 1.73 8.97 1.57 30.09 4.82 49.14 4.82 1.3 0 2.39-0.02 2.39-1.48v-5.89l-0.47-0.66-50.93-5.58c-1.15-0.19-1.79-0.32-1.79 0.38z" fill="#F1BA5E" stroke="#B78135" stroke-miterlimit="10" stroke-width=".5"/>
  <path d="m125.4 102.8c1.39-1.7 7.75-2.79 11.41-2.79 4.91 0 15.99 0.95 21.05 1.31 2.69 0.19 5.31 0.57 5.34 0.67-2.07 1.7-4.14 2.11-5.97 2.43l-9.87-0.46-4.61-3.96-2 0.21 4.09 3.61-18.09-0.24c-1.12 0-1.78-0.28-1.35-0.78z" fill="#D55243" stroke="#B7463F" stroke-miterlimit="10" stroke-width=".5"/>
  <path d="m63.71 19.07c0-3.93 1.76-4.71 6.31-4.71l85.03-0.37c5.66 0 7.53 1.96 7.53 7.2l0.37 8.38-2.54 2.57 1.37 27.95-1.75 35.32c-1.72 0.85-12.76 0.64-17.12 0l-3.56-0.8-0.29-81.4c-0.13-3.46-2.25-5.1-6.65-6.5-12.95-4.16-36.12-4.33-51.38-1.2-6.82 1.57-9.32 2.89-9.82 4.62-0.4 1.36-0.5 3.08-0.68 4.25l-6.68 1.03-0.14 3.66z" fill="#17A1A4" stroke="#256A68" stroke-miterlimit="10" stroke-width=".5"/>
  <path d="m74.09 11.21c0.52-2.05 10.97-5.84 29.13-6.5 9.9-0.35 24.39 2.58 31.39 5.41 2.25 0.95 2.62 2.24 2.7 4.12l0.3 9.27-2.33 1.11-63.11-1.11 0.14-8.45c0.07-1.39 0.43-2.42 0.61-2.98 0.14-0.42 0.72-0.59 1.17-0.87z" fill="#41BEBA" stroke="#1D7F85" stroke-miterlimit="10" stroke-width=".5"/>
  <path d="m75.39 14.36c0.2-2.28 2.02-3.55 4.38-4.1 5.44-1.38 14.44-2.75 23.04-2.66 7.96 0.08 19.12 1.91 25.34 4.14 1.96 0.73 2.58 1.47 2.51 3.32l-0.25 4.05c-0.08 1.64-1.14 2.17-2.74 2.17h-49.86c-1.62 0-2.52-1.05-2.49-2.57l0.07-4.35z" fill="#0A9093" stroke="#256A68" stroke-miterlimit="10" stroke-width=".5"/>
  <path d="m98.06 9.51h7.17c1.26 0 1.63 0.75 1.63 1.98v5.11c0 1.57-0.85 2.33-2.35 2.33l-5.42 0.07c-1.73 0-2.39-0.77-2.39-2.19v-5.57c0-1.18 0.5-1.73 1.36-1.73z" fill="#F3725F" stroke="#B78135" stroke-miterlimit="10" stroke-width=".5"/>
  <path d="m57.81 26.25c0.35-1.89 1.18-2.53 2.6-2.53h102.6c2.75 0 3.65 1.82 3.65 3.52v1.88c0 1.96-0.58 2.79-2.8 2.79l-105.9 0.21c-1.69 0-1.42-2.71-0.22-5.87z" fill="#D55243" stroke="#B7463F" stroke-miterlimit="10" stroke-width=".5"/>
  <path d="m58.78 23.9h96.36c3.29 0 3.41 2.72 3.29 4.42-0.17 2.29-0.59 3.69-1.67 3.69l-98.55-0.38c-2 0-1.72-4.51-0.7-6.41 0.35-0.66 0.52-1.11 1.27-1.32z" fill="#F3725F" stroke="#B7463F" stroke-miterlimit="10" stroke-width=".5"/>
  <path d="m83.18 32.01 49.54 0.3-0.9 61-48.78-2.78 0.14-58.52z" fill="#F3B548" stroke="#B78135" stroke-miterlimit="10" stroke-width=".5"/>
  <path d="m63.77 37.99v50.5c0 1.72 4.05 2.32 8.29 2.13 3.65-0.16 7.71-1.01 7.71-2.71l0.42-55.91h-12.17c-2.61 0.01-4.25 2.58-4.25 5.99z" fill="#41BEBA" stroke="#1D7F85" stroke-miterlimit="10" stroke-width=".5"/>
  <path d="m65.73 38.65v7.97l10.43 0.47v-10.17c-0.14-1.79-1.54-2.71-4.15-2.71h-1.72c-2.94 0-4.56 1.7-4.56 4.44z" fill="#0A9093" stroke="#256A68" stroke-miterlimit="10" stroke-width=".5"/>
  <path d="m64.69 41.31 9.93-0.51v1.16l0.42 0.05v4.1h-3.04v1.19h-3.29v-2.29l-5-0.29 0.98-3.41z" fill="#F3B548" stroke="#B78135" stroke-miterlimit="10" stroke-width=".5"/>
  <path d="m61.31 47.09 1.26-0.66 4.54 0.89h6.82l3.26-0.3v2.9c0 1.82-1.43 2.63-3.91 2.63h-8.21c-2.23 0-3.69-0.74-3.76-2.14v-3.32z" fill="#0A8F92" stroke="#256A68" stroke-miterlimit="10" stroke-width=".5"/>
  <path d="m65.26 59.74v12.52l10.43 0.46v-14.7c-0.14-1.79-1.96-2.71-4.19-2.71h-1.26c-2.94 0-4.98 2.06-4.98 4.43z" fill="#D55243" stroke="#B7463F" stroke-miterlimit="10" stroke-width=".5"/>
  <path d="m64.28 62.43 1.76-0.73 1.29 0.31c1.83-1.57 4.6-1.5 6.23-1.08 2.61 0.73 3.36 3.02 3.36 5.08l-2.5-0.95-1.19 0.95-0.42 6.75-3.1-0.25-0.19-6.75-1.37 0.18-2.44-0.07-1.43-0.76v-2.68z" fill="#EB6E5F" stroke="#256A68" stroke-miterlimit="10" stroke-width=".5"/>
  <path d="m60.82 71.91 1.37-0.66 4.92 0.89 11.13 0.05v6.03c0 2.66-1.19 3.61-4.32 3.61h-6.62c-3.12 0-5.57-1.22-6.04-3.02l-0.44-6.9z" fill="#0A8F92" stroke="#256A68" stroke-miterlimit="10" stroke-width=".5"/>
  <path d="m81.71 80 0.66-0.82 48.69 2.44v1.57l-2.75 1.95-46-2.43-0.6-2.71z" fill="#17A1A4" stroke="#256A68" stroke-miterlimit="10" stroke-width=".5"/>
  <path d="m95.71 83.71 1.11-0.07 0.92 0.19 0.19 7.5-1.3 0.42-0.92-2.29v-5.75z" fill="#D55243" stroke="#B7463F" stroke-miterlimit="10" stroke-width=".5"/>
  <path d="m101.3 84.13 2.39 0.37-0.46 6.5-1.53 0.66-0.4-2.19v-5.34z" fill="#D55243" stroke="#B7463F" stroke-miterlimit="10" stroke-width=".5"/>
  <path d="m111.1 84.13 2.45 0.19 1.2 6.82-2-0.14-1.65-6.87z" fill="#17A1A4" stroke="#256A68" stroke-miterlimit="10" stroke-width=".5"/>
  <path d="m123.4 85.42 1.33 0.14-0.1 7.74-1.3 0.42 0.07-8.3z" fill="#41BEBA" stroke="#256A68" stroke-miterlimit="10" stroke-width=".5"/>
  <path d="m90.93 34.34 1.31-0.01 0.19 5.58c-0.07 0.89-1.36 2.33-3 1.59-1.82-0.84-1.82-2.57-1.57-3.79l0.75-0.19 0.17 1.82c0.07 0.59 1.44 0.84 1.73 0.33l0.42-5.33z" fill="#17A1A4" stroke="#256A68" stroke-miterlimit="10" stroke-width=".5"/>
  <path d="m101.4 34.7 1.47-0.08-0.18 5.29c0 1.16-1.03 2.15-2.49 1.78-2.12-0.6-2.12-1.78-2.12-3.04l0.87-0.22 0.32 1.19c0.24 0.59 1.54 0.41 1.73-0.25l0.4-4.67z" fill="#17A1A4" stroke="#256A68" stroke-miterlimit="10" stroke-width=".5"/>
  <path d="m112 34.7 1.57-0.19-0.08 4.8c-0.07 1.46-0.81 2.31-2.76 2.31-1.96 0-2.55-1.5-2.41-2.97l0.95-0.14c0 0.95 0.3 1.49 1.32 1.49 0.73 0 1.23-0.47 1.28-1.28l0.13-4.02z" fill="#17A1A4" stroke="#256A68" stroke-miterlimit="10" stroke-width=".5"/>
  <path d="m123 34.7h1.39v4.21c1.02 0.79 1.9 1.45 1.81 3.37-0.1 1.7-1.31 2.65-2.11 3.43v11.2c1.22 0.46 2.95 1.9 2.52 4.35-0.37 1.95-1.49 2.94-2.24 3.44l-0.53-3.29c-0.19-0.95-2.8-1.8-3.39 0l-0.36 3c-1.62-0.56-2.39-2.29-2.39-4.24 0-1.57 1.09-2.94 2.11-3.96l0.08-10.85c-1.3-0.85-2.1-1.65-2.1-3.6s1.07-3.11 1.73-3.84l0.29 2.88 2.94 0.12 0.25-6.22z" fill="#17A1A4" stroke="#256A68" stroke-miterlimit="10" stroke-width=".5"/>
  <path d="m137.9 35.91 9.54-0.29c2.44 0 7.14 0.49 7.6 1.08 0.56 0.66 0.59 19.38 0 20.33-0.66 1.13-14.62 0.63-16.86-0.21-1.57-0.59-1.5-19.11-0.28-20.91z" fill="#E59A38" stroke="#0A8F92" stroke-miterlimit="10" stroke-width=".5"/>
  <path d="m137.9 64.27 9.54-0.14c2.44 0 7.14 0.49 7.6 1.08 0.56 0.66 0.59 18.92 0 19.8-0.75 1.19-13.58 0.34-16.36-0.5-2-0.66-2-18.5-0.78-20.24z" fill="#E59A38" stroke="#0A8F92" stroke-miterlimit="10" stroke-width=".5"/>
  <path d="m85.21 38.28h1.3" stroke="#CE9036" stroke-miterlimit="10" stroke-width=".75"/>
  <path d="m92.11 38.28h1.3" stroke="#CE9036" stroke-miterlimit="10" stroke-width=".75"/>
  <path d="m98.65 38.51h1.3" stroke="#CE9036" stroke-miterlimit="10" stroke-width=".75"/>
  <path d="m106.2 38.51h1.3" stroke="#CE9036" stroke-miterlimit="10" stroke-width=".75"/>
  <path d="m113.2 38.65h1.3" stroke="#CE9036" stroke-miterlimit="10" stroke-width=".75"/>
  <path d="m85.21 44.79h1.3" stroke="#CE9036" stroke-miterlimit="10" stroke-width=".75"/>
  <path d="m92.11 44.79h1.3" stroke="#CE9036" stroke-miterlimit="10" stroke-width=".75"/>
  <path d="m97.75 45.01h1.29" stroke="#CE9036" stroke-miterlimit="10" stroke-width=".75"/>
  <path d="m101.7 45.01h1.29" stroke="#CE9036" stroke-miterlimit="10" stroke-width=".75"/>
  <path d="m106.2 45.01h1.3" stroke="#CE9036" stroke-miterlimit="10" stroke-width=".75"/>
  <path d="m111.6 45.01h1.3" stroke="#CE9036" stroke-miterlimit="10" stroke-width=".75"/>
  <path d="m85.21 51h1.3" stroke="#CE9036" stroke-miterlimit="10" stroke-width=".75"/>
  <path d="m92.11 51h1.3" stroke="#CE9036" stroke-miterlimit="10" stroke-width=".75"/>
  <path d="m97.75 51h1.29" stroke="#CE9036" stroke-miterlimit="10" stroke-width=".75"/>
  <path d="m101.7 51h1.29" stroke="#CE9036" stroke-miterlimit="10" stroke-width=".75"/>
  <path d="m106.2 51h1.3" stroke="#CE9036" stroke-miterlimit="10" stroke-width=".75"/>
  <path d="m111.6 51h1.3" stroke="#CE9036" stroke-miterlimit="10" stroke-width=".75"/>
  <path d="m85.21 57.51h1.3" stroke="#CE9036" stroke-miterlimit="10" stroke-width=".75"/>
  <path d="m91.73 57.51h1.3" stroke="#CE9036" stroke-miterlimit="10" stroke-width=".75"/>
  <path d="m97.22 57.51h1.3" stroke="#CE9036" stroke-miterlimit="10" stroke-width=".75"/>
  <path d="m101.7 57.51h1.29" stroke="#CE9036" stroke-miterlimit="10" stroke-width=".75"/>
  <path d="m107.2 57.51h1.3" stroke="#CE9036" stroke-miterlimit="10" stroke-width=".75"/>
  <path d="m112.7 57.51h1.3" stroke="#CE9036" stroke-miterlimit="10" stroke-width=".75"/>
  <path d="m85.21 63.55h1.3" stroke="#CE9036" stroke-miterlimit="10" stroke-width=".75"/>
  <path d="m91.27 63.55h1.3" stroke="#CE9036" stroke-miterlimit="10" stroke-width=".75"/>
  <path d="m96.29 63.55h1.29" stroke="#CE9036" stroke-miterlimit="10" stroke-width=".75"/>
  <path d="m101.7 63.55h1.29" stroke="#CE9036" stroke-miterlimit="10" stroke-width=".75"/>
  <path d="m107.2 63.55h1.3" stroke="#CE9036" stroke-miterlimit="10" stroke-width=".75"/>
  <path d="m113.1 63.55h1.3" stroke="#CE9036" stroke-miterlimit="10" stroke-width=".75"/>
  <path d="m120.3 63.12h1.29" stroke="#CE9036" stroke-miterlimit="10" stroke-width=".75"/>
  <path d="m125.8 63.12h1.3" stroke="#CE9036" stroke-miterlimit="10" stroke-width=".75"/>
  <path d="m128.2 56.01h1.3" stroke="#CE9036" stroke-miterlimit="10" stroke-width=".75"/>
  <path d="m127.9 49.85h1.3" stroke="#CE9036" stroke-miterlimit="10" stroke-width=".75"/>
  <path d="m127.7 43.1h1.3" stroke="#CE9036" stroke-miterlimit="10" stroke-width=".75"/>
  <path d="m127.5 37.14h1.3" stroke="#CE9036" stroke-miterlimit="10" stroke-width=".75"/>
  <path d="m85.21 69.74h1.3" stroke="#CE9036" stroke-miterlimit="10" stroke-width=".75"/>
  <path d="m91.27 69.74h1.3" stroke="#CE9036" stroke-miterlimit="10" stroke-width=".75"/>
  <path d="m96.89 69.74h1.3" stroke="#CE9036" stroke-miterlimit="10" stroke-width=".75"/>
  <path d="m102.4 69.74h1.3" stroke="#CE9036" stroke-miterlimit="10" stroke-width=".75"/>
  <path d="m108.4 69.74h1.3" stroke="#CE9036" stroke-miterlimit="10" stroke-width=".75"/>
  <path d="m113.9 69.74h1.3" stroke="#CE9036" stroke-miterlimit="10" stroke-width=".75"/>
  <path d="m97.41 69.74 1.44-0.28 1.72 3.19 0.56 4.37-1.02 2.44-2.94-0.35-0.76-2.72 1-6.65z" fill="#41BEBA" stroke="#256A68" stroke-miterlimit="10" stroke-width=".5"/>
  <path d="m110 69.32c-1.2 0-1.72 3.42-1.79 5.86-0.1 2.45 0.39 3.88 0.32 5.84l3.07 0.14c-0.47-3.01 2.12-6.13 2.12-9.06v-2.64l-1.57-0.28c-0.66 2.65-0.55 6.6-1.67 8.45-0.76-0.85 0.02-4.77-0.48-8.31z" fill="#EB6E5F" stroke="#B7463F" stroke-miterlimit="10" stroke-width=".5"/>
  <path d="m122.8 70.17h1.46c1.23 0 1.89 0.95 1.89 2.64 0 3.46-1.02 5.62-0.73 9.61h-3.6c-0.66-1.33-0.8-3.45-0.44-5.68 0.32-1.82-0.53-5.07 0.22-6.23l1.2-0.34z" fill="#F3725F" stroke="#B7463F" stroke-miterlimit="10" stroke-width=".5"/>
  <path d="m74.14 94.79c1.19-1.4 4.03-2.12 5.7-1.07l9.83-1.01c1.46-1.66 3.96-1.5 5.16-1.1 1.19 0.4 2.56 0.55 2.63 1.21l-0.76 2.79c-1.19 1.1-2.95 1.46-5.94 0.65l-9.58 1.3c-1.95 1.37-4.7 1.37-6.07 0.42l-1.47-1.87 0.5-1.32zm22.27-1.21c-0.56-0.66-3.25-1.22-5.28 0.41 1.3 0.8 3.91 1.09 5.28-0.41z" fill="#17A1A4" stroke="#256A68" stroke-miterlimit="10" stroke-width=".5"/>
  <path d="m100.1 94.31 6.65 2.5c0.76-0.66 1.61-0.8 2.8-0.41l4.21 1.51c1.72 0.59 2.09 2.03 1.43 3.4-0.66 1.5-2.03 1.43-3.34 0.7l-4.54-2.32c-0.88-0.45-1.19-1.2-1.36-1.86l-5.85-2.22v-1.3z" fill="#EB6E5F" stroke="#B7463F" stroke-miterlimit="10" stroke-width=".5"/>
  <path d="m33.98 16.88v31.84c0 0.89 0.95 1.08 2.06 1.08h5.85c0.95 0 1.24-0.85 1.24-1.69l-0.85-2.06 2.54-2.29-1.19-2.65 2.18-2.11-1.42-2.08 1.42-1.86-1.89-1.98 2.03-1.82-1.56-2.23 2.68-2.06-1.56-2.35 3.21-3.01-1.65-2.05 2.15-2.51-1.2-1.04 1.13-2.34-12.21-0.46-2.96 3.67z" fill="#41BEBA" stroke="#256A68" stroke-miterlimit="10" stroke-width=".5"/>
  <path d="m2.91 4.06h3.86l1.3-1.05h1.93l0.66 0.56h5.48c5.07 0 7.79 3.6 9.09 6.5 0.56 1.34 0.16 2.36-1.47 1.51l-3.36-2.45c-1.5-0.92-2.49 0.1-3.68 0.99h-6.71l-1.75 1.02-2.15 0.45h-3.2v-7.53z" fill="#41BEBA" stroke="#256A68" stroke-miterlimit="10" stroke-width=".5"/>
  <path d="m9.41 11.49h6.02v14.34l-5.62 0.08-0.4-14.42z" fill="#F3B548" stroke="#B78135" stroke-miterlimit="10" stroke-width=".5"/>
  <path d="m9.25 27.66-0.14 17.32c-0.46 2.23-0.46 3.83 1.99 3.83h3.39c2.23 0 2.23-1.6 1.94-3.83l-0.75-18.44c-0.14-1.03-0.99-1.49-1.97-1.35l-2.45-0.18c-1.63 0-2.05 1.16-2.01 2.65z" fill="#EB6E5F" stroke="#B7463F" stroke-miterlimit="10" stroke-width=".5"/>
  <path d="m32.21 5.57c1.16-0.46 2.01 0.49 2.9 0.49 2.5 0 4.79-0.95 7.3-0.88 2.3 0.07 3.94-0.97 4.69-2h0.9c1.15-0.56 2.21 0.17 2.21 1.74v6.22c0.17 2.58-3.2 6.27-5.15 7.12h-12.45l-0.4-2.11v-10.58zm3.5 4.94v3.85h8.37c1.82 0 3.39-2.75 2.97-5.04-0.36-1.69-2.41-1.29-4.64-0.55-1.76 0.66-5.13-0.54-6.7 1.74z" fill="#EB6E5F" stroke="#B7463F" stroke-miterlimit="10" stroke-width=".5"/>
  <path d="m171.1 56.23h7.14l1.19 0.37v2.81h-2.54l-0.38 1.03h-4.39l-1.07-1.03-0.95-0.36v-2.45l1-0.37z" fill="#17A1A4" stroke="#256A68" stroke-miterlimit="10" stroke-width=".5"/>
  <path d="m172.1 59.41h3.55v11.77c0 0.89-2.82 0.89-2.82-0.25l3.29-2.12-3.6 0.7 3.22-2.29-3.5 0.69 3.41-2.3-3.26 0.95 3.12-2.22-3.12 1.02 3.05-2.24-3.05 0.77 2.95-2.23-2.95 0.95v-3.2h-0.29z" fill="#17A1A4" stroke="#256A68" stroke-miterlimit="10" stroke-width=".5"/>
  <path d="m187.3 19h8.36l0.58 0.66v2.48h-173.6v0.89h166.6-166l164-0.89v-2.48l0.11-0.66z" fill="#F3B548" stroke="#B78135" stroke-miterlimit="10" stroke-width=".5"/>
  <path d="m189.2 22.6 4.79-0.14v12.09c0 0.75-3.88 0.94-3.88-0.21l3.6-1.72-4.05 1.09 3.79-2.05-3.79 0.95 4.05-2.29-4.34 1.57 3.96-2.72-3.96 1.46 3.89-2.57-3.89 0.95 3.28-2.8-4.16 1.63 4.79-2.65-4.54 1.57 3.97-2.45-3.97 1.35 0.46-3.06z" fill="#F3B548" stroke="#B78135" stroke-miterlimit="10" stroke-width=".5"/>
  <path d="m171.1 5.21 0.53-2.73c0.42-1.47 2.63 0.74 4.86-0.07 2.23-0.75 1.9 1.87 1.9 4.52v9.27c-0.07 1.16-0.93 2.22 0.1 6.55l-5.59 0.7c1.02-5.2-1.45-8.54-1.8-10.88v-7.36z" fill="#EB6E5F" stroke="#B7463F" stroke-miterlimit="10" stroke-width=".5"/>
  <path d="m173.8 23.46h1.82v13.63l-1.03 5.42 0.59 2.44h0.85l0.66-2.44-0.59-5.42v-13.63h-2.3z" fill="#41BEBA" stroke="#256A68" stroke-miterlimit="10" stroke-width=".5"/>
  <path d="m186.3 49.39c-1.19 1.22-2.56 3.67-2.1 6.77 0.29 1.57 2.18 3.39 3.37 4.27l-0.82 18" fill="#F3B548" stroke="#B78135" stroke-miterlimit="10" stroke-width=".5"/>
  <path d="m188.1 61.62 0.59-0.56 1.75-0.06 0.26 17.08c-0.64 1.06-2.82 1-3.18-0.84l0.58-15.62z" fill="#EB6E5F" stroke="#B7463F" stroke-miterlimit="10" stroke-width=".5"/>
  <path d="m189.1 110.3 6.65-5.55c1.39 2.45 0.45 5.82-0.14 6.94l-3.25 5.69-0.13 23.26c0 2.68-2.12 4.73-3.24 4.07-2.61-1.12-3.27-2.32-3.11-6.07l0.96-22.56c-2.51-2.45-5.63-6.03-1.39-10.89 1.37-1.54 3.23-2.2 4.25-1.54l-1.82 5.98 0.5 0.78 0.72-0.11z" fill="#E59A38" stroke="#B78135" stroke-miterlimit="10" stroke-width=".5"/>
  <path d="m188.4 111 1.73 0.86 0.4 0.85-1.27 1.3-1.82-0.85 0.96-2.16z" fill="#D55243" stroke="#B7463F" stroke-miterlimit="10" stroke-width=".5"/>
  <path d="m189.1 118.1" fill="#EB6E5F" stroke="#B7463F" stroke-miterlimit="10" stroke-width=".5"/>
  <path d="m190.4 143.2" fill="#F1BA5E" stroke="#B78135" stroke-miterlimit="10" stroke-width=".5"/>
  <path d="m35.09 78.22c0.66-1.16 3.07-0.87 3.99 0l3.24-0.3" fill="#17A1A4" stroke="#256A68" stroke-miterlimit="10" stroke-width=".5"/>
  <path d="m42.28 78.22 0.13 5.11 3.89 1.33-0.28-5.01c0.26-1.57-0.1-1.92-1.46-1.92-1.32-0.09-2.45 0.99-2.28 0.49z" fill="#E59A38" stroke="#0A8F92" stroke-miterlimit="10" stroke-width=".5"/>
  <path d="m56.11 84.49 2.23-0.17c1.19 0 0.08 0.39 0.21 5.15l-2.2 0.46-0.24-5.44z" fill="#F3B548" stroke="#B78135" stroke-miterlimit="10" stroke-width=".5"/>
  <path d="m163.7 94.72 0.47 1.04 0.76 1.4 2.45 0.46c2.23 0 3.18-1.36 3.07-3.08l-0.85-0.46-1.42 0.3-4.48 0.34z" fill="#17A1A4" stroke="#256A68" stroke-miterlimit="10" stroke-width=".5"/>
  <path d="m166.2 89.74 1.46-0.28 1.08-0.46-0.34 6.67c-0.35 0.95-1.98 0.33-1.91-0.51l-0.29-5.42z" fill="#17A1A4" stroke="#256A68" stroke-miterlimit="10" stroke-width=".5"/>
  <path d="m139.5 95.12 1.72-0.76 1.47-0.64v7.97l-3.33 0.86-0.06-5.74 0.2-1.69z" fill="#17A1A4" stroke="#256A68" stroke-miterlimit="10" stroke-width=".5"/>
  <path d="m132.3 92.16 0.85 0.66 3.17-0.06 0.13 6.95-0.76 0.55-3.39-1.19v-1.06l0.56-1.5-0.56-4.35z" fill="#F3B548" stroke="#B78135" stroke-miterlimit="10" stroke-width=".5"/>
  <path d="m132.3 98.02c1.75-0.95 2.95-0.07 4.42-0.89 0.46-0.25-0.56 0.88 0.83 1.94 2.02 0.66 8.52 0 7.86 1.58-0.65 1.63-1.85 2.58-3.77 2.09l-2.39-0.46c-0.95 0-0.95-1.16-0.49-3.28-1.02-1.57-2.34-0.24-6.58 0.17-1.02-0.86-1.03-0.32 0.12-0.32 0.83-0.14-0.19-0.74 0-1.76l0.46 0.13-0.14 0.55 1.03-0.55-0.4 0.65 2.03-80.46c0-3.8 2.79-4 7.12-3.86 3.56 0.09 12.48 0.93 14.71 1.59l0.29 0.48"/>
</svg>