<svg xmlns="http://www.w3.org/2000/svg" width="200" height="200" fill="none" viewBox="0 0 200 200">
<!-- SVG created with Arrow, by QuiverAI (https://quiver.ai) -->
  <path d="m169 196.4-132.1-0.05c-2.2 0-3.52-1.76-2.91-3.85l0.53-1.9h136.8l0.67 2.55c0.56 2.19-0.97 3.25-3 3.25z" fill="#000" opacity=".25"/>
  <path d="m168.6 196.1h-131.7c-2.27 0-3.55-1.74-3.05-3.93l0.52-2.25h136.6l0.72 2.77c0.58 2.26-1 3.41-3.15 3.41z" fill="#00B8B7"/>
  <path d="m170.2 190.2-135.2-0.07c-1.69 0-1.89-1.15-0.54-3.12l14.52-20.94c1.34-1.97 3.46-2.49 6.74-1.98 4.99 0.78 11.38 1.53 20.88 2.64 3.01 0.36 3.8 1.34 2.82 4.09l-2.88 8.44c-0.84 2.69-2.32 3.39-5.14 3.91l-34.15 6.22 131.6 0.45c2.68 0.01 3.37-0.9 1.41 0.36z" fill="#000" fill-opacity=".25"/>
  <path d="m170.2 189.8-135.1-0.21c-1.69 0-1.89-1.02-0.54-2.99l14.32-20.84c1.28-2.02 3.78-2.47 6.77-1.97 4.56 0.79 10.92 1.34 20.89 2.5 2.75 0.33 3.28 1.36 2.36 3.79l-2.93 8.64c-0.83 2.42-2.8 3.27-5.16 3.67l-34.79 6.64 132.7 0.41c2.68 0 3.37-0.91 1.41 0.36z" fill="#F9715A"/>
  <path d="m170.4 189.4-15.51-22.85c-1.49-1.97-3.75-2.96-7.29-2.58-4.4 0.67-11.4 1.34-19.3 2.25-3.01 0.35-4.13 1.02-3.01 4.03l3.4 8.74c0.73 1.97 2.08 2.95 4.76 3.47l35.4 6.94c2.27 0.52 2.93 0.26 1.55 0zm-38.35-12.25-1.49-3.93c-0.32-0.84 1.71-1.36 2.11-0.39l1.49 3.8c0.46 1.18-1.63 1.63-2.11 0.52z" fill="#F9715A"/>
  <path d="m153.1 154c-1.25 1.69-2.5 3.14-4.87 3.14l-93.32 0.07c-4.46 0-6.43-3.41-5.97-6.94l3.76-22.92-0.07-57.38 11.98-24.33c4.33 0.25 8.54-1.99 12.81-6.51 6.63-6.26 14.63-10.49 24.85-10.39 10.23 0.1 16.93 3.55 24.47 9.55 4.38 3.55 8.2 5.71 11.95 5.71 1.02-2.24 3.61-2.98 7.36-2.98 7 0 8.66 7.93 7.05 13.94l-2.84 10.24v61.27l4.86 23.66c0.4 2.09-0.69 2.74-2.02 3.87z" fill="#000" fill-opacity=".25"/>
  <path d="m153.4 153.5c-1.2 1.96-2.82 3.28-4.95 3.28l-93.66 0.31c-3.92 0-6.11-2.82-5.82-6.28l3.69-23.63v-60.97l-1.86-11.81c-0.93-5.36 0.13-13.14 8.05-13.14 3.21 0 5.06 1.08 6.55 2.91 5.08 0 9.27-3.08 11.63-5.58 6.75-6.53 14.58-10.21 24.88-9.97 9.14 0.24 15.61 3.12 23.76 9.82 4.01 3.41 8.41 5.52 13.11 5.67 0.92-2.27 3.09-3.05 6.83-3.05 6.48 0 8.57 6.62 7.45 12.9l-2.88 10.76v61.41l4.93 24.6c0.39 1.83-0.45 1.77-1.71 2.77z" fill="#00C7C6"/>
  <path d="m150.1 127.2h-97.41l-3.79 23.25c-0.56 3.46 1.92 6.6 5.7 6.6l94.57-0.18c3.76 0 5.87-3.28 5.42-6.42l-4.49-23.25z" fill="#00C7C6"/>
  <path d="m142 137.2v9.08c0 1.17-1.79 1.86-2.82 2.1-1.91 0.48-1.95 4.71-3.92 4.71l-65.77-0.05c-1.97 0-1.64-3.9-4.32-4.66-1.29-0.42-2.06-0.99-2.06-2.3v-7.65c0-1.49 0.89-2.1 2.79-2.44 2.38-0.45 1.74-3.66 3.98-3.66h65.26c2.03 0 1.29 3.34 4.17 3.94 1.61 0.38 2.69 0.13 2.69 0.93z" fill="#000" fill-opacity=".25"/>
  <path d="m140.8 136.9v8.74c0 1.12-1.23 1.63-2.94 2.04-2.37 0.61-2.25 3.96-4.09 3.96l-63.61-0.1c-1.79 0-1.59-3.35-4.15-4.02-1.35-0.39-2.25-0.7-2.25-1.94v-7.29c0-1.25 0.61-1.85 2.1-2.2 2.24-0.56 2.04-3.66 4.01-3.66h64.36c1.89 0 1.83 3.06 4.45 3.66 1.35 0.35 2.12 0.2 2.12 0.81z" fill="#F9715A"/>
  <path d="m137.9 139.3v4.69c0 1.28-1.14 1.43-2.5 1.82-2.23 0.66-2.64 3.72-4.04 3.72l-59.52-0.14c-1.64 0-1.73-2.8-3.76-3.58-1.08-0.46-2.32-0.52-2.32-1.59v-4.51c0-1.34 0.9-1.29 2.04-1.83 1.8-0.88 1.98-3.36 3.33-3.36l61.8 0.05c1.39 0 1.47 2.64 3.34 3.31 1.08 0.41 1.63 0.54 1.63 1.42z" fill="#F8C252"/>
  <path d="m156.8 71.39-8.2-15.98h-93.55l-7.67 15.39c-1.21 2.1 0.4 4.36 1.75 5.21 2.94 1.83 7.02 1.3 8.99-1.81 0.87 1.74 3.02 2.99 6.16 2.99 1.83 0 3.97-0.49 5.25-2.03 0.82 1.77 3.24 2.5 5.61 2.42 2.72-0.1 5.11-1.22 6.3-3 0.93 2.31 3.24 2.93 5.54 2.75 2.73-0.22 5.36-1.61 6.6-4.4 1.07 3.16 3.56 4.14 6.24 4.14 2.86 0 5.46-1.58 6.71-4.29 0.99 2.86 3.64 3.85 6.15 3.75 2.52-0.11 5-1.44 6.07-3.71 1.24 3.19 4.12 4.56 7.12 4.49 2.54-0.07 4.27-1.05 5.38-2.23 1.66 1.98 3.62 2.33 5.77 2.23 2.79-0.1 5.22-1.35 6.57-3.59 2.03 3.33 5.27 3.79 8.09 2.81s5.57-2.81 5.12-5.14z" fill="#000" fill-opacity=".25"/>
  <path d="m156.6 70.8-8.82-16.62-92.44-0.16-7.8 16.43c-1.03 2.17 0.79 4.38 2.21 5.23 3.31 1.99 7.98 0.84 9.47-2.57l8.95-17.95 9.59-0.07-5.86 15.49c-1.49 4.33 1.71 6.35 5.46 6.23 3.04-0.1 5.29-1.52 6.22-4.5l4.83-17.36 8.89-0.15-1.13 15.63c-0.41 4.78 3.02 6.58 6.03 6.43 3.19-0.15 5.49-2.42 5.22-6.67l-1.07-15.1 9.75-0.07 4.1 16.82c1.01 4.15 3.95 5.33 6.83 5.09 3.23-0.27 4.67-2.6 4.13-5.71l-5.13-16.13 21.82 0.07 8.45 15.06c1.29 2.09 1.35 3.24-1.27 4.81-2.36 1.35-6.93 2.43-9.35-1.54" fill="#F9715A"/>
  <path d="m60.13 70.67 8.26-15.65h9.02l-5.69 15.97c-1.66 4.88 0.43 5.95 3.44 5.92-2.24 7.29-5.05 16.9-13.15 21.41l-1.88-0.89v-26.76z" fill="url(#paint0_radial_665_24210)"/>
  <path d="m136.2 55.02h11.4l8.59 14.05c1.44 2.52 0.19 4.04-1.36 5.12-2.59 1.76-6.97 2.24-9.44-1.58l-9.19-17.59z" fill="#F9715A"/>
  <path d="m135.1 75.16c2.79 2.17 8.32 1.39 10.22-2.13l0.07 24.4-2.59 0.89c-5.91-3.11-13.58-10.41-17.43-22.9 2.5 1.42 6.5 1.42 8.37-1.1 0.33 0.45 0.66 0.57 1.36 0.84z" fill="url(#paint1_radial_665_24210)"/>
  <path d="m54.04 69.92v53.4h96.23v-53.4l-5.06 2.82v24.85l-2.88 0.41c-5.91-3.73-10.45-12.19-12.48-22.38l-4.06 0.98-5.77-5.21-3.61 1.35-5.39 2.88-6.46-2.6-6.3 0.59-6.07 1.39-7-1.83-4.67 2.94-7-1.49-3.33 1.98-3.76-0.16-6.17-3.27-6.22-3.25z" fill="url(#paint2_radial_665_24210)"/>
  <path d="m133.9 122.1c1.06-9 4.08-17.13 5.77-20.54l5.05-0.78v21.25l-10.82 0.07z" fill="url(#paint3_radial_665_24210)"/>
  <path d="m139.7 98.32h5.65c0.81 0 1.01 0.59 1.01 1.32v0.63c0 0.78-0.4 1.25-1.27 1.25l-5.33-0.07c-1.07 0-1.4-0.74-1.4-1.61 0-0.88 0.53-1.52 1.34-1.52z" fill="#F8B754"/>
  <path d="m60.2 97.71h4.62c0.97 0 1.49 0.72 1.49 1.57v0.55c0 0.9-0.52 1.48-1.62 1.48l-4.5-0.09 0.01-3.51z" fill="#F8B754"/>
  <path d="m63.61 101.3c3.64 4.99 6.31 11.57 7.33 20.53l-10.68-0.07-0.13-20.53 3.48 0.07z" fill="url(#paint4_radial_665_24210)"/>
  <path d="m152.7 122.3h-101.3c-2.37 0-2.7 1.42-2.7 2.96v0.38c0 1.62 0.92 2.18 2.41 2.18l101.6-0.2c1.89 0 2.42-1.08 2.42-2.43v-0.45c0-1.62-0.74-2.44-2.49-2.44z" fill="#F8B754"/>
  <path d="m57.61 49.44h89.06c1.97 0 2.24 1.21 2.24 2.75v0.51c0 1.62-0.83 2.32-2.44 2.32l-88.66-0.12c-1.79 0-2.46-1.08-2.46-2.57v-0.81c0-1.25 0.74-2.08 2.26-2.08z" fill="#F8B754"/>
  <path d="m58.15 73.17v-18.15l10.24-0.07-8.33 15.94c-0.78 1.42-1.11 2.01-1.91 2.28z" fill="#F9715A"/>
  <path d="m101.1 34.31c8.95 0 15.55 2.93 22.11 8.6 4.53 3.95 8.65 6.06 13.85 6.51l-70.92-0.07c6.45-1.07 9.66-3.67 13.63-7.34 6.3-5.85 13.03-7.7 21.33-7.7z" fill="#F9715A"/>
  <path d="m151.8 34.59 14.16-4.97c2.2-0.83 1.42-3.55-0.55-2.88l-13.09 6.87-0.52 0.98z" fill="#000" fill-opacity=".25"/>
  <path d="m150.6 30.41 14.5-13.9c1.76-1.9-0.73-4.04-2.27-1.97l-12.23 15.06v0.81z" fill="#000" fill-opacity=".25"/>
  <path d="m146.5 29.75 5.05-12.48c1.03-2.45-2.17-3.53-2.69-1.14l-2.68 13.16 0.32 0.46z" fill="#000" fill-opacity=".25"/>
  <path d="m152.2 34.32 13.81-4.8c2.52-0.97 1.03-3.79-0.94-2.82l-12.87 7v0.62z" fill="#F9715A"/>
  <path d="m151 30.18 13.81-13.9c1.82-1.83-0.6-4.07-2.29-1.97l-11.91 14.9 0.39 0.97z" fill="#F9715A"/>
  <path d="m146.6 29.58 4.83-12.27c1.08-2.68-2.13-3.51-2.72-1.03l-2.52 12.63 0.41 0.67z" fill="#F9715A"/>
  <path d="m50.46 34.94-13.37-4.92c-2.08-0.93-1.68-3.81 1-2.84l12.04 6.52 0.33 1.24z" fill="#000" fill-opacity=".25"/>
  <path d="m51.48 30.41-13.43-13.49c-1.68-1.96-0.33-3.86 1.87-2.61l11.56 14.65v1.45z" fill="#000" fill-opacity=".25"/>
  <path d="m55.81 29.59-4.79-12.28c-0.89-2.52 2.32-3.5 2.9-0.82l2.37 12.42-0.48 0.68z" fill="#000" fill-opacity=".25"/>
  <path d="m50.52 34.59-13.11-4.97c-2.26-1.02-1.74-3.61 0.52-2.76l12.32 6.69 0.27 1.04z" fill="#F8B754"/>
  <path d="m51.22 30.11-12.8-13.19c-1.82-2.1 0.27-3.64 2.03-2.1l10.77 14.09v1.2z" fill="#F8B754"/>
  <path d="m55.75 29.21-4.53-12.02c-0.96-2.58 2.12-3.33 2.9-0.55l2.17 11.81-0.54 0.76z" fill="#F8B754"/>
  <path d="m85.05 6-0.84 3.21-0.7-2.55c-0.24-0.89 1.18-1.65 1.54-0.66z" fill="#F8B754"/>
  <path d="m80.08 8.42 3.01 1.83-2.88-0.45c-0.99-0.2-1.31-1.45-0.13-1.38z" fill="#F8B754"/>
  <path d="m81.21 14.17 1.82-1.45-1.42 2.42c-0.82 1.25-2.17 0.07-1.2-0.91l0.8-0.06z" fill="#F8B754"/>
  <path d="m86.47 12.41 1.25-1.5 1.9-0.78c0.93 0.25 0.73 1.23-0.26 1.36l-2.89 0.92z" fill="#F8B754"/>
  <path d="m86.28 12.99 0.74 1.92c0.59 1.54-0.96 1.8-1.01 0.5l0.27-2.42z" fill="#F8B754"/>
  <path d="m117.2 2.81-3.58 2.98-2.52-0.88c-1.02-0.37-1.75 0.6-1.16 1.51l1.49 2.34-1.35 1.89c-0.67 0.9-0.21 1.76 0.93 1.41l3.35-0.97 1.73 1.83c0.86 0.88 2.04 0.27 1.97-1.09l-0.13-1.83 2.62-1.69c1.03-0.65 1.03-1.5-0.22-1.95l-2.06-0.85 0.4-1.83c0.26-1.07-0.73-1.53-1.47-0.87z" fill="#000" fill-opacity=".25"/>
  <path d="m117.3 2.52-3.58 2.98-2.52-0.88c-1.02-0.37-1.75 0.6-1.16 1.51l1.49 2.34-1.35 1.89c-0.67 0.9-0.22 1.76 0.93 1.41l3.35-0.97 1.73 1.83c0.85 0.88 2.03 0.27 1.97-1.09l-0.14-1.83 2.63-1.69c1.02-0.65 1.02-1.5-0.22-1.95l-2.07-0.85 0.4-1.83c0.26-1.07-0.73-1.53-1.46-0.87z" fill="#F8B754"/>
  <path d="m69.02 21.11 0.91 1.69 2.79-1.18c1.02-0.46 1.99 0.42 1.22 1.38l-1.49 2.1 1.07 2.16c0.59 1.25-0.39 2.16-1.51 1.38l-2.35-1.54-1.45 2.9c-0.46 0.97-1.49 0.45-1.35-0.59l0.26-1.9-1.08-1.25c-0.73-0.85-0.4-1.73 0.78-1.8l1.35-0.25-0.53-2.1c-0.26-1.15 0.71-2.03 1.38-1z" fill="#000" fill-opacity=".25"/>
  <path d="m68.71 20.86 0.9 1.87 2.66-1.11c1.22-0.51 2.05 0.27 1.27 1.29l-1.42 1.99 1.03 2.16c0.66 1.39-0.42 2.09-1.49 1.31l-2.24-1.45-1.61 1.89c-0.67 0.79-1.51 0.12-1.31-1.01l0.32-1.76-0.97-1.04c-0.84-0.88-0.32-1.55 0.86-1.67l1.14-0.26-0.39-1.83c-0.19-1.03 0.68-1.29 1.25-0.38z" fill="#F9715A"/>
  <path d="m130.9 17.12 0.51-0.61c0.72-0.78 1.64-0.26 1.45 0.88l-0.27 1.44 2.07 0.98c0.96 0.45 0.89 1.43-0.26 1.68l-2.13 0.62-0.53 1.6c-0.4 1.15-1.32 1.02-1.65-0.06l-0.46-1.35-1.24 0.13c-1.08 0.13-1.34-0.94-0.47-1.82l0.99-1.15-0.66-1.24c-0.59-1.08 0.39-1.63 1.43-1.17l1.22 0.07z" fill="#000" fill-opacity=".25"/>
  <path d="m131.1 16.87 0.59-0.62c0.66-0.7 1.52-0.24 1.32 0.81l-0.26 1.45 2.06 1.05c0.89 0.45 0.76 1.35-0.32 1.6l-2.2 0.66-0.59 1.49c-0.46 1.15-1.48 0.82-1.68-0.15l-0.39-1.34-1.42 0.06c-1.14 0-1.27-0.97-0.41-1.67l1.18-1.07-0.66-1.39c-0.59-1.18 0.38-1.7 1.41-1.11l1.37 0.23z" fill="#F9715A"/>
  <path d="m164.6 42.11 1.83 1.46 1.49-0.76c0.84-0.46 1.36 0.42 0.84 1.33l-0.97 1.69 0.83 1.69c0.53 1.04-0.33 1.7-1.36 1.04l-1.55-0.91-0.97 1.45c-0.67 0.97-1.7 0.45-1.31-0.87l0.39-1.52-2.23-1.08c-0.67-0.34-0.53-1.12 0.3-1.31l1.35-0.36 0.13-1.35c0.13-0.77 0.59-1.09 1.23-0.5z" fill="#000" fill-opacity=".25"/>
  <path d="m164.5 41.81 1.72 1.5 1.58-0.63c0.77-0.33 1.29 0.48 0.7 1.35l-1.07 1.69 0.94 1.69c0.58 1.07-0.38 1.7-1.35 0.92l-1.49-1.07-1.08 1.35c-0.84 1.03-1.7 0.25-1.24-1.1l0.46-1.31-2.07-1.18c-0.73-0.46-0.53-1.13 0.4-1.26l1.45-0.25 0.07-1.25c0.07-0.78 0.45-1.04 0.98-0.45z" fill="#F8B754"/>
  <path d="m36.91 42.25 1.65 1.18 1.76-1.18c0.84-0.6 1.7 0.18 1.11 1.26l-0.92 1.62 1.11 1.48c0.74 0.98-0.06 1.85-1.3 1.2l-1.69-0.92-0.78 1.59c-0.53 1.08-1.55 0.55-1.42-0.77l0.14-1.31-1.62-0.78c-0.96-0.52-0.83-1.43 0.32-1.69l0.97-0.32-0.2-0.98c-0.2-0.9 0.33-1.05 0.87-0.38z" fill="#000" fill-opacity=".25"/>
  <path d="m36.85 41.82 1.72 1.29 1.65-0.98c0.93-0.56 1.52 0.23 0.93 1.26l-1.03 1.62 1.16 1.45c0.86 1.08 0.07 1.86-1.17 1.27l-1.73-0.88-0.92 1.39c-0.74 1.07-1.7 0.41-1.5-0.95l0.2-1.25-1.32-0.84c-1.08-0.71-0.75-1.51 0.5-1.64l0.89-0.19-0.2-1.14c-0.2-0.88 0.33-1.01 0.82-0.41z" fill="#F8B754"/>
  <path d="m154.9 145.5 7.81-11.61 3.41 3.77-6.46 9.71c-1.89 2.88-6.08 0.85-4.76-1.87z" fill="#000" opacity=".25"/>
  <path d="m187.9 65.02c-4.3-1.9-8.9-0.61-11.5 2.29-0.59-2.26-2.56-4.78-6.96-4.71-3.55 0.05-5.24 2.51-6.1 4.41l1.18 1.05c1.25-1.97 3.61-1.9 4.39 0.45 0.93 2.45-0.83 4.72-1.67 5.69l8.89 1.45c1.04-3.19 5.79-7.2 11.07-5.56 2.13 0.67 3.31-0.06 3.57-1.49-0.4-1.54-1.54-2.99-2.87-3.58z" fill="#000" opacity=".25"/>
  <path d="m190.9 74.41c-2.19-5.13-8.88-6.35-13.48-0.6l-1.42 1.7 4.7 4.52c2.23-3.04 5.6-4.02 8.22-1.33 1.39 1.46 1.13 3.66 0.14 5.08l0.86 0.72c1.54-1.89 2.41-6.79 0.98-10.09z" fill="#000" opacity=".25"/>
  <path d="m182.8 89.32-4.09 0.78-0.53 4.62 5.49-1.49c2.37-0.78 2.17-4.14-0.87-3.91z" fill="#000" opacity=".25"/>
  <path d="m187.3 65.02c-4.53-2.36-10.12-0.94-11.14 3.1v6.29l1.42-1.25c2.16-2.65 7.62-6.1 12.02-3.42 1.21 0.74 3.17-0.65 2.58-1.68-0.78-1.45-2.13-2.33-4.88-3.04z" fill="#F0604A"/>
  <path d="m189.8 74.39c-2.68-5.01-8.82-5.93-12.67-0.58l-1.15 1.39 4.27 4.46c2.26-3.74 6.08-4.65 8.44-1.9 1.39 1.69 1.19 3.38-0.53 5.14l1.72 1.01c1.39-1.55 1.59-6.4-0.08-9.52z" fill="#00BABD"/>
  <path d="m168.6 62.8c-3.22 0.71-4.94 3.13-5.53 4.21l1.45 0.91c0.93-1.96 3.16-1.76 4.18 0 1.03 1.83 0.17 4.75-1.19 6l8.62 0.49c1.09-2.95 1.68-9.39-7.53-11.61z" fill="#00BABD"/>
  <path d="m184.1 99.69 1.97 1.25 1.32-2.1 1.89 3.52 4.47-0.46-2.49 4.01c2.62 2.2 3.9 5.28 1.38 9.29l-3.51 4.91c-0.97 1.39 0 1.97 1.07 1.97-0.39 1.97-2.75 3.66-4.81 2.93l-8.19-3.77-6.87-8.44c-1.09-2.62 0.74-5.08 3.62-4.29 1.55-2.2 4-9.42 10.15-8.82z" fill="#000" fill-opacity=".25"/>
  <path d="m184.6 98.51 2.03 3.45 2.46-0.76 1.45 1.75 3.05-0.91-3.05 5.13c2.36 2.2 3.67 5.14 0.85 9.25l-2.88 3.88c-1.14 1.62 0.82 2.53 1.28 2.34-1.08 2.09-3.44 3.17-6.03 1.82l-8.06-3.91-5.21-7.68c-0.93-2.39 0.49-4.76 3.37-3.72 2.03-0.84 3.28-11.1 10.74-10.64z" fill="#F8C252"/>
  <path d="m177.1 107-0.88 1.69c-1.09 2.88 0.53 6.41 3.74 7.79 3.99 1.69 8.26-1.38 8.19-4.66l-0.73-4.97c-2.79 1.83-6.99 2.39-10.32 0.15z" fill="url(#paint5_radial_665_24210)"/>
  <path d="m164.5 113.4 6.73-0.2 0.93 3.59-6.39-0.13c-2.3-0.2-3.23-2.68-1.27-3.26z" fill="url(#paint6_radial_665_24210)"/>
  <path d="m156.4 129.2 2.69-3.16c4.09-5.67 10.29-6.65 14.99-4.13l1.42-3.52 4.4-0.33 0.96 3.16 2.62-0.65c3.71-0.98 5.33 4.09 1.72 5.54l-2.43 0.66 4.3 3.26-1.49 0.98-6.4 2.88-2.13 9.9c-5.16-0.62-16.9-5.75-20.65-14.59z" fill="#000" fill-opacity=".25"/>
  <path d="m156.8 128.7c3.82 1.25 10.61 1.51 16.15-2.01-2.79 4.46-1.06 11.57 4.16 15.65 3.65-4.33 5.62-12.26 1.8-15.65l-2.45-1.35 2.17-2.24 1.32-2.81-4.16-1.69c-4.63-2.59-13.35-0.07-18.99 10.1z" fill="#F48787"/>
  <path d="m172.5 111.5c3.54-1.54 4.69 0.62 4.14 3.5-0.93 3.88-5.79 3.15-6.43 0.47-0.52-2.2 0.25-3.35 2.29-3.97z" fill="#F9A5A5"/>
  <path d="m182.8 119.1c3.68-1.12 4.93 1.47 3.9 3.83-1.55 3.81-6.48 2.37-6.67-0.25-0.2-2.1 0.58-2.91 2.77-3.58z" fill="#F99595"/>
  <path d="m153.4 110.9 8.2-13.9 4.1 2.16-8.37 12.64c-1.69 2.52-5.27 1.55-3.93-0.9z" fill="#000" opacity=".25"/>
  <path d="m153.3 93.36 6.33-7.3-2.62-7.23c-0.59-2.1 1.77-3.67 3.6-2.59l4.66 2.72 0.86-1.62 1.83 0.39-0.74 1.75 5.9 4.33 4.93 2.24 2.55 1.08-1.42 8.29-7.11 7.8-18.77-9.86z" fill="#00BABD"/>
  <path d="m159.8 77.11 3.37-0.2 2.07 2.1-4.09 6-3.37-4.25 2.02-3.65z" fill="#F9A5A5"/>
  <path d="m180.3 77.39c-3.38-5.27-9.84-5.99-11.87-3.07-2.69 3.91-0.2 9.73 4.72 10.88 4.03 0.98 10.42-2.59 7.15-7.81z" fill="url(#paint7_radial_665_24210)"/>
  <path d="m189.1 81.71-0.54-0.27c-1.03-0.52-2.21 0.83-1.23 2.28l0.32 0.46c1.38 1.35 3-0.58 1.45-2.47z" fill="#F8B754"/>
  <path d="m164.7 66.14h-0.32c-1.18-0.14-1.95 1.62-0.46 2.27l0.39 0.15c1.38 0.46 2.12-1.81 0.39-2.42z" fill="#F8B754"/>
  <path d="m47.96 145.6-8.65-11.68-3.41 3.26 8 10.94c2.4 3.19 5.81 0.5 4.06-2.52z" fill="#D3A26E"/>
  <path d="m47.75 85.92-5.61-8.08 2.56-2.75c1.55-1.72-1.59-5.24-3.55-3.79-2.03 1.45-4.72 4.71-4.72 4.71l-1.28 5.36 6.26 12.49 6.14-4.74c1.22-0.98 1.22-1.92 0.2-3.2z" fill="#F0604A"/>
  <path d="m40.02 74.7c-2.56 1.54-4.98 3.06-6.04 4.45l2.78 3.81 2.69-0.84c1.96-0.88 2.29-6.47 0.57-7.42z" fill="#FEFFFE"/>
  <path d="m21.06 82.19c-1.25 1.96-0.13 3.41 1.22 4.06l5.53 1.75 0.08 8.01c0.2 1.62 2.16 1.75 4.19 1.26 2.94-0.78 4.97-1.46 7.85-3.19l8.2-6.01-5.97-8.66-6.01 1.39c-1.45 1.25-2.32 2.64-5.64 3.11l-9.45-1.72z" fill="#F9715A"/>
  <path d="m33.78 81.36 1.58-1.35 9.15 12.21-2.3 1.79-8.43-12.65z" fill="#099"/>
  <path d="m25.91 59.04-1.55-0.91-0.74 4.59-5.9 1.09 3.81 4.9 9.28-2.88 0.06-8.06-2.78 3.05-2.18-1.78z" fill="#E09431"/>
  <path d="m21.62 67.84 0.74 7.23c0.26 1.14 1.34 1.99 2.99 2.25l5.32 0.07c3.37-0.26 6.99-3.67 6.72-8.3l-2.06-4.22-3.11-0.91-10.6 3.88z" fill="url(#paint8_linear_665_24210)"/>
  <path d="m22.94 73.61 4.1-4.39 0.73-0.42 2.69 4.71-0.06 0.71-0.59-0.36-2.55-3.91-3.59 4.12-0.73-0.46z" fill="#68868A"/>
  <path d="m26.09 74.66 2.52-4.12 0.66-0.26 1.49 3.43v0.61l-0.59-0.26-1.49-3.16-2.03 3.83-0.56-0.07z" fill="#68868A"/>
  <path d="m30.75 74.66 2.58-4.55 0.46 0.13 1.83 2.36 0.09 0.61-0.56-0.2-1.89-2.1-1.97 3.9-0.54-0.15z" fill="#68868A"/>
  <path d="m22.81 82.12 0.92-0.62 0.78 3.59c0.2 1.15 4.8 1.48 5.83 0.33 1.96-1.24 1.57-4.18 1.57-4.18l-3.52 0.39-5.58-0.97v1.46z" fill="#F6CCAA"/>
  <path d="m32.36 82.64 2.69-1.93 1.86 15.36-3.21 1.08-1.34-14.51z" fill="#FEFFFE"/>
  <path d="m102.1 102.7c-1.42-1.45-3.94-0.09-4.61 1.73l1.62 3.53 2.88-1.63c1.66-1.13 0.99-2.96 0.11-3.63z" fill="#F6CCAA"/>
  <path d="m74.92 102.7c1.45-1.45 3.91-0.09 4.5 1.73l-1.55 3.53-3.15-1.63c-1.55-1.25-0.89-2.94 0.2-3.63z" fill="#F6CCAA"/>
  <path d="m98.03 95.14c-1.96-2.24-1.89-7.23-4.19-9.09h-9.25c-1.89 1.61-1.76 6.78-3.99 8.67-2.24 1.9-2.31 4.42-0.14 5.9l4.66 5.49h20.6l-8.62-6.83c2.09-1.89 2.03-3.14 0.93-4.14z" fill="#A46847"/>
  <path d="m81.85 83.61 1.96 8 11.34-0.07 1.32-7.47-0.41-0.71 0.13-0.25c0.32-0.51-1.1 0.05-1.04 0.64l-0.53 1.56-4.86-1.35-0.53-1.9-0.67-1.06-0.74 1.06-0.92 3.15-3.52 0.45-0.74-1.83-0.46-0.2-1.25 0.2 0.92-0.22z" fill="#E09431"/>
  <path d="m88.34 87.42c-1.18 2.2 0.89 2.93 1.15 1.89 0.67-0.64 0.86-2.47-0.49-2.86-0.45-0.24-0.66 0.97-0.66 0.97z" fill="#F26060"/>
  <path d="m83.09 93.03 0.39 3.19c0.26 1.14 1.34 1.6 2.69 1.29 1.25-0.45 1.01-1.5 1.97-1.3 1.18 0.2 0.21 1.44 2.24 1.3 1.83-0.2 2.35-1.35 1.89-3.87l-2.65 1.08-2.46-0.59-2.03 0.59-2.04-1.69z" fill="#F6CCAA"/>
  <path d="m84.59 103.2-9.48 1.89 5.56 3.88-2.46 12.62 21.15-0.13-2.13-13.5 4.86-2.94-5.18-3.84-5.16 6.01-7.16-3.99z" fill="#00BABD"/>
  <path d="m86.56 105.1-1.83 16.24h36.57l-33.47-15.16-1.27-1.08z" fill="#FEFFFE"/>
  <path d="m87.69 107.3 2.46 0.26 1.71 13.82h-3.38 32.96l-33.83-12.56 0.08-1.52z" fill="#F49787"/>
  <path d="m105.2 115 4.1-11.5c0-1.55 1.42-2.6 3.26-3.05 2.62-0.63 5.6 0.29 7.32 2.62 2.46 3.53 7.19 18.26 6.41 18.26h-21.09 16.22v-6.33z" fill="url(#paint9_linear_665_21370)"/>
  <path d="m110.8 85.01 2.52 2.65 2.78-3.53 1.61 3.33 2.69-1.54-0.19 0.78-1.49 3.84c-0.67 0.88-6.2 0.88-6.21-0.37l-1.71-5.16z" fill="#E09431"/>
  <path d="m111.8 90.17c-4.73 3.52-5.34 8.89-3.24 11.13 1.36 1.45 5.92 2.36 6.94 2.36 0.67-0.13 5.4-2.1 7.63-5.55 0.78-2.1-1.74-8.8-4.92-9.78l-6.41 1.84z" fill="#A46847"/>
  <path d="m110.9 95.56c-2.52-0.13-2.32 2.88 0.9 3.76 1.9 0.98 3.18 0.79 4.32 0.13 2.46-1.35 1.97-5.94 1.97-5.94-2.3 1.69-4.88 2.15-7.19 2.05z" fill="#F6CCAA"/>
  <path d="m109.1 104.6 4.5-1.46c2.52-0.91 6.62 0 10.59 5.21l-3.43 5c-2.46 1.25-3.54 0.27-5.78-1.22-2.06-1.97-7.05-3.05-8.32-3.05-0.52-1.73 0.8-4.08 2.45-4.48h-0.01z" fill="#F3614A"/>
  <path d="m113.7 104.1 2.35 2.24-2.62 2.42-2.23-2.26 2.5-2.4z" fill="#CAA696"/>
  <path d="m15.26 101.6 3.08-3.77 0.97 3.06 2.1-0.71c1.96-1.05 3.69 0.06 4.86 2.16l0.26 0.46c1-0.39 4.48-0.65 7.11-1.69 2.69-1.38 4.27 0.33 4.07 4.41 0.46 1.62-1.57 4.21-5.17 7.63-1.59 1.35-0.63 3.87 0.61 4.39 2.44 0.59 5.91-7.4 7.7-6.24 2.56 0 1.05 6.87-1.56 9.8 2.35 2.24 7.81 7.14 7.81 9.8-0.96 2.46-10.77 11.31-17.09 11.08-3.6 0-9.14-0.45-11.92-2.69-2.61-1.96-3.96-3.6-4.69-2.15-2.17-0.84-3.87 0.13-4.15-7.49l-3.89-0.91c-0.97-0.53 0-0.74 0.93 0.24l7.32 1.56-0.33 4.18 3.15-1.29 0.67 1.46 1.02-0.78 0.6 0.59 2.35-2.36 2.64-0.06c-2.02-6.71-7.58-11.42-9.94-22.98" fill="url(#paint10_linear_665_24210)"/>
  <path d="m30.45 121c4.22-2.42 7.01 0.2 8.56 2.06 2.62 2.52 6.24 5.18 7.27 8.17 0 2.24-8.89 8.93-14.27 10.28l-3.52-14.8c-1.03-3.45-0.7-4.6 1.96-5.71z" fill="#F8B754"/>
  <path d="m28.68 126.6c3.38-0.07 6.74-0.2 9.95-1.19l0.74 0.79" fill="#F8B754"/>
  <path d="m29.86 129.9c3.38 0.59 6.29 0.86 8.55 0.08 1.55-0.88 2.63-1.34 4.96-1.67l0.42 2.36c-3.16 3.52-6.6 3.62-10.22 3.29l-4.5-3.52 0.79-0.54z" fill="#F8B551"/>
  <path d="6.51,130.11 L 8.34,136.11 C 8.47,137.63 9.92,136.46 9.92,134.63 L 9.73,131.81 L 6.52,130.89 C 5.48,130.33 5.02,130.39 6.55,130.62" fill="#E85051"/>
  <path d="m19.81 111.9c1.83 0 1.06 4.56-0.77 7.6l-3.5 0.62" fill="#007470"/>
  <path d="6.51,128.31 L 11.17,129.29 C 11.17,130.74 C 11.76,131.71 11.13,131.22 11.13,130.25" stroke="#F9715A" stroke-dasharray="1.83 1.83" stroke-linecap="5.5262" stroke-linejoin="round" stroke-width="1.381"/>
  <path d="5.97,129.01 L 9.49,129.25 C 10.57,129.54 10.43,130.62 10.43,131.37 C 11.36,131.89 10.63,131.74 10.63,131.74" stroke="#F87263" stroke-dasharray="0.98 0.98" stroke-linecap="1.8" stroke-linejoin="1.8" stroke-width="2.3"/>
  <path d="5.45,128.14 L 7.07,128.44 L 7.26,130.43 L 7.25,130.46" stroke="#F97158" stroke-dasharray="0.71 0.71" stroke-linecap="1.8" stroke-linejoin="2" stroke-width="2"/>
  <circle cx="20.086868 115.146" r="1.156" fill="#F8C256"/>
  <circle cx="22.04,117.782" r=".7646" fill="#007474"/>
  <circle cx="21.9445,106.809" r="1.167" fill="#366978"/>
  <circle transform="rotate(53.19)" cx="35.184901,102.175649" r=".7627" fill="#065758"/>
  <defs>&quot; y2=&quot;115.119&quot; x114.311&quot; y1=&quot;113.538&quot; x2=&quot;117.352&quot; y211.298&quot; gradientUnits=&quot;1187.59&quot; fill=&quot;#F6B385&quot;/&gt;&quot; x2&quot; y2=&quot;73.8337&quot; gradientUnits=&quot;1&quot; gradientTransform=&quot;scale(1, 1.13905&quot;/&gt;&quot; y1=&quot;64.6527&quot; x2&quot; y2&quot; gradientUnits=&quot;1&quot; gradientTransform=&quot;scale(1, 1&quot;/&gt;&quot; y1&quot; x2&quot; y2&quot; gradientUnits=&quot;1&quot; gradientTransform=&quot;scale(1, 35.9505)&quot;/&gt;&quot; x2&quot; y2&quot; x1&quot; gradientUnits=&quot;1&quot; gradientTransform=&quot;scale(1, 1&quot;/&gt;&quot; y1&quot; x2&quot; y2&quot; gradientUnits=&quot;1&quot;/&gt;&quot; y1&quot; y2&quot; x1&quot; fill=&quot;#00C6C8&quot; fill-opacity=&quot;1&quot; x2&quot; fill=&quot;url(#paint1386&quot; y1&quot; fill-opacity=&quot;1&quot;/&gt;</defs>
</svg>