<svg xmlns="http://www.w3.org/2000/svg" width="200" height="200" viewBox="0 0 200 200">
<!-- SVG created with Arrow, by QuiverAI (https://quiver.ai) -->
  <path d="m183.1 158.1-13.16-50.7c-0.99-3.64-3.16-5.65-5.71-6.62 4.15-1.98 6.52-5.69 6.52-9.26v-56.7c0-6.06-4.85-10.52-9.79-10.52h-30.35v-4.3c0-9.82-8.36-17.34-18.18-17.34h-25.47c-9.82 0-18.18 7.52-18.18 17.34v4.3h-31.36c-5.95 0-9.6 5.11-9.6 9.86v58.38c0 4.19 1.94 6.89 5.31 8.29-2.5 1.21-4.27 3.6-4.81 6.21l-12.81 50.65v12.46c0 5.95 4.58 9.26 8.9 9.26h44.51v0.87c0 9.09 7.96 16.34 17.19 16.34h26.39c9.22 0 17.19-7.25 17.19-16.34v-0.87h43.97c5.43 0 9.3-4.01 9.44-9.01v-12.3zm-104.6-137.6c0-6.04 4.67-9.36 10.18-9.36h22.37c6.04 0 9.36 5.11 9.36 10.11v2.96h-41.91v-3.71zm-43.73 19.26c0-5.01 3.82-9.02 8.82-9.02h111.5c5.51 0 9.15 4.61 9.15 9.36v46.55c0 5.51-4.61 10.07-10.12 10.07h-110.1c-5.51 0-9.32-3.97-9.32-8.68v-48.28z" fill="#000" opacity=".25"/>
  <path d="m183 157.2v12.91c0 5.46-3.94 9.01-8.69 9.01h-149.7c-5.46 0-9.07-4.4-9.07-9.01v-12.91h167.4z" fill="#00B2B2"/>
  <path d="m173.3 162.6h-150.2c-5.3 0-7.92-4.1-6.77-7.98l12.41-47.9c1.06-4.26 4.48-6.76 9.48-6.76h120.9c4.94 0 9.09 2.78 10.36 7.78l13.21 49.27c0.92 3.62-3.67 5.59-9.4 5.59z" fill="#00C4C6"/>
  <path d="m167.4 158.3h-137.2c-4.39 0-6.84-3.05-6.25-6.1l10.18-41.94c1.06-4.61 4.08-5.81 9.85-5.74h111.1c5.95 0 8.65 2.7 9.58 6.66l9.31 40.56c1.01 4.45-2.56 6.56-6.51 6.56z" fill="#fff"/>
  <path d="m160.4 24.31h-123c-5.51 0-9.6 4.46-9.6 9.52v58.23c0 5.46 4.58 9.05 9.6 9.05h121.6c6.05 0 10.88-5.01 10.88-10.47v-55.81c0-5.51-4.58-10.52-9.5-10.52zm3.81 61.72c0 5.51-5.11 10.24-10.62 10.24h-110.1c-5.51 0-9.23-4.3-9.23-9.05v-47.31c0-5 4.13-9.46 9.23-9.46h111.1c5 0 9.6 4.46 9.6 9.97v45.61z" fill="#00B6BA"/>
  <path d="m130 164.7h-8.9c-2.84 0-4.08 2.49-4.08 5.29v0.67c0 2.38 1.31 4.18 3.62 4.18h8.35c2.84 0 3.98-2.68 3.98-5.48v-0.76c0-2.05-1.29-3.9-2.97-3.9z" fill="#009E9C"/>
  <path d="m78.71 164.7h-8.9c-2.84 0-4.08 1.91-4.08 4.7v1.19c0 2.38 1.43 4.25 3.75 4.25h8.23c2.84 0 3.97-2.68 3.97-5.48v-1.38c0-1.81-1.29-3.28-2.97-3.28z" fill="#009E9C"/>
  <path d="m112.5 196.6h-26c-9.47 0-17.72-7.64-17.72-16.73v-8.48c0-2.61 1.38-3.63 3.99-3.63h1.48c2.61 0 3.93 1.59 3.93 4.2v5.12c0 6.04 4.84 9.88 10.35 9.88h20.97c6.04 0 10.19-3.65 10.19-9.16v-6.91c0-2.23 1.39-3.13 3.6-3.13h2.31c2.21 0 3.95 1.4 3.95 3.62v7.75c0 9.47-7.98 17.47-17.05 17.47z" fill="#00B2B2"/>
  <path d="m129.8 24.01h-9.25v-3.76c0-6.04-4.32-9.63-9.34-9.63h-22.54c-6.04 0-10.62 3.59-10.62 10.4v2.99h-9.38v-4.51c0-9.47 7.98-17.26 17.48-17.26h26c9.47 0 17.65 7.19 17.65 16.78v4.99z" fill="#00B2B2"/>
  <path d="m153.1 118.3h-28.43c-3.64 0-5.43-2.93-5.43-5.69 0-3.13 2.24-5.52 5.27-5.52h28.73c3.44 0 4.97 3.05 4.97 5.4 0 3.3-2.38 5.81-5.11 5.81z" fill="#36CDCD"/>
  <path d="m145.6 117h-12.5c-1.3 0-2.02-0.75-2.02-2.05v-4.67c0-1.16 0.74-1.89 1.9-1.89h12.69c1.17 0 1.95 0.79 1.95 1.95v4.61c0 1.16-0.85 2.05-2.02 2.05z" fill="#00B2B2"/>
  <path d="m123.9 110.9c-0.3 0-0.55-0.24-0.55-0.54 0-0.31 0.25-0.56 0.55-0.56s0.55 0.25 0.55 0.56c0 0.3-0.25 0.54-0.55 0.54z" fill="#008286" opacity=".5"/>
  <path d="m126.7 110.9c-0.3 0-0.55-0.25-0.55-0.55s0.25-0.55 0.55-0.55 0.55 0.25 0.55 0.55-0.25 0.55-0.55 0.55z" fill="#008286" opacity=".5"/>
  <path d="m123.9 113.8c-0.3 0-0.55-0.25-0.55-0.55s0.25-0.55 0.55-0.55 0.55 0.25 0.55 0.55-0.25 0.55-0.55 0.55z" fill="#008286" opacity=".5"/>
  <path d="m126.7 113.8c-0.3-0.01-0.54-0.25-0.54-0.55s0.24-0.54 0.54-0.55c0.3 0.01 0.54 0.25 0.54 0.55s-0.24 0.54-0.54 0.55z" fill="#008286" opacity=".5"/>
  <path d="m151.4 110.9c-0.3 0-0.55-0.24-0.55-0.54 0-0.31 0.25-0.56 0.55-0.56s0.55 0.25 0.55 0.56c0 0.3-0.25 0.54-0.55 0.54z" fill="#008286" opacity=".5"/>
  <path d="m154.2 110.9c-0.3 0-0.54-0.25-0.54-0.55s0.24-0.55 0.54-0.55 0.55 0.25 0.55 0.55-0.25 0.55-0.55 0.55z" fill="#008286" opacity=".5"/>
  <path d="m151.4 113.8c-0.3-0.01-0.53-0.25-0.53-0.55s0.23-0.54 0.53-0.55c0.3 0.01 0.54 0.25 0.54 0.55s-0.24 0.54-0.54 0.55z" fill="#008286" opacity=".5"/>
  <path d="m154.2 113.8c-0.3-0.01-0.54-0.25-0.54-0.55s0.24-0.54 0.54-0.55c0.3 0.01 0.54 0.25 0.54 0.55s-0.24 0.54-0.54 0.55z" fill="#008286" opacity=".5"/>
  <path d="m135 132.3-1.75-1.78c-0.71-0.72-0.02-2.73-0.02-2.73h-12.14s0.48 2.09-0.5 2.86l-1.51 1.21c-1.34 1.08-1.78 2.37-1.78 4.31v16.25c0 2.21 1.49 3.15 3.06 3.15h14.55c2.21 0 2.67-1.85 2.67-3.28v-15.7c0-1.95-0.93-2.88-2.58-4.29z" fill="#F36D5D"/>
  <path d="m132.9 121.4h-10.29c-1.42 0-2.17 0.73-2.17 2.16v2.92c0 1.09 0.83 1.94 1.92 1.94h10.43c1.42 0 2.02-1.12 2.02-2.29v-2.71c0-1.16-0.74-2.02-1.91-2.02z" fill="#F36D5D"/>
  <path d="m133.5 148.1h-11.42c-1.27 0-2.06-0.78-2.06-2.05v-6.86c0-1.05 0.76-1.82 1.81-1.82h11.66c1.22 0 1.84 1.04 1.84 2.08v6.87c0 1.02-0.82 1.78-1.83 1.78z" fill="#FB8476"/>
  <path d="m157.3 154.6h-11.61c-1.09 0-1.64-1.02-1.64-2.11v-19.48h14.38v19.4c0 1.2-0.3 2.19-1.13 2.19z" fill="#DD9F12"/>
  <path d="m159 132h-15.25c-0.83 0-1.21-0.79-1.21-1.63v-2.82c0-0.83 0.54-1.49 1.31-1.49h14.93c0.83 0 1.26 0.76 1.26 1.6v2.9c0 0.83-0.38 1.44-1.04 1.44z" fill="#FAC453"/>
  <path d="m154.9 150.3h-7.51c-1.03 0-1.74-1.02-1.74-2.06v-11.16c0-1.04 0.76-1.8 1.8-1.8h7.45c1.3 0 1.77 1.02 1.77 2.18v11c0 1.02-0.54 1.84-1.77 1.84z" fill="#FAC453"/>
  <path d="m62.89 115.6h-23.67c-1.73 0-2.4 1.56-2.4 3.01v21.99c0 1.98 1.39 3 3.11 3h22.8c1.98 0 2.56-1.68 2.56-3.34v-22.07c0-1.44-0.78-2.59-2.4-2.59z" fill="#009E9C"/>
  <path d="m56.92 118.1h-16.64c-1.33 0-1.89-0.59-1.6-2.3h1.35c-0.9 0-2.52 0.57-2.52 2.3v21.8c0 1.75 1.25 2.79 2.93 2.79h15.91c2.13 0 2.9-1.6 2.9-3.45v-18.68c0-1.5-0.71-2.46-2.33-2.46z" fill="#36CDCD"/>
  <path d="m54.21 150c-7.07 0-11.15-1.9-12.62-7.59l2.27-0.21c1.16 5.18 4.82 5.52 10.88 5.42h17.05v2.38h-17.58z" fill="#FB8476"/>
  <path d="m91.78 148.5c0 3.08-4.82 6.4-10.33 6.4-6.04 0-10.39-2.4-10.39-5.64 0-2.98 4.08-5.54 10.12-5.54 6.3 0 10.6 2.02 10.6 4.78z" fill="#FB6F5F"/>
  <path d="m71.06 150.4c1.34 0 2.43-0.82 2.43-2.01 0-1.08-1.09-2.04-2.43-2.04-1.35 0-2.14 0.96-2.14 2.04 0 1.19 0.79 2.01 2.14 2.01z" fill="#F36D5D"/>
  <path d="m91.42 150.6c1.09 0 1.69-0.97 1.69-2.07 0-1.06-0.69-1.93-1.69-1.93-1.11 0-1.72 0.87-1.72 1.93 0 1.1 0.68 2.07 1.72 2.07z" fill="#F36D5D"/>
  <path d="m52.62 110.6c-6.99 0-9.31 5.12-9.31 5.95h2.39c0.92-2.95 4.09-4.69 7.13-4.69h37.97c6.98 0 8.62 4.91 8.62 7.3 0 4.61-4.04 7.71-7.89 7.71h-6.88v2.39h6.36c6.91 0 10.53-5.37 10.53-9.89 0-5.4-4.33-9.95-10.82-9.95l-38.1 1.18z" fill="#FB8476"/>
  <path d="m83.58 126.1h-1.12v3.66h1.31c1.51 0 2.27-1.02 2.27-2.13 0-1.08-0.96-1.53-2.46-1.53z" fill="#009E9C"/>
  <path d="m75.31 134.7c4.51 0 7.2-3.47 7.2-6.92 0-3.94-2.98-6.93-7.09-6.93s-6.51 3.36-6.51 7.25c0 3.65 2.81 6.6 6.4 6.6z" fill="#009E9C"/>
  <path d="m75.37 133c3.05 0 4.97-2.47 4.97-5 0-2.93-2.12-5.08-4.92-5.08s-4.5 2.44-4.5 5.24c0 2.72 2.12 4.84 4.45 4.84z" fill="#36CDCD"/>
  <path d="m75.66 129.1 2.24-2.7c0.49-0.58 0.36-1 0.06-1.28-0.45-0.42-0.9 0.01-1.25 0.55l-1.63 2.73c-0.43 0.7-0.02 1.12 0.58 0.7z" fill="#008286"/>
  <path d="m53.89 141h-12.18c-1.65 0-2.44-1.04-2.44-2.41v-5.81c0-1.37 0.67-2.47 2.14-2.47h12.51c1.79 0 2.39 1.12 2.39 2.55v5.67c0 1.37-0.9 2.47-2.42 2.47z" fill="#F66D58"/>
  <path d="m91.78 49.86c-6.05-0.35-8.37 4.86-8.37 8.37 0 5.01 3.83 8.84 7.94 8.84 4.78 0 8.16-4.85 8.16-8.47 0-4.76-3.12-8.47-7.73-8.74z" fill="#F36D5D"/>
  <path d="m91.54 52.74c-4.11-0.21-5.51 3.15-5.51 5.6 0 3.3 2.56 5.41 4.88 5.41 3.3 0 5.58-3.09 5.58-5.55 0-2.93-1.77-5.31-4.95-5.46z" fill="#FAC453"/>
  <path d="m87.02 76.35c-1.78 6.04-6.94 8.03-9.6 7.52-4.29-0.83-5.8-4.74-5.8-7.92 0-4.16 3.07-6.84 5.55-6.84 4.51 0 6.76 3.8 6.76 7.31 0 5.08-2.84 12.67-13.65 13.4-8.69 0.62-12.9-3.01-14.31-6.56l-2.48 0.43c0.92 4.45 6.29 8.85 14.83 8.54 9.48-0.35 15.26-5.93 17.54-10.71 1.66-3.65 2.21-5.51 2.29-16.93l3.4-0.13c0.16 3.45-0.51 8.47-4.53 11.89z" fill="#F7C359"/>
  <path d="m44.74 37.62 2.74-0.99c1.66-0.62 2.82 0 3.16 0.99 0.45 1.3 0.23 3.03-0.25 3.65-0.82 1.04-3.33 0.14-4.7-0.04-1.88-0.27-2.23-0.95-2.08-2.07 0.09-0.7 0.31-1.19 1.13-1.54z" fill="#F66D58"/>
  <path d="m62.5 37.62-3.29-0.9c-1.39-0.41-2.1 0.62-2.1 1.98 0 1.23 0.21 2.36 1.04 2.71 0.96 0.42 2.46 0 3.76-0.28 1.73-0.37 2.5-0.92 2.3-2.04-0.15-0.9-0.79-1.26-1.71-1.47z" fill="#F66D58"/>
  <path d="m67.26 39.62c-1.64-1.09-3.62-1.5-4.14-1.57l0.38 1.72c2.02 0.54 5.11 2.14 5.25 8.49 0.16 6.55-2.26 13.73-4.05 18.96l2.61 0.5c2.21-5.58 3.75-12.65 3.4-19.06-0.22-4.24-1.42-7.6-3.45-9.04z" fill="#F7C359"/>
  <path d="m41.22 39.56c-3.01 1.73-3.9 6.55-3.71 11.16 0.21 5.59 1.7 11.26 3.71 16.69l1.59-0.47c-2.1-6.48-3.22-11.76-2.94-16.88 0.26-5 1.79-8.71 5.62-9.45l-0.45-2.56c-1.23 0.14-2.83 0.79-3.82 1.51z" fill="#F7C359"/>
  <path d="m66.78 66.73c-1.67-0.55-2.49 1.08-2.84 2-2.13 5.13-6.1 7.43-9.21 7.43-4.7 0-7.96-3.55-10.11-7.75-0.76-1.6-2.69-1.9-3.55-0.7-0.84 1.17-0.36 2.31 0.33 3.6 2.52 4.61 5.67 6.9 8.51 7.83 1.51 0.55 1.85 1.2 1.85 3.02 0 1.35 0.76 2.28 2.05 2.28 1.51 0 2.11-1.07 2.11-2.36 0-1.37 0.79-2.02 2.18-2.5 3.82-1.37 6.82-4.47 9.11-9.34 0.8-1.8 0.9-3.03-0.43-3.51z" fill="#F66D58"/>
  <path d="m108.4 51.79c-3.37 0-5.12 2.02-5.12 5.27v22.76c0 2.02 1.1 3.39 2.3 5.53 0.7 1.3 0.7 2.06 0.7 4.01 0 1.25 0.63 2.11 1.81 2.11 1.66 0 4.13-0.91 4.13-6.28v-28.51c0-3.02-1.8-4.89-3.82-4.89z" fill="#F6B64C"/>
  <path d="m108.5 54.63c-1.42 0-2.02 1.06-2.02 2.63v31.15c0 1.09 0.27 1.54 1.2 1.54 0.91 0 1.38-0.64 1.38-2.31v-30.86c0-1.23-0.3-2.15-0.56-2.15z" fill="#fff"/>
  <path d="m108.3 73.24h-0.1c-0.72 0-1.1 0.37-1.1 1.26v13.52c0 1.02 0.17 1.5 0.78 1.5 0.72 0 1.06-0.6 1.06-1.81v-13.43c0-0.62-0.24-1.04-0.64-1.04z" fill="#F36D5D"/>
  <path d="m105.4 58.7h2.57v0.63h-2.57v-0.63z" fill="#000" fill-opacity=".32"/>
  <path d="m107 63.72h1.83v0.63h-1.83v-0.63z" fill="#000" fill-opacity=".32"/>
  <path d="m105.2 68.3h2.57v0.62h-2.57v-0.62z" fill="#000" fill-opacity=".32"/>
  <path d="m106.4 73.01h2.02v0.63h-2.02v-0.63z" fill="#000" fill-opacity=".32"/>
  <path d="m128.9 81.87h-2.95v-20.03c0-1.02-0.49-1.92-1.32-2.43l-1.86-1.12v-2.38c0-1.02-0.55-1.77-1.03-2.1v-8.1l-0.38-0.09v8.14c-0.89 0.38-1.3 1.4-1.3 2.49v1.33l-1.55 0.96c-0.91 0.57-1.4 1.39-1.4 2.69v20.64h-0.66c-0.75 0-1.15 0.34-1.15 0.89 0 0.63 0.54 0.86 1.23 0.86h12.03c0.8 0 1.14-0.41 1.14-1.01 0-0.45-0.27-0.74-0.8-0.74z" fill="#00B2B2"/>
  <path d="m123.2 60.09-2.82 1.12c-0.7 0.3-1.08 0.88-1.08 1.8v7.01h2.29v0.65h-2.21v0.75h2.93v0.65h-2.02v0.69h3.79v0.72h-1.66v0.73h2.02v0.94h-1.24v1.09h1.49v0.92h-1.8v1.06h2v-7.01h0.63v-10.24l-2.32-0.88z" fill="#009E9C"/>
  <path d="m127.2 91.03h-9.12c-0.6 0-0.97-0.42-0.97-0.95 0-0.62 0.52-0.93 1.22-0.93h1.06v-5.84h3.95v5.84h3.47c0.73 0 1.27 0.36 1.27 0.99 0 0.54-0.34 0.89-0.88 0.89z" fill="#00B2B2"/>
  <path d="m141.4 36.86-2.01-0.05-3.7 0.97 0.1 12.01 4.16 1.94 1.74 0.05c2.02 0 2.97-1.6 2.97-3.55v-8.51c0-1.73-1.24-2.86-3.26-2.86z" fill="#F36D5D"/>
  <path d="m136.4 36.81c-0.92 0-1.37 0.49-1.37 1.51v25.84h2.64v-25.93c0-0.93-0.49-1.42-1.27-1.42z" fill="#F16A52"/>
  <path d="m128.4 40.22c-2.77 0.62-3.25 2.54-3.25 4.11 0 2.02 1.77 3.42 4.23 4.18l5.54 1.8 0.28-12.26-6.8 2.17z" fill="#F16A52"/>
  <path d="m135.7 64.19c-1.8 0-2.2 1.37-2.2 2.66-0.85 7.96-1.13 10.76-1.06 17.92 0.06 4.86 1.27 6.94 4.05 6.94 3.41 0 3.58-4.03 3.46-8.7-0.19-6.68-1.05-12.9-1.15-15.85-0.06-1.79-0.98-2.97-3.1-2.97z" fill="#F36D5D"/>
  <path d="m153.4 51.86-5.39-0.55c-0.99-0.13-1.68 0.62-1.68 1.71v6.86c0 1.29 0.85 1.94 1.87 1.94l5.2-0.48c1.51-0.17 2.03-1.39 2.03-2.62v-3.93c0-1.57-0.7-2.73-2.03-2.93z" fill="#FAC453"/>
  <path d="m161.5 55.79-4.93-1.37-0.66-0.21v4.7l0.79-0.31 4.86-1.54c0.53-0.21 0.63-1.07-0.06-1.27z" fill="#C1812A"/>
  <path d="m150.1 61.41h2.82l-0.62 7h-2.56l-0.72-7h1.08z" fill="#F2B133"/>
  <path d="m153.8 70.61-0.61-0.85-1.07-0.85h-1.95l-1.6 0.72-0.62 0.98c-0.48 0.72-0.55 1.64-0.34 2.8 0.62 3.87-0.4 7.58-0.4 12.6 0 3.52 1.5 5.36 3.97 5.36 2.91 0 3.95-1.76 3.95-4.64 0-4.69-1.3-12.37-1.33-14.14-0.02-0.83 0.29-1.38 0-1.98z" fill="#F6B64C"/>
</svg>