<svg xmlns="http://www.w3.org/2000/svg" width="216" height="216" fill="none" viewBox="0 0 216 216">
<!-- SVG created with Arrow, by QuiverAI (https://quiver.ai) -->
  <path d="m181.8 17.05h-163.1c-6.14 0-9.7 5.67-9.7 10.75l0.03 24.17c0 2.2 1.56 3.91 3.41 4.81v129.7c0 4.65 3.74 8.82 8.38 8.82h-1.78c2.81 0 4.4-1.02 4.73-4.4h154.8c4.39 0.14 7.6-2.51 7.6-6.47v-50.54l1.62 0.32c2.1 0.59 18.37 9.3 21.44 6.66 1.82-1.57 0.89-5.82 0.94-7.89 4.25-7.58 3.77-30.67 0-39.99v-62.64c-0.28-3.26-2.78-7.61-5.92-7.81l-18.08 1.99v-3.05c0-2.51-2.27-4.41-4.34-4.41z" fill="#000" opacity=".2"/>
  <path d="m178.2 15.08h-45.51c-4.8 0-10.85 3.52-10.85 8.29v161.9c0 3.91 2.18 6.52 6.68 6.52h48.82c4.93 0 7.4-4.09 7.4-6.8v-163.5c0-3.98-2.73-6.43-6.54-6.43z" fill="#01B8BA"/>
  <path d="m18.25 22.5h102.4c0.89 0 4.18 0.38 4.18 4.59v158.7c0 3.44-1.94 5.96-5.2 5.96h-108.8c-4.08 0-7.42-3.17-7.42-6.07v-134.6c0-2.45 1.97-2.85 3.09-2.85l2.53-5.21v-10.23c0.03-5.46 3.14-10.37 9.27-10.37z" fill="#01B8BA"/>
  <path d="m127.3 17.01c-4.25 1.03-6.18 3.66-6.71 6.62v162.8c0 2.99 1.49 5.29 5.04 5.31h1.72l-0.05-174.8z" fill="#009292"/>
  <path d="m131.7 26.93h45.51c3.08 0 4.08 3.09 4.08 4.39v35.94c0 2.82-2.68 5.78-5.15 5.78h-41.41c-2.73 0-5.54-2.12-5.54-5.92v-35.41c0-2.62 1.29-4.78 2.51-4.78z" fill="#F2B049"/>
  <path d="m181.3 47.82v1.5h-51.7v-2.12l51.7 0.62z" fill="#EEF0F0"/>
  <path d="m133.2 79.93h42.24c3.43 0 4.41 3.09 4.41 4.68v42.39c0 3.31-2.79 5.77-4.89 5.77h-39.59c-3.39 0-6.24-1.84-6.24-5.77v-40.89c0-3.4 1.12-6.18 4.07-6.18z" fill="#F2B049"/>
  <path d="m179.2 103.9 0.01 1.31-49.86 0.05v-2.56l49.85 1.2z" fill="#EEF0F0"/>
  <path d="m134 138.1h42.42c3.37 0 4.24 3.56 4.24 5v40.68c0 3.11-1.97 5.01-4.48 5.01h-42.56c-2.98 0-4.43-2.04-4.43-5.52v-39.42c0-3.45 1.41-5.75 4.81-5.75z" fill="#F26955"/>
  <path d="m177.2 26.93h-6.53v22.28l10.61-0.5v-19.16c-0.85-2.18-1.91-2.62-4.08-2.62z" fill="#000" opacity=".2"/>
  <path d="m179.6 69.46-2.7 2.46h-46.71c-0.44-0.62-1.07-1.64-1.07-4.1l0.59 1.5h48.15l1.74 0.14z" fill="#000" opacity=".2"/>
  <path d="m130.1 102.1h49.71v1.55l-1.09 1.05-49.64 0.35 0.09-2.45 0.93-0.5z" fill="#000" opacity=".2"/>
  <path d="m130.1 123.8h39.55l8.37 7.43-0.74 1.45h-44.17l-3.45-2.28-0.49-5.26 0.93-1.34z" fill="#000" opacity=".2"/>
  <path d="m183.6 24.72 21.54-2.89c3.65-0.37 4.5 3.5 4.5 6.79v45.53c0 3.03-2.12 4.61-4.5 4.19l-21.54-3.38c-2.71-0.44-4.38-2.3-4.38-6.08v-38.39c0-3.38 1.59-5.38 4.38-5.77z" fill="#CF5549"/>
  <path d="m183.4 24.69 20.78-2.68c2.57-0.2 3.88 2.31 3.88 5.08v46.85c0 3.06-2.17 3.98-3.57 3.77l-21.09-3.34c-2.18-0.48-4.16-2.28-4.16-4.84v-39.51c0-2.77 1.12-4.93 4.16-5.33z" fill="#F26955"/>
  <path d="m182.3 80.49 23.77 3.33c2.9 0.63 3.55 3.55 3.55 5.71v48.39c0 2.24-2.46 3.79-4.92 2.96l-22.4-8.06c-2.34-1-3.1-3.03-3.1-5.31v-43.07c0-1.93 0.97-4.23 3.1-3.95z" fill="#CF5549"/>
  <path d="m182.8 81.34 22.18 2.46c2.46 0.43 3.78 2.43 3.78 6.02v47.36c0 2.3-2.16 3.44-4.56 2.52l-20.7-8.06c-2.18-0.85-3.9-2.5-3.9-4.92v-41.96c0-1.86 0.63-3.69 3.2-3.42z" fill="#F26955"/>
  <path d="m181.3 94.07 9.48 3.15 12.71-0.14v4.93l-2.8 2.16-10.7-0.62-8.69-3.57v-5.91z" fill="#D8892B"/>
  <path d="m181.3 93.75 9.16 3.37 13.03-0.38v4.79l-3.2 1.89-10.45-1.03-8.54-3.7v-4.94z" fill="#F4BA51"/>
  <path d="m191.2 87.18-1.73-0.89c-0.73-0.27-2.32 0.04-2.81 1.42l-1.97 3.02v5.88l8.27 1.11v-5.59l0.27-1.73c0.08-1.29-0.83-2.8-2.03-3.22z" fill="#5AC4C4"/>
  <path d="m195.1 93.81c-1.69 0-3.06 2.81-3.06 3.82l6.12 0.43c0-1.26-0.77-4.25-3.06-4.25z" fill="#EBD8C2"/>
  <path d="m199.3 94.43c-1.69 0-2.4 2.98-2.4 3.53l4.22 0.1c0-0.91-0.56-3.63-1.82-3.63z" fill="#D6CAAE"/>
  <path d="m160.8 107.2 2.87-0.04 0.07 2.85-0.8 0.8c0 1.41 3.37 3.1 3.22 6.6v9.34c0 1.53-1.46 2.25-3.63 2.22h-0.34c-2.3-0.04-3.17-1.17-3.17-2.69v-8.97c0.11-2.5 2.62-4.57 2.62-6.15l-0.8-1.15-0.04-2.81z" fill="#3DB0B3"/>
  <path d="m162.3 114h0.13c1.66 0 3.14 0.66 3.14 2.12v10.23c0 0.79-1.46 0.89-3.08 0.87h-0.16c-1.88-0.02-2.7-0.55-2.7-1.22v-9.49c0-1.31 0.85-2.51 2.67-2.51z" fill="#F0FAFD"/>
  <path d="m135.4 90.02h3.41c1.06 0 1.8 0.56 1.8 1.29v8.47c0 1.83-1.57 2.65-2.8 2.65h-2.29c-2.35 0-3.05-1.67-3.05-2.92v-7.43c0-1.41 1.05-2.06 2.93-2.06z" fill="#CF5549"/>
  <path d="m134.7 90.02h4.57c0.72 0 1.25-0.26 1.25-0.59s-0.63-0.59-1.25-0.59h-4.57c-0.79 0-1.31 0.24-1.31 0.59s0.59 0.59 1.31 0.59z" fill="#698591"/>
  <path d="m150.7 85.79c1.6 0 3.03 2.14 3.31 3.93l0.68 2.29v8.27c0 1.3-1.62 2.15-4.52 2.15h-1.94c-2.59 0-3.93-1.22-3.93-2.35v-8.27l0.89-3.85c0.26-0.85 0.54-1.9 1.54-2.17h3.97z" fill="#67C2C6"/>
  <path d="m149.4 85.51h0.78c1.55 0 2.81-0.34 2.81-0.76v1.39c0 0.42-1.26 0.75-2.81 0.75h-2.01c-1.55 0-2.8-0.33-2.8-0.75v-1.39c0 0.42 1.25 0.76 2.8 0.76h1.23z" fill="#688B99"/>
  <path d="m150 91.32h0.23c2.29 0 3.68 1.02 3.68 2.64v5.95c0 1.06-1.25 1.78-3.55 1.78h-1.5c-2.3 0-3.88-0.93-3.88-1.98v-5.95c0-1.41 1.96-2.44 5.02-2.44z" fill="#F8FFFE"/>
  <path d="m154 96.49c0 1.4 4.53 2.27 8.74 2.27 4.22 0 7.95-1.22 7.95-2.27v1.34c0 1.41-3.77 2.56-7.98 2.56-4.22 0-7.46-0.98-7.46-2.42l-0.1-1.17c0-0.41-1.15-0.94-1.15-0.31z" fill="#009798"/>
  <path d="m162.7 95.05c-4.89 0-7.31 1.05-7.31 2.03 0 1.23 3.49 2.28 7.89 2.28s7.39-1.25 7.39-2.28c0-0.89-3.37-2.03-7.97-2.03z" fill="#68C8C6"/>
  <path d="m199.2 116.7-2.49-0.12c-0.92-0.07-1.6 1.05-2.11 2.33l-1.11 2.13v4.3l8.09 1.82v-5.88l-0.54-2.37c-0.31-1.2-1.05-2.14-1.84-2.21z" fill="#6DAED1"/>
  <path d="m203.4 124.6-22.23-5.88v10.08l1.97 2.95 15.24 5.28 5.02-1.78v-10.65z" fill="#A85142"/>
  <path d="m203.4 124.3-22.12-5.87v9.56l2.16 2.88 14.51 5.67 5.45-1.65v-10.59z" fill="#F4BA51"/>
  <path d="m134.5 38.32c1.19-0.99 6.37-1.61 9.42-1.61 3.51 0 8.49 0.95 9.47 1.9 0.63 0.62 1.85 0 2.21 1.11 0.46 1.43-1.3 2.25-2.93 2.32l-0.92 1.45-2.96-0.97-11.2 0.69-1.53-1.69c-1.98 0-3.27-0.43-3.54-1.48-0.33-1.29 0.86-1.29 1.98-1.72z" fill="#2A9E9E"/>
  <path d="m134.9 38.05h18.3c0 1.89-1.52 9.21-4.06 9.21h-10.19c-2.34 0-3.8-5.95-4.05-9.21z" fill="#8AE1E1"/>
  <path d="m143.5 34.52c1.21 0 1.12 1.11 1.08 2.19h-2.06c-0.06-1.22-0.07-2.19 0.98-2.19z" fill="#8AE1E1"/>
  <path d="m152 122.2c-1.89 0.18-2.7-0.72-3.85-1.19-1.82-0.79-2.25-0.95-4.25-2.04-2.6-1.39-5.5-0.78-6.4-0.43-1.86 0.74-1.96 2.78-1.96 4.63 0 1.89 1.69 3.41 4.2 3.41h5.69c2.34 0 8.57-0.55 9.5-2.14 0.57-0.99 0.28-2.56-2.93-2.24z" fill="#000" opacity=".2"/>
  <path d="m151.5 120.1c-1.85 0.36-2.37-0.62-4.1-1.48-1.86-0.91-1.98-0.85-4.07-1.6-3.17-1.19-4.56-1.07-6.14-1.25-1.86-0.22-1.67 0.8-2.17 1.63-0.66 1.12 0 2.57 0 4.02 0 1.63 1.45 2.67 3.61 2.67h3.09c1.97 0 3.38-1.52 5.62-1.95 1.79-0.38 3.48-0.04 4.6-0.84 1.13-0.8 0.82-1.42-0.44-1.2z" fill="#B73939"/>
  <path d="m133 123.4c0 2.19 3.58 4.78 13.47 4.78 8.9 0 10.62-2.07 10.62-3.65 0-1.63-3.94-2.68-10.97-2.68-7.54 0-13.12-0.28-13.12 1.55z" fill="#67C2C6"/>
  <path d="m151.8 121c-1.68 0.1-2.9 0.39-3.95 1.09-1.39 1-3.66 0.82-4.78 1.23-1.92 0.73-4.42 0.58-5.41 0.36-1.52-0.36-2.47-0.79-2.72-1.49 0 1.2 0.37 2.6 3.27 2.74h2.96c1.78 0 3.47-1.38 5.53-1.54 2.06-0.15 3.23-0.17 4.15-0.65 1.31-0.71 2.1-1.79 0.95-1.74z" fill="#EFEFEF"/>
  <path d="m161.3 55.94h0.94c1.26 0 1.6 0.67 1.6 1.35 0 0.79-0.72 1.12-2.12 1.12h-0.41c-1.28 0-1.86-0.55-1.86-1.2 0-0.79 0.65-1.27 1.85-1.27z" fill="#E76655"/>
  <path d="m152.9 60.22h17.79c0.35 0 1.37 0.19 1.2 1.49-0.28 2.16 0.21 1.53 1.26-0.29 0.65-1.13 1.94-0.76 1.45 1.61-0.49 2.23-3.21 4.06-4.53 5.07-1.15 1.01-1.81 2.48-4.98 2.48h-5.7c-2.56 0-4.15-1.62-5.2-3.27-1.09-1.48-2.06-0.9-3.7-2.05-1.39-0.99-1.83-4.05-0.95-4.56 0.81-0.47 1.43 0.37 1.78 1.32 0.73 1.86 1.78 1.74 1.95 0.4 0.2-1.41-0.37-2.2-0.37-2.2z" fill="#CF5549"/>
  <path d="m8.95 191.8h13.87v1.64c0 2.2-1.95 3.36-3.74 3.36h-6.01c-2.35 0-4.12-2.1-4.12-4.15v-0.85z" fill="#009292"/>
  <path d="m107.5 191.8h13.12v1.64c0 1.84-1.82 3.36-3.6 3.36h-6.12c-2.18 0-3.4-1.85-3.4-3.64v-1.36z" fill="#009292"/>
  <path d="m126.9 191.8h13.68v1.96c0 1.72-1.71 3.09-3.13 3.04h-6.07c-2.18-0.07-4.19-1.21-4.48-3.29v-1.71z" fill="#009292"/>
  <path d="m165 191.8h12.81v1.96c0 1.54-1.45 3.04-3.18 3.04h-5.63c-2.28 0-3.77-1.85-4-3.57v-1.43z" fill="#009292"/>
  <path d="m60.06 184h-43.62c-4.32 0-7.46-2.84-7.46-7.02v-41.48c0-3.42 1.42-6.98 4.73-6.61l46.06-0.25c4.66-0.11 5.16 3.72 5.09 6.86v42.93c0 3.45-1.94 5.57-4.8 5.57z" fill="#009292"/>
  <path d="m59.35 183.2h-40.24c-4.15 0-4.81-3.29-4.81-11.84v-24.98c0-2.95 1.3-4.21 4.1-4l40.46 5.75c4.25 0.35 5.75 0.9 5.85 4.55v25.01c0 3.45-1.97 5.51-5.36 5.51z" fill="#D8892B"/>
  <path d="m20.46 169.8h23.15v14.09l-2.25 0.91-20.9-7.71v-7.29z" fill="#CC7D19"/>
  <path d="m20.46 154h44.4v3.95h-49.87v-2.89l5.47-1.06z" fill="#DEE6E6"/>
  <path d="m11.37 132.4c0-2.82 2.46-4.37 5.27-3.61l31.82 6.4c2.8 0.72 4.49 3.08 4.49 6.04v54.1c0 2.96-2.42 4.08-4.24 3.17l-36.44-13.48c-1.66-0.72-2.81-2.7-2.81-4.65l-0.04-44.3c0-1.35-0.1-2.71 1.95-3.67z" fill="#F26955"/>
  <path d="m14.23 135.5c0.48-1.61 1.61-1.93 3.48-1.2 3.72 1.49 12.09 3.45 20.07 4.53 3.44 0.48 5.99-0.38 7.41 0.14 1.62 0.65 1.72 3.47-0.38 3.94-1.49 0.37-5.77-0.71-11.12-1.59-5.73-0.95-12.08-2.25-16.5-3.57-2.17-0.69-3.37-1.01-2.96-2.25z" fill="#D8892B"/>
  <path d="m14.36 134.9c0.31-1.29 1.76-1.44 3.04-0.99 4.68 1.76 11.68 3.38 19.32 4.6 3.09 0.52 5.99 0.14 7.96 0.46 1.97 0.37 2.13 2.61 0.44 2.93-1.97 0.41-6.35-0.79-10.92-1.68-5.98-1.19-12.93-2.68-17.29-3.83-1.72-0.51-2.84-0.47-2.55-1.49z" fill="#F4BA51"/>
  <path d="m42.03 167.8 2.3 0.21 0.07 2.24-4.68 0.15c-0.47 1.4 1.14 2.86 3.12 3 1.74 0.14 2.52 2.6 2.52 4.29l0.93-0.59 1.22-6.63-1.52-3.27-3.96-0.36v0.96z" fill="#67C2C6"/>
  <path d="m58.16 167.4c-3.24-0.76-4.46-0.39-5.51-0.64v11.59c3.26 0.28 5.99-3.19 7.01-5.94l2.18-0.21c1.57-0.2 1.73-2.54 0.21-2.54l-2.46 0.35c-0.15-1.25-0.68-2.4-1.43-2.61z" fill="#67C2C6"/>
  <path d="m43.2 150.8-0.43 1.62c0 1.29 3.92 3.19 9.11 3.06 5.73-0.14 8.63-2.17 8.53-3.06l-0.49-1.96-2.7-0.96c0.29-2.16-0.54-4.44-2.61-4.29l-1.72 0.13-4.79 1.97-1.79 1.82-3.11 1.67z" fill="#F4BA51"/>
  <path d="m78.5 27h41.5v24.71h-41.29c-1.75 0-2.1-1.93-2.1-3.4v-18.12c0-1.82 0.82-3.19 1.89-3.19z" fill="#F26A55"/>
  <path d="m90.02 31.71h20.24c2.36 0 3.65 2.22 3.65 4.45v6.56c0 2.72-1.82 4.41-4 4.41h-19.89c-2.9 0-3.95-2.38-3.95-4.89v-5.73c0-2.64 1.59-4.8 3.95-4.8z" fill="#BA812B"/>
  <path d="m89.96 32.07h19.75c3.01 0 4.06 2.24 4.06 4.82v5.82c0 2.72-1.63 4.3-3.99 4.3h-19.82c-2.71 0-3.67-2.4-3.67-4.56v-5.94c0-2.16 1.32-4.44 3.67-4.44z" fill="#F3AF42"/>
  <path d="m81.14 30.63h0.23c0.97 0 1.39 0.94 1.12 2.24-0.89 4.26-0.76 10.48-0.2 13.54 0.39 2.09-0.28 2.61-1.14 2.61h-0.43c-0.96 0-1.39-1.04-1.39-3.51v-9.41c0-2.37 0.28-5.47 1.81-5.47z" fill="#F3AF42"/>
  <path d="m16.64 53.83h103.2v39.01h-103.2v-39.01z" fill="#F47562"/>
  <path d="m17.91 57.14h53.32c2.45 0 2.67-1.9 2.67-3.59v-1.84c0-1.4-1.5-2.52-3.19-3.55l-16.89-10.78h-20.25l-17.62 12.05c-1.5 0.82-2.24 1.58-2.24 2.98v1.9c0 1.72 1.46 2.83 2.93 2.83h1.27z" fill="#F26955"/>
  <path d="m33.49 22.37h20.25v15.4l-20.25 0.07v-15.47z" fill="#F57F6E"/>
  <path d="m60.09 52.41h0.09c0.9 0 1.14 0.53 1.14 1.1 0 0.72-0.57 1.04-1.23 1.04h-0.28c-0.76 0-1.27-0.49-1.27-1.07 0-0.69 0.68-1.07 1.55-1.07z" fill="#F4BA51"/>
  <path d="m64.48 52.41h0.09c0.9 0 1.14 0.53 1.14 1.1 0 0.72-0.57 1.04-1.23 1.04h-0.28c-0.76 0-1.27-0.49-1.27-1.07 0-0.69 0.68-1.07 1.55-1.07z" fill="#F4BA51"/>
  <path d="m67.72 52.41h0.09c0.9 0 1.14 0.53 1.14 1.1 0 0.72-0.57 1.04-1.23 1.04h-0.28c-0.76 0-1.27-0.49-1.27-1.07 0-0.69 0.68-1.07 1.55-1.07z" fill="#F4BA51"/>
  <path d="m30.39 57.01v35.41" opacity=".2" stroke="#000" stroke-miterlimit="10" stroke-width=".75"/>
  <path d="m44.71 57.01v35.41" opacity=".2" stroke="#000" stroke-miterlimit="10" stroke-width=".75"/>
  <path d="m57.99 57.01v35.41" opacity=".2" stroke="#000" stroke-miterlimit="10" stroke-width=".75"/>
  <path d="m85 56.45v35.97" opacity=".2" stroke="#000" stroke-miterlimit="10" stroke-width=".75"/>
  <path d="m109.9 56.45v35.97" opacity=".2" stroke="#000" stroke-miterlimit="10" stroke-width=".75"/>
  <path d="m3.36 105.1 14.82-10.99h101.3l5.89 10.56v15.57c0 2.96-1.69 4.41-3.75 4.41h-113.9c-2.73 0-4.42-1.5-4.42-3.96v-15.59z" fill="#F4BA51" stroke="#CC882A" stroke-miterlimit="10" stroke-width=".5"/>
  <path d="m115.3 93.91 6.03 6.02 4.07 5.23h-121.9l8.28-7.94 7.13-3.31h96.38z" fill="#F9D073"/>
  <path d="m73.59 103.4 4.15-7.09 2.1-0.78h34.94l4.93 7.14c0.72 1.06-0.49 2.14-1.89 2.02l-42.74-0.08c-1.11-0.07-2-0.42-1.49-1.21z" fill="#8099A0"/>
  <path d="m76.85 102.1 2.13-4.47h35.43l2.34 4.37-0.83 0.69-38.18 0.14-0.89-0.73z" fill="#586E75"/>
  <path d="m100.4 70.74c-4.79 0-5.75 5.63-5.75 7.32v11.94h-1.69v-2.45c0-1.3-2.1-1.3-2.9-1.02-1.22 0.43-2.9 0-4.47-0.42-1.97-0.55-2.83 1.14-2.28 2.33 0.52 1.12 3.11 0.28 3.84 0.71 0.76 0.44 0.3 2.59-0.5 3.27v1.24h19.75v-1.34c-0.73-0.86-2.01-2.61-1.12-3.6 0.82-0.91 2.83-0.1 3.77-0.76 1.12-0.8 0.27-2.07-1.19-2.07-1.4 0-3.71 0.94-5.13 0.86-1.46-0.07-1.88 0.28-2.17 1.21h-1.97v-10.65c0-1.97 2.85-3.27 4.28-1.61 0.79 0.96 0 2.58-0.55 4.4-0.42 1.4 1.27 1.54 2.32 1.33l1.97-0.52c-0.42-3.45-0.35-10.17-6.21-10.17z" fill="#8099A0"/>
  <path d="m78.28 128.3h36.63c3.02 0 4.27 2.71 4.27 5.33v45.15c0 3.73-1.87 5.59-3.96 5.59h-36.94c-3.06 0-4.52-2.96-4.52-5.2v-45.85c0-3.13 1.62-5.02 4.52-5.02z" fill="#F26955"/>
  <path d="m78.35 135.4c0-1.12 1.36-2.07 3.27-1.55l0.79 0.5c6.8 0.79 15.81 0.86 23.71 0.14l5.19-1.09c2.9-0.65 3.69 3.82 1.16 4.1-8.6 1.35-21.54 1.28-30.55 0-2.9-0.35-3.57-0.49-3.57-2.1z" fill="#A85629"/>
  <path d="m137.4 143.6c1.12-0.87 2.34-0.44 3.2-0.16 7.77 1.12 19.46 1.18 28.07 0l2.41-0.63c2.73-0.73 2.66 3.09 1.24 3.44-5.12 1.48-21.19 1.53-33.46 0-2.34-0.28-2.44-1.4-1.46-2.65z" fill="#A85629"/>
  <path d="m138 142.8c1.03-0.14 1.85 0.31 2.51 0.42 8.37 1.19 18.57 1.19 28.31 0l2.63-0.56c2.34-0.52 2.55 2.55 1.06 2.9-8.39 1.5-19.39 1.45-33.21 0.13-2.34-0.23-2.77-2.18-1.3-2.89z" fill="#F3AF42"/>
  <path d="m18.16 86.01c1.97-0.92 6.96-1.57 11.65-1.57 4.32 0 8.28 0.97 9.2 1.73 0.76 0.66 2.28 0.49 2.6 1.44 0.52 1.52-1.44 2.64-3.2 2.59l-0.9 1.26-1.96-1.12-11.69 0.28-2.63-1.29c-2.27-0.07-3.96-0.67-4.39-1.92-0.52-1.5 0.28-0.94 1.32-1.4z" fill="#23A0A0"/>
  <path d="m19.11 85.09h20c0 1.72-1.9 11.95-4.17 11.95h-11.19c-2.63 0-4.32-8.2-4.64-11.95z" fill="#01B8BA"/>
  <path d="m27.97 80.68h1.24c1.4 0 1.82 0.73 1.82 1.59 0 1.12-1.05 1.62-2.3 1.55h-0.72c-1.29-0.09-1.97-0.75-1.97-1.61 0-1.05 0.82-1.53 1.93-1.53z" fill="#16BCBC"/>
  <path d="m24.17 100.1c-6.35 0.32-9.95 0.94-9.95 2.49 0 1.3 4 2.03 9.89 2.03 5.88 0 10.7-1.02 10.7-2.48 0-1.3-4.39-2.35-10.64-2.04z" fill="#474949"/>
  <path d="m56.51 94.69c-6.65 0.22-9.25 1.59-9.25 2.32 0 1.4 4.22 2.13 9.25 2.13 5.19 0 9.28-0.87 9.28-2.13 0-1.15-2.63-2.53-9.28-2.32z" fill="#474949" stroke="#1A1A1A" stroke-miterlimit="10" stroke-width=".75"/>
  <path d="m53.81 100.7c-6.65 0.21-8.58 1.18-8.58 1.98 0 1.12 4.22 2.01 9.41 2.01s9.61-0.76 9.61-2.01c0-1.29-4.15-2.19-10.44-1.98z" fill="#474949" stroke="#1A1A1A" stroke-miterlimit="10" stroke-width=".75"/>
  <path d="m17.26 108.7-0.14 1.69" stroke="#C14634" stroke-miterlimit="10" stroke-width=".75"/>
  <path d="m13.07 110.8 1.15 1.22" stroke="#C14634" stroke-miterlimit="10" stroke-width=".75"/>
  <path d="m9.52 116.6h1.66" stroke="#C14634" stroke-miterlimit="10" stroke-width=".75"/>
  <path d="m19.71 110.3 0.9-1.4" stroke="#C14634" stroke-miterlimit="10" stroke-width=".75"/>
  <path d="m23.62 111.9 1.29-0.86" stroke="#C14634" stroke-miterlimit="10" stroke-width=".75"/>
  <path d="m23.86 115.6 1.75-0.22" stroke="#C14634" stroke-miterlimit="10" stroke-width=".75"/>
  <path d="m17.47 110.4c-3.52 0-4.81 2.96-4.81 5.12 0 2.82 2.16 3.89 4.5 3.89 3.39 0 4.62-2.72 4.62-4.75 0-2.25-1.63-4.26-4.31-4.26z" fill="#019696"/>
  <path d="m15.5 118 4.72-5.26c0.59-0.65-0.91-2.05-1.81-1.1l-4.42 4.6c-1.03 1.12 0.52 2.71 1.51 1.76z" fill="#67C2C6"/>
  <path d="m37.1 108.7c-4.07 0-5.97 4-6.18 6.46l1.4 0.22c0-2.23 2.29-4.47 4.74-4.47 2.06 0 3.55 1.19 4.71 3.9l2.35-0.43c-1.35-2.46-3.32-5.68-7.02-5.68z" fill="#D75A36"/>
  <path d="m36.94 111.8c-3.88 0-5.23 2.04-5.23 3.69 0 2.96 2.66 4.75 4.92 4.75 3 0 4.96-2.1 4.96-5.06 0-1.59-1.82-3.38-4.65-3.38z" fill="#019696"/>
  <path d="m32.92 114.9 5.51 1.98c1.39 0.58 2.48-1.59 0.66-2.22l-4.29-1.52c-1.89-0.67-3.18 1.15-1.88 1.76z" fill="#67C2C6"/>
  <path d="m56.72 108.4c-3.93 0-5.62 4-5.62 6.16 0 3.09 2.36 6.04 5.09 6.04 3.87 0 5.65-3.14 5.65-5.6 0-2.89-1.93-6.6-5.12-6.6z" fill="#039597"/>
  <path d="m55.32 112.4h2.29v7.82h-2.29v-7.82z" fill="#5BC4C5" stroke="#009799" stroke-miterlimit="10" stroke-width=".5"/>
</svg>