<svg xmlns="http://www.w3.org/2000/svg" width="200" height="200" fill="none" viewBox="0 0 200 200">
<!-- SVG created with Arrow, by QuiverAI (https://quiver.ai) -->
  <path d="m173.8 122.2-8.48-0.96 13.54-24.06 3.82 4.13 2.77-6.24 6.88-2-5.38-5.11 0.88-5.25-1.41-0.5-5.46 4.11-5.24-2.58 1.9 7.04-5.47 5.09 6.36 1-16.09 25.89-2.76-0.33 3.89-51.75-1.35-2.78-5.24-3.1c-8.73 2.64-13.81-1.75-16.54-4.77l-5.82 0.13-2.49 0.79-13.95 22.76 1.7-25.85-1.29-0.68-28.23 1.86-0.49-11.83 0.34-5.97c8.27-0.17 18.83 1.43 32.87 10.89 3.04-0.03 10.46-3.54 12.76-7.82-6.56-0.87-10.06-5.16-11.82-10.97-1.64-5.94-3.84-11.7-9.41-14.86 0.34 6.47-6.74 7.91-6.37 1.81l1.04-2.98h-2.52c-6.28 0.2-10.36 7.25-16.58 10.58-3.04 1.59-7.22 1.01-10.09-0.25-1.25 4.09 2.93 11.55 6.68 12.81l1.87 0.65-0.47 3 1.11 12.82-67.09 6.99c-10.01 4.79-14.01 16.97-13.09 29.84 0.88 12.21 6.47 23.34 16.07 27.19l0.65 15.25 2.45 43.18 36.92 13.74 12.09 4.42 1.21-0.13 90.51-15.16 4.82-60.04z" fill="#7A4930" opacity=".25"/>
  <path d="m174.9 121.1-55.84-6 0.18-57.64-97.29 6.35 3.2 56.24 149.8 1.05z" fill="#EFB050" stroke="#CA8036" stroke-miterlimit="10" stroke-width="1.3"/>
  <path d="m24.7 65.71 2.03 51.37 89.4-6.17 1.94-51.96-93.37 6.76z" fill="#00807B" stroke="#00807B" stroke-miterlimit="10" stroke-width="1.3"/>
  <path d="m25.38 67.36 1.63 48.24 88.92-7.19 1.55-48.23-92.1 7.18z" fill="#05A9A5" stroke="#05A9A5" stroke-miterlimit="10" stroke-width="1.3"/>
  <path d="m14.78 76.6 1.26 30.26" stroke="#028980" stroke-miterlimit="10" stroke-width=".7"/>
  <path d="m17.08 73.02 1.75 36.88" stroke="#028980" stroke-miterlimit="10" stroke-width=".7"/>
  <path d="m23.06 63.76c-9.14 4.84-13.62 15.26-13 28.32 0.55 11.9 6.13 23.11 15.05 27.08l-0.57 0.85-0.45 0.05 0.65-1.94-1.27-2.11c-7.33-4.45-11.33-14.19-11.84-24.49-0.54-10.69 2.95-20.11 10.4-24.79l1.03-2.97z" fill="#EFB050" stroke="#EFB050" stroke-miterlimit="10" stroke-width="1.3"/>
  <path d="m25.04 119.8 0.97 16.11 6.48-0.23 139.6 1.35 2.66-15.9-149.7-1.33z" fill="#05A9A5" stroke="#028980" stroke-miterlimit="10" stroke-width="1.3"/>
  <path d="m26.46 120.3 2.35 14.93 6.94-2.17 3.47-8.67-12.76-4.09z" fill="#EA6250" stroke="#EA6250" stroke-miterlimit="10" stroke-width="1.3"/>
  <path d="m159.7 122.3 2.25 10.03 5.56 4.1 5.34-0.07 1.02-15.26-14.17 1.2z" fill="#F57B66" stroke="#F57B66" stroke-miterlimit="10" stroke-width="1.3"/>
  <path d="m26.69 120.3 50.07 12.68 98.02-11.85-1.59 0.94-96.11 11.9-50.39-13.67z" fill="#FAC758" stroke="#FAC758" stroke-miterlimit="10" stroke-width="1.3"/>
  <path d="m27.9 164.5 1.23 14.39 10.96 3.71-1.63-9.65-10.56-8.45z" fill="#EA6250" stroke="#EA6250" stroke-miterlimit="10" stroke-width="1.3"/>
  <path d="m170.3 165.6-1.83 14.58-13.38 2.4 1.24-8.81 6.36-6.86 7.61-1.31z" fill="#F57B66" stroke="#F57B66" stroke-miterlimit="10" stroke-width="1.3"/>
  <path d="m33.23 165.4 34.17 15.36-1.88 11.08-25.46-9.05-6.83-17.39z" fill="#EFB050" stroke="#EFB050" stroke-miterlimit="10" stroke-width="1.3"/>
  <path d="m77.07 180 80.04-6.32-2.13 9.1-62.8 10.7-1.64-8.41-13.47-5.07z" fill="#EFB050" stroke="#EFB050" stroke-miterlimit="10" stroke-width="1.3"/>
  <path d="m32.61 145.6 37.32 10.89" stroke="#028980" stroke-miterlimit="10" stroke-width=".7"/>
  <path d="m33.81 159.1 36.37 14.39" stroke="#028980" stroke-miterlimit="10" stroke-width=".7"/>
  <path d="m85.31 156.5 79.22-11.04" stroke="#028980" stroke-miterlimit="10" stroke-width=".7"/>
  <path d="m84.9 173.7 77.99-11.18" stroke="#028980" stroke-miterlimit="10" stroke-width=".7"/>
  <path d="m70.1 145.1 0.31 34.67 6.61 0.31v-46.6l-6.92-2.36v13.98z" fill="#FAC758" stroke="#FAC758" stroke-miterlimit="10" stroke-width="1.3"/>
  <path d="m84.63 145.7v33.58l5.91 5.1 1.69 9.3-14.55 2.44-0.47-16.09 0.47-46.6 7.63-0.04-0.68 12.31z" fill="#F57B66" stroke="#F57B66" stroke-miterlimit="10" stroke-width="1.3"/>
  <path d="m65.21 131.1 10 2.43 1.7-0.17v15.56c-8.62-0.75-11.92-10.23-11.7-17.82z" fill="#EA6250" stroke="#EA6250" stroke-miterlimit="10" stroke-width="1.3"/>
  <path d="m92.58 131.8c-0.75 8.95-7.06 16.25-14.9 16.89v-15.32l14.9-1.57z" fill="#F57B66" stroke="#F57B66" stroke-miterlimit="10" stroke-width="1.3"/>
  <path d="m120.2 126.7 15.57 0.04v12.31c0 5.12-4.76 7.87-7.93 7.48-4.05-0.31-7.53-2.49-7.64-6.9v-12.93z" fill="#F57B66" stroke="#F57B66" stroke-miterlimit="10" stroke-width="1.3"/>
  <path d="m128.7 135.9c0-1.55-1.05-2.3-1.71-2.25-1.18 0.08-1.74 1.11-1.63 2.34 0.06 0.73 0.52 1.46 1.05 1.81l-0.82 4.23h3.28l-0.9-4.44c0.39-0.36 0.73-0.94 0.73-1.69z" fill="#028980" stroke="#028980" stroke-miterlimit="10" stroke-width=".7"/>
  <path d="m32.95 176.1c1.3 0 2.03-0.78 2.03-1.86 0-1.07-0.87-1.8-1.75-1.8-1.11 0-1.78 0.92-1.78 1.73 0 1.12 0.74 1.93 1.5 1.93z" fill="#FAC758" stroke="#CA8036" stroke-miterlimit="10" stroke-width="1.3"/>
  <path d="m71.55 188.6c1.11 0 1.77-0.92 1.77-1.73 0-1.13-0.87-1.78-1.61-1.78-1.11 0-1.78 0.92-1.78 1.73 0 0.97 0.77 1.78 1.62 1.78z" fill="#EFB050" stroke="#CA8036" stroke-miterlimit="10" stroke-width="1.3"/>
  <path d="m84.22 189.1c1.11 0 1.77-0.92 1.77-1.73 0-1.12-0.87-1.77-1.62-1.77-1.1 0-1.77 0.91-1.77 1.72 0 1.07 0.76 1.78 1.62 1.78z" fill="#EFB050" stroke="#CA8036" stroke-miterlimit="10" stroke-width="1.3"/>
  <path d="m163.7 176.7c1.11 0 1.77-0.91 1.77-1.72 0-1.12-0.87-1.78-1.61-1.78-1.11 0-1.78 0.92-1.78 1.73 0 1.07 0.77 1.77 1.62 1.77z" fill="#EFB050" stroke="#CA8036" stroke-miterlimit="10" stroke-width="1.3"/>
  <path d="m30.06 128.2c0 1.08 0.87 1.81 1.73 1.81 1.1 0 1.77-0.92 1.77-1.73 0-1.13-0.87-1.84-1.73-1.84-1.11 0-1.77 0.95-1.77 1.76z" fill="#EFB050" stroke="#CA8036" stroke-miterlimit="10" stroke-width="1.3"/>
  <path d="m167.1 129.1c0 1.08 0.86 1.81 1.72 1.81 1.11 0 1.78-0.92 1.78-1.73 0-1.12-0.87-1.83-1.73-1.83-1.11 0-1.77 0.94-1.77 1.75z" fill="#EFB050" stroke="#CA8036" stroke-miterlimit="10" stroke-width="1.3"/>
  <path d="m71.08 138.7c0 1.07 0.86 1.8 1.73 1.8 1.11 0 1.77-0.92 1.77-1.73 0-1.12-0.86-1.83-1.73-1.83-1.1 0-1.77 0.95-1.77 1.76z" fill="#EFB050" stroke="#CA8036" stroke-miterlimit="10" stroke-width="1.3"/>
  <path d="m82.78 139.4c0 1.08 0.87 1.81 1.73 1.81 1.11 0 1.78-0.92 1.78-1.73 0-1.12-0.87-1.83-1.73-1.83-1.11 0-1.78 0.94-1.78 1.75z" fill="#EFB050" stroke="#CA8036" stroke-miterlimit="10" stroke-width="1.3"/>
  <path d="m60.04 146.7c-3.01 1.43-4.31 12.19-11.87 13.85-3.44 0.77-6.68-2.37-6.68-6.57 0-4.26 0.87-8.13 1.68-10.11 0.8-2.24-2.29-3.52-3.54-1.35-2.41 4.38-3.41 13.79-0.34 17.85 2.14 3.02 7.08 4.32 10.32 2.81 7.2-3.16 8.82-11.75 11.53-13.99 1.87-1.44 0.87-3.38-1.1-2.49z" fill="#FAC758" stroke="#CA8036" stroke-miterlimit="10" stroke-width=".7"/>
  <path d="m40.63 145.3-0.48 1.5c-1.47 0.99-1.71 4.15-1.32 6.08l0.65 0.82c-0.07-2.91 0.29-5.71 1.15-8.4z" fill="#D39D55"/>
  <path d="m42.32 157.8-1.31-0.53c0.15 1.25 1.65 2.65 2.61 3.02l1.4 0.1c-1.25-0.69-2.31-1.63-2.7-2.59z" fill="#D39D55"/>
  <path d="m48.72 160.9 1.35-0.56c1.99-1.24 3.67-3.74 4.47-5.41l0.98 0.43c-1.26 2.57-3.96 4.87-6.8 5.54z" fill="#D39D55"/>
  <path d="m58.76 150 1.21-2.04 0.12-0.49 0.9 0.54-1.36 2.43-0.87-0.44z" fill="#D39D55"/>
  <path d="m116.7 86.67 16.03-26.96 7.01-0.35c2.43 4.92 9.19 6.96 16.11 5.34l7.23 4.58-6.36 52.72-40.02 0.41v-35.74z" fill="#D35144" stroke="#C14338" stroke-miterlimit="10" stroke-width="1.3"/>
  <path d="m139.6 65.06c-2.24 0-3.38 1.62-3.38 3.02 0 2.09 1.49 3.38 2.99 3.38 2.12 0 3.46-1.75 3.46-3.15 0-1.69-1.38-3.25-3.07-3.25z" fill="#AD4238" stroke="#AD4238" stroke-miterlimit="10" stroke-width="1.3"/>
  <path d="m152.2 68.46c-2.08 0-3.14 1.55-3.14 2.77 0 1.86 1.37 2.98 2.73 2.98 1.94 0 3.16-1.6 3.16-2.85 0-1.5-1.29-2.9-2.75-2.9z" fill="#AD4238" stroke="#AD4238" stroke-miterlimit="10" stroke-width="1.3"/>
  <path d="m139.9 65.85c-1.87 0-2.79 1.4-2.79 2.56 0 1.77 1.34 2.85 2.6 2.85 1.84 0 2.99-1.55 2.99-2.77 0-1.38-1.34-2.64-2.8-2.64z" fill="#FAC758" stroke="#CA8036" stroke-miterlimit="10" stroke-width=".7"/>
  <path d="m152.4 69.11c-1.74 0-2.59 1.37-2.59 2.46 0 1.69 1.25 2.71 2.51 2.71 1.74 0 2.86-1.59 2.86-2.79 0-1.34-1.32-2.38-2.78-2.38z" fill="#FAC758" stroke="#CA8036" stroke-miterlimit="10" stroke-width=".7"/>
  <path d="m68.94 105.9 3.65 0.3-0.67 6.92 0.2-1.04 10 20.91 12.86-3.85 2.96-3.04 16.25 2.5c-1.26-4.65-0.47-14.59 5.03-24.45l4.26-9.3c-5.17-8.38-9.09-12.33-12.41-13.15l1.15-10.66 0.64 2.31 3.57-0.75 5.58-2.09-1.2-5.62-2.87-3.72-5.28-1.18h-21.92l-7.12 4.9-0.84 4.17 2.42 0.97-1.58 0.27 2.09 1.12-0.41 0.85 2.35 0.33 0.96-0.9 0.72-0.48 0.29 1.38 2.19-0.69-1.42 9.49c-8.81 3.63-15.37 12.08-21.45 24.5z" fill="#F57059" stroke="#D35144" stroke-miterlimit="10" stroke-width="1.3"/>
  <path d="m93.23 66.08 2.01 14.77 6.52 4.16 6.71-3.8 2.59-16.24-0.48-5.92h-1.49c0.42 2.36-0.28 4.86-4.02 4.86-1.69 0-2.71 1.12-3.46 2.38-0.95-1.67-2.75-2.38-5.35-2.38-1.85 0-2.79-1.66-2.27-4.86l-0.97 0.07 0.21 6.96z" fill="#F57B66" stroke="#05A9A5" stroke-miterlimit="10" stroke-width="1.3"/>
  <path d="m91.65 81.09 1.56-1.65 8.38 5.07 10.45-4.59 0.86 2.09c-4.47 1.07-8.81 2.05-11.47 4.38l-9.78-5.3z" fill="#05A9A5" stroke="#028980" stroke-miterlimit="10" stroke-width="1.3"/>
  <path d="m101.4 86.38c2.33 8.71 6.16 16.79 13.64 20.73l-1.62 1.97c-8.3-5.99-11.46-16.04-12.02-22.7z" fill="#D35144" stroke="#D35144" stroke-miterlimit="10" stroke-width=".7"/>
  <path d="m138.6 89.01c-5.65-0.14-25.73 16.04-26.86 30.09-0.43 5.56 2.41 9.21 3.88 9.21l13.33-2.65c-2.36-3.72-4.53-4.75-6.02-5.66 4.48 0.46 9.48-0.07 15.51-3.87 3.73-2.39 4.7-17.24 3-24.39-0.41-1.89-1.37-2.7-2.84-2.73zm-3.25 6.1c1.76-0.36 3.25 1 3.25 2.74 0 1.46-1.26 2.52-2.52 2.52-1.54 0-2.75-1.48-2.75-2.73 0-1.15 0.87-2.27 2.02-2.53zm-18.53 22.97c-1.67-0.55-1.67-3.22 0.42-6.18 2.8-3.97 7.34-6.11 9.16-4.74 1.32 1.01-0.43 5.27-2.72 8.26-1.97 2.7-4.91 3.3-6.86 2.66z" fill="#FAC758" stroke="#EFB050" stroke-miterlimit="10" stroke-width="1.3"/>
  <path d="m135.1 101.8c-1.13 0-5.89-7.12-5.89-7.12-2.16 0-6.99 12.24-6.99 17.41 0 5.74 4.75 9.94 9.85 9.94 4.76 0 8.35-2.9 10.05-5.94 1 3.65 4.59 8.58 6.18 8.58 6.47-0.75 12.18-2.57 12.18-13.23 0-4.58-0.3-8.47-1.26-8.47l-6.2 3.83c-5.56-3.17-11.71-5-17.92-5zm-0.9 12.04c-2.59 0-4.92-2.35-4.92-4.71 0-1.67 2.67-2.07 4.19-1.67 2.66 0.75 4.9 2.84 4.9 4.36 0 1.03-1.94 2.02-4.17 2.02zm15.87 3.23c-2.8 0-5.04-2.36-5.04-3.95 0-1.5 3.22-2.82 5.04-2.82 2.59 0 4.56 2.43 4.56 3.54 0 1.12-2.14 3.23-4.56 3.23zm7.6-5.83-3.66-4.05 4.23-2.57c0.86 0.57 0.58 5.34-0.57 6.62zm-29.77-8.21 2.03-5.69 3.77 4.78-5.8 0.91z" fill="#22B5B3" stroke="#05A9A5" stroke-miterlimit="10" stroke-width="1.3"/>
  <path d="m138.2 116.1 1.78-0.97 2.85 0.62 0.36 1.54-2.32 1.92-2.67-3.11z" fill="#F57B66" stroke="#F57B66" stroke-miterlimit="10" stroke-width=".7"/>
  <path d="m66.17 94.61c0.45 3.1 3.55 5.92 6.56 7.47l-1.1 3.03c-4.48-2.2-6.72-6.64-7-10.1l1.54-0.4z" fill="#F57059" stroke="#D35144" stroke-miterlimit="10" stroke-width=".7"/>
  <path d="m60.46 112.1c-3.23 1.02-4.25 5.1-4.39 7.11l-10.06 8.04c-0.27-5.62 2.82-11.11 7.67-13.5l-2.29-2.65 2.53-3.03-1.7-4.17 0.68-8.87 2.03 0.56 2.87 4.12 0.07 8 2.59 4.39z" fill="#05A9A5" stroke="#109590" stroke-miterlimit="10" stroke-width="1.3"/>
  <path d="m60.42 46.96-4.48 0.4-1.23-2.14-4.26 2.44-1.74-2.5-4.54 4-2.56-1.03-9.2 4.88-2.35-3.31-2.43 2.7 2.09 1.26-3.11 5.55 0.62 1.19 1.84-1.37-1.06 5.75 2.6-0.28-0.45 5.12 1.55 0.49 1.49-1.49-0.71 3.52 1.79 0.47 2.29-3.58 1.97-0.92 2.27-3.05-1.11-4.88 3.47-2.77 1.36-1.37 1.38 1.77 2.14-0.5 0.66-2.97 1.9 2.36 5.56-0.46 3.16-3.23 2.28-2.97-1.19-3.08z" fill="#22B5B3" stroke="#22B5B3" stroke-miterlimit="10" stroke-width="1.3"/>
  <path d="m48.32 69.98-3.47-2.97-2.82-1.3-1.7 1.3 0.78 3.79-2.09 1.26 0.35 3.16 1.54 0.89-2.22 2.04 0.68 2.45 2.24 0.72-2.59 2.8-0.96 2.5 2.13-0.28-3.04 4.72-0.14 2.43 2.49 0.23 4.32-3.65 0.8-3.95 2.14 0.39 0.86-2.21-2.66-4 2.66 0.5 1.26-2.58-2.53-3.38 2.87-0.41-0.21-2.77-2.25-1.62 1.56-0.06z" fill="#22B5B3" stroke="#22B5B3" stroke-miterlimit="10" stroke-width="1.3"/>
  <path d="m50.81 87.17 1.35 2.43-2.03 3.41 1.96 2.59-1.84 4.12-0.24 3.9-1.96 3.58-1.94-2.65-1.84-5.34-4 1.97-1.25-1.4 3.72-5.07-2.55-0.47 5.56-5.48 1.97-3.75 3.09 2.16z" fill="#22B5B3" stroke="#22B5B3" stroke-miterlimit="10" stroke-width="1.3"/>
  <path d="m59.04 100.4-1.39-3.1 0.96-3.95 1.26-2.97-1.66-1.34 3.4-3.58-2.35-2.36 1.03-2.97 2.87-1.55-3.15-1.76 1.75-3.16 1.87-2.22-2.33-3.41 1.71-2.93 9.92-2.97 1.97 1.09-0.59 3.52-2.19 0.4 2.66 1.69v2.97l-3.3 1.05 1.7 2.24-2.09 1.8 0.59 2.23 2.24 1.82 0.98 4.8-1.79 3.23-1.49-0.82-2.88-9.2 0.47 5.14 0.96 3.06-0.45 3.29-2.66 0.65-0.75 3.16 1.36 2.64-3.24 0.62-0.24 4.33 0.56 3.82-2.59-0.41-3.12-4.85z" fill="#22B5B3" stroke="#22B5B3" stroke-miterlimit="10" stroke-width="1.3"/>
  <path d="m60.46 113 2.51-1.82v2.36l2.49-2.55 1.13 1.02 2.86-2.36 0.59 1.25-0.87 3.82-2.52 1.28-2.56 6.1-2.87 5.23-3.65 0.91-2.18-4.09 1.36-1.12c3.34-0.3 4.12-4.82 3.71-10.03z" fill="#22B5B3" stroke="#109590" stroke-miterlimit="10" stroke-width="1.3"/>
  <path d="m60.9 112.2 11.89-1.24 0.32 2.7-15.74 1.16v10.29l-2.66 0.96-0.69-1.65 2.24-0.85 0.36-10.97 4.28-0.4z" fill="#FAC758" stroke="#CA8036" stroke-miterlimit="10" stroke-width="1.3"/>
  <path d="m39.4 101.5c4.32 0.56 9.41 5.49 11.57 11.12l3.83 11.28-1.79 0.17c-5.99-5.73-11.82-14.08-16.85-14.17l1.2-3.85 2.04-4.55z" fill="#F57B66" stroke="#D35144" stroke-miterlimit="10" stroke-width=".7"/>
  <path d="m43.28 99.16-0.42 6.41-2.05 0.89" stroke="#D35144" stroke-miterlimit="10" stroke-width=".7"/>
  <path d="m40.27 107.9 2.52 1.26" stroke="#D35144" stroke-miterlimit="10" stroke-width=".7"/>
  <path d="m48.49 110 1.36 3.1" stroke="#D35144" stroke-miterlimit="10" stroke-width=".7"/>
  <path d="m52.81 100.1 1.11 2.71" stroke="#D35144" stroke-miterlimit="10" stroke-width=".7"/>
  <path d="m53.13 106.1 1.56 2.36" stroke="#D35144" stroke-miterlimit="10" stroke-width=".7"/>
  <path d="m54.8 107.3 0.41 15.62" stroke="#D35144" stroke-miterlimit="10" stroke-width=".7"/>
  <path d="m66.31 69.14c0.75 3.89 3.35 6.32 11.37 7.72l-0.53 1.22c-1.42 1.07-8.13-1.43-10.48-6.85l-0.36-2.09z" fill="#F57059" stroke="#D35144" stroke-miterlimit="10" stroke-width=".7"/>
  <path d="m45.6 81.76c0.59 4.23-1.77 8.2-7.54 10.32l3.66-4.72 3.88-5.6z" fill="#F57059" stroke="#D35144" stroke-miterlimit="10" stroke-width=".7"/>
  <path d="m38.61 68.16c-1.35 0.75-3.88 5.6-3.52 11.73l1.42 2.62 1.35-2 0.2-6.1 0.55-6.25z" fill="#F57B66" stroke="#D35144" stroke-miterlimit="10" stroke-width=".7"/>
  <path d="m69.61 43.95c-5.9 0.86-8.43 7.05-6.8 9.71-4.63-0.2-7.76 4.15-6.1 7.76-4.76-0.2-5.22 6.5-2.62 7.1 1.84 0.49 2.86-1.17 3.2-2.03l-3.13 5.49 0.76 0.19c8.4-9.31 18.84-14.5 34.87-13.45l5.25 0.07-0.27-1.55-2.94-0.41c2.53-1.72 1.94-6.72-2.89-6.72-2.53 0-3.66 1.72-3.82 2.41-0.95-3.58-5.83-4.71-8.06-2.68-0.59-4.12-4.73-6.31-7.45-5.89zm13.51 4.18c3.01-0.81 4.67 2.69 3.49 4.78-0.87 1.65-2.03 1.72-3.21 1.3-0.49-0.2-0.69-0.95 0-1.61 1.03-0.97 2.88 0.21 1.86 1.33l0.75-0.12c0.75-2.36-1.54-3.9-3.43-2.67-1.85 1.19-2.43 3.73-3.39 4.97-0.3-3.45 0.45-6.97 3.93-7.98zm-16.48 1.1 3.86-0.7 1.56-3.1 1.77 3.1 3.92 0.41-2.24 3.23 1.63 4.39-4.83-1.19-6.59 1.97 2.23-3.53-2.94-2.9 1.63-1.68zm-5.39 6.86c2.96-0.57 4.52 1.15 5.48 3.05-1.55 0.07-2.57-2.11-4.71-1.63-2.8 0.66-2.86 3.55-1.84 4.31h-1.56c-1.36-1.9-0.61-5.06 2.63-5.73zm-6.8 9.51c0-1.5 1.26-2.06 2.22-1.84 1.04 0.27 1.34 1.6 0.79 2.52-0.79 1.33-3.01 0.99-3.01-0.68zm35.24-13.2c1.77-0.69 3.2 0.61 2.92 2.16-0.27 1.41-1.87 1.68-2.99 1.21-1.36-0.59-1.21-2.89 0.07-3.37z" fill="#FAC758" stroke="#FAC758" stroke-miterlimit="10" stroke-width="1.3"/>
  <path d="m62.79 35.02-29.37 12.07v2.68l0.49 0.27 29.25-12.98 0.16-1.27-0.53-0.77z" fill="#F57B66" stroke="#F57B66" stroke-miterlimit="10" stroke-width="1.3"/>
  <path d="m37.39 16.02c-2.42 0-2.88 2.36-2.56 2.95 0.48 0.89 1.17 1.64 2.53 1.64 1.73 0 2.35-1.55 2.35-2.37 0-1.12-0.95-2.22-2.32-2.22z" fill="#F57B66" stroke="#F57B66" stroke-miterlimit="10" stroke-width="1.3"/>
  <path d="m29.29 27.11c0 1.37 1.1 1.93 1.86 1.93 1.25 0 2.01-1.12 2.01-1.93 0-1.13-1.02-1.88-1.95-1.88-1.11 0-1.92 1.03-1.92 1.88z" fill="#F57B66" stroke="#F57B66" stroke-miterlimit="10" stroke-width="1.3"/>
  <path d="m55.94 17.16c0 1.33 0.79 1.85 1.71 1.85 1.11 0 1.49-1.19 1.49-1.92 0-0.97-0.86-1.59-1.55-1.59-0.97 0-1.65 0.96-1.65 1.66z" fill="#F57B66" stroke="#F57B66" stroke-miterlimit="10" stroke-width="1.3"/>
  <path d="m47.29 17.78c0 1.26 0.96 1.88 1.75 1.88 1.18 0 1.77-1.12 1.77-1.94 0-1.02-1.06-1.71-1.92-1.71-1.1 0.01-1.6 1.03-1.6 1.77z" fill="#F57B66" stroke="#F57B66" stroke-miterlimit="10" stroke-width="1.3"/>
  <path d="m21.26 33.19c0 1.47 1.15 2.12 2.08 2.12 1.5 0 2.24-1.36 2.1-2.48-0.21-1.36-1.47-1.67-2.23-1.6-1.03 0.13-1.95 0.98-1.95 1.96z" fill="#F57B66" stroke="#F57B66" stroke-miterlimit="10" stroke-width="1.3"/>
  <path d="m37.11 20.68 0.55 10.22-7.66-2.84 0.13 8-6.85-2.74 9.91 14.88 0.97 0.47 27.93-13.51-4.11-17.14-1.85 4.68-6.12-4.88-2.35 8.25-10.55-5.39z" fill="#FAC758" stroke="#FAC758" stroke-miterlimit="10" stroke-width="1.3"/>
  <path d="m35.69 37.85 2.66 0.55-0.34 3.23-2.32-1.55v-2.23z" fill="#05A9A5" stroke="#05A9A5" stroke-miterlimit="10" stroke-width="1.3"/>
  <path d="m52.81 31.88 0.75 0.34 0.27 2.43-1.16-1.55 0.14-1.22z" fill="#05A9A5" stroke="#05A9A5" stroke-miterlimit="10" stroke-width="1.3"/>
  <path d="m42.29 33.73 2.32-2.43 2.53 2.43v3.72l-1.77 1.86-3.08-3.07v-2.51z" fill="#F55A4B" stroke="#F55A4B" stroke-miterlimit="10" stroke-width="1.3"/>
  <path d="m138 18.59c-0.75 4.22 0.8 8.94 6.43 10.91 7.62 2.79 12.95-2.47 17.71-3.29 3.91-0.7 8.24 1.03 10.58 3 3.96-3.74 2.7-11.86-5.52-14.43-7.7-2.07-11.11 2.93-18.27 3.63-3.84 0.45-4.89-0.31-5.85-1.27-0.07 2.97 2.8 4.33 4.83 4.47-5.19 1.19-8.85-0.78-9.91-3.02z" fill="#020203" opacity=".23"/>
  <path d="m138.7 19.08c-1.02 2.77-0.62 8.23 6.68 10.27 6.79 1.9 11.7-2.76 17.53-3.51 4.23-0.56 7.52 1.58 9.59 3.82 4.1-3.65 2.17-12.24-6.47-15.07-7.94-1.97-10.88 3.58-18.58 4.03-3.11 0.21-3.8-0.44-4.66-1.26-0.15 1.36 1.14 3.18 3.66 3.25-3.23 1.48-6.71 0.51-7.75-1.53z" fill="#05A9A5" stroke="#05A9A5" stroke-miterlimit="10" stroke-width="1.3"/>
  <path d="m167.1 28.61c1.1-0.1 2.95-0.46 6.09 0.57l1.1 1.97-0.86 1.06-6.54-2.74 0.21-0.86z" fill="#F55A4B" stroke="#F55A4B" stroke-miterlimit="10" stroke-width="1.3"/>
  <path d="m170.1 30.32c7.41 3.3 14.04 11.89 11.92 20.41l-1.11 2.36c1.67 0.75 2.22 2.19 1.26 4.7-1.03 2.77-2.62 2.77-4.32 2.12l-0.52 6.1c-2.03 1.4-4.56 2.39-6.53 2.25l3.99-9.56-12.64-3.23-16.39-9.45 1.36-6.59c6-8.38 15.13-12.5 22.98-9.11z" fill="#FAC758" stroke="#CA8036" stroke-miterlimit="10" stroke-width="1.3"/>
  <path d="m145.2 39.71-1.47 0.59-1.26 4.72 1.13 2.14 1.78 0.97 0.56-0.9-0.49-0.53 1.36 0.75-1.61-7.74z" fill="#FAC758" stroke="#CA8036" stroke-miterlimit="10" stroke-width="1.3"/>
  <path d="m145.3 46.1 5.76-5.3 10.38-2.09 6.37 2.7 12.19 9.76-0.7 6.17c-4.13-0.16-15.76-3.22-25.81-8.81l-8.19-3.98v1.55z" fill="#FAC758" stroke="#CA8036" stroke-miterlimit="10" stroke-width="1.3"/>
  <path d="m152.8 40.94-2.36 4.88" stroke="#CA8036" stroke-miterlimit="10" stroke-width="1.3"/>
  <path d="m157.8 39.91-2.93 9.04" stroke="#CA8036" stroke-miterlimit="10" stroke-width="1.3"/>
  <path d="m163.7 39.44-3.96 11.5" stroke="#CA8036" stroke-miterlimit="10" stroke-width="1.3" stroke-mfill="#F6F6F6"/>
  <path d="m170.6 42.34-4.48 10.61" stroke="#CA8036" stroke-miterlimit="10" stroke-width="1.3"/>
  <path d="m175.6 45.75-2.93 8.46" stroke="#CA8036" stroke-miterlimit="10" stroke-width="11"/>
  <path d="m144.5 58.67-4.33-5.66 2.53-5.56 5.76 2.83-3.96 8.39z" fill="#FAC758" stroke="#FAC758" stroke-miterlimit="10" stroke-width="1.3"/>
  <path d="m80.55 28.4c4.55 2.24 8.17 0.61 10.31-0.58" fill="#05A9A5" stroke="#028980" stroke-linecap="round" stroke-linejoin="round" stroke-miterlimit="10" stroke-width="1.3"/>
  <path d="m88.71 40.76c10.6-0.55 20.33 1.45 31.97 10.26l-0.62 2.24c-6.46-6.25-14.31-11-30.95-10.24l-0.4-2.26z" fill="#F56754" stroke="#D35144" stroke-linecap="round" stroke-linejoin="round" stroke-miterlimit="10" stroke-width="1.3"/>
  <path d="m95.39 22.76c3.33-3.42 1.97-9.62 0.87-10.37l-0.75-3.55-4.87-4.42-1.43-1.97-4 0.39-1.46 1.46-0.41 2.71 4.06 3.72-3.13 0.55 3.74 2.8-0.57-1.14-1.43-1.03c-3.13-0.96-5.99-2.85-10.47-0.35l-1.23 1.97 0.86 2.09" fill="#F86658" stroke="#D35144" stroke-linecap="round" stroke-linejoin="round" stroke-miterlimit="10" stroke-width=".7"/>
  <path d="m65 191.6 11.16 4.39-0.12-14.92-2.42-3.04-5.33 0.88-3.16 4.23-0.13 8.46z" fill="#D35144" stroke="#D35144" stroke-linecap="round" stroke-linejoin="round" stroke-miterlimit="10" stroke-width="1.3"/>
  <path d="m86.21 12.73 2.53-2.13-3.55-2.23" stroke="#D35144" stroke-linecap="round" stroke-linejoin="round" stroke-miterlimit="10" stroke-width=".7"/>
  <path d="m89.51 6.12 1.56 0.88 2.53 1.96" stroke="#D35144" stroke-linecap="round" stroke-linejoin="round" stroke-miterlimit="10" stroke-width=".7"/>
  <path d="m95.24 11.36-0.01 4.28v4.85" stroke="#D35144" stroke-linecap="round" stroke-linejoin="round" stroke-miterlimit="10" stroke-width=".7"/>
  <path d="m65.87 188.4 0.31 1.72 10.31 4.99-0.13-0.85v-14.02l-1.66-0.97-5.99 0.75-2.86 4.16 0.02 4.22z" fill="#F57059" stroke="#F57059" stroke-linecap="round" stroke-linejoin="round" stroke-miterlimit="10" stroke-width="1.3"/>
  <path d="m147.1 123-5.5-0.19c-3.34-1.77-7.81-2.11-9.78 0.03l0.06 1.9 6.52 0.74 6.92-0.82 1.78-1.66z" fill="#05A9A5" stroke="#05A9A5" stroke-linecap="round" stroke-linejoin="round" stroke-miterlimit="10" stroke-width="1.3"/>
  <path d="m119 121.7-3.73 0.66 0.23 4.92h6.31l6.82-0.96-1.64-3.57-7.99-1.05z" fill="#FAC758" stroke="#FAC758" stroke-linecap="round" stroke-linejoin="round" stroke-miterlimit="10" stroke-width="1.3"/>
  <path d="m74.74 180.1 1.77 0.28 0.38 2.5-0.28 11.2-0.55 1.02-1.32 0.53-0.13-16.57 0.13 1.04z" fill="#D35144" stroke="#D35144" stroke-linecap="round" stroke-linejoin="round" stroke-miterlimit="10" stroke-width="1.3"/>
  <path d="m84.32 111.9-2.42-2.06-8.97-2.1 8.14-19.21 3.64 0.76 12.16 4.51 10.59 19.54 1.29 5.52-0.54 9.59-7.17 1.73-11.03 0.47-2.86-1.48-1.66-5.87 3.03-3.82-4.06-2.15-0.14-5.43z" fill="#FAC758" stroke="#EFB050" stroke-linecap="round" stroke-linejoin="round" stroke-miterlimit="10" stroke-width="1.3"/>
  <path d="m107.2 116.2" fill="#FAC758" stroke="#EFB050" stroke-linecap="round" stroke-linejoin="round" stroke-miterlimit="10" stroke-width="1.3"/>
  <path d="m85.99 94.25" fill="#FAC758" stroke="#EFB050" stroke-linecap="round" stroke-linejoin="round" stroke-miterlimit="10" stroke-width="1.3"/>
  <path d="m104.2 118" fill="#FAC758" stroke="#EFB050" stroke-linecap="round" stroke-linejoin="round" stroke-miterlimit="10" stroke-width=".7"/>
  <path d="m93.91 127.3 2.25-4.42 4.95-1.35 1.56 0.13 1.65 2.43-5.05 5.42-5.65-0.85 0.29-1.36z" fill="#FAC758" stroke="#EFB050" stroke-linecap="round" stroke-linejoin="round" stroke-miterlimit="10" stroke-width=".7"/>
</svg>