<svg xmlns="http://www.w3.org/2000/svg" width="200" height="200" viewBox="0 0 200 200">
<!-- SVG created with Arrow, by QuiverAI (https://quiver.ai) -->
  <path d="m157.7 73.83h0.4c4.29 0 7.1 3.46 7.1 7.13v11.03c0 4.12-3.09 6.52-7.5 6.52v-24.68z" fill="#000" opacity=".15"/>
  <path d="m158.1 73.25h-0.2c3.13 0 6.72 2.73 6.72 7.09v11.33c0 4.36-3.46 6.37-6.72 6.37v-24.79h0.2z" fill="#F39F6B"/>
  <path d="m111.6 23.64h-30.76c-9.47 0-16.1 8.02-16.1 17.14v5.92l9.2 0.07v-6.05c0-4.05 3.26-6.53 6.8-6.53h23.6l7.26-10.55z" fill="#F27A68" stroke="#F27A68" stroke-miterlimit="10" stroke-width=".7"/>
  <path d="m134.1 46.21h-68.85c-12.94 0-23.25 11.55-23.25 25.75v82.59c0 13.17 10.7 24.34 24.06 24.34h68.13c12.89 0 23.21-11.64 23.21-24.39v-83.03c0-13.71-10.44-25.26-23.3-25.26zm-1.07 31.15h-65.75c-2.33 0-4-1.67-4-4.02 0-2.36 1.87-4.23 4.1-4.23h65.39c2.43 0 4.32 1.87 4.32 4.23-0.02 2.35-1.89 4.02-4.06 4.02z" fill="#000" opacity=".15"/>
  <path d="m133.8 46.16h-68.45c-12.75 0-23.5 11.22-23.5 25.67v82.25c0 12.99 10.31 24.81 23.76 24.81h68.32c12.85 0 23.3-11.82 23.3-24.92v-82.63c0-13.96-10.58-25.18-23.43-25.18zm-1.06 33.79h-65.76c-4.58 0-7.26-3.49-7.26-6.55 0-4.32 3.33-7.07 6.99-7.07h65.93c4.01 0 6.81 3.28 6.81 6.89 0 3.85-3.24 6.73-6.71 6.73z" fill="#80CCBC"/>
  <path d="m134.6 35.49-8.65-15.79c-4.23-3.17-9.98-3.17-12.8 0.92l-34.58 49.83c-2.46 3.71-2.12 6.02-1.4 6.26l49.29 0.26 22.59-29.71c2.61-3.84 1.49-9.54-3.31-12.11l-11.14 0.34z" fill="#1D1D1B" fill-opacity=".25"/>
  <path d="m125.6 19.39c-4.75-3.77-10.81-2.31-12.8 1.23l-34.7 50.37c-1.93 2.95-1.6 5.26-1.36 5.48h50.13l22-29.04c3.48-4.36 1.87-10.68-2.43-12.72l-20.84-15.32z" fill="#FACD66"/>
  <path d="m118.5 36.75c-3.21-2.17-6.87-0.54-8.09 1.57l-26.75 38 35.28-0.16 14.98-21.04c1.99-2.95 1.27-6.43-1.43-8.21l-13.99-10.16z" fill="#F77D69"/>
  <path d="m132.7 76.72h-65.76c-2.23 0-2.99-1.65-2.99-3.28 0-2.04 1.21-3.22 2.97-3.22h65.86c2.23 0 3.15 1.45 3.15 3.22-0.02 1.87-1.22 3.28-3.23 3.28z" fill="#62A89A"/>
  <path d="m99.7 94.82h-1.25c-18.43 0-33.75 16.09-33.75 36.49 0 18.51 15.16 34.49 33.91 34.49h0.7c18.33 0 35.57-15.96 35.57-34.66 0-20.1-15.76-36.32-35.18-36.32z" fill="#000" opacity=".15"/>
  <path d="m98.93 94.06h-0.63c-18.74 0-33.91 16.09-33.91 36.49 0 18.14 14.9 34.8 34.32 34.8h0.39c18.33 0 35.98-15.95 35.98-34.66 0-20.3-16.36-36.63-36.15-36.63z" fill="#F4BD51"/>
  <path d="m100.1 99.38h-1.07c-14.5 0-28.84 13.14-28.84 30.85 0 15.79 13.33 29.14 28.79 29.14h0.57c15.37 0 30.01-13.86 30.01-29.49 0-17.02-13.64-30.5-29.46-30.5z" fill="#F9CC76" stroke="#CD9F4A" stroke-miterlimit="10" stroke-width=".5"/>
  <path d="m82.83 110.1c-1.13 0-1.52 0.55-1.52 1.44 0 0.88 0.74 1.35 1.4 1.35 0.93 0 1.45-0.66 1.45-1.41s-0.48-1.38-1.33-1.38z" fill="#D8993C"/>
  <path d="m88.92 107.9c-1.13 0-1.52 0.55-1.52 1.44 0 0.88 0.74 1.35 1.39 1.35 0.94 0 1.45-0.65 1.45-1.41 0-0.75-0.47-1.38-1.32-1.38z" fill="#D8993C"/>
  <path d="m94.37 105.2c-1.13 0-1.52 0.55-1.52 1.44 0 0.88 0.74 1.35 1.39 1.35 0.94 0 1.46-0.66 1.46-1.41 0-0.76-0.48-1.38-1.33-1.38z" fill="#D8993C"/>
  <path d="m104.7 105.2c-1.13 0-1.52 0.55-1.52 1.44 0 0.88 0.74 1.35 1.4 1.35 0.93 0 1.45-0.66 1.45-1.41 0-0.76-0.48-1.38-1.33-1.38z" fill="#D8993C"/>
  <path d="m110.1 107.4c-1.13 0-1.52 0.55-1.52 1.44 0 0.88 0.74 1.35 1.39 1.35 0.94 0 1.46-0.66 1.46-1.41 0-0.76-0.48-1.38-1.33-1.38z" fill="#D8993C"/>
  <path d="m115.3 110.1c-1.13 0-1.53 0.55-1.53 1.44 0 0.88 0.75 1.35 1.4 1.35 0.94 0 1.45-0.66 1.45-1.41s-0.47-1.38-1.32-1.38z" fill="#D8993C"/>
  <path d="m121 118.1c-1.13 0-1.52 0.55-1.52 1.44 0 0.88 0.74 1.35 1.4 1.35 0.93 0 1.45-0.66 1.45-1.41 0-0.76-0.48-1.38-1.33-1.38z" fill="#D8993C"/>
  <path d="m120.1 133.6c-1.13 0-1.53 0.55-1.53 1.44 0 0.88 0.75 1.35 1.4 1.35 0.93 0 1.45-0.66 1.45-1.41 0-0.76-0.47-1.38-1.32-1.38z" fill="#D8993C"/>
  <path d="m117.9 128.6c-1.13 0-1.52 0.55-1.52 1.44 0 0.88 0.74 1.35 1.39 1.35 0.94 0 1.46-0.65 1.46-1.41 0-0.75-0.48-1.38-1.33-1.38z" fill="#D8993C"/>
  <path d="m115.7 123.7c-1.13 0-1.52 0.55-1.52 1.44 0 0.88 0.74 1.35 1.4 1.35 0.93 0 1.45-0.65 1.45-1.41 0-0.75-0.48-1.38-1.33-1.38z" fill="#D8993C"/>
  <path d="m112.6 113.7c-1.13 0-1.52 0.55-1.52 1.44 0 0.88 0.74 1.36 1.4 1.36 0.93 0 1.45-0.66 1.45-1.42 0-0.75-0.48-1.38-1.33-1.38z" fill="#D8993C"/>
  <path d="m110.1 117.1c-1.13 0-1.52 0.55-1.52 1.44 0 0.88 0.74 1.35 1.39 1.35 0.94 0 1.46-0.65 1.46-1.41 0-0.75-0.48-1.38-1.33-1.38z" fill="#D8993C"/>
  <path d="m110.4 129.1c-1.13 0-1.53 0.55-1.53 1.43 0 0.89 0.75 1.36 1.4 1.36 0.94 0 1.45-0.66 1.45-1.41 0-0.76-0.47-1.38-1.32-1.38z" fill="#D8993C"/>
  <path d="m112.6 133.6c-1.13 0-1.52 0.55-1.52 1.44 0 0.88 0.74 1.35 1.4 1.35 0.93 0 1.45-0.66 1.45-1.41 0-0.76-0.48-1.38-1.33-1.38z" fill="#D8993C"/>
  <path d="m115.7 146.5c-1.13 0-1.52 0.55-1.52 1.44 0 0.88 0.74 1.35 1.4 1.35 0.93 0 1.45-0.66 1.45-1.41 0-0.76-0.48-1.38-1.33-1.38z" fill="#D8993C"/>
  <path d="m110.4 114.9c-1.13 0-1.52 0.55-1.52 1.43 0 0.89 0.74 1.36 1.4 1.36 0.93 0 1.45-0.66 1.45-1.41 0-0.76-0.48-1.38-1.33-1.38z" fill="#D8993C"/>
  <path d="m104.6 114.9c-1.13 0-1.52 0.55-1.52 1.43 0 0.89 0.74 1.36 1.4 1.36 0.93 0 1.45-0.66 1.45-1.41 0-0.76-0.48-1.38-1.33-1.38z" fill="#D8993C"/>
  <path d="m99.11 110.1c-1.13 0-1.52 0.55-1.52 1.44 0 0.88 0.74 1.35 1.39 1.35 0.94 0 1.46-0.66 1.46-1.41s-0.48-1.38-1.33-1.38z" fill="#D8993C"/>
  <path d="m88.92 113.1c-1.13 0-1.52 0.54-1.52 1.43s0.74 1.36 1.39 1.36c0.94 0 1.45-0.66 1.45-1.41 0-0.76-0.47-1.38-1.32-1.38z" fill="#D8993C"/>
  <path d="m99.11 117.9c-1.13 0-1.52 0.55-1.52 1.44 0 0.88 0.74 1.35 1.39 1.35 0.94 0 1.46-0.66 1.46-1.41 0-0.76-0.48-1.38-1.33-1.38z" fill="#D8993C"/>
  <path d="m104.7 125.1c-1.13 0-1.52 0.55-1.52 1.43 0 0.89 0.74 1.36 1.4 1.36 0.93 0 1.45-0.66 1.45-1.41 0-0.76-0.48-1.38-1.33-1.38z" fill="#D8993C"/>
  <path d="m104.7 132.8c-1.13 0-1.52 0.55-1.52 1.44 0 0.88 0.74 1.35 1.4 1.35 0.93 0 1.45-0.65 1.45-1.41 0-0.75-0.48-1.38-1.33-1.38z" fill="#D8993C"/>
  <path d="m110.1 144.3c-1.13 0-1.52 0.55-1.52 1.43 0 0.89 0.74 1.36 1.39 1.36 0.94 0 1.46-0.66 1.46-1.41 0-0.76-0.48-1.38-1.33-1.38z" fill="#D8993C"/>
  <path d="m104.7 147.1c-1.13 0-1.52 0.55-1.52 1.43 0 0.89 0.74 1.36 1.4 1.36 0.93 0 1.45-0.66 1.45-1.41 0-0.76-0.48-1.38-1.33-1.38z" fill="#D8993C"/>
  <path d="m99.17 124.6c-1.13 0-1.52 0.55-1.52 1.44 0 0.88 0.74 1.35 1.4 1.35 0.93 0 1.45-0.66 1.45-1.41 0-0.76-0.48-1.38-1.33-1.38z" fill="#D8993C"/>
  <path d="m98.86 133.9c-1.13 0-1.52 0.55-1.52 1.44 0 0.88 0.75 1.35 1.4 1.35 0.94 0 1.45-0.65 1.45-1.41 0-0.75-0.47-1.38-1.33-1.38z" fill="#D8993C"/>
  <path d="m99.11 144.6c-1.13 0-1.52 0.55-1.52 1.43 0 0.89 0.74 1.36 1.39 1.36 0.94 0 1.46-0.66 1.46-1.41 0-0.76-0.48-1.38-1.33-1.38z" fill="#D8993C"/>
  <path d="m83.2 115.7c-1.13 0-1.52 0.55-1.52 1.43 0 0.89 0.74 1.36 1.39 1.36 0.94 0 1.45-0.66 1.45-1.41 0-0.76-0.47-1.38-1.32-1.38z" fill="#D8993C"/>
  <path d="m78.51 118.5c-1.13 0-1.53 0.55-1.53 1.43 0 0.89 0.75 1.36 1.4 1.36 0.93 0 1.45-0.66 1.45-1.41 0-0.76-0.47-1.38-1.32-1.38z" fill="#D8993C"/>
  <path d="m78.51 126.5c-1.13 0-1.53 0.55-1.53 1.44 0 0.88 0.75 1.35 1.4 1.35 0.93 0 1.45-0.66 1.45-1.41 0-0.76-0.47-1.38-1.32-1.38z" fill="#D8993C"/>
  <path d="m77.74 133.9c-1.13 0-1.52 0.55-1.52 1.44 0 0.88 0.74 1.35 1.39 1.35 0.94 0 1.46-0.65 1.46-1.41 0-0.75-0.48-1.38-1.33-1.38z" fill="#D8993C"/>
  <path d="m78.11 139.3c-1.13 0-1.53 0.55-1.53 1.43 0 0.89 0.75 1.36 1.4 1.36 0.94 0 1.46-0.66 1.46-1.41 0-0.76-0.48-1.38-1.33-1.38z" fill="#D8993C"/>
  <path d="m83.36 120.6c-1.13 0-1.52 0.55-1.52 1.44 0 0.88 0.74 1.35 1.39 1.35 0.94 0 1.46-0.65 1.46-1.4 0-0.76-0.48-1.39-1.33-1.39z" fill="#D8993C"/>
  <path d="m83.89 126.5c-1.13 0-1.52 0.55-1.52 1.44 0 0.88 0.74 1.35 1.4 1.35 0.93 0 1.45-0.65 1.45-1.41 0-0.75-0.48-1.38-1.33-1.38z" fill="#D8993C"/>
  <path d="m84.66 133.6c-1.13 0-1.53 0.55-1.53 1.44 0 0.88 0.75 1.35 1.4 1.35 0.94 0 1.45-0.65 1.45-1.41 0-0.75-0.47-1.38-1.32-1.38z" fill="#D8993C"/>
  <path d="m83.49 146.7c-1.13 0-1.52 0.55-1.52 1.44 0 0.88 0.74 1.35 1.4 1.35 0.93 0 1.45-0.66 1.45-1.41 0-0.76-0.48-1.38-1.33-1.38z" fill="#D8993C"/>
  <path d="m88.66 117.3c-1.13 0-1.52 0.55-1.52 1.43 0 0.89 0.74 1.36 1.39 1.36 0.94 0 1.46-0.66 1.46-1.41 0-0.76-0.48-1.38-1.33-1.38z" fill="#D8993C"/>
  <path d="m88.92 128.9c-1.13 0-1.52 0.55-1.52 1.44 0 0.88 0.74 1.35 1.39 1.35 0.94 0 1.45-0.66 1.45-1.41 0-0.76-0.47-1.38-1.32-1.38z" fill="#D8993C"/>
  <path d="m88.79 149c-1.13 0-1.52 0.55-1.52 1.44 0 0.88 0.75 1.35 1.4 1.35 0.93 0 1.45-0.65 1.45-1.41 0-0.75-0.47-1.38-1.33-1.38z" fill="#D8993C"/>
  <path d="m88.66 135.8c-1.13 0-1.52 0.55-1.52 1.44 0 0.88 0.74 1.35 1.39 1.35 0.94 0 1.46-0.65 1.46-1.41 0-0.75-0.48-1.38-1.33-1.38z" fill="#D8993C"/>
  <path d="m88.5 144.4c-1.13 0-1.52 0.55-1.52 1.43 0 0.89 0.74 1.36 1.39 1.36 0.94 0 1.45-0.66 1.45-1.41 0-0.76-0.47-1.38-1.32-1.38z" fill="#D8993C"/>
  <path d="m89.91 138.8c-1.13 0-1.53 0.55-1.53 1.44 0 0.88 0.75 1.35 1.4 1.35 0.94 0 1.45-0.65 1.45-1.41 0-0.75-0.47-1.38-1.32-1.38z" fill="#D8993C"/>
  <path d="m94.56 126.1c-1.13 0-1.52 0.55-1.52 1.44 0 0.88 0.74 1.35 1.39 1.35 0.94 0 1.45-0.65 1.45-1.41 0-0.75-0.47-1.38-1.32-1.38z" fill="#D8993C"/>
  <path d="m94.81 139.3c-1.13 0-1.52 0.55-1.52 1.44 0 0.88 0.74 1.35 1.39 1.35 0.94 0 1.46-0.65 1.46-1.41 0-0.75-0.48-1.38-1.33-1.38z" fill="#D8993C"/>
  <path d="m41.15 154.2c-6.09 0-9.11 6.39-12.96 8.61-3.13 1.78-6.08 1.35-9.47 0.64-8.61-1.36-15.4 3.69-16.3 12.34h195.1c-1.82-7.48-7.54-11.75-17.03-11.06-5.14 1.05-7.29 0.52-11.39-4.04-3.35-3.78-5.92-6.49-11.17-6.49h-0.6c-1.28 10.76-9.19 20.81-18.39 21.39l-1.57 0.09h60.15v-0.09h-52.46c7.87-3.24 12.61-11.68 12.61-20.62l-0.18-0.77h-116.9 0.56z" fill="#75BEAD"/>
  <path d="m13.57 129.8c-6.76 0-8.22 11.43-8.22 17.33 0 7.05 2.98 11.52 7.89 12.28 5.52 0 8.65-5.38 8.65-16.29 0-7.23-2.95-13.32-8.32-13.32z" fill="#62B7A5"/>
  <path d="m13.05 163.9-0.44-17.05-2.95-0.22 2.86 3.98 0.53-6.33h0.91l-0.24 19.6-0.67 0.02z" fill="#EC8166" stroke="#EC8166" stroke-miterlimit="10" stroke-width=".7"/>
  <path d="m28.22 116.1c-7.43 0-10.94 12.85-10.94 22.01 0 10.06 3.64 16.55 10.33 17.02 7.55 0 11.72-6.47 11.72-17.15 0-10.04-3.62-21.88-11.11-21.88z" fill="#F48169"/>
  <path d="m27.16 162.8 0.43-20.73-4.46-5.41 4.55 4.01 0.59-7.46 0.7 0.09 0.11 12.74 5.6-3.97-5.46 7.09-0.5 13.6-1.56 0.04z" fill="#5FB1A6" stroke="#5FB1A6" stroke-miterlimit="10" stroke-width=".7"/>
  <path d="m171.3 115.9c-7.99 0-10.6 13.1-10.81 21.97-0.24 9.85 4.31 16.76 10.81 17.23 9.23 0 11.7-9 11.7-17.34 0-8.71-3.93-21.86-11.7-21.86z" fill="#74C6B6"/>
  <path d="m170.6 163.4-0.13-16.34-3.99-10.16 4.82 4.63 0.22-8.12 0.75 0.16 0.18 12.61 4.88-3.94-4.28 6.09-0.13 15.35-2.32-0.28z" fill="#EBB649" stroke="#EBB649" stroke-miterlimit="10" stroke-width=".7"/>
  <path d="m187.8 129.8c-0.9-2.49-2.52-1.43-2.52-1.43l-10.18 27.95c-0.34 1.58 0.8 2.08 1.7 1.99h19.14c1.37 0 1.37-1.64 0.99-2.54l-9.13-25.97z" fill="#F9D073" stroke="#F9D073" stroke-miterlimit="10" stroke-width=".7"/>
  <path d="m185.1 163.8 0.6-15.94-2.2-2.51 2.34 1.26 0.31-3.11 0.45 5.26v3.01l4.1-2.42-3.88 4.87-0.29 9.58h-1.43z" fill="#EA7D6A" stroke="#EA7D6A" stroke-miterlimit="10" stroke-width=".7"/>
  <path d="m24.83 180.6c0-6.12 4.38-10.59 9.48-10.23 3.43 0.53 4.23 0.28 6.78-2.93 5.11-6.27 13.32-5.98 17.78 0.27 2.84 4.53 3.87 5.39 7.84 4.95 5.2-0.36 7.94 3.21 8.46 7.94h-50.34z" fill="#F9C96E" stroke="#CD9F4A" stroke-miterlimit="10" stroke-width=".5"/>
</svg>