<svg xmlns="http://www.w3.org/2000/svg" width="250" height="250" fill="none" viewBox="0 0 250 250">
<!-- SVG created with Arrow, by QuiverAI (https://quiver.ai) -->
  <path d="m201.2 19.07c-10.62 0-18.87 8.8-18.87 19.41 0 10.41 8.91 19.4 18.43 19.22 5.78-0.11 9.56-1.69 12.96-3.83l1.85 2.14-1.15 1.7 11.91 12.28c2.32 2.32 5.12 2.08 7.23-0.38 2.1-2.46 2.24-4.68-0.08-7l-11.03-11.61-3.62-0.21c1.9-3.51 2.87-6.7 2.62-11.99-0.45-9.72-9.28-19.73-20.25-19.73z" fill="#1D1D1B" opacity=".15"/>
  <path d="m199.6 17.56c-10.62 0-18.69 9.16-18.69 19.78 0 10.41 9.19 19.18 18.71 19 10.06-0.21 18.66-9.39 18.98-18.7 0.33-10.03-8.8-20.08-19-20.08z" fill="#00AFB4"/>
  <path d="m199.4 21.63c-7.88 0-14.41 6.86-14.41 15.21 0 8.15 7.06 15.28 14.66 15.14 7.97-0.17 14.73-7.37 14.73-15.06 0-8.04-6.94-15.29-14.98-15.29z" fill="#67CCC9"/>
  <path d="m199.5 24.96c-6.53 0-11.52 5.83-11.52 12.35 0 6.61 5.6 11.81 11.64 11.69 6.19-0.14 11.47-5.92 11.47-11.96 0-6.53-5.41-12.08-11.59-12.08z" fill="#009898"/>
  <path d="m191.8 39.01c-0.24-5.16 4.14-10.29 9.63-9.61 2.36 0.31 2.68 0.26 2.58 1.48-0.1 0.94-1 0.9-2.29 0.78-5.32-0.48-7.7 3.93-7.65 7.4 0.03 1.43-2.17 1.8-2.27-0.05z" fill="#67CCC9"/>
  <path d="m186.9 85.38h-1.63c-1.05-14.36-11.48-30.66-25.3-31.63l-2.75-17.27c-0.52-2.62-1.36-4.28-4.05-4.29l0.79-8.91c0-7.31-5.05-11.01-9.69-11.01h-41.16c-7.31 0-10.82 5.85-11.07 10.89l-0.67 9.13c-2.02 0.23-2.73 1.67-3.11 4.07l-2.77 17.63c-13.3 2.22-23.02 14.74-23.02 30.23v23.03h-1.66c-2.66 0-4.81 3.55-4.81 6.21v20.99c0 3.26 3.06 7.67 5.72 7.67h0.81v23.19c0 14.29 10.89 26.7 24.16 28.67l2.67 15.93c0.16 3.28 1.57 5.15 3.05 5.3l0.59 9.85c0.33 6.37 5.6 11.02 11.19 11.02h41.84c7.79 0 11.31-6.56 11.31-11.18l0.54-9.52c2.2-0.75 2.71-2.22 3.3-5.35l2.58-15.96c12.33-2.79 21.3-12.89 22.71-26.95 1.73-0.86 2.99-2.26 2.99-4.08v-25.35c0-1.88-1.57-2.77-3.34-3.32v-17.87c7.14-0.34 10.32-8.65 10.32-15.86 0-6.75-3.08-15.26-9.54-15.26z" fill="#1D1D1B" opacity=".15"/>
  <path d="m145.5 12.05h-42.53c-6.46 0-10.7 5.25-10.95 11.47l-0.95 12.66 65.45-0.12-0.25-13.17c0-6.46-4.08-10.84-10.77-10.84z" fill="#00B8C0"/>
  <path d="m155.1 32.09h-62.65c-2.82 0-3.69 1.75-4.06 4.14l-3.48 20.53 77.86-2.86-2.83-17.67c-0.52-2.62-1.72-4.14-4.84-4.14z" fill="#F77462"/>
  <path d="m155.8 214h-63.39c-2.82 0-4.1-1.94-4.23-4.56l-2.5-17.19 76.88 0.5-3.12 16.69c-0.53 2.79-1.57 4.56-3.64 4.56z" fill="#F77462"/>
  <path d="m91.52 213 0.25 10.75c0 6.69 5.45 11.47 11.67 11.47h42.07c7.48 0 11.25-6.44 11.25-11.32l0.39-10.9h-65.63z" fill="#00B8C0"/>
  <path d="m156.5 193h-65.31c-15.17 0-28.77-12.44-28.77-27.83v-81.31c0-15.22 11.16-30.12 27.97-30.12h63.64c15.73 0 30.95 11.06 31.38 30.33v81.32c0 15.89-13.32 27.61-28.91 27.61z" fill="#00B8C0"/>
  <path d="m149.9 186.5h-57.85c-14.08 0-24.45-11.67-24.45-23.76v-76.6c0-12.99 10.42-26.7 25.34-26.7h61c14.72 0 26.38 10.83 26.38 25.9v76.76c0 14.88-12.33 24.4-30.42 24.4z" fill="url(#paint0_linear_383_10773)"/>
  <path d="m154 181.4h-60.2c-11.41 0-20.27-9.98-20.27-20.52v-73.71c0-10.88 9.73-22.01 21.14-22.01h57.44c12.32 0 21.86 10.44 21.86 22.01v73.71c0 11.33-9.91 20.52-19.97 20.52z" fill="#00B8C0"/>
  <path d="m61.17 106.1h-1.15c-2.39 0-4.7 3.32-4.7 6.14v21.58c0 3.25 2.31 7.2 4.87 7.2h0.98v-34.92z" fill="#F8B957"/>
  <path d="m186.8 84.21h-1.76l-8.89 4.23-0.02 15.85 6.99 9.4h3.68c6.12 0 9.15-8.38 9.15-14.84 0-6.98-3.19-14.64-9.15-14.64z" fill="#00AFB4"/>
  <path d="m186.8 86.87c-6.04 0-10.03 6.17-10.03 12.26 0 6.9 3.69 13.56 9.36 13.56 5.62 0 8.48-7.41 8.48-13.56 0-5.92-2.95-12.26-7.81-12.26z" fill="url(#paint1_linear_383_10773)"/>
  <path d="m186.8 89.64c-4.13 0-6.09 5.53-6.09 9.45 0 4.76 2.21 10.12 5.96 10.12 4.09 0 5.85-6.14 5.85-10.27 0-4.22-2.19-9.3-5.72-9.3z" fill="#BA3E35"/>
  <path d="m187 93.37c-2.51 0-3.44 3.69-3.44 5.74 0 2.95 1.19 5.91 3.32 5.91 2.66 0 3.47-4.05 3.47-6.12 0-2.51-1.3-5.53-3.35-5.53z" fill="url(#paint2_linear_383_10773)"/>
  <path d="m186 132.3h-0.24c-1.58 0-1.69 1.62-1.69 2.77v28.03c0 2.24 1.2 3.48 2.51 3.48s2.84-1.79 2.84-3.86v-24.78c0-2.92-1.15-5.64-3.42-5.64z" fill="url(#paint3_linear_383_10773)"/>
  <path d="m145.1 199.9c-1.38 1.52-3.38 1.19-5.23 1.19h-33.64c-4.07 0-6.94-3.38-6.94-6.95h48.09c0 2.5-0.9 4.24-2.28 5.76z" fill="url(#paint4_linear_383_10773)"/>
  <path d="m134.5 45.4h-21.55c-4.49 0-5.57 2.99-5.57 7.06 0 2.71 1.97 5.02 5.27 5.02h21.55c4.45 0 5.78-2.35 5.78-5.87 0-3.7-1.74-6.21-5.48-6.21z" fill="#F8B957"/>
  <path d="m151.2 85.3h-55.43c-7.01 0-10.77 6.82-10.77 10.89v54.14c0 5.76 5.17 12.68 11.23 12.68h54.41c7.01 0 12.02-6.13 12.02-12.47v-54.37c0-5.76-4.39-10.87-11.46-10.87z" fill="url(#paint5_linear_383_10773)"/>
  <path d="m122.9 155.5c17.04 0 32.32-14.45 32.32-32.9 0-17.1-13.83-32.62-32.48-32.62-18.53 0-31 14.66-31 32.7 0 17.09 13.52 32.82 31.16 32.82z" fill="url(#paint6_linear_383_10773)"/>
  <path d="m122.7 152.7c15.01 0 28.45-12.94 28.45-29.3 0-15.53-12.24-29.51-28.58-29.51-16.24 0-27.96 13.19-27.96 29.53 0 15.53 12.05 29.28 28.09 29.28z" fill="#F4EDD0"/>
  <path d="m119.8 97.33 0.5-0.9h1.2v8.25h-1.2v-6.92l-0.5 0.35-0.88-0.78h0.88z" fill="#18667F"/>
  <path d="m123.3 98.01-0.99-0.75c0.81-0.91 1.45-0.97 2.29-0.97 1.8 0 2.68 1.02 2.68 2.32 0 1.35-1.19 2.11-1.97 2.72l-1.58 2.11h3.51v1.2h-4.87v-1.13l2.66-3.2c0.73-0.84 1.04-1.16 1.04-1.7 0-0.72-0.57-1.2-1.33-1.2-0.53 0-0.95 0.26-1.44 0.6z" fill="#18667F"/>
  <path d="m133.8 100.2 0.7-0.91h1.06v6.17h-0.97v-5.2l-0.36 0.34-0.43-0.4z" fill="#18667F"/>
  <path d="m100.3 111.1 0.7-0.91h1.19v5.59h-1.13v-4.73l-0.36 0.34-0.4-0.29z" fill="#18667F"/>
  <path d="m106.2 109.8c2.31 0 2.58 2.13 2.58 3.38 0 1.37-0.63 2.95-2.51 2.95-2.2 0-2.72-1.72-2.72-3.08 0-1.31 0.79-3.25 2.65-3.25zm-0.06 0.9c-1.32 0-1.57 1.58-1.57 2.49 0 0.77 0.31 2.09 1.62 2.09 1.13 0 1.55-1.22 1.55-2.23 0-0.83-0.37-2.35-1.6-2.35z" fill="#18667F"/>
  <path d="m142.8 110.1-0.66-0.6c0.66-0.77 1.35-1.13 2.41-1.13 1.49 0 2.24 0.9 2.24 1.97 0 1.03-0.84 1.81-1.69 2.57l-1.21 1.36h2.87v0.88h-4.62v-0.73l2.32-2.54c0.84-0.91 1.22-1.28 1.22-1.82 0-0.67-0.58-1.03-1.24-1.03-0.63 0-1.08 0.36-1.64 1.07z" fill="#18667F"/>
  <path d="m97.51 121.9c0-1.64 1.12-2.29 2.31-2.29 1.45 0 2.47 0.93 2.47 3.05 0 1.79-0.87 3.6-2.93 3.6-0.59 0-1.18-0.21-1.71-0.48l0.43-0.84c0.49 0.28 0.95 0.41 1.4 0.41 1.29 0 1.8-1.38 1.85-2.54-0.57 0.59-1.1 0.64-1.61 0.64-1.36 0-2.21-0.83-2.21-1.55zm1.05-0.15c0 0.72 0.6 1.01 1.3 1.01 0.76 0 1.25-0.37 1.42-1.05-0.25-1.06-0.86-1.29-1.46-1.29-0.79 0-1.26 0.52-1.26 1.33z" fill="#18667F"/>
  <path d="m101.5 133.6c0-1.2 0.91-1.79 1.97-1.79 1.27 0 1.93 0.85 1.93 1.7 0 0.56-0.28 1.12-0.94 1.44 0.82 0.39 1.22 0.98 1.22 1.64 0 1.03-0.93 1.83-2.27 1.83-1.16 0-2.17-0.65-2.17-1.84 0-0.73 0.44-1.31 1.25-1.68-0.65-0.36-0.99-0.71-0.99-1.3zm0.85 2.91c0 0.66 0.59 1.13 1.19 1.13 0.8 0 1.2-0.59 1.2-1.12 0-0.67-0.6-1.03-1.31-1.23-0.72 0.2-1.08 0.7-1.08 1.22zm2.1-3.06c0-0.58-0.5-0.99-1.04-0.99-0.59 0-1 0.46-1 0.92 0 0.59 0.53 0.94 1.13 1.14 0.66-0.2 0.91-0.7 0.91-1.07z" fill="#18667F"/>
  <path d="m110.3 141.6 0.66-0.72h3.77v0.72l-2.66 5.39-1.06-0.3 2.44-5h-3.15v-0.09z" fill="#18667F"/>
  <path d="m125 143.3c-0.61-0.17-1.03-0.24-1.42-0.24-1.38 0-1.93 0.98-2.05 2.13 0.66-0.59 1.14-0.66 1.71-0.66 1.45 0 2.14 1.06 2.14 2.11 0 1.31-1.06 2.24-2.41 2.24-1.75 0-2.53-1.36-2.53-2.78 0-1.95 0.94-3.9 3.11-3.9 0.49 0 0.97 0.07 1.63 0.28l-0.18 0.82zm-1.98 2.02c-0.91 0-1.48 0.59-1.55 1.37 0.21 0.84 0.78 1.33 1.5 1.33 0.93 0 1.4-0.72 1.4-1.43 0-0.74-0.59-1.27-1.35-1.27z" fill="#18667F"/>
  <path d="m133.1 142.2h3.59v0.78h-2.78l-0.13 1.89c0.38-0.14 0.76-0.21 1.15-0.21 1.29 0 2.29 0.84 2.29 2.04 0 1.13-0.93 2.12-2.35 2.12-0.77 0-1.51-0.34-2.17-0.93l0.53-0.72c0.66 0.59 1.25 0.81 1.77 0.81 0.85 0 1.35-0.66 1.35-1.34 0-0.77-0.76-1.29-1.69-1.29-0.43 0-0.96 0.13-1.6 0.4l0.04-3.55z" fill="#18667F"/>
  <path d="m145.3 121.5 0.66-0.78h3.27v0.78l-1.8 2.2c1.03 0.07 1.94 0.85 1.94 1.87 0 1.2-1.06 1.98-2.42 1.98-0.72 0-1.38-0.22-2.11-0.68l0.46-0.78c0.59 0.42 1.21 0.64 1.7 0.64 0.91 0 1.39-0.57 1.39-1.16 0-0.77-0.91-1.26-2.1-1.12v-0.6l1.59-2.2h-2.58v-0.15z" fill="#18667F"/>
  <path d="m146 131.7v4.2h0.96v0.87h-0.96v1.43h-1.03v-1.43h-4.04v-0.94l3.83-4.2h1.24v0.07zm-1.03 1.2-2.77 3.05h2.77v-3.05z" fill="#18667F"/>
  <path d="m118 130c-1.15 0-2.2 0.3-2.2 1.19 0 0.84 1.06 1.14 2.2 1.12 1.2 0 1.9-0.42 1.87-1.16-0.04-0.88-0.8-1.15-1.87-1.15z" fill="url(#paint7_linear_383_10773)"/>
  <path d="m131.6 133c-1.41-0.19-2.68 0.04-2.77 0.9-0.09 0.83 0.8 1.35 2.25 1.32 1.25-0.04 2.23-0.35 2.23-1.2 0-0.65-0.69-0.91-1.71-1.02z" fill="url(#paint8_linear_383_10773)"/>
  <path d="m118.5 133.8c1.06 1.93 2.31 2.93 4.55 2.93 2.07 0 3.55-1.01 4.32-2.51" stroke="#EA6852" stroke-linecap="round" stroke-linejoin="round" stroke-width="1.08"/>
  <path d="m129 129.4c-1.21 0-1.74 0.63-1.74 1.31 0 0.85 0.59 1.32 1.44 1.31 0.99-0.02 1.62-0.56 1.6-1.36-0.02-0.75-0.52-1.26-1.3-1.26z" fill="#18667F"/>
  <path d="m109.2 101.1 0.6-0.78h0.88v5.58h-0.73v-4.87l-0.43 0.43-0.32-0.36z" fill="#18667F"/>
  <path d="m111.6 101.4 0.48-1.14h1.2v5.72h-0.94v-4.87l-0.42 0.36-0.32-0.07z" fill="#18667F"/>
  <path d="m123.8 105.3h-0.91c-0.71 0-1.21 0.41-1.21 1.32v16.01c-1.45 0.65-1.89 1.54-1.89 2.59 0 1.9 1.29 2.79 2.96 2.79 1.83 0 2.94-1.28 2.94-2.9 0-0.72-0.34-1.5-1-2.19l9.16-5.06c1.55-0.94 1.23-1.9 0.9-2.16-0.6-0.47-1.47-0.24-2.36 0.19l-8.59 5.01v-15.6z" fill="url(#paint9_linear_383_10773)"/>
  <path d="m123.3 47.2c-9.65 0-15.48 7.91-15.48 16.23 0 9 7.49 16.28 15.4 16.13 9.23-0.19 15.7-8.28 15.7-16.35 0-8.49-7.1-16.01-15.62-16.01z" fill="url(#paint10_linear_383_10773)"/>
  <path d="m123.5 50.39c-8.2 0-13.35 6.32-13.35 13.31 0 7.31 6.45 13.31 13.2 13.18 7.7-0.17 13.33-6.74 13.33-13.67 0-7.31-6.19-12.82-13.18-12.82z" fill="#67CCC9"/>
  <path d="m123.3 53.7c-6.06 0-9.94 4.91-9.94 10.12 0 5.59 4.98 10.09 9.99 9.97 5.7-0.13 10.07-5.23 10.07-10.18 0-5.6-4.88-9.91-10.12-9.91z" fill="url(#paint11_linear_383_10773)"/>
  <path d="m122.8 57.21c-4.48 0-6.39 3.13-6.39 6.45 0 3.75 3.16 6.45 6.31 6.37 3.87-0.11 6.18-3.4 6.18-6.45 0-3.52-2.9-6.37-6.1-6.37z" fill="url(#paint12_linear_383_10773)"/>
  <path d="m121.7 58.92c-2.29 0-3.29 1.7-3.29 3.47 0 2 1.76 3.46 3.35 3.42 2.14-0.07 3.37-1.95 3.37-3.6 0-1.93-1.65-3.29-3.43-3.29z" fill="#18667F" opacity=".4"/>
  <path d="m241.2 112.3h-6.39l-1.76-3.97c-0.66-1.06-1.61-1.59-3.13-1.59h-10.39c-1.77 0-2.66 0.66-3.41 2.18l-1.55 3.31h-5.81c-3.11 0-4.75 2.65-4.75 5.46v16.21c0 3.59 1.96 5.19 5.01 5.19h31.64c3.73 0 5.29-2.58 5.29-4.95v-16.64c0-2.87-1.84-5.2-4.75-5.2zm-16.12 21.97c-6.22 0-10.55-5.44-10.36-9.36 0.22-4.93 4.66-9.17 10.01-9.17 5.63 0 9.64 4.64 9.53 9.41-0.13 4.63-4.11 9.12-9.18 9.12zm13.63-14.97c-1.52 0-2.12-1-2.12-1.95 0-1.2 0.93-1.85 1.99-1.85 1.13 0 1.91 1 1.91 1.93 0 1-0.78 1.87-1.78 1.87z" fill="#1D1D1B" opacity=".15"/>
  <path d="m240.5 112.2h-6.76l-1.52-3.65c-0.72-1.2-1.6-1.86-3.12-1.86h-9.45c-1.91 0-2.9 0.66-3.65 2.42l-1.45 2.98h-5.82c-3.26 0-4.84 2.59-4.84 5.24v16.21c0 3.32 1.81 5.26 4.86 5.26h30.99c3.44 0 5.67-2.12 5.67-4.99v-16.64c0-2.66-1.93-4.97-4.91-4.97zm-15.58 20.3c-5.29 0-8.24-4.27-8.24-7.77 0-4.76 3.73-8.28 8.37-8.28 5.07 0 8.46 4.23 8.32 8.48-0.13 4.12-3.79 7.57-8.45 7.57zm13.98-13.39c-1.35 0-2.2-0.91-2.2-1.97 0-1.31 0.94-1.96 1.93-1.96 1.13 0 1.97 1 1.97 1.99 0 1.03-0.84 1.94-1.7 1.94z" fill="#F77462"/>
  <path d="m69.98 37.32c-5.15-10.11-11.07-17.02-19.24-16.63-6.43 0.32-8.04 6.78-15.12 8.37-3 0.69-8.14-0.55-11.48 0.55-7.39 2.53-8.43 9.87-7.92 18.5 0.53 8.38 3.09 17.9 9.42 18.96 5.45 0.91 7.27-10.03 11.34-13.96 1.83-1.4 10.1-3.86 12.23-4.48 4.66-1.52 10.4 4.08 16.17 4.8 9.07 1.12 8.43-8.81 4.6-16.11z" fill="#1D1D1B" opacity=".15"/>
  <path d="m68.4 35.72c-4.86-9.41-9.94-15.45-17.2-15.11-7.61 0.37-7.96 6.48-16.49 8.6-3.11 0.78-6.67 0-9.65 0.85-7.34 2.32-9 8.75-8.47 17.25 0.52 8.38 2.89 18.58 9.59 19.42 5.59 0.73 7.52-10.52 10.78-13.62 1.55-1.44 9.25-3.39 11.84-4.63 4.03-1.94 9.41 3.15 15.81 4.05 9.31 1.34 7.9-9.12 3.79-16.81z" fill="#F77462"/>
  <path d="m33.86 39.76-3.11 0.67-1.02-2.71c-0.56-0.94-4.04-1.04-4.12 0.54l0.26 3.14-3.15 1.14c-1.37 0.72-1.24 3.27 0 3.74l3.2 0.35-0.42 2.13c0.31 1.58 3.42 1.58 3.98 0.33l0.67-3.09 3.1-0.75c1.36-0.47 2.04-4.14 0.61-5.49z" fill="#F8B957"/>
  <path d="m48.66 30.46c-0.54 2.03 0.28 3.6 1.85 3.97 1.77 0.45 3.12-0.68 3.42-2.05 0.39-1.77-0.61-3.67-2.44-3.87-1.58-0.2-2.48 0.7-2.83 1.95z" fill="#F8B957"/>
  <path d="m46.28 35.91c-0.53 1.7 0.46 3.1 1.71 3.38 1.62 0.42 2.92-0.55 3.21-1.97 0.37-1.69-0.75-3.01-1.99-3.2-1.49-0.26-2.55 0.54-2.93 1.79z" fill="#E5B053"/>
  <path d="m55.28 32.76c-0.51 1.75 0.34 2.95 1.7 3.31 1.59 0.46 2.83-0.66 3.12-1.91 0.43-1.65-0.64-3.17-2.19-3.35-1.35-0.2-2.24 0.6-2.63 1.95z" fill="#F8B957"/>
  <path d="m8.51 101.1h27.8c1.2 0 1 0.52 1 1.17v1l-1.35 0.56v1.58l1.45 0.46v11.18h-5.77c-1.29 0-2.02 0.78-2.48 1.84l-0.75-0.72c-1.2-0.84-2.49-0.35-3.3 0.52l-3.49 3.7c-0.82 0.91-1.28 2.4-0.43 3.53l0.67 0.8-1.62 0.3c-1.36 0.3-1.89 1.65-1.82 2.65l0.19 3.89c0.07 1.13 0.88 2.26 2.12 2.18l1.29-0.12-0.4 1.06c-0.88 1.52 0.19 2.72 0.94 3.44l0.99 1.01h-15.49c-3.11 0-4.94-2.46-4.94-4.86v-29.75c0-3.25 1.65-5.42 5.39-5.42z" fill="#1D1D1B" opacity=".15"/>
  <path d="m8.69 101h27.05c1.2 0 0.7-0.01 0.7 0.84v0.65l-27.75 0.21c-1.52 0-2.47 1.15-2.47 2.45 0 1.45 1.1 2.2 2.26 2.2h27.95v9.85h-4.36c-1.36 0-1.66 0.84-2.26 1.81l-1.25-0.96c-0.99-0.68-2.24-0.36-3.05 0.54l-3.1 3.32c-0.99 1.13-1.13 2.28-0.35 3.38l0.66 0.84-2.24 0.47c-1.13 0.29-1.46 1.45-1.4 2.51l0.14 2.95c0.07 1.25 0.73 2.38 1.99 2.24h1.35l-0.75 1.59c-0.75 1.45 0.31 2.51 1.09 3.35l1.92 1.95-16.57-0.05c-3.1 0-4.93-2.04-4.93-4.85v-29.75c0-3.45 1.52-5.54 5.37-5.54z" fill="#F8CA66"/>
  <path d="m9.83 113.9v23.76" stroke="#D8B25B" stroke-linecap="round" stroke-width="1.28"/>
  <path d="m9.56 104.8 24.52-0.14" stroke="#D8B25B" stroke-linecap="round" stroke-width=".64"/>
  <path d="m32.29 106h3.67" stroke="#D8B25B" stroke-linecap="round" stroke-width=".64"/>
  <path d="m44.1 127.1h-0.92l-1.26-3.02 1.69-1.7-4.4-4.15-1.45 1.45h-3.55l-0.85-2.21h-3.93l-1.02 2.06-2.04-0.78-4.42 4.38 1.06 1.81v2.14l-3.32 0.65v4.3l3.13 0.79 0.89 2.46-1.63 2.01 3.58 3.55 2.16-1.3 1.59 1.69h3.86l0.47-2.6h3.17l1 1.13 4.2-3.83-1.35-1.8 0.96-2.4 3.32-0.47v-3.15l-0.94-1.01zm-11.93 6.88c-3.86-1.2-4.75-5.28-3.3-7.74 1.41-2.55 4.94-3.61 7.64-1.86 2.76 1.58 3.11 4.83 1.9 7.15-1.35 2.88-4.12 3.2-6.24 2.45z" fill="#F8B957"/>
  <path d="m228.9 200.1-12.69-3.34c1.29-4.11 3.26-9.7 2.01-13.37-0.95-3.02-6.03-4.96-6.78-0.85-1.36 7.63-8.31 13.62-11.08 14.98l-4.31 18.38c1.76 3.32 7.03 6.03 14.2 6.56l8.35 1.44c2.83 0.35 4.65-2.31 3.9-4.4l-0.35-1.25c2.7-0.68 4.61-3.34 3.86-5.67 1.76-0.65 3.11-3.83 1.99-5.77 2.86-1.06 2.96-5.39 0.9-6.71z" fill="#1D1D1B" opacity=".15"/>
  <path d="m227.8 199.1-12.2-3.15c1.62-4.74 3.6-9.3 2.4-12.79-1.24-3.73-5.9-4.42-6.55-1.01-1.44 7.1-8.45 14.06-11.4 15.11l-4.17 18.6c1.76 3.32 6.19 5.65 13.26 6.3l8.22 1.59c2.76 0.35 4.89-2.53 3.76-4.59l-0.35-0.87c2.77-1.01 3.94-3.19 3.19-5.59 2.05-0.58 3.64-3.85 2.29-6.05 2.46-0.74 3.58-5.79 1.55-7.55z" fill="#F8B957"/>
  <path d="m188.5 193.5 6.95 0.89c2.13 0.35 2.27 1.94 1.73 4.65l-3.19 16.52c-0.59 2.53-1.78 2.53-4.83 1.7l-4.01-0.75c-1.83-0.46-2-1.72-1.34-5.25l2.77-15.28c0.52-2.13 0.65-2.53 1.92-2.48z" fill="#F8B957"/>
  <path d="m65.56 223.2c-2.77 0.43-4.7-2.64-7.85-5.52l-7.26-6.95-1.06-2.42 0.65-1.7-2.86-2.06c-3.42 2.55-6.12 3.45-10.76 3.45-10.3 0-18.76-8.8-18.76-17.31 0-10.02 7.8-17.4 17.66-17.4 10.69-0.38 17.89 8.01 18.23 15.91 0.17 4.3-1.47 8.86-3.28 11.96l3.45 2.74 1.89 0.06 10 9.58c2.56 2.56 3.67 5.11-0.05 9.66zm-30.29-42.03c-6.53 0-10.8 6.73-10.8 11.48 0 1.52 0.59 2.05 1.94 1.97 0.75-0.07 0.93-1.45 0.93-2.29 0-4.65 3.75-7.92 7.93-7.85 1.63 0.07 2.49-0.4 2.49-1.53 0-1.35-0.95-1.78-2.49-1.78z" fill="url(#paint13_linear_383_10773)"/>
  <defs>
    <linearGradient id="paint0_linear_383_10773" x1="123.1" x2="123.1" y1="59.57" y2="186.5" gradientUnits="userSpaceOnUse">
      <stop stop-color="#FDD070" offset="0"/>
      <stop stop-color="#F8B957" offset="1"/>
    </linearGradient>
    <linearGradient id="paint1_linear_383_10773" x1="185.7" x2="185.7" y1="86.87" y2="112.7" gradientUnits="userSpaceOnUse">
      <stop stop-color="#E66852" offset="0"/>
      <stop stop-color="#F07662" offset=".72"/>
    </linearGradient>
    <linearGradient id="paint2_linear_383_10773" x1="187" x2="187" y1="93.37" y2="105" gradientUnits="userSpaceOnUse">
      <stop stop-color="#217896" offset="0"/>
      <stop stop-color="#286277" offset="1"/>
    </linearGradient>
    <linearGradient id="paint3_linear_383_10773" x1="186.8" x2="186.8" y1="132.3" y2="166.6" gradientUnits="userSpaceOnUse">
      <stop stop-color="#F17662" offset="0"/>
      <stop stop-color="#F8B957" offset="1"/>
    </linearGradient>
    <linearGradient id="paint4_linear_383_10773" x1="123.1" x2="123.1" y1="194.1" y2="201.3" gradientUnits="userSpaceOnUse">
      <stop stop-color="#F17662" offset="0"/>
      <stop stop-color="#F8B957" offset="1"/>
    </linearGradient>
    <linearGradient id="paint5_linear_383_10773" x1="123.1" x2="123.1" y1="85.3" y2="163" gradientUnits="userSpaceOnUse">
      <stop stop-color="#FBD571" offset="0"/>
      <stop stop-color="#F8B957" offset="1"/>
    </linearGradient>
    <linearGradient id="paint6_linear_383_10773" x1="123.5" x2="123.5" y1="90.02" y2="155.5" gradientUnits="userSpaceOnUse">
      <stop stop-color="#F17662" offset="0"/>
      <stop stop-color="#F8B957" offset="1"/>
    </linearGradient>
    <linearGradient id="paint7_linear_383_10773" x1="117" x2="117" y1="130" y2="132.3" gradientUnits="userSpaceOnUse">
      <stop stop-color="#F17662" offset="0"/>
      <stop stop-color="#F8B957" offset="1"/>
    </linearGradient>
    <linearGradient id="paint8_linear_383_10773" x1="130.3" x2="130.3" y1="133" y2="135.3" gradientUnits="userSpaceOnUse">
      <stop stop-color="#F17662" offset="0"/>
      <stop stop-color="#F8B957" offset="1"/>
    </linearGradient>
    <linearGradient id="paint9_linear_383_10773" x1="127.2" x2="127.2" y1="105.3" y2="128" gradientUnits="userSpaceOnUse">
      <stop stop-color="#00E9D3" offset="0"/>
      <stop stop-color="#00C8B7" offset="1"/>
    </linearGradient>
    <linearGradient id="paint10_linear_383_10773" x1="123.4" x2="123.4" y1="47.2" y2="79.57" gradientUnits="userSpaceOnUse">
      <stop stop-color="#37B7C6" offset="0"/>
      <stop stop-color="#89D4AD" offset="1"/>
    </linearGradient>
    <linearGradient id="paint11_linear_383_10773" x1="121.8" x2="121.8" y1="53.69" y2="73.79" gradientUnits="userSpaceOnUse">
      <stop stop-color="#F07862" offset="0"/>
      <stop stop-color="#F18573" offset="1"/>
    </linearGradient>
    <linearGradient id="paint12_linear_383_10773" x1="122.7" x2="122.7" y1="57.21" y2="70.04" gradientUnits="userSpaceOnUse">
      <stop stop-color="#217896" offset="0"/>
      <stop stop-color="#286277" offset="1"/>
    </linearGradient>
    <linearGradient id="paint13_linear_383_10773" x1="44.4" x2="44.4" y1="173.2" y2="223.3" gradientUnits="userSpaceOnUse">
      <stop stop-color="#00B8C0" offset="0"/>
      <stop stop-color="#009795" offset="1"/>
    </linearGradient>
  </defs>
</svg>