<svg xmlns="http://www.w3.org/2000/svg" width="200" height="200" fill="none" viewBox="0 0 200 200">
<!-- SVG created with Arrow, by QuiverAI (https://quiver.ai) -->
  <path d="m185.8 129.7-22.79-1.36-4.85-0.37 2.08-0.91c3.28-1 6.6-4.95 7.8-9.36l1.56-6.1c1.2-4.75 4.87-9.53 8.31-8.56 3.43 0.97 4.79 7.26 3.83 12.07l-0.95 3.6c3.01-0.99 6.32-2.12 6.14-7.8-0.24-4.73-2.8-12.15-7.83-13.26l-9.79-1.83 14.88-73.61c0.97-4.84-1.92-8.56-6.73-8.7l-16.64-1.4 0.13-1.15c0.46-3.6-2.14-5.75-5.02-5.89l-14.6-1.09c-4.9-0.36-6.54 3.37-7 6.97l-11.8-5.19c-4.91-0.35-7.33 2.54-7.79 6.14l-13.3 73.05-0.34-0.07c-2.91-0.66-5.26 2.39-5.92 5.73l-0.36 0.77c-3.61-0.38-4.89 2.15-5.7 5.76l-1.39 7.57c-0.99 5.19 2.23 10.02 7.43 11.08l46.65 11.82-4.5-0.56c-5.58 0.2-9.44 5.3-10.4 10.11l-0.85 5.22-44.1-13.63c-5.67-1.44-9.76 3.26-10.73 8.49l-13.09 29.74c-1.73 9.37-0.49 15.65 7.66 18.1l38.65 11.19c8.98 2.46 15.65-6.52 19.56-16.13l2.27-4.2c1.2 4.95 3.96 9.11 8.8 9.44l44.85 2.8c11 0.33 17.08-14.03 17.57-31.51 0.48-13.62-3.62-26.17-11.7-26.97z" fill="#231F20" opacity=".15"/>
  <path d="m185.8 128.6-22.79-1.36-6.89-0.55 6.62-0.89 19.99-7.86c3.78-1.39 4.35-4.86 4.1-7.74-0.83-6.3-3.39-12.53-8.83-13.34l-9.79-1.83 15.22-73.92c0.98-4.85-1.91-8.57-6.72-8.71l-17.98-1.57 0.87-2.86c-0.72-2.49-2.75-3.77-5.26-3.9l-14.59-1.08c-3.62-0.25-5.41 2.01-6.09 5.31l-11.53-3.63c-4.91-0.35-7.33 2.54-7.79 6.14l-13.56 74.24c-0.66 3.66 0.33 7.61 4.33 8.76l-2.03-0.3-8.35-3.21c-3.62-0.39-4.9 2.14-5.7 5.75l-1.39 7.57c-1 5.19 2.22 10.02 7.42 11.08l58.19 14.68c5.19 1.13 11.18-3.32 12.9-9.17l2.31-8.12c1.57-6.28 5.55-11.62 9.45-10.5 3.44 0.97 4.8 7.26 3.84 12.07l-1.2 4.07 2.2-0.53c3.02-0.58 4.65-3.5 4.19-7.15-0.77-4.75-3.33-11.75-8.01-12.96 4.85 1.21 7.5 7.72 8.27 13.51 0.48 3.59-0.44 6.84-4.51 8.5l-14.04 6.95-1.26 0.6 5.3 0.46 13.65 0.75c7.64 0.75 11.09 11.87 10.88 25.05-0.47 15.39-6.16 34.06-18.78 34.01l-43.95-2.67c-9.61-0.76-11.23-11.98-9.8-27.04 0.5-6.37 2.09-20.84 5.06-25.97 2.5-3.5 5.99-5.36 8.88-5.02l15.06 2.59" fill="#39C7CC"/>
  <path d="m181.2 26.69-0.56-0.13c-0.55-0.12-1.06 0.3-1.15 0.95l-0.93 5.5c-0.13 0.77 0.22 1.49 0.82 1.62l0.07 0.02c0.56 0.12 1.12-0.37 1.25-1.14l0.9-5.18c0.13-0.76 0.05-1.52-0.4-1.64z" fill="#00979F" stroke="#4FD1D1" stroke-miterlimit="10" stroke-width=".7"/>
  <path d="m180 34.71-0.46-0.11c-0.51-0.12-1 0.28-1.12 0.9l-0.85 4.15c-0.14 0.73 0.2 1.43 0.76 1.57l0.07 0.02c0.55 0.14 1.11-0.32 1.29-1.04l0.92-3.99c0.17-0.7-0.11-1.37-0.61-1.5z" fill="#00979F" stroke="#4FD1D1" stroke-miterlimit="10" stroke-width=".7"/>
  <path d="m116.4 10.48-15.27 76.64c-0.79 4.24 2.04 7.04 5.96 7.67l50.27 9.73c4.3 1.05 7.82-1.41 8.75-6.16l15.63-77.63c1.03-5.11-2.11-7.82-6.48-8.12l-51.36-5.56c-3.93-0.49-6.79-0.52-7.5 3.43z" fill="url(#paint0_linear_9731_98363)"/>
  <path d="m120.9 8.76 49.21 6.54c4.24 0.64 6.14 2.88 5.18 8.46l-12.36 73.09c-0.73 4.11-3.65 5.91-7.82 4.65l-45.43-10.48c-3.59-0.89-4.9-2.75-4.1-7l12.8-70.58c0.58-3.42 1.63-4.86 2.52-4.68z" fill="#1EC8C8" stroke="#00979F" stroke-miterlimit="10" stroke-width=".7"/>
  <path d="m122.2 15.85 47.51 7.77c0.94 0.19 1.04 0.89 0.91 1.58l-11.53 64.41c-0.19 1.04-0.84 1.4-1.94 1.13l-46.16-9.53c-1.04-0.27-1.34-0.7-1.15-1.75l10.91-62.07c0.19-1.05 0.31-1.67 1.45-1.54z" fill="url(#paint1_linear_9731_98363)" stroke="#00979F" stroke-miterlimit="10" stroke-width=".5"/>
  <path d="m133 93.36c2.2 0 2.93-1.7 2.93-2.89 0-1.55-1.08-2.43-2.38-2.61-2.08-0.3-3.14 1.26-3.25 2.61-0.14 1.62 0.85 2.74 2.7 2.89z" fill="url(#paint2_linear_9731_98363)" stroke="#00979F" stroke-miterlimit="10" stroke-width=".5"/>
  <path d="m170.2 23.71-11.21 65.81c-0.19 1.04-0.84 1.4-1.94 1.13l-46.16-9.53c-0.9-0.21-1.25-0.59-1.15-1.48l57.61-56.38 2.85 0.45z" fill="#00A6B1"/>
  <path d="m134.6 9.14-0.13 1.15c-0.4 3.22 1.25 5.26 5.17 5.52l12.24 1.81c1.42 0.09 2.5-1.23 2.85-3.16l1.42-5.05 4.07 0.62 0.26-1.93c0.3-2.51-2.06-4.94-5.21-5.09l-14.07-0.95c-4.07-0.29-6.12 3.01-6.6 7.08z" fill="#D5261E"/>
  <path d="m134.9 9.01 0.2-1.35c0.46-3.15 2.88-5.11 5.9-4.82l12.73 0.97c3.43 0.3 4.45 3.06 3.86 6.19l-2.08 6.61c-0.64 2.29-2.06 1.8-3 1.62l-12.42-1.76c-4.05-0.56-5.75-2.71-5.19-7.46z" fill="#F78772"/>
  <path d="m100.1 82.81c-3.24 0.68-5.03 4.8-5.41 7.62l13.95 2.49c3.97 0.88 6.32 2.85 6.09 7.92 0.03 3.78 2.41 6.9 6.22 7.44l12.48 2.51c3.69 0.73 6.92-1.5 8.78-5.71 1.49-3.27 4.26-3.69 7.22-2.96l13.11 3.25c4.07 0.99 4.86 3.01 3.84 7.54l-2.68 9.67c-1.46 4.52-6.64 6.48-10.1 5.64l-58.83-13.41c-5.24-1.38-7.52-6.44-6.39-11.32l1.52-8.07c0.62-3.1 1.79-4.68 5.28-4.72 1.17-3.59 2-6.77 4.92-7.89z" fill="#AAE6E3" stroke="#69CCC9" stroke-miterlimit="10" stroke-width=".7"/>
  <path d="m116.8 96.91 27.42 5.4-2.47 4.95c-1.85 3.26-4.27 4.62-8.68 3.58l-12.28-2.94c-3.31-0.89-5.2-3.3-4.89-7.07l0.9-3.92z" fill="url(#paint3_linear_9731_98363)" stroke="#9B0000" stroke-miterlimit="10" stroke-width=".7"/>
  <path d="m176.3 106.3c2.55-1.09 3.01 2.95 2.29 6.99l-0.86 3.06c-0.86 2.46-4.42 4.05-5.38 1.59-0.97-1.93 1.11-10.37 3.95-11.64z" fill="#D80000" stroke="#9B0000" stroke-miterlimit="10" stroke-width=".7"/>
  <path d="m147.2 121c0.89 0 1.24-0.39 1.19-0.98-0.06-0.54-0.65-0.74-1.06-0.66-0.6 0.12-0.91 0.45-0.84 1 0.06 0.47 0.3 0.58 0.71 0.64z" fill="#F75342"/>
  <path d="m153.7 125.8c3.17-0.21 4.01-2.51 3.82-4.51-0.24-2.58-2.13-4.02-4.35-3.95-2.82 0.1-3.76 2.31-3.75 4.27 0 2.52 1.47 4.14 4.28 4.19z" fill="url(#paint4_linear_9731_98363)" stroke="#00979F" stroke-miterlimit="10" stroke-width=".7"/>
  <path d="m153.6 124.5c2.01-0.14 2.67-1.85 2.54-3.27-0.19-1.86-1.6-2.74-3.02-2.61-1.86 0.17-2.52 1.62-2.45 3 0.09 1.76 1.13 2.85 2.93 2.88z" fill="#335660"/>
  <path d="m175.9 142.6c-8.3 0.72-12.93 9.13-12.93 15.49 0 7.62 6.12 15.2 13.8 15.2 8.16 0 14.4-8.07 14.4-15.69 0-8.04-6.28-15.41-15.27-15z" fill="#231F20" opacity=".2"/>
  <path d="m176.8 143.6c-8.16 0-13.59 7.78-13.59 14.51 0 7.62 6.12 14.27 13.27 14.27 8.16 0 14.15-7.7 14.15-14.85 0-8.04-6.17-13.93-13.83-13.93z" fill="#A8E8E0" stroke="#79D4CC" stroke-miterlimit="10" stroke-width=".7"/>
  <path d="m176.9 147.2c-6.08 0-9.3 5.61-9.3 10.44 0 5.42 4.41 9.95 9.44 9.95 5.66 0 9.96-5.42 9.96-10.44 0-5.56-4.42-9.95-10.1-9.95z" fill="#F8DD72" stroke="#D0B657" stroke-miterlimit="10" stroke-width=".7"/>
  <path d="m177 152.5c-3.28 0.21-4.67 2.76-4.67 5.05 0 2.75 2.29 5.04 5 5.04 3.11 0 5.38-2.92 5.38-5.48 0-2.89-2.43-4.73-5.71-4.61z" fill="url(#paint5_linear_9731_98363)" stroke="#D0B657" stroke-miterlimit="10" stroke-width=".7"/>
  <path d="m177 155.7c-1.52 0.11-2.21 1.3-2.21 2.4 0 1.36 1.16 2.25 2.43 2.25 1.59 0 2.55-1.55 2.55-2.75 0-1.36-1.19-2.03-2.77-1.9z" fill="#D0B657" stroke="#D0B657" stroke-miterlimit="10" stroke-width=".7"/>
  <path d="m135.9 142.3c-4.43 0-5.41 4.29-5.28 5.85 0.16 2.75 2.2 5.04 5.08 4.79 3.92-0.3 5.85-3.26 5.85-5.1 0-3.03-1.96-5.54-5.65-5.54z" fill="#F8DD72" stroke="#D0B657" stroke-miterlimit="10" stroke-width=".7"/>
  <path d="m141.2 155.1c3.56 1.82 6.59 10.55 6.53 17.71 1.99-6 6.9-13.74 11.62-13.47" stroke="#F8DD72" stroke-linecap="round" stroke-linejoin="round" stroke-width="2"/>
  <path d="m19.61 51.23c-6.69 0.58-10.48 5.93-12.16 12.22-4.29 12.67-4.84 23.77-4.29 33.32 0.26 6.16 2.45 10.85 10.67 12.23l31.48 2.75c9.58 0.39 20.5-10.28 26.18-29.09 1.3-6.56 0.49-10.65-0.63-15.49l-3.57-11.12-7.02-3.12-38.77-1.94c-0.66 0-1.24 0.07-1.89 0.24z" fill="#F69580"/>
  <path d="m38.91 21.56 40.26-9.44c8.04-1.36 13.24 5.63 18.14 22.13 5.01 17.52 2.9 32.7-7.56 35.88l-40.37 8.93c-10.93 2-18.04-14.77-20.7-41-0.66-9.55 3.78-14.95 10.23-16.5z" fill="#39C7CC"/>
  <path d="m37.29 30.11 35.43-8.9-13.6 22.4-21.83-13.5z" fill="#88DFD6" stroke="#61B9BA" stroke-miterlimit="10" stroke-width=".5"/>
  <path d="m76.17 25.88 11.47 6.96-7.22 12.74-11.61-6.54 7.36-13.16z" fill="#F36F5B" stroke="#CE4D42" stroke-miterlimit="10" stroke-width=".5"/>
  <path d="m37.46 36.07 21.27 12.54-12.61 22.84-8.66-35.38z" fill="#F36F5B" stroke="#CE4D42" stroke-miterlimit="10" stroke-width=".5"/>
  <path d="m63.59 45.95 12.55 6.86-20.51 5.39 7.96-12.25z" fill="#FFD66F" stroke="#68BBAE" stroke-miterlimit="10" stroke-width=".5"/>
  <path d="m86.6 38.71 5.19 22.4-21.77 5.6 16.58-28z" fill="#FFD66F" stroke="#68BBAE" stroke-miterlimit="10" stroke-width=".5"/>
  <path d="m50.13 69.91 5.02-8.99 18.53-4.41-7.02 10.71-17.37 3.53 0.84-0.84z" fill="#88DFD6" stroke="#61B9BA" stroke-miterlimit="10" stroke-width=".5"/>
  <path d="m12.21 67.86 11.38-1.33c0.93-0.12 1.65 0.38 1.69 1.21l0.03 8.35c0.04 0.83-0.78 1.57-1.76 1.66l-8.73 1.13c-0.97 0.09-1.96-0.58-2.04-1.51l-1.15-8.01c-0.09-0.75-0.24-1.35 0.58-1.5z" fill="#F8D06E" stroke="#DDB35E" stroke-miterlimit="10" stroke-width=".7"/>
  <path d="m28.22 70.28 0.49 8.41c0.05 0.83 0.82 1.41 1.75 1.32l8.9-1.08c0.96-0.11 1.7-0.94 1.63-1.82l-0.76-4.8c-0.46-2.92-2.82-3.89-5-3.69l-5.41-0.12c-1 0.06-1.66 0.85-1.6 1.78z" fill="#F8D06E" stroke="#DDB35E" stroke-miterlimit="10" stroke-width=".7"/>
  <path d="m44.63 78.86 0.42 4.2c0.06 0.69 0.78 1.21 1.65 1.11l8.04 1.42c0.93 0.09 1.77-0.42 1.92-1.25l0.65-6.8-11.22-0.23c-0.93-0.08-1.53 0.65-1.46 1.55z" fill="#F8D06E" stroke="#DDB35E" stroke-miterlimit="10" stroke-width=".7"/>
  <path d="m17.13 92.12 0.78 9.08c0.06 0.93 0.9 1.56 1.83 1.41l9.48-1.2c1.02-0.1 1.69-0.93 1.56-1.9l-1.22-7.06c-0.11-0.93-1.02-1.73-2.05-1.61l-8.8-0.13c-0.93 0.01-1.66 0.56-1.58 1.41z" fill="url(#paint6_linear_9731_98363)" stroke="#49B3B5" stroke-miterlimit="10" stroke-width=".7"/>
  <path d="m33.4 88.28-0.78 7.9c-0.09 0.93 0.67 1.79 1.76 1.88l10.39 0.65c0.99 0.09 1.89-0.65 1.87-1.68l-0.19-8.18c-0.04-1.03-0.94-1.83-2.03-1.79l-9.21-0.36c-0.99-0.03-1.73 0.65-1.81 1.58z" fill="url(#paint7_linear_9731_98363)" stroke="#49B3B5" stroke-miterlimit="10" stroke-width=".7"/>
  <path d="m47.32 94.66-1.07 4.05c-0.26 0.93 0.4 1.85 1.43 1.99l10.26 1.42c1.03 0.15 1.98-0.56 2.07-1.61l0.27-4.35c0.08-0.93-0.69-1.85-1.78-1.97l-8.16-1.7c-1.5-0.27-2.65 0.7-3.02 2.17z" fill="url(#paint8_linear_9731_98363)" stroke="#49B3B5" stroke-miterlimit="10" stroke-width=".7"/>
  <path d="m14.33 70.01 1.97-0.31 1.54 5.04 0.84-5.3 1.61-0.18 1.63 5.04 0.69-5.24 1.9-0.23-1.75 7.88-1.69 0.21-1.63-4.87-0.85 5.18-1.76 0.24-2.5-7.46z" fill="#D5473B"/>
  <path d="m35.59 72.31c-2.93 0.6-3.88 2.85-3.61 4.41 0.35 1.81 1.87 2.69 3.73 2.34 2.51-0.5 3.71-2.62 3.47-4.25-0.3-1.74-1.71-2.88-3.59-2.5zm0.01 1.66c1.03-0.21 1.76 0.53 1.82 1.42 0.1 1.04-0.79 2.02-1.76 2.16-1.03 0.16-1.8-0.44-1.93-1.41-0.12-0.93 0.64-1.92 1.87-2.17z" fill="#D5473B"/>
  <path d="m48.71 78.44 1.86-0.17 0.19 2.46 2.18-2.69 2.08 0.08-2.42 2.86 3.02 2.93-2.29-0.19-2.45-2.55 0.29 2.45-1.79-0.19-0.67-4.99z" fill="#D5473B"/>
  <path d="m21.3 93.1 3.08-0.25c1.86-0.19 3.01 0.61 3.13 2.16 0.07 0.83-0.32 1.7-1.15 2.19l1.71 2.29-2.04 0.12-1.32-2-1.19 0.1 0.09 2.09-1.8 0.08-0.51-6.78zm1.93 1.25 0.13 2.09 1.1-0.11c0.76-0.07 1.16-0.71 1.1-1.26-0.05-0.59-0.54-0.95-1.37-0.85l-0.96 0.13z" fill="#00979F"/>
  <path d="m36.31 89.38 2.71-0.07c2.39-0.05 4.09 1.4 4.25 3.55 0.21 2.39-1.47 3.92-3.86 3.86l-2.36-0.08-0.74-7.26zm1.93 1.36 0.43 4.44 0.87-0.06c1.35-0.11 2.08-1.25 1.95-2.6-0.14-1.21-1.18-1.94-2.53-1.86l-0.72 0.08z" fill="#00979F"/>
  <path d="m52.88 96.18 0.96 0.07c1.03 0.07 1.69 0.93 1.57 1.9-0.12 1.21-1.28 1.8-2.37 1.56l-1.29-0.32 1.13-3.21z" fill="#00979F"/>
  <path d="m12.58 112.7 35.54-14.82c9.37-3.64 16.54-0.8 22.69 9.71 6.98 10.97 9.4 24.22 8.5 33.02-0.55 6.2-3.42 10.37-9.19 12.72l-37.76 15.02c-6.8 2.55-11.58-1.4-16.15-8.98-6.05-9.06-9.94-19.33-11.2-31.03-0.32-6.29 3.1-12.9 7.57-15.64z" fill="#FFD366" stroke="#DDB35E" stroke-miterlimit="10" stroke-width=".7"/>
  <path d="m13.73 127.1 12.42-4.35c0.97-0.35 1.97 0.14 2.26 1.07l0.93 8.77c0.23 1-0.33 2.03-1.3 2.37l-9.21 3.69c-0.94 0.35-1.72-0.21-2.17-1.18l-4.07-7.98c-0.48-1.03 0-2.08 1.14-2.39z" fill="#F8D06E" stroke="#DDB35E" stroke-miterlimit="10" stroke-width=".7"/>
  <path d="m27.34 116.3 0.45 10.24c0.06 1.1 0.99 1.9 2.09 1.76l9.28-0.39c1.16-0.11 1.96-1.15 1.76-2.31l-0.86-9.55c-0.15-1.09-1.18-1.83-2.34-1.67l-8.74 0.44c-1.03 0.08-1.7 0.67-1.64 1.48z" fill="url(#paint9_linear_9731_98363)" stroke="#49B3B5" stroke-miterlimit="10" stroke-width=".7"/>
  <path d="m48.72 116.9 3.4 12.09 3.39 9.61 14.81 0.62c1.29-0.15 1.79-1.3 1.39-2.93l-5.4-22.78c-0.36-1.36-1.02-1.82-2.55-1.42l-13.52 3c-1.2 0.3-1.79 0.95-1.52 1.81z" fill="#F8D06E" stroke="#DDB35E" stroke-miterlimit="10" stroke-width=".7"/>
  <path d="m20.42 125.9 1.79 1.22 1.23 6.49-2.11 0.3-1.1-5.39-1.22 0.84-0.8-1.43 2.21-2.03z" fill="#D5473B"/>
  <path d="m31.47 125.1 0.14-1.48 2.15-3.26c0.3-0.49 0.45-0.88 0.39-1.36-0.04-0.49-0.44-0.79-1.03-0.68-0.66 0.12-1.21 0.61-1.66 1.1l-0.45-1.62c0.6-0.69 1.43-1.18 2.52-1.29 1.62-0.17 2.65 0.76 2.75 2.12 0.07 0.83-0.42 1.8-0.92 2.49l-1.24 1.87 2.79-0.38 0.12 1.8-5.56 0.69z" fill="#00979F"/>
  <path d="m53.83 119.4c-0.16-1.99 1.33-2.87 2.36-2.93 1.52-0.11 2.52 1.01 2.58 2.21 0.09 1.5-1.05 2.54-2.41 2.59-1.42 0.07-2.41-0.67-2.53-1.87z" fill="url(#paint10_linear_9731_98363)" stroke="#00979F" stroke-miterlimit="10" stroke-width=".5"/>
  <path d="m58.69 124c-0.76-1.7 0.45-3.06 1.42-3.5 1.52-0.73 3.04 0 3.63 1.21 0.78 1.59-0.12 3.14-1.53 3.74-1.43 0.65-2.84 0.05-3.52-1.45z" fill="url(#paint11_linear_9731_98363)" stroke="#00979F" stroke-miterlimit="10" stroke-width=".5"/>
  <path d="m54.91 127.9c-0.53-1.85 0.9-3.1 1.93-3.4 1.65-0.53 3.01 0.44 3.37 1.8 0.49 1.8-0.73 3.22-2.25 3.58-1.52 0.42-2.68-0.45-3.05-1.98z" fill="url(#paint12_linear_9731_98363)" stroke="#00979F" stroke-miterlimit="10" stroke-width=".5"/>
  <path d="m54.91 133.3c-0.53-1.85 0.9-3.1 1.93-3.4 1.65-0.53 3.01 0.44 3.37 1.8 0.49 1.8-0.73 3.22-2.25 3.58-1.52 0.42-2.68-0.45-3.05-1.98z" fill="url(#paint13_linear_9731_98363)" stroke="#00979F" stroke-miterlimit="10" stroke-width=".5"/>
  <path d="m57.09 138.9c-0.53-1.85 0.9-3.1 1.93-3.4 1.65-0.53 3.01 0.44 3.37 1.8 0.49 1.8-0.73 3.22-2.25 3.58-1.52 0.42-2.68-0.45-3.05-1.98z" fill="url(#paint14_linear_9731_98363)" stroke="#00979F" stroke-miterlimit="10" stroke-width=".5"/>
  <path d="m63.24 135c-0.53-1.85 0.9-3.1 1.93-3.4 1.64-0.53 3.01 0.44 3.37 1.8 0.49 1.8-0.73 3.22-2.25 3.58-1.52 0.42-2.68-0.45-3.05-1.98z" fill="url(#paint15_linear_9731_98363)" stroke="#00979F" stroke-miterlimit="10" stroke-width=".5"/>
  <path d="m42.99 137.8 9.72-2.15c1.16-0.26 2.19 0.4 2.33 1.61l0.63 9.42c0.09 1.09-0.81 2.07-2.04 2.19l-8.74 1.21c-1.1 0.16-2.12-0.68-2.22-1.89l-0.65-8.62c-0.09-0.93 0.1-1.52 0.97-1.77z" fill="#F47458" stroke="#CE4D42" stroke-miterlimit="10" stroke-width=".7"/>
  <path d="m47.29 139 3.81-0.42 0.11 1.35-2.58 0.34-0.13 1.9c0.26-0.14 0.56-0.25 0.9-0.27 1.35-0.15 2.31 0.65 2.41 2.1 0.17 1.73-1.05 2.71-2.76 2.71-0.74 0-1.61-0.23-2.2-0.55l0.3-1.49c0.49 0.36 1.16 0.56 1.75 0.53 0.83-0.07 1.32-0.62 1.21-1.39-0.09-0.69-0.75-1.05-1.62-0.93-0.45 0.06-0.86 0.26-1.27 0.5l0.07-4.38z" fill="#F8D06E"/>
  <path d="m75.11 144.9-7.15 26.12c-0.84 3.2 1.06 6.7 4.25 7.34l20.51 5.39c3.55 0.87 5.91-1.58 6.63-5.08l9.58-28.84c0.59-2.93-0.7-6.29-3.62-7.02l-21.83-6.1c-3.85-1.04-7.18 2.01-8.37 8.19z" fill="#F8D06E" stroke="#DDB35E" stroke-miterlimit="10" stroke-width=".7"/>
  <path d="m79.69 141.1-8.87 30.12c-0.42 1.42 0.39 2.63 1.87 2.93l21.83 5.12c1.42 0.36 2.58-0.52 2.93-2.14l8.67-28.51c0.49-1.86-0.48-3.15-2.4-3.64l-20.64-5.46c-1.52-0.43-2.93 0-3.39 1.58z" fill="#F78772" stroke="#DDB35E" stroke-miterlimit="10" stroke-width=".7"/>
  <path d="m95.86 167.1 19.77-14.09 3.35 0.12c1.65 0.35 1.94 3 1.17 3.93l-26.68 16.06 2.39-6.02z" fill="#F8D06E" stroke="#DDB35E" stroke-miterlimit="10" stroke-width=".7"/>
  <path d="m115.5 152.2c0.84-1.15 2.46-0.76 3.43 0.21 1.59 1.45 2.19 3.5 0.26 5.1l-2.15 1.42-2.71-4.18 1.17-2.55z" fill="#F47458" stroke="#CE4D42" stroke-miterlimit="10" stroke-width=".7"/>
  <path d="m95.72 167.3 2.64 4.65-5.4 0.8 2.76-5.45z" fill="#88DFD6" stroke="#61B9BA" stroke-miterlimit="10" stroke-width=".5"/>
  <path d="m22.32 145.5 9.4-5.2c1.29-0.77 2.91-0.27 3.5 1.08l5.49 13.73c0.56 1.42-0.09 2.87-1.55 3.47l-8.41 3.8c-1.35 0.65-2.61-0.22-3.38-1.91l-5.72-11.76c-0.77-1.53-0.71-2.46 0.67-3.21z" fill="url(#paint16_linear_9731_98363)" stroke="#49B3B5" stroke-miterlimit="10" stroke-width=".7"/>
  <path d="m24.21 147c-0.4-1.21 0.63-2.26 1.5-2.53 1.35-0.5 2.51 0.24 2.9 1.33 0.55 1.56-0.48 2.77-1.9 3.07-1.3 0.35-2.17-0.52-2.5-1.87z" fill="url(#paint17_linear_9731_98363)" stroke="#49B3B5" stroke-miterlimit="10" stroke-width=".7"/>
  <path d="m25.94 152.5c-0.4-1.21 0.63-2.25 1.5-2.53 1.35-0.49 2.51 0.25 2.91 1.34 0.54 1.55-0.49 2.76-1.91 3.07-1.29 0.35-2.16-0.52-2.5-1.88z" fill="url(#paint18_linear_9731_98363)" stroke="#49B3B5" stroke-miterlimit="10" stroke-width=".7"/>
  <path d="m28.09 158.3c-0.4-1.21 0.63-2.26 1.5-2.53 1.35-0.49 2.51 0.24 2.91 1.33 0.54 1.56-0.49 2.77-1.91 3.07-1.29 0.35-2.16-0.52-2.5-1.87z" fill="url(#paint19_linear_9731_98363)" stroke="#49B3B5" stroke-miterlimit="10" stroke-width=".7"/>
  <path d="m30.24 145.3c-0.49-1.55 0.73-2.76 1.82-3.1 1.65-0.59 2.91 0.44 3.33 1.65 0.61 1.8-0.75 3.22-2.34 3.52-1.52 0.36-2.54-0.62-2.81-2.07z" fill="url(#paint20_linear_9731_98363)" stroke="#49B3B5" stroke-miterlimit="10" stroke-width=".7"/>
  <defs>
    <linearGradient id="paint0_linear_9731_98363" x1="142.8" x2="142.8" y1="8.094" y2="105" gradientUnits="userSpaceOnUse">
      <stop stop-color="#17B8BE" offset="0"/>
      <stop stop-color="#13ADA6" offset="1"/>
    </linearGradient>
    <linearGradient id="paint1_linear_9731_98363" x1="140.1" x2="140.1" y1="15.71" y2="91.37" gradientUnits="userSpaceOnUse">
      <stop stop-color="#3BA3B1" offset="0"/>
      <stop stop-color="#00A6B1" offset="1"/>
    </linearGradient>
    <linearGradient id="paint2_linear_9731_98363" x1="133.1" x2="133.1" y1="87.77" y2="93.44" gradientUnits="userSpaceOnUse">
      <stop stop-color="#42BAC0" offset="0"/>
      <stop stop-color="#00979F" offset="1"/>
    </linearGradient>
    <linearGradient id="paint3_linear_9731_98363" x1="130.4" x2="130.4" y1="96.83" y2="110.1" gradientUnits="userSpaceOnUse">
      <stop stop-color="#A51800" offset="0"/>
      <stop stop-color="#D80000" offset="1"/>
    </linearGradient>
    <linearGradient id="paint4_linear_9731_98363" x1="153.5" x2="153.5" y1="117.3" y2="125.8" gradientUnits="userSpaceOnUse">
      <stop stop-color="#19B0B3" offset="0"/>
      <stop stop-color="#13ADA6" offset="1"/>
    </linearGradient>
    <linearGradient id="paint5_linear_9731_98363" x1="177.7" x2="177.7" y1="152.5" y2="162.7" gradientUnits="userSpaceOnUse">
      <stop stop-color="#00A6B1" offset="0"/>
      <stop stop-color="#019995" offset="1"/>
    </linearGradient>
    <linearGradient id="paint6_linear_9731_98363" x1="24.5" x2="24.5" y1="90.6" y2="102.7" gradientUnits="userSpaceOnUse">
      <stop stop-color="#53CECE" offset="0"/>
      <stop stop-color="#51CAC8" offset="1"/>
    </linearGradient>
    <linearGradient id="paint7_linear_9731_98363" x1="39.5" x2="39.5" y1="86.73" y2="98.81" gradientUnits="userSpaceOnUse">
      <stop stop-color="#53CECE" offset="0"/>
      <stop stop-color="#51CAC8" offset="1"/>
    </linearGradient>
    <linearGradient id="paint8_linear_9731_98363" x1="53.27" x2="53.27" y1="92.35" y2="102.3" gradientUnits="userSpaceOnUse">
      <stop stop-color="#53CECE" offset="0"/>
      <stop stop-color="#51CAC8" offset="1"/>
    </linearGradient>
    <linearGradient id="paint9_linear_9731_98363" x1="34.2" x2="34.2" y1="114.2" y2="128.4" gradientUnits="userSpaceOnUse">
      <stop stop-color="#53CECE" offset="0"/>
      <stop stop-color="#51CAC8" offset="1"/>
    </linearGradient>
    <linearGradient id="paint10_linear_9731_98363" x1="56.2" x2="56.2" y1="116.5" y2="121.4" gradientUnits="userSpaceOnUse">
      <stop stop-color="#00A6B1" offset="0"/>
      <stop stop-color="#019995" offset="1"/>
    </linearGradient>
    <linearGradient id="paint11_linear_9731_98363" x1="60.89" x2="60.89" y1="120.2" y2="125.8" gradientUnits="userSpaceOnUse">
      <stop stop-color="#00A6B1" offset="0"/>
      <stop stop-color="#019995" offset="1"/>
    </linearGradient>
    <linearGradient id="paint12_linear_9731_98363" x1="57.51" x2="57.51" y1="124.2" y2="130" gradientUnits="userSpaceOnUse">
      <stop stop-color="#00A6B1" offset="0"/>
      <stop stop-color="#019995" offset="1"/>
    </linearGradient>
    <linearGradient id="paint13_linear_9731_98363" x1="58.67" x2="58.67" y1="131.1" y2="136.9" gradientUnits="userSpaceOnUse">
      <stop stop-color="#00A6B1" offset="0"/>
      <stop stop-color="#019995" offset="1"/>
    </linearGradient>
    <linearGradient id="paint14_linear_9731_98363" x1="59.37" x2="59.37" y1="135.2" y2="141" gradientUnits="userSpaceOnUse">
      <stop stop-color="#00A6B1" offset="0"/>
      <stop stop-color="#019995" offset="1"/>
    </linearGradient>
    <linearGradient id="paint15_linear_9731_98363" x1="65.89" x2="65.89" y1="131.2" y2="137" gradientUnits="userSpaceOnUse">
      <stop stop-color="#00A6B1" offset="0"/>
      <stop stop-color="#019995" offset="1"/>
    </linearGradient>
    <linearGradient id="paint16_linear_9731_98363" x1="30.37" x2="30.37" y1="139.8" y2="162.8" gradientUnits="userSpaceOnUse">
      <stop stop-color="#53CECE" offset="0"/>
      <stop stop-color="#51CAC8" offset="1"/>
    </linearGradient>
    <linearGradient id="paint17_linear_9731_98363" x1="26.56" x2="26.56" y1="144.2" y2="149.4" gradientUnits="userSpaceOnUse">
      <stop stop-color="#00A6B1" offset="0"/>
      <stop stop-color="#019995" offset="1"/>
    </linearGradient>
    <linearGradient id="paint18_linear_9731_98363" x1="28.29" x2="28.29" y1="149.2" y2="154.3" gradientUnits="userSpaceOnUse">
      <stop stop-color="#00A6B1" offset="0"/>
      <stop stop-color="#019995" offset="1"/>
    </linearGradient>
    <linearGradient id="paint19_linear_9731_98363" x1="30.02" x2="30.02" y1="155" y2="160.2" gradientUnits="userSpaceOnUse">
      <stop stop-color="#00A6B1" offset="0"/>
      <stop stop-color="#019995" offset="1"/>
    </linearGradient>
    <linearGradient id="paint20_linear_9731_98363" x1="32.77" x2="32.77" y1="141.8" y2="147.4" gradientUnits="userSpaceOnUse">
      <stop stop-color="#00A6B1" offset="0"/>
      <stop stop-color="#019995" offset="1"/>
    </linearGradient>
  </defs>
</svg>