<svg xmlns="http://www.w3.org/2000/svg" width="200" height="200" viewBox="0 0 200 200">
<!-- SVG created with Arrow, by QuiverAI (https://quiver.ai) -->
  <path d="m189.9 153.2c-2.85-13.07-19.82-18.6-37.11-17.97-2.07 0.08-4.11 0.35-6.1 0.84-3.52-1.41-7.4-2.02-11.6-1.61-7.46 0.71-13.39 4.93-17.56 10.19-4.82-3.53-11.11-5.61-17.66-4.99-5.08 0.5-9.39 2.61-12.92 5.54-4.51-6.3-10.38-8.94-17.22-9.01-0.4-12.49-11.62-22.32-23.9-21.8-7.31 0.33-13.06 2.98-17.5 7.8-0.88-2.65-1.4-4.68-1.4-7.15 0-13.31 10.08-25.08 23.75-25.11 3.86-0.01 6.85 0.59 9.81 1.91 4.01-8.74 11.69-13.03 21.5-13.03 7.42 0 13.72 3.35 18.03 8.29 4.26-8.17 11.62-14.07 21.3-14.07 4.47 0 7.51 0.79 10.51 2.82-1.65 4.36-2.33 8.35-1.11 13.21 2.18 8.87 8.7 14.19 14.43 16.63 5.19 2.23 13.08 1.97 21.42-1.13 2.5 2.47 5.14 3.56 8.09 3.27 5.53-0.53 8.8-5.18 8.43-8.92-0.44-4.35-2.25-6.51-5.03-8.24 3.64-8.34 2.26-18.47-4.27-25.01 4.1-5.03 5.9-10.68 4.9-17.98-1.94-12.65-12.76-21.56-26.05-21.15l-0.52 0.34c-4.19-10.17-12.79-15.51-21.85-14.92-7.37 0.5-12.08 2.86-15.7 5.76-4.64-3.02-8.89-4.12-14.46-3.99-8.07 0.21-13.11 4.64-16.11 7.93-5.01-3.67-9.47-5.21-15.33-4.79-8.25 0.6-13.42 4.07-17.37 8.82-1.28-1.43-3.1-2.75-4.23-3.57 1.46-4.9 3.6-7.69 6.37-9.05 1.82 1.18 3.69 1.53 5.6 0.67 3.31-1.45 3.88-4.64 3.13-6.96-1.29-4.07-4.65-3.96-6.18-3.78-3.92 0.44-5.25 4.12-5.03 6.34-4.22 3.03-6.34 6.93-7.53 11.96-2.71-1.14-6.12-1.79-9.6-1.72-1.63 0.04-3.24 0.24-4.81 0.59-1.69-5.34-3.71-7.77-6.8-9.87 0.27-2.29-0.97-5.88-5.3-5.9-4.2-0.02-5.88 4.05-5.91 5.64-0.08 4.42 3.31 5.76 5.63 5.63 1.47-0.08 2.65-0.53 3.49-1.2 2.51 1.88 4.22 3.99 5.63 6.9-9.77 3.69-15.75 13.51-15.75 23.74 0 12.79 10.95 24.53 24.84 24.53 8.21 0 15.44-4.34 19.93-10.66 3.06 3.12 6.2 4.84 10.15 5.72 1.02 5.91 4.55 8.49 8.72 8.35 5.43-0.18 8.67-4.29 8.84-9.52 1.33-0.94 2.61-2.19 3.9-3.49 3.06 2.37 6.81 3.84 11.23 4.29 1.62 4.31 4.93 5.12 8.46 4.9 4.92-0.29 7.98-3.86 8.64-7.84 2.43-1.35 4.87-3.32 6.6-5.52 2.31 3.04 5.75 4.5 9.56 4.41 1.03 1.47 2 2.97 3.21 4.11-3.34 3.74-1.09 3.28 1 5.14 3.55 3.14 8.54 5.51 16.1 6.04 9.54 0.67 17.04-4.7 20.83-8.84 3.9 4.06 8.08 12.19 6.29 22.51-1.16-0.94-3.42-1.2-5.17-0.94-6.04 0.87-8.21 7.04-7.65 11.08 0.25 1.86 0.89 3.07 1.89 4.34-4.6 2.46-13.26 3.84-20.99 1.17-2.29 5.45-5.88 10.73-12.9 13.81-0.71 0.32-1.26 0.48-1.77 0.53 0.01 0.25 0.1 0.51 0.1 0.78 0 5.56-4.41 9.23-8.04 9.23-5.35 0-7.7-3.19-8.67-6.85-5.64-0.16-11.49-1.11-15.72-2.7-0.41 0.8-0.76 1.31-1.25 1.98 0.43 1.06 0.68 1.93 0.68 3.12 0 5.23-4.1 7.83-8.05 7.83s-7.07-2.18-8.53-5.54c-3.52 0.63-6.4 0.59-10.82-0.21-0.86 2-0.27 1.8-0.63 3.31 0.92 1.95 1.19 3.96 1.32 6.06-1.2-0.11-3.6 0.06-4.7 0.42 0.81 0.37 2.22 0.34 3.08 0.61-1.25-0.33-4.36-0.58-5.67-0.39 0.33 0.25 1.54 0.74 2.26 1.07 3.41 1.55 5.94 4.02 8.35 7.72-2.48-1.15-5.92-1.87-8.97-1.61-4.72-5.93-11.34-7.86-17.73-7.54 0.29 0.75 0.62 1.5 0.99 2.2-0.9 0.57-4.67 2.72-6.54 7.09-4.81-0.44-8.76-2.62-10.26-7.86-0.7-2.68-0.21-5.34 0.81-7.78-3.38 1.95-6.16 4.71-8.08 7.86l-2.61 7.91c-1.94 2.09-2.9 3.66-3.21 5.63-1 5.73 3.19 10.27 8.04 9.8 2.39-0.25 3.7-0.84 5.48-2 3.89 2.65 8.6 4.08 13.69 3.7l1.07-0.04c-0.04 6.08 3.03 12.55 8.41 16.52-0.58 1.18-1.29 2.9-1.03 4.98 0.64 5.17 4.6 7.69 8.17 7.25 4.15-0.5 6.57-2.76 8.03-6.69 4.92 0.43 10.8 0.13 16.11-1.37 2.92 2.47 5.45 3.41 8.38 4.35 0.36 5.35 3.64 8.93 8.25 8.6 5.03-0.38 7.64-4.25 8.3-8.93 6.19-0.6 11.19-2.67 17.17-6.72 1.16 5.76 4.32 10.51 10.67 9.84 4.96-0.54 7.72-3.58 8.78-7.9 7.25-0.6 14.23-2.22 19.25-4.2 1.65 3.81 4.84 5.86 8.82 5.64 5.71-0.31 8.67-4.66 8.26-9.38-0.16-1.98-1.06-3.74-2.25-5.2 3.87-3.78 7.61-9.85 6.47-16.61z" fill="#000" opacity=".1"/>
  <path d="m148.6 135.4c17.18-2.37 37.87 4.93 41.17 18.07 3.43 13.47-12.34 27.76-39.34 28.11l-7.05-0.1 1.65-45.36 3.57-0.72z" fill="#40CEC6"/>
  <path d="m47.12 158.1c0 12.26 9.1 25.53 25.42 25.68 14.53 0.13 26.4-8.61 26.4-20.93 0-12.75-10.87-28.38-26.91-28.38-14.32 0-24.91 11.33-24.91 23.63z" fill="#F77259"/>
  <path d="m76.34 166.2-10.53-2.66c-4.92-1.8-7.12-6.15-6.37-10.36 1.19-6.96 6.85-7.82 9.62-7.46l6.96 1.38c2.1 0.52 2.22 1.76 1.5 3.66-2.46 5.03-3.05 7.84-2.94 13.5 0.06 1.49 0.54 2.01 1.76 1.94z" fill="#CC8931"/>
  <path d="m75.68 163.7-7.96-1.72c-4.92-1.8-7.69-4.79-7.63-9.1 0.07-5.65 4.14-7.45 7.77-7.23l7.96 1.46c1.65 0.37 1.77 1.59 1.11 3.32-2.53 5.29-2.79 7.25-3.05 12.04-0.12 1.23 0.59 1.49 1.8 1.23z" fill="#FDCB5C"/>
  <path d="m54.43 181.6c0 5.69 4.3 8.43 8.34 8.35 5.54-0.13 8.97-4.2 8.97-8.55 0-5.28-3.82-9.05-8.62-8.84-5.17 0.24-8.69 4.16-8.69 9.04z" fill="#CC8931"/>
  <path d="m58.05 181.3c0 3.61 2.78 5.2 5.2 5.13 3.44-0.09 5.06-2.53 5.06-5.26 0-3.3-2.38-4.85-4.9-4.73-3.19 0.14-5.36 2.32-5.36 4.86z" fill="#F77259"/>
  <path d="m78.37 163.1c0 12.49 10.17 23.55 24.76 23.55 15.78 0 27.97-10.57 27.97-24.18 0-12.39-10.74-24.44-27.19-24.5-13.75-0.07-25.54 10.58-25.54 25.13z" fill="#00B2B8"/>
  <path d="m91.21 159.1c0 5.16 4.16 8.91 7.6 8.91h8.91c1.69 0 2.11-1.38 1.56-3.68-1.19-4.51-1.22-7.24 0.08-11.31 0.66-2.18-0.26-3.25-2.16-3.12l-8.13 0.34c-4.42 0.33-7.86 4-7.86 8.86z" fill="#F7614A"/>
  <path d="m97.13 162.5c-0.34-1.09 0.18-2.18 1.14-2.95l2.19-1.91c0.86-0.75 0.76-2.44-0.44-2.51-1.08-0.07-1.34 0.94-2.04 0.94-0.9 0-1.29-0.81-0.8-1.79 0.64-1.06 1.73-1.21 2.74-1.21 2.77 0 3.83 1.77 3.51 3.74-0.36 2.16-2.25 3.13-3.04 3.88l2.17-0.08c1.1-0.05 1.2 1.95 0 1.89h-5.43z" fill="#CC8931"/>
  <path d="m95.28 186.7c0 5.71 4.33 9.37 8.79 8.99 4.96-0.44 8.21-4.47 8.61-8.88 0.04-5.73-4.41-9.3-8.77-9.09-5.78 0.26-8.63 4.4-8.63 8.98z" fill="#CC8931"/>
  <path d="m98.81 186.7c0 3.61 2.72 4.98 4.9 4.83 3.68-0.25 5-2.5 5-4.97 0-3.07-2.35-5.05-5-4.82-2.93 0.26-4.9 2.09-4.9 4.96z" fill="#F7614A"/>
  <path d="m112.7 158c0 12.75 10.45 24.21 23.9 24.21s23.13-13.16 23.13-23.95c0-12.06-8.31-24.91-22.99-24.91-13.87 0-24.04 11.93-24.04 24.65z" fill="#FDCB5C"/>
  <path d="m127 156.3c0 5.79 4.7 8.6 8.19 8.45 5.72-0.24 8.71-4.8 8.71-8.6 0-5.43-4.1-8.93-8.32-8.68-5.33 0.33-8.58 4.19-8.58 8.83z" fill="#00B2B8"/>
  <path d="m133.2 158.1c-1.2-0.71-1.51-2.29-0.47-2.69 0.72-0.3 1.09 0.95 1.9 1.15 0.96 0.26 1.67-0.96 1.41-1.81-0.28-0.88-1.92-0.33-2.53-0.84-0.82-0.69-0.1-1.69 0.62-1.66 0.65 0.02 1.16 0.1 1.47-0.39 0.44-0.66-0.44-1.06-1.03-0.93-0.78 0.19-1.13 0.6-1.77 0.34-0.96-0.4-0.6-1.22 0-1.55 1.04-0.59 2.36-0.49 3.01-0.34 2.38 0.54 2.53 2.43 2.16 3.53-0.28 0.75-0.66 0.9-0.66 0.9s1.28 0.96 1 2.85c-0.47 3.01-3.46 2.45-5.11 1.44z" fill="#F7614A"/>
  <path d="m133.1 181.2c0 5.79 4.33 8.76 8.68 8.41 5.35-0.46 8.2-4.38 8.33-9.03 0.14-5.6-4.64-9.09-8.86-8.76-5.62 0.44-8.15 4.83-8.15 9.38z" fill="#F77259"/>
  <path d="m136.8 181.2c0 3.38 2.6 4.62 4.6 4.49 3.36-0.2 4.65-2.32 4.65-4.91 0-2.97-2.26-4.5-4.65-4.3-2.86 0.25-4.6 2.2-4.6 4.72z" fill="#40CEC6"/>
  <path d="m167.8 174.1c0 5.69 4.59 9.29 9.23 8.85 5.33-0.53 8.39-4.7 8.03-9.25-0.42-5.28-4.59-7.81-8.69-7.39-5.36 0.52-8.57 3.94-8.57 7.79z" fill="#F76D58"/>
  <path d="m171.7 174.6c0 3.22 2.66 4.74 4.75 4.54 3.41-0.33 4.47-2.48 4.32-4.81-0.22-2.97-2.44-4.29-4.48-4.03-2.9 0.4-4.59 2.27-4.59 4.3z" fill="#FDCB5C"/>
  <path d="m166.1 145.6 10.45 3.67c2.19 0.95 2.12 2.84 0.6 4.43-3.38 3.6-6.07 5.56-9.12 7.52-2 1.28-3.12 0-2.91-2.22 0.36-3.6-0.42-7.17-1.82-11.3-0.72-2.1 0.44-3 2.8-2.1z" fill="#F76D58"/>
  <path d="m21.43 150.7c0.74 5.4 5.19 9.37 10.46 8.1l4.37-1.37-3.18-14.3-9.07 1.28c-1.8 2.03-2.87 4.22-2.58 6.29z" fill="#F76D58"/>
  <path d="m21.12 137.9c0 12.75 10.46 23.92 24.35 23.92 13.9 0 24.48-11.83 24.48-24.92 0-12.41-10.33-24.26-23.94-24.26-13.65 0-24.89 10.1-24.89 25.26z" fill="#40CEC6"/>
  <path d="m33.87 134.1c0 6.25 5.08 10.6 11.69 10.34l2.77-3.96c1.86-2.8 3.62-3.95 6.08-4.83 1.65-0.66 1.13-3.95 0.23-6.56-1.83-4.94-6.83-6.78-11.92-6.46-5.53 0.36-8.85 6.25-8.85 11.47z" fill="#F76D58"/>
  <path d="m40.08 127.3 9.01 1.01c1.52 0.2 1.65 1.24 1.5 2.07-0.27 1.37-1.5 1.12-2.14 0.99l-6.64-0.93 0.03 6.94c0.02 1.63-3.05 1.88-3.16-0.15l-0.15-8.22c-0.04-1.16 0.61-1.83 1.55-1.71z" fill="#FDCB5C"/>
  <path d="m111.8 99.09c0 3.03 1.65 4.19 4.61 3.15 5.66-2.08 10.94-6.42 11.3-9.93 0.43-4-3.67-6.22-12.11-7.16-4.25-0.46-7.33 0.2-6.27 3.49 1.58 4.59 2.47 6.55 2.47 10.45z" fill="#CC8931"/>
  <path d="m115.4 96.12c-0.96-1.06-0.47-2.46 0.47-2.39 0.79 0.06 0.79 0.93 1.68 0.99 0.99 0.07 1.38-1.2 0.88-1.91-0.55-0.75-1.52-0.1-2.08-0.64-0.86-0.81 0.1-1.85 0.76-1.72 0.7 0.14 0.99-0.14 1.14-0.71 0.26-0.97-0.94-1.09-1.47-0.76-0.54 0.33-1.15 0.46-1.58-0.14-0.6-0.81 0.21-1.45 0.8-1.66 1.33-0.45 2.38-0.25 3.08 0.12 2.16 1.06 2.19 2.68 1.46 3.82-0.46 0.69-0.95 0.74-0.95 0.74s1.85 0.85 1.85 2.47c0 2.29-2.36 3.36-4.13 3.03-0.75-0.14-1.38-0.6-1.91-1.24z" fill="#F7614A"/>
  <path d="m96.46 90.72c0-10.43 9.61-19.31 22.6-19.31 13.86 0 26.5 9.67 26.5 23.62 0 11.06-10.84 22.98-23.45 22.98-15.38 0-25.65-10.82-25.65-27.29z" fill="#40CEC6"/>
  <path d="m58.52 100.2c0-12.26 10.33-22.82 23.26-22.66 13.38 0.16 24.29 9.97 24.29 24.6 0 11.81-10.91 24.43-24.84 24.28-13.77-0.14-22.71-11.63-22.71-26.22z" fill="#F7614A"/>
  <path d="m74.3 92.1c-0.79 1.19 0.41 2.37 1.52 3.56 2.74 2.96 3.8 4.99 4.59 9.41 0.36 1.76 1.65 2.02 3.11 1.08l5.88-3.45c3.95-2.47 5.31-5.86 4.41-10.07-1.29-6.01-6.39-7.28-11.06-5.87l-6.93 3.15c-0.79 0.4-1.3 1.16-1.52 2.19z" fill="#00B2B8"/>
  <path d="m87.07 93.91c1.29 0 1.85-0.88 1.79-1.85-0.11-1.34-1.15-1.8-2.11-1.67-1.29 0.2-1.66 1.05-1.59 1.93 0.13 1.04 0.88 1.59 1.91 1.59z" fill="#F6604A"/>
  <path d="m86.55 99.64c1.29 0 1.84-0.88 1.78-1.85-0.11-1.34-1.15-1.78-2.11-1.66-1.29 0.19-1.66 1.05-1.59 1.92 0.13 1.04 0.88 1.59 1.92 1.59z" fill="#F6604A"/>
  <path d="m26.1 112.7c0-13.21 10.36-24.41 23.74-24.41 14.68 0 25.94 10.44 25.94 23.6 0 11.32-8.94 22.28-20.99 22.28-14.32 0-28.69-9.19-28.69-21.47z" fill="#FDCB5C"/>
  <path d="m130.5 82.61c0-12.55 10.33-25.5 23.78-25.09 12.39 0.41 24.43 10.51 25.18 22.57 0.9 13.64-9.91 25.73-24.24 25.73-13.1 0-24.72-10.57-24.72-23.21z" fill="#FDCB5C"/>
  <path d="m164.9 98.05c0 5.69 4.56 9.08 9.52 8.56 4.96-0.59 8.21-4.76 7.95-9.11-0.36-5.29-4.46-8.52-8.72-8.12-5.72 0.46-8.75 4.53-8.75 8.67z" fill="#40CEC6"/>
  <path d="m169.8 97.79c0 3.54 2.77 4.91 4.96 4.65 3.44-0.4 4.19-2.8 3.99-5.13-0.29-2.97-2.48-4.29-4.8-3.96-3 0.46-4.15 2.48-4.15 4.44z" fill="#FDCB5C"/>
  <path d="m114.5 118.2c0 5.76 4.45 8.86 8.48 8.45 5.33-0.59 8.7-4.93 8.62-9.28-0.15-5.21-4.22-8.71-8.97-8.18-5.72 0.59-8.13 4.94-8.13 9.01z" fill="#FDCB5C"/>
  <path d="m118.2 118.4c0 3.52 2.8 4.82 4.98 4.56 3.41-0.46 4.73-2.59 4.52-5.06-0.26-2.9-2.45-4.35-5.06-4.09-2.95 0.33-4.44 2.34-4.44 4.59z" fill="#F7614A"/>
  <path d="m82.32 121.4c0 5.69 4.79 8.76 8.79 8.3 5.35-0.64 8.06-4.63 7.8-9.35-0.36-5.28-4.85-8.51-9.1-7.99-5.2 0.66-7.49 4.8-7.49 9.04z" fill="#FDCB5C"/>
  <path d="m85.78 121.3c0 3.49 2.76 4.72 4.83 4.52 3.5-0.35 4.55-2.65 4.42-5.18-0.22-2.9-2.51-4.3-5.09-3.97-2.87 0.4-4.16 2.45-4.16 4.63z" fill="#F7614A"/>
  <path d="m110.9 24.36c0-10.82 9.17-14.21 18.37-14.21 12.93 0 24.65 10.3 24.65 23.77 0 12.75-11.78 25.11-24.18 24.58-13.45-0.63-18.84-14.48-18.84-34.14z" fill="#F77259"/>
  <path d="m130.1 24.82c-1.96 0.72-1.1 4.01-0.24 6.98 0.78 2.71-0.74 5.84-0.15 8.69 0.43 2.02 2.09 1.95 5.69 0.92 5.5-1.65 11.27-4.83 11.34-8.19 0.12-4.18-5.76-9.17-13.63-9.01-1.03 0.02-2.14 0.15-3.01 0.61z" fill="#CC8931"/>
  <path d="m131 25.21c-1.71 0.9-1.11 3.43-0.14 6.52 0.86 2.9-0.2 4.85 0.06 7.45 0.14 1.56 1.2 1.83 3.86 0.99 5.32-1.86 10.62-4.36 11.12-7.46 0.53-3.39-5.8-8.48-12.83-8.09-0.78 0.05-1.53 0.2-2.07 0.59z" fill="#FDCB5C"/>
  <path d="m83.29 31.9c0-11.67 10.13-19.9 19.4-19.9 12.99 0 24.78 10.61 24.64 24.11-0.16 12.98-9.97 23.2-22.52 22.91-12.15-0.32-21.52-11.01-21.52-27.12z" fill="#FDCB5C"/>
  <path d="m96.49 35.28c0 6.18 4.63 9.21 8.85 8.74 5.78-0.66 8.63-5.38 8.5-9.26-0.26-5.66-4.48-8.98-8.83-8.65-5.63 0.52-8.52 4.73-8.52 9.17z" fill="#F77259"/>
  <path d="m102.1 32.01 1.52-0.9c1.34-0.84 2.86-1.1 2.91 0.55l-0.05 6.65c0 1.32-2.16 1.65-2.16 0l0.12-4.89-1.19 0.67c-1.19 0.72-2.33-1.33-1.15-2.08z" fill="#CC8931"/>
  <path d="m48.92 28.21c-0.69-8.1 8.99-12.99 18.95-12.99 13.58 0 26.44 9.54 26.44 24.46 0 12.33-10.19 23.83-23.02 23.4-13.21-0.52-21.48-12.85-22.37-34.87z" fill="#40CEC6"/>
  <path d="m9.54 43.76c0-12.65 10.2-25.85 24.56-26.05 13.64-0.2 25.29 9.82 25.29 25.88 0 12.75-11.09 25.24-24.67 25.24-13.9 0-25.18-11.17-25.18-25.07z" fill="#F7614A"/>
  <path d="m12.72 41.8c0-6.25 4.89-9.75 8.99-9.49 5.88 0.33 9.07 5.35 9.07 9.49 0 5.93-4.57 9.06-8.57 8.86-5.72-0.33-9.49-4.61-9.49-8.86z" fill="#333"/>
  <path d="m13.41 42.13c0-5.69 4.33-9.22 8.68-9.02 5.33 0.26 7.86 4.55 7.91 8.35 0.07 5.35-4.29 8.25-7.86 8.18-5.23-0.13-8.73-4.2-8.73-7.51z" fill="#fff"/>
  <path d="m18.91 39.32c-1.2 3.03 0.5 6.73 4.2 7.13 2.96 0.33 5.31-1.89 5.57-4.6 0.43-3.86-1.79-5.66-4.21-5.74-2.71-0.07-4.75 1.21-5.56 3.21z" fill="#333"/>
  <path d="m24.31 38.82c-0.55 1.44 0.32 3.03 1.71 3.1 1.52 0.08 2.39-1.12 2.32-2.41-0.13-1.59-1.23-2.18-2.13-2.12-0.96 0.07-1.53 0.48-1.9 1.43z" fill="#fff"/>
  <path d="m35.12 41.14c0-6.25 4.79-8.96 8.82-8.63 6.18 0.53 9.03 5.15 9.25 9.08 0.43 5.49-4.1 9.22-8.26 9-5.79-0.26-9.81-4.88-9.81-9.45z" fill="#333"/>
  <path d="m36.08 41.4c0-5.36 4.33-8.39 8.68-8.18 5.33 0.26 8.1 4.37 8.16 8.44 0.13 4.95-4.33 8.05-7.89 7.79-5.48-0.43-8.95-4.5-8.95-8.05z" fill="#fff"/>
  <path d="m39.77 39.98c-1.29 3.26 0.64 6.63 4.6 7.22 3.18 0.53 5.75-2.37 5.88-4.69 0.26-3.93-2.13-5.8-4.56-5.93-2.84-0.2-5.03 1.14-5.92 3.4z" fill="#333"/>
  <path d="m46.36 38.71c-0.65 1.06-0.11 2.55 0.98 2.88 1.29 0.46 2.38-0.58 2.5-1.56 0.18-1.52-0.96-2.31-1.98-2.31-0.79 0-1.19 0.4-1.5 0.99z" fill="#fff"/>
  <path d="m64.93 36.79 0.12 5.66c0 0.97 0.6 1.57 1.56 1.44l6.75-0.85v2.6c0 1.62 1.19 2.22 2.48 0.97l6.78-5.99c1.03-0.97 0.9-2.04-0.16-2.98l-7.3-5.63c-0.89-0.74-1.85-0.22-1.73 0.88v2.64l-7.1-0.46c-0.96-0.13-1.48 0.4-1.4 1.72z" fill="#CC8931"/>
  <path d="m64.67 36.72v5.53c0 1.06 0.59 1.65 1.72 1.52l7.03-0.72v2.47c0 1.49 1.06 2.08 2.26 0.96l7.03-6.18c1.1-1.06 0.87-2.03-0.42-3.01l-6.78-5.49c-1.06-0.98-2.12-0.58-2.05 0.76v2.4l-7.25 0.12c-1.06 0-1.59 0.53-1.54 1.64z" fill="#FDCB5C"/>
  <path d="m64.79 63.48c0 5.69 4.39 8.82 8.68 8.56 5.6-0.43 8.31-4.95 8.31-8.93 0-5.32-4.33-8.35-8.68-7.92-5.51 0.59-8.31 4.02-8.31 8.29z" fill="#F77259"/>
  <path d="m68.85 63.48c0 3.43 2.77 4.68 4.96 4.36 3.43-0.53 4.46-2.63 4.31-5.14-0.26-3.29-2.68-4.64-5.12-4.28-2.85 0.53-4.15 2.49-4.15 5.06z" fill="#FDC759"/>
  <path d="m119.7 59.76c0 5.69 4.56 8.75 8.91 8.29 5.59-0.74 8.91-4.7 8.65-9.42-0.43-5.29-4.96-8.52-9.31-8-5.07 0.71-8.25 4.78-8.25 9.13z" fill="#FDCB5C"/>
  <path d="m124.1 59.43c0 3.53 2.7 4.83 4.89 4.4 3.37-0.72 4.57-2.61 4.31-5.32-0.36-2.77-2.81-4.2-5.17-3.8-2.77 0.53-4.03 2.49-4.03 4.72z" fill="#F77259"/>
  <path d="m138.8 81.88 3.26 8.91c0.56 1.62 1.92 1.36 2.81-0.53l0.86-1.83 6.2 3.78c1.3 0.82 2.26 0.4 3.22-1.89l1.11-2.61c0.79-1.96-0.27-2.62-2.53-3.69l-4.57-1.73 0.62-1.9c0.63-1.83-0.66-3.01-2.32-2.16l-8.02 2.08c-1.33 0.44-1.26 0.44-0.64 1.57z" fill="#CC8931"/>
  <path d="m138.4 82.74 3.74 8.42c0.66 1.46 1.85 0.65 3.05-2.55l7.29 3.74c1.73 0.94 2.29 0.26 3.68-3.44 1.03-2.97 0.07-3.64-2.29-4.69l-5.16-2.39 0.79-1.95c0.56-1.59-0.41-2.47-2.27-1.72l-7.49 1.9c-1.76 0.56-2.22 0.89-1.34 2.68z" fill="#F76D58"/>
  <path d="m47.65 102.3 2.96-5.69c0.66-1.28 2.25-0.91 3.31-0.16l4.35 3.3 0.79-1.75c1.1-2.4 2.76-1.88 3.28 0.15l3.18 9.2c0.67 2.25 0 2.85-2.36 2.99l-7.43 0.97c-1.97 0.33-2.6-1.11-1.41-2.54l1.16-2.06-6.17-2.05c-1.66-0.66-2.41-1.12-1.66-2.36z" fill="#40CEC6"/>
  <path d="m97.52 58.63c0 5.69 4.22 8.88 8.57 8.48 5.53-0.53 8.71-4.49 8.45-9.18-0.43-5.27-4.77-8.17-9.12-7.64-4.96 0.53-7.9 4.23-7.9 8.34z" fill="#F7614A"/>
  <path d="m101.6 58.39c0 3.87 3.11 5.32 4.97 4.86 3.44-0.94 4.64-3.09 4.11-5.59-0.64-3.03-3-3.85-4.92-3.4-2.95 0.82-4.16 2.28-4.16 4.13z" fill="#40CEC6"/>
</svg>